<?xml version="1.0" encoding="UTF-8"?>
<svg width="48px" height="48px" viewBox="0 0 48 48" version="1.1" xmlns="http://www.w3.org/2000/svg" xmlns:xlink="http://www.w3.org/1999/xlink">
    <!-- Generator: Sketch 49.2 (51160) - http://www.bohemiancoding.com/sketch -->
    <title>无缝衔接</title>
    <desc>Created with Sketch.</desc>
    <defs></defs>
    <g id="Page-1" stroke="none" stroke-width="1" fill="none" fill-rule="evenodd">
        <g id="免密支付管理-未开启-" transform="translate(-25.000000, -219.000000)">
            <g id="无缝衔接" transform="translate(25.000000, 219.000000)">
                <rect id="Rectangle-60" opacity="0.100000001" x="0" y="0" width="48" height="48"></rect>
                <path d="M10.5,21.5 L10.5,40.5 L38.5,40.5 L38.5,21.5 L10.5,21.5 Z M37.8786797,20 L33.3786797,15.5 L15.6213203,15.5 L11.1213203,20 L37.8786797,20 Z M9,20 L15,14 L34,14 L40,20 L40,42 L9,42 L9,20 Z" id="Combined-Shape" fill="#E3B356" fill-rule="nonzero"></path>
                <path d="M42,8 L44,8 L44,9 L42,9 L42,11 L41,11 L41,9 L39,9 L39,8 L41,8 L41,6 L42,6 L42,8 Z" id="Combined-Shape" fill="#E3B356"></path>
                <path d="M4.4,15.6 L6,15.6 L6,16.4 L4.4,16.4 L4.4,18 L3.6,18 L3.6,16.4 L2,16.4 L2,15.6 L3.6,15.6 L3.6,14 L4.4,14 L4.4,15.6 Z" id="Combined-Shape-Copy-2" fill="#E3B356"></path>
                <path d="M4.42132034,41.8213203 L5.62132034,41.8213203 L5.62132034,42.4213203 L4.42132034,42.4213203 L4.42132034,43.6213203 L3.82132034,43.6213203 L3.82132034,42.4213203 L2.62132034,42.4213203 L2.62132034,41.8213203 L3.82132034,41.8213203 L3.82132034,40.6213203 L4.42132034,40.6213203 L4.42132034,41.8213203 Z" id="Combined-Shape-Copy" fill="#E3B356" transform="translate(4.121320, 42.121320) rotate(-315.000000) translate(-4.121320, -42.121320) "></path>
                <path d="M45.4213203,32.8213203 L46.6213203,32.8213203 L46.6213203,33.4213203 L45.4213203,33.4213203 L45.4213203,34.6213203 L44.8213203,34.6213203 L44.8213203,33.4213203 L43.6213203,33.4213203 L43.6213203,32.8213203 L44.8213203,32.8213203 L44.8213203,31.6213203 L45.4213203,31.6213203 L45.4213203,32.8213203 Z" id="Combined-Shape-Copy-3" fill="#E3B356" opacity="0.400000006" transform="translate(45.121320, 33.121320) rotate(-315.000000) translate(-45.121320, -33.121320) "></path>
                <path d="M23.0117905,36.0540735 C25.600942,36.7478346 28.3088781,35.5587048 29.5618678,33.2307376 L30.8827002,33.9416537 C29.3018389,36.8787833 25.8883236,38.3777525 22.6235619,37.5029622 C19.3588002,36.628172 17.1520939,33.623269 17.2515926,30.2892094 L17.2911058,28.9651781 L21.0845331,31.3979279 L20.2747826,32.6605854 L18.8905084,31.7728413 C19.3524919,33.8050487 20.9043594,35.4893891 23.0117905,36.0540735 Z M25.9882095,24.9459265 C23.399058,24.2521654 20.6911219,25.4412952 19.4381322,27.7692624 L18.1172998,27.0583463 C19.6981611,24.1212167 23.1116764,22.6222475 26.3764381,23.4970378 C29.6411998,24.371828 31.8479061,27.376731 31.7484074,30.7107906 L31.7114541,31.9490447 L27.8931632,29.8040311 L28.6278329,28.4962619 L30.1344966,29.3426652 C29.7059264,27.2589708 28.1354411,25.5212755 25.9882095,24.9459265 Z" id="Combined-Shape" fill="#E3B356" fill-rule="nonzero"></path>
            </g>
        </g>
    </g>
</svg>