<?xml version="1.0" encoding="UTF-8"?>
<svg width="28px" height="28px" viewBox="0 0 28 28" version="1.1" xmlns="http://www.w3.org/2000/svg" xmlns:xlink="http://www.w3.org/1999/xlink">
    <!-- Generator: Sketch 49.2 (51160) - http://www.bohemiancoding.com/sketch -->
    <title>加入衣箱@1x</title>
    <desc>Created with Sketch.</desc>
    <defs></defs>
    <g id="Page-1" stroke="none" stroke-width="1" fill="none" fill-rule="evenodd">
        <g id="4.1愿望衣橱" transform="translate(-139.000000, -548.000000)">
            <g id="加入衣箱" transform="translate(139.000000, 548.000000)">
                <circle id="Oval-17" fill="#F7F7F7" cx="14" cy="14" r="14"></circle>
                <g id="Group" stroke-width="1" transform="translate(7.000000, 6.000000)" fill="#242424">
                    <path d="M1.5,5.60036609 L1.5,12.4474954 C1.5,12.7236378 1.72385763,12.9474954 2,12.9474954 L8,12.9474954 C8.27614237,12.9474954 8.5,13.171353 8.5,13.4474954 C8.5,13.7236378 8.27614237,13.9474954 8,13.9474954 L2,13.9474954 C1.17157288,13.9474954 0.5,13.2759225 0.5,12.4474954 L0.5,5.4474954 C0.5,5.34785807 0.529768575,5.25049285 0.585486678,5.16789085 L3.58548668,0.720395447 C3.67843574,0.58259861 3.83378479,0.5 4,0.5 L11,0.5 C11.1662152,0.5 11.3215643,0.58259861 11.4145133,0.720395447 L14.4145133,5.16789085 C14.4702314,5.25049285 14.5,5.34785807 14.5,5.4474954 L14.5,7.4239502 C14.5,7.70009257 14.2761424,7.9239502 14,7.9239502 C13.7238576,7.9239502 13.5,7.70009257 13.5,7.4239502 L13.5,5.60036609 L10.7341516,1.5 L4.26584845,1.5 L1.5,5.60036609 Z" id="Rectangle" fill-rule="nonzero"></path>
                    <rect id="Rectangle-6" x="1" y="5" width="13" height="1"></rect>
                    <rect id="Rectangle-6-Copy" x="10" y="11" width="5" height="1" rx="0.5"></rect>
                    <rect id="Rectangle-6-Copy-2" transform="translate(12.500000, 11.500000) rotate(-270.000000) translate(-12.500000, -11.500000) " x="10" y="11" width="5" height="1" rx="0.5"></rect>
                    <rect id="Rectangle-7" x="7" y="1" width="1" height="4"></rect>
                </g>
            </g>
        </g>
    </g>
</svg>