<?xml version="1.0" encoding="UTF-8"?>
<svg width="375px" height="603px" viewBox="0 0 375 603" version="1.1" xmlns="http://www.w3.org/2000/svg" xmlns:xlink="http://www.w3.org/1999/xlink">
    <!-- Generator: Sketch 49.2 (51160) - http://www.bohemiancoding.com/sketch -->
    <title>新手引导</title>
    <desc>Created with Sketch.</desc>
    <defs></defs>
    <g id="Page-1" stroke="none" stroke-width="1" fill="none" fill-rule="evenodd">
        <g id="服饰列表-智能选码-尺码齐全" transform="translate(0.000000, -64.000000)">
            <g id="新手引导" transform="translate(0.000000, 64.000000)">
                <rect id="Rectangle-8" fill="#000000" opacity="0.75" x="0" y="0" width="375" height="603"></rect>
                <g id="Group-4" transform="translate(73.000000, 55.000000)" fill="#FFFFFF">
                    <path d="M51,160 C50.4477153,160 50,160.447715 50,161 L50,194 C50,194.552285 50.4477153,195 51,195 L179,195 C179.552285,195 180,194.552285 180,194 L180,161 C180,160.447715 179.552285,160 179,160 L51,160 Z M51,159 L179,159 C180.104569,159 181,159.895431 181,161 L181,194 C181,195.104569 180.104569,196 179,196 L51,196 C49.8954305,196 49,195.104569 49,194 L49,161 C49,159.895431 49.8954305,159 51,159 Z" id="Rectangle-12" fill-rule="nonzero"></path>
                    <path d="M95.132,177.776 L95.132,178.652 C94.436,178.88 93.716,179.096 92.948,179.3 L92.948,182 C92.948,182.696 92.576,183.044 91.844,183.044 L90.512,183.044 L90.332,182.216 C90.752,182.252 91.16,182.276 91.556,182.276 C91.892,182.276 92.06,182.108 92.06,181.784 L92.06,179.504 C91.292,179.672 90.512,179.828 89.696,179.96 L89.576,179.084 C90.452,178.94 91.28,178.796 92.06,178.628 L92.06,176.264 L89.588,176.264 L89.588,175.436 L92.06,175.436 L92.06,173.828 C91.424,173.96 90.764,174.068 90.08,174.164 L89.9,173.336 C91.604,173.144 93.116,172.796 94.436,172.28 L94.724,173.096 C94.172,173.288 93.572,173.468 92.948,173.636 L92.948,175.436 L95.828,175.436 C95.756,174.464 95.72,173.396 95.72,172.22 L96.584,172.22 C96.596,173.432 96.632,174.5 96.704,175.436 L100.412,175.436 L100.412,176.264 L96.776,176.264 C96.86,177.128 96.968,177.848 97.112,178.436 C97.184,178.748 97.268,179.024 97.352,179.288 C97.928,178.592 98.444,177.8 98.876,176.912 L99.62,177.308 C99.068,178.436 98.42,179.396 97.664,180.2 C97.832,180.608 98,180.956 98.192,181.232 C98.576,181.808 98.888,182.108 99.116,182.108 C99.356,182.096 99.56,181.424 99.752,180.08 L100.508,180.476 C100.22,182.18 99.8,183.032 99.248,183.032 C98.756,183.032 98.24,182.672 97.688,181.952 C97.448,181.628 97.22,181.244 97.028,180.812 C96.164,181.58 95.18,182.18 94.088,182.612 L93.62,181.868 C94.796,181.436 95.816,180.8 96.692,179.972 C96.548,179.564 96.416,179.12 96.296,178.652 C96.128,177.968 95.996,177.176 95.9,176.264 L92.948,176.264 L92.948,178.424 C93.728,178.22 94.46,178.004 95.132,177.776 Z M97.904,172.352 C98.768,172.928 99.5,173.492 100.1,174.068 L99.476,174.692 C98.948,174.14 98.24,173.54 97.328,172.904 L97.904,172.352 Z M112.67,173.468 L112.67,182.648 L111.83,182.648 L111.83,181.88 L109.478,181.88 L109.478,182.672 L108.65,182.672 L108.65,173.468 L112.67,173.468 Z M109.478,181.076 L111.83,181.076 L111.83,174.272 L109.478,174.272 L109.478,181.076 Z M104.114,174.632 C103.814,175.28 103.478,175.88 103.106,176.432 L102.35,175.952 C103.142,174.8 103.706,173.54 104.066,172.16 L104.918,172.34 C104.774,172.856 104.618,173.348 104.45,173.804 L107.918,173.804 L107.918,174.632 L106.166,174.632 C106.154,175.496 106.106,176.3 106.022,177.02 L108.026,177.02 L108.026,177.848 L105.902,177.848 C105.842,178.16 105.782,178.472 105.71,178.76 C106.478,179.54 107.27,180.428 108.062,181.412 L107.546,182.204 C106.73,181.052 106.046,180.176 105.482,179.552 C104.99,180.896 104.114,182.024 102.842,182.936 L102.278,182.24 C103.55,181.316 104.39,180.152 104.798,178.748 C104.87,178.46 104.942,178.16 105.002,177.848 L102.494,177.848 L102.494,177.02 L105.122,177.02 C105.218,176.3 105.266,175.496 105.278,174.632 L104.114,174.632 Z M118.496,173.528 L120.488,173.528 C120.296,173.156 120.08,172.808 119.84,172.484 L120.644,172.184 C120.908,172.568 121.16,173.012 121.376,173.528 L122.792,173.528 C123.08,173.096 123.344,172.64 123.56,172.16 L124.4,172.448 C124.196,172.856 123.98,173.216 123.74,173.528 L125.78,173.528 L125.78,174.332 L122.42,174.332 C122.336,174.668 122.228,174.992 122.108,175.304 L124.964,175.304 L124.964,181.088 L119.276,181.088 L119.276,175.304 L121.196,175.304 C121.328,174.98 121.424,174.656 121.496,174.332 L118.496,174.332 L118.496,173.528 Z M124.148,180.32 L124.148,179.324 L120.092,179.324 L120.092,180.32 L124.148,180.32 Z M120.092,178.628 L124.148,178.628 L124.148,177.716 L120.092,177.716 L120.092,178.628 Z M120.092,177.02 L124.148,177.02 L124.148,176.072 L120.092,176.072 L120.092,177.02 Z M116.012,172.388 C116.84,173.012 117.536,173.636 118.1,174.26 L117.488,174.86 C116.984,174.26 116.3,173.624 115.424,172.952 L116.012,172.388 Z M123.008,182.984 C122.36,182.984 121.652,182.972 120.884,182.96 C120.116,182.948 119.492,182.876 119.012,182.744 C118.532,182.6 118.112,182.3 117.752,181.868 C117.584,181.664 117.428,181.568 117.284,181.568 C116.996,181.568 116.516,182.108 115.832,183.212 L115.184,182.636 C115.844,181.604 116.42,180.992 116.912,180.8 L116.912,177.152 L115.148,177.152 L115.148,176.36 L117.716,176.36 L117.716,180.848 C117.812,180.92 117.908,181.016 118.004,181.124 C118.292,181.472 118.604,181.724 118.928,181.88 C119.3,182.048 119.84,182.144 120.548,182.168 C121.172,182.18 121.952,182.192 122.888,182.192 C123.452,182.192 124.028,182.18 124.616,182.168 C125.192,182.156 125.648,182.144 125.96,182.12 L125.756,182.984 L123.008,182.984 Z M132.998,176.192 C134.222,175.496 135.374,174.68 136.478,173.744 L128.582,173.744 L128.582,172.904 L137.654,172.904 L137.654,173.744 C136.538,174.752 135.278,175.712 133.874,176.624 L133.874,181.988 C133.874,182.732 133.49,183.104 132.746,183.104 C132.026,183.104 131.39,183.08 130.85,183.056 L130.61,182.216 C131.198,182.264 131.834,182.288 132.506,182.288 C132.83,182.288 132.998,182.132 132.998,181.832 L132.998,176.192 Z" id="我知道了"></path>
                    <path d="M52.004,81.352 L42.084,81.352 L42.084,85.752 C42.084,86.36 42.388,86.664 42.996,86.664 L50.98,86.664 C51.268,86.664 51.54,86.568 51.764,86.376 C52.02,86.136 52.18,85.176 52.276,83.496 L53.764,83.976 C53.572,85.992 53.3,87.192 52.964,87.56 C52.58,87.912 52.068,88.104 51.412,88.136 L42.58,88.136 C41.22,88.136 40.548,87.432 40.548,86.024 L40.548,77.704 L42.084,77.704 L42.084,79.896 L50.452,79.896 L50.452,76.088 L39.892,76.088 L39.892,74.632 L52.004,74.632 L52.004,81.352 Z M58.604,74.248 C59.532,75.176 60.236,76.008 60.748,76.744 L59.564,77.56 C59.02,76.808 58.316,75.976 57.452,75.08 L58.604,74.248 Z M64.348,80.968 C65.452,82.184 66.3,83.256 66.908,84.168 L65.564,85.096 C64.956,84.088 64.156,82.968 63.132,81.736 L64.348,80.968 Z M61.9,73.88 L63.388,73.88 L63.388,76.136 C63.372,76.68 63.34,77.208 63.308,77.72 L69.852,77.72 C69.852,82.392 69.644,85.352 69.244,86.632 C68.812,87.912 68.06,88.552 66.972,88.552 C66.14,88.552 65.452,88.52 64.892,88.472 L64.492,87 C65.356,87.08 66.156,87.128 66.876,87.128 C67.612,87.064 68.028,86.216 68.14,84.584 C68.236,82.936 68.3,81.144 68.3,79.208 L63.164,79.208 C62.908,81.208 62.444,82.888 61.788,84.248 C60.844,86.12 59.292,87.56 57.116,88.584 L56.268,87.24 C58.412,86.152 59.868,84.776 60.636,83.096 C61.1,81.992 61.436,80.696 61.66,79.208 L56.812,79.208 L56.812,77.72 L61.82,77.72 C61.852,77.208 61.884,76.68 61.9,76.136 L61.9,73.88 Z M74.964,80.216 C74.5,80.792 74.004,81.336 73.492,81.88 L72.996,80.264 C74.66,78.408 75.892,76.248 76.676,73.784 L78.1,74.456 C77.684,75.704 77.156,76.904 76.484,78.024 L76.484,88.648 L74.964,88.648 L74.964,80.216 Z M85.732,80.248 C86.5,82.12 87.172,84.12 87.732,86.248 L86.404,86.856 C85.796,84.536 85.124,82.488 84.388,80.696 L85.732,80.248 Z M80.084,77.176 C79.604,78.36 79.044,79.432 78.404,80.424 L77.092,79.608 C78.292,77.832 79.14,75.928 79.636,73.88 L81.06,74.184 C80.916,74.712 80.772,75.224 80.612,75.704 L87.332,75.704 L87.332,76.696 C87.076,77.656 86.772,78.616 86.388,79.576 L84.932,79.16 C85.252,78.584 85.54,77.912 85.764,77.176 L80.084,77.176 Z M81.924,88.536 L79.876,88.536 L79.54,87.096 C80.196,87.16 80.82,87.208 81.412,87.208 C81.796,87.208 81.988,87 81.988,86.584 L81.988,78.344 L83.46,78.344 L83.46,86.968 C83.46,88.008 82.948,88.536 81.924,88.536 Z M79.38,80.408 L80.74,80.792 C80.18,83 79.46,84.92 78.564,86.584 L77.14,86.072 C77.988,84.584 78.74,82.696 79.38,80.408 Z M91.212,74.728 L103.82,74.728 L103.82,76.2 L101.26,76.2 L101.26,80.04 L104.636,80.04 L104.636,81.512 L101.26,81.512 L101.26,88.44 L99.74,88.44 L99.74,81.512 L95.452,81.512 C95.292,83.112 94.988,84.44 94.508,85.512 C93.9,86.856 92.876,87.896 91.452,88.616 L90.636,87.336 C91.916,86.584 92.796,85.624 93.26,84.472 C93.564,83.64 93.772,82.648 93.9,81.512 L90.38,81.512 L90.38,80.04 L94.012,80.04 C94.012,79.912 94.028,79.784 94.028,79.688 L94.028,76.2 L91.212,76.2 L91.212,74.728 Z M95.564,76.2 L95.564,79.688 C95.564,79.816 95.548,79.928 95.548,80.04 L99.74,80.04 L99.74,76.2 L95.564,76.2 Z M120.58,82.328 L120.58,88.712 L119.108,88.712 L119.108,87.96 L112.532,87.96 L112.532,88.712 L111.044,88.712 L111.044,82.328 L120.58,82.328 Z M112.532,86.536 L119.108,86.536 L119.108,83.768 L112.532,83.768 L112.532,86.536 Z M119.268,76.92 L110.324,76.92 L110.324,79.048 L119.268,79.048 L119.268,76.92 Z M110.324,80.44 L110.324,81.128 C110.308,84.056 109.604,86.584 108.212,88.696 L107.012,87.64 C108.196,85.944 108.804,83.784 108.82,81.128 L108.82,75.496 L114.068,75.496 C113.876,74.936 113.652,74.424 113.396,73.96 L114.98,73.704 C115.204,74.248 115.412,74.84 115.62,75.496 L120.772,75.496 L120.772,80.44 L110.324,80.44 Z M126.508,76.264 C126.172,76.744 125.82,77.144 125.452,77.48 L127.756,77.48 C127.82,77.08 127.868,76.68 127.9,76.264 L126.508,76.264 Z M127.34,78.872 L124.364,78.872 L124.364,77.48 L125.084,77.48 L124.332,76.536 C125.068,75.88 125.724,74.952 126.268,73.736 L127.628,74.024 C127.516,74.344 127.388,74.632 127.26,74.92 L131.644,74.92 L131.644,76.264 L129.356,76.264 C129.324,76.696 129.292,77.096 129.228,77.48 L132.092,77.48 L132.092,78.872 L128.908,78.872 C128.876,78.952 128.86,79.032 128.844,79.096 C130.028,79.704 131.02,80.312 131.852,80.92 L130.908,81.88 L137.02,81.88 L137.02,88.68 L135.484,88.68 L135.484,88.056 L127.932,88.056 L127.932,88.68 L126.412,88.68 L126.412,82.104 C125.996,82.36 125.564,82.616 125.084,82.84 L124.06,81.608 C125.724,80.872 126.796,79.992 127.308,78.936 L127.34,78.872 Z M127.932,86.712 L135.484,86.712 L135.484,85.656 L127.932,85.656 L127.932,86.712 Z M127.932,84.344 L135.484,84.344 L135.484,83.224 L127.932,83.224 L127.932,84.344 Z M126.732,81.88 L130.636,81.88 C130.028,81.336 129.276,80.776 128.348,80.2 C127.964,80.808 127.42,81.368 126.732,81.88 Z M132.588,74.936 L138.188,74.936 L138.188,80.984 L132.588,80.984 L132.588,74.936 Z M136.7,79.656 L136.7,76.28 L134.076,76.28 L134.076,79.656 L136.7,79.656 Z M143.572,83.256 L143.572,84.424 L146.868,84.424 L146.868,83.256 L143.572,83.256 Z M146.868,82.008 L146.868,80.776 L143.572,80.776 L143.572,82.008 L146.868,82.008 Z M143.572,85.688 L143.572,88.68 L142.1,88.68 L142.1,79.448 L148.34,79.448 L148.34,86.904 C148.34,88.008 147.812,88.568 146.788,88.568 L145.54,88.568 L145.172,87.144 L146.308,87.208 C146.676,87.208 146.868,87 146.868,86.584 L146.868,85.688 L143.572,85.688 Z M153.796,80.968 L151.188,80.968 C150.068,80.968 149.524,80.36 149.524,79.144 L149.524,73.944 L151.028,73.944 L151.028,75.832 C152.676,75.576 154.02,75.32 155.06,75.032 L155.556,76.376 C154.244,76.68 152.74,76.968 151.028,77.224 L151.028,78.824 C151.028,79.336 151.22,79.608 151.604,79.608 L153.508,79.608 C153.764,79.608 153.94,79.528 154.052,79.368 C154.18,79.176 154.276,78.632 154.308,77.736 L155.732,78.2 C155.604,79.528 155.38,80.328 155.092,80.6 C154.804,80.84 154.372,80.968 153.796,80.968 Z M151.028,84.664 L151.028,86.616 C151.028,86.904 151.204,87.048 151.588,87.048 L153.524,87.048 C153.78,87.048 153.972,86.968 154.084,86.824 C154.212,86.632 154.308,86.088 154.356,85.192 L155.732,85.64 C155.604,86.984 155.396,87.784 155.108,88.04 C154.836,88.28 154.404,88.408 153.812,88.408 L151.156,88.408 C150.068,88.408 149.524,87.912 149.524,86.952 L149.524,81.528 L151.028,81.528 L151.028,83.288 C152.532,83.128 153.876,82.856 155.06,82.504 L155.556,83.864 C154.148,84.248 152.628,84.504 151.028,84.664 Z M147.188,75 C148.132,76.264 148.852,77.368 149.364,78.296 L148.116,79.192 C147.956,78.872 147.78,78.536 147.588,78.2 C145.924,78.456 143.924,78.648 141.588,78.776 L141.172,77.512 C141.444,77.416 141.668,77.288 141.86,77.128 C142.836,76.04 143.588,74.952 144.1,73.864 L145.556,74.296 C144.884,75.608 144.132,76.648 143.3,77.448 C144.42,77.384 145.636,77.256 146.932,77.096 C146.644,76.648 146.34,76.2 146.02,75.736 L147.188,75 Z M159.66,74.04 C160.716,74.888 161.596,75.736 162.316,76.568 L161.244,77.624 C160.636,76.824 159.756,75.96 158.62,75.032 L159.66,74.04 Z M168.828,88.376 C167.964,88.376 167.004,88.36 165.98,88.344 C164.94,88.328 164.092,88.232 163.436,88.072 C162.796,87.88 162.236,87.496 161.756,86.952 C161.532,86.68 161.324,86.552 161.148,86.552 C160.796,86.552 160.22,87.272 159.404,88.728 L158.284,87.688 C159.084,86.376 159.82,85.56 160.46,85.24 L160.46,80.712 L158.316,80.712 L158.316,79.304 L161.884,79.304 L161.884,85.368 C161.948,85.432 162.028,85.496 162.108,85.592 C162.492,86.024 162.876,86.344 163.26,86.552 C163.74,86.776 164.444,86.92 165.404,86.952 C166.3,86.968 167.372,86.984 168.62,86.984 C169.404,86.984 170.204,86.968 171.02,86.952 C171.82,86.936 172.444,86.904 172.892,86.872 L172.508,88.376 L168.828,88.376 Z M167.292,73.832 L168.764,73.832 L168.764,75.752 L171.836,75.752 L171.836,77.208 L168.764,77.208 L168.764,79.192 L172.396,79.192 L172.396,80.648 L169.804,80.648 L169.804,84.568 C169.804,84.824 169.964,84.968 170.284,84.968 L170.636,84.968 C170.796,84.968 170.94,84.904 171.052,84.808 C171.18,84.696 171.276,84.104 171.324,83.016 L172.652,83.464 C172.524,84.84 172.348,85.656 172.124,85.896 C171.9,86.12 171.516,86.248 170.956,86.264 L169.82,86.264 C169.34,86.264 168.988,86.136 168.748,85.896 C168.492,85.624 168.38,85.288 168.38,84.904 L168.38,80.648 L167.052,80.648 C166.988,81.688 166.828,82.6 166.556,83.368 C166.14,84.584 165.18,85.576 163.676,86.376 L162.684,85.192 C163.948,84.568 164.78,83.8 165.164,82.888 C165.404,82.28 165.548,81.528 165.612,80.648 L163.164,80.648 L163.164,79.192 L167.292,79.192 L167.292,77.208 L164.956,77.208 C164.668,77.752 164.38,78.264 164.06,78.744 L162.748,77.928 C163.612,76.728 164.22,75.448 164.588,74.088 L166.044,74.376 C165.9,74.856 165.756,75.32 165.596,75.752 L167.292,75.752 L167.292,73.832 Z M180.724,79.384 L180.724,87.816 L179.316,87.816 L179.316,87.032 L177.94,87.032 L177.94,88.12 L176.532,88.12 L176.532,82.088 C176.276,82.504 176.02,82.904 175.748,83.288 L174.996,82.072 C176.1,80.312 176.836,78.328 177.22,76.12 L175.46,76.12 L175.46,74.648 L181.012,74.648 L181.012,76.12 L178.66,76.12 C178.452,77.288 178.164,78.376 177.796,79.384 L180.724,79.384 Z M177.94,85.64 L179.316,85.64 L179.316,80.76 L177.94,80.76 L177.94,85.64 Z M182.532,76.808 L184.02,76.904 L183.348,80.744 L186.404,80.744 L187.124,75.864 L181.652,75.864 L181.652,74.424 L188.788,74.424 L187.94,80.744 L189.572,80.744 C189.572,84.744 189.332,87.048 188.884,87.656 C188.42,88.264 187.444,88.568 185.972,88.568 C185.524,88.568 185.044,88.536 184.564,88.504 L184.148,87.032 C184.852,87.112 185.332,87.16 185.604,87.16 C186.804,87.16 187.524,86.92 187.748,86.44 C188.004,85.944 188.132,84.52 188.132,82.168 L181.668,82.168 L182.532,76.808 Z M181.3,83.848 L187.252,83.848 L187.252,85.288 L181.3,85.288 L181.3,83.848 Z" id="已为你开启智能选码"></path>
                    <path d="M10.643,110.424 L10.643,111.373 C9.889,111.62 9.109,111.854 8.277,112.075 L8.277,115 C8.277,115.754 7.874,116.131 7.081,116.131 L5.638,116.131 L5.443,115.234 C5.898,115.273 6.34,115.299 6.769,115.299 C7.133,115.299 7.315,115.117 7.315,114.766 L7.315,112.296 C6.483,112.478 5.638,112.647 4.754,112.79 L4.624,111.841 C5.573,111.685 6.47,111.529 7.315,111.347 L7.315,108.786 L4.637,108.786 L4.637,107.889 L7.315,107.889 L7.315,106.147 C6.626,106.29 5.911,106.407 5.17,106.511 L4.975,105.614 C6.821,105.406 8.459,105.029 9.889,104.47 L10.201,105.354 C9.603,105.562 8.953,105.757 8.277,105.939 L8.277,107.889 L11.397,107.889 C11.319,106.836 11.28,105.679 11.28,104.405 L12.216,104.405 C12.229,105.718 12.268,106.875 12.346,107.889 L16.363,107.889 L16.363,108.786 L12.424,108.786 C12.515,109.722 12.632,110.502 12.788,111.139 C12.866,111.477 12.957,111.776 13.048,112.062 C13.672,111.308 14.231,110.45 14.699,109.488 L15.505,109.917 C14.907,111.139 14.205,112.179 13.386,113.05 C13.568,113.492 13.75,113.869 13.958,114.168 C14.374,114.792 14.712,115.117 14.959,115.117 C15.219,115.104 15.44,114.376 15.648,112.92 L16.467,113.349 C16.155,115.195 15.7,116.118 15.102,116.118 C14.569,116.118 14.01,115.728 13.412,114.948 C13.152,114.597 12.905,114.181 12.697,113.713 C11.761,114.545 10.695,115.195 9.512,115.663 L9.005,114.857 C10.279,114.389 11.384,113.7 12.333,112.803 C12.177,112.361 12.034,111.88 11.904,111.373 C11.722,110.632 11.579,109.774 11.475,108.786 L8.277,108.786 L8.277,111.126 C9.122,110.905 9.915,110.671 10.643,110.424 Z M13.646,104.548 C14.582,105.172 15.375,105.783 16.025,106.407 L15.349,107.083 C14.777,106.485 14.01,105.835 13.022,105.146 L13.646,104.548 Z M28.4335,116.196 L27.1985,116.196 L26.9645,115.325 L28.2385,115.351 C28.6285,115.351 28.8235,115.104 28.8235,114.623 L28.8235,106.121 L25.6645,106.121 L25.6645,105.224 L29.7465,105.224 L29.7465,114.883 C29.7465,115.754 29.3045,116.196 28.4335,116.196 Z M23.8185,104.379 C24.4295,105.146 24.8975,105.822 25.2355,106.407 L24.4945,106.927 C24.1565,106.29 23.6885,105.588 23.1035,104.834 L23.8185,104.379 Z M21.3615,104.301 L22.2065,104.691 C21.8685,105.718 21.4265,106.693 20.8935,107.616 L20.8935,116.326 L19.9575,116.326 L19.9575,109.033 C19.5285,109.605 19.0605,110.164 18.5535,110.684 L18.2545,109.735 C19.6845,108.149 20.7115,106.342 21.3615,104.301 Z M22.4925,106.589 L23.4025,106.589 L23.4025,116.287 L22.4925,116.287 L22.4925,106.589 Z M37.787,104.379 L38.463,104.379 C40.114,106.225 42.012,107.681 44.157,108.747 L43.65,109.644 C41.492,108.513 39.659,107.031 38.125,105.211 C36.721,106.927 34.862,108.409 32.548,109.657 L32.054,108.76 C34.342,107.59 36.253,106.134 37.787,104.379 Z M34.953,108.37 L41.336,108.37 L41.336,109.254 L34.953,109.254 L34.953,108.37 Z M32.912,110.983 L43.364,110.983 L43.364,111.893 L37.241,111.893 C36.617,113.115 35.863,114.181 34.979,115.104 C37.098,114.974 39.113,114.792 41.037,114.532 C40.595,113.96 40.114,113.362 39.581,112.764 L40.309,112.296 C41.492,113.622 42.402,114.766 43.039,115.741 L42.259,116.287 C42.038,115.936 41.804,115.585 41.544,115.221 C39.516,115.546 36.955,115.806 33.848,115.988 L33.588,115.169 C33.822,115.104 33.978,115.026 34.082,114.922 C34.914,113.96 35.616,112.959 36.175,111.893 L32.912,111.893 L32.912,110.983 Z M50.0785,113.466 L50.0785,114.376 C48.9605,114.922 47.6735,115.351 46.2175,115.676 L46.1005,114.74 C47.6215,114.428 48.9475,113.999 50.0785,113.466 Z M48.0765,104.405 L48.9475,104.743 C48.3365,106.433 47.7255,107.785 47.1015,108.799 C47.6345,108.721 48.1675,108.617 48.7135,108.487 C48.9345,108.019 49.1685,107.512 49.4025,106.992 L50.2605,107.317 C49.1685,109.553 48.2585,111.139 47.5565,112.075 C48.4145,111.867 49.2595,111.594 50.1045,111.256 L50.1045,112.101 C48.8565,112.569 47.6475,112.894 46.4905,113.063 L46.2435,112.231 C46.4125,112.153 46.5555,112.075 46.6725,111.971 C47.1145,111.451 47.6605,110.554 48.2975,109.306 L46.2955,109.696 L46.0615,108.89 C46.2045,108.825 46.3345,108.708 46.4385,108.552 C47.0625,107.343 47.6085,105.965 48.0765,104.405 Z M57.3585,105.796 L57.3585,108.227 L56.4485,108.227 L56.4485,106.641 L51.5345,106.641 L51.5345,108.227 L50.6505,108.227 L50.6505,105.796 L53.4845,105.796 C53.2765,105.302 53.0555,104.847 52.8085,104.431 L53.7575,104.275 C53.9915,104.717 54.2125,105.224 54.4205,105.796 L57.3585,105.796 Z M51.5215,112.231 L52.3925,112.413 C52.0285,113.752 51.5215,114.909 50.8585,115.897 L50.0785,115.39 C50.7415,114.441 51.2225,113.388 51.5215,112.231 Z M56.3315,112.114 C56.9035,113.141 57.3845,114.246 57.8005,115.429 L56.9815,115.793 C56.5395,114.493 56.0455,113.362 55.5255,112.374 L56.3315,112.114 Z M53.5365,116.183 L52.3665,116.183 L52.1715,115.299 C52.5355,115.338 52.8735,115.364 53.2115,115.364 C53.5235,115.364 53.6795,115.143 53.6795,114.714 L53.6795,111.23 L50.6635,111.23 L50.6635,110.346 L57.3455,110.346 L57.3455,111.23 L54.5765,111.23 L54.5765,114.948 C54.5765,115.767 54.2255,116.183 53.5365,116.183 Z M51.6515,108.058 L56.3705,108.058 L56.3705,108.903 L51.6515,108.903 L51.6515,108.058 Z M65.412,104.366 L66.088,104.366 C67.739,106.277 69.65,107.785 71.808,108.877 L71.301,109.774 C69.13,108.604 67.284,107.083 65.75,105.211 C64.333,106.979 62.461,108.5 60.147,109.8 L59.653,108.903 C61.967,107.681 63.878,106.173 65.412,104.366 Z M69.858,111.048 L69.858,116.287 L68.948,116.287 L68.948,115.507 L62.552,115.507 L62.552,116.287 L61.642,116.287 L61.642,111.048 L69.858,111.048 Z M62.552,114.61 L68.948,114.61 L68.948,111.932 L62.552,111.932 L62.552,114.61 Z M62.37,108.5 L69.13,108.5 L69.13,109.397 L62.37,109.397 L62.37,108.5 Z M79.1725,109.735 L76.3905,109.735 L76.3905,109.93 C76.3775,112.4 75.7015,114.519 74.3755,116.287 L73.6865,115.663 C74.8565,114.181 75.4545,112.27 75.4675,109.93 L75.4675,104.912 L83.7355,104.912 L83.7355,109.735 L80.1085,109.735 C80.7585,112.153 82.5395,114.051 85.4645,115.403 L84.9445,116.235 C81.7725,114.662 79.8485,112.491 79.1725,109.735 Z M82.8125,105.835 L76.3905,105.835 L76.3905,108.838 L82.8125,108.838 L82.8125,105.835 Z M91.789,108.942 L91.789,115.624 L90.931,115.624 L90.931,114.883 L89.527,114.883 L89.527,115.871 L88.656,115.871 L88.656,110.58 C88.396,111.048 88.11,111.503 87.798,111.945 L87.33,111.191 C88.318,109.683 88.968,107.954 89.28,106.017 L87.694,106.017 L87.694,105.107 L92.127,105.107 L92.127,106.017 L90.164,106.017 C89.982,107.057 89.735,108.032 89.397,108.942 L91.789,108.942 Z M89.527,114.038 L90.931,114.038 L90.931,109.8 L89.527,109.8 L89.527,114.038 Z M93.544,106.719 L94.467,106.784 L93.895,110.06 L96.651,110.06 L97.301,105.809 L92.725,105.809 L92.725,104.925 L98.315,104.925 L97.6,110.06 L98.978,110.06 C98.978,113.206 98.796,115.013 98.458,115.507 C98.094,115.975 97.353,116.222 96.209,116.222 C95.845,116.222 95.455,116.209 95.039,116.183 L94.779,115.273 C95.351,115.325 95.754,115.351 95.988,115.351 C96.989,115.351 97.587,115.13 97.782,114.714 C97.99,114.272 98.094,113.011 98.094,110.931 L92.842,110.931 L93.544,106.719 Z M92.439,112.582 L97.197,112.582 L97.197,113.466 L92.439,113.466 L92.439,112.582 Z M102.9365,113.18 C103.4305,113.531 103.9375,113.96 104.4315,114.48 C104.8605,114.922 105.2375,115.377 105.5495,115.819 L104.8995,116.365 C104.5875,115.923 104.2105,115.481 103.7945,115.039 C103.3135,114.519 102.8325,114.09 102.3515,113.726 L102.9365,113.18 Z M118.27,104.522 L119.18,104.522 L119.18,107.967 L119.947,107.967 L119.947,108.89 L116.879,108.89 L116.879,109.553 C116.879,109.956 116.866,110.346 116.853,110.723 L119.349,110.723 L119.349,116.248 L118.426,116.248 L118.426,111.62 L116.801,111.62 C116.645,113.57 116.294,115.052 115.735,116.092 L115.033,115.468 C115.631,114.233 115.943,112.257 115.956,109.553 L115.956,104.782 L116.879,104.782 L116.879,107.967 L118.27,107.967 L118.27,104.522 Z M121.546,109.033 L121.546,110.463 C121.494,112.881 121.065,114.805 120.285,116.235 L119.635,115.546 C120.285,114.324 120.636,112.621 120.688,110.463 L120.688,105.302 C122.729,105.276 124.575,105.003 126.213,104.483 L126.681,105.328 C125.147,105.77 123.431,106.03 121.546,106.108 L121.546,108.149 L126.356,108.149 L126.356,108.942 C126.057,110.749 125.485,112.27 124.653,113.505 C125.29,114.363 126.07,115.013 126.993,115.481 L126.525,116.3 C125.55,115.793 124.731,115.117 124.081,114.259 C123.366,115.091 122.508,115.78 121.52,116.313 L121.065,115.481 C122.04,114.948 122.859,114.272 123.535,113.466 C122.794,112.257 122.274,110.775 121.975,109.033 L121.546,109.033 Z M122.82,109.033 C123.106,110.45 123.535,111.659 124.107,112.673 C124.757,111.633 125.212,110.411 125.446,109.033 L122.82,109.033 Z M129.5215,104.964 L135.6315,104.964 L135.6315,105.796 L134.3185,105.796 L134.3185,107.746 L135.9175,107.746 L135.9175,108.604 L134.3185,108.604 L134.3185,111.464 L133.4085,111.464 L133.4085,108.604 L131.7055,108.604 C131.5625,109.943 131.0685,110.944 130.2105,111.62 L129.5085,111.009 C130.2365,110.463 130.6655,109.67 130.7955,108.604 L129.1835,108.604 L129.1835,107.746 L130.8475,107.746 L130.8475,105.796 L129.5215,105.796 L129.5215,104.964 Z M131.7445,105.796 L131.7445,107.746 L133.4085,107.746 L133.4085,105.796 L131.7445,105.796 Z M136.6845,105.263 L137.5815,105.263 L137.5815,109.735 L136.6845,109.735 L136.6845,105.263 Z M129.8335,112.738 L134.3965,112.738 L134.3965,111.607 L135.3325,111.607 L135.3325,112.738 L139.8045,112.738 L139.8045,113.596 L135.3325,113.596 L135.3325,115.117 L140.5195,115.117 L140.5195,115.975 L129.1055,115.975 L129.1055,115.117 L134.3965,115.117 L134.3965,113.596 L129.8335,113.596 L129.8335,112.738 Z M138.8945,111.581 L137.1525,111.581 L136.9575,110.697 C137.5295,110.736 138.0625,110.762 138.5825,110.762 C138.8815,110.762 139.0375,110.554 139.0375,110.164 L139.0375,104.548 L139.9345,104.548 L139.9345,110.385 C139.9345,111.178 139.5835,111.581 138.8945,111.581 Z M153.955,105.263 L153.955,115.78 L153.045,115.78 L153.045,114.753 L149.886,114.753 L149.886,115.91 L148.989,115.91 L148.989,105.263 L153.955,105.263 Z M149.886,113.869 L153.045,113.869 L153.045,106.134 L149.886,106.134 L149.886,113.869 Z M143.048,107.954 L145.323,107.954 L145.323,106.082 C144.673,106.186 144.01,106.264 143.334,106.316 L143.035,105.484 C144.972,105.328 146.584,105.003 147.884,104.509 L148.326,105.289 C147.65,105.536 146.961,105.744 146.233,105.9 L146.233,107.954 L148.456,107.954 L148.456,108.825 L146.233,108.825 L146.233,109.475 C146.987,110.138 147.741,110.892 148.508,111.75 L147.962,112.556 C147.286,111.633 146.714,110.892 146.233,110.346 L146.233,116.209 L145.323,116.209 L145.323,110.437 C144.764,111.672 144.023,112.79 143.1,113.791 L142.71,112.777 C143.919,111.633 144.79,110.346 145.323,108.916 L145.323,108.825 L143.048,108.825 L143.048,107.954 Z M156.6525,104.899 L168.2225,104.899 L168.2225,105.809 L163.0095,105.809 C162.9055,106.381 162.7365,106.94 162.5285,107.473 L167.5205,107.473 L167.5205,116.339 L166.6235,116.339 L166.6235,115.689 L158.2905,115.689 L158.2905,116.339 L157.3935,116.339 L157.3935,107.473 L161.5795,107.473 C161.7875,106.927 161.9565,106.381 162.0605,105.809 L156.6525,105.809 L156.6525,104.899 Z M158.2905,114.831 L160.0845,114.831 L160.0845,108.318 L158.2905,108.318 L158.2905,114.831 Z M160.9555,114.831 L163.9195,114.831 L163.9195,113.167 L160.9555,113.167 L160.9555,114.831 Z M164.7905,114.831 L166.6235,114.831 L166.6235,108.318 L164.7905,108.318 L164.7905,114.831 Z M160.9555,112.348 L163.9195,112.348 L163.9195,110.762 L160.9555,110.762 L160.9555,112.348 Z M160.9555,109.93 L163.9195,109.93 L163.9195,108.318 L160.9555,108.318 L160.9555,109.93 Z M171.349,105.458 C171.609,106.238 171.856,107.135 172.064,108.149 L171.336,108.357 C171.128,107.434 170.881,106.55 170.569,105.705 L171.349,105.458 Z M174.885,105.289 L175.678,105.393 C175.6,106.459 175.392,107.408 175.067,108.24 L174.352,108.006 C174.638,107.226 174.807,106.316 174.885,105.289 Z M170.452,108.942 L172.779,108.942 L172.779,104.431 L173.728,104.431 L173.728,108.942 L175.665,108.942 L175.665,109.852 L173.728,109.852 L173.728,110.19 C174.378,110.775 175.028,111.438 175.691,112.166 L175.132,112.985 C174.586,112.166 174.118,111.503 173.728,111.009 L173.728,116.261 L172.779,116.261 L172.779,111.022 C172.207,112.244 171.492,113.323 170.647,114.246 L170.27,113.284 C171.401,112.192 172.22,111.048 172.727,109.852 L170.452,109.852 L170.452,108.942 Z M179.773,104.444 L180.696,104.444 L180.696,111.815 L182.126,111.594 L182.282,112.53 L180.696,112.764 L180.696,116.261 L179.773,116.261 L179.773,112.907 L176.016,113.479 L175.886,112.543 L179.773,111.958 L179.773,104.444 Z M177.147,105.367 C178.005,106.017 178.72,106.654 179.305,107.278 L178.668,107.915 C178.148,107.304 177.433,106.654 176.523,105.965 L177.147,105.367 Z M176.835,108.409 C177.667,109.072 178.382,109.735 178.954,110.385 L178.317,111.035 C177.797,110.398 177.095,109.722 176.211,109.007 L176.835,108.409 Z M185.4735,108.591 L185.2525,110.697 L188.0215,110.697 C188.0215,112.881 187.9435,114.324 187.8135,115 C187.6445,115.754 186.9815,116.144 185.8245,116.196 C185.5255,116.196 185.2135,116.17 184.9015,116.144 L184.6675,115.273 C184.9795,115.299 185.2915,115.325 185.6165,115.325 C186.3835,115.325 186.8255,115.078 186.9425,114.61 C187.0725,114.116 187.1375,113.076 187.1375,111.516 L184.3035,111.516 L184.6415,107.772 L187.0075,107.772 L187.0075,105.744 L184.4465,105.744 L184.4465,104.925 L187.9175,104.925 L187.9175,108.591 L185.4735,108.591 Z M189.0355,106.485 L192.8185,106.485 C193.2085,105.783 193.5335,105.055 193.8195,104.288 L194.7165,104.6 C194.4305,105.302 194.1055,105.939 193.7415,106.485 L195.4315,106.485 L195.4315,111.698 L192.6625,111.698 L192.6625,112.959 L196.0035,112.959 L196.0035,113.83 L192.6625,113.83 L192.6625,116.326 L191.7525,116.326 L191.7525,113.83 L188.4635,113.83 L188.4635,112.959 L191.7525,112.959 L191.7525,111.698 L189.0355,111.698 L189.0355,106.485 Z M194.5865,110.905 L194.5865,109.501 L192.6625,109.501 L192.6625,110.905 L194.5865,110.905 Z M191.7525,110.905 L191.7525,109.501 L189.8675,109.501 L189.8675,110.905 L191.7525,110.905 Z M189.8675,108.721 L191.7525,108.721 L191.7525,107.278 L189.8675,107.278 L189.8675,108.721 Z M192.6625,107.278 L192.6625,108.721 L194.5865,108.721 L194.5865,107.278 L192.6625,107.278 Z M190.5695,104.366 C190.9595,104.899 191.2975,105.471 191.5835,106.069 L190.7775,106.42 C190.4655,105.744 190.1015,105.159 189.7115,104.639 L190.5695,104.366 Z M198.337,106.888 L199.078,106.94 C199.052,108.24 198.896,109.488 198.636,110.658 L197.869,110.437 C198.142,109.319 198.298,108.136 198.337,106.888 Z M201.6,106.615 C201.886,107.252 202.133,107.98 202.354,108.812 C202.796,107.681 203.056,106.472 203.121,105.185 L203.966,105.302 C203.94,105.848 203.888,106.368 203.81,106.862 L205.669,106.862 L205.669,104.431 L206.631,104.431 L206.631,106.862 L209.465,106.862 L209.465,107.759 L206.631,107.759 L206.631,110.905 L209.27,110.905 L209.27,111.828 L206.631,111.828 L206.631,115 L209.803,115 L209.803,115.91 L201.951,115.91 L201.951,115 L205.669,115 L205.669,111.828 L202.692,111.828 L202.692,110.905 L205.669,110.905 L205.669,107.759 L203.641,107.759 C203.407,108.708 203.056,109.592 202.601,110.398 L201.912,109.774 C202.055,109.488 202.185,109.215 202.302,108.955 L201.652,109.124 C201.457,108.331 201.21,107.564 200.911,106.836 L201.6,106.615 Z M199.741,104.418 L200.69,104.418 L200.69,116.248 L199.741,116.248 L199.741,104.418 Z M213.3455,108.214 L217.2195,108.214 L217.2195,107.395 L218.1555,107.395 L218.1555,108.214 L221.9775,108.214 L221.9775,109.033 L218.1555,109.033 L218.1555,110.294 L223.4595,110.294 L223.4595,111.113 L220.9505,111.113 L220.9505,112.361 L222.9005,112.361 L222.9005,113.18 L220.9505,113.18 L220.9505,115.221 C220.9505,115.936 220.5605,116.3 219.7935,116.3 L217.9085,116.3 L217.7135,115.416 C218.3375,115.455 218.9225,115.481 219.4685,115.481 C219.8325,115.481 220.0145,115.312 220.0145,115 L220.0145,113.18 L212.6695,113.18 L212.6695,112.361 L220.0145,112.361 L220.0145,111.113 L211.9025,111.113 L211.9025,110.294 L217.2195,110.294 L217.2195,109.033 L213.3455,109.033 L213.3455,108.214 Z M214.8665,113.544 C215.5685,114.22 216.1015,114.831 216.4655,115.351 L215.7375,115.858 C215.3345,115.299 214.7885,114.688 214.1125,114.012 L214.8665,113.544 Z M213.8135,106.121 C213.5015,106.719 213.1375,107.278 212.7345,107.772 L211.9285,107.265 C212.6825,106.368 213.2415,105.38 213.5925,104.314 L214.4765,104.509 C214.3725,104.795 214.2815,105.068 214.1775,105.328 L217.5055,105.328 L217.5055,106.121 L215.3085,106.121 C215.6465,106.576 215.9195,106.992 216.1275,107.382 L215.2825,107.694 C215.0225,107.148 214.6975,106.628 214.3335,106.121 L213.8135,106.121 Z M219.0915,106.082 C218.8705,106.524 218.6235,106.914 218.3635,107.278 L217.5835,106.784 C218.1555,106.03 218.5585,105.211 218.8185,104.301 L219.7025,104.483 C219.6245,104.756 219.5335,105.029 219.4425,105.289 L223.1865,105.289 L223.1865,106.082 L220.8335,106.082 C221.1845,106.537 221.4575,106.966 221.6525,107.356 L220.8465,107.655 C220.5735,107.109 220.2485,106.589 219.8585,106.082 L219.0915,106.082 Z M2.375,130.357 L5.534,130.357 C5.599,129.772 5.638,129.148 5.638,128.472 L6.548,128.472 C6.548,129.148 6.509,129.772 6.444,130.357 L9.577,130.357 L9.577,131.241 L6.327,131.241 C6.275,131.527 6.21,131.813 6.132,132.073 C7.51,133.178 8.68,134.283 9.616,135.388 L8.94,136.064 C8.173,135.05 7.146,133.997 5.872,132.879 C5.339,134.179 4.312,135.245 2.778,136.09 L2.193,135.375 C3.649,134.582 4.624,133.581 5.092,132.359 C5.209,132.008 5.313,131.631 5.391,131.241 L2.375,131.241 L2.375,130.357 Z M11.228,126.977 L11.228,138.274 L10.292,138.274 L10.292,137.689 L1.66,137.689 L1.66,138.274 L0.724,138.274 L0.724,126.977 L11.228,126.977 Z M1.66,136.805 L10.292,136.805 L10.292,127.861 L1.66,127.861 L1.66,136.805 Z M14.7575,127.263 L19.3465,127.263 L19.3465,126.353 L20.2825,126.353 L20.2825,127.263 L24.8195,127.263 L24.8195,128.03 L20.2825,128.03 L20.2825,128.914 L24.2735,128.914 L24.2735,129.655 L20.2825,129.655 L20.2825,130.539 L25.3915,130.539 L25.3915,131.332 L19.5025,131.332 C18.7355,131.93 17.9685,132.411 17.1885,132.775 C18.3455,132.736 19.5025,132.697 20.6465,132.645 C21.1925,132.346 21.7385,132.034 22.2715,131.709 L22.9995,132.177 C21.1145,133.269 19.2165,134.101 17.3185,134.699 C18.8785,134.647 20.7765,134.53 23.0125,134.348 C22.7135,134.036 22.4015,133.724 22.0635,133.412 L22.7005,133.009 C23.7015,133.932 24.4685,134.738 24.9885,135.427 L24.3255,135.882 C24.0915,135.57 23.8445,135.271 23.5845,134.972 C22.3495,135.063 21.2575,135.141 20.3215,135.193 L20.3215,137.273 C20.3215,137.962 19.9705,138.313 19.2945,138.313 L18.0595,138.313 L17.8775,137.481 C18.2675,137.507 18.6315,137.533 18.9955,137.533 C19.2685,137.533 19.4115,137.377 19.4115,137.065 L19.4115,135.245 C18.0725,135.31 17.0325,135.349 16.3045,135.349 L15.2125,135.388 L15.0305,134.608 L15.5375,134.66 C16.8375,134.322 18.1245,133.854 19.3985,133.269 C18.3065,133.308 17.1495,133.347 15.9275,133.399 L15.7585,132.71 C15.9405,132.684 16.1225,132.645 16.2915,132.567 C16.8895,132.359 17.6045,131.943 18.4105,131.332 L14.1985,131.332 L14.1985,130.539 L19.3465,130.539 L19.3465,129.655 L15.3035,129.655 L15.3035,128.914 L19.3465,128.914 L19.3465,128.03 L14.7575,128.03 L14.7575,127.263 Z M17.6825,135.7 L18.2155,136.298 C17.2015,137.026 15.9405,137.624 14.4325,138.105 L14.0555,137.325 C15.5245,136.909 16.7335,136.376 17.6825,135.7 Z M21.7775,135.661 C23.1295,136.155 24.3775,136.74 25.5085,137.429 L25.0405,138.144 C23.8315,137.377 22.5965,136.766 21.3225,136.324 L21.7775,135.661 Z M29.519,135.453 C29.805,135.453 30.052,135.57 30.234,135.817 C30.403,136.051 30.494,136.35 30.494,136.727 C30.494,137.299 30.325,137.806 29.987,138.248 C29.649,138.664 29.194,138.95 28.648,139.093 L28.648,138.456 C28.986,138.339 29.259,138.144 29.467,137.884 C29.662,137.611 29.753,137.325 29.753,137.013 C29.701,137.039 29.597,137.065 29.467,137.065 C29.246,137.065 29.064,136.987 28.908,136.831 C28.752,136.675 28.674,136.48 28.674,136.259 C28.674,136.012 28.752,135.817 28.908,135.674 C29.064,135.518 29.259,135.453 29.519,135.453 Z M41.9925,127.198 L44.6445,127.198 L44.6445,126.405 L45.5675,126.405 L45.5675,127.198 L47.7775,127.198 L47.7775,128.017 L45.5675,128.017 L45.5675,128.953 L47.4655,128.953 L47.4655,129.72 L45.5545,129.72 C45.5285,130.058 45.4895,130.357 45.4245,130.643 L47.7775,130.643 L47.7775,131.462 L45.1905,131.462 C45.0735,131.748 44.9305,132.008 44.7745,132.242 C44.2805,132.892 43.4875,133.412 42.3955,133.776 L41.9145,133.022 C42.9285,132.684 43.6435,132.242 44.0465,131.683 C44.0855,131.605 44.1245,131.54 44.1765,131.462 L41.7195,131.462 L41.7195,130.643 L44.4755,130.643 C44.5405,130.344 44.5925,130.032 44.6185,129.72 L42.3175,129.72 L42.3175,128.953 L44.6445,128.953 L44.6445,128.017 L41.9925,128.017 L41.9925,127.198 Z M47.0625,132.736 L47.9985,132.736 L47.9985,133.919 L52.0025,133.919 L52.0025,136.519 C52.0025,137.195 51.6385,137.533 50.9235,137.533 L49.8185,137.533 L49.5845,136.662 L50.6245,136.688 C50.9235,136.688 51.0795,136.558 51.0795,136.311 L51.0795,134.79 L47.9985,134.79 L47.9985,138.417 L47.0625,138.417 L47.0625,134.79 L44.0335,134.79 L44.0335,137.624 L43.0975,137.624 L43.0975,133.919 L47.0625,133.919 L47.0625,132.736 Z M48.5705,126.899 L52.8085,126.899 L52.8085,127.549 C52.4835,128.238 52.0935,128.901 51.6515,129.525 C52.4705,130.149 52.8865,130.708 52.8865,131.202 C52.8735,131.904 52.5095,132.333 51.8075,132.489 C51.4695,132.58 51.0145,132.632 50.4425,132.632 L50.1045,131.748 C50.3905,131.774 50.6245,131.8 50.8325,131.8 C51.5605,131.787 51.9245,131.592 51.9245,131.202 C51.9245,130.851 51.4695,130.292 50.5855,129.525 C51.0405,128.979 51.4305,128.394 51.7425,127.77 L49.5065,127.77 L49.5065,133.074 L48.5705,133.074 L48.5705,126.899 Z M56.884,131.085 C56.442,131.683 55.974,132.242 55.467,132.775 L55.168,131.787 C56.572,130.201 57.599,128.368 58.236,126.314 L59.107,126.73 C58.769,127.757 58.34,128.732 57.82,129.642 L57.82,138.3 L56.884,138.3 L56.884,131.085 Z M65.256,131.553 C65.919,133.087 66.491,134.738 66.985,136.506 L66.166,136.87 C65.646,134.972 65.061,133.282 64.424,131.826 L65.256,131.553 Z M60.784,128.875 C60.368,129.889 59.887,130.799 59.341,131.631 L58.535,131.137 C59.523,129.694 60.238,128.095 60.68,126.34 L61.564,126.522 C61.434,127.029 61.278,127.51 61.122,127.965 L66.66,127.965 L66.66,128.576 C66.452,129.382 66.192,130.175 65.867,130.955 L64.97,130.695 C65.269,130.149 65.516,129.551 65.711,128.875 L60.784,128.875 Z M62.409,138.209 L60.706,138.209 L60.511,137.325 C61.057,137.364 61.59,137.39 62.084,137.39 C62.409,137.39 62.578,137.221 62.578,136.883 L62.578,129.967 L63.488,129.967 L63.488,137.117 C63.488,137.845 63.124,138.209 62.409,138.209 Z M60.459,131.657 L61.304,131.891 C60.836,133.698 60.225,135.284 59.471,136.649 L58.6,136.337 C59.302,135.115 59.926,133.555 60.459,131.657 Z M80.0435,134.036 L73.5955,134.036 L73.5955,133.23 L79.1465,133.23 L79.1465,132.255 L73.8815,132.255 L73.8815,131.449 L79.1465,131.449 L79.1465,130.461 L74.0765,130.461 L74.0765,129.707 C73.8945,129.837 73.7255,129.967 73.5695,130.071 L73.0235,129.356 C74.2975,128.524 75.1555,127.523 75.5975,126.327 L76.5335,126.444 C76.4295,126.73 76.2995,127.016 76.1695,127.276 L79.1855,127.276 L79.1855,127.965 C78.7955,128.615 78.3925,129.161 78.0025,129.629 L80.0435,129.629 L80.0435,134.036 Z M75.6625,128.095 C75.2465,128.667 74.7525,129.174 74.1805,129.629 L77.0015,129.629 C77.3915,129.187 77.7685,128.68 78.1455,128.095 L75.6625,128.095 Z M69.6305,126.912 L73.3485,126.912 L73.3485,127.653 C72.9845,128.823 72.5555,130.058 72.0615,131.332 C72.6855,132.489 73.0235,133.542 73.0755,134.478 C73.0755,135.037 72.9585,135.44 72.7505,135.7 C72.4385,135.999 71.9055,136.155 71.1515,136.168 L70.8525,135.219 C71.0475,135.245 71.2165,135.271 71.3595,135.271 C71.6845,135.245 71.9055,135.18 72.0095,135.063 C72.1135,134.946 72.1785,134.751 72.1785,134.478 C72.1785,133.581 71.8275,132.58 71.1385,131.475 C71.6845,130.123 72.1135,128.888 72.4255,127.796 L70.5405,127.796 L70.5405,138.313 L69.6305,138.313 L69.6305,126.912 Z M79.8615,134.595 C80.3295,135.414 80.7325,136.285 81.0965,137.208 L80.3165,137.559 C79.9265,136.545 79.5105,135.635 79.0555,134.855 L79.8615,134.595 Z M73.7125,134.842 L74.5315,135.011 C74.2975,136.116 73.9595,137.065 73.5305,137.871 L72.7505,137.377 C73.1925,136.61 73.5045,135.765 73.7125,134.842 Z M78.0155,138.196 L76.1825,138.196 C75.4675,138.196 75.1165,137.793 75.1165,137 L75.1165,134.686 L75.9875,134.686 L75.9875,136.805 C75.9875,137.169 76.1435,137.351 76.4555,137.351 L77.8595,137.351 C78.0675,137.351 78.2105,137.299 78.3015,137.208 C78.4055,137.078 78.4705,136.688 78.5225,136.051 L79.3285,136.324 C79.2505,137.208 79.0945,137.741 78.8865,137.949 C78.7045,138.105 78.4055,138.196 78.0155,138.196 Z M77.1705,134.387 C77.6645,134.946 78.0545,135.44 78.3275,135.856 L77.6255,136.35 C77.3525,135.882 76.9755,135.375 76.5075,134.816 L77.1705,134.387 Z M83.196,127.211 L86.225,127.211 L86.225,126.379 L87.187,126.379 L87.187,127.211 L90.528,127.211 L90.528,126.392 L91.49,126.392 L91.49,127.211 L94.519,127.211 L94.519,128.03 L91.49,128.03 L91.49,128.745 L92.153,128.745 L92.153,129.473 L93.193,129.473 C93.063,129.122 92.92,128.797 92.764,128.498 L93.557,128.368 C93.687,128.693 93.83,129.057 93.96,129.473 L94.61,129.473 L94.61,130.266 L92.166,130.266 C92.218,131.917 92.322,133.191 92.478,134.075 C92.504,134.231 92.53,134.374 92.556,134.504 C92.92,133.542 93.167,132.424 93.297,131.137 L94.09,131.306 C93.882,133.152 93.479,134.647 92.868,135.817 C92.946,136.077 93.024,136.298 93.115,136.48 C93.349,136.974 93.544,137.234 93.674,137.234 C93.83,137.221 93.986,136.636 94.116,135.466 L94.792,135.843 C94.571,137.455 94.246,138.261 93.83,138.261 C93.492,138.261 93.115,137.936 92.725,137.312 C92.595,137.104 92.491,136.883 92.387,136.623 C91.893,137.299 91.321,137.832 90.671,138.222 L90.229,137.52 L90.45,137.377 L87.044,137.377 L87.044,131.033 L90.749,131.033 L90.749,131.787 L89.605,131.787 L89.605,132.918 L90.736,132.918 L90.736,135.388 L89.605,135.388 L89.605,136.623 L90.749,136.623 L90.749,137.156 C91.243,136.74 91.672,136.233 92.036,135.622 C91.919,135.245 91.815,134.842 91.737,134.4 C91.529,133.334 91.399,131.956 91.347,130.266 L86.316,130.266 L86.316,134.231 C86.29,135.921 85.991,137.273 85.419,138.3 L84.743,137.689 C85.211,136.857 85.445,135.713 85.471,134.231 L85.471,134.088 L84.431,134.088 C84.379,135.83 84.054,137.039 83.482,137.728 L82.832,137.221 C83.352,136.649 83.638,135.609 83.69,134.088 L82.949,134.088 L82.949,133.308 L85.471,133.308 L85.471,131.995 L83.482,131.995 L83.482,129.031 L84.288,129.031 L84.288,131.215 L85.471,131.215 L85.471,129.473 L91.334,129.473 L91.334,128.94 L90.528,128.94 L90.528,128.03 L87.187,128.03 L87.187,128.927 L86.225,128.927 L86.225,128.03 L83.196,128.03 L83.196,127.211 Z M88.864,131.787 L87.811,131.787 L87.811,132.918 L88.864,132.918 L88.864,131.787 Z M87.811,133.607 L87.811,134.686 L90.008,134.686 L90.008,133.607 L87.811,133.607 Z M87.811,135.388 L87.811,136.623 L88.864,136.623 L88.864,135.388 L87.811,135.388 Z M99.1535,127.718 L99.9855,127.718 L99.9855,137 L98.9195,137 L98.9195,129.018 C98.3345,129.616 97.6065,130.032 96.7355,130.292 L96.7355,129.226 C97.1515,129.109 97.5935,128.927 98.0355,128.667 C98.4775,128.381 98.8415,128.069 99.1535,127.718 Z M106.089,127.536 C107.194,127.536 108.026,128.017 108.598,129.005 C109.092,129.837 109.339,130.955 109.339,132.359 C109.339,133.763 109.092,134.881 108.598,135.713 C108.026,136.688 107.194,137.182 106.089,137.182 C104.971,137.182 104.139,136.688 103.58,135.713 C103.086,134.881 102.839,133.763 102.839,132.359 C102.839,130.955 103.086,129.837 103.58,129.005 C104.139,128.017 104.971,127.536 106.089,127.536 Z M106.089,128.446 C105.257,128.446 104.659,128.888 104.295,129.785 C104.035,130.409 103.905,131.267 103.905,132.359 C103.905,133.438 104.035,134.296 104.295,134.933 C104.659,135.817 105.257,136.272 106.089,136.272 C106.921,136.272 107.519,135.817 107.883,134.933 C108.143,134.296 108.286,133.438 108.286,132.359 C108.286,131.267 108.143,130.409 107.883,129.785 C107.519,128.888 106.921,128.446 106.089,128.446 Z M114.7015,127.536 C115.8065,127.536 116.6385,128.017 117.2105,129.005 C117.7045,129.837 117.9515,130.955 117.9515,132.359 C117.9515,133.763 117.7045,134.881 117.2105,135.713 C116.6385,136.688 115.8065,137.182 114.7015,137.182 C113.5835,137.182 112.7515,136.688 112.1925,135.713 C111.6985,134.881 111.4515,133.763 111.4515,132.359 C111.4515,130.955 111.6985,129.837 112.1925,129.005 C112.7515,128.017 113.5835,127.536 114.7015,127.536 Z M114.7015,128.446 C113.8695,128.446 113.2715,128.888 112.9075,129.785 C112.6475,130.409 112.5175,131.267 112.5175,132.359 C112.5175,133.438 112.6475,134.296 112.9075,134.933 C113.2715,135.817 113.8695,136.272 114.7015,136.272 C115.5335,136.272 116.1315,135.817 116.4955,134.933 C116.7555,134.296 116.8985,133.438 116.8985,132.359 C116.8985,131.267 116.7555,130.409 116.4955,129.785 C116.1315,128.888 115.5335,128.446 114.7015,128.446 Z M129.021,131.917 C129.71,131.917 130.243,132.164 130.62,132.684 C130.945,133.126 131.114,133.724 131.114,134.465 C131.114,135.193 130.945,135.791 130.62,136.246 C130.243,136.74 129.71,137 129.021,137 C128.319,137 127.786,136.74 127.422,136.246 C127.084,135.778 126.928,135.193 126.928,134.465 C126.928,133.724 127.084,133.126 127.422,132.684 C127.786,132.164 128.319,131.917 129.021,131.917 Z M127.903,127.536 L128.735,127.536 L123.535,137.182 L122.69,137.182 L127.903,127.536 Z M122.417,127.718 C123.106,127.718 123.639,127.965 124.016,128.485 C124.341,128.927 124.51,129.525 124.51,130.266 C124.51,130.994 124.341,131.592 124.016,132.047 C123.639,132.541 123.106,132.801 122.417,132.801 C121.715,132.801 121.182,132.541 120.818,132.047 C120.48,131.579 120.324,130.994 120.324,130.266 C120.324,129.525 120.48,128.927 120.818,128.485 C121.182,127.965 121.715,127.718 122.417,127.718 Z M129.021,132.619 C128.618,132.619 128.332,132.801 128.15,133.165 C127.981,133.477 127.903,133.906 127.903,134.465 C127.903,134.998 127.981,135.427 128.15,135.739 C128.332,136.103 128.618,136.298 129.021,136.298 C129.411,136.298 129.697,136.103 129.892,135.726 C130.048,135.414 130.139,134.998 130.139,134.465 C130.139,133.919 130.048,133.49 129.892,133.178 C129.697,132.801 129.411,132.619 129.021,132.619 Z M122.417,128.42 C122.014,128.42 121.728,128.602 121.546,128.966 C121.377,129.278 121.299,129.707 121.299,130.266 C121.299,130.799 121.377,131.228 121.546,131.54 C121.728,131.904 122.014,132.099 122.417,132.099 C122.807,132.099 123.093,131.904 123.288,131.527 C123.444,131.215 123.535,130.799 123.535,130.266 C123.535,129.72 123.444,129.291 123.275,128.979 C123.093,128.602 122.807,128.42 122.417,128.42 Z M133.8115,127.055 L144.8615,127.055 L144.8615,127.978 L140.6235,127.978 C140.3895,128.511 140.1165,129.031 139.8175,129.525 L139.8175,138.326 L138.8555,138.326 L138.8555,130.903 C137.6335,132.424 136.0345,133.776 134.0585,134.959 L133.4475,134.14 C136.3855,132.45 138.4395,130.396 139.5835,127.978 L133.8115,127.978 L133.8115,127.055 Z M141.4555,130.552 C142.9505,131.735 144.1985,132.918 145.2125,134.101 L144.4975,134.829 C143.5875,133.685 142.3525,132.476 140.7795,131.189 L141.4555,130.552 Z M152.811,126.366 L153.487,126.366 C155.138,128.277 157.049,129.785 159.207,130.877 L158.7,131.774 C156.529,130.604 154.683,129.083 153.149,127.211 C151.732,128.979 149.86,130.5 147.546,131.8 L147.052,130.903 C149.366,129.681 151.277,128.173 152.811,126.366 Z M157.257,133.048 L157.257,138.287 L156.347,138.287 L156.347,137.507 L149.951,137.507 L149.951,138.287 L149.041,138.287 L149.041,133.048 L157.257,133.048 Z M149.951,136.61 L156.347,136.61 L156.347,133.932 L149.951,133.932 L149.951,136.61 Z M149.769,130.5 L156.529,130.5 L156.529,131.397 L149.769,131.397 L149.769,130.5 Z M166.0775,126.249 L167.0525,126.379 C166.9485,126.769 166.8185,127.133 166.6625,127.471 L170.4715,127.471 L170.4715,133.204 C171.1475,132.45 171.6415,131.657 171.9665,130.851 L172.7725,131.358 C172.1485,132.554 171.3815,133.581 170.4715,134.426 L170.4715,137.195 C170.4715,137.949 170.1205,138.326 169.4445,138.326 L168.0535,138.326 L167.8065,137.429 L169.1455,137.468 C169.4055,137.468 169.5485,137.299 169.5485,136.987 L169.5485,135.193 C169.2625,135.401 168.9895,135.596 168.7035,135.778 C166.9225,136.831 164.6865,137.585 162.0085,138.053 L161.5925,137.208 C164.9855,136.61 167.4295,135.739 168.9375,134.608 L169.1195,134.465 L161.5145,134.465 L161.5145,133.607 L163.0745,133.607 L163.0745,127.471 L165.6875,127.471 C165.8565,127.081 165.9865,126.665 166.0775,126.249 Z M164.0105,133.607 L169.5485,133.607 L169.5485,132.294 L164.0105,132.294 L164.0105,133.607 Z M164.0105,131.488 L169.5485,131.488 L169.5485,130.318 L164.0105,130.318 L164.0105,131.488 Z M164.0105,129.525 L169.5485,129.525 L169.5485,128.303 L164.0105,128.303 L164.0105,129.525 Z M179.526,128.628 L179.526,137.494 L178.616,137.494 L178.616,136.753 L176.25,136.753 L176.25,137.871 L175.34,137.871 L175.34,128.628 L176.549,128.628 C176.809,127.9 176.991,127.146 177.108,126.366 L178.044,126.496 C177.888,127.263 177.693,127.978 177.433,128.628 L179.526,128.628 Z M176.25,135.882 L178.616,135.882 L178.616,133.035 L176.25,133.035 L176.25,135.882 Z M176.25,132.19 L178.616,132.19 L178.616,129.512 L176.25,129.512 L176.25,132.19 Z M181.788,131.644 C182.724,132.723 183.426,133.672 183.92,134.478 L183.179,134.998 C182.646,134.14 181.931,133.178 181.034,132.112 L181.788,131.644 Z M186.247,128.641 C186.247,132.957 186.182,135.635 186.052,136.649 C185.922,137.637 185.324,138.144 184.232,138.144 C183.972,138.144 183.53,138.118 182.906,138.092 L182.685,137.234 C183.231,137.26 183.699,137.273 184.102,137.273 C184.713,137.273 185.064,136.935 185.168,136.272 C185.246,135.544 185.298,133.295 185.324,129.551 L181.749,129.551 C181.385,130.37 180.956,131.111 180.449,131.774 L179.89,131.033 C180.8,129.759 181.411,128.199 181.749,126.353 L182.672,126.47 C182.516,127.237 182.334,127.965 182.1,128.641 L186.247,128.641 Z M194.5995,129.278 L194.4955,129.278 C193.9755,130.435 193.2735,131.488 192.4025,132.437 L192.4025,136.974 C193.5855,136.649 194.6905,136.259 195.7045,135.817 L195.8735,136.74 C194.5995,137.247 193.0655,137.728 191.2845,138.196 L191.0635,137.299 C191.3235,137.195 191.4665,137.039 191.4665,136.805 L191.4665,133.347 C190.7905,133.945 190.0365,134.491 189.2175,134.985 L188.7235,134.179 C190.9465,132.905 192.5455,131.28 193.5205,129.278 L189.0225,129.278 L189.0225,128.381 L194.2095,128.381 C193.9495,127.705 193.6765,127.094 193.3645,126.535 L194.3655,126.379 C194.6515,126.964 194.9115,127.627 195.1715,128.381 L200.1505,128.381 L200.1505,129.278 L195.5095,129.278 C195.7175,130.552 196.0685,131.722 196.5885,132.762 C197.4595,132.281 198.2785,131.553 199.0585,130.565 L199.7215,131.241 C198.9155,132.229 198.0185,132.996 197.0045,133.516 C197.8365,134.933 198.9805,136.129 200.4105,137.104 L199.8255,138.066 C196.9135,135.96 195.1715,133.022 194.5995,129.278 Z M204.265,130.825 L204.265,132.996 L206.358,132.996 L206.358,130.825 L204.265,130.825 Z M206.358,129.98 L206.358,127.783 L204.265,127.783 L204.265,129.98 L206.358,129.98 Z M204.252,133.841 C204.174,135.661 203.862,137.156 203.329,138.326 L202.627,137.676 C203.147,136.506 203.407,134.998 203.42,133.178 L203.42,126.938 L207.216,126.938 L207.216,137.078 C207.216,137.858 206.852,138.261 206.124,138.261 L205.084,138.261 L204.863,137.429 C205.227,137.455 205.552,137.481 205.864,137.481 C206.189,137.481 206.358,137.247 206.358,136.779 L206.358,133.841 L204.252,133.841 Z M209.192,132.554 L209.192,138.313 L208.308,138.313 L208.308,126.925 L213.573,126.925 C213.573,128.537 213.495,129.603 213.339,130.123 C213.183,130.656 212.702,130.929 211.883,130.929 L210.83,130.929 L210.583,130.123 C210.804,130.123 211.09,130.136 211.454,130.136 C211.766,130.136 211.987,130.11 212.143,130.071 C212.299,130.019 212.416,129.889 212.494,129.694 C212.585,129.408 212.637,128.771 212.663,127.783 L209.192,127.783 L209.192,131.722 L213.612,131.722 L213.612,132.515 C213.365,133.854 212.936,134.998 212.338,135.934 C212.923,136.506 213.612,137.013 214.405,137.468 L213.937,138.261 C213.105,137.78 212.403,137.247 211.805,136.662 C211.233,137.325 210.57,137.858 209.79,138.274 L209.296,137.52 C210.037,137.117 210.661,136.61 211.181,135.986 C210.349,134.972 209.79,133.828 209.504,132.554 L209.192,132.554 Z M210.31,132.554 C210.583,133.555 211.051,134.452 211.714,135.258 C212.195,134.478 212.546,133.581 212.78,132.554 L210.31,132.554 Z M219.8975,127.445 L219.8975,136.779 L219.0005,136.779 L219.0005,136.077 L217.6355,136.077 L217.6355,137.052 L216.7385,137.052 L216.7385,127.445 L219.8975,127.445 Z M217.6355,135.167 L219.0005,135.167 L219.0005,128.355 L217.6355,128.355 L217.6355,135.167 Z M221.7305,138.209 L220.6775,138.209 L220.4825,137.325 C220.8075,137.364 221.1195,137.39 221.4185,137.39 C221.8215,137.39 222.0295,137.195 222.0295,136.805 L222.0295,134.127 C221.5095,134.27 220.9895,134.4 220.4695,134.517 L220.2485,133.581 C220.8465,133.477 221.4445,133.347 222.0295,133.191 L222.0295,130.864 L220.3525,130.864 L220.3525,129.967 L222.0295,129.967 L222.0295,128.472 C221.6265,128.641 221.1975,128.784 220.7425,128.901 L220.3655,128.095 C221.7045,127.783 222.7055,127.25 223.3555,126.522 L224.0315,127.081 C223.7195,127.432 223.3425,127.744 222.9265,128.004 L222.9265,129.967 L224.6295,129.967 C224.5905,128.888 224.5775,127.705 224.5775,126.418 L225.4095,126.418 C225.4095,127.731 225.4225,128.914 225.4615,129.967 L227.7365,129.967 L227.7365,130.864 L225.5005,130.864 C225.5525,132.242 225.6435,133.399 225.7735,134.309 C226.2285,133.555 226.6185,132.671 226.9435,131.67 L227.6715,132.047 C227.2165,133.438 226.6575,134.595 225.9945,135.531 C226.2415,136.597 226.5275,137.143 226.8525,137.182 C227.0865,137.156 227.3205,136.506 227.5545,135.245 L228.2175,135.804 C227.8405,137.39 227.3855,138.196 226.8525,138.196 C226.4365,138.196 226.0595,137.858 225.7215,137.195 C225.5915,136.922 225.4745,136.623 225.3705,136.298 C224.9025,136.818 224.3825,137.234 223.8235,137.559 L223.3165,136.792 C223.9925,136.415 224.5905,135.908 225.1105,135.258 C225.0325,134.855 224.9545,134.439 224.9025,133.997 C224.7985,133.113 224.7205,132.06 224.6685,130.864 L222.9265,130.864 L222.9265,132.931 C223.3165,132.801 223.6935,132.671 224.0705,132.528 L224.0705,133.464 C223.6935,133.594 223.3165,133.724 222.9265,133.854 L222.9265,137.039 C222.9265,137.819 222.5235,138.209 221.7305,138.209 Z M226.3195,126.756 C226.8915,127.328 227.4245,127.965 227.9315,128.641 L227.2425,129.174 C226.7225,128.42 226.2025,127.783 225.6825,127.237 L226.3195,126.756 Z" id="我们会综合尺码、版型和面料弹性等因素，帮"></path>
                    <g id="Group-5" transform="translate(119.001445, 29.926369) rotate(-30.000000) translate(-119.001445, -29.926369) translate(93.001445, 10.426369)">
                        <path d="M38.2823232,5.61522369 L38.2823232,13.2225674 C37.6687827,13.1932706 37.0514475,13.1784551 36.430652,13.1784551 C19.8493551,13.1784551 5.73670709,23.7479971 0.462595089,38.5171939 C3.03382313,19.9286779 18.98653,5.61522369 38.2823232,5.61522369 Z" id="Combined-Shape"></path>
                        <g id="箭头(2)" transform="translate(44.500000, 9.000000) rotate(-90.000000) translate(-44.500000, -9.000000) translate(35.500000, 1.500000)" fill-rule="nonzero">
                            <polygon id="Shape" transform="translate(8.972286, 7.128004) rotate(-270.000000) translate(-8.972286, -7.128004) " points="16.019957 7.12800443 1.92461462 15.3125703 1.92461462 -1.05656148"></polygon>
                        </g>
                    </g>
                </g>
                <path d="M167,4 L274,4 C276.209139,4 278,5.790861 278,8 L278,40 C278,42.209139 276.209139,44 274,44 L167,44 C164.790861,44 163,42.209139 163,40 L163,8 C163,5.790861 164.790861,4 167,4 Z" id="Rectangle-10" fill="#FFFFFF"></path>
                <g id="智能选码" transform="translate(182.333333, 14.000000)">
                    <text font-family="PingFangSC-Regular, PingFang SC" font-size="14" font-weight="normal" fill="#5E5E5E">
                        <tspan x="0" y="15">智能选码</tspan>
                    </text>
                    <g id="已选" transform="translate(64.000000, 4.000000)">
                        <path d="M1,0.5 C0.723857625,0.5 0.5,0.723857625 0.5,1 L0.5,11 C0.5,11.2761424 0.723857625,11.5 1,11.5 L11,11.5 C11.2761424,11.5 11.5,11.2761424 11.5,11 L11.5,1 C11.5,0.723857625 11.2761424,0.5 11,0.5 L1,0.5 Z M1,0 L11,0 C11.5522847,0 12,0.44771525 12,1 L12,11 C12,11.5522847 11.5522847,12 11,12 L1,12 C0.44771525,12 0,11.5522847 0,11 L0,1 C0,0.44771525 0.44771525,0 1,0 Z" id="未选" fill="#979797" fill-rule="nonzero"></path>
                        <polygon id="Combined-Shape" fill="#5E5E5E" points="5.49632034 7.27665043 8.67830086 4.09466991 9.38540764 4.8017767 5.49632034 8.69086399 3.02144661 6.21599026 3.72855339 5.50888348"></polygon>
                    </g>
                </g>
            </g>
        </g>
    </g>
</svg>