<?xml version="1.0" encoding="UTF-8"?>
<svg width="12px" height="12px" viewBox="0 0 12 12" version="1.1" xmlns="http://www.w3.org/2000/svg" xmlns:xlink="http://www.w3.org/1999/xlink">
    <!-- Generator: Sketch 49.2 (51160) - http://www.bohemiancoding.com/sketch -->
    <title>未选</title>
    <desc>Created with Sketch.</desc>
    <defs></defs>
    <g id="Page-1" stroke="none" stroke-width="1" fill="none" fill-rule="evenodd">
        <g id="服饰列表-关闭智能选码" transform="translate(-339.000000, -82.000000)" fill="#B2B2AF" fill-rule="nonzero">
            <g id="Group-Copy">
                <g id="智能选码" transform="translate(275.000000, 78.000000)">
                    <path d="M65,4.5 C64.7238576,4.5 64.5,4.72385763 64.5,5 L64.5,15 C64.5,15.2761424 64.7238576,15.5 65,15.5 L75,15.5 C75.2761424,15.5 75.5,15.2761424 75.5,15 L75.5,5 C75.5,4.72385763 75.2761424,4.5 75,4.5 L65,4.5 Z M65,4 L75,4 C75.5522847,4 76,4.44771525 76,5 L76,15 C76,15.5522847 75.5522847,16 75,16 L65,16 C64.4477153,16 64,15.5522847 64,15 L64,5 C64,4.44771525 64.4477153,4 65,4 Z" id="未选"></path>
                </g>
            </g>
        </g>
    </g>
</svg>