<?xml version="1.0" encoding="UTF-8"?>
<svg width="15px" height="15px" viewBox="0 0 15 15" version="1.1" xmlns="http://www.w3.org/2000/svg" xmlns:xlink="http://www.w3.org/1999/xlink">
    <!-- Generator: Sketch 49.2 (51160) - http://www.bohemiancoding.com/sketch -->
    <title>提示</title>
    <desc>Created with Sketch.</desc>
    <defs></defs>
    <g id="Page-1" stroke="none" stroke-width="1" fill="none" fill-rule="evenodd">
        <g id="服饰列表-智能选码-尺码不全" transform="translate(-67.000000, -298.000000)">
            <g id="弹框-copy" transform="translate(0.000000, 64.000000)">
                <g id="Group" transform="translate(31.000000, 170.000000)">
                    <g id="Group-8" transform="translate(0.000000, 25.000000)">
                        <g id="Group-4" transform="translate(36.000000, 39.000000)">
                            <g id="提示">
                                <path d="M7.5,15 C3.35786438,15 0,11.6421356 0,7.5 C0,3.35786438 3.35786438,0 7.5,0 C11.6421356,0 15,3.35786438 15,7.5 C15,11.6421356 11.6421356,15 7.5,15 Z" id="Oval-13" fill="#E85C40" fill-rule="nonzero"></path>
                                <path d="M7.5,6.5 L7.5,9 L8,8.5 L7,8.5 L7.5,9 L7.5,6.5 Z M7.5,6.5 L7.5,4 L7,4.5 L8,4.5 L7.5,4 L7.5,6.5 Z M7.5,10.5 L8,10.5 L7.5,10 L7.5,10.5 L7.5,10 L7,10.5 L7.5,10.5 L7,10.5 L7.5,11 L7.5,10.5 L7.5,11 L8,10.5 L7.5,10.5 Z" id="Combined-Shape" stroke="#FFFFFF"></path>
                            </g>
                        </g>
                    </g>
                </g>
            </g>
        </g>
    </g>
</svg>