<?xml version="1.0" encoding="UTF-8"?>
<svg width="365px" height="5px" viewBox="0 0 365 5" version="1.1" xmlns="http://www.w3.org/2000/svg" xmlns:xlink="http://www.w3.org/1999/xlink">
    <!-- Generator: Sketch 49.2 (51160) - http://www.bohemiancoding.com/sketch -->
    <title>分割线</title>
    <desc>Created with Sketch.</desc>
    <defs></defs>
    <g id="Page-1" stroke="none" stroke-width="1" fill="none" fill-rule="evenodd">
        <g id="T04.提交预约归还" transform="translate(-5.000000, -393.000000)">
            <g id="分割线" transform="translate(5.000000, 393.000000)">
                <path d="M35,0 L55,0 L51,5 L31,5 L35,0 Z M159,0 L179,0 L175,5 L155,5 L159,0 Z M283,0 L303,0 L299,5 L279,5 L283,0 Z M97,0 L117,0 L113,5 L93,5 L97,0 Z M221,0 L241,0 L237,5 L217,5 L221,0 Z M345,0 L365,0 L361,5 L341,5 L345,0 Z" id="Combined-Shape" fill="#E85C40"></path>
                <path d="M4,0 L24,0 L20,5 L0,5 L4,0 Z M128,0 L148,0 L144,5 L124,5 L128,0 Z M252,0 L272,0 L268,5 L248,5 L252,0 Z M66,0 L86,0 L82,5 L62,5 L66,0 Z M190,0 L210,0 L206,5 L186,5 L190,0 Z M314,0 L334,0 L330,5 L310,5 L314,0 Z" id="Combined-Shape-Copy" fill="#333333"></path>
            </g>
        </g>
    </g>
</svg>