<?xml version="1.0" encoding="UTF-8"?>
<svg xmlns="http://www.w3.org/2000/svg" xmlns:xlink="http://www.w3.org/1999/xlink" width="15px" height="15px" version="1.1" viewBox="0 0 15 15">
<!--Generator: Sketch 49.2 (51160) - http://www.bohemiancoding.com/sketch-->
    <title>
        提示
    </title>
    <desc>
        Created with Sketch.
    </desc>
    <defs/>
    <g id="Page-1" fill="none" fill-rule="evenodd" stroke="none" stroke-width="1">
        <g id="T03.提交衣箱" fill="#E85C40" transform="translate(-20.000000, -303.000000)">
            <g id="提示" transform="translate(20.000000, 303.000000)">
                <path id="Path" fill-rule="nonzero" d="M7.5,14 C11.0898509,14 14,11.0898509 14,7.5 C14,3.91014913 11.0898509,1 7.5,1 C3.91014913,1 1,3.91014913 1,7.5 C1,11.0898509 3.91014913,14 7.5,14 Z M7.5,15 C3.35786438,15 0,11.6421356 0,7.5 C0,3.35786438 3.35786438,0 7.5,0 C11.6421356,0 15,3.35786438 15,7.5 C15,11.6421356 11.6421356,15 7.5,15 Z"/>
                <polygon id="Path" points="7 4 8 4 8 9 7 9"/>
                <polygon id="Path" points="7 10 8 10 8 11 7 11"/>
            </g>
        </g>
    </g>
</svg>
