<?xml version="1.0" encoding="UTF-8"?>
<svg width="74px" height="82px" viewBox="0 0 74 82" version="1.1" xmlns="http://www.w3.org/2000/svg" xmlns:xlink="http://www.w3.org/1999/xlink">
    <!-- Generator: Sketch 49.2 (51160) - http://www.bohemiancoding.com/sketch -->
    <title>优先发货</title>
    <desc>Created with Sketch.</desc>
    <defs></defs>
    <g id="Page-1" stroke="none" stroke-width="1" fill="none" fill-rule="evenodd">
        <g id="会员中心-copy-2" transform="translate(-150.000000, -326.000000)">
            <g id="优先发货" transform="translate(130.000000, 311.000000)">
                <rect id="Rectangle-100" x="0" y="0" width="115" height="113"></rect>
                <g id="3+2" transform="translate(20.000000, 15.000000)">
                    <path d="M38,0 C26.954505,0 18,8.954505 18,20 C18,31.0458287 26.9543259,40 38,40 C49.0460078,40 58,31.0460078 58,20 C58,8.9543259 49.0458287,0 38,0 Z" id="Path" fill="#FEFAF4"></path>
                    <polygon id="Path" fill="#FFFFFF" points="29 21.0172999 33.3824676 8 41.4865522 8 39.4636509 15.0100916 47.9888774 15.0100916 33.2114489 31.9822782 36.1258091 21.0172999"></polygon>
                    <path d="M30.3918157,20.0172999 L37.4263161,20.0172999 L35.283423,28.0797132 L45.7922616,16.0100916 L38.1342772,16.0100916 L40.1571785,9 L34.1009536,9 L30.3918157,20.0172999 Z M29,21.0172999 L33.3824676,8 L41.4865522,8 L39.4636509,15.0100916 L47.9888774,15.0100916 L33.2114489,31.9822782 L36.1258091,21.0172999 L29,21.0172999 Z" id="Page-1-Copy" fill="#DCAE4E" fill-rule="nonzero"></path>
                    <path d="M38,0.5 C27.2306424,0.5 18.5,9.23064237 18.5,20 C18.5,30.769683 27.2304678,39.5 38,39.5 C48.7698576,39.5 57.5,30.7698576 57.5,20 C57.5,9.23046775 48.769683,0.5 38,0.5 Z M38,0 C49.046,0 58,8.9545 58,20 C58,31.046 49.046,40 38,40 C26.9545,40 18,31.046 18,20 C18,8.9545 26.9545,0 38,0 Z" id="Stroke-3" fill="#DCAE4E" fill-rule="nonzero"></path>
                    <path d="M10.622,55.448 C10.132,56.12 9.58599999,56.764 8.99799999,57.366 L8.70399999,56.358 C10.216,54.678 11.308,52.76 11.994,50.604 L12.904,51.024 C12.568,52.032 12.134,52.998 11.63,53.908 L11.63,63.4 L10.622,63.4 L10.622,55.448 Z M12.638,53.978 L15.522,53.978 C15.536,53.698 15.55,53.418 15.55,53.138 L15.55,50.604 L16.516,50.604 L16.516,53.138 C16.516,53.418 16.502,53.698 16.488,53.978 L21.192,53.978 L21.192,54.958 L18.28,54.958 L18.28,61.832 C18.28,62.112 18.406,62.252 18.686,62.252 L19.904,62.252 C20.058,62.252 20.184,62.168 20.296,62.014 C20.422,61.804 20.506,61.062 20.548,59.774 L21.458,60.068 C21.36,61.552 21.206,62.462 21.01,62.77 C20.814,63.022 20.52,63.162 20.156,63.176 L18.42,63.176 C17.678,63.176 17.314,62.784 17.314,62.014 L17.314,54.958 L16.432,54.958 C16.124,58.696 14.948,61.496 12.932,63.358 L12.19,62.714 C14.066,61.006 15.158,58.43 15.466,54.958 L12.638,54.958 L12.638,53.978 Z M18.35,50.856 C19.218,51.458 19.96,52.074 20.548,52.69 L19.862,53.376 C19.33,52.774 18.616,52.144 17.692,51.486 L18.35,50.856 Z M25.918,53.67 C25.554,54.412 25.148,55.084 24.7,55.7 L23.734,55.098 C24.756,53.782 25.498,52.34 25.946,50.758 L26.968,50.968 C26.786,51.584 26.576,52.158 26.352,52.704 L29.208,52.704 L29.208,50.576 L30.23,50.576 L30.23,52.704 L34.85,52.704 L34.85,53.67 L30.23,53.67 L30.23,56.316 L35.816,56.316 L35.816,57.282 L31.994,57.282 L31.994,61.384 C31.994,61.944 32.218,62.224 32.68,62.224 L34.024,62.224 C34.248,62.224 34.43,62.14 34.57,61.986 C34.752,61.762 34.864,60.992 34.92,59.676 L35.886,59.984 C35.774,61.524 35.578,62.462 35.326,62.784 C35.074,63.036 34.738,63.176 34.29,63.19 L32.386,63.19 C31.434,63.19 30.958,62.644 30.958,61.566 L30.958,57.282 L28.354,57.282 C28.214,58.934 27.864,60.152 27.304,60.964 C26.646,61.916 25.54,62.728 24,63.4 L23.3,62.504 C24.728,61.944 25.736,61.258 26.338,60.474 C26.87,59.774 27.192,58.71 27.318,57.282 L23.454,57.282 L23.454,56.316 L29.208,56.316 L29.208,53.67 L25.918,53.67 Z M38.624,54.86 L39.73,50.968 L40.724,51.136 L39.926,53.894 L42.376,53.894 C42.656,52.802 42.88,51.668 43.048,50.464 L44.07,50.59 C43.888,51.766 43.664,52.858 43.412,53.894 L49.964,53.894 L49.964,54.86 L43.146,54.86 C42.978,55.42 42.81,55.952 42.614,56.456 L48.34,56.456 L48.34,57.324 C47.962,58.528 47.206,59.62 46.058,60.6 C47.192,61.272 48.578,61.888 50.202,62.448 L49.684,63.386 C47.892,62.728 46.408,62.014 45.232,61.244 C44.084,62.056 42.656,62.784 40.962,63.442 L40.43,62.504 C41.998,61.93 43.3,61.3 44.35,60.614 C43.258,59.774 42.488,58.864 42.026,57.884 C41.004,60.096 39.688,61.846 38.092,63.148 L37.574,62.224 C39.618,60.432 41.116,57.982 42.096,54.86 L38.624,54.86 Z M42.782,57.38 C43.258,58.332 44.056,59.214 45.176,60.026 C46.212,59.214 46.926,58.332 47.318,57.38 L42.782,57.38 Z M46.422,50.576 C47.43,51.346 48.256,52.116 48.928,52.886 L48.214,53.6 C47.626,52.858 46.8,52.074 45.75,51.234 L46.422,50.576 Z M62.712,55.784 L59.674,55.784 C58.806,55.784 58.386,55.392 58.386,54.622 L58.386,54.034 C57.812,54.202 57.224,54.37 56.636,54.538 L56.09,53.74 C56.902,53.53 57.672,53.306 58.386,53.082 L58.386,50.632 L59.366,50.632 L59.366,52.76 C60.962,52.172 62.264,51.542 63.286,50.842 L63.93,51.514 C62.642,52.354 61.13,53.096 59.366,53.712 L59.366,54.426 C59.366,54.748 59.548,54.916 59.94,54.916 L62.53,54.916 C62.838,54.916 63.062,54.846 63.188,54.734 C63.356,54.594 63.468,54.16 63.524,53.46 L64.448,53.754 C64.35,54.72 64.154,55.308 63.874,55.518 C63.622,55.686 63.244,55.784 62.712,55.784 Z M62.95,56.582 L62.95,60.754 L61.914,60.754 L61.914,57.506 L55.18,57.506 L55.18,60.95 L54.158,60.95 L54.158,56.582 L62.95,56.582 Z M59.436,60.768 C61.242,61.272 62.88,61.902 64.364,62.63 L63.804,63.484 C62.222,62.658 60.598,62.014 58.932,61.538 L59.436,60.768 Z M58.064,58.122 L59.044,58.206 C58.848,60.026 58.414,61.258 57.756,61.902 C57.028,62.686 55.404,63.19 52.87,63.4 L52.464,62.49 C54.718,62.378 56.202,61.986 56.93,61.314 C57.574,60.684 57.952,59.62 58.064,58.122 Z M54.326,53.362 C53.766,53.754 53.15,54.132 52.478,54.482 L52.17,53.502 C53.892,52.62 55.152,51.612 55.936,50.492 L56.762,50.898 C56.37,51.5 55.88,52.06 55.306,52.578 L55.306,55.966 L54.326,55.966 L54.326,53.362 Z" id="优先发货" fill="#242424"></path>
                    <path d="M0.996,72.128 L5.604,72.128 C5.412,71.48 5.208,70.892 4.992,70.364 L5.988,70.196 C6.18,70.76 6.36,71.408 6.54,72.128 L11.04,72.128 L11.04,72.968 L0.996,72.968 L0.996,72.128 Z M0.588,79.664 L6.54,79.664 C7.272,78.068 7.908,76.064 8.46,73.664 L9.372,73.904 C8.88,76.064 8.268,77.984 7.524,79.664 L11.448,79.664 L11.448,80.504 L0.588,80.504 L0.588,79.664 Z M3.576,73.712 C4.104,75.272 4.572,77.048 4.98,79.064 L4.056,79.292 C3.696,77.468 3.228,75.704 2.676,74.012 L3.576,73.712 Z M14.7548572,72.74 L21.9428572,72.74 L21.9428572,75.164 L14.7548572,75.164 L14.7548572,72.74 Z M21.1148572,74.42 L21.1148572,73.484 L15.5828572,73.484 L15.5828572,74.42 L21.1148572,74.42 Z M18.2108572,70.172 C18.4028572,70.484 18.5828572,70.82 18.7508572,71.204 L23.5508572,71.204 L23.5508572,72.02 L13.1348572,72.02 L13.1348572,71.204 L17.8028572,71.204 C17.6228572,70.892 17.4308572,70.592 17.2268572,70.328 L18.2108572,70.172 Z M12.8708572,78.2 L18.1268572,78.2 L18.1268572,77.732 C18.8708572,77.444 19.7468572,77.096 20.7548572,76.676 L14.0348572,76.676 L14.0348572,75.896 L22.4588572,75.896 L22.4588572,76.52 C21.4508572,76.988 20.2868572,77.468 18.9788572,77.972 L18.9788572,78.2 L23.8148572,78.2 L23.8148572,78.992 L18.9788572,78.992 L18.9788572,80.108 C18.9788572,80.828 18.6188572,81.2 17.9108572,81.2 L16.2188572,81.2 L15.9908572,80.408 C16.6628572,80.444 17.1908572,80.468 17.5748572,80.468 C17.9348572,80.468 18.1268572,80.264 18.1268572,79.856 L18.1268572,78.992 L12.8708572,78.992 L12.8708572,78.2 Z M26.2817143,70.844 L34.8977143,70.844 L34.8977143,71.684 L30.6017143,71.684 L30.6017143,72.488 C30.5777143,73.232 30.5297143,73.94 30.4457143,74.588 L35.8697143,74.588 L35.8697143,75.416 L32.1497143,75.416 L32.1497143,79.604 C32.1497143,79.988 32.3417143,80.192 32.7257143,80.192 L34.2497143,80.192 C34.5377143,80.192 34.7537143,80.108 34.8857143,79.952 C35.0537143,79.76 35.1617143,79.208 35.2217143,78.272 L36.0377143,78.536 C35.9417143,79.712 35.7617143,80.42 35.4977143,80.684 C35.2697143,80.9 34.9097143,81.008 34.4057143,81.008 L32.4617143,81.008 C31.6697143,81.008 31.2857143,80.6 31.2857143,79.784 L31.2857143,75.416 L30.3137143,75.416 C30.1217143,76.46 29.8217143,77.36 29.4137143,78.128 C28.6697143,79.424 27.4697143,80.444 25.8017143,81.164 L25.3217143,80.396 C26.9777143,79.652 28.1177143,78.68 28.7657143,77.456 C29.0537143,76.856 29.2697143,76.172 29.4257143,75.416 L25.4777143,75.416 L25.4777143,74.588 L29.5697143,74.588 C29.6657143,73.94 29.7137143,73.232 29.7257143,72.488 L29.7257143,71.684 L26.2817143,71.684 L26.2817143,70.844 Z M43.2205715,75.176 L45.1765715,75.176 L45.1765715,74.372 L45.9925715,74.372 L45.9925715,75.176 L47.9605715,75.176 L47.9605715,75.86 L45.9925715,75.86 L45.9925715,76.604 L47.7445715,76.604 L47.7445715,77.264 L45.9925715,77.264 L45.9925715,78.044 L48.1285715,78.044 L48.1285715,78.74 L45.9925715,78.74 L45.9925715,79.688 L45.1765715,79.688 L45.1765715,78.74 L43.0645715,78.74 L43.0645715,78.044 L45.1765715,78.044 L45.1765715,77.264 L43.4125715,77.264 L43.4125715,76.604 L45.1765715,76.604 L45.1765715,75.86 L43.2205715,75.86 L43.2205715,75.176 Z M40.8445715,78.596 L40.8445715,79.388 C39.9325715,79.904 38.9005715,80.324 37.7365715,80.636 L37.6285715,79.82 C38.8525715,79.508 39.9205715,79.1 40.8445715,78.596 Z M44.7925715,70.16 L45.5845715,70.34 C45.4405715,70.592 45.2965715,70.832 45.1405715,71.06 L47.6485715,71.06 L47.6485715,71.624 C47.2645715,72.224 46.7965715,72.74 46.2685715,73.172 C46.9285715,73.46 47.6605715,73.724 48.4525715,73.94 L48.0685715,74.612 C47.1685715,74.336 46.3525715,74.012 45.6205715,73.628 C44.8765715,74.084 44.0125715,74.408 43.0285715,74.624 L42.6925715,73.94 C43.5205715,73.784 44.2525715,73.544 44.8885715,73.208 C44.5165715,72.98 44.1685715,72.74 43.8565715,72.5 C43.6645715,72.668 43.4605715,72.824 43.2685715,72.968 L42.7885715,72.392 C43.5925715,71.816 44.2645715,71.072 44.7925715,70.16 Z M45.5365715,72.824 C45.9925715,72.512 46.4005715,72.14 46.7365715,71.708 L44.6365715,71.708 C44.5165715,71.828 44.4085715,71.948 44.3005715,72.068 C44.6845715,72.344 45.0925715,72.596 45.5365715,72.824 Z M39.3205715,70.268 L40.1125715,70.58 C39.5605715,72.08 39.0205715,73.268 38.4805715,74.156 C38.9605715,74.084 39.4405715,73.988 39.9205715,73.868 L40.3765715,72.884 L41.1205715,73.148 C40.1485715,75.128 39.3445715,76.52 38.7205715,77.336 C39.4285715,77.168 40.1365715,76.916 40.8565715,76.604 L40.8565715,77.336 C39.8245715,77.768 38.8285715,78.056 37.8685715,78.2 L37.6405715,77.432 C37.7845715,77.372 37.9165715,77.288 38.0245715,77.192 C38.4325715,76.688 38.9485715,75.836 39.5605715,74.624 C38.9845715,74.744 38.3965715,74.84 37.8205715,74.936 L37.6045715,74.144 C37.7365715,74.096 37.8565715,73.988 37.9645715,73.832 C38.4925715,72.788 38.9365715,71.6 39.3205715,70.268 Z M46.2925715,80.228 C47.0725715,80.228 47.8165715,80.216 48.5125715,80.204 L48.3085715,81.008 L46.2445715,81.008 C45.8605715,81.008 45.4765715,80.996 45.0925715,80.984 C44.5285715,80.972 44.0245715,80.9 43.5805715,80.756 C43.1485715,80.588 42.7765715,80.348 42.4885715,80.012 C42.3325715,79.82 42.1885715,79.736 42.0685715,79.736 C41.8525715,79.736 41.4685715,80.216 40.9165715,81.2 L40.4005715,80.552 C40.9165715,79.724 41.3605715,79.208 41.7325715,78.992 L41.7325715,74.96 L40.9285715,74.96 L40.9285715,74.168 L42.4885715,74.168 L42.4885715,79.04 C42.5365715,79.088 42.5965715,79.136 42.6445715,79.196 C42.8965715,79.52 43.2205715,79.772 43.6165715,79.964 C43.9645715,80.096 44.3845715,80.18 44.8765715,80.216 C45.3565715,80.216 45.8245715,80.228 46.2925715,80.228 Z M41.4205715,70.544 C41.9485715,71.276 42.3685715,71.924 42.6565715,72.476 L42.0205715,72.92 C41.7205715,72.32 41.3125715,71.66 40.7845715,70.94 L41.4205715,70.544 Z M54.5554286,70.148 L55.3474286,70.304 C55.2034286,70.772 55.0594286,71.216 54.8914286,71.624 L57.0754286,71.624 L57.0754286,72.44 L54.5314286,72.44 C54.2674286,72.968 53.9794286,73.448 53.6674286,73.904 L52.9714286,73.46 C53.7034286,72.464 54.2314286,71.36 54.5554286,70.148 Z M53.7514286,73.952 L56.7754286,73.952 L56.7754286,74.744 L55.6114286,74.744 L55.6114286,76.268 L57.1474286,76.268 L57.1474286,77.084 L55.6114286,77.084 L55.6114286,79.796 C56.1394286,79.58 56.6554286,79.292 57.1834286,78.944 L57.3394286,79.712 C56.6194286,80.168 55.7794286,80.54 54.8434286,80.828 L54.4834286,80.084 C54.6754286,79.988 54.7714286,79.832 54.7714286,79.64 L54.7714286,77.084 L53.1154286,77.084 L53.1154286,76.268 L54.7714286,76.268 L54.7714286,74.744 L53.7514286,74.744 L53.7514286,73.952 Z M58.8514286,81.092 L57.6634286,81.092 L57.4834286,80.288 C57.8554286,80.324 58.2154286,80.348 58.5634286,80.348 C58.8034286,80.348 58.9234286,80.204 58.9234286,79.916 L58.9234286,74.936 L57.4834286,74.936 L57.4834286,74.108 L60.8314286,74.108 L60.8314286,74.936 L59.7634286,74.936 L59.7634286,80.12 C59.7634286,80.768 59.4514286,81.092 58.8514286,81.092 Z M57.6874286,71 L60.6274286,71 L60.6274286,71.804 L57.6874286,71.804 L57.6874286,71 Z M52.1794286,70.172 L52.9234286,70.52 C52.3474286,71.852 51.3994286,73.04 50.1034286,74.072 L49.8514286,73.232 C50.9074286,72.344 51.6874286,71.324 52.1794286,70.172 Z M52.3234286,73.28 L53.0554286,73.616 C52.8154286,74.156 52.5394286,74.672 52.2274286,75.152 L52.2274286,81.212 L51.3874286,81.212 L51.3874286,76.22 C51.0154286,76.628 50.6194286,77 50.1874286,77.36 L49.9354286,76.544 C51.0274286,75.584 51.8194286,74.504 52.3234286,73.28 Z M68.0622858,72.224 C68.3742858,72.764 68.6502858,73.352 68.9142858,74 L70.0902858,74 C70.4262858,73.4 70.7022858,72.764 70.9422858,72.092 L71.7582858,72.38 C71.5302858,72.98 71.2782858,73.52 71.0022858,74 L72.9462858,74 L72.9462858,74.828 L66.2502858,74.828 L66.2502858,74 L68.0862858,74 C67.8462858,73.472 67.6062858,72.992 67.3542858,72.56 L68.0622858,72.224 Z M69.6462858,70.124 C69.7782858,70.46 69.9102858,70.844 70.0422858,71.264 L72.7302858,71.264 L72.7302858,72.056 L66.5262858,72.056 L66.5262858,71.264 L69.1662858,71.264 C69.0342858,70.904 68.8902858,70.568 68.7462858,70.268 L69.6462858,70.124 Z M63.6582858,81.092 L62.6142858,81.092 L62.4342858,80.252 C62.7582858,80.276 63.0702858,80.3 63.3582858,80.3 C63.6702858,80.3 63.8382858,80.144 63.8382858,79.832 L63.8382858,76.88 C63.3582858,77.072 62.8662858,77.252 62.3742858,77.408 L62.1582858,76.544 C62.7222858,76.4 63.2862858,76.22 63.8382858,76.004 L63.8382858,73.328 L62.3742858,73.328 L62.3742858,72.5 L63.8382858,72.5 L63.8382858,70.232 L64.7262858,70.232 L64.7262858,72.5 L65.7222858,72.5 L65.7222858,73.328 L64.7262858,73.328 L64.7262858,75.632 C65.0622858,75.464 65.3982858,75.296 65.7342858,75.116 L65.7342858,75.992 C65.3982858,76.172 65.0622858,76.34 64.7262858,76.496 L64.7262858,80.048 C64.7262858,80.744 64.3662858,81.092 63.6582858,81.092 Z M68.5902858,75.164 L69.4182858,75.26 C69.2982858,75.584 69.1662858,75.896 69.0222858,76.196 L73.1382858,76.196 L73.1382858,77.036 L71.8182858,77.036 C71.6382858,77.924 71.2662858,78.68 70.7022858,79.292 C71.5182858,79.676 72.3102858,80.084 73.0662858,80.516 L72.5982858,81.212 C71.8782858,80.768 71.0502858,80.324 70.0902858,79.868 C69.2982858,80.444 68.0382858,80.912 66.3102858,81.248 L65.9742858,80.468 C67.3662858,80.216 68.4462858,79.88 69.1902858,79.448 C68.4582858,79.112 67.6782858,78.788 66.8382858,78.452 C67.1622858,77.96 67.4502858,77.492 67.7022858,77.036 L66.0942858,77.036 L66.0942858,76.196 L68.1462858,76.196 C68.3142858,75.836 68.4582858,75.5 68.5902858,75.164 Z M71.0022858,77.036 L68.5782858,77.036 C68.3622858,77.408 68.1342858,77.768 67.8942858,78.104 C68.5902858,78.368 69.2622858,78.644 69.9102858,78.932 C70.4502858,78.428 70.8102858,77.804 71.0022858,77.036 Z" id="立享无缝衔接" fill="#989898"></path>
                </g>
                <path d="M66,49 C66,45.6865 68.7353455,43 72.1090909,43 L87.8909091,43 C91.2646545,43 94,45.6865 94,49 C94,52.3135 91.2646545,55 87.8909091,55 L72.1090909,55 C68.7353455,55 66,52.3135 66,49" id="Fill-1" fill="#DCAE4E"></path>
                <path d="M76.49,45 L77.138,45 L77.138,45.963 L78.803,45.963 L78.803,46.548 L77.138,46.548 L77.138,47.601 L79.199,47.601 L79.199,48.213 L74.411,48.213 L74.411,47.601 L76.49,47.601 L76.49,46.548 L74.906,46.548 L74.906,45.963 L76.49,45.963 L76.49,45 Z M74.627,49.275 L77.507,49.275 L77.507,48.69 L78.137,48.69 L78.137,49.275 L79.127,49.275 L79.127,49.887 L78.137,49.887 L78.137,52.425 C78.137,52.929 77.894,53.19 77.426,53.19 L76.283,53.19 L76.148,52.578 C76.508,52.605 76.859,52.623 77.201,52.623 C77.399,52.623 77.507,52.497 77.507,52.263 L77.507,49.887 L74.627,49.887 L74.627,49.275 Z M75.293,50.301 C75.761,50.823 76.121,51.273 76.373,51.669 L75.86,52.029 C75.599,51.597 75.239,51.129 74.789,50.616 L75.293,50.301 Z M71.891,47.511 C71.801,47.97 71.693,48.411 71.567,48.834 L71,48.672 C71.279,47.736 71.441,46.755 71.477,45.72 L72.071,45.765 C72.053,46.152 72.026,46.521 71.981,46.881 L72.737,46.881 L72.737,45.009 L73.358,45.009 L73.358,46.881 L74.177,46.881 L74.177,47.511 L73.358,47.511 L73.358,49.671 C73.646,49.554 73.925,49.437 74.204,49.311 L74.204,49.923 C73.916,50.049 73.637,50.166 73.358,50.274 L73.358,53.253 L72.737,53.253 L72.737,50.508 C72.233,50.679 71.711,50.832 71.189,50.976 L71.036,50.346 C71.612,50.229 72.179,50.076 72.737,49.896 L72.737,47.511 L71.891,47.511 Z M82.705,48.564 L82.705,53.217 L82.057,53.217 L82.057,48.546 C81.733,49.5 81.292,50.355 80.743,51.12 L80.455,50.391 C81.193,49.509 81.724,48.51 82.039,47.385 L80.644,47.385 L80.644,46.764 L82.057,46.764 L82.057,45.009 L82.705,45.009 L82.705,46.764 L83.893,46.764 L83.893,47.385 L82.705,47.385 L82.705,47.898 C83.155,48.33 83.614,48.825 84.073,49.365 L83.704,49.914 C83.317,49.356 82.984,48.906 82.705,48.564 Z M87.529,46.17 L85.099,46.17 C85.207,47.556 85.585,48.798 86.242,49.896 C86.89,48.816 87.313,47.574 87.529,46.17 Z M85.864,50.472 C85.063,49.176 84.595,47.745 84.469,46.17 L84.109,46.17 L84.109,45.549 L88.159,45.549 L88.159,46.161 C87.898,47.844 87.385,49.293 86.629,50.499 C87.205,51.309 87.925,52.047 88.807,52.704 L88.366,53.226 C87.52,52.56 86.809,51.831 86.251,51.048 C85.621,51.903 84.847,52.623 83.938,53.217 L83.524,52.695 C84.469,52.065 85.252,51.327 85.864,50.472 Z" id="特权" fill="#FFFFFF"></path>
            </g>
        </g>
    </g>
</svg>