<?xml version="1.0" encoding="UTF-8"?>
<svg width="96px" height="82px" viewBox="0 0 96 82" version="1.1" xmlns="http://www.w3.org/2000/svg" xmlns:xlink="http://www.w3.org/1999/xlink">
    <!-- Generator: Sketch 49.2 (51160) - http://www.bohemiancoding.com/sketch -->
    <title>每次选6件-特权</title>
    <desc>Created with Sketch.</desc>
    <defs></defs>
    <g id="Page-1" stroke="none" stroke-width="1" fill="none" fill-rule="evenodd">
        <g id="会员中心-copy-2" transform="translate(-254.000000, -326.000000)">
            <g id="每次选6件-特权" transform="translate(245.000000, 311.000000)">
                <rect id="Rectangle-100" x="0" y="0" width="115" height="113"></rect>
                <g id="3+2" transform="translate(9.000000, 15.000000)">
                    <path d="M49,0 C37.954505,0 29,8.954505 29,20 C29,31.0458287 37.9543259,40 49,40 C60.0460078,40 69,31.0460078 69,20 C69,8.9543259 60.0458287,0 49,0 Z" id="Path" fill="#FEFAF4"></path>
                    <path d="M49,0.5 C38.2306424,0.5 29.5,9.23064237 29.5,20 C29.5,30.769683 38.2304678,39.5 49,39.5 C59.7698576,39.5 68.5,30.7698576 68.5,20 C68.5,9.23046775 59.769683,0.5 49,0.5 Z M49,0 C60.046,0 69,8.9545 69,20 C69,31.046 60.046,40 49,40 C37.9545,40 29,31.046 29,20 C29,8.9545 37.9545,0 49,0 Z" id="Stroke-3" fill="#DCAE4E" fill-rule="nonzero"></path>
                    <g id="Group-18" transform="translate(35.790123, 9.185185)">
                        <g id="Group-2" transform="translate(0.000000, 0.000000)">
                            <path d="M10.7012136,13.7028593 C10.5898556,12.2521679 9.76327531,8.10711852 9.76327531,8.10711852 C9.76327531,8.10711852 10.4891272,5.17688395 10.4891272,4.10177284 C10.4891272,3.02615556 10.0598926,1.25556296 10.0598926,1.25556296 C10.0598926,1.25556296 9.55625062,0.375834568 8.20021358,0.375834568 C8.18148519,1.54155062 7.25265802,2.48100741 6.1051642,2.48100741 C4.95918889,2.48100741 4.0308679,1.54357531 4.01011481,0.379377778 L4.00404074,0.379377778 C2.98207778,0.379377778 2.18232469,1.25556296 2.18232469,1.25556296 C2.18232469,1.25556296 1.84622593,2.82874815 1.84622593,4.03647654 C1.84622593,5.24471111 2.47894198,8.10711852 2.47894198,8.10711852 C2.47894198,8.10711852 1.88570741,11.669563 1.72170741,13.3581556 C1.56175679,15.0001802 0.280633333,19.6539333 0.280633333,19.6539333 C0.280633333,19.6539333 2.43591728,19.9465012 3.20884321,20.1930074 C4.0663,20.4668469 5.04220123,20.6207235 6.05049753,20.6207235 C7.01020123,20.6207235 7.99926296,20.4815259 8.94428765,20.1722543 C9.59471975,19.9591556 11.9190654,19.7288469 11.9190654,19.7288469 C11.9190654,19.7288469 10.8307938,15.3863901 10.7012136,13.7028593 Z" id="Stroke-7" fill="#FFFFFF"></path>
                            <path d="M10.3270685,17.312938 C10.2729951,17.066358 10.2214078,16.8257725 10.172656,16.5923522 C9.91789439,15.3725708 9.75297774,14.4138168 9.70416262,13.7796016 C9.66780817,13.3060025 9.53972265,12.4425757 9.34557811,11.3229316 C9.3162969,11.154065 9.28573628,10.9806585 9.25403014,10.803313 C9.15091454,10.226545 9.04031227,9.63350381 8.92970107,9.0574847 C8.86336186,8.71201647 8.81184198,8.44940059 8.78258424,8.3026819 L8.73888787,8.08355784 L8.79261231,7.86667445 C8.81426791,7.77925169 8.85292172,7.61911832 8.90287067,7.40514593 C8.98629632,7.04776535 9.06972577,6.67389201 9.14741261,6.30273964 C9.18938249,6.10222665 9.22855321,5.90774455 9.26439778,5.72111116 C9.40751616,4.97593074 9.48912716,4.39509629 9.48912716,4.10177284 C9.48912716,3.87201467 9.46341894,3.56962854 9.41525212,3.217185 C9.38255824,2.97795925 9.3405225,2.7225061 9.2913618,2.45812242 C9.24654942,2.21712374 9.19841455,1.98238113 9.15034388,1.76401291 C9.14500828,1.73977518 9.13990582,1.71677852 9.13505845,1.6950869 C9.11126538,1.6732241 9.08003767,1.64658088 9.04140194,1.61781716 C9.01478337,1.59800004 8.98697663,1.57917774 8.95789249,1.56143567 C8.4890231,2.68866607 7.390564,3.48100741 6.1051642,3.48100741 C4.84867789,3.48100741 3.77050391,2.72363577 3.28474952,1.63621969 C3.20398286,1.69007355 3.1483413,1.73108061 3.10009121,1.76920599 C3.07019641,1.93050929 3.03641322,2.12646211 3.00256718,2.34569677 C2.94552657,2.71517217 2.90115008,3.07475841 2.87432602,3.40777743 C2.85584575,3.63720887 2.84622593,3.84832389 2.84622593,4.03647654 C2.84622593,4.37063078 2.91072311,4.93712261 3.02581273,5.64793926 C3.06190357,5.87084357 3.10233335,6.10427128 3.14633182,6.34533014 C3.21404082,6.71629418 3.28673422,7.08680373 3.35941461,7.43874157 C3.40290872,7.64935163 3.43655085,7.80613744 3.45537218,7.89128514 L3.4971673,8.08036622 L3.46535862,8.27138114 C3.44070537,8.41942682 3.39733749,8.68412037 3.3415087,9.03218765 C3.24842825,9.61250229 3.15535403,10.2098612 3.0685643,10.7907802 C3.04208377,10.9680252 3.01655014,11.1413647 2.9920731,11.3102101 C2.8621572,12.2063843 2.76681794,12.9421313 2.71699649,13.4551073 C2.65451198,14.0965623 2.44887012,15.1210325 2.13266599,16.4541864 C2.08408611,16.6590049 2.03328819,16.8693027 1.98050926,17.0843354 C1.83854525,17.6627273 1.6878154,18.2531653 1.53606196,18.8310669 C1.712167,18.8595452 1.88554127,18.888676 2.05373101,18.9182383 C2.43977649,18.9860924 2.77640328,19.0523823 3.05278986,19.1168588 C3.22972986,19.158136 3.38246294,19.1987537 3.51306797,19.2404071 C4.2866336,19.4874549 5.16140394,19.6207235 6.05049753,19.6207235 C6.94176698,19.6207235 7.82113577,19.4876317 8.63294498,19.2219566 C8.7028586,19.1990511 8.77875532,19.1777362 8.86212824,19.1570545 C9.17982621,19.0782456 9.63687836,19.0013811 10.2129981,18.9228766 C10.3651213,18.9021477 10.5215795,18.8818683 10.6804818,18.8621462 C10.5597489,18.3510691 10.440122,17.8284718 10.3270685,17.312938 Z M8.94428385,20.1722543 C7.99925735,20.4815259 7.01019372,20.6207235 6.05048818,20.6207235 C5.04218995,20.6207235 4.06628685,20.4668469 3.20882842,20.1930074 C2.43727451,19.9469393 0.288268465,19.654973 0.280633333,19.6539361 C0.282834833,19.6458614 1.5618776,14.9987558 1.72168977,13.3581556 C1.88569008,11.669563 2.47892579,8.10711852 2.47892579,8.10711852 C2.47892579,8.10711852 1.84620853,5.24471111 1.84620853,4.03647654 C1.84620853,2.82874815 2.18230794,1.25556296 2.18230794,1.25556296 C2.18230794,1.25556296 2.98206255,0.379377778 4.00402747,0.379377778 C4.03085468,1.54357531 4.95917745,2.48100741 6.10515495,2.48100741 C7.25265098,2.48100741 8.18147992,1.54155062 8.20020835,0.375834568 C9.55624798,0.375834568 10.0598909,1.25556296 10.0598909,1.25556296 C10.0598909,1.25556296 10.4891263,3.02615556 10.4891263,4.10177284 C10.4891263,5.17688395 9.76327307,8.10711852 9.76327307,8.10711852 C9.76327307,8.10711852 10.5898549,12.2521679 10.7012131,13.7028593 C10.830695,15.3851093 11.9174119,19.7222409 11.9190654,19.7288394 C11.9153473,19.7292156 9.59419654,19.9593261 8.94428385,20.1722543 Z" id="Stroke-7-Copy" fill="#DCAE4E" fill-rule="nonzero"></path>
                            <path d="M2.54596229,10.7359155 L2.71329697,9.75001536 C2.7826023,9.7617784 2.91034304,9.78264141 3.08348355,9.80956462 C3.37265769,9.85453098 3.68131256,9.89951004 3.99630696,9.94145825 C4.29389297,9.98108816 4.58207274,10.0159604 4.8550208,10.0447584 C5.38431409,10.1006026 5.83353296,10.1312 6.17283951,10.1312 C6.51214605,10.1312 6.96136493,10.1006026 7.49065821,10.0447584 C7.76360627,10.0159604 8.05178604,9.98108816 8.34937205,9.94145825 C8.66436645,9.89951004 8.97302132,9.85453098 9.26219546,9.80956462 C9.43533597,9.78264141 9.56307671,9.7617784 9.63238204,9.75001536 L9.79971672,10.7359155 C9.72605986,10.7484171 9.59380572,10.7700173 9.41584813,10.7976895 C9.11985879,10.8437157 8.80410597,10.8897291 8.48137795,10.9327072 C8.17525434,10.9734741 7.87818553,11.0094219 7.59558301,11.0392385 C7.03443211,11.098444 6.55352101,11.1312 6.17283951,11.1312 C5.792158,11.1312 5.3112469,11.098444 4.750096,11.0392385 C4.46749348,11.0094219 4.17042467,10.9734741 3.86430107,10.9327072 C3.54157305,10.8897291 3.22582022,10.8437157 2.92983088,10.7976895 C2.7518733,10.7700173 2.61961915,10.7484171 2.54596229,10.7359155 Z" id="Stroke-9" fill="#DCAE4E" fill-rule="nonzero"></path>
                            <path d="M2.54596229,8.71122415 L2.71329697,7.725324 C2.7826023,7.73708704 2.91034304,7.75795005 3.08348355,7.78487327 C3.37265769,7.82983962 3.68131256,7.87481868 3.99630696,7.91676689 C4.29389297,7.9563968 4.58207274,7.99126904 4.8550208,8.02006701 C5.38431409,8.07591126 5.83353296,8.10650864 6.17283951,8.10650864 C6.51214605,8.10650864 6.96136493,8.07591126 7.49065821,8.02006701 C7.76360627,7.99126904 8.05178604,7.9563968 8.34937205,7.91676689 C8.66436645,7.87481868 8.97302132,7.82983962 9.26219546,7.78487327 C9.43533597,7.75795005 9.56307671,7.73708704 9.63238204,7.725324 L9.79971672,8.71122415 C9.72605986,8.72372577 9.59380572,8.74532592 9.41584813,8.77299818 C9.11985879,8.8190243 8.80410597,8.86503772 8.48137795,8.90801582 C8.17525434,8.9487827 7.87818553,8.98473058 7.59558301,9.01454717 C7.03443211,9.07375262 6.55352101,9.10650864 6.17283951,9.10650864 C5.792158,9.10650864 5.3112469,9.07375262 4.750096,9.01454717 C4.46749348,8.98473058 4.17042467,8.9487827 3.86430107,8.90801582 C3.54157305,8.86503772 3.22582022,8.8190243 2.92983088,8.77299818 C2.7518733,8.74532592 2.61961915,8.72372577 2.54596229,8.71122415 Z" id="Stroke-11" fill="#DCAE4E" fill-rule="nonzero"></path>
                            <path d="M20.117284,16.5740741 C20.6760988,16.5740741 21.1296296,17.0276049 21.1296296,17.5864198 C21.1296296,18.1452346 20.6760988,18.5987654 20.117284,18.5987654 C19.5584691,18.5987654 19.1049383,18.1452346 19.1049383,17.5864198 C19.1049383,17.0276049 19.5584691,16.5740741 20.117284,16.5740741" id="Fill-13" fill="#DCAE4E"></path>
                            <path d="M21.5018691,5.64094321 C23.9097333,6.35464691 25.6671654,8.58990617 25.6671654,11.2361778 C25.6671654,14.4579679 23.0629062,17.0698198 19.8507333,17.0698198 C16.6390667,17.0698198 14.0353136,14.4579679 14.0353136,11.2361778 C14.0353136,8.63191852 15.7360543,6.42601728 18.0852025,5.67637531" id="Stroke-17" fill="#FFFFFF"></path>
                            <path d="M21.3597769,6.12032803 C21.09502,6.04185268 20.944009,5.76360794 21.0224843,5.49885101 C21.1009597,5.23409408 21.3792044,5.08308303 21.6439613,5.16155839 C24.3059274,5.95057924 26.1671654,8.41133918 26.1671654,11.2361778 C26.1671654,14.7337426 23.3394172,17.5698198 19.8507333,17.5698198 C16.3625537,17.5698198 13.5353136,14.7337408 13.5353136,11.2361778 C13.5353136,8.45841603 15.3339772,6.02948394 17.9331982,5.20004064 C18.1962706,5.11609102 18.4775875,5.26129871 18.5615371,5.52437108 C18.6454868,5.78744345 18.5002791,6.06876036 18.2372067,6.15270997 C16.0500919,6.85064511 14.5353136,8.89621588 14.5353136,11.2361778 C14.5353136,14.1821536 16.9155384,16.5698198 19.8507333,16.5698198 C22.786473,16.5698198 25.1671654,14.1821152 25.1671654,11.2361778 C25.1671654,8.85673109 23.5995855,6.78421914 21.3597769,6.12032803 Z" id="Stroke-17-Copy" fill="#DCAE4E" fill-rule="nonzero"></path>
                        </g>
                    </g>
                    <path d="M57,34 C57,30.6865 59.7353455,28 63.1090909,28 L78.8909091,28 C82.2646545,28 85,30.6865 85,34 C85,37.3135 82.2646545,40 78.8909091,40 L63.1090909,40 C59.7353455,40 57,37.3135 57,34" id="Fill-1" fill="#DCAE4E"></path>
                    <path d="M67.49,30 L68.138,30 L68.138,30.963 L69.803,30.963 L69.803,31.548 L68.138,31.548 L68.138,32.601 L70.199,32.601 L70.199,33.213 L65.411,33.213 L65.411,32.601 L67.49,32.601 L67.49,31.548 L65.906,31.548 L65.906,30.963 L67.49,30.963 L67.49,30 Z M65.627,34.275 L68.507,34.275 L68.507,33.69 L69.137,33.69 L69.137,34.275 L70.127,34.275 L70.127,34.887 L69.137,34.887 L69.137,37.425 C69.137,37.929 68.894,38.19 68.426,38.19 L67.283,38.19 L67.148,37.578 C67.508,37.605 67.859,37.623 68.201,37.623 C68.399,37.623 68.507,37.497 68.507,37.263 L68.507,34.887 L65.627,34.887 L65.627,34.275 Z M66.293,35.301 C66.761,35.823 67.121,36.273 67.373,36.669 L66.86,37.029 C66.599,36.597 66.239,36.129 65.789,35.616 L66.293,35.301 Z M62.891,32.511 C62.801,32.97 62.693,33.411 62.567,33.834 L62,33.672 C62.279,32.736 62.441,31.755 62.477,30.72 L63.071,30.765 C63.053,31.152 63.026,31.521 62.981,31.881 L63.737,31.881 L63.737,30.009 L64.358,30.009 L64.358,31.881 L65.177,31.881 L65.177,32.511 L64.358,32.511 L64.358,34.671 C64.646,34.554 64.925,34.437 65.204,34.311 L65.204,34.923 C64.916,35.049 64.637,35.166 64.358,35.274 L64.358,38.253 L63.737,38.253 L63.737,35.508 C63.233,35.679 62.711,35.832 62.189,35.976 L62.036,35.346 C62.612,35.229 63.179,35.076 63.737,34.896 L63.737,32.511 L62.891,32.511 Z M73.705,33.564 L73.705,38.217 L73.057,38.217 L73.057,33.546 C72.733,34.5 72.292,35.355 71.743,36.12 L71.455,35.391 C72.193,34.509 72.724,33.51 73.039,32.385 L71.644,32.385 L71.644,31.764 L73.057,31.764 L73.057,30.009 L73.705,30.009 L73.705,31.764 L74.893,31.764 L74.893,32.385 L73.705,32.385 L73.705,32.898 C74.155,33.33 74.614,33.825 75.073,34.365 L74.704,34.914 C74.317,34.356 73.984,33.906 73.705,33.564 Z M78.529,31.17 L76.099,31.17 C76.207,32.556 76.585,33.798 77.242,34.896 C77.89,33.816 78.313,32.574 78.529,31.17 Z M76.864,35.472 C76.063,34.176 75.595,32.745 75.469,31.17 L75.109,31.17 L75.109,30.549 L79.159,30.549 L79.159,31.161 C78.898,32.844 78.385,34.293 77.629,35.499 C78.205,36.309 78.925,37.047 79.807,37.704 L79.366,38.226 C78.52,37.56 77.809,36.831 77.251,36.048 C76.621,36.903 75.847,37.623 74.938,38.217 L74.524,37.695 C75.469,37.065 76.252,36.327 76.864,35.472 Z" id="特权" fill="#FFFFFF"></path>
                    <text id="每次选6件" font-family="PingFangSC-Regular, PingFang SC" font-size="14" font-weight="normal" letter-spacing="0.400000006" fill="#242424">
                        <tspan x="15.8" y="62">每次选6件</tspan>
                    </text>
                    <text id="4件衣服+2件配饰" font-family="PingFangSC-Regular, PingFang SC" font-size="12" font-weight="normal" letter-spacing="0.342857152" fill="#989898">
                        <tspan x="0" y="80">4件衣服+2件配饰</tspan>
                    </text>
                </g>
            </g>
        </g>
    </g>
</svg>