<?xml version="1.0" encoding="UTF-8"?>
<svg width="97px" height="82px" viewBox="0 0 97 82" version="1.1" xmlns="http://www.w3.org/2000/svg" xmlns:xlink="http://www.w3.org/1999/xlink">
    <!-- Generator: Sketch 49.2 (51160) - http://www.bohemiancoding.com/sketch -->
    <title>100%正品</title>
    <desc>Created with Sketch.</desc>
    <defs>
        <path d="M20,0 C31.0455,0 40,8.9545 40,20 C40,31.0455 31.0455,40 20,40 C8.9545,40 0,31.0455 0,20 C0,8.9545 8.9545,0 20,0 Z" id="path-1"></path>
        <polygon id="path-2" points="0 23.99995 19.999 23.99995 19.999 -5e-05 0 -5e-05"></polygon>
    </defs>
    <g id="Page-1" stroke="none" stroke-width="1" fill="none" fill-rule="evenodd">
        <g id="微信内-购买会员" transform="translate(-139.000000, -446.000000)">
            <g id="100%正品" transform="translate(130.000000, 438.000000)">
                <rect id="Path" x="0" y="0" width="115" height="113"></rect>
                <g id="Group-7" transform="translate(38.000000, 8.000000)">
                    <g id="Stroke-3">
                        <use fill="#FEFAF4" fill-rule="evenodd" xlink:href="#path-1"></use>
                        <path stroke="#DCAE4E" stroke-width="0.5" d="M20,0.25 C9.09257119,0.25 0.25,9.09257119 0.25,20 C0.25,30.9074288 9.09257119,39.75 20,39.75 C30.9074288,39.75 39.75,30.9074288 39.75,20 C39.75,9.09257119 30.9074288,0.25 20,0.25 Z"></path>
                    </g>
                    <g id="Page-1" transform="translate(10.000000, 8.000000)">
                        <path d="M19.4851,12 L19.4851,4.3335 C19.4851,4.3335 11.4111,0.5 9.9926,0.5 C8.5576,0.5 0.5001,4.3335 0.5001,4.3335 L0.5001,12 L0.5476,12 C0.5171,12.3155 0.5001,12.3375 0.5001,13.9165 C0.5001,19.2095 9.1421,23.5 9.9926,23.5 C10.6436,23.5 19.4851,19.2095 19.4851,13.9165 C19.4851,13.5935 19.5161,12.3155 19.4851,12" id="Fill-1" fill="#FEFEFE"></path>
                        <path d="M19.4851,12 L19.4851,4.3335 C19.4851,4.3335 11.4111,0.5 9.9926,0.5 C8.5576,0.5 0.5001,4.3335 0.5001,4.3335 L0.5001,12 L0.5476,12 C0.5171,12.3155 0.5001,12.3375 0.5001,13.9165 C0.5001,19.2095 9.1421,23.5 9.9926,23.5 C10.6436,23.5 19.4851,19.2095 19.4851,13.9165 C19.4851,13.5935 19.5161,12.3155 19.4851,12 Z" id="Stroke-3" stroke="#DCAE4E"></path>
                        <polygon id="Fill-5" fill="#DCAE4E" points="5.9038 13.06055 6.6108 12.35355 10.1463 15.88905 9.4393 16.59605"></polygon>
                        <polygon id="Fill-7" fill="#DCAE4E" points="8.7322 15.88915 14.3892 10.23265 15.0962 10.93965 9.4397 16.59615"></polygon>
                        <mask id="mask-3" fill="white">
                            <use xlink:href="#path-2"></use>
                        </mask>
                        <g id="Clip-10"></g>
                        <polygon id="Fill-9" fill="#DCAE4E" mask="url(#mask-3)" points="0.5 6.99995 19.5 6.99995 19.5 5.99995 0.5 5.99995"></polygon>
                    </g>
                </g>
                <path d="M27.604,59.854 L28.5,59.854 L28.5,69.85 L27.352,69.85 L27.352,61.254 C26.722,61.898 25.938,62.346 25,62.626 L25,61.478 C25.448,61.352 25.924,61.156 26.4,60.876 C26.876,60.568 27.268,60.232 27.604,59.854 Z M34.598,59.658 C35.788,59.658 36.684,60.176 37.3,61.24 C37.832,62.136 38.098,63.34 38.098,64.852 C38.098,66.364 37.832,67.568 37.3,68.464 C36.684,69.514 35.788,70.046 34.598,70.046 C33.394,70.046 32.498,69.514 31.896,68.464 C31.364,67.568 31.098,66.364 31.098,64.852 C31.098,63.34 31.364,62.136 31.896,61.24 C32.498,60.176 33.394,59.658 34.598,59.658 Z M34.598,60.638 C33.702,60.638 33.058,61.114 32.666,62.08 C32.386,62.752 32.246,63.676 32.246,64.852 C32.246,66.014 32.386,66.938 32.666,67.624 C33.058,68.576 33.702,69.066 34.598,69.066 C35.494,69.066 36.138,68.576 36.53,67.624 C36.81,66.938 36.964,66.014 36.964,64.852 C36.964,63.676 36.81,62.752 36.53,62.08 C36.138,61.114 35.494,60.638 34.598,60.638 Z M43.398,59.658 C44.588,59.658 45.484,60.176 46.1,61.24 C46.632,62.136 46.898,63.34 46.898,64.852 C46.898,66.364 46.632,67.568 46.1,68.464 C45.484,69.514 44.588,70.046 43.398,70.046 C42.194,70.046 41.298,69.514 40.696,68.464 C40.164,67.568 39.898,66.364 39.898,64.852 C39.898,63.34 40.164,62.136 40.696,61.24 C41.298,60.176 42.194,59.658 43.398,59.658 Z M43.398,60.638 C42.502,60.638 41.858,61.114 41.466,62.08 C41.186,62.752 41.046,63.676 41.046,64.852 C41.046,66.014 41.186,66.938 41.466,67.624 C41.858,68.576 42.502,69.066 43.398,69.066 C44.294,69.066 44.938,68.576 45.33,67.624 C45.61,66.938 45.764,66.014 45.764,64.852 C45.764,63.676 45.61,62.752 45.33,62.08 C44.938,61.114 44.294,60.638 43.398,60.638 Z M58.344,64.376 C59.086,64.376 59.66,64.642 60.066,65.202 C60.416,65.678 60.598,66.322 60.598,67.12 C60.598,67.904 60.416,68.548 60.066,69.038 C59.66,69.57 59.086,69.85 58.344,69.85 C57.588,69.85 57.014,69.57 56.622,69.038 C56.258,68.534 56.09,67.904 56.09,67.12 C56.09,66.322 56.258,65.678 56.622,65.202 C57.014,64.642 57.588,64.376 58.344,64.376 Z M57.14,59.658 L58.036,59.658 L52.436,70.046 L51.526,70.046 L57.14,59.658 Z M51.232,59.854 C51.974,59.854 52.548,60.12 52.954,60.68 C53.304,61.156 53.486,61.8 53.486,62.598 C53.486,63.382 53.304,64.026 52.954,64.516 C52.548,65.048 51.974,65.328 51.232,65.328 C50.476,65.328 49.902,65.048 49.51,64.516 C49.146,64.012 48.978,63.382 48.978,62.598 C48.978,61.8 49.146,61.156 49.51,60.68 C49.902,60.12 50.476,59.854 51.232,59.854 Z M58.344,65.132 C57.91,65.132 57.602,65.328 57.406,65.72 C57.224,66.056 57.14,66.518 57.14,67.12 C57.14,67.694 57.224,68.156 57.406,68.492 C57.602,68.884 57.91,69.094 58.344,69.094 C58.764,69.094 59.072,68.884 59.282,68.478 C59.45,68.142 59.548,67.694 59.548,67.12 C59.548,66.532 59.45,66.07 59.282,65.734 C59.072,65.328 58.764,65.132 58.344,65.132 Z M51.232,60.61 C50.798,60.61 50.49,60.806 50.294,61.198 C50.112,61.534 50.028,61.996 50.028,62.598 C50.028,63.172 50.112,63.634 50.294,63.97 C50.49,64.362 50.798,64.572 51.232,64.572 C51.652,64.572 51.96,64.362 52.17,63.956 C52.338,63.62 52.436,63.172 52.436,62.598 C52.436,62.01 52.338,61.548 52.156,61.212 C51.96,60.806 51.652,60.61 51.232,60.61 Z M68.866,60.134 L63.574,60.134 L63.574,59.14 L74.634,59.14 L74.634,60.134 L69.888,60.134 L69.888,64.208 L73.92,64.208 L73.92,65.174 L69.888,65.174 L69.888,69.654 L75.222,69.654 L75.222,70.634 L62.748,70.634 L62.748,69.654 L64.946,69.654 L64.946,62.934 L65.926,62.934 L65.926,69.654 L68.866,69.654 L68.866,60.134 Z M79.514,59 L87.228,59 L87.228,63.578 L79.514,63.578 L79.514,59 Z M86.22,62.626 L86.22,59.952 L80.522,59.952 L80.522,62.626 L86.22,62.626 Z M82.58,64.964 L82.58,71.04 L81.6,71.04 L81.6,70.326 L78.646,70.326 L78.646,71.04 L77.652,71.04 L77.652,64.964 L82.58,64.964 Z M78.646,69.374 L81.6,69.374 L81.6,65.93 L78.646,65.93 L78.646,69.374 Z M89.09,64.964 L89.09,71.04 L88.082,71.04 L88.082,70.326 L85.016,70.326 L85.016,71.04 L84.022,71.04 L84.022,64.964 L89.09,64.964 Z M85.016,69.374 L88.082,69.374 L88.082,65.93 L85.016,65.93 L85.016,69.374 Z" fill="#242424"></path>
                <path d="M13.848,85.14 L10.716,85.14 C10.572,86.628 10.2,87.936 9.6,89.052 L9,88.428 C9.648,87.204 9.984,85.764 10.008,84.084 L10.008,79.104 C11.436,78.936 12.552,78.6 13.368,78.108 L13.944,78.768 C13.08,79.236 12.024,79.56 10.776,79.74 L10.776,81.132 L13.848,81.132 L13.848,85.14 Z M10.776,81.972 L10.776,84.084 C10.776,84.168 10.764,84.252 10.764,84.348 L13.056,84.348 L13.056,81.972 L10.776,81.972 Z M15.66,82.608 L15.66,84.396 C15.636,86.472 15.372,88.032 14.844,89.076 L14.064,88.692 C14.58,87.672 14.856,86.244 14.88,84.396 L14.88,78.972 C16.572,78.9 18.012,78.624 19.188,78.132 L19.62,78.888 C18.432,79.344 17.112,79.608 15.648,79.68 L15.66,81.78 L20.04,81.78 L20.04,82.608 L18.684,82.608 L18.684,89.076 L17.832,89.076 L17.832,82.608 L15.66,82.608 Z M25.1228572,82.392 L25.1228572,83.7 L29.8868572,83.7 L29.8868572,82.392 L25.1228572,82.392 Z M29.8868572,84.456 L25.1228572,84.456 L25.1228572,85.728 L29.8868572,85.728 L29.8868572,84.456 Z M29.8868572,86.484 L25.1228572,86.484 L25.1228572,89.052 L24.3068572,89.052 L24.3068572,82.776 C23.6348572,83.616 22.8548572,84.396 21.9908572,85.092 L21.4268572,84.36 C22.9388572,83.16 24.1028572,81.792 24.9308572,80.244 L21.7508572,80.244 L21.7508572,79.404 L25.3268572,79.404 C25.5308572,78.936 25.7108572,78.468 25.8548572,78 L26.7308572,78.108 C26.5868572,78.552 26.4428572,78.984 26.2748572,79.404 L32.2388572,79.404 L32.2388572,80.244 L25.9148572,80.244 C25.6748572,80.724 25.4228572,81.192 25.1348572,81.636 L30.7028572,81.636 L30.7028572,88.116 C30.7028572,88.704 30.3668572,89.004 29.6948572,89.028 L28.3508572,89.028 L28.1348572,88.236 C28.5908572,88.26 29.0228572,88.284 29.4188572,88.284 C29.7308572,88.284 29.8868572,88.14 29.8868572,87.852 L29.8868572,86.484 Z M35.4497143,82.176 L35.4497143,84.18 L37.3817143,84.18 L37.3817143,82.176 L35.4497143,82.176 Z M37.3817143,81.396 L37.3817143,79.368 L35.4497143,79.368 L35.4497143,81.396 L37.3817143,81.396 Z M35.4377143,84.96 C35.3657143,86.64 35.0777143,88.02 34.5857143,89.1 L33.9377143,88.5 C34.4177143,87.42 34.6577143,86.028 34.6697143,84.348 L34.6697143,78.588 L38.1737143,78.588 L38.1737143,87.948 C38.1737143,88.668 37.8377143,89.04 37.1657143,89.04 L36.2057143,89.04 L36.0017143,88.272 C36.3377143,88.296 36.6377143,88.32 36.9257143,88.32 C37.2257143,88.32 37.3817143,88.104 37.3817143,87.672 L37.3817143,84.96 L35.4377143,84.96 Z M39.9977143,83.772 L39.9977143,89.088 L39.1817143,89.088 L39.1817143,78.576 L44.0417143,78.576 C44.0417143,80.064 43.9697143,81.048 43.8257143,81.528 C43.6817143,82.02 43.2377143,82.272 42.4817143,82.272 L41.5097143,82.272 L41.2817143,81.528 C41.4857143,81.528 41.7497143,81.54 42.0857143,81.54 C42.3737143,81.54 42.5777143,81.516 42.7217143,81.48 C42.8657143,81.432 42.9737143,81.312 43.0457143,81.132 C43.1297143,80.868 43.1777143,80.28 43.2017143,79.368 L39.9977143,79.368 L39.9977143,83.004 L44.0777143,83.004 L44.0777143,83.736 C43.8497143,84.972 43.4537143,86.028 42.9017143,86.892 C43.4417143,87.42 44.0777143,87.888 44.8097143,88.308 L44.3777143,89.04 C43.6097143,88.596 42.9617143,88.104 42.4097143,87.564 C41.8817143,88.176 41.2697143,88.668 40.5497143,89.052 L40.0937143,88.356 C40.7777143,87.984 41.3537143,87.516 41.8337143,86.94 C41.0657143,86.004 40.5497143,84.948 40.2857143,83.772 L39.9977143,83.772 Z M41.0297143,83.772 C41.2817143,84.696 41.7137143,85.524 42.3257143,86.268 C42.7697143,85.548 43.0937143,84.72 43.3097143,83.772 L41.0297143,83.772 Z M53.5525715,80.364 L52.2325715,80.364 C51.8125715,81.396 51.2725715,82.32 50.6005715,83.136 L50.0845715,82.452 C51.0565715,81.252 51.7165715,79.764 52.0525715,78.012 L52.8925715,78.12 C52.7965715,78.624 52.6765715,79.092 52.5325715,79.524 L56.9605715,79.524 L56.9605715,80.364 L54.3925715,80.364 L54.3925715,82.296 L56.6245715,82.296 L56.6245715,86.88 C56.6245715,87.528 56.3005715,87.852 55.6525715,87.852 L55.0045715,87.852 L54.7885715,87.072 L55.3885715,87.108 C55.6525715,87.108 55.7965715,86.964 55.7965715,86.688 L55.7965715,83.088 L54.3925715,83.088 L54.3925715,89.04 L53.5525715,89.04 L53.5525715,83.088 L52.1245715,83.088 L52.1245715,87.936 L51.2965715,87.936 L51.2965715,82.296 L53.5525715,82.296 L53.5525715,80.364 Z M47.7925715,80.904 C47.4685715,81.888 47.0605715,82.728 46.5565715,83.4 L46.0045715,82.716 C46.7605715,81.576 47.2765715,80.052 47.5525715,78.132 L48.3925715,78.276 C48.2965715,78.936 48.1645715,79.548 48.0205715,80.112 L50.3605715,80.112 L50.3605715,80.784 C50.0365715,81.516 49.6765715,82.14 49.2685715,82.644 L48.6565715,82.152 C48.9445715,81.792 49.1965715,81.384 49.4365715,80.904 L47.7925715,80.904 Z M47.7205715,82.476 L48.5725715,82.476 L48.5725715,87.696 C49.1005715,87.42 49.6405715,87.048 50.1925715,86.58 L50.3485715,87.384 C49.6165715,87.96 48.7645715,88.428 47.8045715,88.812 L47.4565715,88.08 C47.6245715,87.972 47.7205715,87.816 47.7205715,87.6 L47.7205715,82.476 Z M66.9634286,84.516 L67.1914286,85.32 C66.1594286,86.028 64.8874286,86.652 63.3634286,87.192 L63.0034286,86.376 C64.5394286,85.872 65.8594286,85.248 66.9634286,84.516 Z M64.5634286,81.972 C65.3314286,82.524 65.9674286,83.088 66.4834286,83.64 L65.8834286,84.24 C65.4274286,83.7 64.8034286,83.124 64.0114286,82.512 L64.5634286,81.972 Z M64.2514286,78 L65.1154286,78.108 C64.9834286,78.732 64.8154286,79.332 64.6114286,79.896 L69.0034286,79.896 C69.0034286,84.024 68.9314286,86.568 68.7874286,87.516 C68.6554286,88.488 68.0674286,88.98 67.0234286,88.98 C66.6994286,88.98 66.1594286,88.956 65.3914286,88.932 L65.1754286,88.116 C65.8234286,88.14 66.3874286,88.164 66.8674286,88.164 C67.4914286,88.164 67.8514286,87.852 67.9594286,87.228 C68.0794286,86.532 68.1394286,84.372 68.1634286,80.736 L64.2634286,80.736 C63.8554286,81.612 63.3514286,82.392 62.7514286,83.088 L62.1754286,82.344 C63.1954286,81.156 63.8914286,79.704 64.2514286,78 Z M58.5154286,81.264 L59.8354286,81.264 L59.8354286,78.12 L60.7114286,78.12 L60.7114286,81.264 L61.9474286,81.264 L61.9474286,82.104 L60.7114286,82.104 L60.7114286,86.148 C61.2874286,85.98 61.8394286,85.8 62.3914286,85.584 L62.3914286,86.484 C61.2274286,86.928 59.9674286,87.3 58.6234286,87.588 L58.3834286,86.676 C58.8874286,86.592 59.3674286,86.496 59.8354286,86.376 L59.8354286,82.104 L58.5154286,82.104 L58.5154286,81.264 Z M72.5022858,78.372 C73.1982858,79.092 73.7382858,79.728 74.1222858,80.28 L73.4502858,80.748 C73.0302858,80.148 72.4902858,79.512 71.8422858,78.84 L72.5022858,78.372 Z M76.7262858,83.436 C77.5902858,84.384 78.2502858,85.212 78.7182858,85.908 L77.9622858,86.436 C77.4822858,85.668 76.8462858,84.804 76.0302858,83.868 L76.7262858,83.436 Z M75.2262858,78.072 L76.0782858,78.072 L76.0782858,79.5 C76.0662858,80.028 76.0422858,80.544 76.0062858,81.036 L80.9502858,81.036 C80.9502858,84.468 80.7942858,86.652 80.4942858,87.588 C80.1822858,88.524 79.6182858,88.992 78.8142858,88.992 C78.2262858,88.992 77.7342858,88.968 77.3262858,88.944 L77.0982858,88.104 C77.7102858,88.152 78.2622858,88.176 78.7662858,88.176 C79.4382858,88.128 79.8342858,87.444 79.9302858,86.148 C80.0262858,84.84 80.0742858,83.412 80.0742858,81.876 L75.9222858,81.876 C75.7302858,83.388 75.3942858,84.648 74.9022858,85.68 C74.1942858,87.108 73.0302858,88.224 71.3982858,89.028 L70.9062858,88.26 C72.5142858,87.444 73.6422858,86.364 74.2662858,85.008 C74.6382858,84.12 74.9022858,83.076 75.0582858,81.876 L71.3262858,81.876 L71.3262858,81.036 L75.1542858,81.036 C75.1902858,80.532 75.2142858,80.028 75.2262858,79.5 L75.2262858,78.072 Z M88.5411429,79.548 L84.0051429,79.548 L84.0051429,78.696 L93.4851429,78.696 L93.4851429,79.548 L89.4171429,79.548 L89.4171429,83.04 L92.8731429,83.04 L92.8731429,83.868 L89.4171429,83.868 L89.4171429,87.708 L93.9891429,87.708 L93.9891429,88.548 L83.2971429,88.548 L83.2971429,87.708 L85.1811429,87.708 L85.1811429,81.948 L86.0211429,81.948 L86.0211429,87.708 L88.5411429,87.708 L88.5411429,79.548 Z M97.6680001,78.576 L104.28,78.576 L104.28,82.5 L97.6680001,82.5 L97.6680001,78.576 Z M103.416,81.684 L103.416,79.392 L98.5320001,79.392 L98.5320001,81.684 L103.416,81.684 Z M100.296,83.688 L100.296,88.896 L99.4560001,88.896 L99.4560001,88.284 L96.9240001,88.284 L96.9240001,88.896 L96.0720001,88.896 L96.0720001,83.688 L100.296,83.688 Z M96.9240001,87.468 L99.4560001,87.468 L99.4560001,84.516 L96.9240001,84.516 L96.9240001,87.468 Z M105.876,83.688 L105.876,88.896 L105.012,88.896 L105.012,88.284 L102.384,88.284 L102.384,88.896 L101.532,88.896 L101.532,83.688 L105.876,83.688 Z M102.384,87.468 L105.012,87.468 L105.012,84.516 L102.384,84.516 L102.384,87.468 Z" id="所有服饰均为正品" fill="#989898"></path>
            </g>
        </g>
    </g>
</svg>