<?xml version="1.0" encoding="UTF-8"?>
<svg width="61px" height="82px" viewBox="0 0 61 82" version="1.1" xmlns="http://www.w3.org/2000/svg" xmlns:xlink="http://www.w3.org/1999/xlink">
    <!-- Generator: Sketch 49.2 (51160) - http://www.bohemiancoding.com/sketch -->
    <title>智能选衣</title>
    <desc>Created with Sketch.</desc>
    <defs></defs>
    <g id="Page-1" stroke="none" stroke-width="1" fill="none" fill-rule="evenodd">
        <g id="会员中心-copy-2" transform="translate(-157.000000, -78.000000)">
            <g id="智能选衣" transform="translate(130.000000, 63.000000)">
                <g id="智能衣箱">
                    <rect id="Rectangle-100-Copy" x="0" y="0" width="115" height="113"></rect>
                    <path d="M58,15 C69.0458266,15 78,23.954328 78,35 C78,46.0459963 69.0459963,55 58,55 C46.9540037,55 38,46.0459963 38,35 C38,23.954328 46.9541734,15 58,15 Z" id="Path" fill="#FEFAF4"></path>
                    <path d="M58,15.5 C47.2303844,15.5 38.5,24.2303989 38.5,35 C38.5,45.7698616 47.2301384,54.5 58,54.5 C68.7698616,54.5 77.5,45.7698616 77.5,35 C77.5,24.2303989 68.7696156,15.5 58,15.5 Z M58,15 C69.0457746,15 78,23.9542732 78,35 C78,46.046004 69.046004,55 58,55 C46.953996,55 38,46.046004 38,35 C38,23.9542732 46.9542254,15 58,15 Z" id="Path" fill="#DCAE4E" fill-rule="nonzero"></path>
                    <g id="Group-3" transform="translate(47.000000, 25.000000)">
                        <path d="M0,6 L3.71207939,0.503861062 C3.89012225,0.192286064 4.22146569,0 4.58032254,0 L17.4196775,0 C17.7785343,0 18.1098778,0.192286064 18.2879206,0.503861062 L22,6 L0,6 Z" id="Rectangle-2" fill="#FFFFFF"></path>
                        <path d="M1.20671538,6 L0,6 L3.71207939,0.503861062 C3.89012225,0.192286064 4.22146569,0 4.58032254,0 L17.4196775,0 C17.7785343,0 18.1098778,0.192286064 18.2879206,0.503861062 L22,6 L20.793625,6 L17.4196775,1 L4.58032254,1 L4.54077522,1.06356029 L1.20671538,6 Z" id="Rectangle-2-Copy" fill="#DCAE4E" fill-rule="nonzero"></path>
                        <rect id="Rectangle-78" fill="#FFFFFF" x="0" y="6" width="22" height="14"></rect>
                        <path d="M1,7 L1,19 L21,19 L21,7 L1,7 Z M0,6 L22,6 L22,20 L0,20 L0,6 Z" id="Rectangle-78-Copy" fill="#DCAE4E" fill-rule="nonzero"></path>
                        <path d="M6.90476049,9.73127531 L6.94322963,9.49084321 L9.83145185,9.49084321 L9.79348889,9.73127531 L8.97399506,9.73127531 L7.73437778,15.6656457 L8.89756296,15.6656457 C10.060242,15.6656457 10.3467358,15.2141395 11.1191556,13.8317815 L11.3955259,13.8317815 L10.8807481,15.9055716 L5.93240247,15.9055716 L5.97036543,15.6656457 L6.54234074,15.6656457 L7.78195802,9.73127531 L6.90476049,9.73127531 Z" id="Fill-17" fill="#DCAE4E"></path>
                        <path d="M11.8127642,10.6677457 L17.0663321,10.6677457 L16.770221,12.7324247 L16.4842333,12.7324247 C16.4842333,11.195684 16.1790111,10.9081778 15.4354432,10.9081778 L15.0350605,10.9081778 L13.8055667,16.8425481 L14.720221,16.8425481 L14.6726407,17.0824741 L11.6700235,17.0824741 L11.7176037,16.8425481 L12.5948012,16.8425481 L13.8435296,10.9081778 L13.5479247,10.9081778 C12.7562704,10.9081778 12.2991963,11.3110914 11.6411716,12.6362519 L11.355184,12.6362519 L11.8127642,10.6677457 Z" id="Fill-19" fill="#DCAE4E"></path>
                        <polygon id="Fill-21" fill="#DCAE4E" points="11 6.19279303 12.0123457 6.19279303 12.0123457 1 11 1"></polygon>
                    </g>
                </g>
                <path d="M31.79,67.48 C31.454,67.998 31.076,68.446 30.656,68.824 L30.054,68.068 C30.726,67.452 31.286,66.584 31.748,65.464 L32.658,65.66 C32.532,65.996 32.406,66.304 32.28,66.584 L36.284,66.584 L36.284,67.48 L34.17,67.48 C34.142,67.956 34.1,68.418 34.044,68.838 L36.676,68.838 L36.676,69.762 L33.834,69.762 C33.792,69.902 33.75,70.028 33.722,70.154 C34.786,70.686 35.682,71.232 36.41,71.792 L35.696,72.506 C35.108,71.974 34.352,71.442 33.4,70.882 C32.84,71.862 31.86,72.674 30.474,73.318 L29.802,72.492 C31.258,71.848 32.21,71.05 32.672,70.098 L32.812,69.762 L29.998,69.762 L29.998,68.838 L33.064,68.838 C33.148,68.404 33.19,67.956 33.218,67.48 L31.79,67.48 Z M37.264,66.514 L41.87,66.514 L41.87,71.638 L37.264,71.638 L37.264,66.514 Z M40.89,70.742 L40.89,67.41 L38.244,67.41 L38.244,70.742 L40.89,70.742 Z M40.876,72.646 L40.876,78.428 L39.854,78.428 L39.854,77.798 L32.924,77.798 L32.924,78.428 L31.916,78.428 L31.916,72.646 L40.876,72.646 Z M32.924,76.902 L39.854,76.902 L39.854,75.698 L32.924,75.698 L32.924,76.902 Z M32.924,74.816 L39.854,74.816 L39.854,73.542 L32.924,73.542 L32.924,74.816 Z M46.106,73.598 L46.106,74.9 L49.34,74.9 L49.34,73.598 L46.106,73.598 Z M49.34,72.758 L49.34,71.4 L46.106,71.4 L46.106,72.758 L49.34,72.758 Z M46.106,75.754 L46.106,78.428 L45.14,78.428 L45.14,70.518 L50.306,70.518 L50.306,77.098 C50.306,77.91 49.914,78.33 49.13,78.33 L48.01,78.33 L47.758,77.378 L48.808,77.42 C49.158,77.42 49.34,77.238 49.34,76.888 L49.34,75.754 L46.106,75.754 Z M55.22,71.68 L52.91,71.68 C52.056,71.68 51.636,71.218 51.636,70.308 L51.636,65.604 L52.63,65.604 L52.63,67.424 C54.17,67.186 55.416,66.934 56.382,66.682 L56.704,67.564 C55.528,67.858 54.17,68.124 52.63,68.348 L52.63,70.098 C52.63,70.546 52.812,70.77 53.19,70.77 L55.024,70.77 C55.304,70.77 55.5,70.686 55.612,70.546 C55.752,70.35 55.836,69.832 55.892,68.964 L56.83,69.258 C56.732,70.406 56.55,71.106 56.298,71.358 C56.074,71.568 55.71,71.68 55.22,71.68 Z M52.63,74.844 L52.63,76.846 C52.63,77.126 52.798,77.28 53.162,77.28 L55.066,77.28 C55.346,77.28 55.556,77.21 55.668,77.084 C55.822,76.888 55.92,76.37 55.976,75.516 L56.886,75.796 C56.802,76.93 56.62,77.616 56.354,77.868 C56.13,78.078 55.766,78.19 55.262,78.19 L52.882,78.19 C52.042,78.19 51.636,77.812 51.636,77.07 L51.636,72.212 L52.63,72.212 L52.63,73.934 C54.03,73.794 55.276,73.556 56.382,73.22 L56.704,74.116 C55.444,74.48 54.086,74.718 52.63,74.844 Z M49.298,66.556 C50.138,67.69 50.796,68.67 51.258,69.51 L50.432,70.098 C50.278,69.79 50.11,69.482 49.928,69.174 C48.43,69.412 46.638,69.58 44.566,69.692 L44.286,68.852 C44.468,68.796 44.622,68.698 44.748,68.586 C45.616,67.69 46.344,66.682 46.904,65.562 L47.856,65.856 C47.212,67.102 46.512,68.082 45.728,68.796 C46.904,68.726 48.15,68.614 49.466,68.446 C49.172,67.998 48.85,67.522 48.514,67.046 L49.298,66.556 Z M59.764,65.786 C60.702,66.514 61.486,67.242 62.13,67.97 L61.43,68.67 C60.856,67.97 60.072,67.228 59.078,66.444 L59.764,65.786 Z M67.898,78.148 C67.142,78.148 66.302,78.134 65.406,78.12 C64.51,78.106 63.768,78.022 63.208,77.868 C62.662,77.7 62.172,77.35 61.738,76.846 C61.542,76.608 61.36,76.496 61.192,76.496 C60.842,76.496 60.282,77.14 59.498,78.456 L58.742,77.77 C59.498,76.58 60.156,75.852 60.744,75.6 L60.744,71.344 L58.756,71.344 L58.756,70.42 L61.682,70.42 L61.682,75.656 C61.794,75.74 61.906,75.852 62.018,75.978 C62.354,76.384 62.718,76.678 63.11,76.86 C63.544,77.056 64.174,77.168 65.014,77.196 C65.742,77.21 66.666,77.224 67.758,77.224 C68.43,77.224 69.116,77.21 69.816,77.196 C70.488,77.182 71.02,77.168 71.398,77.14 L71.146,78.148 L67.898,78.148 Z M66.694,65.52 L67.674,65.52 L67.674,67.312 L70.474,67.312 L70.474,68.278 L67.674,68.278 L67.674,70.28 L70.964,70.28 L70.964,71.26 L68.612,71.26 L68.612,75.012 C68.612,75.264 68.752,75.404 69.06,75.404 L69.564,75.404 C69.76,75.404 69.9,75.362 70.012,75.278 C70.18,75.152 70.292,74.592 70.348,73.598 L71.23,73.892 C71.146,75.054 70.992,75.74 70.782,75.964 C70.586,76.16 70.25,76.272 69.774,76.286 L68.766,76.286 C68.402,76.286 68.136,76.188 67.954,75.992 C67.758,75.796 67.674,75.544 67.674,75.236 L67.674,71.26 L66.26,71.26 C66.218,72.226 66.078,73.066 65.84,73.766 C65.476,74.83 64.622,75.712 63.306,76.398 L62.648,75.6 C63.782,75.04 64.524,74.34 64.888,73.5 C65.126,72.884 65.266,72.128 65.308,71.26 L63.054,71.26 L63.054,70.28 L66.694,70.28 L66.694,68.278 L64.426,68.278 C64.174,68.81 63.894,69.286 63.586,69.734 L62.704,69.188 C63.46,68.138 64.006,66.976 64.342,65.716 L65.308,65.912 C65.168,66.402 65.014,66.864 64.846,67.312 L66.694,67.312 L66.694,65.52 Z M79.414,68.684 L79.302,68.684 C78.742,69.93 77.986,71.064 77.048,72.086 L77.048,76.972 C78.322,76.622 79.512,76.202 80.604,75.726 L80.786,76.72 C79.414,77.266 77.762,77.784 75.844,78.288 L75.606,77.322 C75.886,77.21 76.04,77.042 76.04,76.79 L76.04,73.066 C75.312,73.71 74.5,74.298 73.618,74.83 L73.086,73.962 C75.48,72.59 77.202,70.84 78.252,68.684 L73.408,68.684 L73.408,67.718 L78.994,67.718 C78.714,66.99 78.42,66.332 78.084,65.73 L79.162,65.562 C79.47,66.192 79.75,66.906 80.03,67.718 L85.392,67.718 L85.392,68.684 L80.394,68.684 C80.618,70.056 80.996,71.316 81.556,72.436 C82.494,71.918 83.376,71.134 84.216,70.07 L84.93,70.798 C84.062,71.862 83.096,72.688 82.004,73.248 C82.9,74.774 84.132,76.062 85.672,77.112 L85.042,78.148 C81.906,75.88 80.03,72.716 79.414,68.684 Z" fill="#242424"></path>
                <path d="M32.6988571,88.748 L33.5868571,88.748 L33.5868571,96.188 L32.6988571,96.188 L32.6988571,88.748 Z M32.7588571,85.208 L33.5268571,85.208 C34.5348571,86.864 36.2628571,88.316 38.7108571,89.576 L38.1948571,90.356 C35.9388571,89.18 34.2468571,87.74 33.1428571,86.012 C31.8108571,87.908 30.1308571,89.372 28.0908571,90.404 L27.5748571,89.624 C29.8188571,88.484 31.5468571,87.008 32.7588571,85.208 Z M40.3737143,87.512 L41.0577143,87.56 C41.0337143,88.76 40.8897143,89.912 40.6497143,90.992 L39.9417143,90.788 C40.1937143,89.756 40.3377143,88.664 40.3737143,87.512 Z M43.3857143,87.26 C43.6497143,87.848 43.8777143,88.52 44.0817143,89.288 C44.4897143,88.244 44.7297143,87.128 44.7897143,85.94 L45.5697143,86.048 C45.5457143,86.552 45.4977143,87.032 45.4257143,87.488 L47.1417143,87.488 L47.1417143,85.244 L48.0297143,85.244 L48.0297143,87.488 L50.6457143,87.488 L50.6457143,88.316 L48.0297143,88.316 L48.0297143,91.22 L50.4657143,91.22 L50.4657143,92.072 L48.0297143,92.072 L48.0297143,95 L50.9577143,95 L50.9577143,95.84 L43.7097143,95.84 L43.7097143,95 L47.1417143,95 L47.1417143,92.072 L44.3937143,92.072 L44.3937143,91.22 L47.1417143,91.22 L47.1417143,88.316 L45.2697143,88.316 C45.0537143,89.192 44.7297143,90.008 44.3097143,90.752 L43.6737143,90.176 C43.8057143,89.912 43.9257143,89.66 44.0337143,89.42 L43.4337143,89.576 C43.2537143,88.844 43.0257143,88.136 42.7497143,87.464 L43.3857143,87.26 Z M41.6697143,85.232 L42.5457143,85.232 L42.5457143,96.152 L41.6697143,96.152 L41.6697143,85.232 Z M55.9925714,85.112 L56.7965714,85.484 C56.3765714,86.492 55.8365714,87.428 55.1885714,88.316 L55.1885714,96.224 L54.3245714,96.224 L54.3245714,89.372 C53.7845714,89.96 53.1965714,90.524 52.5605714,91.052 L52.2845714,90.152 C53.9885714,88.688 55.2245714,87.008 55.9925714,85.112 Z M61.5245714,96.008 L59.2325714,96.008 C58.3925714,96.008 57.9725714,95.576 57.9725714,94.736 L57.9725714,91.076 C57.4685714,91.364 56.9525714,91.628 56.4245714,91.88 L56.0405714,91.064 C56.7125714,90.752 57.3605714,90.428 57.9725714,90.068 L57.9725714,85.256 L58.8365714,85.256 L58.8365714,89.54 C60.0965714,88.7 61.2005714,87.74 62.1485714,86.672 L62.7485714,87.356 C61.6325714,88.556 60.3245714,89.624 58.8365714,90.56 L58.8365714,94.616 C58.8365714,94.988 59.0285714,95.18 59.4365714,95.18 L61.3805714,95.18 C61.6925714,95.18 61.9325714,95.072 62.0765714,94.88 C62.2085714,94.688 62.2925714,93.992 62.3405714,92.804 L63.1445714,93.068 C63.0605714,94.448 62.9165714,95.288 62.7125714,95.576 C62.4965714,95.864 62.1005714,96.008 61.5245714,96.008 Z M70.1834286,87.872 L70.0874286,87.872 C69.6074286,88.94 68.9594286,89.912 68.1554286,90.788 L68.1554286,94.976 C69.2474286,94.676 70.2674286,94.316 71.2034286,93.908 L71.3594286,94.76 C70.1834286,95.228 68.7674286,95.672 67.1234286,96.104 L66.9194286,95.276 C67.1594286,95.18 67.2914286,95.036 67.2914286,94.82 L67.2914286,91.628 C66.6674286,92.18 65.9714286,92.684 65.2154286,93.14 L64.7594286,92.396 C66.8114286,91.22 68.2874286,89.72 69.1874286,87.872 L65.0354286,87.872 L65.0354286,87.044 L69.8234286,87.044 C69.5834286,86.42 69.3314286,85.856 69.0434286,85.34 L69.9674286,85.196 C70.2314286,85.736 70.4714286,86.348 70.7114286,87.044 L75.3074286,87.044 L75.3074286,87.872 L71.0234286,87.872 C71.2154286,89.048 71.5394286,90.128 72.0194286,91.088 C72.8234286,90.644 73.5794286,89.972 74.2994286,89.06 L74.9114286,89.684 C74.1674286,90.596 73.3394286,91.304 72.4034286,91.784 C73.1714286,93.092 74.2274286,94.196 75.5474286,95.096 L75.0074286,95.984 C72.3194286,94.04 70.7114286,91.328 70.1834286,87.872 Z M77.3662857,89.792 L79.2982857,89.792 L79.2982857,88.52 L80.1742857,88.52 L80.1742857,89.792 L81.8062857,89.792 L81.8062857,90.632 L80.1742857,90.632 L80.1742857,91.028 C80.7622857,91.592 81.3622857,92.216 81.9622857,92.9 L81.4822857,93.62 C80.9782857,92.876 80.5342857,92.276 80.1742857,91.82 L80.1742857,96.212 L79.2982857,96.212 L79.2982857,91.748 C78.8062857,92.852 78.1342857,93.848 77.2942857,94.736 L76.9222857,93.776 C77.9662857,92.852 78.7222857,91.808 79.1902857,90.632 L77.3662857,90.632 L77.3662857,89.792 Z M87.1702857,88.928 L87.1702857,96.212 L86.3422857,96.212 L86.3422857,95.672 L83.2942857,95.672 L83.2942857,96.212 L82.4662857,96.212 L82.4662857,88.928 L87.1702857,88.928 Z M83.2942857,94.904 L86.3422857,94.904 L86.3422857,93.572 L83.2942857,93.572 L83.2942857,94.904 Z M83.2942857,92.828 L86.3422857,92.828 L86.3422857,91.64 L83.2942857,91.64 L83.2942857,92.828 Z M83.2942857,90.896 L86.3422857,90.896 L86.3422857,89.696 L83.2942857,89.696 L83.2942857,90.896 Z M78.8902857,86.876 C78.6022857,87.368 78.2782857,87.824 77.9062857,88.232 L77.1502857,87.752 C77.8942857,86.96 78.4462857,86.084 78.7822857,85.112 L79.6102857,85.292 C79.5142857,85.58 79.4062857,85.844 79.2862857,86.108 L82.4542857,86.108 L82.4542857,86.876 L80.5222857,86.876 C80.8582857,87.32 81.1222857,87.728 81.3262857,88.112 L80.5222857,88.412 C80.2582857,87.884 79.9582857,87.38 79.5982857,86.876 L78.8902857,86.876 Z M84.0262857,86.876 C83.7622857,87.404 83.4742857,87.896 83.1502857,88.352 L82.4062857,87.884 C83.0542857,87.02 83.5342857,86.084 83.8222857,85.052 L84.6502857,85.232 C84.5542857,85.532 84.4582857,85.82 84.3502857,86.108 L87.9262857,86.108 L87.9262857,86.876 L85.6582857,86.876 C85.9942857,87.308 86.2582857,87.704 86.4622857,88.076 L85.7062857,88.352 C85.4302857,87.848 85.1182857,87.356 84.7582857,86.876 L84.0262857,86.876 Z" id="个性化衣箱" fill="#989898"></path>
            </g>
        </g>
    </g>
</svg>