<?xml version="1.0" encoding="UTF-8"?>
<svg width="56px" height="83px" viewBox="0 0 56 83" version="1.1" xmlns="http://www.w3.org/2000/svg" xmlns:xlink="http://www.w3.org/1999/xlink">
    <!-- Generator: Sketch 49.2 (51160) - http://www.bohemiancoding.com/sketch -->
    <title>更多权益</title>
    <desc>Created with Sketch.</desc>
    <defs></defs>
    <g id="Page-1" stroke="none" stroke-width="1" fill="none" fill-rule="evenodd">
        <g id="会员中心-copy-2" transform="translate(-275.000000, -184.000000)">
            <g id="更多权益" transform="translate(245.000000, 176.000000)">
                <rect id="Rectangle-100-Copy-5" x="0" y="0" width="115" height="113"></rect>
                <g transform="translate(38.000000, 8.000000)">
                    <path d="M20,-2.58293387e-13 C8.954,-2.58293387e-13 -9.20374887e-13,8.954 -9.20374887e-13,20 C-9.20374887e-13,31.046 8.954,40 20,40 C31.0455,40 40,31.046 40,20 C40,8.954 31.0455,-2.58293387e-13 20,-2.58293387e-13" id="Fill-1" fill="#FDF9F2"></path>
                    <path d="M20,0.5 C9.23014237,0.5 0.5,9.23014237 0.5,20 C0.5,30.7698576 9.23014237,39.5 20,39.5 C30.7695322,39.5 39.5,30.769683 39.5,20 C39.5,9.23031699 30.7695322,0.5 20,0.5 Z M20,0 C31.0455,0 40,8.954 40,20 C40,31.046 31.0455,40 20,40 C8.954,40 0,31.046 0,20 C0,8.954 8.954,0 20,0 Z" id="Stroke-3" fill="#DCAE4E" fill-rule="nonzero"></path>
                    <g id="Group-5" transform="translate(10.000000, 10.000000)">
                        <path d="M1,0 L8,0 C8.55228475,0 9,0.44771525 9,1 L9,8 C9,8.55228475 8.55228475,9 8,9 L1,9 C0.44771525,9 0,8.55228475 0,8 L0,1 C0,0.44771525 0.44771525,0 1,0 Z" id="Path" fill="#FFFFFF"></path>
                        <path d="M1,11 L8,11 C8.55228475,11 9,11.4477153 9,12 L9,19 C9,19.5522847 8.55228475,20 8,20 L1,20 C0.44771525,20 0,19.5522847 0,19 L0,12 C0,11.4477153 0.44771525,11 1,11 Z" id="Path" fill="#FFFFFF"></path>
                        <path d="M12,0 L19,0 C19.5522847,0 20,0.44771525 20,1 L20,8 C20,8.55228475 19.5522847,9 19,9 L12,9 C11.4477153,9 11,8.55228475 11,8 L11,1 C11,0.44771525 11.4477153,0 12,0 Z" id="Path" fill="#FFFFFF"></path>
                        <path d="M12,11 L19,11 C19.5522847,11 20,11.4477153 20,12 L20,19 C20,19.5522847 19.5522847,20 19,20 L12,20 C11.4477153,20 11,19.5522847 11,19 L11,12 C11,11.4477153 11.4477153,11 12,11 Z" id="Path" fill="#FFFFFF"></path>
                        <path d="M1,1 L1,8 L8,8 L8,1 L1,1 Z M1,0 L8,0 C8.55228475,0 9,0.44771525 9,1 L9,8 C9,8.55228475 8.55228475,9 8,9 L1,9 C0.44771525,9 0,8.55228475 0,8 L0,1 C0,0.44771525 0.44771525,0 1,0 Z" id="Rectangle-4-Copy-7" fill="#DCAE4E" fill-rule="nonzero"></path>
                        <path d="M1,12 L1,19 L8,19 L8,12 L1,12 Z M1,11 L8,11 C8.55228475,11 9,11.4477153 9,12 L9,19 C9,19.5522847 8.55228475,20 8,20 L1,20 C0.44771525,20 0,19.5522847 0,19 L0,12 C0,11.4477153 0.44771525,11 1,11 Z" id="Rectangle-4-Copy-6" fill="#DCAE4E" fill-rule="nonzero"></path>
                        <path d="M12,1 L12,8 L19,8 L19,1 L12,1 Z M12,0 L19,0 C19.5522847,0 20,0.44771525 20,1 L20,8 C20,8.55228475 19.5522847,9 19,9 L12,9 C11.4477153,9 11,8.55228475 11,8 L11,1 C11,0.44771525 11.4477153,0 12,0 Z" id="Rectangle-4-Copy-5" fill="#DCAE4E" fill-rule="nonzero"></path>
                        <path d="M12,12 L12,19 L19,19 L19,12 L12,12 Z M12,11 L19,11 C19.5522847,11 20,11.4477153 20,12 L20,19 C20,19.5522847 19.5522847,20 19,20 L12,20 C11.4477153,20 11,19.5522847 11,19 L11,12 C11,11.4477153 11.4477153,11 12,11 Z" id="Rectangle-4-Copy-4" fill="#DCAE4E" fill-rule="nonzero"></path>
                    </g>
                </g>
                <path d="M30.378,60.602 L42.376,60.602 L42.376,61.54 L36.874,61.54 L36.874,62.758 L41.214,62.758 L41.214,68.302 L36.706,68.302 C36.538,69.226 36.272,69.968 35.88,70.528 C37.84,71.354 40.164,71.816 42.852,71.9 L42.6,72.866 C39.786,72.754 37.336,72.208 35.25,71.256 C34.27,72.096 32.66,72.628 30.434,72.88 L30,71.956 C31.946,71.802 33.374,71.41 34.27,70.766 C33.458,70.318 32.702,69.8 32.016,69.212 L32.786,68.68 C33.444,69.226 34.172,69.702 34.956,70.108 C35.292,69.632 35.544,69.03 35.684,68.302 L31.582,68.302 L31.582,62.758 L35.866,62.758 L35.866,61.54 L30.378,61.54 L30.378,60.602 Z M40.22,67.42 L40.22,65.936 L36.874,65.936 L36.874,66.426 L36.832,67.42 L40.22,67.42 Z M35.824,67.42 C35.852,67.098 35.866,66.762 35.866,66.426 L35.866,65.936 L32.576,65.936 L32.576,67.42 L35.824,67.42 Z M32.576,65.096 L35.866,65.096 L35.866,63.626 L32.576,63.626 L32.576,65.096 Z M36.874,63.626 L36.874,65.096 L40.22,65.096 L40.22,63.626 L36.874,63.626 Z M50.714,60 L51.61,60.476 C51.358,60.756 51.092,61.022 50.812,61.274 L54.83,61.274 L54.83,62.072 C53.318,64.76 50.504,66.272 46.416,66.594 L45.982,65.684 C47.242,65.6 48.362,65.418 49.37,65.124 C48.936,64.592 48.474,64.102 47.998,63.668 L48.88,63.248 C49.384,63.724 49.86,64.228 50.308,64.788 C51.764,64.2 52.898,63.318 53.682,62.17 L49.594,62.17 C48.502,62.814 47.214,63.304 45.716,63.64 L45.128,62.716 C47.62,62.24 49.482,61.344 50.714,60 Z M50.182,68.75 C50.714,69.296 51.232,69.884 51.708,70.514 C53.262,69.842 54.48,68.876 55.376,67.644 L51.232,67.644 C50,68.232 48.544,68.68 46.85,68.974 L46.248,68.078 C49.3,67.77 51.554,66.832 53.01,65.292 L53.878,65.768 C53.542,66.104 53.192,66.426 52.8,66.72 L56.636,66.72 L56.636,67.518 C54.648,70.822 50.952,72.53 45.52,72.656 L45.114,71.69 C47.298,71.676 49.188,71.41 50.77,70.878 C50.294,70.248 49.804,69.674 49.286,69.17 L50.182,68.75 Z M62.188,65.586 L62.188,72.824 L61.18,72.824 L61.18,65.558 C60.676,67.042 59.99,68.372 59.136,69.562 L58.688,68.428 C59.836,67.056 60.662,65.502 61.152,63.752 L58.982,63.752 L58.982,62.786 L61.18,62.786 L61.18,60.056 L62.188,60.056 L62.188,62.786 L64.036,62.786 L64.036,63.752 L62.188,63.752 L62.188,64.55 C62.888,65.222 63.602,65.992 64.316,66.832 L63.742,67.686 C63.14,66.818 62.622,66.118 62.188,65.586 Z M69.692,61.862 L65.912,61.862 C66.08,64.018 66.668,65.95 67.69,67.658 C68.698,65.978 69.356,64.046 69.692,61.862 Z M67.102,68.554 C65.856,66.538 65.128,64.312 64.932,61.862 L64.372,61.862 L64.372,60.896 L70.672,60.896 L70.672,61.848 C70.266,64.466 69.468,66.72 68.292,68.596 C69.188,69.856 70.308,71.004 71.68,72.026 L70.994,72.838 C69.678,71.802 68.572,70.668 67.704,69.45 C66.724,70.78 65.52,71.9 64.106,72.824 L63.462,72.012 C64.932,71.032 66.15,69.884 67.102,68.554 Z M84.036,66.958 L84.036,71.452 L85.772,71.452 L85.772,72.418 L73.382,72.418 L73.382,71.452 L75.216,71.452 L75.216,66.958 L84.036,66.958 Z M76.182,71.452 L77.834,71.452 L77.834,67.91 L76.182,67.91 L76.182,71.452 Z M78.758,71.452 L80.466,71.452 L80.466,67.91 L78.758,67.91 L78.758,71.452 Z M81.39,71.452 L83.056,71.452 L83.056,67.91 L81.39,67.91 L81.39,71.452 Z M73.676,62.506 L77.232,62.506 C76.784,61.89 76.21,61.232 75.51,60.518 L76.336,60 C77.106,60.784 77.694,61.456 78.1,62.03 L77.442,62.506 L81.012,62.506 C81.586,61.722 82.076,60.896 82.496,60 L83.476,60.336 C83.07,61.148 82.622,61.876 82.118,62.506 L85.478,62.506 L85.478,63.486 L73.676,63.486 L73.676,62.506 Z M81.53,64.004 C83.126,64.732 84.568,65.614 85.87,66.65 L85.31,67.532 C83.91,66.37 82.468,65.446 81.012,64.774 L81.53,64.004 Z M77.582,63.92 L78.226,64.648 C77.022,65.796 75.496,66.762 73.676,67.518 L73.242,66.58 C75.006,65.908 76.448,65.026 77.582,63.92 Z" fill="#242424"></path>
                <path d="M34.692,79.048 L35.508,79.048 L35.508,80.044 L37.224,80.044 L37.224,79.06 L38.04,79.06 L38.04,80.044 L39.36,80.044 L39.36,80.86 L38.04,80.86 L38.04,81.892 L37.224,81.892 L37.224,80.86 L35.508,80.86 L35.508,81.712 L34.692,81.712 L34.692,80.86 L33.216,80.86 L33.216,80.044 L34.692,80.044 L34.692,79.048 Z M33.936,84.772 C33.804,84.94 33.672,85.108 33.552,85.252 L33,84.592 C33.624,83.884 34.14,82.96 34.536,81.808 L35.364,81.988 C35.292,82.192 35.208,82.396 35.136,82.588 L38.688,82.588 C38.688,85.852 38.628,87.856 38.52,88.624 C38.412,89.536 37.908,89.992 36.996,89.992 C36.768,89.992 36.384,89.968 35.832,89.944 L35.64,89.176 C36.12,89.2 36.528,89.224 36.888,89.224 C37.368,89.224 37.644,88.912 37.728,88.288 C37.812,87.76 37.86,86.116 37.884,83.38 L34.788,83.38 C34.572,83.812 34.332,84.208 34.08,84.568 L36.804,84.568 L36.804,88.012 L33.936,88.012 L33.936,84.772 Z M36.048,87.268 L36.048,85.288 L34.68,85.288 L34.68,87.268 L36.048,87.268 Z M40.392,79.012 L41.232,79.168 C41.148,79.78 41.04,80.356 40.92,80.908 L43.956,80.908 L43.956,81.736 L43.164,81.736 C43.116,83.728 42.756,85.42 42.108,86.836 C42.696,87.892 43.392,88.72 44.208,89.296 L43.704,90.052 C42.912,89.452 42.24,88.66 41.676,87.664 C41.088,88.624 40.344,89.44 39.432,90.1 L38.952,89.344 C39.912,88.684 40.668,87.832 41.22,86.8 C40.764,85.852 40.392,84.772 40.08,83.548 C39.864,84.016 39.636,84.436 39.396,84.82 L38.868,84.16 C39.612,82.888 40.128,81.172 40.392,79.012 Z M42.384,81.736 L40.716,81.736 C40.656,81.94 40.596,82.144 40.536,82.336 C40.812,83.704 41.172,84.88 41.628,85.888 C42.084,84.7 42.336,83.32 42.384,81.736 Z M52.3028572,79.072 L53.1308572,79.072 L53.1308572,79.852 L56.1068572,79.852 L56.1068572,80.56 L53.1308572,80.56 L53.1308572,81.364 L55.6748572,81.364 L55.6748572,82.06 L53.1308572,82.06 L53.1308572,82.876 L56.4068572,82.876 L56.4068572,83.596 L49.0628572,83.596 L49.0628572,82.876 L52.3028572,82.876 L52.3028572,82.06 L49.8788572,82.06 L49.8788572,81.364 L52.3028572,81.364 L52.3028572,80.56 L49.3988572,80.56 L49.3988572,79.852 L52.3028572,79.852 L52.3028572,79.072 Z M50.8028572,86.62 L50.8028572,87.496 L54.6788572,87.496 L54.6788572,86.62 L50.8028572,86.62 Z M54.6788572,85.948 L54.6788572,85.06 L50.8028572,85.06 L50.8028572,85.948 L54.6788572,85.948 Z M50.8028572,88.168 L50.8028572,90.076 L49.9748572,90.076 L49.9748572,84.352 L55.5068572,84.352 L55.5068572,89.032 C55.5068572,89.68 55.1588572,90.004 54.4868572,90.004 L53.4788572,90.004 L53.2748572,89.236 L54.2348572,89.272 C54.5228572,89.272 54.6788572,89.128 54.6788572,88.852 L54.6788572,88.168 L50.8028572,88.168 Z M46.8908572,79.204 C47.6948572,79.804 48.3668572,80.416 48.9188572,81.028 L48.3308572,81.628 C47.8268572,81.052 47.1428572,80.44 46.2788572,79.792 L46.8908572,79.204 Z M45.4388572,82.744 L47.9828572,82.744 L47.9828572,88.012 C48.3428572,87.676 48.7148572,87.304 49.1228572,86.884 L49.3508572,87.796 C48.6788572,88.492 47.9588572,89.116 47.2148572,89.656 L46.8788572,88.888 C47.0588572,88.72 47.1548572,88.54 47.1548572,88.336 L47.1548572,83.572 L45.4388572,83.572 L45.4388572,82.744 Z M58.7777143,79.108 L59.6177143,79.108 L59.6177143,80.452 L61.9577143,80.452 L61.9577143,79.132 L62.7977143,79.132 L62.7977143,80.452 L63.5177143,80.452 L63.5177143,81.256 L62.7977143,81.256 L62.7977143,86.332 L63.5777143,86.332 L63.5777143,87.148 L57.9017143,87.148 L57.9017143,86.332 L58.7777143,86.332 L58.7777143,81.256 L58.0337143,81.256 L58.0337143,80.452 L58.7777143,80.452 L58.7777143,79.108 Z M59.6177143,86.332 L61.9577143,86.332 L61.9577143,85.156 L59.6177143,85.156 L59.6177143,86.332 Z M61.9577143,81.256 L59.6177143,81.256 L59.6177143,82.456 L61.9577143,82.456 L61.9577143,81.256 Z M59.6177143,84.4 L61.9577143,84.4 L61.9577143,83.212 L59.6177143,83.212 L59.6177143,84.4 Z M61.7417143,87.46 C62.3057143,88.18 62.7377143,88.816 63.0377143,89.344 C63.8297143,88.228 64.2257143,86.824 64.2497143,85.144 L64.2497143,79.528 L68.2337143,79.528 L68.2337143,88.936 C68.2337143,89.62 67.8737143,89.968 67.1777143,89.968 L65.9057143,89.968 L65.6657143,89.116 C66.1097143,89.14 66.5177143,89.164 66.9017143,89.164 C67.2137143,89.164 67.3697143,88.984 67.3697143,88.624 L67.3697143,86.164 L65.0417143,86.164 C64.8737143,87.748 64.3937143,89.056 63.6017143,90.112 L62.9417143,89.5 C62.9657143,89.476 62.9777143,89.452 62.9897143,89.428 L62.3537143,89.884 C62.0417143,89.272 61.6097143,88.6 61.0697143,87.88 L61.7417143,87.46 Z M59.4017143,87.448 L60.0977143,87.784 C59.6417143,88.648 59.1137143,89.404 58.5137143,90.04 L57.8297143,89.548 C58.4297143,88.96 58.9577143,88.264 59.4017143,87.448 Z M65.1017143,83.236 L65.1017143,85.072 C65.1017143,85.18 65.0897143,85.276 65.0897143,85.372 L67.3697143,85.372 L67.3697143,83.236 L65.1017143,83.236 Z M67.3697143,82.444 L67.3697143,80.344 L65.1017143,80.344 L65.1017143,82.444 L67.3697143,82.444 Z M72.5845715,79 L73.3405715,79.348 C72.7165715,80.668 71.7205715,81.844 70.3285715,82.864 L70.0765715,82.036 C71.2285715,81.148 72.0565715,80.14 72.5845715,79 Z M73.0285715,81.76 L73.7725715,82.108 C73.4845715,82.756 73.1245715,83.368 72.6925715,83.944 L72.6925715,90.016 L71.8645715,90.016 L71.8645715,84.904 C71.4325715,85.36 70.9525715,85.78 70.4365715,86.176 L70.1845715,85.348 C71.4805715,84.304 72.4285715,83.104 73.0285715,81.76 Z M77.0725715,79.048 L77.9005715,79.048 L77.9005715,80.356 L80.6005715,80.356 L80.6005715,81.136 L77.9005715,81.136 L77.9005715,82.636 L81.0925715,82.636 L81.0925715,83.428 L73.9405715,83.428 L73.9405715,82.636 L77.0725715,82.636 L77.0725715,81.136 L74.3965715,81.136 L74.3965715,80.356 L77.0725715,80.356 L77.0725715,79.048 Z M74.0005715,84.892 L78.6565715,84.892 L78.6565715,84.004 L79.5205715,84.004 L79.5205715,84.892 L80.9245715,84.892 L80.9245715,85.696 L79.5205715,85.696 L79.5205715,88.78 C79.5205715,89.56 79.1245715,89.956 78.3565715,89.956 L76.6525715,89.956 L76.4605715,89.128 C77.0125715,89.164 77.5525715,89.188 78.0565715,89.188 C78.4525715,89.188 78.6565715,88.972 78.6565715,88.564 L78.6565715,85.696 L74.0005715,85.696 L74.0005715,84.892 Z M75.4165715,86.164 C76.0885715,86.848 76.6045715,87.448 76.9645715,87.952 L76.2925715,88.432 C75.9085715,87.88 75.3925715,87.256 74.7445715,86.584 L75.4165715,86.164 Z" id="敬请期待" fill="#989898"></path>
            </g>
        </g>
    </g>
</svg>