<?xml version="1.0" encoding="UTF-8"?>
<svg width="99px" height="82px" viewBox="0 0 99 82" version="1.1" xmlns="http://www.w3.org/2000/svg" xmlns:xlink="http://www.w3.org/1999/xlink">
    <!-- Generator: Sketch 49.2 (51160) - http://www.bohemiancoding.com/sketch -->
    <title>专业洗护</title>
    <desc>Created with Sketch.</desc>
    <defs></defs>
    <g id="Page-1" stroke="none" stroke-width="1" fill="none" fill-rule="evenodd">
        <g id="会员中心-copy-2" transform="translate(-253.000000, -78.000000)">
            <g id="专业洗护" transform="translate(245.000000, 63.000000)">
                <rect id="Rectangle-100-Copy-2" x="0" y="0" width="115" height="113"></rect>
                <g transform="translate(37.000000, 15.000000)">
                    <path d="M20,0 C31.0458266,0 40,8.95432798 40,20 C40,31.0459963 31.0459963,40 20,40 C8.95400372,40 0,31.0459963 0,20 C0,8.95432798 8.95417336,0 20,0 Z" id="Path" fill="#FEFAF4"></path>
                    <path d="M20.25,0 C31.4338995,0 40.5,9.06625709 40.5,20.25 C40.5,31.4340712 31.4340712,40.5 20.25,40.5 C9.06592881,40.5 0,31.4340712 0,20.25 C0,9.06625709 9.06610053,0 20.25,0 Z M20.25,0.5 C9.34224484,0.5 0.5,9.34239753 0.5,20.25 C0.5,31.1579288 9.34207119,40 20.25,40 C31.1579288,40 40,31.1579288 40,20.25 C40,9.34239753 31.1577552,0.5 20.25,0.5 Z" id="Stroke-3" fill="#DCAE4E" fill-rule="nonzero"></path>
                    <g id="Group-4" transform="translate(10.000000, 9.000000)">
                        <polygon id="Fill-5" fill="#DCAE4E" points="3 23 4 23 4 21 3 21"></polygon>
                        <path d="M0,0.99978576 C0,0.447404128 0.448,0 1,0 L19,0 C19.552,0 20,0.447404128 20,0.99978576 L20,19.9997143 C20,20.5525959 19.552,21 19,21 L1,21 C0.448,21 0,20.5525959 0,19.9997143 L0,0.99978576 Z" id="Path" fill="#FFFFFF"></path>
                        <path d="M1,20 L19,20 L19,0.99989288 L1,0.99989288 L1,20 Z M0,0.99978576 C0,0.447404128 0.448,0 1,0 L19,0 C19.552,0 20,0.447404128 20,0.99978576 L20,19.9997143 C20,20.5525959 19.552,21 19,21 L1,21 C0.448,21 0,20.5525959 0,19.9997143 L0,0.99978576 Z" id="Stroke-8-Copy" fill="#DCAE4E" fill-rule="nonzero"></path>
                        <polygon id="Fill-9" fill="#DCAE4E" points="16 23 17 23 17 21 16 21"></polygon>
                        <path d="M10,8 C7.23878475,8 5,10.2387847 5,13 C5,15.7612153 7.23878475,18 10,18 C12.7612153,18 15,15.7612153 15,13 C15,10.2387847 12.7612153,8 10,8 Z M10,7 C13.3135,7 16,9.6865 16,13 C16,16.3135 13.3135,19 10,19 C6.6865,19 4,16.3135 4,13 C4,9.6865 6.6865,7 10,7 Z" id="Stroke-11" fill="#DCAE4E" fill-rule="nonzero"></path>
                        <polygon id="Fill-12" fill="#DCAE4E" points="0 6 20 6 20 5 0 5"></polygon>
                        <path d="M6.5715,15.0552909 C5.80233209,15.0552909 5.07368182,14.8714367 4.51555312,14.5402551 C4.27807207,14.3993389 4.19979077,14.0925874 4.34070693,13.8551063 C4.48162309,13.6176253 4.78837463,13.539344 5.02585568,13.6802601 C5.42299054,13.9159114 5.97537857,14.0552909 6.5715,14.0552909 C7.55938787,14.0552909 8.37880695,13.6671482 8.58759504,13.2004709 L8.75757751,12.8205309 L9.16204285,12.9187972 C9.4301952,12.9839457 9.71209445,13.0181711 10,13.0181711 C10.2879056,13.0181711 10.5698048,12.9839457 10.8379571,12.9187972 L11.2424225,12.8205309 L11.412405,13.2004709 C11.6211931,13.6671482 12.4406121,14.0552909 13.4285,14.0552909 C14.1173168,14.0552909 14.744389,13.8686857 15.1372178,13.5711321 C15.3573406,13.404397 15.6709509,13.4476764 15.8376859,13.6677991 C16.0044209,13.8879219 15.9611416,14.2015322 15.7410188,14.3682672 C15.1637223,14.8055484 14.3244819,15.0552909 13.4285,15.0552909 C12.2743511,15.0552909 11.2334002,14.6393459 10.7124309,13.9627115 C10.4796669,13.9993189 10.2413132,14.0181711 10,14.0181711 C9.75868678,14.0181711 9.52033307,13.9993189 9.28756913,13.9627115 C8.76659985,14.6393459 7.72564894,15.0552909 6.5715,15.0552909 Z" id="Stroke-13" fill="#DCAE4E" fill-rule="nonzero"></path>
                        <path d="M4,2 C4.552,2 5,2.448 5,3 C5,3.552 4.552,4 4,4 C3.448,4 3,3.552 3,3 C3,2.448 3.448,2 4,2" id="Fill-14" fill="#DCAE4E"></path>
                        <path d="M14,2 C14.552,2 15,2.448 15,3 C15,3.552 14.552,4 14,4 C13.448,4 13,3.552 13,3 C13,2.448 13.448,2 14,2" id="Fill-14-Copy" fill="#DCAE4E"></path>
                        <path d="M17,2 C17.552,2 18,2.448 18,3 C18,3.552 17.552,4 17,4 C16.448,4 16,3.552 16,3 C16,2.448 16.448,2 17,2" id="Fill-14-Copy-2" fill="#DCAE4E"></path>
                    </g>
                </g>
                <path d="M29.914,69.832 L33.918,69.832 C34.072,69.258 34.212,68.684 34.352,68.096 L30.866,68.096 L30.866,67.158 L34.562,67.158 C34.688,66.584 34.8,66.024 34.912,65.464 L35.948,65.548 C35.836,66.108 35.738,66.654 35.626,67.158 L41.66,67.158 L41.66,68.096 L35.416,68.096 C35.276,68.712 35.136,69.286 34.996,69.832 L42.486,69.832 L42.486,70.812 L34.73,70.812 C34.534,71.47 34.324,72.086 34.128,72.66 L40.792,72.66 L40.792,73.528 C40.12,74.564 39.07,75.614 37.628,76.65 C38.468,76.958 39.28,77.308 40.05,77.672 L39.49,78.554 C37.39,77.518 35.22,76.706 32.994,76.104 L33.526,75.32 C34.576,75.6 35.584,75.922 36.55,76.258 C37.838,75.418 38.86,74.522 39.602,73.598 L32.686,73.598 C33.022,72.702 33.344,71.778 33.638,70.812 L29.914,70.812 L29.914,69.832 Z M48.57,65.702 L49.592,65.702 L49.592,76.832 L51.58,76.832 L51.58,65.702 L52.602,65.702 L52.602,76.832 L56.802,76.832 L56.802,77.812 L44.398,77.812 L44.398,76.832 L48.57,76.832 L48.57,65.702 Z M55.528,68.25 L56.424,68.502 C55.864,70.938 55.164,73.066 54.31,74.9 L53.4,74.578 C54.212,72.926 54.926,70.812 55.528,68.25 Z M45.602,68.222 C46.33,70.112 46.988,72.282 47.562,74.732 L46.638,74.97 C46.134,72.73 45.504,70.574 44.748,68.502 L45.602,68.222 Z M59.82,65.758 C60.688,66.346 61.416,66.948 62.004,67.564 L61.276,68.278 C60.744,67.704 60.03,67.088 59.106,66.444 L59.82,65.758 Z M59.512,69.104 C60.38,69.776 61.122,70.462 61.71,71.134 L60.996,71.848 C60.464,71.204 59.722,70.532 58.784,69.804 L59.512,69.104 Z M60.744,72.814 L61.64,73.178 C61.094,74.956 60.478,76.636 59.792,78.204 L58.784,77.77 C59.54,76.146 60.184,74.494 60.744,72.814 Z M64.09,68.67 C63.824,69.37 63.53,70.014 63.194,70.616 L62.284,70.042 C63.012,68.81 63.53,67.452 63.838,65.968 L64.818,66.178 C64.706,66.71 64.566,67.214 64.412,67.704 L66.316,67.704 L66.316,65.632 L67.352,65.632 L67.352,67.704 L70.432,67.704 L70.432,68.67 L67.352,68.67 L67.352,71.302 L71.076,71.302 L71.076,72.268 L68.598,72.268 L68.598,76.692 C68.598,77.042 68.738,77.224 69.046,77.224 L69.634,77.224 C69.816,77.224 69.97,77.154 70.082,77.042 C70.222,76.888 70.32,76.146 70.376,74.83 L71.3,75.138 C71.202,76.608 71.048,77.476 70.852,77.756 C70.656,78.008 70.334,78.148 69.858,78.148 L68.738,78.148 C68.374,78.148 68.094,78.036 67.898,77.812 C67.702,77.574 67.604,77.28 67.604,76.93 L67.604,72.268 L65.896,72.268 C65.868,73.444 65.7,74.466 65.406,75.32 C64.958,76.566 63.936,77.588 62.368,78.4 L61.696,77.588 C63.068,76.916 63.964,76.076 64.412,75.068 C64.72,74.312 64.888,73.374 64.916,72.268 L62.298,72.268 L62.298,71.302 L66.316,71.302 L66.316,68.67 L64.09,68.67 Z M74.738,78.274 L73.338,78.274 L73.128,77.294 C73.562,77.322 73.982,77.35 74.388,77.35 C74.752,77.35 74.934,77.154 74.934,76.776 L74.934,73.416 C74.36,73.612 73.786,73.808 73.198,73.976 L72.946,72.968 C73.632,72.814 74.29,72.632 74.934,72.422 L74.934,69.216 L73.17,69.216 L73.17,68.25 L74.934,68.25 L74.934,65.604 L75.956,65.604 L75.956,68.25 L77.482,68.25 L77.482,69.216 L75.956,69.216 L75.956,72.058 C76.502,71.834 77.034,71.596 77.566,71.344 L77.566,72.338 C77.034,72.59 76.488,72.814 75.956,73.038 L75.956,77.028 C75.956,77.854 75.55,78.274 74.738,78.274 Z M84.426,68.236 L79.316,68.236 L79.316,70.896 L84.426,70.896 L84.426,68.236 Z M79.316,71.862 C79.288,74.41 78.686,76.58 77.524,78.4 L76.768,77.728 C77.776,76.188 78.294,74.186 78.308,71.736 L78.308,67.27 L81.402,67.27 C81.206,66.682 80.982,66.15 80.758,65.674 L81.822,65.506 C82.018,66.024 82.214,66.612 82.41,67.27 L85.406,67.27 L85.406,71.862 L79.316,71.862 Z" fill="#242424"></path>
                <path d="M11.2111428,86.432 L11.9791428,86.432 L11.9791428,95 L10.9951428,95 L10.9951428,87.632 C10.4551428,88.184 9.78314281,88.568 8.97914281,88.808 L8.97914281,87.824 C9.36314281,87.716 9.77114281,87.548 10.1791428,87.308 C10.5871428,87.044 10.9231428,86.756 11.2111428,86.432 Z M17.326,86.264 C18.91,86.264 19.822,87.02 20.062,88.556 L19.09,88.556 C18.898,87.572 18.31,87.092 17.314,87.092 C16.642,87.092 16.114,87.416 15.73,88.088 C15.346,88.712 15.166,89.516 15.166,90.488 C15.166,90.536 15.166,90.644 15.178,90.8 L15.226,90.8 C15.442,90.356 15.742,90.008 16.15,89.768 C16.534,89.516 16.978,89.396 17.482,89.396 C18.298,89.396 18.958,89.66 19.462,90.188 C19.954,90.716 20.206,91.388 20.206,92.228 C20.206,93.068 19.93,93.776 19.39,94.328 C18.838,94.88 18.154,95.168 17.314,95.168 C16.27,95.168 15.49,94.772 14.962,94.004 C14.458,93.272 14.218,92.252 14.218,90.944 C14.218,89.576 14.482,88.46 15.022,87.608 C15.586,86.708 16.354,86.264 17.326,86.264 Z M17.29,90.212 C16.726,90.212 16.258,90.404 15.886,90.788 C15.514,91.172 15.334,91.652 15.334,92.252 C15.334,92.852 15.502,93.344 15.862,93.728 C16.222,94.136 16.69,94.34 17.29,94.34 C17.866,94.34 18.334,94.136 18.694,93.752 C19.054,93.344 19.234,92.84 19.234,92.228 C19.234,91.616 19.054,91.136 18.706,90.776 C18.346,90.392 17.878,90.212 17.29,90.212 Z M25.1448571,86.528 L27.1368571,86.528 C26.9448571,86.156 26.7288571,85.808 26.4888571,85.484 L27.2928571,85.184 C27.5568571,85.568 27.8088571,86.012 28.0248571,86.528 L29.4408571,86.528 C29.7288571,86.096 29.9928571,85.64 30.2088571,85.16 L31.0488571,85.448 C30.8448571,85.856 30.6288571,86.216 30.3888571,86.528 L32.4288571,86.528 L32.4288571,87.332 L29.0688571,87.332 C28.9848571,87.668 28.8768571,87.992 28.7568571,88.304 L31.6128571,88.304 L31.6128571,94.088 L25.9248571,94.088 L25.9248571,88.304 L27.8448571,88.304 C27.9768571,87.98 28.0728571,87.656 28.1448571,87.332 L25.1448571,87.332 L25.1448571,86.528 Z M30.7968571,93.32 L30.7968571,92.324 L26.7408571,92.324 L26.7408571,93.32 L30.7968571,93.32 Z M26.7408571,91.628 L30.7968571,91.628 L30.7968571,90.716 L26.7408571,90.716 L26.7408571,91.628 Z M26.7408571,90.02 L30.7968571,90.02 L30.7968571,89.072 L26.7408571,89.072 L26.7408571,90.02 Z M22.6608571,85.388 C23.4888571,86.012 24.1848571,86.636 24.7488571,87.26 L24.1368571,87.86 C23.6328571,87.26 22.9488571,86.624 22.0728571,85.952 L22.6608571,85.388 Z M29.6568571,95.984 C29.0088571,95.984 28.3008571,95.972 27.5328571,95.96 C26.7648571,95.948 26.1408571,95.876 25.6608571,95.744 C25.1808571,95.6 24.7608571,95.3 24.4008571,94.868 C24.2328571,94.664 24.0768571,94.568 23.9328571,94.568 C23.6448571,94.568 23.1648571,95.108 22.4808571,96.212 L21.8328571,95.636 C22.4928571,94.604 23.0688571,93.992 23.5608571,93.8 L23.5608571,90.152 L21.7968571,90.152 L21.7968571,89.36 L24.3648571,89.36 L24.3648571,93.848 C24.4608571,93.92 24.5568571,94.016 24.6528571,94.124 C24.9408571,94.472 25.2528571,94.724 25.5768571,94.88 C25.9488571,95.048 26.4888571,95.144 27.1968571,95.168 C27.8208571,95.18 28.6008571,95.192 29.5368571,95.192 C30.1008571,95.192 30.6768571,95.18 31.2648571,95.168 C31.8408571,95.156 32.2968571,95.144 32.6088571,95.12 L32.4048571,95.984 L29.6568571,95.984 Z M39.0597143,86.948 L34.9437143,86.948 L34.9437143,86.12 L44.0757143,86.12 L44.0757143,86.948 L39.9477143,86.948 L39.9477143,94.544 L44.8557143,94.544 L44.8557143,95.372 L34.1397143,95.372 L34.1397143,94.544 L39.0597143,94.544 L39.0597143,86.948 Z M52.2905714,85.148 C52.4585714,85.46 52.6265714,85.808 52.7825714,86.192 L57.1265714,86.192 L57.1265714,86.984 L48.2705714,86.984 L48.2705714,90.068 C48.2225714,92.612 47.8025714,94.64 46.9865714,96.176 L46.3385714,95.6 C47.0225714,94.268 47.3825714,92.42 47.4065714,90.068 L47.4065714,86.192 L51.9185714,86.192 C51.7625714,85.868 51.5945714,85.568 51.4145714,85.292 L52.2905714,85.148 Z M51.2465714,89.264 C51.8225714,89.552 52.3505714,89.852 52.8305714,90.152 C53.5505714,89.732 54.2105714,89.24 54.8105714,88.688 L49.5185714,88.688 L49.5185714,87.944 L55.8905714,87.944 L55.8905714,88.568 C55.1585714,89.348 54.3545714,90.02 53.4905714,90.584 C53.6825714,90.704 53.8625714,90.836 54.0305714,90.968 L53.8505714,91.148 L56.8985714,91.148 L56.8985714,91.82 C56.4065714,92.756 55.8545714,93.548 55.2425714,94.196 L54.5945714,93.68 C55.0985714,93.2 55.5545714,92.624 55.9745714,91.952 L53.2145714,91.952 L53.2145714,95.156 C53.2145714,95.864 52.8545714,96.224 52.1465714,96.224 L50.3825714,96.224 L50.2025714,95.408 C50.7785714,95.444 51.3305714,95.468 51.8585714,95.468 C52.1825714,95.468 52.3505714,95.288 52.3505714,94.952 L52.3505714,91.952 L48.8225714,91.952 L48.8225714,91.148 L53.0945714,91.148 C52.4705714,90.716 51.6785714,90.248 50.7305714,89.768 L51.2465714,89.264 Z M59.8574286,85.352 C60.5774286,85.868 61.1774286,86.384 61.6694286,86.9 L61.0574286,87.512 C60.6134286,87.02 60.0134286,86.504 59.2454286,85.952 L59.8574286,85.352 Z M59.4854286,88.232 C60.2534286,88.82 60.8894286,89.408 61.4174286,89.996 L60.7934286,90.608 C60.3374286,90.056 59.6894286,89.456 58.8614286,88.832 L59.4854286,88.232 Z M60.6734286,91.568 L61.4294286,91.868 C60.9494286,93.356 60.4214286,94.748 59.8214286,96.056 L59.0294286,95.708 C59.6654286,94.364 60.2174286,92.984 60.6734286,91.568 Z M65.2574286,85.196 L66.0974286,85.196 L66.0974286,85.952 L69.2894286,85.952 L69.2894286,86.672 L66.0974286,86.672 L66.0974286,87.464 L68.8334286,87.464 L68.8334286,88.16 L66.0974286,88.16 L66.0974286,88.976 L69.6254286,88.976 L69.6254286,89.696 L61.7654286,89.696 L61.7654286,88.976 L65.2574286,88.976 L65.2574286,88.16 L62.6414286,88.16 L62.6414286,87.464 L65.2574286,87.464 L65.2574286,86.672 L62.1494286,86.672 L62.1494286,85.952 L65.2574286,85.952 L65.2574286,85.196 Z M63.6734286,92.744 L63.6734286,93.596 L67.7174286,93.596 L67.7174286,92.744 L63.6734286,92.744 Z M67.7174286,92.072 L67.7174286,91.184 L63.6734286,91.184 L63.6734286,92.072 L67.7174286,92.072 Z M63.6734286,94.256 L63.6734286,96.2 L62.8574286,96.2 L62.8574286,90.476 L68.5574286,90.476 L68.5574286,95.144 C68.5574286,95.792 68.2334286,96.128 67.5974286,96.128 L66.4454286,96.128 L66.2294286,95.36 L67.3454286,95.396 C67.5854286,95.396 67.7174286,95.252 67.7174286,94.964 L67.7174286,94.256 L63.6734286,94.256 Z M72.0802857,85.364 C72.8242857,85.868 73.4482857,86.384 73.9522857,86.912 L73.3282857,87.524 C72.8722857,87.032 72.2602857,86.504 71.4682857,85.952 L72.0802857,85.364 Z M71.8162857,88.232 C72.5602857,88.808 73.1962857,89.396 73.7002857,89.972 L73.0882857,90.584 C72.6322857,90.032 71.9962857,89.456 71.1922857,88.832 L71.8162857,88.232 Z M72.8722857,91.412 L73.6402857,91.724 C73.1722857,93.248 72.6442857,94.688 72.0562857,96.032 L71.1922857,95.66 C71.8402857,94.268 72.3922857,92.852 72.8722857,91.412 Z M75.7402857,87.86 C75.5122857,88.46 75.2602857,89.012 74.9722857,89.528 L74.1922857,89.036 C74.8162857,87.98 75.2602857,86.816 75.5242857,85.544 L76.3642857,85.724 C76.2682857,86.18 76.1482857,86.612 76.0162857,87.032 L77.6482857,87.032 L77.6482857,85.256 L78.5362857,85.256 L78.5362857,87.032 L81.1762857,87.032 L81.1762857,87.86 L78.5362857,87.86 L78.5362857,90.116 L81.7282857,90.116 L81.7282857,90.944 L79.6042857,90.944 L79.6042857,94.736 C79.6042857,95.036 79.7242857,95.192 79.9882857,95.192 L80.4922857,95.192 C80.6482857,95.192 80.7802857,95.132 80.8762857,95.036 C80.9962857,94.904 81.0802857,94.268 81.1282857,93.14 L81.9202857,93.404 C81.8362857,94.664 81.7042857,95.408 81.5362857,95.648 C81.3682857,95.864 81.0922857,95.984 80.6842857,95.984 L79.7242857,95.984 C79.4122857,95.984 79.1722857,95.888 79.0042857,95.696 C78.8362857,95.492 78.7522857,95.24 78.7522857,94.94 L78.7522857,90.944 L77.2882857,90.944 C77.2642857,91.952 77.1202857,92.828 76.8682857,93.56 C76.4842857,94.628 75.6082857,95.504 74.2642857,96.2 L73.6882857,95.504 C74.8642857,94.928 75.6322857,94.208 76.0162857,93.344 C76.2802857,92.696 76.4242857,91.892 76.4482857,90.944 L74.2042857,90.944 L74.2042857,90.116 L77.6482857,90.116 L77.6482857,87.86 L75.7402857,87.86 Z M90.0151429,85.232 L90.9031429,85.232 L90.9031429,88.508 L93.4951429,88.508 L93.4951429,94.94 C93.4951429,95.732 93.1111429,96.128 92.3671429,96.128 L90.9631429,96.128 L90.7351429,95.288 L92.0791429,95.312 C92.4511429,95.312 92.6431429,95.12 92.6431429,94.748 L92.6431429,93.572 L88.3111429,93.572 L88.3111429,96.14 L87.4471429,96.14 L87.4471429,88.508 L90.0151429,88.508 L90.0151429,85.232 Z M88.3111429,91.46 L88.3111429,92.828 L92.6431429,92.828 L92.6431429,91.46 L88.3111429,91.46 Z M92.6431429,90.716 L92.6431429,89.336 L88.3111429,89.336 L88.3111429,90.716 L92.6431429,90.716 Z M87.6271429,85.544 C88.0831429,86.168 88.5151429,86.852 88.9351429,87.596 L88.2391429,87.932 C87.8311429,87.176 87.3871429,86.492 86.9071429,85.892 L87.6271429,85.544 Z M93.3031429,85.484 L94.0111429,85.82 C93.6511429,86.588 93.1831429,87.32 92.6071429,88.028 L91.9231429,87.68 C92.4991429,86.936 92.9671429,86.204 93.3031429,85.484 Z M85.6591429,91.424 L86.4151429,91.724 C85.8151429,93.26 85.1671429,94.712 84.4471429,96.068 L83.6551429,95.72 C84.4231429,94.316 85.0831429,92.888 85.6591429,91.424 Z M84.4831429,85.376 C85.3111429,85.976 86.0071429,86.576 86.5711429,87.176 L85.9591429,87.788 C85.4551429,87.212 84.7591429,86.612 83.8711429,85.964 L84.4831429,85.376 Z M84.1351429,88.196 C84.9271429,88.796 85.5751429,89.396 86.1031429,89.996 L85.4911429,90.608 C85.0111429,90.044 84.3631429,89.432 83.5231429,88.784 L84.1351429,88.196 Z M96.358,85.952 L100.69,85.952 L100.69,85.172 L101.578,85.172 L101.578,85.952 L106.078,85.952 L106.078,86.648 L101.578,86.648 L101.578,87.392 L105.502,87.392 L105.502,88.064 L101.578,88.064 L101.578,88.844 L106.546,88.844 L106.546,89.516 L95.866,89.516 L95.866,88.844 L100.69,88.844 L100.69,88.064 L96.838,88.064 L96.838,87.392 L100.69,87.392 L100.69,86.648 L96.358,86.648 L96.358,85.952 Z M96.742,94.712 C96.946,94.088 97.114,93.452 97.258,92.792 L95.77,92.792 L95.77,92.06 L97.39,92.06 C97.498,91.436 97.582,90.8 97.63,90.152 L104.998,90.152 L104.962,92.06 L106.63,92.06 L106.63,92.792 L104.938,92.792 C104.914,93.272 104.89,93.692 104.866,94.028 L106.246,94.028 L106.246,94.712 L104.794,94.712 C104.722,95.276 104.578,95.648 104.386,95.828 C104.146,96.02 103.642,96.14 102.886,96.164 L102.046,96.164 L101.758,95.456 C102.19,95.48 102.574,95.504 102.886,95.504 C103.438,95.48 103.774,95.336 103.882,95.096 C103.906,95.024 103.942,94.904 103.978,94.712 L96.742,94.712 Z M104.05,94.028 C104.074,93.668 104.098,93.248 104.122,92.756 L101.062,92.756 C101.338,93.152 101.578,93.572 101.794,94.028 L104.05,94.028 Z M100.21,92.756 L98.122,92.756 C98.026,93.188 97.906,93.62 97.786,94.028 L100.966,94.028 C100.726,93.56 100.474,93.14 100.21,92.756 Z M98.254,92.096 L101.122,92.096 C100.87,91.628 100.606,91.208 100.342,90.836 L98.422,90.836 C98.374,91.268 98.326,91.688 98.254,92.096 Z M101.938,92.096 L104.146,92.096 L104.182,90.836 L101.218,90.836 C101.494,91.232 101.734,91.652 101.938,92.096 Z" id="16道工序清洗消毒" fill="#989898"></path>
            </g>
        </g>
    </g>
</svg>