<?xml version="1.0" encoding="UTF-8"?>
<svg width="61px" height="83px" viewBox="0 0 61 83" version="1.1" xmlns="http://www.w3.org/2000/svg" xmlns:xlink="http://www.w3.org/1999/xlink">
    <!-- Generator: Sketch 49.2 (51160) - http://www.bohemiancoding.com/sketch -->
    <title>顺丰配送</title>
    <desc>Created with Sketch.</desc>
    <defs></defs>
    <g id="Page-1" stroke="none" stroke-width="1" fill="none" fill-rule="evenodd">
        <g id="会员中心-copy-2" transform="translate(-42.000000, -184.000000)">
            <g id="顺丰配送" transform="translate(15.000000, 176.000000)">
                <g>
                    <rect id="Rectangle-100-Copy-3" x="0" y="0" width="115" height="113"></rect>
                    <path d="M58,8 C69.0455,8 78,16.954 78,28 C78,39.046 69.0455,48 58,48 C46.9545,48 38,39.046 38,28 C38,16.954 46.9545,8 58,8" id="Fill-1" fill="#FDF9F2"></path>
                    <path d="M58,8.5 C47.2304678,8.5 38.5,17.230317 38.5,28 C38.5,38.769683 47.2304678,47.5 58,47.5 C68.7695322,47.5 77.5,38.769683 77.5,28 C77.5,17.230317 68.7695322,8.5 58,8.5 Z M58,8 C69.0455,8 78,16.954 78,28 C78,39.046 69.0455,48 58,48 C46.9545,48 38,39.046 38,28 C38,16.954 46.9545,8 58,8 Z" id="Stroke-3" fill="#DCAE4E" fill-rule="nonzero"></path>
                    <g id="Group" transform="translate(46.000000, 20.000000)">
                        <path d="M14.537037,2.4382716 L21.117284,2.4382716 L24.6604938,6.99382716 L24.6604938,14.0802469 C24.6604938,14.6390617 24.206963,15.0925926 23.6481481,15.0925926 L14.537037,15.0925926 C13.9782222,15.0925926 13.5246914,14.6390617 13.5246914,14.0802469 L13.5246914,3.45061728 C13.5246914,2.89180247 13.9782222,2.4382716 14.537037,2.4382716" id="Fill-5" fill="#FEFEFE"></path>
                        <path d="M14,3 L14,14 L24,14 L24,6.41421356 L20.5857864,3 L14,3 Z M21,2 L25,6 L25,15 L13,15 L13,2 L21,2 Z" id="Path-2" fill="#DCAE4E" fill-rule="nonzero"></path>
                        <path d="M20,6 L20,8 L24,8 L24,6.42426245 L23.5609797,6 L20,6 Z M23.9652153,5 L25,6 L25,9 L20,9 C19.4477153,9 19,8.55228475 19,8 L19,6 C19,5.44771525 19.4477153,5 20,5 L23.9652153,5 Z" id="Combined-Shape" fill="#DCAE4E" fill-rule="nonzero"></path>
                        <rect id="Rectangle-4" fill="#FFFFFF" x="1" y="1" width="13" height="13"></rect>
                        <path d="M14,14 L14,1 L1,1 L1,14 L14,14 Z M1,0 L14,0 C14.5522847,0 15,0.44771525 15,1 L15,15 L1,15 C0.44771525,15 0,14.5522847 0,14 L0,1 C0,0.44771525 0.44771525,0 1,0 Z" id="Rectangle-3" fill="#DCAE4E" fill-rule="nonzero"></path>
                        <path d="M19.5987654,11.5493827 C21.2762222,11.5493827 22.6358025,12.9094691 22.6358025,14.5864198 C22.6358025,16.2633704 21.2762222,17.6234568 19.5987654,17.6234568 C17.9213086,17.6234568 16.5617284,16.2633704 16.5617284,14.5864198 C16.5617284,12.9094691 17.9213086,11.5493827 19.5987654,11.5493827 Z" id="Path" fill="#FFFFFF"></path>
                        <path d="M5.93209877,11.5493827 C7.60904938,11.5493827 8.9691358,12.9094691 8.9691358,14.5864198 C8.9691358,16.2633704 7.60904938,17.6234568 5.93209877,17.6234568 C4.25514815,17.6234568 2.89506173,16.2633704 2.89506173,14.5864198 C2.89506173,12.9094691 4.25514815,11.5493827 5.93209877,11.5493827 Z" id="Path" fill="#FEFEFE"></path>
                        <path d="M19.5987654,12.5493827 C18.473794,12.5493827 17.5617284,13.4615533 17.5617284,14.5864198 C17.5617284,15.7112862 18.473794,16.6234568 19.5987654,16.6234568 C20.7237369,16.6234568 21.6358025,15.7112862 21.6358025,14.5864198 C21.6358025,13.4615533 20.7237369,12.5493827 19.5987654,12.5493827 Z M19.5987654,11.5493827 C21.2762222,11.5493827 22.6358025,12.9094691 22.6358025,14.5864198 C22.6358025,16.2633704 21.2762222,17.6234568 19.5987654,17.6234568 C17.9213086,17.6234568 16.5617284,16.2633704 16.5617284,14.5864198 C16.5617284,12.9094691 17.9213086,11.5493827 19.5987654,11.5493827 Z" id="Stroke-15-Copy" fill="#DCAE4E" fill-rule="nonzero"></path>
                        <path d="M5.93209877,12.5493827 C4.8074329,12.5493827 3.89506173,13.4617539 3.89506173,14.5864198 C3.89506173,15.7110856 4.8074329,16.6234568 5.93209877,16.6234568 C7.05676463,16.6234568 7.9691358,15.7110856 7.9691358,14.5864198 C7.9691358,13.4617539 7.05676463,12.5493827 5.93209877,12.5493827 Z M5.93209877,11.5493827 C7.60904938,11.5493827 8.9691358,12.9094691 8.9691358,14.5864198 C8.9691358,16.2633704 7.60904938,17.6234568 5.93209877,17.6234568 C4.25514815,17.6234568 2.89506173,16.2633704 2.89506173,14.5864198 C2.89506173,12.9094691 4.25514815,11.5493827 5.93209877,11.5493827 Z" id="Stroke-19-Copy" fill="#DCAE4E" fill-rule="nonzero"></path>
                    </g>
                </g>
                <path d="M32.178,60.612 L33.074,60.612 L33.074,70.818 L32.178,70.818 L32.178,60.612 Z M34.152,59.744 L35.076,59.744 L35.076,72.148 L34.152,72.148 L34.152,59.744 Z M30.204,59.744 L31.156,59.744 L31.156,66.604 C31.142,69.222 30.89,71.14 30.4,72.358 L29.602,71.672 C29.994,70.608 30.204,68.928 30.204,66.604 L30.204,59.744 Z M35.664,60.094 L42.328,60.094 L42.328,61.046 L39.444,61.046 C39.388,61.578 39.318,62.11 39.22,62.614 L41.81,62.614 L41.81,69.25 L40.83,69.25 L40.83,63.552 L37.092,63.552 L37.092,69.25 L36.112,69.25 L36.112,62.614 L38.184,62.614 C38.282,62.11 38.352,61.592 38.408,61.046 L35.664,61.046 L35.664,60.094 Z M38.422,64.406 L39.402,64.406 L39.402,66.842 C39.374,68.34 39.094,69.53 38.576,70.426 C38.072,71.252 37.26,71.896 36.112,72.358 L35.552,71.476 C36.616,71.042 37.372,70.468 37.792,69.754 C38.184,69.012 38.394,68.046 38.422,66.842 L38.422,64.406 Z M40.032,69.334 C40.956,70.104 41.726,70.874 42.342,71.63 L41.614,72.358 C41.054,71.616 40.298,70.832 39.346,69.992 L40.032,69.334 Z M45.444,64.756 L49.882,64.756 L49.882,62.502 L44.8,62.502 L44.8,61.522 L49.882,61.522 L49.882,59.59 L50.918,59.59 L50.918,61.522 L56.112,61.522 L56.112,62.502 L50.918,62.502 L50.918,64.756 L55.468,64.756 L55.468,65.764 L50.918,65.764 L50.918,67.99 L56.448,67.99 L56.448,68.984 L50.918,68.984 L50.918,72.386 L49.882,72.386 L49.882,68.984 L44.394,68.984 L44.394,67.99 L49.882,67.99 L49.882,65.764 L45.444,65.764 L45.444,64.756 Z M71.156,68.648 C71.058,70.104 70.904,71.042 70.68,71.476 C70.456,71.896 70.022,72.12 69.35,72.12 L66.578,72.12 C65.906,72.12 65.57,71.672 65.57,70.79 L65.57,64.854 L69.392,64.854 L69.392,61.116 L65.332,61.116 L65.332,60.164 L70.372,60.164 L70.372,65.834 L66.55,65.834 L66.55,70.426 C66.55,70.902 66.69,71.154 66.984,71.168 L69.182,71.168 C69.574,71.168 69.826,70.972 69.938,70.58 C70.05,70.202 70.12,69.446 70.162,68.326 L71.156,68.648 Z M58.5,60.15 L64.87,60.15 L64.87,61.102 L63.05,61.102 L63.05,62.726 L64.646,62.726 L64.646,72.344 L63.75,72.344 L63.75,71.588 L59.76,71.588 L59.76,72.344 L58.864,72.344 L58.864,62.726 L60.39,62.726 L60.39,61.102 L58.5,61.102 L58.5,60.15 Z M59.76,70.636 L63.75,70.636 L63.75,69.278 L59.76,69.278 L59.76,70.636 Z M60.586,63.65 L59.76,63.65 L59.76,68.354 L63.75,68.354 L63.75,67.136 L63.036,67.136 C62.448,67.136 62.154,66.814 62.154,66.17 L62.154,63.65 L61.272,63.65 L61.272,64.56 C61.244,66.058 60.936,67.15 60.348,67.85 L59.816,67.36 C60.32,66.772 60.572,65.848 60.586,64.56 L60.586,63.65 Z M61.258,62.726 L62.182,62.726 L62.182,61.102 L61.258,61.102 L61.258,62.726 Z M63.75,66.352 L63.75,63.65 L62.854,63.65 L62.854,65.988 C62.854,66.226 62.966,66.352 63.204,66.352 L63.75,66.352 Z M73.964,59.786 C74.93,60.514 75.742,61.228 76.4,61.956 L75.672,62.67 C75.098,61.984 74.3,61.242 73.278,60.444 L73.964,59.786 Z M82.154,72.148 C81.384,72.148 80.544,72.134 79.648,72.12 C78.738,72.106 77.996,72.022 77.436,71.868 C76.876,71.7 76.372,71.35 75.938,70.846 C75.742,70.608 75.56,70.496 75.392,70.496 C75.056,70.496 74.496,71.126 73.726,72.414 L72.97,71.742 C73.712,70.566 74.37,69.852 74.944,69.6 L74.944,65.344 L72.956,65.344 L72.956,64.42 L75.882,64.42 L75.882,69.656 C75.994,69.74 76.106,69.838 76.232,69.978 C76.568,70.384 76.932,70.678 77.324,70.86 C77.772,71.056 78.402,71.168 79.242,71.196 C79.984,71.21 80.908,71.224 82.014,71.224 C82.658,71.224 83.33,71.21 84.016,71.196 C84.688,71.182 85.206,71.168 85.57,71.14 L85.332,72.148 L82.154,72.148 Z M77.184,65.078 L80.572,65.078 C80.656,64.476 80.712,63.79 80.74,63.006 L77.66,63.006 L77.66,62.082 L81.888,62.082 C82.322,61.27 82.7,60.402 83.008,59.478 L83.96,59.814 C83.652,60.668 83.302,61.424 82.91,62.082 L84.73,62.082 L84.73,63.006 L81.734,63.006 C81.706,63.79 81.664,64.49 81.58,65.078 L85.206,65.078 L85.206,66.03 L81.398,66.03 C81.006,67.724 79.774,69.124 77.702,70.23 L77.058,69.418 C78.822,68.55 79.928,67.43 80.348,66.03 L77.184,66.03 L77.184,65.078 Z M79.102,59.59 C79.564,60.206 79.998,60.892 80.418,61.634 L79.564,62.054 C79.144,61.298 78.682,60.612 78.192,60.024 L79.102,59.59 Z M82.042,66.856 C83.204,67.668 84.254,68.55 85.192,69.502 L84.492,70.258 C83.512,69.222 82.504,68.312 81.44,67.528 L82.042,66.856 Z" fill="#242424"></path>
                <path d="M29.988,79.22 L30.744,79.58 C30.132,80.864 29.124,82.004 27.732,83 L27.48,82.148 C28.632,81.284 29.46,80.312 29.988,79.22 Z M30.3,82.268 L31.044,82.604 C30.756,83.216 30.384,83.792 29.952,84.332 L29.952,90.128 L29.112,90.128 L29.112,85.244 C28.728,85.604 28.296,85.964 27.84,86.3 L27.588,85.472 C28.824,84.536 29.724,83.468 30.3,82.268 Z M31.176,81.272 L34.38,81.272 C34.116,80.636 33.816,80.024 33.468,79.436 L34.308,79.208 C34.692,79.892 34.98,80.516 35.172,81.092 L34.704,81.272 L38.196,81.272 L38.196,82.1 L35.136,82.1 L35.136,85.028 L37.884,85.028 L37.884,85.832 L35.136,85.832 L35.136,89.072 L38.436,89.072 L38.436,89.9 L30.768,89.9 L30.768,89.072 L34.26,89.072 L34.26,85.832 L31.476,85.832 L31.476,85.028 L34.26,85.028 L34.26,82.1 L31.176,82.1 L31.176,81.272 Z M40.8788572,79.364 C41.6828572,80 42.3668572,80.636 42.9188572,81.272 L42.2948572,81.884 C41.8148572,81.284 41.1428572,80.624 40.2908572,79.928 L40.8788572,79.364 Z M47.8268572,89.984 C47.1788572,89.984 46.4828572,89.972 45.7268572,89.96 C44.9708572,89.948 44.3468572,89.876 43.8668572,89.744 C43.4108572,89.6 42.9908572,89.3 42.6188572,88.868 C42.4628572,88.664 42.3068572,88.568 42.1628572,88.568 C41.8748572,88.568 41.3948572,89.12 40.7228572,90.224 L40.0748572,89.636 C40.7228572,88.628 41.2868572,88.016 41.7908572,87.8 L41.7908572,84.152 L40.0748572,84.152 L40.0748572,83.36 L42.5948572,83.36 L42.5948572,87.86 C42.6908572,87.932 42.7748572,88.028 42.8708572,88.136 C43.1588572,88.484 43.4708572,88.736 43.7948572,88.904 C44.1548572,89.072 44.6948572,89.168 45.3908572,89.192 C46.0148572,89.204 46.7948572,89.216 47.7188572,89.216 C48.2948572,89.216 48.8708572,89.204 49.4708572,89.204 C50.0588572,89.18 50.5148572,89.168 50.8268572,89.156 L50.6348572,89.984 L47.8268572,89.984 Z M49.8308572,79.328 L50.2508572,80.072 C48.7028572,80.48 46.9748572,80.708 45.0788572,80.756 L45.0908572,82.136 L50.1308572,82.136 L50.1308572,82.748 C49.7828572,83.876 49.2908572,84.872 48.6548572,85.748 C49.3748572,86.42 50.0348572,87.104 50.6348572,87.8 L50.0588572,88.484 C49.4948572,87.764 48.8588572,87.068 48.1508572,86.396 C47.3948572,87.26 46.4828572,88.004 45.4028572,88.604 L44.8868572,87.92 C45.9428572,87.344 46.8188572,86.648 47.5388572,85.832 C46.8668572,85.232 46.1468572,84.668 45.3668572,84.116 L45.8708572,83.504 C46.6388572,84.044 47.3708572,84.608 48.0428572,85.196 C48.5588572,84.488 48.9668572,83.72 49.2668572,82.88 L45.0788572,82.88 C45.0188572,85.232 44.6108572,86.996 43.8548572,88.196 L43.0748572,87.812 C43.8428572,86.588 44.2508572,84.86 44.2868572,82.64 L44.2868572,80 C46.4708572,79.952 48.3188572,79.724 49.8308572,79.328 Z M53.7857143,82.736 C53.4737143,82.964 53.1617143,83.18 52.8497143,83.384 L52.2977143,82.724 C53.8097143,81.812 55.0457143,80.624 56.0177143,79.136 L56.8817143,79.34 C56.6897143,79.652 56.4857143,79.952 56.2697143,80.24 L60.4097143,80.24 L60.4097143,80.9 C59.9057143,81.524 59.4137143,82.052 58.9217143,82.484 L61.8617143,82.484 L61.8617143,86.12 L59.1257143,86.12 L59.1257143,88.568 C59.1257143,88.964 59.2937143,89.168 59.6417143,89.168 L61.5737143,89.168 C61.7897143,89.168 61.9337143,89.084 62.0297143,88.94 C62.1497143,88.748 62.2217143,88.208 62.2577143,87.308 L63.0857143,87.572 C63.0017143,88.724 62.8577143,89.432 62.6417143,89.684 C62.4497143,89.9 62.1497143,90.008 61.7297143,90.008 L59.3777143,90.008 C58.6337143,90.008 58.2617143,89.588 58.2617143,88.748 L58.2617143,86.12 L57.6377143,86.12 C57.5537143,86.348 57.4577143,86.564 57.3617143,86.78 C56.7137143,88.172 55.2137143,89.312 52.8857143,90.212 L52.3337143,89.528 C54.4217143,88.76 55.8137143,87.788 56.4857143,86.636 C56.5697143,86.468 56.6417143,86.288 56.7137143,86.12 L53.7857143,86.12 L53.7857143,82.736 Z M57.8177143,82.484 C58.3217143,82.064 58.8017143,81.584 59.2817143,81.032 L55.6337143,81.032 C55.1657143,81.56 54.6617143,82.04 54.1097143,82.484 L57.8177143,82.484 Z M61.0337143,85.304 L61.0337143,83.288 L58.1177143,83.288 C58.0937143,84.02 58.0217143,84.692 57.8777143,85.304 L61.0337143,85.304 Z M56.9777143,85.304 C57.1337143,84.692 57.2297143,84.02 57.2537143,83.288 L54.6257143,83.288 L54.6257143,85.304 L56.9777143,85.304 Z M65.5045715,79.316 C66.3205715,79.952 67.0165715,80.576 67.5805715,81.2 L66.9685715,81.812 C66.4645715,81.212 65.7805715,80.576 64.9045715,79.88 L65.5045715,79.316 Z M72.5125715,89.984 C71.8645715,89.984 71.1685715,89.972 70.4125715,89.96 C69.6565715,89.948 69.0325715,89.876 68.5525715,89.744 C68.0965715,89.6 67.6765715,89.3 67.3045715,88.868 C67.1485715,88.664 66.9925715,88.568 66.8485715,88.568 C66.5605715,88.568 66.0805715,89.12 65.4085715,90.224 L64.7605715,89.636 C65.4085715,88.628 65.9725715,88.016 66.4765715,87.8 L66.4765715,84.152 L64.7605715,84.152 L64.7605715,83.36 L67.2805715,83.36 L67.2805715,87.86 C67.3765715,87.932 67.4605715,88.016 67.5565715,88.124 C67.8445715,88.472 68.1445715,88.724 68.4805715,88.88 C68.8405715,89.048 69.3805715,89.144 70.0765715,89.168 C70.7005715,89.18 71.4685715,89.192 72.3925715,89.192 C72.9685715,89.192 73.5565715,89.18 74.1565715,89.168 C74.7325715,89.156 75.1885715,89.144 75.5125715,89.12 L75.2965715,89.984 L72.5125715,89.984 Z M68.9245715,79.88 L74.4325715,79.88 L74.4325715,80.672 L68.9245715,80.672 L68.9245715,79.88 Z M68.1925715,82.604 L75.3085715,82.604 L75.3085715,83.432 L71.5645715,83.432 C70.9045715,85.136 70.3165715,86.348 69.7885715,87.068 C71.3485715,86.9 72.6325715,86.684 73.6525715,86.444 C73.3645715,85.772 73.0405715,85.124 72.6925715,84.5 L73.4005715,84.272 C74.0485715,85.376 74.6245715,86.636 75.1285715,88.052 L74.3605715,88.256 C74.2405715,87.884 74.1085715,87.524 73.9645715,87.188 C72.6445715,87.5 70.9165715,87.752 68.7805715,87.956 L68.5645715,87.2 C69.0685715,87.056 69.7765715,85.796 70.7125715,83.432 L68.1925715,83.432 L68.1925715,82.604 Z M78.9154286,81.956 L78.7234286,82.712 L80.4994286,82.712 C80.5714286,82.472 80.6194286,82.22 80.6314286,81.956 L78.9154286,81.956 Z M81.4714286,81.956 C81.4474286,82.22 81.4114286,82.472 81.3634286,82.712 L83.2234286,82.712 L83.2234286,81.956 L81.4714286,81.956 Z M84.0634286,81.956 L84.0634286,82.712 L87.2914286,82.712 C87.2914286,83.6 87.1954286,84.152 87.0154286,84.38 C86.8354286,84.644 86.4154286,84.776 85.7674286,84.776 C85.5754286,84.776 85.3834286,84.764 85.2154286,84.764 L85.0474286,84.152 C85.2634286,84.164 85.4674286,84.176 85.6594286,84.176 C86.0314286,84.176 86.2594286,84.116 86.3554286,83.996 C86.4274286,83.888 86.4634286,83.684 86.4754286,83.372 L84.0634286,83.372 L84.0634286,84.74 L83.2234286,84.74 L83.2234286,83.372 L81.1234286,83.372 C80.9674286,83.672 80.7754286,83.936 80.5594286,84.164 C80.1754286,84.524 79.6474286,84.824 78.9514286,85.064 L86.3194286,85.064 L86.3194286,88.328 L85.4674286,88.328 L85.4674286,85.832 L79.5874286,85.832 L79.5874286,88.328 L78.7354286,88.328 L78.7354286,85.136 C78.4354286,85.232 78.1234286,85.316 77.8114286,85.388 L77.3794286,84.704 C78.6034286,84.44 79.4434286,84.092 79.9114286,83.66 C79.9954286,83.564 80.0794286,83.468 80.1514286,83.372 L77.7874286,83.372 L78.2074286,81.272 L80.6314286,81.272 L80.6314286,80.504 L77.8954286,80.504 L77.8954286,79.796 L80.6314286,79.796 L80.6314286,79.172 L81.4714286,79.172 L81.4714286,79.796 L83.2234286,79.796 L83.2234286,79.172 L84.0634286,79.172 L84.0634286,79.796 L86.7154286,79.796 L86.7154286,81.956 L84.0634286,81.956 Z M81.4714286,80.504 L81.4714286,81.272 L83.2234286,81.272 L83.2234286,80.504 L81.4714286,80.504 Z M84.0634286,80.504 L84.0634286,81.272 L85.8994286,81.272 L85.8994286,80.504 L84.0634286,80.504 Z M83.1754286,88.16 C84.7234286,88.532 86.1394286,88.988 87.4234286,89.54 L86.9554286,90.26 C85.5874286,89.636 84.1834286,89.156 82.7434286,88.808 L83.1754286,88.16 Z M82.0594286,86.252 L82.9234286,86.336 C82.7674286,87.704 82.4074286,88.616 81.8434286,89.096 C81.2194286,89.684 79.8394286,90.056 77.6794286,90.212 L77.3314286,89.444 C79.2394286,89.348 80.4994286,89.072 81.1114286,88.592 C81.6514286,88.124 81.9634286,87.344 82.0594286,86.252 Z" id="往返免运费" fill="#989898"></path>
            </g>
        </g>
    </g>
</svg>