<?xml version="1.0" encoding="UTF-8"?>
<svg width="96px" height="82px" viewBox="0 0 96 82" version="1.1" xmlns="http://www.w3.org/2000/svg" xmlns:xlink="http://www.w3.org/1999/xlink">
    <!-- Generator: Sketch 49.2 (51160) - http://www.bohemiancoding.com/sketch -->
    <title>每次选7件-升级季</title>
    <desc>Created with Sketch.</desc>
    <defs></defs>
    <g id="Page-1" stroke="none" stroke-width="1" fill="none" fill-rule="evenodd">
        <g id="会员中心-copy-2" transform="translate(-24.000000, -326.000000)">
            <g id="每次选7件-升级季" transform="translate(15.000000, 311.000000)">
                <rect id="Rectangle-100" x="0" y="0" width="115" height="113"></rect>
                <g id="3+2" transform="translate(9.000000, 15.000000)">
                    <path d="M49,0 C37.954505,0 29,8.954505 29,20 C29,31.0458287 37.9543259,40 49,40 C60.0460078,40 69,31.0460078 69,20 C69,8.9543259 60.0458287,0 49,0 Z" id="Path" fill="#FEFAF4"></path>
                    <path d="M49,0.5 C38.2306424,0.5 29.5,9.23064237 29.5,20 C29.5,30.769683 38.2304678,39.5 49,39.5 C59.7698576,39.5 68.5,30.7698576 68.5,20 C68.5,9.23046775 59.769683,0.5 49,0.5 Z M49,0 C60.046,0 69,8.9545 69,20 C69,31.046 60.046,40 49,40 C37.9545,40 29,31.046 29,20 C29,8.9545 37.9545,0 49,0 Z" id="Stroke-3" fill="#DCAE4E" fill-rule="nonzero"></path>
                    <g id="Group-18" transform="translate(35.790123, 9.185185)">
                        <g id="Group-2" transform="translate(0.000000, 0.000000)">
                            <path d="M10.7012136,13.7028593 C10.5898556,12.2521679 9.76327531,8.10711852 9.76327531,8.10711852 C9.76327531,8.10711852 10.4891272,5.17688395 10.4891272,4.10177284 C10.4891272,3.02615556 10.0598926,1.25556296 10.0598926,1.25556296 C10.0598926,1.25556296 9.55625062,0.375834568 8.20021358,0.375834568 C8.18148519,1.54155062 7.25265802,2.48100741 6.1051642,2.48100741 C4.95918889,2.48100741 4.0308679,1.54357531 4.01011481,0.379377778 L4.00404074,0.379377778 C2.98207778,0.379377778 2.18232469,1.25556296 2.18232469,1.25556296 C2.18232469,1.25556296 1.84622593,2.82874815 1.84622593,4.03647654 C1.84622593,5.24471111 2.47894198,8.10711852 2.47894198,8.10711852 C2.47894198,8.10711852 1.88570741,11.669563 1.72170741,13.3581556 C1.56175679,15.0001802 0.280633333,19.6539333 0.280633333,19.6539333 C0.280633333,19.6539333 2.43591728,19.9465012 3.20884321,20.1930074 C4.0663,20.4668469 5.04220123,20.6207235 6.05049753,20.6207235 C7.01020123,20.6207235 7.99926296,20.4815259 8.94428765,20.1722543 C9.59471975,19.9591556 11.9190654,19.7288469 11.9190654,19.7288469 C11.9190654,19.7288469 10.8307938,15.3863901 10.7012136,13.7028593 Z" id="Stroke-7" fill="#FFFFFF"></path>
                            <path d="M10.3270685,17.312938 C10.2729951,17.066358 10.2214078,16.8257725 10.172656,16.5923522 C9.91789439,15.3725708 9.75297774,14.4138168 9.70416262,13.7796016 C9.66780817,13.3060025 9.53972265,12.4425757 9.34557811,11.3229316 C9.3162969,11.154065 9.28573628,10.9806585 9.25403014,10.803313 C9.15091454,10.226545 9.04031227,9.63350381 8.92970107,9.0574847 C8.86336186,8.71201647 8.81184198,8.44940059 8.78258424,8.3026819 L8.73888787,8.08355784 L8.79261231,7.86667445 C8.81426791,7.77925169 8.85292172,7.61911832 8.90287067,7.40514593 C8.98629632,7.04776535 9.06972577,6.67389201 9.14741261,6.30273964 C9.18938249,6.10222665 9.22855321,5.90774455 9.26439778,5.72111116 C9.40751616,4.97593074 9.48912716,4.39509629 9.48912716,4.10177284 C9.48912716,3.87201467 9.46341894,3.56962854 9.41525212,3.217185 C9.38255824,2.97795925 9.3405225,2.7225061 9.2913618,2.45812242 C9.24654942,2.21712374 9.19841455,1.98238113 9.15034388,1.76401291 C9.14500828,1.73977518 9.13990582,1.71677852 9.13505845,1.6950869 C9.11126538,1.6732241 9.08003767,1.64658088 9.04140194,1.61781716 C9.01478337,1.59800004 8.98697663,1.57917774 8.95789249,1.56143567 C8.4890231,2.68866607 7.390564,3.48100741 6.1051642,3.48100741 C4.84867789,3.48100741 3.77050391,2.72363577 3.28474952,1.63621969 C3.20398286,1.69007355 3.1483413,1.73108061 3.10009121,1.76920599 C3.07019641,1.93050929 3.03641322,2.12646211 3.00256718,2.34569677 C2.94552657,2.71517217 2.90115008,3.07475841 2.87432602,3.40777743 C2.85584575,3.63720887 2.84622593,3.84832389 2.84622593,4.03647654 C2.84622593,4.37063078 2.91072311,4.93712261 3.02581273,5.64793926 C3.06190357,5.87084357 3.10233335,6.10427128 3.14633182,6.34533014 C3.21404082,6.71629418 3.28673422,7.08680373 3.35941461,7.43874157 C3.40290872,7.64935163 3.43655085,7.80613744 3.45537218,7.89128514 L3.4971673,8.08036622 L3.46535862,8.27138114 C3.44070537,8.41942682 3.39733749,8.68412037 3.3415087,9.03218765 C3.24842825,9.61250229 3.15535403,10.2098612 3.0685643,10.7907802 C3.04208377,10.9680252 3.01655014,11.1413647 2.9920731,11.3102101 C2.8621572,12.2063843 2.76681794,12.9421313 2.71699649,13.4551073 C2.65451198,14.0965623 2.44887012,15.1210325 2.13266599,16.4541864 C2.08408611,16.6590049 2.03328819,16.8693027 1.98050926,17.0843354 C1.83854525,17.6627273 1.6878154,18.2531653 1.53606196,18.8310669 C1.712167,18.8595452 1.88554127,18.888676 2.05373101,18.9182383 C2.43977649,18.9860924 2.77640328,19.0523823 3.05278986,19.1168588 C3.22972986,19.158136 3.38246294,19.1987537 3.51306797,19.2404071 C4.2866336,19.4874549 5.16140394,19.6207235 6.05049753,19.6207235 C6.94176698,19.6207235 7.82113577,19.4876317 8.63294498,19.2219566 C8.7028586,19.1990511 8.77875532,19.1777362 8.86212824,19.1570545 C9.17982621,19.0782456 9.63687836,19.0013811 10.2129981,18.9228766 C10.3651213,18.9021477 10.5215795,18.8818683 10.6804818,18.8621462 C10.5597489,18.3510691 10.440122,17.8284718 10.3270685,17.312938 Z M8.94428385,20.1722543 C7.99925735,20.4815259 7.01019372,20.6207235 6.05048818,20.6207235 C5.04218995,20.6207235 4.06628685,20.4668469 3.20882842,20.1930074 C2.43727451,19.9469393 0.288268465,19.654973 0.280633333,19.6539361 C0.282834833,19.6458614 1.5618776,14.9987558 1.72168977,13.3581556 C1.88569008,11.669563 2.47892579,8.10711852 2.47892579,8.10711852 C2.47892579,8.10711852 1.84620853,5.24471111 1.84620853,4.03647654 C1.84620853,2.82874815 2.18230794,1.25556296 2.18230794,1.25556296 C2.18230794,1.25556296 2.98206255,0.379377778 4.00402747,0.379377778 C4.03085468,1.54357531 4.95917745,2.48100741 6.10515495,2.48100741 C7.25265098,2.48100741 8.18147992,1.54155062 8.20020835,0.375834568 C9.55624798,0.375834568 10.0598909,1.25556296 10.0598909,1.25556296 C10.0598909,1.25556296 10.4891263,3.02615556 10.4891263,4.10177284 C10.4891263,5.17688395 9.76327307,8.10711852 9.76327307,8.10711852 C9.76327307,8.10711852 10.5898549,12.2521679 10.7012131,13.7028593 C10.830695,15.3851093 11.9174119,19.7222409 11.9190654,19.7288394 C11.9153473,19.7292156 9.59419654,19.9593261 8.94428385,20.1722543 Z" id="Stroke-7-Copy" fill="#DCAE4E" fill-rule="nonzero"></path>
                            <path d="M2.54596229,10.7359155 L2.71329697,9.75001536 C2.7826023,9.7617784 2.91034304,9.78264141 3.08348355,9.80956462 C3.37265769,9.85453098 3.68131256,9.89951004 3.99630696,9.94145825 C4.29389297,9.98108816 4.58207274,10.0159604 4.8550208,10.0447584 C5.38431409,10.1006026 5.83353296,10.1312 6.17283951,10.1312 C6.51214605,10.1312 6.96136493,10.1006026 7.49065821,10.0447584 C7.76360627,10.0159604 8.05178604,9.98108816 8.34937205,9.94145825 C8.66436645,9.89951004 8.97302132,9.85453098 9.26219546,9.80956462 C9.43533597,9.78264141 9.56307671,9.7617784 9.63238204,9.75001536 L9.79971672,10.7359155 C9.72605986,10.7484171 9.59380572,10.7700173 9.41584813,10.7976895 C9.11985879,10.8437157 8.80410597,10.8897291 8.48137795,10.9327072 C8.17525434,10.9734741 7.87818553,11.0094219 7.59558301,11.0392385 C7.03443211,11.098444 6.55352101,11.1312 6.17283951,11.1312 C5.792158,11.1312 5.3112469,11.098444 4.750096,11.0392385 C4.46749348,11.0094219 4.17042467,10.9734741 3.86430107,10.9327072 C3.54157305,10.8897291 3.22582022,10.8437157 2.92983088,10.7976895 C2.7518733,10.7700173 2.61961915,10.7484171 2.54596229,10.7359155 Z" id="Stroke-9" fill="#DCAE4E" fill-rule="nonzero"></path>
                            <path d="M2.54596229,8.71122415 L2.71329697,7.725324 C2.7826023,7.73708704 2.91034304,7.75795005 3.08348355,7.78487327 C3.37265769,7.82983962 3.68131256,7.87481868 3.99630696,7.91676689 C4.29389297,7.9563968 4.58207274,7.99126904 4.8550208,8.02006701 C5.38431409,8.07591126 5.83353296,8.10650864 6.17283951,8.10650864 C6.51214605,8.10650864 6.96136493,8.07591126 7.49065821,8.02006701 C7.76360627,7.99126904 8.05178604,7.9563968 8.34937205,7.91676689 C8.66436645,7.87481868 8.97302132,7.82983962 9.26219546,7.78487327 C9.43533597,7.75795005 9.56307671,7.73708704 9.63238204,7.725324 L9.79971672,8.71122415 C9.72605986,8.72372577 9.59380572,8.74532592 9.41584813,8.77299818 C9.11985879,8.8190243 8.80410597,8.86503772 8.48137795,8.90801582 C8.17525434,8.9487827 7.87818553,8.98473058 7.59558301,9.01454717 C7.03443211,9.07375262 6.55352101,9.10650864 6.17283951,9.10650864 C5.792158,9.10650864 5.3112469,9.07375262 4.750096,9.01454717 C4.46749348,8.98473058 4.17042467,8.9487827 3.86430107,8.90801582 C3.54157305,8.86503772 3.22582022,8.8190243 2.92983088,8.77299818 C2.7518733,8.74532592 2.61961915,8.72372577 2.54596229,8.71122415 Z" id="Stroke-11" fill="#DCAE4E" fill-rule="nonzero"></path>
                            <path d="M20.117284,16.5740741 C20.6760988,16.5740741 21.1296296,17.0276049 21.1296296,17.5864198 C21.1296296,18.1452346 20.6760988,18.5987654 20.117284,18.5987654 C19.5584691,18.5987654 19.1049383,18.1452346 19.1049383,17.5864198 C19.1049383,17.0276049 19.5584691,16.5740741 20.117284,16.5740741" id="Fill-13" fill="#DCAE4E"></path>
                            <path d="M21.5018691,5.64094321 C23.9097333,6.35464691 25.6671654,8.58990617 25.6671654,11.2361778 C25.6671654,14.4579679 23.0629062,17.0698198 19.8507333,17.0698198 C16.6390667,17.0698198 14.0353136,14.4579679 14.0353136,11.2361778 C14.0353136,8.63191852 15.7360543,6.42601728 18.0852025,5.67637531" id="Stroke-17" fill="#FFFFFF"></path>
                            <path d="M21.3597769,6.12032803 C21.09502,6.04185268 20.944009,5.76360794 21.0224843,5.49885101 C21.1009597,5.23409408 21.3792044,5.08308303 21.6439613,5.16155839 C24.3059274,5.95057924 26.1671654,8.41133918 26.1671654,11.2361778 C26.1671654,14.7337426 23.3394172,17.5698198 19.8507333,17.5698198 C16.3625537,17.5698198 13.5353136,14.7337408 13.5353136,11.2361778 C13.5353136,8.45841603 15.3339772,6.02948394 17.9331982,5.20004064 C18.1962706,5.11609102 18.4775875,5.26129871 18.5615371,5.52437108 C18.6454868,5.78744345 18.5002791,6.06876036 18.2372067,6.15270997 C16.0500919,6.85064511 14.5353136,8.89621588 14.5353136,11.2361778 C14.5353136,14.1821536 16.9155384,16.5698198 19.8507333,16.5698198 C22.786473,16.5698198 25.1671654,14.1821152 25.1671654,11.2361778 C25.1671654,8.85673109 23.5995855,6.78421914 21.3597769,6.12032803 Z" id="Stroke-17-Copy" fill="#DCAE4E" fill-rule="nonzero"></path>
                        </g>
                    </g>
                    <path d="M62.2835381,28 L83.7164619,28 C86.6342958,28 89,30.6865 89,34 C89,37.3135 86.6342958,40 83.7164619,40 L62.2835381,40 C59.3657042,40 57,37.3135 57,34 C57,30.6865 59.3657042,28 62.2835381,28 Z" id="Fill-1" fill="#DCAE4E"></path>
                    <path d="M64.176,30.063 L64.482,30.594 C63.96,30.828 63.411,31.017 62.853,31.17 L62.853,33.429 L65.265,33.429 L65.265,30.099 L65.922,30.099 L65.922,33.429 L68.001,33.429 L68.001,34.059 L65.922,34.059 L65.922,38.253 L65.265,38.253 L65.265,34.059 L62.844,34.059 C62.736,35.967 61.998,37.362 60.612,38.262 L60.126,37.839 C61.404,37.029 62.088,35.769 62.178,34.059 L60,34.059 L60,33.429 L62.187,33.429 L62.187,31.332 C61.611,31.458 61.008,31.539 60.396,31.593 L60.189,31.008 C61.773,30.855 63.105,30.54 64.176,30.063 Z M72.137,36.363 L72.137,36.975 C71.345,37.299 70.454,37.56 69.446,37.749 L69.365,37.119 C70.418,36.93 71.345,36.678 72.137,36.363 Z M71.039,30 L71.651,30.243 C71.183,31.377 70.706,32.277 70.22,32.943 C70.652,32.898 71.084,32.844 71.516,32.772 C71.687,32.466 71.867,32.151 72.056,31.818 L72.623,32.025 C71.777,33.483 71.084,34.527 70.526,35.148 C71.174,35.031 71.831,34.869 72.479,34.671 L72.479,35.256 C71.525,35.544 70.607,35.733 69.734,35.841 L69.563,35.256 C69.68,35.211 69.779,35.148 69.86,35.076 C70.22,34.734 70.652,34.167 71.156,33.357 C70.634,33.438 70.112,33.51 69.59,33.573 L69.428,32.979 C69.527,32.943 69.617,32.862 69.698,32.745 C70.211,31.944 70.661,31.026 71.039,30 Z M73.496,30.99 L72.605,30.99 L72.605,30.378 L76.556,30.378 L76.556,30.783 C76.412,31.593 76.268,32.286 76.124,32.862 L77.267,32.862 L77.267,33.222 C77.078,34.464 76.664,35.517 76.016,36.372 C76.484,36.876 77.033,37.317 77.663,37.713 L77.258,38.253 C76.628,37.839 76.079,37.371 75.629,36.849 C75.089,37.425 74.423,37.893 73.649,38.271 L73.289,37.677 C74.045,37.308 74.684,36.849 75.197,36.309 C74.657,35.58 74.243,34.752 73.964,33.834 C73.694,35.733 73.1,37.2 72.191,38.226 L71.714,37.803 C72.884,36.489 73.478,34.383 73.496,31.476 L73.496,30.99 Z M75.575,35.859 C76.097,35.166 76.439,34.356 76.619,33.429 L75.368,33.429 C75.53,32.871 75.701,32.061 75.89,30.99 L74.126,30.99 L74.126,31.476 C74.126,31.809 74.117,32.133 74.099,32.439 C74.324,33.753 74.819,34.896 75.575,35.859 Z M82.672,30.918 C81.862,30.954 80.98,30.981 80.044,30.981 L79.855,30.432 C82.213,30.423 84.175,30.288 85.741,30.036 L86.029,30.54 C85.255,30.684 84.364,30.801 83.338,30.873 L83.338,31.593 L86.866,31.593 L86.866,32.187 L84.166,32.187 C84.769,32.817 85.723,33.312 87.037,33.672 L86.749,34.275 C85.219,33.744 84.148,33.051 83.536,32.187 L83.338,32.187 L83.338,33.717 L82.672,33.717 L82.672,32.187 L82.474,32.187 C81.916,32.997 80.872,33.708 79.333,34.302 L78.982,33.735 C80.35,33.276 81.295,32.763 81.817,32.187 L79.144,32.187 L79.144,31.593 L82.672,31.593 L82.672,30.918 Z M79.315,35.859 L82.879,35.859 L82.879,35.328 C83.5,35.04 83.968,34.797 84.292,34.617 L80.602,34.617 L80.602,34.05 L85.156,34.05 L85.156,34.617 C84.67,34.941 84.13,35.265 83.536,35.58 L83.536,35.859 L86.686,35.859 L86.686,36.453 L83.536,36.453 L83.536,37.479 C83.536,37.965 83.257,38.208 82.717,38.208 L81.601,38.208 L81.439,37.623 C81.763,37.632 82.114,37.641 82.492,37.641 C82.744,37.641 82.879,37.515 82.879,37.272 L82.879,36.453 L79.315,36.453 L79.315,35.859 Z" id="升级季" fill="#FFFFFF"></path>
                    <path d="M19.811,52.732 C19.153,53.796 18.397,54.734 17.529,55.518 L16.885,54.734 C18.089,53.642 19.069,52.228 19.839,50.464 L20.861,50.702 C20.693,51.066 20.525,51.43 20.357,51.766 L28.981,51.766 L28.981,52.732 L19.811,52.732 Z M22.065,58.346 C23.101,58.71 24.039,59.144 24.893,59.662 L24.417,60.39 C23.493,59.802 22.555,59.34 21.603,59.004 L22.065,58.346 Z M18.495,61.398 C18.705,60.306 18.873,59.186 18.999,58.066 L16.731,58.066 L16.731,57.114 L19.097,57.114 C19.195,56.05 19.251,54.972 19.279,53.894 L27.973,53.894 L27.875,57.114 L29.639,57.114 L29.639,58.066 L27.833,58.066 C27.791,59.046 27.749,59.844 27.721,60.46 L29.261,60.46 L29.261,61.398 L27.651,61.398 C27.623,61.762 27.581,62 27.553,62.112 C27.427,62.546 27.189,62.868 26.825,63.092 C26.489,63.288 25.971,63.386 25.299,63.386 C24.823,63.386 24.263,63.4 23.647,63.4 L23.339,62.462 C24.011,62.49 24.613,62.518 25.145,62.518 C25.481,62.518 25.775,62.476 26.027,62.406 C26.279,62.308 26.475,62.098 26.601,61.79 C26.629,61.734 26.643,61.594 26.671,61.398 L18.495,61.398 Z M26.755,60.46 C26.783,59.844 26.825,59.046 26.867,58.066 L20.007,58.066 C19.909,58.934 19.797,59.732 19.657,60.46 L26.755,60.46 Z M20.105,57.114 L24.459,57.114 C23.563,56.554 22.639,56.106 21.715,55.77 L22.177,55.098 C23.199,55.462 24.137,55.896 24.977,56.414 L24.515,57.114 L26.895,57.114 C26.923,56.414 26.937,55.658 26.965,54.832 L20.231,54.832 C20.203,55.644 20.161,56.4 20.105,57.114 Z M37.333,53.656 C36.899,54.958 36.325,56.022 35.611,56.834 L34.771,56.246 C35.919,54.874 36.661,52.956 36.997,50.52 L38.005,50.674 C37.893,51.402 37.767,52.074 37.613,52.69 L43.493,52.69 L43.493,53.348 C43.199,54.538 42.821,55.714 42.345,56.876 L41.351,56.596 C41.785,55.728 42.135,54.748 42.415,53.656 L37.333,53.656 Z M38.775,54.608 L39.755,54.608 C39.755,55.364 39.713,56.064 39.643,56.708 C40.483,59.2 41.953,61.174 44.067,62.63 L43.409,63.4 C41.589,62.028 40.245,60.348 39.349,58.332 C39.265,58.682 39.167,59.004 39.055,59.312 C38.453,60.992 37.081,62.364 34.925,63.428 L34.267,62.63 C36.171,61.706 37.431,60.53 38.061,59.13 C38.509,57.94 38.747,56.428 38.775,54.608 Z M32.083,51.164 C33.175,52.256 34.015,53.208 34.603,54.02 L33.819,54.58 C33.189,53.712 32.335,52.732 31.271,51.668 L32.083,51.164 Z M33.791,57.17 L34.673,57.506 C33.889,59.438 33.021,61.258 32.055,62.952 L31.117,62.532 C32.153,60.782 33.035,58.99 33.791,57.17 Z M46.735,50.786 C47.673,51.514 48.457,52.242 49.101,52.97 L48.401,53.67 C47.827,52.97 47.043,52.228 46.049,51.444 L46.735,50.786 Z M54.869,63.148 C54.113,63.148 53.273,63.134 52.377,63.12 C51.481,63.106 50.739,63.022 50.179,62.868 C49.633,62.7 49.143,62.35 48.709,61.846 C48.513,61.608 48.331,61.496 48.163,61.496 C47.813,61.496 47.253,62.14 46.469,63.456 L45.713,62.77 C46.469,61.58 47.127,60.852 47.715,60.6 L47.715,56.344 L45.727,56.344 L45.727,55.42 L48.653,55.42 L48.653,60.656 C48.765,60.74 48.877,60.852 48.989,60.978 C49.325,61.384 49.689,61.678 50.081,61.86 C50.515,62.056 51.145,62.168 51.985,62.196 C52.713,62.21 53.637,62.224 54.729,62.224 C55.401,62.224 56.087,62.21 56.787,62.196 C57.459,62.182 57.991,62.168 58.369,62.14 L58.117,63.148 L54.869,63.148 Z M53.665,50.52 L54.645,50.52 L54.645,52.312 L57.445,52.312 L57.445,53.278 L54.645,53.278 L54.645,55.28 L57.935,55.28 L57.935,56.26 L55.583,56.26 L55.583,60.012 C55.583,60.264 55.723,60.404 56.031,60.404 L56.535,60.404 C56.731,60.404 56.871,60.362 56.983,60.278 C57.151,60.152 57.263,59.592 57.319,58.598 L58.201,58.892 C58.117,60.054 57.963,60.74 57.753,60.964 C57.557,61.16 57.221,61.272 56.745,61.286 L55.737,61.286 C55.373,61.286 55.107,61.188 54.925,60.992 C54.729,60.796 54.645,60.544 54.645,60.236 L54.645,56.26 L53.231,56.26 C53.189,57.226 53.049,58.066 52.811,58.766 C52.447,59.83 51.593,60.712 50.277,61.398 L49.619,60.6 C50.753,60.04 51.495,59.34 51.859,58.5 C52.097,57.884 52.237,57.128 52.279,56.26 L50.025,56.26 L50.025,55.28 L53.665,55.28 L53.665,53.278 L51.397,53.278 C51.145,53.81 50.865,54.286 50.557,54.734 L49.675,54.188 C50.431,53.138 50.977,51.976 51.313,50.716 L52.279,50.912 C52.139,51.402 51.985,51.864 51.817,52.312 L53.665,52.312 L53.665,50.52 Z M59.847,52.004 L66.413,52.004 L66.413,52.942 L62.731,62 L61.513,62 L65.237,53.054 L59.847,53.054 L59.847,52.004 Z M71.097,50.478 L72.049,50.912 C71.685,52.018 71.223,53.068 70.663,54.062 L70.663,63.414 L69.669,63.414 L69.669,55.602 C69.221,56.218 68.731,56.806 68.199,57.366 L67.877,56.288 C69.361,54.608 70.425,52.662 71.097,50.478 Z M73.449,51.402 L74.443,51.528 C74.331,52.228 74.177,52.9 73.981,53.516 L76.039,53.516 L76.039,50.604 L77.047,50.604 L77.047,53.516 L80.267,53.516 L80.267,54.496 L77.047,54.496 L77.047,57.87 L80.785,57.87 L80.785,58.836 L77.047,58.836 L77.047,63.344 L76.039,63.344 L76.039,58.836 L71.923,58.836 L71.923,57.87 L76.039,57.87 L76.039,54.496 L73.659,54.496 C73.309,55.42 72.875,56.246 72.357,56.974 L71.713,56.134 C72.567,54.846 73.141,53.264 73.449,51.402 Z" id="每次选7件" fill="#242424"></path>
                    <path d="M1.26,71.432 L6.24,71.432 L6.24,72.308 L2.064,72.308 L1.776,75.176 L1.824,75.176 C2.064,74.888 2.376,74.672 2.748,74.528 C3.084,74.384 3.444,74.324 3.84,74.324 C4.656,74.324 5.316,74.576 5.82,75.092 C6.324,75.62 6.588,76.34 6.588,77.264 C6.588,78.128 6.276,78.836 5.664,79.388 C5.088,79.904 4.368,80.168 3.528,80.168 C2.772,80.168 2.124,79.964 1.596,79.556 C0.996,79.1 0.672,78.476 0.612,77.696 L1.584,77.696 C1.632,78.236 1.848,78.656 2.232,78.944 C2.568,79.196 3.012,79.328 3.54,79.328 C4.14,79.328 4.632,79.136 5.028,78.752 C5.412,78.368 5.616,77.876 5.616,77.276 C5.616,76.592 5.424,76.064 5.064,75.692 C4.716,75.308 4.224,75.128 3.6,75.128 C3.192,75.128 2.832,75.212 2.508,75.392 C2.172,75.56 1.908,75.824 1.74,76.16 L0.804,76.16 L1.26,71.432 Z M10.6868572,70.124 L11.5028572,70.496 C11.1908572,71.444 10.7948572,72.344 10.3148572,73.196 L10.3148572,81.212 L9.46285715,81.212 L9.46285715,74.516 C9.07885715,75.044 8.65885715,75.548 8.20285715,76.028 L7.92685715,75.104 C9.19885715,73.664 10.1108572,71.996 10.6868572,70.124 Z M12.7028572,70.916 L13.5548572,71.024 C13.4588572,71.624 13.3268572,72.2 13.1588572,72.728 L14.9228572,72.728 L14.9228572,70.232 L15.7868572,70.232 L15.7868572,72.728 L18.5468572,72.728 L18.5468572,73.568 L15.7868572,73.568 L15.7868572,76.46 L18.9908572,76.46 L18.9908572,77.288 L15.7868572,77.288 L15.7868572,81.152 L14.9228572,81.152 L14.9228572,77.288 L11.3948572,77.288 L11.3948572,76.46 L14.9228572,76.46 L14.9228572,73.568 L12.8828572,73.568 C12.5828572,74.36 12.2108572,75.068 11.7668572,75.692 L11.2148572,74.972 C11.9468572,73.868 12.4388572,72.512 12.7028572,70.916 Z M25.8977143,72.872 L25.8017143,72.872 C25.3217143,73.94 24.6737143,74.912 23.8697143,75.788 L23.8697143,79.976 C24.9617143,79.676 25.9817143,79.316 26.9177143,78.908 L27.0737143,79.76 C25.8977143,80.228 24.4817143,80.672 22.8377143,81.104 L22.6337143,80.276 C22.8737143,80.18 23.0057143,80.036 23.0057143,79.82 L23.0057143,76.628 C22.3817143,77.18 21.6857143,77.684 20.9297143,78.14 L20.4737143,77.396 C22.5257143,76.22 24.0017143,74.72 24.9017143,72.872 L20.7497143,72.872 L20.7497143,72.044 L25.5377143,72.044 C25.2977143,71.42 25.0457143,70.856 24.7577143,70.34 L25.6817143,70.196 C25.9457143,70.736 26.1857143,71.348 26.4257143,72.044 L31.0217143,72.044 L31.0217143,72.872 L26.7377143,72.872 C26.9297143,74.048 27.2537143,75.128 27.7337143,76.088 C28.5377143,75.644 29.2937143,74.972 30.0137143,74.06 L30.6257143,74.684 C29.8817143,75.596 29.0537143,76.304 28.1177143,76.784 C28.8857143,78.092 29.9417143,79.196 31.2617143,80.096 L30.7217143,80.984 C28.0337143,79.04 26.4257143,76.328 25.8977143,72.872 Z M34.4125715,74.3 L34.4125715,76.304 L36.3445715,76.304 L36.3445715,74.3 L34.4125715,74.3 Z M36.3445715,73.52 L36.3445715,71.492 L34.4125715,71.492 L34.4125715,73.52 L36.3445715,73.52 Z M34.4005715,77.084 C34.3285715,78.764 34.0405715,80.144 33.5485715,81.224 L32.9005715,80.624 C33.3805715,79.544 33.6205715,78.152 33.6325715,76.472 L33.6325715,70.712 L37.1365715,70.712 L37.1365715,80.072 C37.1365715,80.792 36.8005715,81.164 36.1285715,81.164 L35.1685715,81.164 L34.9645715,80.396 C35.3005715,80.42 35.6005715,80.444 35.8885715,80.444 C36.1885715,80.444 36.3445715,80.228 36.3445715,79.796 L36.3445715,77.084 L34.4005715,77.084 Z M38.9605715,75.896 L38.9605715,81.212 L38.1445715,81.212 L38.1445715,70.7 L43.0045715,70.7 C43.0045715,72.188 42.9325715,73.172 42.7885715,73.652 C42.6445715,74.144 42.2005715,74.396 41.4445715,74.396 L40.4725715,74.396 L40.2445715,73.652 C40.4485715,73.652 40.7125715,73.664 41.0485715,73.664 C41.3365715,73.664 41.5405715,73.64 41.6845715,73.604 C41.8285715,73.556 41.9365715,73.436 42.0085715,73.256 C42.0925715,72.992 42.1405715,72.404 42.1645715,71.492 L38.9605715,71.492 L38.9605715,75.128 L43.0405715,75.128 L43.0405715,75.86 C42.8125715,77.096 42.4165715,78.152 41.8645715,79.016 C42.4045715,79.544 43.0405715,80.012 43.7725715,80.432 L43.3405715,81.164 C42.5725715,80.72 41.9245715,80.228 41.3725715,79.688 C40.8445715,80.3 40.2325715,80.792 39.5125715,81.176 L39.0565715,80.48 C39.7405715,80.108 40.3165715,79.64 40.7965715,79.064 C40.0285715,78.128 39.5125715,77.072 39.2485715,75.896 L38.9605715,75.896 Z M39.9925715,75.896 C40.2445715,76.82 40.6765715,77.648 41.2885715,78.392 C41.7325715,77.672 42.0565715,76.844 42.2725715,75.896 L39.9925715,75.896 Z M47.7994286,73.868 L48.6154286,73.868 L48.6154286,76.484 L51.2314286,76.484 L51.2314286,77.3 L48.6154286,77.3 L48.6154286,79.928 L47.7994286,79.928 L47.7994286,77.3 L45.1714286,77.3 L45.1714286,76.484 L47.7994286,76.484 L47.7994286,73.868 Z M55.8942858,71.264 C56.6862858,71.264 57.3342858,71.492 57.8502858,71.948 C58.3542858,72.404 58.6182858,73.016 58.6182858,73.76 C58.6182858,74.504 58.3302858,75.176 57.7782858,75.776 C57.4782858,76.088 56.8902858,76.556 56.0022858,77.156 C54.9102858,77.888 54.2862858,78.548 54.1302858,79.124 L58.6302858,79.124 L58.6302858,80 L52.9182858,80 C52.9182858,79.22 53.1942858,78.512 53.7702858,77.876 C54.1062858,77.492 54.7182858,76.976 55.6302858,76.352 C56.3022858,75.872 56.7462858,75.524 56.9742858,75.284 C57.4062858,74.816 57.6342858,74.3 57.6342858,73.748 C57.6342858,73.22 57.4782858,72.824 57.1662858,72.536 C56.8542858,72.248 56.4102858,72.104 55.8582858,72.104 C55.2702858,72.104 54.8142858,72.296 54.5022858,72.704 C54.1662858,73.088 53.9862858,73.664 53.9742858,74.42 L52.9902858,74.42 C52.9902858,73.46 53.2662858,72.692 53.7942858,72.128 C54.3222858,71.552 55.0302858,71.264 55.8942858,71.264 Z M62.8611429,70.124 L63.6771429,70.496 C63.3651429,71.444 62.9691429,72.344 62.4891429,73.196 L62.4891429,81.212 L61.6371429,81.212 L61.6371429,74.516 C61.2531429,75.044 60.8331429,75.548 60.3771429,76.028 L60.1011429,75.104 C61.3731429,73.664 62.2851429,71.996 62.8611429,70.124 Z M64.8771429,70.916 L65.7291429,71.024 C65.6331429,71.624 65.5011429,72.2 65.3331429,72.728 L67.0971429,72.728 L67.0971429,70.232 L67.9611429,70.232 L67.9611429,72.728 L70.7211429,72.728 L70.7211429,73.568 L67.9611429,73.568 L67.9611429,76.46 L71.1651429,76.46 L71.1651429,77.288 L67.9611429,77.288 L67.9611429,81.152 L67.0971429,81.152 L67.0971429,77.288 L63.5691429,77.288 L63.5691429,76.46 L67.0971429,76.46 L67.0971429,73.568 L65.0571429,73.568 C64.7571429,74.36 64.3851429,75.068 63.9411429,75.692 L63.3891429,74.972 C64.1211429,73.868 64.6131429,72.512 64.8771429,70.916 Z M83.5080001,77.984 C83.4240001,79.232 83.2920001,80.036 83.1000001,80.408 C82.9080001,80.768 82.5360001,80.96 81.9600001,80.96 L79.5840001,80.96 C79.0080001,80.96 78.7200001,80.576 78.7200001,79.82 L78.7200001,74.732 L81.9960001,74.732 L81.9960001,71.528 L78.5160001,71.528 L78.5160001,70.712 L82.8360001,70.712 L82.8360001,75.572 L79.5600001,75.572 L79.5600001,79.508 C79.5600001,79.916 79.6800001,80.132 79.9320001,80.144 L81.8160001,80.144 C82.1520001,80.144 82.3680001,79.976 82.4640001,79.64 C82.5600001,79.316 82.6200001,78.668 82.6560001,77.708 L83.5080001,77.984 Z M72.6600001,70.7 L78.1200001,70.7 L78.1200001,71.516 L76.5600001,71.516 L76.5600001,72.908 L77.9280001,72.908 L77.9280001,81.152 L77.1600001,81.152 L77.1600001,80.504 L73.7400001,80.504 L73.7400001,81.152 L72.9720001,81.152 L72.9720001,72.908 L74.2800001,72.908 L74.2800001,71.516 L72.6600001,71.516 L72.6600001,70.7 Z M73.7400001,79.688 L77.1600001,79.688 L77.1600001,78.524 L73.7400001,78.524 L73.7400001,79.688 Z M74.4480001,73.7 L73.7400001,73.7 L73.7400001,77.732 L77.1600001,77.732 L77.1600001,76.688 L76.5480001,76.688 C76.0440001,76.688 75.7920001,76.412 75.7920001,75.86 L75.7920001,73.7 L75.0360001,73.7 L75.0360001,74.48 C75.0120001,75.764 74.7480001,76.7 74.2440001,77.3 L73.7880001,76.88 C74.2200001,76.376 74.4360001,75.584 74.4480001,74.48 L74.4480001,73.7 Z M75.0240001,72.908 L75.8160001,72.908 L75.8160001,71.516 L75.0240001,71.516 L75.0240001,72.908 Z M77.1600001,76.016 L77.1600001,73.7 L76.3920001,73.7 L76.3920001,75.704 C76.3920001,75.908 76.4880001,76.016 76.6920001,76.016 L77.1600001,76.016 Z M92.3468572,72.488 L91.0268572,72.488 C90.6068572,73.52 90.0668572,74.444 89.3948572,75.26 L88.8788572,74.576 C89.8508572,73.376 90.5108572,71.888 90.8468572,70.136 L91.6868572,70.244 C91.5908572,70.748 91.4708572,71.216 91.3268572,71.648 L95.7548572,71.648 L95.7548572,72.488 L93.1868572,72.488 L93.1868572,74.42 L95.4188572,74.42 L95.4188572,79.004 C95.4188572,79.652 95.0948572,79.976 94.4468572,79.976 L93.7988572,79.976 L93.5828572,79.196 L94.1828572,79.232 C94.4468572,79.232 94.5908572,79.088 94.5908572,78.812 L94.5908572,75.212 L93.1868572,75.212 L93.1868572,81.164 L92.3468572,81.164 L92.3468572,75.212 L90.9188572,75.212 L90.9188572,80.06 L90.0908572,80.06 L90.0908572,74.42 L92.3468572,74.42 L92.3468572,72.488 Z M86.5868572,73.028 C86.2628572,74.012 85.8548572,74.852 85.3508572,75.524 L84.7988572,74.84 C85.5548572,73.7 86.0708572,72.176 86.3468572,70.256 L87.1868572,70.4 C87.0908572,71.06 86.9588572,71.672 86.8148572,72.236 L89.1548572,72.236 L89.1548572,72.908 C88.8308572,73.64 88.4708572,74.264 88.0628572,74.768 L87.4508572,74.276 C87.7388572,73.916 87.9908572,73.508 88.2308572,73.028 L86.5868572,73.028 Z M86.5148572,74.6 L87.3668572,74.6 L87.3668572,79.82 C87.8948572,79.544 88.4348572,79.172 88.9868572,78.704 L89.1428572,79.508 C88.4108572,80.084 87.5588572,80.552 86.5988572,80.936 L86.2508572,80.204 C86.4188572,80.096 86.5148572,79.94 86.5148572,79.724 L86.5148572,74.6 Z" id="5件衣服+2件配饰" fill="#989898"></path>
                </g>
            </g>
        </g>
    </g>
</svg>