<?xml version="1.0" encoding="UTF-8"?>
<svg width="88px" height="83px" viewBox="0 0 88 83" version="1.1" xmlns="http://www.w3.org/2000/svg" xmlns:xlink="http://www.w3.org/1999/xlink">
    <!-- Generator: Sketch 49.2 (51160) - http://www.bohemiancoding.com/sketch -->
    <title>暂停会员-年卡</title>
    <desc>Created with Sketch.</desc>
    <defs></defs>
    <g id="Page-1" stroke="none" stroke-width="1" fill="none" fill-rule="evenodd">
        <g id="会员中心-copy-2" transform="translate(-259.000000, -454.000000)">
            <g id="暂停会员-年卡" transform="translate(245.000000, 446.000000)">
                <g id="暂停会员">
                    <rect id="Rectangle-100-Copy-4" x="0" y="0" width="115" height="113"></rect>
                    <path d="M58,8 C69.0455,8 78,16.9545 78,28 C78,39.0455 69.0455,48 58,48 C46.9545,48 38,39.0455 38,28 C38,16.9545 46.9545,8 58,8 Z" id="Path" fill="#FDF9F2"></path>
                    <path d="M58,8.5 C47.2306424,8.5 38.5,17.2306424 38.5,28 C38.5,38.7693576 47.2306424,47.5 58,47.5 C68.7693576,47.5 77.5,38.7693576 77.5,28 C77.5,17.2306424 68.7693576,8.5 58,8.5 Z M58,8 C69.0455,8 78,16.9545 78,28 C78,39.0455 69.0455,48 58,48 C46.9545,48 38,39.0455 38,28 C38,16.9545 46.9545,8 58,8 Z" id="Stroke-3-Copy" fill="#DCAE4E" fill-rule="nonzero"></path>
                    <path d="M46,20 C46,19.448 46.448,19 47,19 L69,19 C69.552,19 70,19.448 70,20 L70,36 C70,36.552 69.552,37 69,37 L47,37 C46.724,37 46.488,36.9025 46.2925,36.7075 C46.0975,36.512 46,36.276 46,36 L46,20 Z" id="Path" fill="#FFFFFF"></path>
                    <path d="M46.9987008,35.9994884 C47.0026857,36.0034631 47.0001797,36.003591 46.9980929,36.0027252 C46.9959563,35.9993676 46.9956315,35.9964089 46.9987008,35.9994884 Z M47,36 L69,36 L69,20 L47,20 L47,36 Z M46,20 C46,19.448 46.448,19 47,19 L69,19 C69.552,19 70,19.448 70,20 L70,36 C70,36.552 69.552,37 69,37 L47,37 C46.724,37 46.488,36.9025 46.2925,36.7075 C46.0975,36.512 46,36.276 46,36 L46,20 Z" id="Stroke-7-Copy-2" fill="#DCAE4E" fill-rule="nonzero"></path>
                    <path d="M58.6178765,31.1427284 L57.8429259,31.1427284 L57.8429259,29.3448025 L58.6214198,29.3448025 C59.2333827,29.3448025 59.5866914,29.6677407 59.5866914,30.2422469 C59.5866914,30.8202963 59.2293333,31.1427284 58.6178765,31.1427284 Z M58.9043704,28.5075926 L56.7749012,28.5075926 L56.7749012,33.5637531 L57.8429259,33.5637531 L57.8429259,31.9693086 L58.8512222,31.9693086 C59.9263333,31.9693086 60.6724321,31.2758519 60.6724321,30.2387037 C60.6724321,29.1980123 59.9511358,28.5075926 58.9043704,28.5075926 Z M54.5679877,33.5637531 L55.6360123,33.5637531 L55.6360123,28.5075926 L54.5679877,28.5075926 L54.5679877,33.5637531 Z M51.4276914,32.4744691 L51.4023827,32.4744691 L50.2351481,28.5075926 L49.0395679,28.5075926 L50.7554938,33.5637531 L52.0426914,33.5637531 L53.7581111,28.5075926 L52.5944198,28.5075926 L51.4276914,32.4744691 Z" id="Fill-9" fill="#DCAE4E"></path>
                    <polygon id="Path" fill="#DCAE4E" points="46 25 70 25 70 24 46 24"></polygon>
                    <path d="M67.5,29 C69.9855,29 72,31.0145 72,33.5 C72,35.9855 69.9855,38 67.5,38 C65.0145,38 63,35.9855 63,33.5 C63,31.0145 65.0145,29 67.5,29 Z" id="Path" fill="#FFFFFF"></path>
                    <path d="M67.5,30 C65.5667847,30 64,31.5667847 64,33.5 C64,35.4332153 65.5667847,37 67.5,37 C69.4332153,37 71,35.4332153 71,33.5 C71,31.5667847 69.4332153,30 67.5,30 Z M67.5,29 C69.9855,29 72,31.0145 72,33.5 C72,35.9855 69.9855,38 67.5,38 C65.0145,38 63,35.9855 63,33.5 C63,31.0145 65.0145,29 67.5,29 Z" id="Stroke-12-Copy" fill="#DCAE4E" fill-rule="nonzero"></path>
                    <polygon id="Fill-13" fill="#DCAE4E" points="66 34 69 34 69 33 66 33"></polygon>
                </g>
                <path d="M30.362,60.122 L33.876,60.122 L33.876,60.878 C33.624,62.054 33.316,63.286 32.952,64.574 C33.554,65.764 33.876,66.8 33.918,67.668 C33.918,68.256 33.806,68.676 33.582,68.914 C33.26,69.236 32.714,69.404 31.93,69.418 L31.636,68.48 C31.93,68.508 32.182,68.522 32.378,68.522 C32.588,68.494 32.742,68.424 32.854,68.312 C32.938,68.186 32.994,67.976 32.994,67.668 C32.994,66.8 32.672,65.806 32.042,64.714 C32.434,63.356 32.742,62.124 32.952,61.018 L31.3,61.018 L31.3,72.302 L30.362,72.302 L30.362,60.122 Z M34.912,60.374 C35.472,61.214 35.892,61.956 36.186,62.572 L35.444,63.104 C35.122,62.404 34.702,61.648 34.17,60.836 L34.912,60.374 Z M39.882,71.238 C40.834,71.238 41.744,71.224 42.598,71.21 L42.346,72.162 L39.812,72.162 C39.42,72.162 39.014,72.148 38.622,72.134 C38.02,72.12 37.488,72.036 37.04,71.882 C36.592,71.7 36.214,71.406 35.906,71.014 C35.738,70.804 35.584,70.706 35.458,70.706 C35.178,70.706 34.646,71.252 33.862,72.372 L33.26,71.616 C33.96,70.664 34.548,70.062 35.038,69.838 L35.038,65.162 L33.848,65.162 L33.848,64.266 L35.976,64.266 L35.976,69.978 C36.004,70.02 36.046,70.062 36.074,70.09 C36.326,70.44 36.662,70.72 37.082,70.93 C37.446,71.084 37.894,71.182 38.412,71.21 C38.902,71.224 39.392,71.238 39.882,71.238 Z M36.522,60.906 L38.468,60.906 C38.552,60.458 38.636,60.024 38.706,59.576 L39.686,59.702 C39.602,60.122 39.518,60.514 39.434,60.906 L42.528,60.906 L42.528,61.83 L39.182,61.83 C39.042,62.334 38.874,62.796 38.706,63.23 L41.982,63.23 L41.982,69.404 C41.982,70.02 41.646,70.342 41.002,70.37 L39.98,70.37 L39.756,69.502 C40.092,69.53 40.4,69.558 40.708,69.558 C40.946,69.558 41.072,69.404 41.072,69.11 L41.072,68.046 L38.58,68.046 L38.58,70.412 L37.712,70.412 L37.712,65.12 C37.39,65.582 37.054,65.988 36.69,66.324 L36.172,65.652 C37.096,64.658 37.782,63.384 38.23,61.83 L36.522,61.83 L36.522,60.906 Z M38.58,66.086 L38.58,67.234 L41.072,67.234 L41.072,66.086 L38.58,66.086 Z M41.072,65.274 L41.072,64.028 L38.58,64.028 L38.58,65.274 L41.072,65.274 Z M48.78,60.612 L48.78,70.93 L47.8,70.93 L47.8,69.992 L45.728,69.992 L45.728,71.266 L44.748,71.266 L44.748,60.612 L48.78,60.612 Z M45.728,69.054 L47.8,69.054 L47.8,65.68 L45.728,65.68 L45.728,69.054 Z M45.728,64.742 L47.8,64.742 L47.8,61.536 L45.728,61.536 L45.728,64.742 Z M50.796,64.784 C51.664,66.1 52.336,67.248 52.798,68.228 L51.958,68.816 C51.468,67.766 50.81,66.59 49.97,65.302 L50.796,64.784 Z M53.988,72.26 L51.538,72.26 L51.328,71.28 C52.14,71.308 52.91,71.336 53.652,71.336 C54.058,71.336 54.268,71.112 54.268,70.678 L54.268,63.104 L49.424,63.104 L49.424,62.138 L54.268,62.138 L54.268,59.674 L55.29,59.674 L55.29,62.138 L57.012,62.138 L57.012,63.104 L55.29,63.104 L55.29,70.93 C55.29,71.812 54.856,72.26 53.988,72.26 Z M65.014,64.616 L65.014,65.442 C64.356,65.498 63.67,65.568 62.956,65.638 L62.956,66.716 L62.032,66.716 L62.032,65.708 C61.108,65.764 60.128,65.834 59.12,65.89 L58.994,64.994 C60.058,64.938 61.08,64.896 62.032,64.84 L62.032,63.678 L59.428,63.678 L59.204,62.88 C59.596,62.432 59.974,61.9 60.31,61.27 L58.812,61.27 L58.812,60.374 L60.758,60.374 C60.884,60.066 61.01,59.758 61.122,59.45 L62.13,59.618 C62.032,59.87 61.934,60.122 61.822,60.374 L65.238,60.374 L65.238,61.27 L61.402,61.27 C61.094,61.858 60.758,62.39 60.408,62.852 L62.032,62.852 L62.032,61.928 L62.956,61.928 L62.956,62.852 L65.14,62.852 L65.14,63.678 L62.956,63.678 L62.956,64.784 C63.684,64.728 64.37,64.672 65.014,64.616 Z M66.974,63.692 C66.82,64.868 66.442,65.89 65.84,66.758 L65.14,66.03 C65.756,65.12 66.092,64.042 66.12,62.782 L66.12,60.584 C67.856,60.416 69.228,60.108 70.208,59.66 L70.852,60.416 C69.816,60.864 68.556,61.186 67.044,61.354 L67.044,62.81 L71.244,62.81 L71.244,63.692 L69.76,63.692 L69.76,66.73 L68.794,66.73 L68.794,63.692 L66.974,63.692 Z M69.676,67.136 L69.676,72.4 L68.64,72.4 L68.64,71.854 L61.528,71.854 L61.528,72.4 L60.492,72.4 L60.492,67.136 L69.676,67.136 Z M61.528,70.986 L68.64,70.986 L68.64,69.894 L61.528,69.894 L61.528,70.986 Z M61.528,69.082 L68.64,69.082 L68.64,67.99 L61.528,67.99 L61.528,69.082 Z M75.774,59.492 L76.712,59.926 C76.39,60.962 75.998,61.956 75.536,62.88 L75.536,72.4 L74.514,72.4 L74.514,64.63 C74.122,65.218 73.688,65.792 73.226,66.324 L72.89,65.26 C74.206,63.58 75.172,61.648 75.774,59.492 Z M80.982,59.492 C81.122,59.842 81.248,60.248 81.388,60.696 L85.378,60.696 L85.378,61.592 L76.712,61.592 L76.712,60.696 L80.38,60.696 C80.254,60.332 80.114,59.982 79.96,59.66 L80.982,59.492 Z M77.636,62.404 L84.3,62.404 L84.3,65.05 L77.636,65.05 L77.636,62.404 Z M83.32,64.28 L83.32,63.174 L78.616,63.174 L78.616,64.28 L83.32,64.28 Z M85.406,65.862 L85.406,68.256 L84.65,68.256 L84.65,68.886 L81.626,68.886 L81.626,71.154 C81.626,71.91 81.206,72.302 80.394,72.302 L78.812,72.302 L78.602,71.322 C79.106,71.35 79.582,71.378 80.044,71.378 C80.408,71.378 80.59,71.21 80.59,70.902 L80.59,68.886 L77.524,68.886 L77.524,68.256 L76.586,68.256 L76.586,65.862 L85.406,65.862 Z M77.566,68.018 L84.44,68.018 L84.44,66.744 L77.566,66.744 L77.566,68.018 Z" id="随时暂停" fill="#242424"></path>
                <path d="M14.0885714,79.916 L24.7925714,79.916 L24.7925714,80.756 L23.2085714,80.756 L23.2085714,88.916 C23.2085714,89.708 22.8245714,90.116 22.0565714,90.116 L20.0525714,90.116 L19.8605714,89.276 C20.5205714,89.3 21.1565714,89.324 21.7565714,89.324 C22.1405714,89.324 22.3445714,89.108 22.3445714,88.7 L22.3445714,80.756 L14.0885714,80.756 L14.0885714,79.916 Z M20.1485714,82.592 L20.1485714,86.996 L16.3205714,86.996 L16.3205714,88.052 L15.4805714,88.052 L15.4805714,82.592 L20.1485714,82.592 Z M16.3205714,86.204 L19.3205714,86.204 L19.3205714,83.372 L16.3205714,83.372 L16.3205714,86.204 Z M31.2794285,90.164 L30.1754285,90.164 L29.9954285,89.348 C30.3434285,89.384 30.6674285,89.408 30.9794285,89.408 C31.2434285,89.408 31.3754285,89.252 31.3754285,88.964 L31.3754285,87.368 C29.8874285,87.44 28.5194285,87.488 27.2714285,87.512 L27.0914285,86.708 C27.3554285,86.72 27.6074285,86.732 27.8594285,86.732 C29.0354285,86.468 30.2594285,86.036 31.5194285,85.448 C30.3434285,85.496 29.2034285,85.568 28.0874285,85.64 L27.9194285,84.896 C28.2914285,84.896 28.5554285,84.86 28.7234285,84.812 C29.3114285,84.5 29.9234285,84.128 30.5594285,83.672 L27.6314285,83.672 L27.6314285,79.64 L35.9114285,79.64 L35.9114285,83.672 L31.7354285,83.672 C31.0634285,84.2 30.3554285,84.644 29.6354285,85.028 L32.7074285,84.848 C33.1514285,84.608 33.5954285,84.356 34.0394285,84.092 L34.7594285,84.56 C33.1754285,85.532 31.4594285,86.276 29.6234285,86.792 C31.3994285,86.744 33.1874285,86.648 34.9634285,86.528 C34.6994285,86.252 34.4114285,85.976 34.1234285,85.712 L34.7834285,85.292 C35.6714285,86.096 36.3434285,86.792 36.8114285,87.38 L36.1274285,87.872 C35.9354285,87.608 35.7194285,87.356 35.5034285,87.116 C34.3634285,87.188 33.2834285,87.26 32.2634285,87.32 L32.2634285,89.168 C32.2634285,89.828 31.9274285,90.164 31.2794285,90.164 Z M33.5234285,87.824 C34.7714285,88.232 35.9114285,88.712 36.9434285,89.276 L36.4874285,90.008 C35.3834285,89.36 34.2554285,88.844 33.1034285,88.472 L33.5234285,87.824 Z M29.7794285,87.836 L30.2954285,88.424 C29.3834285,89.048 28.2314285,89.564 26.8514285,89.984 L26.4674285,89.204 C27.8114285,88.844 28.9154285,88.388 29.7794285,87.836 Z M35.0834285,82.976 L35.0834285,82.004 L32.2034285,82.004 L32.2034285,82.976 L35.0834285,82.976 Z M32.2034285,81.308 L35.0834285,81.308 L35.0834285,80.336 L32.2034285,80.336 L32.2034285,81.308 Z M31.3394285,82.976 L31.3394285,82.004 L28.4594285,82.004 L28.4594285,82.976 L31.3394285,82.976 Z M28.4594285,81.308 L31.3394285,81.308 L31.3394285,80.336 L28.4594285,80.336 L28.4594285,81.308 Z M42.4102857,82.796 L45.6622857,82.796 L45.6622857,79.184 L46.5502857,79.184 L46.5502857,82.796 L49.6342857,82.796 L49.6342857,83.66 L46.5502857,83.66 L46.5502857,90.224 L45.6622857,90.224 L45.6622857,83.66 L42.4102857,83.66 L42.4102857,82.796 Z M40.0582857,79.316 C40.8742857,79.928 41.5582857,80.54 42.1102857,81.164 L41.5222857,81.764 C41.0182857,81.176 40.3222857,80.552 39.4582857,79.904 L40.0582857,79.316 Z M38.6542857,82.868 L41.2462857,82.868 L41.2462857,88.208 C41.6782857,87.848 42.1582857,87.44 42.6622857,86.96 L42.8782857,87.848 C42.1342857,88.568 41.3302857,89.204 40.4782857,89.768 L40.1422857,88.988 C40.3222857,88.844 40.4182857,88.676 40.4182857,88.484 L40.4182857,83.696 L38.6542857,83.696 L38.6542857,82.868 Z M56.4691428,83.528 L56.4691428,84.236 C55.9051428,84.284 55.3171428,84.344 54.7051428,84.404 L54.7051428,85.328 L53.9131428,85.328 L53.9131428,84.464 C53.1211428,84.512 52.2811428,84.572 51.4171428,84.62 L51.3091428,83.852 C52.2211428,83.804 53.0971428,83.768 53.9131428,83.72 L53.9131428,82.724 L51.6811428,82.724 L51.4891428,82.04 C51.8251428,81.656 52.1491428,81.2 52.4371428,80.66 L51.1531428,80.66 L51.1531428,79.892 L52.8211428,79.892 C52.9291428,79.628 53.0371428,79.364 53.1331428,79.1 L53.9971428,79.244 C53.9131428,79.46 53.8291428,79.676 53.7331428,79.892 L56.6611428,79.892 L56.6611428,80.66 L53.3731428,80.66 C53.1091428,81.164 52.8211428,81.62 52.5211428,82.016 L53.9131428,82.016 L53.9131428,81.224 L54.7051428,81.224 L54.7051428,82.016 L56.5771428,82.016 L56.5771428,82.724 L54.7051428,82.724 L54.7051428,83.672 C55.3291428,83.624 55.9171428,83.576 56.4691428,83.528 Z M58.1491428,82.736 C58.0171428,83.744 57.6931428,84.62 57.1771428,85.364 L56.5771428,84.74 C57.1051428,83.96 57.3931428,83.036 57.4171428,81.956 L57.4171428,80.072 C58.9051428,79.928 60.0811428,79.664 60.9211428,79.28 L61.4731428,79.928 C60.5851428,80.312 59.5051428,80.588 58.2091428,80.732 L58.2091428,81.98 L61.8091428,81.98 L61.8091428,82.736 L60.5371428,82.736 L60.5371428,85.34 L59.7091428,85.34 L59.7091428,82.736 L58.1491428,82.736 Z M60.4651428,85.688 L60.4651428,90.2 L59.5771428,90.2 L59.5771428,89.732 L53.4811428,89.732 L53.4811428,90.2 L52.5931428,90.2 L52.5931428,85.688 L60.4651428,85.688 Z M53.4811428,88.988 L59.5771428,88.988 L59.5771428,88.052 L53.4811428,88.052 L53.4811428,88.988 Z M53.4811428,87.356 L59.5771428,87.356 L59.5771428,86.42 L53.4811428,86.42 L53.4811428,87.356 Z M65.692,79.136 L66.496,79.508 C66.22,80.396 65.884,81.248 65.488,82.04 L65.488,90.2 L64.612,90.2 L64.612,83.54 C64.276,84.044 63.904,84.536 63.508,84.992 L63.22,84.08 C64.348,82.64 65.176,80.984 65.692,79.136 Z M70.156,79.136 C70.276,79.436 70.384,79.784 70.504,80.168 L73.924,80.168 L73.924,80.936 L66.496,80.936 L66.496,80.168 L69.64,80.168 C69.532,79.856 69.412,79.556 69.28,79.28 L70.156,79.136 Z M67.288,81.632 L73,81.632 L73,83.9 L67.288,83.9 L67.288,81.632 Z M72.16,83.24 L72.16,82.292 L68.128,82.292 L68.128,83.24 L72.16,83.24 Z M73.948,84.596 L73.948,86.648 L73.3,86.648 L73.3,87.188 L70.708,87.188 L70.708,89.132 C70.708,89.78 70.348,90.116 69.652,90.116 L68.296,90.116 L68.116,89.276 C68.548,89.3 68.956,89.324 69.352,89.324 C69.664,89.324 69.82,89.18 69.82,88.916 L69.82,87.188 L67.192,87.188 L67.192,86.648 L66.388,86.648 L66.388,84.596 L73.948,84.596 Z M67.228,86.444 L73.12,86.444 L73.12,85.352 L67.228,85.352 L67.228,86.444 Z M78.6468572,80.264 C79.6788572,80.264 80.4588572,80.648 80.9868572,81.416 C81.4908572,82.136 81.7428572,83.168 81.7428572,84.488 C81.7428572,85.856 81.4668572,86.96 80.9388572,87.824 C80.3628572,88.712 79.5948572,89.168 78.6348572,89.168 C77.0388572,89.168 76.1268572,88.4 75.8988572,86.876 L76.8708572,86.876 C77.0508572,87.848 77.6388572,88.34 78.6468572,88.34 C79.3068572,88.34 79.8348572,88.004 80.2308572,87.344 C80.6028572,86.708 80.7948572,85.904 80.7948572,84.944 C80.7948572,84.884 80.7828572,84.776 80.7828572,84.632 L80.7348572,84.632 C80.5188572,85.064 80.2068572,85.412 79.8108572,85.664 C79.4268572,85.904 78.9828572,86.036 78.4788572,86.036 C77.6508572,86.036 76.9908572,85.76 76.4868572,85.22 C75.9948572,84.704 75.7548572,84.032 75.7548572,83.204 C75.7548572,82.352 76.0188572,81.656 76.5708572,81.104 C77.1108572,80.54 77.8068572,80.264 78.6468572,80.264 Z M78.6708572,81.092 C78.0828572,81.092 77.6148572,81.284 77.2548572,81.68 C76.8948572,82.076 76.7268572,82.58 76.7268572,83.204 C76.7268572,83.804 76.8948572,84.296 77.2548572,84.656 C77.6028572,85.028 78.0708572,85.22 78.6708572,85.22 C79.2228572,85.22 79.6908572,85.028 80.0748572,84.644 C80.4348572,84.26 80.6268572,83.768 80.6268572,83.18 C80.6268572,82.58 80.4468572,82.088 80.0988572,81.704 C79.7388572,81.296 79.2588572,81.092 78.6708572,81.092 Z M86.2857143,80.264 C87.3057143,80.264 88.0737143,80.708 88.6017143,81.62 C89.0577143,82.388 89.2857143,83.42 89.2857143,84.716 C89.2857143,86.012 89.0577143,87.044 88.6017143,87.812 C88.0737143,88.712 87.3057143,89.168 86.2857143,89.168 C85.2537143,89.168 84.4857143,88.712 83.9697143,87.812 C83.5137143,87.044 83.2857143,86.012 83.2857143,84.716 C83.2857143,83.42 83.5137143,82.388 83.9697143,81.62 C84.4857143,80.708 85.2537143,80.264 86.2857143,80.264 Z M86.2857143,81.104 C85.5177143,81.104 84.9657143,81.512 84.6297143,82.34 C84.3897143,82.916 84.2697143,83.708 84.2697143,84.716 C84.2697143,85.712 84.3897143,86.504 84.6297143,87.092 C84.9657143,87.908 85.5177143,88.328 86.2857143,88.328 C87.0537143,88.328 87.6057143,87.908 87.9417143,87.092 C88.1817143,86.504 88.3137143,85.712 88.3137143,84.716 C88.3137143,83.708 88.1817143,82.916 87.9417143,82.34 C87.6057143,81.512 87.0537143,81.104 86.2857143,81.104 Z M91.1765715,83.444 L95.5325715,83.444 C95.6765715,82.628 95.7725715,81.704 95.8325715,80.684 L91.4885715,80.684 L91.4885715,79.844 L100.968571,79.844 L100.968571,80.684 L96.7085715,80.684 C96.6365715,81.716 96.5405715,82.628 96.3965715,83.444 L101.316571,83.444 L101.316571,84.272 L96.9005715,84.272 C97.7405715,86.552 99.3365715,88.316 101.688571,89.54 L101.148571,90.236 C98.6765715,88.892 97.0205715,86.984 96.1685715,84.512 C95.9645715,85.328 95.7125715,86.024 95.4005715,86.576 C94.5845715,87.992 93.2285715,89.216 91.3085715,90.236 L90.7685715,89.528 C92.5565715,88.616 93.8285715,87.524 94.5845715,86.252 C94.8965715,85.724 95.1485715,85.064 95.3525715,84.272 L91.1765715,84.272 L91.1765715,83.444 Z" id="可累计暂停90天" fill="#989898"></path>
            </g>
        </g>
    </g>
</svg>