<?xml version="1.0" encoding="UTF-8"?>
<svg width="22px" height="18px" viewBox="0 0 22 18" version="1.1" xmlns="http://www.w3.org/2000/svg" xmlns:xlink="http://www.w3.org/1999/xlink">
    <!-- Generator: Sketch 54.1 (76490) - https://sketchapp.com -->
    <title>Group</title>
    <desc>Created with Sketch.</desc>
    <defs>
        <polygon id="path-1" points="0 0 22 0 22 17.504 0 17.504"></polygon>
    </defs>
    <g id="服务评价" stroke="none" stroke-width="1" fill="none" fill-rule="evenodd">
        <g id="3.评价配饰-已选" transform="translate(-46.000000, -522.000000)">
            <g id="Group" transform="translate(0.000000, 238.000000)">
                <g id="弹框">
                    <g id="添加照片" transform="translate(16.000000, 263.000000)">
                        <g id="Group-2" transform="translate(19.000000, 21.000000)">
                            <g id="Group" transform="translate(11.000000, 0.000000)">
                                <mask id="mask-2" fill="white">
                                    <use xlink:href="#path-1"></use>
                                </mask>
                                <g id="Clip-2"></g>
                                <path d="M21,15.561 C21,16.081 20.5775,16.504 20.058,16.504 L1.942,16.504 C1.4225,16.504 1,16.081 1,15.561 L1,5.477 C1,4.8725 1.1375,4.2525 2.779,3.901 C3.628,3.7195 4.3105,3.5885 4.78,3.503 L4.2695,4.5485 L4.719,4.768 L4.719,4.768 L4.719,4.768 L5.168,4.9875 L5.275,4.768 L5.947,3.392 L6.4355,2.392 L6.828,1.5875 C7.0095,1.225 7.373,1 7.7775,1 L14.2225,1 C14.627,1 14.991,1.225 15.1695,1.583 L15.5645,2.392 L16.0525,3.392 L16.7245,4.768 L16.8315,4.9875 L17.2805,4.768 L17.281,4.768 L17.281,4.768 L17.73,4.5485 L17.211,3.4855 C17.6825,3.568 18.382,3.702 19.1995,3.8965 C21,4.324 21,5.1025 21,5.477 L21,15.561 Z M19.4305,2.9235 C17.8505,2.548 16.7085,2.392 16.7085,2.392 L16.677,2.392 L16.066,1.1405 C15.715,0.437 15.0085,0 14.2225,0 L7.7775,0 C6.992,0 6.2855,0.437 5.932,1.1445 L5.3215,2.394 C5.261,2.4035 4.232,2.5675 2.5695,2.9235 C0.856,3.29 0,4.057 0,5.477 L0,15.561 C0,16.634 0.8695,17.504 1.942,17.504 L20.058,17.504 C21.1305,17.504 22,16.634 22,15.561 L22,5.477 C22,4.057 21.0105,3.2985 19.4305,2.9235 L19.4305,2.9235 Z" id="Fill-1" fill="#B2B2AF" mask="url(#mask-2)"></path>
                                <path d="M10.5,14.006 C8.0185,14.006 6,11.986 6,9.503 C6,7.02 8.0185,5 10.5,5 C12.9815,5 15,7.02 15,9.503 C15,11.986 12.9815,14.006 10.5,14.006 M10.5,4 C7.4625,4 5,6.464 5,9.503 C5,12.542 7.4625,15.006 10.5,15.006 C13.5375,15.006 16,12.542 16,9.503 C16,6.464 13.5375,4 10.5,4" id="Fill-4" fill="#B2B2AF" mask="url(#mask-2)"></path>
                                <path d="M10.7915,6 C9.2525,6 8,7.253 8,8.793 C8,9.0695 8.2235,9.293 8.5,9.293 C8.7765,9.293 9,9.0695 9,8.793 C9,7.804 9.8035,7 10.7915,7 C11.068,7 11.2915,6.7765 11.2915,6.5 C11.2915,6.224 11.068,6 10.7915,6" id="Fill-6" fill="#B2B2AF" mask="url(#mask-2)"></path>
                                <path d="M2.646,6 C2.2895,6 2,6.2895 2,6.646 C2,7.003 2.2895,7.2925 2.646,7.2925 C3.0025,7.2925 3.292,7.003 3.292,6.646 C3.292,6.2895 3.0025,6 2.646,6" id="Fill-8" fill="#B2B2AF" mask="url(#mask-2)"></path>
                            </g>
                        </g>
                    </g>
                </g>
            </g>
        </g>
    </g>
</svg>