<?xml version="1.0" encoding="UTF-8"?>
<svg width="26px" height="26px" viewBox="0 0 26 26" version="1.1" xmlns="http://www.w3.org/2000/svg" xmlns:xlink="http://www.w3.org/1999/xlink">
    <!-- Generator: Sketch 54.1 (76490) - https://sketchapp.com -->
    <title>close</title>
    <desc>Created with Sketch.</desc>
    <g id="邀请好友提示" stroke="none" stroke-width="1" fill="none" fill-rule="evenodd">
        <g id="referral会员领取提示优化" transform="translate(-296.000000, -171.000000)">
            <g id="Group-2" transform="translate(63.000000, 172.000000)">
                <g id="close" transform="translate(234.000000, 0.000000)">
                    <circle id="Oval-2" stroke="#FFFFFF" cx="12" cy="12" r="12"></circle>
                    <path d="M12.7426407,12.0355339 L15.9246212,15.2175144 C16.1198833,15.4127766 16.1198833,15.7293591 15.9246212,15.9246212 C15.7293591,16.1198833 15.4127766,16.1198833 15.2175144,15.9246212 L12.0355339,12.7426407 L8.85355339,15.9246212 C8.65829124,16.1198833 8.34170876,16.1198833 8.14644661,15.9246212 C7.95118446,15.7293591 7.95118446,15.4127766 8.14644661,15.2175144 L11.3284271,12.0355339 L8.14644661,8.85355339 C7.95118446,8.65829124 7.95118446,8.34170876 8.14644661,8.14644661 C8.34170876,7.95118446 8.65829124,7.95118446 8.85355339,8.14644661 L12.0355339,11.3284271 L15.2175144,8.14644661 C15.4127766,7.95118446 15.7293591,7.95118446 15.9246212,8.14644661 C16.1198833,8.34170876 16.1198833,8.65829124 15.9246212,8.85355339 L12.7426407,12.0355339 Z" id="Combined-Shape" fill="#FFFFFF"></path>
                </g>
            </g>
        </g>
    </g>
</svg>