<?xml version="1.0" encoding="UTF-8"?>
<svg width="165px" height="114px" viewBox="0 0 165 114" version="1.1" xmlns="http://www.w3.org/2000/svg" xmlns:xlink="http://www.w3.org/1999/xlink">
    <!-- Generator: Sketch 54.1 (76490) - https://sketchapp.com -->
    <title>图</title>
    <desc>Created with Sketch.</desc>
    <defs>
        <polygon id="path-1" points="6.15384615e-05 0.00589958848 111.994062 0.00589958848 111.994062 111.846365 6.15384615e-05 111.846365"></polygon>
        <polygon id="path-3" points="0 111.846365 111.994154 111.846365 111.994154 0.00583813443 0 0.00583813443"></polygon>
        <path d="M55.9970769,0.00599176955 C25.0706154,0.00599176955 0,25.0420631 0,55.9261015 L0,55.9261015 L0,55.9262551 C0,86.8101399 25.0706154,111.846365 55.9970769,111.846365 L55.9970769,111.846365 L55.9972308,111.846365 C86.9233846,111.846365 111.994,86.8101399 111.994,55.9262551 L111.994,55.9262551 L111.994,55.9261015 C111.994,25.0420631 86.9233846,0.00599176955 55.9972308,0.00599176955 L55.9972308,0.00599176955" id="path-5"></path>
        <path d="M55.9970769,0.00599176955 C25.0706154,0.00599176955 0,25.0420631 0,55.9261015 L0,55.9261015 L0,55.9262551 C0,86.8101399 25.0706154,111.846365 55.9970769,111.846365 L55.9970769,111.846365 L55.9972308,111.846365 C86.9233846,111.846365 111.994,86.8101399 111.994,55.9262551 L111.994,55.9262551 L111.994,55.9261015 C111.994,25.0420631 86.9233846,0.00599176955 55.9972308,0.00599176955 L55.9972308,0.00599176955" id="path-7"></path>
        <path d="M55.9970769,0.00599176955 C25.0706154,0.00599176955 0,25.0420631 0,55.9261015 L0,55.9261015 L0,55.9262551 C0,86.8101399 25.0706154,111.846365 55.9970769,111.846365 L55.9970769,111.846365 L55.9972308,111.846365 C86.9233846,111.846365 111.994,86.8101399 111.994,55.9262551 L111.994,55.9262551 L111.994,55.9261015 C111.994,25.0420631 86.9233846,0.00599176955 55.9972308,0.00599176955 L55.9972308,0.00599176955" id="path-9"></path>
        <path d="M55.9970769,0.00599176955 C25.0706154,0.00599176955 0,25.0420631 0,55.9261015 L0,55.9261015 L0,55.9262551 C0,86.8101399 25.0706154,111.846365 55.9970769,111.846365 L55.9970769,111.846365 L55.9972308,111.846365 C86.9233846,111.846365 111.994,86.8101399 111.994,55.9262551 L111.994,55.9262551 L111.994,55.9261015 C111.994,25.0420631 86.9233846,0.00599176955 55.9972308,0.00599176955 L55.9972308,0.00599176955" id="path-11"></path>
        <path d="M55.9970769,0.00599176955 C25.0706154,0.00599176955 0,25.0420631 0,55.9261015 L0,55.9261015 L0,55.9262551 C0,86.8101399 25.0706154,111.846365 55.9970769,111.846365 L55.9970769,111.846365 L55.9972308,111.846365 C86.9233846,111.846365 111.994,86.8101399 111.994,55.9262551 L111.994,55.9262551 L111.994,55.9261015 C111.994,25.0420631 86.9233846,0.00599176955 55.9972308,0.00599176955 L55.9972308,0.00599176955" id="path-13"></path>
        <path d="M55.9970769,0.00599176955 C25.0706154,0.00599176955 0,25.0420631 0,55.9261015 L0,55.9261015 L0,55.9262551 C0,86.8101399 25.0706154,111.846365 55.9970769,111.846365 L55.9970769,111.846365 L55.9972308,111.846365 C86.9233846,111.846365 111.994,86.8101399 111.994,55.9262551 L111.994,55.9262551 L111.994,55.9261015 C111.994,25.0420631 86.9233846,0.00599176955 55.9972308,0.00599176955 L55.9972308,0.00599176955" id="path-15"></path>
        <path d="M55.9970769,0.00599176955 C25.0706154,0.00599176955 0,25.0420631 0,55.9261015 L0,55.9261015 L0,55.9262551 C0,86.8101399 25.0706154,111.846365 55.9970769,111.846365 L55.9970769,111.846365 L55.9972308,111.846365 C86.9233846,111.846365 111.994,86.8101399 111.994,55.9262551 L111.994,55.9262551 L111.994,55.9261015 C111.994,25.0420631 86.9233846,0.00599176955 55.9972308,0.00599176955 L55.9972308,0.00599176955 L55.9970769,0.00599176955 Z" id="path-17"></path>
        <path d="M55.9970769,0.00599176955 C25.0706154,0.00599176955 0,25.0420631 0,55.9261015 L0,55.9261015 L0,55.9262551 C0,86.8101399 25.0706154,111.846365 55.9970769,111.846365 L55.9970769,111.846365 L55.9972308,111.846365 C86.9233846,111.846365 111.994,86.8101399 111.994,55.9262551 L111.994,55.9262551 L111.994,55.9261015 C111.994,25.0420631 86.9233846,0.00599176955 55.9972308,0.00599176955 L55.9972308,0.00599176955" id="path-19"></path>
        <path d="M55.9970769,0.00599176955 C25.0706154,0.00599176955 0,25.0420631 0,55.9261015 L0,55.9261015 L0,55.9262551 C0,86.8101399 25.0706154,111.846365 55.9970769,111.846365 L55.9970769,111.846365 L55.9972308,111.846365 C86.9233846,111.846365 111.994,86.8101399 111.994,55.9262551 L111.994,55.9262551 L111.994,55.9261015 C111.994,25.0420631 86.9233846,0.00599176955 55.9972308,0.00599176955 L55.9972308,0.00599176955" id="path-21"></path>
        <path d="M55.9970769,0.00599176955 C25.0706154,0.00599176955 0,25.0420631 0,55.9261015 L0,55.9261015 L0,55.9262551 C0,86.8101399 25.0706154,111.846365 55.9970769,111.846365 L55.9970769,111.846365 L55.9972308,111.846365 C86.9233846,111.846365 111.994,86.8101399 111.994,55.9262551 L111.994,55.9262551 L111.994,55.9261015 C111.994,25.0420631 86.9233846,0.00599176955 55.9972308,0.00599176955 L55.9972308,0.00599176955" id="path-23"></path>
    </defs>
    <g id="邀请好友提示" stroke="none" stroke-width="1" fill="none" fill-rule="evenodd">
        <g id="referral会员领取提示优化" transform="translate(-105.000000, -215.000000)">
            <g id="Group-2" transform="translate(63.000000, 172.000000)">
                <g id="Group" transform="translate(0.000000, 20.000000)">
                    <g id="Bitmap">
                        <g id="图" transform="translate(42.000000, 23.000000)">
                            <path d="M14.4469634,13.4123858 L13,13 L14.4469634,12.5876142 C17.9021512,11.6028827 20.6028827,8.90215115 21.5876142,5.44696336 L22,4 L22.4123858,5.44696336 C23.3971173,8.90215115 26.0978488,11.6028827 29.5530366,12.5876142 L31,13 L29.5530366,13.4123858 C26.0978488,14.3971173 23.3971173,17.0978488 22.4123858,20.5530366 L22,22 L21.5876142,20.5530366 C20.6028827,17.0978488 17.9021512,14.3971173 14.4469634,13.4123858 L14.4469634,13.4123858 Z" id="星形" fill="#FEF2F2"></path>
                            <path d="M3.64309482,33.1832826 L3,33 L3.64309482,32.8167174 C5.17873385,32.379059 6.37905898,31.1787338 6.81671742,29.6430948 L7,29 L7.18328258,29.6430948 C7.62094102,31.1787338 8.82126615,32.379059 10.3569052,32.8167174 L11,33 L10.3569052,33.1832826 C8.82126615,33.620941 7.62094102,34.8212662 7.18328258,36.3569052 L7,37 L6.81671742,36.3569052 C6.37905898,34.8212662 5.17873385,33.620941 3.64309482,33.1832826 L3.64309482,33.1832826 Z" id="星形复制" fill="#FEF2F2"></path>
                            <g id="编组" transform="translate(27.000000, 1.000000)">
                                <g transform="translate(0.000000, 0.147797)">
                                    <g>
                                        <mask id="mask-2" fill="white">
                                            <use xlink:href="#path-1"></use>
                                        </mask>
                                        <g id="Clip-2"></g>
                                        <path d="M55.9971385,111.846426 L55.9969846,111.846426 C25.0706769,111.846426 6.15384615e-05,86.8100477 6.15384615e-05,55.9263166 L6.15384615e-05,55.926163 C6.15384615e-05,25.0421246 25.0706769,0.00589958848 55.9969846,0.00589958848 L55.9971385,0.00589958848 C86.9234462,0.00589958848 111.994062,25.0421246 111.994062,55.926163 L111.994062,55.9263166 C111.994062,86.8100477 86.9234462,111.846426 55.9971385,111.846426" id="Fill-1" fill="#FEF2F2" mask="url(#mask-2)"></path>
                                    </g>
                                    <polygon id="Fill-3" fill="#FC6A80" points="80.3483231 91.7500927 67.7067846 103.037665 14.7514 103.037665 28.4006308 91.7500927"></polygon>
                                    <path d="M28.4006154,91.7500927 C28.5063077,92.1994754 30.5541538,92.8461257 30.4026154,94.2454343 C29.9938462,98.0205564 28.6627692,99.101994 34.2243077,100.208013 C36.6692308,100.694115 36.8970769,101.871113 36.3847692,103.037665 L72.3221538,103.037665 L84.9636923,91.7500927 L28.4006154,91.7500927 Z" id="Fill-5" fill="#FD516A"></path>
                                    <path d="M39.3958,92.1796412 C41.9778,92.4767715 44.5584154,92.7918771 47.1308769,93.1625986 C48.2870308,93.3292927 49.4427231,93.5053586 50.5913385,93.719065 C51.2125692,93.834445 53.0782615,94.4151857 53.0867231,95.1873558 C53.0964154,96.0561624 51.5718,96.5633119 50.6296462,96.7963764 C49.3421077,97.114862 48.0076462,97.225172 46.6904154,97.3488483 C45.6670308,97.4448702 44.6233385,97.511087 43.6188769,97.7412324 C43.0870308,97.863065 41.8904154,98.2181158 42.4268769,98.9110102 C42.9410308,99.575482 45.3730308,99.7836576 46.1681077,99.9202392 C48.6968769,100.354105 64.2010308,100.536777 69.3856462,100.596695 C69.7316462,100.600843 74.6931846,100.605759 75.0394923,100.61129 L84.9636462,91.7500774 L35.5002615,91.7500774 C36.7998,91.8846617 38.0979538,92.0303078 39.3958,92.1796412" id="Fill-7" fill="#E8425A"></path>
                                    <path d="M86.7583231,91.7500927 L26.4161692,91.7500927 C25.2861692,91.7500927 24.3700154,90.8351956 24.3700154,89.706592 L24.3700154,6.24892401 C24.3700154,5.12047407 25.2861692,4.20557695 26.4161692,4.20557695 L86.7583231,4.20557695 C87.8884769,4.20557695 88.8044769,5.12047407 88.8044769,6.24892401 L88.8044769,89.706592 C88.8044769,90.8351956 87.8884769,91.7500927 86.7583231,91.7500927" id="Fill-9" fill="#FDFDFD"></path>
                                    <path d="M86.7583231,91.7500927 L26.4161692,91.7500927 C25.2861692,91.7500927 24.3700154,90.8351956 24.3700154,89.706592 L24.3700154,6.24892401 C24.3700154,5.12047407 25.2861692,4.20557695 26.4161692,4.20557695 L86.7583231,4.20557695 C87.8884769,4.20557695 88.8044769,5.12047407 88.8044769,6.24892401 L88.8044769,89.706592 C88.8044769,90.8351956 87.8884769,91.7500927 86.7583231,91.7500927 Z" id="Stroke-11" stroke="#FEF2F2"></path>
                                    <path d="M28.4761077,51.1515676 L28.4761077,12.1746458 C28.4761077,11.053724 29.3859538,10.1451259 30.5082615,10.1451259 L82.6662615,10.1451259 C83.7885692,10.1451259 84.6984154,11.053724 84.6984154,12.1746458 L84.6984154,51.1515676 C84.6984154,52.2723358 83.7885692,53.1809339 82.6662615,53.1809339 L30.5082615,53.1809339 C29.3859538,53.1809339 28.4761077,52.2723358 28.4761077,51.1515676" id="Fill-13" fill="#F8CBCB"></path>
                                    <path d="M77.7153538,14.821656 C76.7413538,13.848992 75.1621231,13.848992 74.1881231,14.821656 C73.2141231,13.848992 71.6350462,13.848992 70.6608923,14.821656 C69.6868923,15.7943199 69.6868923,17.371538 70.6608923,18.3440483 L74.1881231,21.8664406 L77.7153538,18.3440483 C78.6893538,17.371538 78.6893538,15.7943199 77.7153538,14.821656" id="Fill-15" fill="#FD516A"></path>
                                    <path d="M70.8535846,16.8133663 C70.9811231,16.8133663 71.0843538,16.7101235 71.0843538,16.5829136 C71.0843538,16.3066776 71.1671231,16.0422716 71.3238923,15.8184252 C71.3692769,15.7537449 71.4206615,15.6924444 71.4768154,15.6365213 C71.7298923,15.3836379 72.0665077,15.2444444 72.4245077,15.2444444 C72.5520462,15.2444444 72.6552769,15.1412016 72.6552769,15.0139918 C72.6552769,14.8867819 72.5520462,14.7835391 72.4245077,14.7835391 C71.9431231,14.7835391 71.4906615,14.9706667 71.1505077,15.3105075 C71.0754308,15.3853278 71.0063538,15.4675226 70.9455846,15.5544801 C70.7345077,15.8562195 70.6228154,16.2117311 70.6228154,16.5829136 C70.6228154,16.7101235 70.7260462,16.8133663 70.8535846,16.8133663" id="Fill-17" fill="#FFFFFF"></path>
                                    <mask id="mask-4" fill="white">
                                        <use xlink:href="#path-3"></use>
                                    </mask>
                                    <g id="Clip-20"></g>
                                    <polygon id="Fill-19" fill="#E8EAF8" mask="url(#mask-4)" points="48.8026154 58.7322469 56.5873846 58.7322469 56.5873846 55.2073964 48.8026154 55.2073964"></polygon>
                                    <polygon id="Fill-21" fill="#F7F7F9" mask="url(#mask-4)" points="30.9696923 61.5780302 82.2049231 61.5780302 82.2049231 58.0530261 30.9696923 58.0530261"></polygon>
                                    <polygon id="Fill-22" fill="#E8EAF8" mask="url(#mask-4)" points="41.8736923 67.6430837 49.6584615 67.6430837 49.6584615 64.1182332 41.8736923 64.1182332"></polygon>
                                    <polygon id="Fill-23" fill="#E8EAF8" mask="url(#mask-4)" points="30.9696923 67.6430837 38.7544615 67.6430837 38.7544615 64.1182332 30.9696923 64.1182332"></polygon>
                                    <polygon id="Fill-24" fill="#DBDDEB" mask="url(#mask-4)" points="63.4056923 67.6430837 71.1904615 67.6430837 71.1904615 64.1182332 63.4056923 64.1182332"></polygon>
                                    <polygon id="Fill-25" fill="#D2D3E6" mask="url(#mask-4)" points="74.3563077 67.6430837 82.1410769 67.6430837 82.1410769 64.1182332 74.3563077 64.1182332"></polygon>
                                    <polygon id="Fill-26" fill="#F7F7F9" mask="url(#mask-4)" points="30.9696923 73.7084444 82.2049231 73.7084444 82.2049231 70.1834403 30.9696923 70.1834403"></polygon>
                                    <polygon id="Fill-27" fill="#F7F7F9" mask="url(#mask-4)" points="30.9696923 79.7734979 82.2049231 79.7734979 82.2049231 76.2486475 30.9696923 76.2486475"></polygon>
                                    <polygon id="Fill-28" fill="#F7F7F9" mask="url(#mask-4)" points="30.9696923 85.8388587 82.2049231 85.8388587 82.2049231 82.3138546 30.9696923 82.3138546"></polygon>
                                    <path d="M41.8831077,36.5464757 C41.8831077,36.5464757 44.0951077,34.4934497 46.2389538,35.0772631 L43.0995692,37.9609942 L41.8831077,36.5464757 Z" id="Fill-29" fill="#A03C48" mask="url(#mask-4)"></path>
                                    <path d="M54.1881692,28.9253289 C54.1881692,28.9253289 53.5183231,29.6275951 53.3509385,30.6643248 C53.1834,31.7010546 53.3509385,32.7714305 53.3509385,32.7714305 L50.9730923,32.4925827 C50.9730923,32.4925827 50.8726308,27.152687 50.9730923,27.152687 C51.0735538,27.152687 54.1881692,28.9253289 54.1881692,28.9253289" id="Fill-30" fill="#FA9E89" mask="url(#mask-4)"></path>
                                    <path d="M54.1770462,28.9373278 C54.1182769,28.9038354 53.7958154,28.7205487 53.3738154,28.4824143 C52.9198154,28.7291523 52.5459692,28.9874129 52.5585846,29.1648615 C52.5585846,29.1648615 52.7038154,29.8365542 53.4387385,30.2799451 C53.6604308,29.5266722 54.1042769,29.0173717 54.1770462,28.9373278" id="Fill-31" fill="#E68470" mask="url(#mask-4)"></path>
                                    <path d="M56.5659385,23.7413421 C56.5659385,23.7413421 57.4511692,29.8862859 53.8270154,29.0712516 C50.2027077,28.2563709 56.5659385,23.7413421 56.5659385,23.7413421" id="Fill-32" fill="#FA9E89" mask="url(#mask-4)"></path>
                                    <path d="M54.5498,27.8413257 C54.6614923,26.9334957 54.2393385,26.5269772 54.8068769,25.9397838 C55.4036462,25.3223243 56.1501077,25.1533257 56.6524154,24.8025767 C56.6290308,24.1755918 56.5658,23.7371171 56.5658,23.7371171 C56.5658,23.7371171 53.6599538,25.7993613 52.8930308,27.3887166 C53.3698,28.2541432 53.8253385,29.0699457 53.8253385,29.0699457 C53.8253385,29.0699457 54.4381077,28.7490019 54.5498,27.8413257" id="Fill-33" fill="#E68470" mask="url(#mask-4)"></path>
                                    <path d="M55.4617538,96.2733257 L55.4617538,100.806022 C55.4617538,100.812782 56.2151385,100.828146 56.2577538,100.829068 C57.1356,100.848272 58.0152923,100.853803 58.8926769,100.815702 C59.3036,100.79788 61.0114462,100.835213 61.0300615,100.190867 C61.0354462,100.004815 60.9102154,99.8355095 60.7556,99.7314985 C60.6008308,99.6274875 60.4182154,99.5754052 60.2419077,99.5150266 C59.6432923,99.3097701 58.6800615,98.9172324 58.4448308,98.2868675 C58.2414462,97.7420774 57.9969846,97.2123435 57.8049846,96.6615616 L55.4617538,96.2733257 Z" id="Fill-34" fill="#FB9E8A" mask="url(#mask-4)"></path>
                                    <path d="M37.8290154,92.8340807 C37.8290154,92.8340807 37.0070154,94.4891918 36.9056308,95.9073975 C36.8042462,97.3256033 36.2970154,101.242377 37.5142462,101.276023 C38.7314769,101.309823 40.6587077,101.309823 40.7264,101.039732 C40.7939385,100.769642 39.9825538,99.2515731 39.9825538,98.5586787 C39.9825538,97.8657844 40.4134769,94.8046047 40.2656308,93.6846047 C40.1177846,92.5647583 38.6171692,91.4489064 37.8290154,92.8340807" id="Fill-35" fill="#FB9E8A" mask="url(#mask-4)"></path>
                                    <path d="M46.6738923,48.0353558 C46.6738923,48.0353558 43.9642,50.0926837 43.1125077,59.2362776 C42.2606615,68.3800252 41.5154308,74.227685 41.5154308,74.227685 C41.5154308,74.227685 39.1732769,79.0121898 38.9602,83.9030102 C38.7472769,88.7938305 37.7891231,92.8341267 37.7891231,92.8341267 C37.7891231,92.8341267 39.1488154,91.4518716 40.2255846,93.6846508 C40.2255846,93.6846508 49.5006615,66.7851391 51.0975846,64.6586754 C51.0975846,64.6586754 51.5234308,68.874423 52.3752769,70.8598497 C53.2269692,72.8455835 52.1380462,76.987279 52.0191231,80.2268291 C51.9592769,81.8542859 52.1894308,83.5020225 52.4312769,85.1070486 C52.7315846,87.0983133 53.1223538,89.0771336 53.5803538,91.0379786 C53.9595846,92.6617481 54.3683538,94.2925849 54.9338923,95.8631967 C54.9918923,96.0240527 55.0522,96.1839868 55.1155846,96.3429992 C55.2323538,96.6356741 55.2886615,96.7252433 55.6085077,96.8332488 C56.2200462,97.0395808 56.9006615,97.0394272 57.5112769,96.8298689 C57.7863538,96.7352296 57.8057385,96.6408977 57.8125077,96.3918551 C57.8188154,96.162017 57.8254308,95.9321789 57.8317385,95.7023407 C57.8548154,94.8793174 57.8777385,94.0564477 57.9006615,93.2335781 C57.9342,92.0244697 57.9678923,90.8152077 58.0014308,89.6060993 C58.0425077,88.1279759 58.0834308,86.650006 58.1243538,85.1720362 C58.1694308,83.5424285 58.2145077,81.9129745 58.2594308,80.2835204 C58.3052769,78.6199594 58.3509692,76.956552 58.3966615,75.2931446 C58.4398923,73.713161 58.4831231,72.1330239 58.5262,70.5528867 C58.5635846,69.1738579 58.6009692,67.7945218 58.6378923,66.4153394 C58.6663538,65.3544889 58.6945077,64.2934848 58.7218923,63.2326343 C58.7362,62.6801624 58.7505077,62.1279978 58.7632769,61.5755259 C58.8697385,57.0036521 57.7905077,51.7052379 55.8280462,47.6030266 L46.6738923,48.0353558 Z" id="Fill-36" fill="#362C37" mask="url(#mask-4)"></path>
                                    <path d="M70.4176615,24.6343462 C70.4176615,24.6343462 71.2299692,22.6413915 71.6528923,22.0852324 C72.0758154,21.5289196 73.8227385,19.2511254 74.1341231,19.4359484 C74.4716615,19.6364422 73.1187385,21.5727056 73.1187385,21.5727056 C73.1187385,21.5727056 73.7222769,21.556113 73.4268923,22.2397893 C73.4268923,22.2397893 73.7447385,22.2623737 73.7178154,22.5037344 C73.6948923,22.7097591 73.5001231,22.9952132 73.5001231,22.9952132 C73.5001231,22.9952132 73.7308923,23.0621981 73.6747385,23.2700664 C73.5773538,23.630648 73.4445846,23.8804587 73.0655077,24.4152626 C72.8825846,24.6733695 72.3738154,25.1857427 72.1450462,25.3261652 C71.9268923,25.4599813 70.4176615,24.6343462 70.4176615,24.6343462" id="Fill-37" fill="#FB9E8A" mask="url(#mask-4)"></path>
                                    <path d="M39.1277692,36.5469213 C39.1277692,36.5469213 41.3396154,34.4938952 43.4834615,35.0777086 L40.3440769,37.9614398 L39.4825385,37.2713108 L39.1277692,36.5469213 Z" id="Fill-38" fill="#A03C48" mask="url(#mask-4)"></path>
                                    <path d="M50.9730154,32.4925366 C53.2890154,31.9137931 55.3574769,32.8027259 57.6373231,32.7733816 C59.2488615,32.7526409 61.0750154,32.0663528 62.5236308,31.4126354 C64.1524,30.677645 65.6634769,29.6808604 66.9796308,28.4737492 C67.2939385,28.1855298 70.1437846,24.7901937 70.1476308,24.4902979 C71.2982462,24.4902979 71.7693231,24.6829564 72.4522462,25.4048878 C71.0904,29.6387643 68.3084,33.3739413 64.7300923,36.0043281 C62.9317846,37.3265119 58.8713231,39.0456889 58.8713231,39.0456889 C57.1524,40.2551045 58.5711692,42.5413487 57.3125538,44.020394 C56.2611692,45.2557739 55.8899385,47.1705284 55.8280923,47.6030112 L46.6739385,48.0353405 L45.9934769,43.7114337 C45.9934769,43.7114337 43.8287077,48.1588631 41.1690154,48.0353405 C38.5093231,47.9116642 37.7671692,43.2174968 39.1279385,36.5465064 C39.1279385,36.5465064 39.6270154,37.3498645 41.1237846,37.3871978 L45.6519385,39.666682 L50.9730154,32.4925366 Z" id="Fill-39" fill="#E8425A" mask="url(#mask-4)"></path>
                                    <path d="M49.9132308,38.3446365 C48.7087692,37.9508697 47.4195385,38.2484609 46.2330769,38.8832812 C46.12,39.0356872 45.6518462,39.6666667 45.6518462,39.6666667 L45.2781538,39.4786173 C44.7544615,39.8516433 44.2646154,40.277059 43.8286154,40.7195281 C43.8370769,40.903583 43.8736923,41.0879451 43.9506154,41.272 C44.1386154,41.7213827 44.4313846,42.1388093 44.7387692,42.5467106 L44.7830769,42.1775254 L45.7806154,42.3021235 L46.0604615,44.136834 L46.2729231,45.4871331 C46.4433846,46.2311879 46.5226154,47.0071989 46.6336923,47.7790617 L46.6738462,48.0353251 L46.7530769,48.0316379 C49.1267692,46.8110069 52.9796923,44.8709026 53.2535385,43.1606365 C53.6932308,40.4154842 49.9132308,38.3446365 49.9132308,38.3446365" id="Fill-40" fill="#FD516A" mask="url(#mask-4)"></path>
                                    <path d="M39.8034,37.0891457 C39.8034,37.0891457 41.3347846,34.0759001 42.7912462,33.9950881 C44.2478615,33.9144296 44.1287846,35.9931128 44.1287846,35.9931128 L41.1847846,37.8344296 L39.8034,37.0891457 Z" id="Fill-41" fill="#FB9E8A" mask="url(#mask-4)"></path>
                                    <path d="M49.6983846,24.2982694 C49.6111538,24.5967824 49.4997692,24.8903791 49.3153077,25.1062365 C48.8663846,25.631515 47.9191538,25.8708785 47.2762308,25.9991638 C46.2253077,26.2090294 45.4011538,27.2293202 45.2499231,28.2851007 C45.155,28.948958 45.2894615,29.6483051 45.067,30.2811281 C44.6582308,31.4450678 43.2454615,31.3266151 42.7134615,32.3571995 C42.3326923,33.0951089 42.8982308,33.9562337 42.9442308,34.7852488 C43.0023846,35.8354985 42.2448462,36.391504 41.4065385,36.7821981 C39.8176154,37.5225657 39.9933077,39.2638661 40.7640769,40.5613147 C41.6840769,42.109803 43.3188462,42.991054 45.0880769,43.2130568 C46.4000769,43.3777536 47.7576154,43.1187248 48.9268462,42.506028 C50.1973077,41.840327 50.5237692,40.8046727 50.299,39.373408 C50.1722308,38.5654409 49.5034615,37.7421103 49.7523846,36.9462804 C50.0514615,35.9903627 51.0077692,35.42729 51.7048462,34.7837125 C52.2153077,34.3126672 52.6726923,33.6962831 52.6559231,33.0024669 C52.6462308,32.6034765 52.4800769,32.2275314 52.3665385,31.8448263 C52.0011538,30.6131336 52.8326923,30.2221322 53.5285385,29.4173915 C53.8963846,28.9919759 54.2771538,28.6181816 54.2919231,28.014242 C54.3013077,27.6318442 54.1717692,27.2611226 54.1211538,26.8822584 C53.9674615,25.7312241 55.089,25.2992022 55.9213077,24.8190925 C56.4437692,24.5176604 56.9554615,24.0111254 56.8857692,23.412563 C56.807,22.7374903 56.0914615,22.4391309 55.5117692,22.3010129 C54.6662308,22.09929 53.7876154,21.8878881 52.9146923,21.8677619 C52.2011538,21.8513229 51.4666923,21.9849855 50.8651538,22.368766 C50.4077692,22.6606727 50.0356154,23.1108236 49.879,23.6337975 C49.8182308,23.8362886 49.7654615,24.0687385 49.6983846,24.2982694" id="Fill-42" fill="#261F27" mask="url(#mask-4)"></path>
                                    <path d="M49.9118769,38.2994678 C49.7814154,38.007561 49.6774154,37.7111989 49.6835692,37.3939424 C49.6895692,37.0886694 49.7826462,36.8112044 49.9278769,36.5546337 C48.8223385,36.506546 47.6926462,36.428192 46.7000308,35.9479287 C45.8758769,35.5493992 45.2015692,34.8986008 44.4132615,34.4332401 C43.9200308,34.1421015 43.3375692,33.9296241 42.7738769,33.918716 C42.8528,34.2047846 42.9297231,34.4930041 42.9455692,34.7773827 C42.9692615,35.2047956 42.8563385,35.5495528 42.6594154,35.8354678 C42.7029538,35.8789465 42.7448,35.9230398 42.7815692,35.9685158 C43.2148,36.5050096 43.5288,37.1826941 43.9903385,37.7015199 C44.1214154,37.8490096 44.2644923,37.9834403 44.4254154,38.0983594 C45.1306462,38.6015144 45.9689538,38.9184636 46.8320308,39.0009657 C47.7888,39.0923786 48.7098769,38.8822058 49.5701846,38.4712318 C49.7057231,38.4065514 49.8184923,38.3581564 49.9118769,38.2994678" id="Fill-43" fill="#3A2E3A" mask="url(#mask-4)"></path>
                                    <path d="M52.4531231,25.57911 C51.6146615,25.1604543 51.3486615,24.3678508 49.7151231,24.2432527 C49.7111231,24.2572335 49.7074308,24.270907 49.7034308,24.2848878 C49.6162,24.5837081 49.5046615,24.8773048 49.3200462,25.0933158 C49.0552769,25.4030442 48.6171231,25.6130634 48.1703538,25.7599385 C48.4074308,26.2190003 49.0683538,27.0132938 50.7560462,26.7826875 C52.8942,26.4904735 52.5622,28.2952252 54.0355846,28.7922348 C54.1860462,28.564394 54.2917385,28.3144296 54.2994308,28.002704 C54.3088154,27.6203062 54.1791231,27.249431 54.1285077,26.8702595 C54.0708154,26.437623 54.1932769,26.1065394 54.4126615,25.8361416 C54.1372769,25.8707095 53.2002,25.9521361 52.4531231,25.57911" id="Fill-44" fill="#3A2E3A" mask="url(#mask-4)"></path>
                                    <path d="M49.7525385,30.3427051 C47.4568462,30.466535 47.3740769,29.1653992 46.4019231,28.9795007 C45.9371538,28.890546 45.5208462,28.9484664 45.2116154,29.0326584 C45.2082308,29.4548477 45.2083846,29.875808 45.0696154,30.2709575 C44.9028462,30.7458436 44.5682308,31.0064088 44.1953077,31.2196543 C45.0006923,31.182321 45.9619231,31.1549739 46.3813077,31.2101289 C47.1671538,31.3133717 47.4774615,32.0982936 48.615,32.3874348 C49.4814615,32.607594 51.5706923,32.3964993 52.5177692,32.2834239 C52.4697692,32.1339369 52.4174615,31.9852181 52.373,31.8355775 C52.0563846,30.7679671 52.6383846,30.3311824 53.2522308,29.7103429 C52.8096154,29.8655144 51.567,30.2446859 49.7525385,30.3427051" id="Fill-45" fill="#3A2E3A" mask="url(#mask-4)"></path>
                                    <path d="M37.4684462,101.225661 C38.6862923,101.259615 40.6146,101.259615 40.6822923,100.989217 C40.7299846,100.798709 40.3412154,99.9878233 40.1072154,99.2829454 C37.5742923,98.7381553 36.8595231,95.8541169 36.8595231,95.8541169 C36.7579846,97.2729372 36.2506,101.191862 37.4684462,101.225661" id="Fill-46" fill="#E7846F" mask="url(#mask-4)"></path>
                                    <path d="M45.6347538,72.1454069 C43.0556769,76.8616977 40.1958308,93.7093246 40.1958308,93.7093246 C40.1958308,93.7093246 49.4758308,66.7955248 51.0736769,64.6678321 L50.9042923,55.6543671 C50.8007538,59.5121449 48.5336769,66.8443808 45.6347538,72.1454069" id="Fill-47" fill="#261F27" mask="url(#mask-4)"></path>
                                    <path d="M55.0074308,74.1897833 C53.9020462,73.9143155 52.9475846,72.2071221 52.4377385,71.1020247 C53.1242,73.1648834 52.1102,77.1228313 51.9955846,80.2442359 C51.8958923,82.9626557 52.8594308,88.3687682 53.8865077,92.411369 C54.0865077,91.5425624 54.5606615,90.5551495 54.6642,89.3378985 C55.0820462,84.4195775 54.2828154,83.6504801 53.4978923,78.9961043 C53.1845077,77.137273 55.0074308,74.1897833 55.0074308,74.1897833" id="Fill-48" fill="#261F27" mask="url(#mask-4)"></path>
                                    <path d="M43.8635692,73.8251918 C42.9057231,72.3459929 42.3829538,66.329949 42.3829538,66.329949 L42.3828,66.3304099 C41.9000308,70.9293235 41.5435692,73.7887802 41.4929538,74.1897679 C42.7138769,73.8082919 43.8635692,73.8251918 43.8635692,73.8251918" id="Fill-49" fill="#261F27" mask="url(#mask-4)"></path>
                                    <path d="M55.8067077,47.6029498 L46.6476308,48.0354326 C46.6476308,48.0354326 43.9365538,50.0939896 43.0842462,59.2426535 C43.0410154,59.7067852 42.9982462,60.1601624 42.9554769,60.6072406 L42.9553231,60.6098524 C42.9553231,60.6098524 45.4560923,60.3119539 46.8571692,55.6543517 C47.5671692,53.2943627 47.4485538,51.1626754 49.4897846,50.5785547 C51.4384,50.0208593 55.2537846,52.0897097 56.6316308,50.3021652 C56.6980923,50.2159759 56.7608615,50.1287111 56.8216308,50.0414464 C56.5159385,49.1946096 56.1771692,48.3774244 55.8067077,47.6029498" id="Fill-50" fill="#40333F" mask="url(#mask-4)"></path>
                                    <path d="M59.1777231,36.3362722 C57.4572615,36.6718112 56.3531077,38.3796192 56.7871077,40.0755973 C56.9535692,40.7256274 57.0315692,41.3606014 56.9283385,41.871899 C56.6504923,43.248316 54.2321846,45.7988126 55.7861846,47.6049471 L55.8281846,47.6029498 C55.8898769,47.1706206 56.2611077,45.2558661 57.3124923,44.0204861 C57.3714154,43.9511967 57.4226462,43.8797564 57.4704923,43.8072406 C57.5789538,43.5872351 57.6798769,43.3650787 57.7694154,43.1390815 C58.1564923,41.7408483 57.4668,40.0338085 58.8712615,39.0457811 C58.8712615,39.0457811 58.9138769,39.0278058 58.9891077,38.9952351 C58.9894154,38.9950815 58.9895692,38.9950815 58.9898769,38.9949278 C59.6671077,38.7030211 63.1126462,37.1934025 64.7301846,36.0044203 C66.7889538,34.4909608 68.5818769,32.6103133 69.9948,30.4809306 C65.9720308,34.3168922 61.9789538,35.7899457 59.1777231,36.3362722" id="Fill-51" fill="#C3394E" mask="url(#mask-4)"></path>
                                </g>
                                <g transform="translate(0.000000, 0.147797)">
                                    <g>
                                        <mask id="mask-6" fill="white">
                                            <use xlink:href="#path-5"></use>
                                        </mask>
                                        <g id="Clip-53"></g>
                                        <path d="M104.160292,79.2130678 C104.179677,79.3404313 104.218292,79.4647221 104.276292,79.5797948 C104.447215,79.9191748 104.784292,80.0844861 105.092908,80.2756082 C105.423985,80.4805575 105.631523,80.5782694 105.807831,80.9477619 C106.1646,81.6947358 106.1666,82.6122447 105.779215,83.3480033 C105.587215,83.7128867 105.312754,84.0284532 105.108292,84.3865767 C104.903831,84.7445465 104.770908,85.1762612 104.897369,85.5686453 C105.004754,85.9018798 105.281523,86.1529196 105.573677,86.3463462 C105.865831,86.5396192 106.185985,86.693408 106.452754,86.9204807 C107.389523,87.717386 106.741677,89.1011775 106.082138,89.8582914 C105.560754,90.4567001 104.927985,90.9861267 104.603369,91.7100554 C104.167215,92.6827193 104.369677,93.8062529 104.283985,94.8684861 C104.198292,95.9307193 103.576446,97.1478167 102.509831,97.1846892 C101.6146,97.2155698 100.880754,97.0209141 100.409831,96.1737701 C100.031985,95.494242 99.9676769,94.6913449 99.8918308,93.9174848 C99.8161385,93.1436247 99.7078308,92.3367331 99.2630615,91.6986864 C98.6215231,90.7781048 97.4173692,90.4009306 96.7096769,89.5301267 C96.1126,88.7954436 95.9321385,87.6991034 96.3039846,86.8204642 C96.6499846,86.0026645 97.5270615,85.6374738 98.0935231,85.004958 C98.8290615,84.1837783 98.4572154,83.1636412 97.6082923,82.5742968 C97.2582923,82.3310925 96.8590615,82.0974134 96.7026,81.7011885 C96.4967538,81.17929 96.7939846,80.6063846 97.0816769,80.1245849 C97.3010615,79.757397 97.5202923,79.3900554 97.7396769,79.0228675 C97.9004462,78.7536988 98.2247538,78.4040252 98.1576769,78.0752461 C98.0370615,77.4835973 97.3041385,77.0485026 97.0807538,76.47867 C96.8506,75.8914765 97.0219846,75.2079539 97.3702923,74.6819073 C97.5092154,74.472349 97.7312154,74.1664615 97.9767538,74.0796576 C98.1869077,74.0051446 98.4496769,74.0358716 98.6739846,73.9518332 C99.1504462,73.7731556 99.5661385,73.4262475 99.8112154,72.9791693 C100.042754,72.5566727 100.125369,72.0673449 100.339523,71.6359374 C100.553831,71.2042228 100.977677,70.8093805 101.456292,70.8688373 C101.8946,70.9230705 102.201677,71.3352735 102.356754,71.7483984 C102.511831,72.1615232 102.572292,72.6129032 102.792446,72.9954546 C103.270908,73.8269278 104.341985,73.8375287 105.038754,74.4159649 C105.433062,74.7432077 105.592138,75.4337975 105.602908,75.9265053 C105.615369,76.5000252 105.432446,77.0816878 105.065677,77.5264615 C104.799215,77.8495561 104.4446,78.1095067 104.264446,78.4872955 C104.157677,78.7114491 104.123062,78.9678661 104.160292,79.2130678" id="Fill-52" fill="#4DC8B3" mask="url(#mask-6)"></path>
                                    </g>
                                    <g>
                                        <mask id="mask-8" fill="white">
                                            <use xlink:href="#path-7"></use>
                                        </mask>
                                        <g id="Clip-55"></g>
                                        <path d="M99.0172615,92.8471396 C98.9404923,92.3810107 98.8446462,91.8783166 98.4961846,91.5589092 C98.0818769,91.1791232 97.3569538,91.2138447 96.9811077,91.6315786 C96.6784923,91.9677322 96.6211077,92.4522974 96.5934154,92.9035237 C96.5278769,93.9751287 96.5504923,95.0521108 96.6611077,96.1200285 C96.6818769,96.3220587 96.7075692,96.5291588 96.8032615,96.708451 C96.8988,96.8877432 97.0804923,97.0353866 97.2837231,97.0323139 C97.4903385,97.0293948 97.6614154,96.8799078 97.8123385,96.7390244 C98.1103385,96.4607912 98.4083385,96.182558 98.7063385,95.9043248 C98.9029538,95.7207309 99.3340308,95.4563248 99.3966462,95.1885388 C99.4675692,94.8860313 99.2641846,94.3463111 99.2134154,94.0373509 C99.1481846,93.6411259 99.0934154,93.2413674 99.0172615,92.8471396" id="Fill-54" fill="#3CA28F" mask="url(#mask-8)"></path>
                                    </g>
                                    <g>
                                        <mask id="mask-10" fill="white">
                                            <use xlink:href="#path-9"></use>
                                        </mask>
                                        <g id="Clip-57"></g>
                                        <path d="M93.5235077,86.416665 C91.1281231,82.6784154 87.0990462,78.849521 82.4850462,78.454986 C80.0513538,78.2466568 81.0052,80.6430573 81.5332,81.9693893 C82.4884308,84.3693235 84.2039692,86.2464373 85.9335077,88.1098776 C87.3139692,89.5970656 88.6944308,91.0844071 90.0747385,92.5717487 C91.2092,93.793916 92.3435077,95.0159298 93.4776615,96.2380971 C93.9530462,96.750163 95.5753538,99.1213674 96.4805846,98.5314085 C97.1581231,98.0897075 96.7485846,96.178794 96.6853538,95.5419764 C96.5335077,94.0142288 96.2104308,92.503842 95.7272,91.0466129 C95.1878154,89.4203852 94.4481231,87.8599133 93.5235077,86.416665" id="Fill-56" fill="#4DC8B3" mask="url(#mask-10)"></path>
                                    </g>
                                    <g>
                                        <mask id="mask-12" fill="white">
                                            <use xlink:href="#path-11"></use>
                                        </mask>
                                        <g id="Clip-59"></g>
                                        <path d="M89.8028769,90.8870936 C89.4831846,90.4881032 89.0079538,90.0582321 88.5287231,90.237217 C88.2367231,90.3461443 88.0638,90.6632472 88.0365692,90.9734365 C88.0093385,91.2834722 88.1008769,91.5905888 88.1971846,91.8866436 C89.0642615,94.5489866 90.4198,97.1308247 92.2201077,99.2852499 C92.4913385,99.6098809 93.0385692,100.372679 93.5414923,100.125788 C93.9278,99.9358947 93.9488769,99.2457657 93.9059538,98.8928658 C93.7471846,97.5857383 93.0022615,96.1638453 92.4234923,94.9969866 C91.7001077,93.5389893 90.8210308,92.157656 89.8028769,90.8870936" id="Fill-58" fill="#4DC8B3" mask="url(#mask-12)"></path>
                                    </g>
                                    <g>
                                        <mask id="mask-14" fill="white">
                                            <use xlink:href="#path-13"></use>
                                        </mask>
                                        <g id="Clip-61"></g>
                                        <path d="M83.6784769,88.1551232 C83.0937077,88.227639 83.2060154,88.9194579 83.4064769,89.2943276 C83.5594,89.5800889 83.7887846,89.8163797 84.0150923,90.0485224 C84.7923231,90.845735 85.5598615,91.6538557 86.3477077,92.4406211 C86.6727846,92.7652521 86.9795538,93.0964894 87.2890923,93.4384812 C87.4720154,93.6402041 87.6581692,93.8393152 87.8506308,94.0322809 C87.9303231,94.1123248 88.4061692,94.4627665 88.4061692,94.5546403 C88.7297077,94.8371753 89.0732462,95.0982014 89.4418615,95.3195896 C89.8430923,95.5603358 90.0787846,95.708901 90.1430923,95.1410656 C90.2201692,94.4592329 90.2466308,93.5079243 89.8024769,92.9313317 C89.5766308,92.6378886 89.2710923,92.4271012 88.9783231,92.2064812 C88.7126308,92.006141 88.5604769,91.7767638 88.3355538,91.5487693 C87.7386308,90.9431396 87.0744769,90.4158639 86.4995538,89.78258 C86.1761692,89.4263001 85.9224769,89.1419215 85.5074,88.8922645 C85.1218615,88.6605827 84.7195538,88.4565553 84.3041692,88.2832549 C84.1081692,88.2016746 83.8809385,88.1300807 83.6784769,88.1551232" id="Fill-60" fill="#4DC8B3" mask="url(#mask-14)"></path>
                                    </g>
                                    <g>
                                        <mask id="mask-16" fill="white">
                                            <use xlink:href="#path-15"></use>
                                        </mask>
                                        <g id="Clip-63"></g>
                                        <path d="M92.8164769,99.9386601 C92.8164769,99.9386601 89.3366308,95.0341663 86.7163231,93.4504955 C84.0960154,91.8665174 83.0943231,91.6919879 82.6769385,91.8417822 C82.2595538,91.9915764 89.8086308,98.7994557 92.8164769,99.9386601" id="Fill-62" fill="#4DC8B3" mask="url(#mask-16)"></path>
                                    </g>
                                    <g>
                                        <mask id="mask-18" fill="white">
                                            <use xlink:href="#path-17"></use>
                                        </mask>
                                        <g id="Clip-65"></g>
                                        <path d="M89.6053846,102.578357 C89.6053846,102.578357 78.9623077,97.9101542 76.2076923,94.9926233 C73.4530769,92.0749388 77.524,92.7862694 86.0684615,95.1848209 C94.6127692,97.5832187 94.1547692,100.369238 94.1547692,100.369238 L89.6053846,102.578357 Z" id="Fill-64" fill="#339082" mask="url(#mask-18)"></path>
                                    </g>
                                    <g>
                                        <mask id="mask-20" fill="white">
                                            <use xlink:href="#path-19"></use>
                                        </mask>
                                        <g id="Clip-67"></g>
                                        <path d="M85.9966923,104.603683 C85.7066923,104.582174 85.2942308,104.555749 85.0293077,104.431304 C84.7460769,104.298256 84.4756154,103.95396 84.2414615,103.745784 C84.0446923,103.570794 83.8354615,103.389505 83.5777692,103.33481 C83.0400769,103.220967 82.9979231,103.732264 82.5605385,103.895271 C82.273,104.002201 81.9436154,103.933219 81.6760769,103.783425 C81.3265385,103.587847 80.9508462,102.945345 80.4966923,103.013406 C80.1174615,103.070404 79.9585385,103.487524 79.6517692,103.665433 C79.3686923,103.829208 78.9774615,103.814613 78.7237692,103.601367 C78.5856154,103.485219 78.4916154,103.326668 78.3854615,103.180868 C78.1837692,102.903864 77.9342308,102.689082 77.657,102.4912 C77.3973077,102.305762 77.2111538,102.388264 76.9134615,102.310218 C76.7214615,102.259826 76.5400769,102.116023 76.5071538,101.920292 C76.4696154,101.698443 76.6323846,101.485658 76.8276154,101.373197 C77.0228462,101.260736 77.2499231,101.219716 77.4616154,101.142898 C77.8882308,100.988188 77.9479231,100.705499 78.1043846,100.321258 C78.223,100.030273 78.4000769,99.7259215 78.6996154,99.6300532 C78.9988462,99.5341849 79.3177692,99.6776801 79.5945385,99.8265525 C79.8713077,99.975425 80.1728462,100.138739 80.4820769,100.082509 C80.9479231,99.9978557 81.2723846,99.4386239 81.743,99.4920889 C82.2296154,99.5473975 82.4617692,100.228462 82.9499231,100.270712 C83.1576154,100.288687 83.3523846,100.181296 83.5436154,100.098333 C84.3813077,99.7343715 85.2685385,99.9119737 86.1293077,100.089269 C87.1813077,100.306201 89.6325385,100.939946 89.4640769,102.37075 C89.2943846,103.811233 87.255,104.697247 85.9966923,104.603683" id="Fill-66" fill="#339082" mask="url(#mask-20)"></path>
                                    </g>
                                    <g>
                                        <mask id="mask-22" fill="white">
                                            <use xlink:href="#path-21"></use>
                                        </mask>
                                        <g id="Clip-69"></g>
                                        <path d="M85.9358308,76.3475731 C85.9358308,75.6055155 85.3333692,75.004034 84.5902923,75.004034 C83.8472154,75.004034 83.2449077,75.6055155 83.2449077,76.3475731 C83.2449077,77.0896307 83.8472154,77.6911122 84.5902923,77.6911122 C85.3333692,77.6911122 85.9358308,77.0896307 85.9358308,76.3475731" id="Fill-68" fill="#FD6A80" mask="url(#mask-22)"></path>
                                    </g>
                                    <g>
                                        <mask id="mask-24" fill="white">
                                            <use xlink:href="#path-23"></use>
                                        </mask>
                                        <g id="Clip-71"></g>
                                        <path d="M85.2906308,77.3952571 C85.2906308,77.3952571 94.6295538,84.7659018 95.6114,97.8296494" id="Stroke-70" stroke="#F3CA24" stroke-width="2" mask="url(#mask-24)"></path>
                                    </g>
                                </g>
                            </g>
                        </g>
                    </g>
                </g>
            </g>
        </g>
    </g>
</svg>