<?xml version="1.0" encoding="UTF-8"?>
<svg width="72px" height="72px" viewBox="0 0 72 72" version="1.1" xmlns="http://www.w3.org/2000/svg" xmlns:xlink="http://www.w3.org/1999/xlink">
    <!-- Generator: Sketch 48.2 (47327) - http://www.bohemiancoding.com/sketch -->
    <title>默认头像@2x</title>
    <desc>Created with Sketch.</desc>
    <defs>
        <circle id="path-1" cx="36" cy="36" r="36"></circle>
    </defs>
    <g id="个人中心-未登入" stroke="none" stroke-width="1" fill="none" fill-rule="evenodd" transform="translate(-35.000000, -77.000000)">
        <g id="默认头像" transform="translate(35.000000, 77.000000)">
            <g id="Path-10">
                <mask id="mask-2" fill="white">
                    <use xlink:href="#path-1"></use>
                </mask>
                <use id="Mask" fill="#F5F5F5" xlink:href="#path-1"></use>
                <g id="人物女人" mask="url(#mask-2)" fill-rule="nonzero">
                    <g transform="translate(15.000000, 19.200000)" id="Shape">
                        <path d="M29.9391429,24.7329013 C29.9330694,24.7452152 29.9209224,24.7513722 29.914849,24.7575291 L29.2771347,25.3547544 C28.6333469,25.9335089 27.9288245,26.4814785 27.1635673,26.9986633 C26.2100327,27.6759291 25.2868653,28.2977823 24.4001388,28.8703797 C23.8838939,29.2028557 23.3737224,29.5168608 22.875698,29.806238 C17.2638122,33.1433114 13.0306041,34.2146228 9.89062041,34.1592101 C9.48369796,34.1530532 9.08892245,34.1284253 8.71236735,34.0791696 C7.93496327,33.9929722 7.23651429,33.8328911 6.60487347,33.6235544 C5.60882449,33.2910785 4.79497959,32.8416203 4.13297143,32.3552203 C1.74609796,30.618957 1.09623673,27.2572557 2.80288163,24.8314127 C5.12902041,21.5066532 10.0849714,20.6385215 10.0849714,20.6385215 C11.0263592,20.0351392 11.5851184,19.3578734 11.8948653,18.6682937 C12.4293306,17.4676861 12.1924653,16.2486076 11.8584245,15.3804759 C11.5729714,14.6231696 11.2207102,14.1367696 11.2753714,14.1983392 C8.1657551,4.83975696 15.617902,1.50884051 20.3734286,0.351331646 C25.9731673,-1.00935696 31.8219184,1.89057215 33.9537061,7.30869873 C36.0429796,12.6036861 35.1198122,19.6226228 29.9391429,24.7329013 Z" fill="#C3C3C3"></path>
                        <path d="M38.4177061,34.5532557 L38.2840898,39.860557 C38.2112082,42.8405266 35.7514531,45.1863291 32.8179673,45.0816608 L8.47550204,44.2135291 C5.76066122,44.1150177 3.66531429,41.7692152 3.84751837,39.0232101 L4.10867755,35.0211848 C4.63706939,33.9437165 6.85995918,34.2700354 6.85995918,34.2700354 C7.52196735,34.2392506 8.14146122,34.1715241 8.71844082,34.0791696 C19.4320408,32.3305924 16.8143755,20.6877772 16.8143755,20.6877772 C13.0002367,20.4722835 11.9434531,18.8099038 11.9434531,18.8099038 C11.9252327,18.7606481 11.9130857,18.7175494 11.9009388,18.6682937 C11.5851184,17.6277671 11.6094122,16.513357 11.864498,15.3804759 C13.0306041,10.2270987 18.9826041,4.79665823 18.9826041,4.79665823 C18.8793551,5.54780759 19.6749796,9.14347342 22.6874204,11.7232405 C25.6998612,14.3030076 24.1146857,16.7165367 24.1146857,16.7165367 L24.8738694,16.673438 C25.0014122,16.667281 25.1289551,16.6364962 25.2504245,16.6057114 C25.9853143,16.4025316 26.446898,16.6057114 26.7262776,16.9197165 C27.339698,17.6031392 27.2728898,18.6990785 26.5926612,19.3086177 C25.5966122,20.2013772 23.6895429,20.2567899 23.6895429,20.2567899 C23.653102,20.6015797 23.6166612,20.9402127 23.5923673,21.2665316 C23.2583265,25.3855392 23.7381306,27.6389873 24.3940653,28.8642228 C24.5276816,29.1166582 24.6795184,29.3321519 24.8252816,29.5045468 C25.5905388,30.4096203 26.3983102,30.3172658 26.446898,30.292638 C37.1787184,31.0068456 38.4177061,34.5532557 38.4177061,34.5532557 Z" fill="#FFFFFF"></path>
                        <path d="M16.8143755,20.6877772 C16.8143755,20.6877772 20.9686286,20.8971139 22.2622776,19.585681 C22.2622776,19.585681 20.3491347,23.4707241 17.0998286,23.8155139 L16.8143755,20.6877772 Z" fill="#F1F1F1"></path>
                        <path d="M22.6752735,19.9489418 C22.6752735,20.4930052 23.110343,20.9340557 23.6470286,20.9340557 C24.1837141,20.9340557 24.6187837,20.4930052 24.6187837,19.9489418 C24.6187837,19.4048784 24.1837141,18.9638278 23.6470286,18.9638278 C23.110343,18.9638278 22.6752735,19.4048784 22.6752735,19.9489418 Z" fill="#C9C9C9"></path>
                        <path d="M24.6248571,17.2337215 C24.6248571,17.2337215 26.8598939,17.0736405 26.4529714,18.2804051 C26.0399755,19.4871696 25.1714694,19.1239089 25.1714694,19.1239089 C25.1714694,19.1239089 27.3154041,17.5661975 24.6795184,17.2829772" fill="#C9C9C9"></path>
                        <path d="M37.6828163,34.1530532 L37.7617714,34.0914835 C38.0107837,33.9006177 38.3691184,34.0360709 38.4237796,34.343919 C38.6667184,35.6984506 41.5694979,43.378988 40.7582449,49.8927595 C40.2652818,53.8508947 15.5693143,52.731119 6.64738776,52.1523646 C4.6735102,52.0230684 2.37766098,51.5687968 2.23797118,49.580098 C1.95051171,47.2000092 1.79258198,45.4162772 1.76418199,44.2289019 C1.73454661,42.9898761 1.95931043,41.0655086 2.43847347,38.4557995 C2.43847347,38.4557995 3.04582041,33.2664506 7.46730612,34.1961519 C7.46730612,34.1961519 18.7578857,42.6804456 37.6828163,34.1530532 Z" fill="#DFDFDF"></path>
                    </g>
                </g>
            </g>
            <path d="M35.6861187,13.4642383 C47.7396897,11.5614578 54.7106144,15.5811527 56.5988927,25.5233229 C56.681871,26.8480498 56.681871,27.6873951 56.5988927,28.0413586 C56.2978078,29.3257079 55.6334144,29.4467511 55.3737556,29.7538744 C54.8232544,30.4050049 41.8688128,17.0357529 39.4296817,16.2881293 C37.8035944,15.7897136 36.55574,14.8484166 35.6861187,13.4642383 Z" id="Path-2" fill="#DDDDDD"></path>
            <path d="M41.5130846,15.7701753 C36.2253911,11.5166801 31.2797443,10.3464688 26.6761443,12.2595413 C22.0725443,14.1726139 19.6518626,17.340969 19.4140992,21.7646067 C19.4140992,23.4435284 19.5124192,24.8804404 19.7090592,26.0753427 C20.0040192,27.8676963 21.8418822,36.429227 26.6502151,38.5031811 C26.8134555,38.3175565 26.8864326,38.1072952 26.8691465,37.8723971 C26.8614001,37.7671333 26.8508274,37.6720017 26.8240592,37.577888 C26.6502151,36.9666746 26.6508831,36.2102504 26.6761443,35.8536673 C26.7140103,35.319156 26.8034099,34.8901691 26.8240592,34.3915299 C25.0400343,30.997345 25.4154067,27.4510753 27.9501766,23.7527207 C31.7787904,20.4380356 37.1196458,19.5197782 43.9727429,20.9979486 L41.9248746,16.9630323 L41.5130846,15.7701753 Z" id="Path-5" fill="#D5D5D5"></path>
            <path d="M49.5460021,29.1580771 C49.3952061,36.5479372 47.207619,42.0767087 42.9832408,45.7443916 C47.4929349,47.8223883 52.6995016,47.9979161 58.6029408,46.2709747 C67.4580996,43.6805627 63.6161952,35.5359744 63.6161952,35.5359744 C62.6657077,35.803986 60.2489452,34.9771743 56.3659077,33.0555394 C50.5413515,30.1730869 51.4515785,27.4031862 50.1836736,28.3668679 C49.3384037,29.0093223 49.1258465,29.2730587 49.5460021,29.1580771 Z" id="Path-9" fill="#D5D5D5"></path>
            <path d="M41.0176706,15.4533237 C49.0182954,22.982417 54.5400135,28.1558527 57.5828246,30.9736309 C59.5864418,32.8290693 61.9330544,33.590789 63.4475639,35.2066931 C64.2730012,37.0426058 64.4793605,37.7868342 64.0666419,37.4393783 C63.6539232,37.0919224 63.0311154,36.5919496 62.1982183,35.9394599 C60.6613236,34.7986942 58.6707221,34.0558526 56.2264136,33.7109351 C52.559951,33.1935589 50.0017682,32.6297547 47.4951821,30.9736309 C46.7250027,30.4647666 42.2626124,27.1470657 41.0176706,21.453834 C40.6277606,19.6707405 40.6277606,17.6705704 41.0176706,15.4533237 Z" id="Path-4" fill="#E6E6E6"></path>
        </g>
    </g>
</svg>