<?xml version="1.0" encoding="UTF-8"?>
<svg width="153px" height="308px" viewBox="0 0 153 308" version="1.1" xmlns="http://www.w3.org/2000/svg" xmlns:xlink="http://www.w3.org/1999/xlink">
    <!-- Generator: Sketch 49.2 (51160) - http://www.bohemiancoding.com/sketch -->
    <title>模特</title>
    <desc>Created with Sketch.</desc>
    <defs></defs>
    <g id="Page-1" stroke="none" stroke-width="1" fill="none" fill-rule="evenodd">
        <g id="第6步-缺陷" transform="translate(-103.000000, -201.000000)">
            <g id="模特" transform="translate(103.000000, 193.000000)">
                <path d="M97.2906477,184 L54.5474477,184 C52.9875052,178.756148 51.4451672,174.217828 50.364778,172.067179 C48.2661477,167.889594 47.0915301,160.907996 46.8409249,151.122384 C46.8409249,155.796359 45.9573543,160.374826 44.1902131,164.857786 C42.4230719,169.340746 42.4230719,172.109833 44.1902131,173.165047 C44.1902131,175.097442 42.697387,176.06364 39.7117346,176.06364 C35.2332562,176.06364 32,164.857786 32,164.857786 C32,164.857786 39.7117346,156.502307 39.7117346,153.336665 C39.7117346,150.171023 47.8977432,122.770087 50.364778,117.161133 C52.8318128,111.552178 47.9817034,82.6261929 49.5816745,77.1934166 C51.1816456,71.7606403 58.6102115,71.9247641 61.9384575,71.0327466 C64.1572882,70.4380682 66.4209877,68.0204101 68.729556,63.7797723 C78.3455894,59.5453161 83.2645776,57.7762716 83.4865207,58.4726388 C83.8194354,59.5171895 94.7045511,59.4434728 96.4803209,58.0808743 C98.2560907,56.7182758 103.425159,56.1405971 107.343828,59.4434728 C111.262496,62.7463486 110.497625,94.8123859 109.641141,99.8049487 C108.784657,104.797512 111.958713,126.564548 111.958713,126.858255 C111.958713,127.151963 112.445818,139.69538 112.202265,141.644003 C111.958713,143.592625 113,149.915101 113,151.122384 C113,152.329668 112.18966,154.938031 110.867681,158.509579 C109.545701,162.081126 102.095526,164.490159 101.371397,163.686279 C100.647269,162.882399 104.458342,158.509579 105.47757,157.140257 C106.496797,155.770936 105.47757,149.617221 105.47757,151.122384 C105.47757,152.627548 103.425159,157.392007 102.703056,158.509579 C102.221654,159.254627 101.687055,159.254627 101.099258,158.509579 C101.720819,154.782175 102.031599,151.917349 102.031599,149.915101 C102.031599,146.911728 103.425159,144.630685 103.425159,141.964832 C103.425159,139.298979 104.111247,124.701233 102.405031,120.10113 C101.267554,117.034394 100.709406,99.4001853 100.40808,93.5473633 L94.509295,116.165527 C98.3755167,134.01886 101.371397,146.174562 101.371397,148.043904 C101.371397,150.130449 99.1682476,170.679181 97.2906477,184 Z" id="Combined-Shape" fill="#F9E9E1"></path>
                <g id="默认头像" transform="translate(87.000000, 51.500000) rotate(-9.000000) translate(-87.000000, -51.500000) translate(51.000000, 6.000000)">
                    <g id="Path-10" transform="translate(0.000000, 11.557377)" fill-rule="nonzero">
                        <g id="人物女人" transform="translate(0.880952, 0.005464)">
                            <path d="M41.9582653,36.2659117 C41.9493479,36.2839676 41.9315131,36.2929956 41.9225957,36.3020236 L40.9862692,37.1777365 C40.0410253,38.0263655 39.0066074,38.8298546 37.8830155,39.5882039 C36.4829845,40.5812804 35.1275403,41.4931052 33.8256006,42.3327062 C33.067622,42.8202165 32.3185607,43.2806428 31.5873343,43.7049573 C23.3476608,48.598116 17.1322362,50.1689824 12.5219427,50.0877307 C11.9244772,50.0787027 11.3448465,50.0425909 10.7919679,49.9703671 C9.6505413,49.8439756 8.62504082,49.6092484 7.69763168,49.3022975 C6.23517881,48.8147872 5.04024781,48.1557455 4.0682517,47.4425361 C0.563715258,44.8966491 -0.390446064,39.9673786 2.11534208,36.4103592 C5.53070457,31.5352565 12.8072993,30.262313 12.8072993,30.262313 C14.1894956,29.3775721 15.009896,28.3844956 15.4646832,27.3733632 C16.249414,25.6129095 15.9016356,23.8253718 15.4111788,22.5524283 C14.9920612,21.4419882 14.4748523,20.7287788 14.5551088,20.8190584 C9.98940233,7.09654709 20.9310466,2.21241641 27.9133673,0.515158424 C36.135206,-1.4800225 44.7226579,2.77215042 47.8526638,10.7167623 C50.9202478,18.4808147 49.5648037,28.7726983 41.9582653,36.2659117 Z" id="Shape" fill="#8B8A8A"></path>
                            <path d="M54.3997589,50.9507534 L4.32026019,50.9507534 C5.40585358,49.8593417 8.07216229,50.2502341 8.07216229,50.2502341 C9.04415841,50.2050943 9.95373275,50.1057866 10.8008853,49.9703671 C26.531171,47.4064242 22.6877736,30.3345367 22.6877736,30.3345367 C17.0876492,30.0185578 15.5360224,27.5810065 15.5360224,27.5810065 C15.5092702,27.5087827 15.4914354,27.445587 15.4736006,27.3733632 C15.009896,25.8476366 15.0455656,24.2135744 15.4200962,22.5524283 C17.1322362,14.9960191 25.8712838,7.03335132 25.8712838,7.03335132 C25.719688,8.13476341 26.8878669,13.4070967 31.310895,17.1898153 C35.7339232,20.9725339 33.406483,24.5114974 33.406483,24.5114974 L34.5211574,24.4483016 C34.7084227,24.4392736 34.895688,24.3941338 35.074036,24.3489939 C36.1530408,24.051071 36.8307629,24.3489939 37.2409631,24.8094203 C38.14162,25.8115248 38.0435287,27.4185031 37.0447804,28.3122719 C35.5823275,29.6213272 32.7822653,29.702579 32.7822653,29.702579 C32.7287609,30.2081452 32.6752566,30.7046834 32.639587,31.1831657 C32.1491302,37.2228763 32.8536045,40.5271126 33.8166832,42.3236782 C34.0128659,42.6938249 34.2358008,43.0098038 34.4498183,43.2625869 C35.5734101,44.5896982 36.7594237,44.4542787 36.8307629,44.4181668 C52.5878008,45.4654111 54.4069495,50.6655206 54.4069495,50.6655206 L54.3997589,50.9507534 Z" id="Combined-Shape" fill="#F9E9E1"></path>
                            <path d="M22.6877736,30.3345367 C22.6877736,30.3345367 28.7872721,30.6414876 30.6866774,28.7185304 C30.6866774,28.7185304 27.8776978,34.4151783 23.1068912,34.9207445 L22.6877736,30.3345367 Z" id="Shape" fill="#F2DBCF"></path>
                            <path d="M31.2930603,29.2511806 C31.2930603,30.048942 31.9318529,30.6956554 32.7198435,30.6956554 C33.5078342,30.6956554 34.1466268,30.048942 34.1466268,29.2511806 C34.1466268,28.4534191 33.5078342,27.8067057 32.7198435,27.8067057 C31.9318529,27.8067057 31.2930603,28.4534191 31.2930603,29.2511806 Z" id="Shape" fill="#FFFFFF"></path>
                            <path d="M34.1555442,25.2698467 C34.1555442,25.2698467 37.4371458,25.0351195 36.8396803,26.8046012 C36.2332974,28.574083 34.9581098,28.0414328 34.9581098,28.0414328 C34.9581098,28.0414328 38.1059504,25.7573569 34.2358008,25.3420704" id="Shape" fill="#F2DBCF"></path>
                        </g>
                    </g>
                    <path d="M29.2534283,3.15248057 C46.9511317,0.362429031 57.1862195,6.25651713 59.9586917,20.8347449 C60.0805249,22.7771951 60.0805249,24.007929 59.9586917,24.5269466 C59.5166226,26.410191 58.5411244,26.587677 58.1598793,27.0380126 C57.3516037,27.9927668 38.3311934,8.38940087 34.7499295,7.29315867 C32.3624203,6.56233054 30.5302532,5.18210451 29.2534283,3.15248057 Z" id="Path-2" fill="#D8D8D8"></path>
                    <path d="M37.8088941,6.53368148 C30.045217,0.296771403 22.7837515,-1.41911224 16.0244976,1.38603055 C9.26524367,4.19117335 5.71106817,8.83693998 5.36197111,15.3233305 C5.36197111,17.7851372 5.50632983,19.8920847 5.79504727,21.6441729 C6.22812343,24.2723051 8.92657312,36.8260979 15.986427,39.8671416 C16.2261052,39.5949599 16.3332542,39.2866533 16.3078738,38.9422216 C16.2965002,38.7878731 16.2809768,38.6483813 16.2416742,38.5103823 C15.986427,37.6141586 15.9874078,36.505012 16.0244976,35.9821533 C16.0800945,35.1983982 16.2113558,34.5693736 16.2416742,33.8382178 C13.6222725,28.8613165 14.1734146,23.6614128 17.8951006,18.2385066 C23.5164779,13.3781761 31.3582101,12.0317331 41.4202971,14.1991778 L38.4135063,8.28277051 L37.8088941,6.53368148 Z" id="Path-5" fill="#BEBEBE"></path>
                    <path d="M49.603257,26.1643936 C49.3818502,37.0001629 46.1699168,45.1070136 39.9674568,50.4849457 C46.588833,53.5319173 54.2333952,53.7892941 62.9011432,51.2570759 C75.9027653,47.4587486 70.2618738,35.5163195 70.2618738,35.5163195 C68.8663168,35.9093056 65.3178957,34.6969496 59.6166106,31.8792517 C51.0646828,27.6527049 52.4011272,23.5911929 50.5395208,25.0042416 C49.2984499,25.946274 48.9863619,26.3329914 49.603257,26.1643936 Z" id="Path-9" fill="#BEBEBE"></path>
                    <path d="M37.0815004,6.06908114 C48.8284497,17.1090085 56.9357341,24.6948296 61.4033536,28.8265444 C64.3451725,31.5471781 67.7905957,32.6640895 70.0142804,35.0334936 C71.2262319,37.7254967 71.5292198,38.8167606 70.923244,38.3072852 C70.3172683,37.7978098 69.4028281,37.0646985 68.1799237,36.1079512 C65.923372,34.4352437 63.0006633,33.3460134 59.4117978,32.8402601 C54.0284995,32.0816301 50.2724375,31.2549226 46.5921324,28.8265444 C45.4613135,28.0803954 38.9093913,23.2156428 37.0815004,14.8676436 C36.5090136,12.2530894 36.5090136,9.32023526 37.0815004,6.06908114 Z" id="Path-4" fill="#E1E1E1"></path>
                </g>
                <path d="" id="Path-17" stroke="#979797" stroke-width="1.444"></path>
                <path d="M94.8678283,194.43585 C93.120467,201.967491 89.6231516,215.951331 90.9194138,220.257362 C92.215676,224.563393 91.8812403,229.020066 91.8812403,234.385486 C91.8812403,237.962433 88.7719395,251.911547 82.5533378,276.232828 L82.5533378,285.453329 C83.4878802,290.917649 84.3418196,295.404263 85.1151561,298.91317 L75.9849854,314.341309 C75.8581124,314.175492 73.5646566,314.121753 69.1046179,314.180091 C71.3281396,310.151217 72.4399004,305.475101 72.4399004,300.151743 L72.9807129,285.084229 C72.0931971,283.148859 70.9844448,278.90395 69.6394043,273.711426 C73.1171215,248.304064 74.9100987,233.705442 76.2971445,228.897792 C78.3109598,221.917691 77.6946592,216.119255 74.4482426,211.502484 L78.5198021,189 L95,193.827666 C94.9547555,194.048142 94.9106693,194.251193 94.8678283,194.43585 Z" id="Combined-Shape" fill="#F7E2D8"></path>
                <path d="M88.2676154,307.080488 C88.4679787,307.333096 88.6679585,307.606231 88.8675546,307.899893 C89.398536,309.003738 89.9364662,309.970615 90.4310473,310.636013 C90.9567474,311.704009 91.4797316,312.917319 92,314.275943 C91.9981204,314.443258 91.9910361,314.616105 91.9787473,314.794483 C85.6055795,315.598161 81.4731029,316 79.5813174,316 C77.6690977,316 76.2107131,315.093741 75.2061635,313.281224 L75.2662807,311.260803 C75.9862464,306.219084 76.3462293,302.843695 76.3462293,301.134638 C76.3462293,299.425581 75.9862464,296.756897 75.2662807,293.128588 C74.1654085,292.431932 73.3187208,291.545571 72.7262176,290.469505 L72.7262176,284.436459 C70.1969669,278.903631 65.0727258,255.710543 61.5608387,239.939086 C58.0489516,224.167629 61.5608387,215.429827 61.5608387,209.924501 C61.5608387,208.405938 61.0440716,205.167488 60.232153,201.134196 L65.8153255,197 L77.5325724,204.427524 C76.741677,211.703133 76.3462293,215.747902 76.3462293,216.561832 C76.3462293,217.782728 76.3462293,229.893954 76.9394008,237.7787 C77.5325724,245.663446 80.5985536,279.78468 82.2848649,284.935425 C82.8518264,286.667178 83.4154635,288.591901 83.9139223,290.445915 C85.7057674,300.135422 87.1569984,305.68028 88.2676154,307.080488 Z" id="Combined-Shape" fill="#F9E9E1"></path>
                <path d="M99.6767468,103.02832 C98.0611727,108.900647 96.1290521,112.65625 95.7146386,117.400391 C95.3002252,122.144531 101.42285,139.046387 101.42285,148.011936 C101.42285,156.977485 100.29198,174.891113 94.5434722,198.280794 C81.4827506,206.150289 70.0119712,209.240925 60.131134,207.552703 C58.7955817,199.035096 52.322282,181.101043 50.0783102,173.257813 C47.8343384,165.414582 47.0370542,162.027645 46.6667993,153.433856 C47.1769828,143.164418 49.3172711,135.808612 53.0876642,131.366437 C59.0417084,124.351543 61.42817,119.032737 62.3512461,114.537106 C62.9666301,111.540019 60.6288348,102.253528 55.3378601,86.6776311 C53.4106629,81.0042294 61.5686494,79.3588867 64.724341,79.3588867 C67.8800327,79.3588867 72.793157,81.2269736 77.4065755,85.7015327 C79.9916382,80.0447166 82.9451655,76.2802734 86.2671574,74.4082031 C91.2501451,71.6000977 95.7840965,70.7289994 99.6767468,75.2419411 C103.569397,79.7548828 101.292321,97.1559939 99.6767468,103.02832 Z" id="Combined-Shape" fill="#666666"></path>
                <polyline id="Rectangle-16" stroke="#CCCCCC" stroke-width="0.5" points="0 61 12 61 12 262 0 262"></polyline>
                <polyline id="Rectangle-16-Copy-4" stroke="#CCCCCC" stroke-width="0.5" transform="translate(147.000000, 161.500000) scale(-1, 1) translate(-147.000000, -161.500000) " points="141 61 153 61 153 262 141 262"></polyline>
                <path d="M0,111 L12,111" id="Rectangle-16-Copy" stroke="#CCCCCC" stroke-width="0.5"></path>
                <path d="M141,111 L153,111" id="Rectangle-16-Copy-5" stroke="#CCCCCC" stroke-width="0.5" transform="translate(147.000000, 111.500000) scale(-1, 1) translate(-147.000000, -111.500000) "></path>
                <path d="M0,161 L12,161" id="Rectangle-16-Copy-2" stroke="#CCCCCC" stroke-width="0.5"></path>
                <path d="M141,161 L153,161" id="Rectangle-16-Copy-6" stroke="#CCCCCC" stroke-width="0.5" transform="translate(147.000000, 161.500000) scale(-1, 1) translate(-147.000000, -161.500000) "></path>
                <path d="M0,211 L12,211" id="Rectangle-16-Copy-3" stroke="#CCCCCC" stroke-width="0.5"></path>
                <path d="M141,211 L153,211" id="Rectangle-16-Copy-7" stroke="#CCCCCC" stroke-width="0.5" transform="translate(147.000000, 211.500000) scale(-1, 1) translate(-147.000000, -211.500000) "></path>
            </g>
        </g>
    </g>
</svg>