<?xml version="1.0" encoding="UTF-8"?>
<svg width="20px" height="20px" viewBox="0 0 20 20" version="1.1" xmlns="http://www.w3.org/2000/svg" xmlns:xlink="http://www.w3.org/1999/xlink">
    <!-- Generator: Sketch 49.2 (51160) - http://www.bohemiancoding.com/sketch -->
    <title>风格-下一步</title>
    <desc>Created with Sketch.</desc>
    <defs></defs>
    <g id="Symbols" stroke="none" stroke-width="1" fill="none" fill-rule="evenodd">
        <g id="风格-下一步" fill="#CCCCCC" fill-rule="nonzero">
            <g>
                <path d="M10,1 C5.02963769,1 1,5.02963769 1,10 C1,14.9703623 5.02963769,19 10,19 C14.9703623,19 19,14.9703623 19,10 C19,5.02963769 14.9703623,1 10,1 Z M10,0 C15.5226471,0 20,4.47735294 20,10 C20,15.5226471 15.5226471,20 10,20 C4.47735294,20 0,15.5226471 0,10 C0,4.47735294 4.47735294,0 10,0 Z" id="Stroke-1"></path>
                <polygon id="Stroke-3" points="6 10.5 6 9.5 13.115942 9.5 13.115942 10.5"></polygon>
                <polygon id="Stroke-5" points="10.1464466 7.35355339 10.8535534 6.64644661 14.2521068 10.045 10.8535534 13.4435534 10.1464466 12.7364466 12.8378932 10.045"></polygon>
            </g>
        </g>
    </g>
</svg>