<?xml version="1.0" encoding="UTF-8"?>
<svg width="23px" height="23px" viewBox="0 0 23 23" version="1.1" xmlns="http://www.w3.org/2000/svg" xmlns:xlink="http://www.w3.org/1999/xlink">
    <!-- Generator: Sketch 49.2 (51160) - http://www.bohemiancoding.com/sketch -->
    <title>感叹提示</title>
    <desc>Created with Sketch.</desc>
    <defs></defs>
    <g id="Page-1" stroke="none" stroke-width="1" fill="none" fill-rule="evenodd">
        <g id="3.2.7新衣箱-不能下单提醒-copy" transform="translate(-32.000000, -575.000000)" fill="#DAB500">
            <g id="提示" transform="translate(16.000000, 561.000000)">
                <g id="感叹提示" transform="translate(16.000000, 14.000000)">
                    <path d="M19.3956414,4.17354671 C19.0789085,4.42929965 19.0294001,4.89335909 19.2850478,5.21017681 C20.7290092,6.98613243 21.5132131,9.20743538 21.5042915,11.4963135 C21.5042915,17.0186176 17.0112447,21.5116644 11.4896779,21.5116644 C5.96811121,21.5116644 1.47432706,17.0186176 1.47432706,11.4963135 C1.47432706,5.9747468 5.9673739,1.48243725 11.4889406,1.48243727 C13.354285,1.48243727 15.1761292,1.99854045 16.755405,2.97618734 C17.1017236,3.19057505 17.5562659,3.08362391 17.7706536,2.73730528 C17.9850414,2.39098664 17.8780902,1.93644433 17.5317716,1.72205659 C15.7163082,0.59996664 13.6239204,0.0063361856 11.4896779,0.00785675723 C5.15414275,0.00785675723 0.000483855372,5.16151566 0.000483855372,11.4963135 C0.000483855372,17.8318487 5.15414275,22.9862449 11.4896779,22.9862449 C17.8252131,22.986245 22.978872,17.8318487 22.978872,11.4963135 C22.978872,8.87893312 22.0742169,6.31758678 20.4330088,4.28414024 C20.3102875,4.13165005 20.1319157,4.03427975 19.9372796,4.01352964 C19.7426436,3.99277953 19.5477529,4.05035639 19.3956414,4.17354671 Z" id="Shape" fill-rule="nonzero"></path>
                    <path d="M12,5 C12.5522847,5 13,5.44771525 13,6 L13,13 C13,13.5522847 12.5522847,14 12,14 C11.4477153,14 11,13.5522847 11,13 L11,6 C11,5.44771525 11.4477153,5 12,5 Z M12.015222,17.1231597 C11.4629373,17.1231597 11.015222,16.6754444 11.015222,16.1231597 C11.015222,15.5708749 11.4629373,15.1231597 12.015222,15.1231597 C12.5675068,15.1231597 13.015222,15.5708749 13.015222,16.1231597 C13.015222,16.6754444 12.5675068,17.1231597 12.015222,17.1231597 Z" id="Combined-Shape"></path>
                </g>
            </g>
        </g>
    </g>
</svg>