<?xml version="1.0" encoding="UTF-8"?>
<svg width="119px" height="351px" viewBox="0 0 119 351" version="1.1" xmlns="http://www.w3.org/2000/svg" xmlns:xlink="http://www.w3.org/1999/xlink">
    <!-- Generator: Sketch 49.2 (51160) - http://www.bohemiancoding.com/sketch -->
    <title>苹果型</title>
    <desc>Created with Sketch.</desc>
    <defs></defs>
    <g id="Page-1" stroke="none" stroke-width="1" fill="none" fill-rule="evenodd">
        <g id="体型" transform="translate(-636.000000, -39.000000)">
            <g id="苹果型" transform="translate(635.000000, 39.000000)">
                <g id="苹果型-copy" transform="translate(1.200000, 0.100000)">
                    <g id="人体线性图" transform="translate(-0.000000, -0.000000)">
                        <path d="M117.582863,193.150035 C117.691069,191.893257 117.508847,190.021353 117.040043,187.215606 C116.749339,185.475774 115.269278,177.672129 115.400377,178.380251 C114.341249,172.659462 113.700111,168.309096 113.377969,164.006433 C113.221288,161.731262 113.127478,160.263565 112.934116,157.169982 C111.942753,141.308775 111.335314,135.265852 109.975472,131.504456 C108.634858,127.796247 107.487,122.889211 106.52484,116.73355 C106.18124,108.316227 105.124733,100.71661 103.409954,92.5915843 C103.080273,91.0294786 102.739082,89.502264 102.314252,87.6651156 C102.225898,87.2830347 101.518502,84.2522173 101.334867,83.4478393 C100.636043,80.3867777 100.299154,78.5786693 100.19527,77.1073491 C99.4139119,66.0409353 96.5675836,62.382043 84.8862443,60.92662 C79.4526103,60.2496226 75.1500769,58.6637785 71.9898734,56.1651547 C71.4408769,55.7449807 70.9187936,55.2745258 70.4340325,54.7695475 C68.0146464,52.3027687 66.4769494,49.1446797 65.8212996,45.3067827 L66.6261572,45.1692843 C67.2546609,48.8482793 68.7181459,51.8539535 71.0200102,54.2009417 C71.4797442,54.6798172 71.9710068,55.1224991 72.4912058,55.5206968 C75.5284898,57.922072 79.6917688,59.4565891 84.9871969,60.1163669 C97.0926074,61.6246266 100.202947,65.6228991 101.00976,77.049841 C101.109757,78.4661042 101.44121,80.2450365 102.130904,83.2661083 C102.314012,84.0681777 103.021028,87.0973632 103.109777,87.4811553 C103.535693,89.3230007 103.877966,90.8550541 104.208874,92.4229732 C105.932432,100.589599 106.995047,108.233151 107.336094,116.653677 C108.28624,122.715381 109.422816,127.574181 110.74335,131.226849 C112.143484,135.099696 112.749749,141.130947 113.738534,156.95089 C113.942313,160.211144 114.036057,161.677817 114.153653,163.406055 C114.511708,168.212834 115.149037,172.537362 116.203251,178.231609 C116.070417,177.514116 117.552965,185.330873 117.845396,187.081042 C118.325047,189.9517 118.512222,191.8745 118.396371,193.220076 C117.899034,198.996498 111.991546,209.101276 108.695749,207.991704 C107.994903,207.473138 107.952735,206.774023 108.276777,205.775105 C108.395166,205.410149 108.558337,205.007159 108.813739,204.430654 C108.824783,204.405724 109.348489,203.242159 109.50635,202.877562 C110.658423,200.216724 111.112877,198.207428 110.756012,196.09752 C110.63401,196.926262 110.539728,197.753601 110.543993,197.716492 C110.400833,198.962164 110.302076,199.662612 110.176255,200.198412 C110.08764,200.575768 109.993573,200.830285 109.855172,200.993989 C109.577635,201.322266 109.19512,201.249718 108.953627,200.932795 C107.170875,199.576436 106.313446,196.710506 106.11299,192.867553 C106.042753,191.521031 106.060546,190.142487 106.141032,188.802672 C106.190769,187.97472 106.258492,187.269332 106.302477,186.931701 C106.303237,186.925874 106.714561,185.196939 106.903408,184.186237 C107.677329,180.044249 107.777179,175.746699 106.779388,171.454883 C105.552287,166.176734 101.945689,152.675263 95.9511124,130.907441 C95.1196306,124.884523 93.9372051,119.211829 92.3830773,113.319911 C92.2835587,112.942623 92.1833686,112.56743 92.0817923,112.191582 C92.8126957,116.151115 93.2354972,120.023641 93.6460262,125.033203 C93.8795188,127.882443 94.0820521,129.299675 94.5274169,130.730256 C96.1777118,136.031259 98.8349824,156.43295 99.6134993,168.994123 C100.042001,175.907895 100.102733,177.952044 99.8824008,180.498192 C99.6702073,182.950293 99.656604,183.019797 97.6155848,192.648506 C96.7145518,196.899218 94.5981462,203.525995 91.4495682,212.288601 C91.062286,213.366421 90.6602691,214.474019 90.2421431,215.615872 C89.2199871,218.407259 82.426756,236.381856 82.4443245,236.67534 C82.4625513,236.979819 83.0971283,244.699949 83.2589354,246.713971 C83.2955205,247.169813 83.2955205,247.169813 83.3320196,247.626597 C83.8032556,253.5311 84.0709064,257.28638 84.0775323,258.370922 C84.0931233,260.922905 83.9619742,263.640385 83.4985786,267.51628 C82.8105514,273.27102 81.5268862,279.93635 79.5001319,287.583605 C75.5315069,302.557837 70.6450489,326.145259 70.8867553,327.903898 C71.1433865,329.771129 71.5101972,331.254202 71.9683519,331.974446 C72.318843,332.525437 72.2171662,332.930073 71.7069561,334.057896 C71.3117449,335.062492 71.2919698,335.368964 71.4133926,335.619176 C71.6036671,336.01127 72.3796571,339.171438 72.5465386,339.735655 C73.1830682,341.887723 73.9050445,343.223785 74.7689872,343.598231 C77.0590392,344.590776 78.3768075,346.613552 77.7312722,347.987845 C77.4893808,348.502812 77.1051073,348.841869 76.4295887,349.256762 C76.3618178,349.298386 76.1043939,349.453357 76.0447272,349.490017 C75.6761933,349.716453 75.4875767,349.868586 75.3906623,350.02603 L74.9113467,350.198474 C74.3870399,350.072655 74.1118402,350.046648 73.8656242,350.070882 C73.5520183,350.101749 73.3273012,350.209148 73.1923549,350.402809 L67.1624851,350.853304 L66.7702094,349.988134 C66.4382125,350.543773 65.8803054,350.840396 65.1220055,350.840396 C64.9485234,350.840396 64.8067689,350.844796 64.4605971,350.858822 C62.3232306,350.935553 61.4054125,350.571847 61.3170397,349.070827 C61.3022573,348.819747 60.8831059,343.352032 60.7156907,340.986088 C60.6374103,339.879815 60.5656404,338.822634 60.5005101,337.810279 C60.1746147,332.744715 60.0347026,329.134885 60.1413589,327.402246 C60.3867616,323.415663 61.3163339,296.437066 61.3163339,293.720802 C61.3163339,293.17147 61.0671471,286.203836 61.0646733,286.129058 C60.9636835,283.076344 60.8915604,280.351614 60.8500765,277.763947 C60.738046,270.775747 60.8672249,265.751731 61.3227463,263.212002 C62.7757041,255.111133 62.9367675,248.914087 61.3263329,241.772 C60.0697598,236.199246 59.8989113,215.812604 60.8019252,180.276665 L58.3080948,180.406638 C59.1239507,215.858236 58.9520792,236.205486 57.696913,241.772 C56.0864783,248.914087 56.2475418,255.111133 57.7004995,263.212002 C58.156021,265.751731 58.2851999,270.775747 58.1731694,277.763947 C58.1316855,280.351614 58.0595624,283.076344 57.9585725,286.129058 C57.9560987,286.203836 57.7069119,293.17147 57.7069119,293.720802 C57.7069119,296.437066 58.6364842,323.415663 58.8818869,327.402246 C58.9885432,329.134885 58.8486312,332.744715 58.5227357,337.810279 C58.4576054,338.822634 58.3858355,339.879815 58.3075552,340.986088 C58.1401399,343.352032 57.7209885,348.819747 57.7062062,349.070827 C57.6178334,350.571847 56.7000152,350.935553 54.8054098,350.868239 C54.216477,350.844796 54.0747224,350.840396 53.9012403,350.840396 C53.1429404,350.840396 52.5850333,350.543773 52.2530364,349.988134 L51.8607607,350.853304 L45.9456502,350.567499 C45.6959446,350.209148 45.4712276,350.101749 45.1576217,350.070882 C44.9114057,350.046648 44.6362059,350.072655 44.3649612,350.131767 C44.285031,350.149186 44.0978491,350.20645 43.8034153,350.303558 C43.5356691,349.868586 43.3470525,349.716453 42.9785187,349.490017 C42.9188519,349.453357 42.661428,349.298386 42.5936571,349.256762 C41.9181386,348.841869 41.5338651,348.502812 41.2919736,347.987845 C40.6464384,346.613552 41.9642066,344.590776 44.2542586,343.598231 C45.1182014,343.223785 45.8401777,341.887723 46.4767073,339.735655 C46.6435888,339.171438 47.4195787,336.01127 47.6098532,335.619176 C47.731276,335.368964 47.7115009,335.062492 47.5554523,334.628209 C46.8060796,332.930073 46.7044028,332.525437 47.0548939,331.974446 C47.5130486,331.254202 47.8798593,329.771129 48.1364905,327.903898 C48.3781969,326.145259 43.491739,302.557837 39.523114,287.583605 C37.4963597,279.93635 36.2126944,273.27102 35.5246673,267.51628 C35.0612717,263.640385 34.9301225,260.922905 34.9457135,258.370922 C34.9523394,257.28638 35.2199902,253.5311 35.6912262,247.626597 C35.7277253,247.169813 35.7277253,247.169813 35.7643104,246.713971 C35.9261175,244.699949 36.5606945,236.979819 36.5789213,236.67534 C36.5899315,236.491415 35.800048,234.243069 34.1761572,229.855472 C33.7851203,228.798927 32.0863051,224.226539 31.6586525,223.072409 C30.5581547,220.102434 29.6447547,217.617913 28.7676197,215.200957 C28.4570814,214.345266 28.1560663,213.511591 27.8635864,212.696955 C24.5568555,203.486807 22.3551787,196.751509 21.4092578,192.655717 C19.5345521,184.538333 19.332114,183.57215 19.0911999,181.087131 C18.8229336,178.319973 18.9022172,175.868991 19.4100726,168.989321 C20.4529609,154.861819 22.7781163,136.720471 24.4960899,131.243464 C25.0701419,129.41335 25.2993987,127.729542 25.548965,124.196904 C25.9500854,118.519002 26.3420094,114.431902 27.0912137,110.035829 C26.6386753,111.921476 26.239275,113.653227 25.8520934,115.422832 C24.7197508,120.598179 23.7995946,125.638006 23.0557944,130.978362 C19.9114654,140.605547 17.4578905,149.240943 15.4537601,157.368143 C14.7272368,160.314358 14.1057344,163.000819 13.4565245,165.945166 C13.4577603,165.939561 12.4494678,170.57049 12.2438579,171.454883 C11.2460667,175.746699 11.3459171,180.044249 12.1198379,184.186237 C12.3086851,185.196939 12.7200093,186.925874 12.7207685,186.931701 C12.7647542,187.269332 12.8324768,187.97472 12.8822138,188.802672 C12.9626994,190.142487 12.9804927,191.521031 12.9102555,192.867553 C12.7097997,196.710506 11.852371,199.576436 10.0696186,200.932795 C9.82812625,201.249718 9.44561054,201.322266 9.16807397,200.993989 C9.029673,200.830285 8.93560543,200.575768 8.84699124,200.198412 C8.72116992,199.662612 8.62241242,198.962164 8.47925273,197.716492 C8.48351744,197.753601 8.38923561,196.926262 8.36338673,196.706189 C7.91036875,198.207428 8.3648233,200.216724 9.51689597,202.877562 C9.67475688,203.242159 10.1984624,204.405724 10.2095069,204.430654 C10.4649087,205.007159 10.6280798,205.410149 10.7464687,205.775105 C11.0705106,206.774023 11.0283423,207.473138 10.4487232,207.926388 C7.03169969,209.101276 1.1242122,198.996498 0.626874657,193.220076 C0.51102341,191.8745 0.698199338,189.9517 1.17784988,187.081042 C1.47028089,185.330873 2.95282877,177.514116 2.81999437,178.231609 C3.87420854,172.537362 4.51153826,168.212834 4.83103752,163.94547 C4.98718899,161.677817 5.08093331,160.211144 5.27420213,157.119045 C6.27349662,141.130947 6.87976167,135.099696 8.27989622,131.226849 C9.60043005,127.574181 10.7370055,122.715381 11.682567,116.700247 C12.0281989,108.233151 13.0908138,100.589599 14.8143723,92.4229732 C15.1452801,90.8550541 15.4875531,89.3230007 15.9134686,87.4811553 C16.0022182,87.0973632 16.7092338,84.0681777 16.8923419,83.2661083 C17.5820363,80.2450365 17.9134886,78.4661042 18.0134857,77.049841 C18.8202993,65.6228991 21.9306384,61.6246266 34.036049,60.1163669 C39.331477,59.4565891 43.494756,57.922072 46.5371154,55.5167487 C47.0522391,55.1224991 47.5435017,54.6798172 48.0062754,54.1978091 C50.4681486,51.6877109 51.9723301,48.418061 52.5183612,44.3752001 L53.3275322,44.4844872 C52.7587733,48.6956275 51.1794865,52.1285341 48.592253,54.766415 C48.1044522,55.2745258 47.5823689,55.7449807 47.0384478,56.1612065 C43.873169,58.6637785 39.5706355,60.2496226 34.1370015,60.92662 C22.4556622,62.382043 19.6093339,66.0409353 18.8279759,77.1073491 C18.7240915,78.5786693 18.387203,80.3867777 17.6883792,83.4478393 C17.504744,84.2522173 16.7973475,87.2830347 16.7089936,87.6651156 C16.2841643,89.502264 15.9429723,91.0294786 15.6132914,92.5915843 C13.8985126,100.71661 12.8420056,108.316227 12.4938204,116.780119 C11.5362461,122.889211 10.3883873,127.796247 9.04777351,131.504456 C7.68793148,135.265852 7.08049316,141.308775 6.09963994,157.001825 C5.89576813,160.263565 5.80195831,161.731262 5.68422715,163.461486 C5.32313437,168.309096 4.68199656,172.659462 3.62286869,178.380251 C3.753968,177.672129 2.27390694,185.475774 1.98320317,187.215606 C1.51439852,190.021353 1.33217704,191.893257 1.44038292,193.150035 C1.89391454,198.417665 7.42829055,207.920547 10.0045773,207.236624 C10.3816226,206.930809 10.3080008,206.75972 8.76759707,203.201989 C7.55825545,200.408882 7.07287763,198.262864 7.46215072,195.96135 C7.57633884,195.286232 7.68039366,194.838848 7.78558598,194.580021 C7.97677674,194.109594 8.46217573,193.905778 8.75492825,194.419145 C8.92054134,194.709562 9.02092414,195.304869 9.17432993,196.610939 C9.20037271,196.832663 9.29484477,197.661671 9.29043121,197.623267 C9.42971206,198.835188 9.52604782,199.518459 9.64188614,200.011748 C11.1452429,198.983446 11.9108096,196.353199 12.0948462,192.82502 C12.1633486,191.511756 12.1459392,190.162956 12.0671652,188.851634 C12.0185792,188.042841 11.9526649,187.356289 11.9110927,187.037184 C11.9169415,187.082079 11.5130985,185.38459 11.3172105,184.336207 C10.524235,180.092238 10.4218615,175.686098 11.4485504,171.269984 C11.6526379,170.39214 12.659029,165.769944 12.6591595,165.769352 C13.3097236,162.818863 13.9327016,160.126024 14.6609904,157.172649 C16.6698211,149.026389 19.1288824,140.371684 22.263287,130.795778 C22.9938355,125.503978 23.9177705,120.443454 25.0544446,115.24831 C25.557703,112.948178 26.0813399,110.712651 26.7145072,108.1238 C26.9499545,107.16112 27.9315368,103.206283 28.1629637,102.252804 C28.6634615,100.190752 29.0172799,98.6055466 29.2467672,97.3347583 C28.5979553,94.4250461 28.4743025,92.2014935 28.8169024,91.2968213 C29.1276332,90.4763029 29.8230592,90.7127758 30.0911946,91.4891257 C30.2947898,92.0786084 30.4097052,93.0743573 30.4009241,94.3378178 C30.3952696,95.1514115 30.2948128,96.09404 30.079774,97.3160464 C30.1718377,97.7208049 30.2743245,98.1396121 30.3875279,98.5703934 C27.7409641,109.260988 27.0678753,114.283271 26.363453,124.254444 C26.1096102,127.847616 25.8738369,129.579285 25.2751799,131.487841 C23.5827647,136.883367 21.2624822,154.986695 20.2243748,169.049433 C19.7199827,175.882187 19.6416647,178.303317 19.9039076,181.008342 C20.1397409,183.440954 20.341359,184.403223 22.2048342,192.471979 C23.1410708,196.525838 25.3362976,203.241405 28.6320748,212.421043 C28.9242305,213.234776 29.2249293,214.067575 29.535157,214.922411 C28.7921047,212.874922 37.4252971,236.200981 37.3939801,236.724131 C37.3751202,237.039187 36.7384843,244.784364 36.5782059,246.77936 C36.5416371,247.234998 36.5416371,247.234998 36.505156,247.691556 C36.0369389,253.558233 35.7686523,257.322434 35.7622162,258.37591 C35.7468216,260.895736 35.876356,263.579757 36.3354112,267.419349 C37.0188702,273.135879 38.2953156,279.763721 40.3123827,287.374425 C44.3243159,302.512065 49.2095159,326.093415 48.9454041,328.015075 C48.6727727,329.998722 48.2868592,331.559031 47.7438377,332.41269 C47.6149621,332.615289 47.6838133,332.889292 48.0602245,333.721352 C48.1867772,334.001097 48.2575772,334.167608 48.323869,334.352098 C48.5470594,334.973237 48.5803706,335.489489 48.3444436,335.975657 C48.1985223,336.276353 47.4512022,339.319766 47.259694,339.967243 C46.5549663,342.349885 45.749761,343.839968 44.5789641,344.347409 C42.6590442,345.179533 41.6224016,346.77078 42.0310208,347.640698 C42.1868263,347.972395 42.471266,348.223366 43.020986,348.560995 C43.0846132,348.600074 43.342118,348.755094 43.4059681,348.794325 C43.7363219,348.997301 43.9651764,349.162781 44.1360109,349.34634 C44.5388414,349.258191 44.8948105,349.224551 45.2376014,349.258291 C45.6932625,349.303139 46.0837203,349.464955 46.3674786,349.770411 L51.3461553,350.010969 L52.5774938,347.295233 L52.7307332,348.800352 C52.8183832,349.661252 53.1778707,350.023878 53.9012403,350.023878 C54.0896999,350.023878 54.2381144,350.028485 54.5957062,350.042974 C56.333867,350.105511 56.8391456,349.905283 56.8910998,349.022837 C56.9063855,348.763208 57.3261123,343.287986 57.4930738,340.928454 C57.571237,339.823837 57.6428903,338.768373 57.7079024,337.757857 C58.0312989,332.731134 58.1706055,329.136926 58.0669116,327.452413 C57.8205342,323.449997 56.890394,296.454917 56.890394,293.720802 C56.890394,293.154427 57.1411428,286.143119 57.1425011,286.102061 C57.2433498,283.053612 57.3153567,280.333273 57.3567564,277.750859 C57.4678673,270.820022 57.3394035,265.823821 56.8968064,263.356151 C55.4262249,255.157021 55.2624693,248.856395 56.900393,241.592396 C58.1396077,236.096625 58.3067188,215.556977 57.3938252,179.856431 L58.3392814,179.587386 L61.6407001,179.415324 C60.716527,215.556977 60.8836381,236.096625 62.1228529,241.592396 C63.7607765,248.856395 63.597021,255.157021 62.1264394,263.356151 C61.6838423,265.823821 61.5553786,270.820022 61.6664895,277.750859 C61.7078891,280.333273 61.779896,283.053612 61.8807448,286.102061 C61.882103,286.143119 62.1328518,293.154427 62.1328518,293.720802 C62.1328518,296.454917 61.2027116,323.449997 60.9563342,327.452413 C60.8526404,329.136926 60.9919469,332.731134 61.3153434,337.757857 C61.3803555,338.768373 61.4520088,339.823837 61.530172,340.928454 C61.6971335,343.287986 62.1168604,348.763208 62.1321461,349.022837 C62.1841002,349.905283 62.6893788,350.105511 64.1888441,350.052236 C64.7851315,350.028485 64.9335459,350.023878 65.1220055,350.023878 C65.8453752,350.023878 66.2048626,349.661252 66.2925126,348.800352 L66.445752,347.295233 L67.6770906,350.010969 L72.6557673,349.770411 C72.9395256,349.464955 73.3299834,349.303139 73.7856444,349.258291 C74.1284354,349.224551 74.4844044,349.258191 74.8321464,349.333974 C75.0580694,349.162781 75.2869239,348.997301 75.6172778,348.794325 C75.6811279,348.755094 75.9386326,348.600074 76.0022599,348.560995 C76.5519798,348.223366 76.8364196,347.972395 76.992225,347.640698 C77.4008442,346.77078 76.3642017,345.179533 74.4442817,344.347409 C73.2734849,343.839968 72.4682796,342.349885 71.7635518,339.967243 C71.5720437,339.319766 70.8247235,336.276353 70.6788022,335.975657 C70.4428752,335.489489 70.4761865,334.973237 70.6993769,334.352098 C70.7656687,334.167608 70.8364686,334.001097 70.9630213,333.721352 C71.3394326,332.889292 71.4082837,332.615289 71.2794082,332.41269 C70.7363867,331.559031 70.3504732,329.998722 70.0778417,328.015075 C69.8137299,326.093415 74.69893,302.512065 78.7108631,287.374425 C80.7279302,279.763721 82.0043757,273.135879 82.6878346,267.419349 C83.1468898,263.579757 83.2764242,260.895736 83.2610296,258.37591 C83.2545936,257.322434 82.9863069,253.558233 82.5180898,247.691556 C82.4816087,247.234998 82.4816087,247.234998 82.44504,246.77936 C82.2847615,244.784364 81.6481257,237.039187 81.6292657,236.724131 C81.5995296,236.227389 88.8509812,217.040361 89.4754138,215.335109 C89.8929888,214.194761 90.2944448,213.088708 90.6811504,212.012493 C93.8175065,203.283901 95.9258729,196.682296 96.816815,192.479189 C98.8459583,182.906506 98.8611391,182.828941 99.0689231,180.427797 C99.2844329,177.937373 99.2243404,175.914731 98.7985451,169.044632 C98.0238658,156.545379 95.3731076,136.193687 93.7478049,130.972963 C93.2792988,129.468049 93.0704271,128.006463 92.8322363,125.099892 C91.9866434,114.781375 91.0929735,109.338462 87.5318479,97.9146346 C87.6169358,97.346204 87.7004434,97.0127225 87.7773511,96.6893749 C87.6017797,95.761186 87.5180021,95.0058307 87.5133594,94.3378178 C87.5046295,93.0817215 87.6182708,92.0445413 87.8173912,91.3692747 C87.9177443,91.0289526 88.0375439,90.7832361 88.1966614,90.636539 C88.4957115,90.3608322 88.8868813,90.4617951 89.0741283,90.8056537 C89.4554266,91.5058662 89.3148901,93.6865755 88.6122596,96.70469 C88.8523789,97.9248006 89.2533641,99.4648317 89.8447975,101.512151 C90.1256623,102.484399 91.2397997,106.239793 91.3948132,106.768219 C92.0804497,109.105486 92.6360888,111.077702 93.1725913,113.111659 C94.7346318,119.033575 95.9236515,124.737904 96.7491251,130.743154 C102.736309,152.470837 106.344049,165.976583 107.574695,171.269984 C108.601384,175.686098 108.499011,180.092238 107.706035,184.336207 C107.510147,185.38459 107.106304,187.082079 107.112153,187.037184 C107.070581,187.356289 107.004667,188.042841 106.956081,188.851634 C106.877307,190.162956 106.859897,191.511756 106.9284,192.82502 C107.112436,196.353199 107.878003,198.983446 109.334702,200.192812 C109.497198,199.518459 109.593534,198.835188 109.732815,197.623267 C109.728401,197.661671 109.822873,196.832663 109.848916,196.610939 C110.002322,195.304869 110.102704,194.709562 110.268318,194.419145 C110.56107,193.905778 111.046469,194.109594 111.23766,194.580021 C111.342852,194.838848 111.446907,195.286232 111.561095,195.96135 C111.950368,198.262864 111.46499,200.408882 110.255649,203.201989 C108.715245,206.75972 108.641623,206.930809 109.018669,207.236624 C111.594955,207.920547 117.129331,198.417665 117.582863,193.150035 Z M109.596048,200.427671 C109.594336,200.424948 109.59172,200.422146 109.588295,200.419331 L109.596048,200.427671 Z M88.4184884,93.0131007 C88.4432016,92.7302157 88.456777,92.4724252 88.4610549,92.2447528 C88.3938231,92.6689841 88.3495279,93.1839925 88.3348068,93.7676552 C88.3698276,93.5028412 88.3976925,93.2511452 88.4184884,93.0131007 Z M88.7433538,91.2428323 C88.7456431,91.240898 88.7478995,91.238907 88.7501212,91.2368587 C88.7493806,91.2375414 88.748599,91.2383348 88.7477778,91.2392378 L88.7433538,91.2428323 Z M29.5844259,94.3321432 C29.5901255,93.5120676 29.5409985,92.8217193 29.453986,92.3136179 C29.4192684,92.8715714 29.45883,93.6417983 29.5798248,94.5737447 C29.58235,94.4916379 29.5838768,94.4111547 29.5844259,94.3321432 Z M29.5774802,91.588663 C29.579462,91.5870714 29.5804617,91.5860938 29.5804989,91.5859957 C29.5804466,91.5861338 29.5794404,91.5870229 29.5774802,91.588663 Z M9.7784923,200.446271 C9.78340347,200.455435 9.78780483,200.462322 9.79161381,200.466827 C9.79031076,200.465286 9.78899416,200.463769 9.78766443,200.462277 L9.7784923,200.446271 Z M110.966759,194.840835 C110.970714,194.835123 110.974334,194.829372 110.977611,194.823626 C110.976473,194.825621 110.975331,194.827708 110.974185,194.829888 L110.966759,194.840835 Z" id="Combined-Shape" fill="#242424" fill-rule="nonzero"></path>
                        <path d="M96.7244243,150.285762 C91.6336538,153.747688 75.284728,156.721199 61.183929,157.075373 C45.3107698,156.836338 27.5347693,154.055617 22.2165339,150.50648 L21.395331,157.465578 C26.0043575,158.218375 33.2917652,162.577863 41.5702978,169.06009 C48.3679656,174.382775 54.8923288,180.491913 55.9016841,182.376659 C57.1718544,184.74842 58.3212654,185.863193 59.6036811,185.863193 C61.0210438,185.863193 62.5670616,184.611223 63.7120332,182.473243 C64.7279546,180.576236 71.1714852,174.42789 77.837351,169.110666 C86.0029702,162.597121 93.1959218,158.22705 97.7996027,157.467691 L96.7244243,150.285762 Z M98.7301167,158.168377 L98.3131391,158.218753 C93.9383673,158.747283 86.6424768,163.13147 78.346522,169.748982 C71.7736241,174.992047 65.3750204,181.097524 64.4318299,182.858722 C63.1591565,185.235157 61.3753229,186.679711 59.6036811,186.679711 C57.925934,186.679711 56.5817096,185.375995 55.1818874,182.762138 C54.2474068,181.017204 47.767201,174.949413 41.0669086,169.702975 C32.6614912,163.121395 25.2732518,158.747797 20.8942231,158.218753 L20.4900322,158.169922 L21.5771918,148.957033 L22.1568955,149.44562 C26.4088392,153.029248 44.8810141,156.013256 61.1798161,156.259031 C75.6518137,155.895208 92.6384808,152.712616 96.7636779,149.235812 L97.3223648,148.764939 L98.7301167,158.168377 Z" id="Combined-Shape" fill="#3C3C3C" fill-rule="nonzero"></path>
                        <path d="M96.7244243,150.285762 C91.6336538,153.747688 75.284728,156.721199 61.183929,157.075373 C45.3107698,156.836338 27.5347693,154.055617 22.2165339,150.50648 L21.395331,157.465578 C26.0043575,158.218375 33.2917652,162.577863 41.5702978,169.06009 C48.3679656,174.382775 54.8923288,180.491913 55.9016841,182.376659 C57.1718544,184.74842 58.3212654,185.863193 59.6036811,185.863193 C61.0210438,185.863193 62.5670616,184.611223 63.7120332,182.473243 C64.7279546,180.576236 71.1714852,174.42789 77.837351,169.110666 C86.0029702,162.597121 93.1959218,158.22705 97.7996027,157.467691 L96.7244243,150.285762 Z" id="Path" fill="#F9E5CB"></path>
                        <path d="M34.088858,75.9325859 C34.6245201,75.9325859 35.1044422,76.1630317 35.5252861,76.535101 C35.6895379,76.6803165 35.8221574,76.8252416 35.9217815,76.9513719 C43.9755876,78.8629133 49.645372,83.4243163 53.3260895,89.6575043 C54.622056,91.8521858 55.5741026,94.1016396 56.2358392,96.2847069 C56.4677971,97.0499355 56.6470087,97.7529229 56.7800804,98.3785869 C56.8606082,98.7572047 56.9081234,99.0281567 56.9291894,99.1763593 L56.9514925,99.3332653 L56.8754373,99.4723066 C55.1686131,102.592659 50.0530394,105.587068 44.7286833,106.521918 C38.468349,107.621108 32.9971206,105.837393 29.919908,100.869279 C25.4666108,93.6794966 26.3841647,85.6335433 32.6189755,76.8149647 C32.9609182,76.2425799 33.4660137,75.9325859 34.088858,75.9325859 Z M55.8472371,98.5769923 C55.7196261,97.9770027 55.5470541,97.30006 55.3231395,96.5613666 C54.6823835,94.4475142 53.7597253,92.267498 52.50487,90.1424371 C48.9238828,84.0781395 43.409229,79.6642732 35.5331727,77.8398218 L35.3468041,77.7966504 L35.2419454,77.636645 C35.1842115,77.548548 35.0622996,77.3987655 34.8935887,77.2496076 C34.6316589,77.0180347 34.3573005,76.8862951 34.088858,76.8862951 C33.8117439,76.8862951 33.6080881,77.0129516 33.4310019,77.3154243 C27.369618,85.8838821 26.4948328,93.5283612 30.7306886,100.367087 C33.578469,104.964787 38.6554266,106.619962 44.563754,105.582578 C49.5440451,104.708139 54.329835,101.940193 55.9599353,99.1538175 C55.9360239,99.0149366 55.8991433,98.8210397 55.8472371,98.5769923 Z" id="Path-7" fill="#242424" fill-rule="nonzero"></path>
                        <path d="M55.8472371,98.5769923 C55.7196261,97.9770027 55.5470541,97.30006 55.3231395,96.5613666 C54.6823835,94.4475142 53.7597253,92.267498 52.50487,90.1424371 C48.9238828,84.0781395 43.409229,79.6642732 35.5331727,77.8398218 L35.3468041,77.7966504 L35.2419454,77.636645 C35.1842115,77.548548 35.0622996,77.3987655 34.8935887,77.2496076 C34.6316589,77.0180347 34.3573005,76.8862951 34.088858,76.8862951 C33.8117439,76.8862951 33.6080881,77.0129516 33.4310019,77.3154243 C27.369618,85.8838821 26.4948328,93.5283612 30.7306886,100.367087 C33.578469,104.964787 38.6554266,106.619962 44.563754,105.582578 C49.5440451,104.708139 54.329835,101.940193 55.9599353,99.1538175 C55.9360239,99.0149366 55.8991433,98.8210397 55.8472371,98.5769923 Z" id="Path" fill="#F9E5CB"></path>
                        <path d="M68.088858,75.9325859 C68.6245201,75.9325859 69.1044422,76.1630317 69.5252861,76.535101 C69.6895379,76.6803165 69.8221574,76.8252416 69.9217815,76.9513719 C77.9755876,78.8629133 83.645372,83.4243163 87.3260895,89.6575043 C88.622056,91.8521858 89.5741026,94.1016396 90.2358392,96.2847069 C90.4677971,97.0499355 90.6470087,97.7529229 90.7800804,98.3785869 C90.8606082,98.7572047 90.9081234,99.0281567 90.9291894,99.1763593 L90.9514925,99.3332653 L90.8754373,99.4723066 C89.1686131,102.592659 84.0530394,105.587068 78.7286833,106.521918 C72.468349,107.621108 66.9971206,105.837393 63.919908,100.869279 C59.4666108,93.6794966 60.3841647,85.6335433 66.6189755,76.8149647 C66.9609182,76.2425799 67.4660137,75.9325859 68.088858,75.9325859 Z M89.8472371,98.5769923 C89.7196261,97.9770027 89.5470541,97.30006 89.3231395,96.5613666 C88.6823835,94.4475142 87.7597253,92.267498 86.50487,90.1424371 C82.9238828,84.0781395 77.409229,79.6642732 69.5331727,77.8398218 L69.3468041,77.7966504 L69.2419454,77.636645 C69.1842115,77.548548 69.0622996,77.3987655 68.8935887,77.2496076 C68.6316589,77.0180347 68.3573005,76.8862951 68.088858,76.8862951 C67.8117439,76.8862951 67.6080881,77.0129516 67.4310019,77.3154243 C61.369618,85.8838821 60.4948328,93.5283612 64.7306886,100.367087 C67.578469,104.964787 72.6554266,106.619962 78.563754,105.582578 C83.5440451,104.708139 88.329835,101.940193 89.9599353,99.1538175 C89.9360239,99.0149366 89.8991433,98.8210397 89.8472371,98.5769923 Z" id="Path-7-Copy" fill="#242424" fill-rule="nonzero" transform="translate(76.049098, 91.383384) scale(-1, 1) translate(-76.049098, -91.383384) "></path>
                        <path d="M89.8472371,98.5769923 C89.7196261,97.9770027 89.5470541,97.30006 89.3231395,96.5613666 C88.6823835,94.4475142 87.7597253,92.267498 86.50487,90.1424371 C82.9238828,84.0781395 77.409229,79.6642732 69.5331727,77.8398218 L69.3468041,77.7966504 L69.2419454,77.636645 C69.1842115,77.548548 69.0622996,77.3987655 68.8935887,77.2496076 C68.6316589,77.0180347 68.3573005,76.8862951 68.088858,76.8862951 C67.8117439,76.8862951 67.6080881,77.0129516 67.4310019,77.3154243 C61.369618,85.8838821 60.4948328,93.5283612 64.7306886,100.367087 C67.578469,104.964787 72.6554266,106.619962 78.563754,105.582578 C83.5440451,104.708139 88.329835,101.940193 89.9599353,99.1538175 C89.9360239,99.0149366 89.8991433,98.8210397 89.8472371,98.5769923 Z" id="Path-Copy-5" fill="#F9E5CB" transform="translate(76.031450, 91.383436) scale(-1, 1) translate(-76.031450, -91.383436) "></path>
                        <path d="M56.2215028,99.5491837 L56.5012288,98.7820756 C58.2484464,99.4191986 59.9497368,99.4825216 61.6184628,98.9751209 L61.8559991,99.7563238 C60.0150736,100.316084 58.1324539,100.246012 56.2215028,99.5491837 Z" id="Path-3" fill="#242424" fill-rule="nonzero"></path>
                        <path d="M52.7529741,45.0984502 C52.9746886,45.1394589 53.1211797,45.3524382 53.080171,45.5741527 C53.0391623,45.7958673 52.826183,45.9423583 52.6044684,45.9013496 C40.0447453,43.5782819 35.7349675,34.9276795 39.7305282,20.1602832 C44.0282309,7.15031281 50.9156631,0.591741052 60.373682,0.591741052 C66.6130905,0.591741052 71.7117273,4.25963378 75.7515843,10.3497904 C77.1616363,12.4754691 78.3421734,14.7546035 79.3039058,17.0388261 C79.8879802,18.4260686 80.2993814,19.595891 80.4682457,20.1739222 C83.1793051,29.4596146 83.8423987,33.2447315 82.7193075,37.22273 C81.2353415,42.4789499 76.1415795,45.4954787 66.2995817,46.3153341 C66.0748848,46.3340517 65.8775583,46.1670725 65.8588406,45.9423756 C65.840123,45.7176786 66.0071022,45.5203521 66.2317991,45.5016345 C75.7700203,44.7070842 80.5584385,41.8713802 81.9335065,37.0008782 C82.9970295,33.233871 82.3465498,29.5207578 79.6844692,20.4028233 C79.5241177,19.8539321 79.1230143,18.7133915 78.5513686,17.3556689 C77.6081844,15.1155003 76.4506027,12.8806832 75.071158,10.8011457 C71.1675632,4.91640678 66.2909834,1.40825895 60.373682,1.40825895 C51.3199619,1.40825895 44.7037284,7.70858116 40.5122765,20.3949523 C36.6390321,34.712553 40.7029461,42.8696565 52.7529741,45.0984502 Z" id="Combined-Shape" fill="#242424" fill-rule="nonzero"></path>
                        <path d="M47.3617443,22.8910537 C47.1120217,26.2303909 47.3430031,29.7551104 47.8997831,33.4983408 C48.0704348,34.6456325 48.5155231,37.1752421 48.5349663,37.3609521 C48.7266791,39.192083 51.9071759,43.215667 54.9530911,45.5174676 C56.8668546,46.9637002 58.3988641,47.7697362 59.5241655,47.9425778 C63.2364413,47.0020144 66.0888787,45.3556522 68.0936344,43.0058953 C69.9923755,40.7803971 71.2188543,36.8038761 71.7456093,31.0829487 C70.5088687,29.6537247 68.6868187,28.4722176 63.6196716,25.548523 C59.9882846,23.453248 58.2917549,22.3877649 56.7833481,21.1386693 C56.1490163,20.6133859 55.6306786,20.1068854 55.2277513,19.610014 C53.2062731,17.1172202 52.375887,14.1808049 52.7373486,10.8248701 C49.4652953,13.2168725 47.7736143,17.3834514 47.3617443,22.8910537 Z M53.6682548,10.0491443 C53.0799424,13.5612624 53.8108483,16.5664006 55.8619497,19.0957243 C56.2276541,19.5466941 56.7084818,20.0165413 57.3041213,20.509784 C58.763892,21.7186045 60.4387192,22.7704577 64.0277396,24.8412875 C69.3595451,27.9176875 71.1496947,29.0896278 72.4813137,30.6879464 L72.5892693,30.8175235 L72.5742974,30.985513 C72.0426319,36.9509991 70.7655593,41.1321752 68.714797,43.5358561 C66.5790957,46.0390932 63.5517343,47.7776941 59.6451232,48.7541129 L59.4932725,48.762861 C58.1891419,48.5925874 56.5205415,47.7254381 54.4608069,46.168895 C51.2506989,43.7430138 47.9442239,39.5600573 47.722887,37.4459739 C47.706981,37.2940485 47.2665022,34.7906363 47.0921505,33.6184706 C46.5272177,29.8204279 46.292548,26.2394279 46.5475,22.8301628 C47.0070491,16.6849874 49.0260925,12.0823948 53.0534549,9.63288837 L53.8156337,9.169319 L53.6682548,10.0491443 Z" id="Path-2" fill="#242424" fill-rule="nonzero"></path>
                        <path d="M46.6549964,26.0465006 L46.8806343,26.8312229 C45.6666513,27.1802897 44.8143008,28.295644 44.8143008,29.5781264 C44.8143008,31.1564527 46.0937871,32.435939 47.6721134,32.435939 L47.6721134,33.2524569 C45.6428367,33.2524569 43.9977829,31.6074031 43.9977829,29.5781264 C43.9977829,27.9292005 45.0933969,26.4955206 46.6549964,26.0465006 Z" id="Oval-6" fill="#242424" fill-rule="nonzero"></path>
                    </g>
                    <g id="辅助图" transform="translate(18.000000, 56.000000)" fill="#E85C40">
                        <g id="身高" transform="translate(3.624060, 0.000000)">
                            <path d="M52.4361396,8.16517896 L52.4361396,7.34866106 L73.8445991,7.34866106 L73.8445991,2.44955369 L74.661117,2.44955369 L74.661117,13.8808042 L73.8445991,13.8808042 L73.8445991,8.16517896 L52.4361396,8.16517896 Z M27.1240848,8.16517896 L0.816517896,8.16517896 L0.816517896,13.0642863 L-1.41426685e-13,13.0642863 L-1.41408585e-13,2.44955369 L0.816517896,2.44955369 L0.816517896,7.34866106 L27.1240848,7.34866106 L27.1240848,8.16517896 Z" id="Combined-Shape"></path>
                            <path d="M37.4416049,3.52338005 L31.8272279,3.52338005 L31.8272279,4.46400866 L37.4416049,4.46400866 L37.4416049,3.52338005 Z M31.8272279,5.30665513 L31.8272279,6.0807141 C31.8174296,7.99136598 31.4059046,9.62766784 30.602451,10.9994179 L29.9067778,10.3723322 C30.5534599,9.26513389 30.876801,7.83459454 30.8865992,6.0807141 L30.8865992,2.65133894 L34.2571851,2.65133894 C34.159203,2.42598 34.0612208,2.22021749 33.9534405,2.02425319 L34.9626566,1.86748176 C35.0606387,2.10263891 35.1488227,2.36719071 35.2370066,2.65133894 L38.3430407,2.65133894 L38.3430407,5.30665513 L31.8272279,5.30665513 Z M33.3557494,8.09914634 L33.3557494,8.71643387 L37.1966495,8.71643387 L37.1966495,8.09914634 L33.3557494,8.09914634 Z M37.1966495,7.3446838 L37.1966495,6.72739627 L33.3557494,6.72739627 L33.3557494,7.3446838 L37.1966495,7.3446838 Z M33.3557494,9.4708964 L33.3557494,10.9504268 L32.4641118,10.9504268 L32.4641118,5.91414445 L38.0882871,5.91414445 L38.0882871,9.99020179 C38.0882871,10.6172875 37.764946,10.9406286 37.1378603,10.9406286 L36.0600566,10.9406286 L35.8444959,10.1175786 L36.8635102,10.1469732 C37.079071,10.1469732 37.1966495,10.0293946 37.1966495,9.8040357 L37.1966495,9.4708964 L33.3557494,9.4708964 Z M41.0277515,4.53259617 L40.2144997,4.53259617 L40.2144997,2.64154072 L43.7320588,2.64154072 C43.5948838,2.43577821 43.4577088,2.23981392 43.3009373,2.06344605 L44.3395481,1.88707818 C44.4767231,2.11243712 44.6138981,2.36719071 44.7412749,2.64154072 L48.3078251,2.64154072 L48.3078251,4.58158724 L47.5631608,4.58158724 L47.5631608,5.17927834 L46.1228232,5.17927834 L46.1228232,5.84555694 L45.2507821,5.84555694 L45.2507821,5.17927834 L43.3107355,5.17927834 L43.3107355,5.84555694 L42.4386944,5.84555694 L42.4386944,5.17927834 L41.0277515,5.17927834 L41.0277515,4.53259617 Z M47.4063893,4.33663187 L47.4063893,3.52338005 L41.1159354,3.52338005 L41.1159354,4.33663187 L42.4386944,4.33663187 L42.4386944,3.78793185 L43.3107355,3.78793185 L43.3107355,4.33663187 L45.2507821,4.33663187 L45.2507821,3.77813363 L46.1228232,3.77813363 L46.1228232,4.33663187 L47.4063893,4.33663187 Z M47.2300214,6.12970517 L47.2300214,9.28473032 L46.3089893,9.28473032 L46.3089893,6.99194807 L42.2329319,6.99194807 L42.2329319,9.28473032 L41.3118997,9.28473032 L41.3118997,6.12970517 L47.2300214,6.12970517 Z M43.6928659,7.36428023 L44.5845035,7.36428023 L44.5845035,8.05995348 L44.5551088,8.35389992 L45.3683606,8.35389992 L45.3683606,9.81383392 C45.3683606,9.97060536 45.4663428,10.0587893 45.6623071,10.0587893 L47.2496179,10.0587893 C47.4063893,10.0587893 47.5239679,10.0097982 47.6023536,9.9314125 C47.7003358,9.83343035 47.759125,9.52968569 47.7885197,9.02997674 L48.6311662,9.30432675 C48.5527804,10.0783857 48.4254036,10.5389018 48.2294394,10.6956732 C48.0530715,10.8328483 47.7885197,10.9014358 47.4161875,10.9014358 L45.3879571,10.9014358 C44.7706695,10.9014358 44.4669249,10.5976911 44.4669249,10 L44.4669249,8.69683744 C44.290557,9.21614282 43.9672159,9.64726427 43.4969016,9.98040357 C42.830623,10.4213232 41.7626176,10.7642608 40.2830872,11.0092161 L39.77358,10.2253589 C41.2629087,10.0097982 42.281923,9.74524642 42.8208248,9.41210711 C43.3499284,9.05937138 43.6340766,8.60865351 43.6928659,8.05995348 L43.6928659,7.36428023 Z" id="肩宽"></path>
                        </g>
                        <g id="内腿长" transform="translate(38.200637, 205.393310) rotate(-270.000000) translate(-38.200637, -205.393310) translate(-36.799363, 197.893310)">
                            <path d="M90.0665223,8.4203494 L90.0665223,7.6038315 L148.385356,7.6038315 L148.385356,2.70472413 L149.201874,2.70472413 L149.201874,14.1359747 L148.385356,14.1359747 L148.385356,8.4203494 L90.0665223,8.4203494 Z M49.2406275,8.4203494 L0.816517896,8.4203494 L0.816517896,13.3194568 L-2.62766553e-14,13.3194568 L-4.19326019e-14,2.70472413 L0.816517896,2.70472413 L0.816517896,7.6038315 L49.2406275,7.6038315 L49.2406275,8.4203494 Z" id="Combined-Shape"></path>
                            <path d="M69.6427305,-6.1535732 C69.2312055,-5.13455886 68.5061376,-4.28211418 67.4577286,-3.57664272 L66.8306428,-4.33110526 C67.88885,-5.05617315 68.5845233,-5.94781069 68.9176626,-7.00601788 C69.0058465,-7.31956075 69.0842322,-7.66249827 69.1430215,-8.03483043 L66.6248803,-8.03483043 L66.6248803,-1.40143904 L65.6842517,-1.40143904 L65.6842517,-8.93626619 L69.2508019,-8.93626619 C69.2899947,-9.41637871 69.3193894,-9.92588588 69.3193894,-10.4647877 L70.2698162,-10.4647877 C70.2698162,-9.92588588 70.2502198,-9.41637871 70.2110269,-8.93626619 L73.6012092,-8.93626619 L73.6012092,-2.61641767 C73.6012092,-1.88155157 73.2582717,-1.50921941 72.5821949,-1.50921941 L71.0438752,-1.50921941 L70.7891216,-2.44004981 L72.268652,-2.39105873 C72.5234056,-2.39105873 72.6605806,-2.53803196 72.6605806,-2.82218018 L72.6605806,-8.03483043 L70.1130448,-8.03483043 C70.0542555,-7.69189292 69.9954662,-7.36855183 69.9268787,-7.07460539 C70.9067002,-6.17316963 71.7297502,-5.28153209 72.405827,-4.38989454 L71.6905574,-3.67462487 C71.1810502,-4.44868383 70.4951752,-5.27173387 69.6427305,-6.1535732 Z M71.3770145,5.11214279 L71.3770145,5.86660533 L72.9251324,5.86660533 L72.9251324,5.11214279 L71.3770145,5.11214279 Z M72.9251324,4.39687311 L72.9251324,3.66200701 L71.3770145,3.66200701 L71.3770145,4.39687311 L72.9251324,4.39687311 Z M72.2490556,6.90521609 C72.4254235,7.13057503 72.5919931,7.34613575 72.7487646,7.56169648 C73.0035181,7.38532861 73.2386753,7.15017146 73.4738324,6.85622502 L73.9931378,7.36573218 C73.7481825,7.67927505 73.4738324,7.93402864 73.1700878,8.12999293 C73.5620164,8.68849117 73.8951557,9.19799834 74.1597075,9.64871622 L73.4738324,10.1190305 C73.0231146,9.27638406 72.4156252,8.32595723 71.6513645,7.28734646 L72.2490556,6.90521609 Z M68.8980662,2.77036946 C69.436968,3.24068377 69.8876858,3.71099808 70.260018,4.18131239 L69.6525287,4.79859992 C69.3291876,4.34788204 68.8784697,3.8579713 68.2905768,3.33866592 L68.8980662,2.77036946 Z M72.494011,10.5991431 C73.0917021,10.5991431 73.6599985,10.5893448 74.1891021,10.5795466 L73.953945,11.4515877 L72.4254235,11.4515877 C72.1510735,11.4515877 71.8865217,11.4417895 71.6121716,11.4319913 C71.2104448,11.4221931 70.8479109,11.3634038 70.5245698,11.2458252 C70.2208251,11.1282466 69.9660716,10.9420806 69.7603091,10.6677306 C69.6427305,10.5305555 69.5349501,10.461968 69.4467662,10.461968 C69.2899947,10.461968 68.9862501,10.8440984 68.525734,11.6083592 L67.9966304,10.9126859 C67.9182447,11.3242109 67.6340965,11.5299735 67.1637821,11.5299735 L66.5954857,11.5299735 L66.379925,10.7363181 C66.566091,10.7559145 66.7424589,10.7657127 66.9090286,10.7657127 C67.1049929,10.7657127 67.202975,10.6579323 67.202975,10.4423716 L67.202975,8.24757151 L66.3505303,8.24757151 C66.291741,9.59972515 66.0957767,10.7069234 65.7528392,11.5789645 L65.0865606,10.9714752 C65.3805071,10.0896359 65.5372785,8.9726394 65.5470767,7.62048577 L65.5470767,2.77036946 L68.0162268,2.77036946 L68.0162268,10.7265198 C68.0162268,10.7853091 68.0064286,10.8343002 68.0064286,10.8734931 C68.4179536,10.2856002 68.7608911,9.89367159 69.0548376,9.69770729 L69.0548376,6.62106786 L68.251384,6.62106786 L68.251384,5.77842139 L69.9268787,5.77842139 L69.9268787,9.86427694 C70.1032466,10.0798377 70.3090091,10.2562055 70.5637627,10.3835823 C70.8185162,10.4913627 71.1320591,10.5599502 71.4847948,10.5795466 C71.8179341,10.5893448 72.1510735,10.5991431 72.494011,10.5991431 Z M66.3701267,5.90579818 L66.3701267,7.4441179 L67.202975,7.4441179 L67.202975,5.90579818 L66.3701267,5.90579818 Z M67.202975,5.10234458 L67.202975,3.55422664 L66.3701267,3.55422664 L66.3701267,5.10234458 L67.202975,5.10234458 Z M71.3770145,6.64066429 L71.3770145,9.1686037 C71.719952,9.08041976 72.0628895,8.9726394 72.3960288,8.84526261 L72.5919931,9.5703305 C72.0530913,9.78589123 71.3770145,9.99165374 70.5539644,10.187618 L70.3482019,9.41355907 C70.4853769,9.35476978 70.5637627,9.24698942 70.5637627,9.10981441 L70.5637627,2.89774626 L73.7383842,2.89774626 L73.7383842,6.64066429 L71.3770145,6.64066429 Z M65.0261383,19.2879286 L66.9367902,19.2879286 L66.9367902,15.613598 L67.8774188,15.613598 L67.8774188,19.2879286 L73.7171548,19.2879286 L73.7171548,20.1893643 L70.6013225,20.1893643 C71.0030493,21.6199037 72.0808529,22.7466984 73.8445316,23.5697484 L73.2958315,24.4515877 C71.3067939,23.4031788 70.1114117,21.9824376 69.6998867,20.1893643 L67.8774188,20.1893643 L67.8774188,23.4325734 C68.5534956,23.2562055 69.2295724,23.050443 69.9056492,22.8152859 L70.1408064,23.6971252 C69.1609849,24.0302645 68.1027777,24.3144127 66.975983,24.5691663 L66.6918348,23.7069234 C66.8486062,23.6187395 66.9367902,23.4815645 66.9367902,23.2856002 L66.9367902,20.1893643 L65.0261383,20.1893643 L65.0261383,19.2879286 Z M72.1102476,15.6625891 L72.7373333,16.2994731 C71.9534761,17.1813124 70.7874886,17.9651696 69.2197742,18.670641 L68.661276,17.9259767 C70.2093939,17.2596981 71.355785,16.5052356 72.1102476,15.6625891 Z" transform="translate(69.607620, 7.052189) rotate(-90.000000) translate(-69.607620, -7.052189) "></path>
                        </g>
                        <g id="腰围" transform="translate(4.999648, 75.119646)">
                            <path d="M-0.00489369244,4.88674809 L0.811624204,4.88674809 C0.811624204,6.36112849 8.40081582,8.04207154 19.8615059,8.87238876 L19.8025045,9.68677215 C7.53953837,8.79833072 -0.00489369244,7.12730154 -0.00489369244,4.88674809 Z M55.5251657,9.60004632 L55.4610132,8.78605251 C66.2969228,7.932053 73.3688754,6.30106401 73.3688754,4.88674809 L74.1853932,4.88674809 C74.1853932,7.06050418 67.1446743,8.68428983 55.5251657,9.60004632 Z" id="Oval-7" fill-rule="nonzero"></path>
                            <path d="M74.1853932,4.89910738 L73.3688754,4.89910738 C73.3688754,4.52350188 72.5952689,3.98978366 71.0530944,3.4731251 L71.3124747,2.69890075 C73.1835521,3.32574823 74.1853932,4.01692764 74.1853932,4.89910738 Z M69.6875563,2.22764354 L69.4864594,3.0190104 C68.5701439,2.78616233 67.5105209,2.56319049 66.3198235,2.35252566 L66.4620771,1.54849495 C67.6714837,1.76246992 68.7504462,1.98951127 69.6875563,2.22764354 Z M64.8670958,1.28550215 L64.7429539,2.09252772 C63.7383667,1.93799561 62.6615892,1.7919064 61.5195573,1.65521163 L61.6165973,0.844480645 C62.7674231,0.982228011 63.8532029,1.12953858 64.8670958,1.28550215 Z M59.9683765,0.658478673 L59.8820415,1.4704194 C58.8438116,1.36002271 57.7613283,1.2571935 56.6394769,1.16244209 L56.7081952,0.348821007 C57.8358237,0.444060346 58.9241722,0.547446721 59.9683765,0.658478673 Z M55.0522614,0.216947766 L54.9912278,1.03118138 C53.935114,0.952016859 52.8498247,0.87988487 51.7390983,0.815090344 L51.7866492,-4.17815203e-05 C52.9018249,0.0650122959 53.9916066,0.137442861 55.0522614,0.216947766 Z M50.1305851,-0.0902670224 L50.0892387,0.725203363 C49.0221466,0.671099117 47.935457,0.623679153 46.8321552,0.583133984 L46.8621411,-0.232833123 C47.9692076,-0.192149603 49.0596836,-0.144564414 50.1305851,-0.0902670224 Z M45.2960266,-0.285435026 L45.2711651,0.530704289 C44.1966564,0.497972257 43.1091612,0.471702086 42.0111393,0.452015568 L42.0257764,-0.364371124 C43.1271966,-0.344623677 44.2180999,-0.318271179 45.2960266,-0.285435026 Z M40.3882295,-0.388760934 L40.3785301,0.427699351 C39.2986977,0.414871225 38.2109468,0.408365941 37.1173394,0.408260257 L37.1174183,-0.408257635 C38.2142306,-0.408151641 39.3051883,-0.401627178 40.3882295,-0.388760934 Z M35.473205,-0.403592148 L35.4779271,0.412912094 C34.3826716,0.419246264 33.2946652,0.432032655 32.2160885,0.45118186 L32.2015942,-0.365207379 C33.2834325,-0.384414491 34.3746963,-0.397239163 35.473205,-0.403592148 Z M30.5668903,-0.331159732 L30.5864221,0.485124522 C29.4867939,0.511436048 28.3994899,0.544413115 27.3271253,0.583914683 L27.2970685,-0.232049815 C28.3729548,-0.271681108 29.4637669,-0.304764576 30.5668903,-0.331159732 Z M25.6646416,-0.16639636 L25.7002477,0.649344824 C24.595067,0.697584635 23.5090739,0.752828061 22.4454735,0.81485283 L22.3979383,-0.000280215096 C23.4655439,-0.0625385516 24.5555126,-0.117984212 25.6646416,-0.16639636 Z M20.7598852,0.101753296 L20.8139448,0.916479655 C19.7003923,0.990367219 18.6161247,1.07179426 17.5652001,1.16040184 L17.4965997,0.346770804 C18.5524311,0.257749513 19.6415428,0.175958688 20.7598852,0.101753296 Z M15.8662243,0.492485681 L15.9431361,1.30537315 C14.8163312,1.41198648 13.7354239,1.52701656 12.7058216,1.64984867 L12.6090964,0.839080066 C13.6454395,0.715443787 14.7329403,0.59971203 15.8662243,0.492485681 Z M10.9813951,1.04544026 L11.0903958,1.85464996 C9.9378474,2.00989834 8.86455743,2.17520984 7.87855845,2.34936447 L7.73653718,1.54529268 C8.73394768,1.36912247 9.81818702,1.20212451 10.9813951,1.04544026 Z M6.12145473,1.85435472 L6.28757625,2.65379522 C5.05854757,2.90918399 4.01395073,3.17886291 3.17085269,3.45863862 L2.91368714,2.68367582 C3.78960415,2.39300938 4.86374255,2.11570383 6.12145473,1.85435472 Z M1.32860294,3.33421913 L1.71012944,4.05611871 C1.0918298,4.38289228 0.811624204,4.68250117 0.811624204,4.89910738 L-0.00489369244,4.89910738 C-0.00489369244,4.29553752 0.469565742,3.78822335 1.32860294,3.33421913 Z" id="Oval-7-Copy" fill-rule="nonzero"></path>
                            <path d="M29.8539483,8.69030529 L29.8539483,10.1404411 L30.7455859,10.1404411 L30.7455859,8.69030529 L29.8539483,8.69030529 Z M30.7455859,7.87705347 L30.7455859,6.39752304 L29.8539483,6.39752304 L29.8539483,7.87705347 L30.7455859,7.87705347 Z M29.8441501,10.9634911 C29.7853608,12.3058465 29.5698001,13.4130448 29.1974679,14.2752877 L28.4821983,13.6384037 C28.7957411,12.7859591 28.9525126,11.6983572 28.9623108,10.3755982 L28.9623108,5.53528014 L31.6078288,5.53528014 L31.6078288,13.2268787 C31.6078288,13.8833591 31.343277,14.2164984 30.8141734,14.2164984 L30.1380965,14.2164984 L29.9029394,13.3640537 C30.1282983,13.3836502 30.3340608,13.4032466 30.5300251,13.4032466 C30.6672001,13.4032466 30.7455859,13.2366769 30.7455859,12.9035376 L30.7455859,10.9634911 L29.8441501,10.9634911 Z M31.9017752,5.55487657 L37.457363,5.55487657 L37.457363,6.35833018 L35.77207,6.35833018 L35.77207,7.17158201 L37.1732147,7.17158201 L37.1732147,9.77790713 L34.9588182,9.77790713 C34.8608361,9.99346786 34.7726521,10.2090286 34.67467,10.4245893 L37.5749415,10.4245893 L37.5749415,11.2476393 L36.3991558,11.2476393 C36.2521826,11.8355322 35.997429,12.325443 35.6446932,12.736968 C36.2619808,12.9819234 36.8596719,13.2464752 37.4377665,13.5306234 L36.9282594,14.2752877 C36.3991558,13.9813413 35.7426754,13.6677984 34.9588182,13.3346591 C34.3317325,13.7265877 33.4009021,14.0499288 32.1859234,14.2948841 L31.8429859,13.4914305 C32.7052288,13.3444573 33.4009021,13.1582912 33.9300057,12.9231341 C33.4988842,12.7467662 33.0579645,12.5801966 32.5876502,12.4136269 C32.8620002,12.0119001 33.1069556,11.6199715 33.3225163,11.2476393 L31.891977,11.2476393 L31.891977,10.4245893 L33.7536378,10.4245893 L34.0475842,9.77790713 L32.2055199,9.77790713 L32.2055199,7.17158201 L33.5772699,7.17158201 L33.5772699,6.35833018 L31.9017752,6.35833018 L31.9017752,5.55487657 Z M34.9882128,7.17158201 L34.9882128,6.35833018 L34.3709253,6.35833018 L34.3709253,7.17158201 L34.9882128,7.17158201 Z M34.7824503,12.4038287 C35.1351861,12.0902858 35.3899397,11.6983572 35.5271147,11.2476393 L34.2435485,11.2476393 C34.0769789,11.5219894 33.900611,11.7865412 33.7242431,12.0412947 C34.0769789,12.1588733 34.4297146,12.2764519 34.7824503,12.4038287 Z M36.3305683,9.0234446 L36.3305683,7.92604454 L35.6642897,7.92604454 L35.6642897,9.0234446 L36.3305683,9.0234446 Z M35.0176075,9.0234446 L35.0176075,7.92604454 L34.3513289,7.92604454 L34.3513289,9.0234446 L35.0176075,9.0234446 Z M33.7144449,9.0234446 L33.7144449,7.92604454 L33.0285699,7.92604454 L33.0285699,9.0234446 L33.7144449,9.0234446 Z M40.240056,7.2989588 L42.3956632,7.2989588 L42.3956632,6.67187306 L43.297099,6.67187306 L43.297099,7.2989588 L45.5212937,7.2989588 L45.5212937,8.08281598 L43.297099,8.08281598 L43.297099,8.67070887 L45.0999705,8.67070887 L45.0999705,9.43496962 L43.297099,9.43496962 L43.297099,10.0228625 L45.6290741,10.0228625 C45.5996794,11.0810697 45.5114955,11.7473483 45.3743205,12.0216983 C45.217549,12.3058465 44.8550151,12.4528198 44.2965169,12.462618 C44.1789383,12.462618 44.0417633,12.4430215 43.8849918,12.4234251 L43.6302383,11.6689626 C43.845799,11.688559 44.0417633,11.7081554 44.1985347,11.7081554 C44.4532883,11.7081554 44.6100597,11.6493662 44.668849,11.5415858 C44.7276383,11.4436036 44.757033,11.1986483 44.7668312,10.8067197 L43.297099,10.8067197 L43.297099,12.8153537 L42.3956632,12.8153537 L42.3956632,10.8067197 L40.1028809,10.8067197 L40.1028809,10.0228625 L42.3956632,10.0228625 L42.3956632,9.43496962 L40.6613792,9.43496962 L40.6613792,8.67070887 L42.3956632,8.67070887 L42.3956632,8.08281598 L40.240056,8.08281598 L40.240056,7.2989588 Z M47.0008241,5.56467479 L47.0008241,14.2850859 L46.1091866,14.2850859 L46.1091866,13.9127538 L39.6815577,13.9127538 L39.6815577,14.2850859 L38.7899202,14.2850859 L38.7899202,5.56467479 L47.0008241,5.56467479 Z M39.6815577,13.0897037 L46.1091866,13.0897037 L46.1091866,6.38772483 L39.6815577,6.38772483 L39.6815577,13.0897037 Z"></path>
                            <polygon id="Path-8" fill-rule="nonzero" points="57.715266 10.8037099 57.4166779 11.5636749 53.6854289 10.0976778 56.275328 6.98690269 56.9028338 7.50933731 55.0363711 9.75117984"></polygon>
                        </g>
                        <g id="臀围" transform="translate(0.458529, 102.697773)">
                            <path d="M0.0998591165,7.60296996 L0.916377013,7.60296996 C0.916377013,9.71825123 9.36082913,11.9489084 22.3213133,13.0687545 L22.2510243,13.8822414 C8.61906604,12.7043768 0.0998591165,10.4539727 0.0998591165,7.60296996 Z M62.2977792,13.7662869 L62.221369,12.9533521 C74.4788669,11.8012316 82.3463605,9.637258 82.3463605,7.60296996 L83.1628784,7.60296996 C83.1628784,10.3653715 75.2111239,12.5525212 62.2977792,13.7662869 Z" id="Oval-7" fill-rule="nonzero"></path>
                            <path d="M83.1628784,7.53214317 L82.3463605,7.53214317 C82.3463605,7.00019379 81.6684145,6.37143278 80.2836576,5.74356717 L80.6208364,4.99991948 C82.2718232,5.7484969 83.1628784,6.5749061 83.1628784,7.53214317 Z M79.0322191,4.38103092 L78.7696807,5.15419005 C77.8802436,4.85216757 76.8408429,4.56085183 75.6626663,4.28319429 L75.8499619,3.4884479 C77.0521615,3.77176687 78.1162983,4.07001545 79.0322191,4.38103092 Z M74.2638886,3.13974618 L74.0996014,3.93956566 C73.1080326,3.73589216 72.0405018,3.5415544 70.9032577,3.35767601 L71.033586,2.55162638 C72.1818493,2.73728644 73.2606572,2.93367714 74.2638886,3.13974618 Z M69.3929813,2.30051776 L69.2759133,3.10859978 C68.2460429,2.95940096 67.1688793,2.81855251 66.0488259,2.68666489 L66.1443122,1.87574945 C67.2714369,2.00846972 68.3557846,2.15025756 69.3929813,2.30051776 Z M64.4886553,1.69059262 L64.4024974,2.50255215 C63.3524076,2.39112596 62.2703451,2.2874293 61.1596985,2.19183644 L61.229717,1.37832621 C62.3456834,1.47437695 63.4331227,1.57858889 64.4886553,1.69059262 Z M59.5702832,1.24314482 L59.5076308,2.05725547 C58.4451858,1.9754918 57.3604165,1.90104103 56.2560479,1.83414519 L56.305417,1.01912117 C57.4141816,1.08628328 58.5033777,1.16103788 59.5702832,1.24314482 Z M54.7473067,0.930434373 L54.7038343,1.74579419 C53.6333121,1.68871735 52.5470541,1.63867065 51.4473203,1.59581572 L51.4791146,0.779917078 C52.5827241,0.822923036 53.6728746,0.873149078 54.7473067,0.930434373 Z M49.8439864,0.721808753 L49.8177573,1.53790526 C48.7413112,1.5033086 47.6541229,1.4755467 46.5580979,1.45472752 L46.573605,0.638356889 C47.6731962,0.659243808 48.7639585,0.687096973 49.8439864,0.721808753 Z M44.9289829,0.612404718 L44.9187093,1.42885798 C43.8380161,1.41525935 42.7505056,1.40836965 41.6578085,1.40826027 L41.6578903,0.591742379 C42.7539831,0.591852096 43.844891,0.598763321 44.9289829,0.612404718 Z M40.0124311,0.596702432 L40.0174441,1.41320494 C38.9240769,1.41991786 37.8369895,1.43345064 36.7578924,1.45372157 L36.7425568,0.637347698 C37.825098,0.617012069 38.9156263,0.603436459 40.0124311,0.596702432 Z M35.1053805,0.673405401 L35.1260204,1.48966239 C34.028968,1.51740246 32.9421169,1.5521536 31.8674766,1.59379281 L31.8358626,0.777887159 C32.9141714,0.736105807 34.0046804,0.701237712 35.1053805,0.673405401 Z M30.2004517,0.846979847 L30.2377996,1.66264314 C29.1371018,1.7130423 28.051667,1.77073178 26.9838896,1.83552752 L26.934432,1.02050886 C28.0062672,0.955466869 29.0957383,0.897562873 30.2004517,0.846979847 Z M25.2996874,1.12618102 L25.3556245,1.94078062 C24.2492416,2.01675396 23.1650949,2.10044432 22.1061073,2.19157237 L22.036103,1.37806093 C23.0998203,1.28652588 24.1886547,1.20247366 25.2996874,1.12618102 Z M20.4062117,1.52605252 L20.4839701,2.33885944 C19.3707486,2.44535756 18.290048,2.56019798 17.2455402,2.6829443 L17.1502421,1.87200672 C18.2006758,1.74856402 19.2872186,1.63310277 20.4062117,1.52605252 Z M15.52322,2.07335441 L15.6286659,2.88303499 C14.5038825,3.02951714 13.4287502,3.18535628 12.4081439,3.34982086 L12.2782427,2.54370228 C13.307176,2.37789587 14.3904447,2.22087735 15.52322,2.07335441 Z M10.6599933,2.81982532 L10.8052001,3.62332794 C9.65917425,3.83043462 8.59740361,4.04874704 7.62713514,4.27682434 L7.4402921,3.48197143 C8.42494352,3.25051318 9.50051733,3.02936267 10.6599933,2.81982532 Z M5.84092515,3.88909497 L6.05849339,4.67609277 C4.849017,5.01045668 3.83408871,5.3604762 3.02946127,5.72086345 L2.69569719,4.97567689 C3.54175661,4.59673253 4.59447339,4.23368085 5.84092515,3.88909497 Z M1.19076933,5.81948657 L1.67492498,6.47697785 C1.15630337,6.8588743 0.916377013,7.21517011 0.916377013,7.53214317 L0.0998591165,7.53214317 C0.0998591165,6.91010244 0.483620573,6.34020841 1.19076933,5.81948657 Z" id="Oval-7-Copy" fill-rule="nonzero" opacity="0.5"></path>
                            <path d="M34.6498209,11.9301907 L35.1887227,11.9301907 L35.1887227,11.4990692 L34.4930494,11.4990692 L34.4930494,11.5480603 C34.4832512,12.6846532 34.2186994,13.6546765 33.7091922,14.4679283 L33.0527119,13.8800354 C33.4348422,13.2725461 33.6308065,12.4984871 33.6406047,11.5480603 L33.6406047,9.94115308 L37.7754514,9.94115308 L37.7754514,11.4990692 L37.1581638,11.4990692 L37.1581638,11.9301907 L37.7558549,11.9301907 L37.7558549,12.4690925 L37.1581638,12.4690925 L37.1581638,12.9688014 L37.9126264,12.9688014 L37.9126264,13.5272997 L37.0209888,13.5272997 C37.3149353,13.7134658 37.5598906,13.8996318 37.7754514,14.0857979 L37.2463478,14.6149015 C37.030787,14.3797444 36.7466388,14.1249908 36.3743067,13.8506408 L36.707446,13.5272997 L35.4140816,13.5272997 L35.7864138,13.860439 C35.4728709,14.1445872 35.1201352,14.3993408 34.7184084,14.6246997 L40.8422926,14.6246997 L40.8422926,17.828716 C40.8422926,18.3970124 40.4895569,18.6811606 39.8036818,18.6811606 L38.6866853,18.6811606 L38.490721,17.9364963 L39.5587265,17.9756892 C39.7938836,17.9756892 39.9212604,17.8581106 39.9212604,17.6327517 L39.9212604,17.5151731 L35.4630727,17.5151731 L35.4630727,18.7399499 L34.5420405,18.7399499 L34.5420405,14.7128837 C34.4636548,14.7520765 34.3852691,14.7912694 34.3166816,14.8304622 L33.8855601,14.2817622 C34.3852691,14.0662015 34.8065923,13.8114479 35.159328,13.5272997 L34.4636548,13.5272997 L34.4636548,12.9688014 L35.1887227,12.9688014 L35.1887227,12.4690925 L34.6498209,12.4690925 L34.6498209,11.9301907 Z M36.5016835,11.4990692 L35.8452031,11.4990692 L35.8452031,11.9301907 L36.5016835,11.9301907 L36.5016835,11.4990692 Z M35.8452031,12.9688014 L36.5016835,12.9688014 L36.5016835,12.4690925 L35.8452031,12.4690925 L35.8452031,12.9688014 Z M36.9230067,10.4996513 L34.4930494,10.4996513 L34.4930494,10.9699656 L36.9230067,10.9699656 L36.9230067,10.4996513 Z M38.353546,12.5572764 L38.079196,12.5572764 L38.079196,11.900796 L41.6457462,11.900796 L41.6457462,12.4690925 C41.3713962,12.8806175 41.0382569,13.223555 40.6659247,13.5175015 C41.0578533,13.6644747 41.498773,13.7918515 42.0082801,13.8898336 L41.6947373,14.6149015 C40.9892658,14.4483319 40.3915747,14.2425694 39.9114622,13.9878158 C39.4411479,14.2229729 38.9120443,14.409139 38.3241514,14.5267176 L37.9812139,13.8408425 C38.4123353,13.772255 38.8140621,13.6644747 39.1863943,13.5272997 C38.8140621,13.2333532 38.5397121,12.9100121 38.353546,12.5572764 Z M39.9114622,13.1745639 C40.2054086,12.9981961 40.4699604,12.7924336 40.7051176,12.5572764 L39.1080086,12.5572764 C39.3235693,12.7924336 39.5881211,12.9981961 39.9114622,13.1745639 Z M35.4630727,16.417773 L35.4630727,16.8880873 L39.9212604,16.8880873 L39.9212604,16.417773 L35.4630727,16.417773 Z M39.9212604,15.8004855 L39.9212604,15.3301712 L35.4630727,15.3301712 L35.4630727,15.8004855 L39.9212604,15.8004855 Z M38.490721,9.95095129 L41.0774497,9.95095129 L41.0774497,10.7446067 C41.0774497,10.8719835 41.1656337,10.940571 41.3517998,10.940571 L41.8907016,10.940571 L41.8907016,11.6068496 L41.1264408,11.6068496 C40.5777408,11.6068496 40.313189,11.3716924 40.313189,10.9013781 L40.313189,10.6074317 L39.2941747,10.6074317 C39.2745782,10.8229924 39.2059907,11.0287549 39.1080086,11.2345174 C38.99043,11.4402799 38.7846675,11.6558407 38.4809228,11.8909978 L37.8538371,11.3227014 C38.0498014,11.1855264 38.1967746,11.0287549 38.3143532,10.8621853 C38.4319318,10.7054138 38.490721,10.4016692 38.490721,9.95095129 Z M44.7811749,11.7440246 L46.9367822,11.7440246 L46.9367822,11.1169388 L47.8382179,11.1169388 L47.8382179,11.7440246 L50.0624127,11.7440246 L50.0624127,12.5278818 L47.8382179,12.5278818 L47.8382179,13.1157747 L49.6410894,13.1157747 L49.6410894,13.8800354 L47.8382179,13.8800354 L47.8382179,14.4679283 L50.170193,14.4679283 C50.1407984,15.5261355 50.0526145,16.1924141 49.9154394,16.4667641 C49.758668,16.7509123 49.3961341,16.8978856 48.8376358,16.9076838 C48.7200572,16.9076838 48.5828822,16.8880873 48.4261108,16.8684909 L48.1713572,16.1140284 C48.3869179,16.1336248 48.5828822,16.1532212 48.7396537,16.1532212 C48.9944073,16.1532212 49.1511787,16.0944319 49.209968,15.9866516 C49.2687573,15.8886694 49.2981519,15.6437141 49.3079501,15.2517855 L47.8382179,15.2517855 L47.8382179,17.2604195 L46.9367822,17.2604195 L46.9367822,15.2517855 L44.6439999,15.2517855 L44.6439999,14.4679283 L46.9367822,14.4679283 L46.9367822,13.8800354 L45.2024982,13.8800354 L45.2024982,13.1157747 L46.9367822,13.1157747 L46.9367822,12.5278818 L44.7811749,12.5278818 L44.7811749,11.7440246 Z M51.5419431,10.0097406 L51.5419431,18.7301517 L50.6503056,18.7301517 L50.6503056,18.3578195 L44.2226767,18.3578195 L44.2226767,18.7301517 L43.3310391,18.7301517 L43.3310391,10.0097406 L51.5419431,10.0097406 Z M44.2226767,17.5347695 L50.6503056,17.5347695 L50.6503056,10.8327906 L44.2226767,10.8327906 L44.2226767,17.5347695 Z"></path>
                            <polygon id="Path-8" fill-rule="nonzero" points="64.963386 14.5217549 64.6647979 15.2817199 60.9335489 13.8157228 63.523448 10.7049477 64.1509538 11.2273823 62.2844911 13.4692248"></polygon>
                        </g>
                    </g>
                    <polygon id="Path-14-Copy-8" fill="#242424" fill-rule="nonzero" points="31.8173102 60.563215 32.6280483 60.4689808 34.4812188 76.4126285 33.6704807 76.5068626"></polygon>
                    <polygon id="Path-14-Copy-9" fill="#242424" fill-rule="nonzero" points="85.5431161 60.3566418 86.355795 60.4323352 84.8870671 76.2012837 84.0743883 76.1255903"></polygon>
                </g>
                <g id="上胸围" transform="translate(25.387023, 83.000000)">
                    <path d="M0.886290706,7.07496842 C0.886290706,9.3298218 8.24380399,11.2892042 19.0561563,12.2820842 M52.4067721,12.1795132 C62.6313998,11.1581434 69.5062005,9.25459873 69.5062005,7.07496842" id="Oval-7" stroke="#E85C40" stroke-width="0.741285"></path>
                    <path d="M69.876843,7.07496842 L69.135558,7.07496842 C69.135558,6.54990092 68.5446097,5.95236528 67.3378411,5.35647362 L67.6660483,4.69180566 C69.1009872,5.40036579 69.876843,6.18487013 69.876843,7.07496842 Z M66.2370232,4.08829842 L65.9818647,4.7842852 C65.1817924,4.49096746 64.2441628,4.20890766 63.1800908,3.94129067 L63.3608954,3.2223935 C64.4487657,3.49599582 65.4108562,3.78541402 66.2370232,4.08829842 Z M61.9227115,2.88585025 L61.7647995,3.61012042 C60.8666819,3.41430468 59.8995714,3.22842395 58.8697213,3.053682 L58.9937279,2.32284289 C60.0345918,2.49945362 61.0129641,2.68749891 61.9227115,2.88585025 Z M57.50607,2.08464674 L57.3953648,2.81761863 C56.4603142,2.67639218 55.4828515,2.54410902 54.4673824,2.4214139 L54.5563022,1.68548135 C55.578916,1.80903973 56.5636316,1.94230446 57.50607,2.08464674 Z M53.0531745,1.51381239 L52.9737226,2.25082722 C52.0196482,2.14797582 51.0374327,2.0534327 50.0304489,1.96758489 L50.0934169,1.22897911 C51.105839,1.31529056 52.0935468,1.41036234 53.0531745,1.51381239 Z M48.5864426,1.10835809 L48.5310455,1.84757025 C47.5654246,1.77520602 46.5806585,1.71072872 45.5794436,1.65438235 L45.6210957,0.914268468 C46.6268637,0.970871078 47.6162108,1.03564832 48.5864426,1.10835809 Z M44.1105514,0.836003559 L44.0754486,1.57645697 C43.10203,1.53031004 42.1157336,1.49176958 41.1187751,1.46099228 L41.1416485,0.720060261 C42.1426699,0.750962982 43.1330427,0.789662733 44.1105514,0.836003559 Z M39.7406339,0.682073356 L39.7233038,1.42315575 C38.7446551,1.40027028 37.757716,1.38481332 36.7643513,1.37688636 L36.7702665,0.63562496 C37.7674317,0.643582249 38.7581757,0.659098801 39.7406339,0.682073356 Z M35.2848609,0.629377295 L35.2845297,1.37066222 C35.2407075,1.37064588 35.2407075,1.37064588 35.1968693,1.3706425 C34.2340762,1.3706425 33.2766463,1.37766822 32.325564,1.39164453 L32.3146718,0.65043956 C33.2693868,0.636409867 34.2304476,0.6293575 35.1968705,0.629357501 C35.2408743,0.629360894 35.2408743,0.629360894 35.2848609,0.629377295 Z M30.8298354,0.677995014 L30.8464696,1.41909336 C29.851297,1.44143035 28.8651218,1.4714271 27.8900191,1.50894969 L27.8615151,0.768212911 C28.8405842,0.730537697 29.830716,0.700420597 30.8298354,0.677995014 Z M26.374973,0.831618026 L26.4096804,1.57209007 C25.4097583,1.61895853 24.4240039,1.6738136 23.4549265,1.736447 L23.4071155,0.99670545 C24.3805833,0.933788287 25.3707052,0.878690183 26.374973,0.831618026 Z M21.9206634,1.09981229 L21.9755028,1.83906603 C20.9704559,1.91362255 19.9867766,1.9966474 19.0275664,2.08781399 L18.9574282,1.34985458 C19.9217835,1.25819899 20.9105608,1.17474385 21.9206634,1.09981229 Z M17.4808059,1.49864195 L17.5594101,2.23574766 C16.5477303,2.34363215 15.5683273,2.4607194 14.6251641,2.58648018 L14.5271888,1.85169838 C15.4769027,1.72506414 16.4627573,1.60720561 17.4808059,1.49864195 Z M13.0515536,2.0598632 L13.1608955,2.7930397 C12.1375727,2.94565252 11.1655666,3.10870774 10.250284,3.28127181 L10.1129444,2.55282051 C11.0377815,2.37845508 12.0190982,2.21383799 13.0515536,2.0598632 Z M8.64842216,2.84722257 L8.8038546,3.5720289 C7.75702025,3.79651923 6.8037792,4.03386601 5.9526849,4.28202027 L5.74518796,3.57036834 C6.61436248,3.31694241 7.58482603,3.07530742 8.64842216,2.84722257 Z M4.31119858,4.03193962 L4.56060528,4.7300082 C3.42623938,5.13529568 2.56499508,5.55955417 2.00165028,5.98854196 L1.5525501,5.39878567 C2.18589214,4.9164949 3.11121163,4.46067225 4.31119858,4.03193962 Z M0.537159758,6.82395832 L1.2677316,6.94952995 C1.26102707,6.98853668 1.2574564,7.02735441 1.25698661,7.06614837 L0.515755954,7.05717211 C0.516700773,6.97915206 0.523857297,6.90135162 0.537159758,6.82395832 Z" id="Oval-7-Copy" fill="#E85C40" fill-rule="nonzero" opacity="0.5"></path>
                    <path d="M25.2809039,6.7057556 L26.152655,6.7057556 L26.152655,9.38327702 L29.4439604,9.38327702 L29.4439604,10.2016557 L26.152655,10.2016557 L26.152655,13.7776145 L30.1289078,13.7776145 L30.1289078,14.5959931 L22.1586115,14.5959931 L22.1586115,13.7776145 L25.2809039,13.7776145 L25.2809039,6.7057556 Z M32.1125864,9.89921138 L32.1125864,11.224629 L33.0288147,11.224629 L33.0288147,9.89921138 L32.1125864,9.89921138 Z M33.0288147,9.14310068 L33.0288147,7.773206 L32.1125864,7.773206 L32.1125864,9.14310068 L33.0288147,9.14310068 Z M32.0947956,11.9807397 C32.0325277,13.1638305 31.8190376,14.1423267 31.4632208,14.9162283 L30.8672276,14.3736076 C31.1607765,13.5908107 31.3119986,12.5945236 31.3208941,11.3758511 L31.3208941,7.00819988 L33.8294025,7.00819988 L33.8294025,9.2409503 C34.4342911,8.5293167 34.8434804,7.67535638 35.0569705,6.67906934 L35.8575583,6.76802354 C35.7863949,7.07936324 35.6974407,7.38180752 35.5995911,7.66646096 L38.8553148,7.66646096 C38.8553148,10.9399755 38.8108377,12.9503404 38.7218835,13.7064511 C38.6240339,14.4714573 38.2059491,14.8539603 37.4587339,14.8539603 C37.2808255,14.8539603 36.9694858,14.8361695 36.5247148,14.8094832 L36.3379109,14.0800588 C36.720414,14.106745 37.0495445,14.1245359 37.3253026,14.1245359 C37.6722239,14.1245359 37.8768186,13.8843595 37.9390865,13.4129023 C37.9924591,12.9236542 38.0280407,11.2691061 38.0458316,8.44925792 L35.2615651,8.44925792 C34.9769117,9.00077396 34.6210949,9.49002206 34.2119056,9.91700222 L33.8294025,9.4188587 L33.8294025,14.0266863 C33.8294025,14.5782023 33.5714353,14.8539603 33.055501,14.8539603 L32.4150307,14.8539603 L32.2104361,14.0800588 C32.4239261,14.106745 32.6285208,14.1245359 32.8064292,14.1245359 C32.9487559,14.1245359 33.0288147,13.9911046 33.0288147,13.7420328 L33.0288147,11.9807397 L32.0947956,11.9807397 Z M36.827159,12.8347 L36.827159,12.2653931 L36.4268651,12.4699878 C36.275643,12.1408572 36.1244209,11.8295175 35.9731987,11.5359687 C35.7597086,11.9095763 35.5195323,12.2298114 35.2704605,12.5144649 L34.9502254,12.220916 L34.9502254,12.8347 L36.827159,12.8347 Z M34.9502254,11.945158 C35.1992972,11.607132 35.4305781,11.2602106 35.6262773,10.886603 C35.3505193,10.4062503 35.0658659,9.97037474 34.7812124,9.56118542 L35.3149376,9.32100908 C35.5284277,9.62345336 35.7330224,9.92589764 35.9287216,10.2461328 C36.0799438,9.8636297 36.2133751,9.47223122 36.3201201,9.0630419 L36.889427,9.20536862 C36.720414,9.82804802 36.5247148,10.3884595 36.3023293,10.886603 C36.4891331,11.2157335 36.6670415,11.5537595 36.827159,11.9006809 L36.827159,10.103806 L37.5298972,10.103806 L37.5298972,13.5018565 L34.2474872,13.5018565 L34.2474872,10.103806 L34.9502254,10.103806 L34.9502254,11.945158 Z M41.5150454,8.58268922 L43.4720378,8.58268922 L43.4720378,8.01338234 L44.2904164,8.01338234 L44.2904164,8.58268922 L46.3096768,8.58268922 L46.3096768,9.29432282 L44.2904164,9.29432282 L44.2904164,9.82804802 L45.9271737,9.82804802 L45.9271737,10.5218908 L44.2904164,10.5218908 L44.2904164,11.055616 L46.4075264,11.055616 C46.3808401,12.0163213 46.3007813,12.6212099 46.1762455,12.8702817 C46.0339187,13.1282488 45.7047882,13.2616801 45.1977493,13.2705756 C45.0910042,13.2705756 44.9664683,13.2527847 44.8241416,13.2349939 L44.5928607,12.5500465 C44.7885599,12.5678374 44.9664683,12.5856282 45.1087951,12.5856282 C45.340076,12.5856282 45.4824027,12.5322557 45.5357752,12.4344061 C45.5891477,12.3454519 45.615834,12.1230664 45.6247294,11.7672496 L44.2904164,11.7672496 L44.2904164,13.5908107 L43.4720378,13.5908107 L43.4720378,11.7672496 L41.3905095,11.7672496 L41.3905095,11.055616 L43.4720378,11.055616 L43.4720378,10.5218908 L41.8975484,10.5218908 L41.8975484,9.82804802 L43.4720378,9.82804802 L43.4720378,9.29432282 L41.5150454,9.29432282 L41.5150454,8.58268922 Z M47.6528852,7.00819988 L47.6528852,14.9251237 L46.843402,14.9251237 L46.843402,14.5870977 L41.0080064,14.5870977 L41.0080064,14.9251237 L40.1985232,14.9251237 L40.1985232,7.00819988 L47.6528852,7.00819988 Z M41.0080064,13.8398824 L46.843402,13.8398824 L46.843402,7.75541516 L41.0080064,7.75541516 L41.0080064,13.8398824 Z" fill="#E85C40"></path>
                    <polygon id="Path-8" fill="#E85C40" fill-rule="nonzero" points="54.8201585 13.7733037 54.529273 14.4551314 51.4864151 13.1569687 53.5870289 10.4172837 54.1752978 10.8683304 52.6559007 12.8499747"></polygon>
                </g>
            </g>
        </g>
    </g>
</svg>