<?xml version="1.0" encoding="UTF-8"?>
<svg width="108px" height="351px" viewBox="0 0 108 351" version="1.1" xmlns="http://www.w3.org/2000/svg" xmlns:xlink="http://www.w3.org/1999/xlink">
    <!-- Generator: Sketch 49.2 (51160) - http://www.bohemiancoding.com/sketch -->
    <title>倒三角型</title>
    <desc>Created with Sketch.</desc>
    <defs></defs>
    <g id="Page-1" stroke="none" stroke-width="1" fill="none" fill-rule="evenodd">
        <g id="体型" transform="translate(-201.000000, -40.000000)">
            <g id="倒三角型" transform="translate(194.000000, 40.000000)">
                <g transform="translate(6.700000, 0.100000)">
                    <g id="人体线性图" transform="translate(0.000000, -0.000000)">
                        <path d="M97.9200826,207.236624 C100.496369,207.920547 106.030745,198.417665 106.484277,193.150035 C106.587677,191.949079 106.351387,190.171851 105.772479,187.501091 C105.423301,185.890179 103.769125,179.088462 103.768763,179.08693 C102.352972,173.097489 101.521425,168.53045 101.171198,164.00747 C101.013739,161.731262 100.919929,160.263565 100.726568,157.169982 C99.7352044,141.308775 99.127766,135.265852 97.767924,131.504456 C96.4273102,127.796247 95.2794514,122.889211 94.3172921,116.73355 C93.9322391,107.300738 94.5501862,99.3504818 95.9821289,90.3727527 C96.2294661,88.8220438 97.0570501,83.9887266 97.1966333,83.1124515 C97.5706186,80.7646474 97.7436037,79.1953707 97.7436037,77.9121198 C97.7436037,71.8503073 97.4949322,69.6207622 96.1846621,67.3047077 C94.536573,64.391519 91.1898674,62.5231064 85.1858887,61.4618634 C74.8976151,59.6433429 69.0071518,58.1979767 66.4360993,56.1651547 C65.8871028,55.7449807 65.3650194,55.2745258 64.8802583,54.7695475 C62.4608723,52.3027687 60.9231753,49.1446797 60.2675255,45.3067827 L61.072383,45.1692843 C61.7008867,48.8482793 63.1643718,51.8539535 65.466236,54.2009417 C65.92597,54.6798172 66.4172326,55.1224991 66.9374317,55.5206968 C69.3504552,57.4285114 75.255076,58.8773515 85.3280106,60.6578094 C91.5497882,61.7575498 95.1085861,63.7443703 96.895335,66.9026561 C98.3026595,69.3902655 98.5601216,71.6986256 98.5601216,77.9121198 C98.5601216,79.2491571 98.3832573,80.8536254 98.0029852,83.2408965 C97.8624116,84.123389 97.034809,88.9568151 96.7884548,90.5013612 C95.3644248,99.4294805 94.7505323,107.327571 95.1285455,116.653677 C96.078692,122.715381 97.2152675,127.574181 98.5358013,131.226849 C99.9359358,135.099696 100.542201,141.130947 101.530985,156.95089 C101.734764,160.211144 101.828509,161.677817 101.946105,163.406055 C102.331583,168.416753 103.156473,172.947226 104.563383,178.899096 C104.561508,178.891164 106.21873,185.705408 106.570466,187.328121 C107.165988,190.075531 107.410308,191.913158 107.297785,193.220076 C106.800448,198.996498 100.89296,209.101276 97.5971629,207.991704 C96.8963175,207.473138 96.8541493,206.774023 97.1781911,205.775105 C97.2965801,205.410149 97.4597512,205.007159 97.715153,204.430654 C97.7261975,204.405724 98.249903,203.242159 98.4077639,202.877562 C99.5598366,200.216724 100.014291,198.207428 99.6574258,196.09752 C99.5354243,196.926262 99.4411424,197.753601 99.4454071,197.716492 C99.3022475,198.962164 99.20349,199.662612 99.0776686,200.198412 C98.9890544,200.575768 98.8949869,200.830285 98.7565859,200.993989 C98.4790493,201.322266 98.0965336,201.249718 97.8550413,200.932795 C96.0722889,199.576436 95.2148602,196.710506 95.0144044,192.867553 C94.9441672,191.521031 94.9619605,190.142487 95.0424461,188.802672 C95.092183,187.97472 95.1599057,187.269332 95.2038914,186.931701 C95.2046506,186.925874 95.6159748,185.196939 95.804822,184.186237 C96.5787427,180.044249 96.6785932,175.746699 95.680802,171.454883 C94.453701,166.176734 90.8471034,152.675263 84.8525264,130.907441 C84.2622597,126.631788 83.6525499,122.485188 82.9517236,117.921325 C82.5643358,115.39861 81.3963529,107.945147 81.3281209,107.505053 C80.5607417,102.555482 80.112325,99.3634319 79.8979128,97.076227 C79.7661086,97.6345565 79.6201357,98.2196097 79.4599885,98.8267964 C73.6799,113.165231 72.3595,122.453267 73.0119552,130.819869 C73.1154232,132.146666 73.6531039,134.203119 74.677331,137.344144 C75.2512547,139.104211 77.6745951,146.126564 77.9613102,146.975846 C78.799466,149.458556 79.4851263,151.586386 80.0921807,153.619066 C81.9885559,159.968948 82.9893125,165.007838 82.9708791,169.021252 C82.9447085,174.71924 82.7083156,177.846568 82.1160278,181.13158 C82.0765695,181.350427 80.5084444,188.859511 79.866311,192.632348 C78.2397639,202.189081 74.5662877,234.898963 74.6726256,236.67534 C74.6908525,236.979819 75.3254295,244.699949 75.4872366,246.713971 C75.5238216,247.169813 75.5238216,247.169813 75.5603207,247.626597 C76.0315567,253.5311 76.2992075,257.28638 76.3058334,258.370922 C76.3214244,260.922905 76.1902753,263.640385 75.7268797,267.51628 C75.0388525,273.27102 73.7551873,279.93635 71.728433,287.583605 C67.759808,302.557837 62.8733501,326.145259 63.1150565,327.903898 C63.3716876,329.771129 63.7384984,331.254202 64.196653,331.974446 C64.5471441,332.525437 64.4454673,332.930073 63.9352573,334.057896 C63.5400461,335.062492 63.5202709,335.368964 63.6416937,335.619176 C63.918438,336.189456 64.1504866,336.654652 64.4618537,337.248521 C64.9192307,338.120875 65.391619,338.9632 65.8728925,339.747317 C67.1400936,341.811911 68.3083099,343.205165 69.2152131,343.598231 C71.5052651,344.590776 72.8230333,346.613552 72.177498,347.987845 C71.9356066,348.502812 71.5513331,348.841869 70.8758145,349.256762 C70.8080437,349.298386 70.5506198,349.453357 70.490953,349.490017 C70.1224191,349.716453 69.9338026,349.868586 69.8368881,350.02603 L69.3575725,350.198474 C68.8332657,350.072655 68.558066,350.046648 68.31185,350.070882 C67.9982441,350.101749 67.7735271,350.209148 67.6385807,350.402809 L61.6087109,350.853304 L61.2164353,349.988134 C60.8844384,350.543773 60.3265313,350.840396 59.5682313,350.840396 C59.3947493,350.840396 59.2529947,350.844796 58.9068229,350.858822 C56.7694565,350.935553 55.8516383,350.571847 55.7632655,349.070827 C55.7484831,348.819747 55.3293318,343.352032 55.1619165,340.986088 C55.0836362,339.879815 55.0118663,338.822634 54.9467359,337.810279 C54.6208405,332.744715 54.4809284,329.134885 54.5875848,327.402246 C54.8329875,323.415663 55.7625598,296.437066 55.7625598,293.720802 C55.7625598,293.17147 55.513373,286.203836 55.5108991,286.129058 C55.4099093,283.076344 55.3377862,280.351614 55.2963023,277.763947 C55.1842718,270.775747 55.3134507,265.751731 55.7689722,263.212002 C57.2219299,255.111133 57.3829934,248.914087 55.7725587,241.772 C54.5159856,236.199246 54.3451371,215.812604 55.248151,180.276665 L52.7543206,180.406638 C53.5701765,215.858236 53.398305,236.205486 52.1431388,241.772 C50.5327042,248.914087 50.6937676,255.111133 52.1467253,263.212002 C52.6022468,265.751731 52.7314257,270.775747 52.6193952,277.763947 C52.5779113,280.351614 52.5057882,283.076344 52.4047984,286.129058 C52.4023246,286.203836 52.1531378,293.17147 52.1531378,293.720802 C52.1531378,296.437066 53.0827101,323.415663 53.3281127,327.402246 C53.4347691,329.134885 53.294857,332.744715 52.9689616,337.810279 C52.9038312,338.822634 52.8320613,339.879815 52.753781,340.986088 C52.5863658,343.352032 52.1672144,348.819747 52.152432,349.070827 C52.0640592,350.571847 51.1462411,350.935553 49.2516356,350.868239 C48.6627028,350.844796 48.5209482,350.840396 48.3474662,350.840396 C47.5891663,350.840396 47.0312591,350.543773 46.6992622,349.988134 L46.3069866,350.853304 L40.391876,350.567499 C40.1421705,350.209148 39.9174534,350.101749 39.6038475,350.070882 C39.3576315,350.046648 39.0824318,350.072655 38.8111871,350.131767 C38.7312569,350.149186 38.5440749,350.20645 38.2496411,350.303558 C37.9818949,349.868586 37.7932784,349.716453 37.4247445,349.490017 C37.3650778,349.453357 37.1076538,349.298386 37.039883,349.256762 C36.3643644,348.841869 35.9800909,348.502812 35.7381995,347.987845 C35.0926642,346.613552 36.4104324,344.590776 38.7004845,343.598231 C39.6073877,343.205165 40.7756039,341.811911 42.042805,339.747317 C42.5240785,338.9632 42.9964668,338.120875 43.4538439,337.248521 C43.7652109,336.654652 43.9972595,336.189456 44.2740038,335.619176 C44.3954266,335.368964 44.3756515,335.062492 44.2196029,334.628209 C43.4702302,332.930073 43.3685534,332.525437 43.7190445,331.974446 C44.1771992,331.254202 44.5440099,329.771129 44.8006411,327.903898 C45.0423475,326.145259 40.1558895,302.557837 36.1872645,287.583605 C34.1605102,279.93635 32.876845,273.27102 32.1888178,267.51628 C31.7254222,263.640385 31.5942731,260.922905 31.6098641,258.370922 C31.61649,257.28638 31.8841408,253.5311 32.3553768,247.626597 C32.3918759,247.169813 32.3918759,247.169813 32.428461,246.713971 C32.5902681,244.699949 33.2248451,236.979819 33.2430719,236.67534 C33.3494098,234.898963 29.6759337,202.189081 28.0493865,192.632348 C27.4072532,188.859511 25.839128,181.350427 25.7996697,181.13158 C25.207382,177.846568 24.9709891,174.71924 24.9448185,169.021252 C24.9263994,165.010973 25.8102449,159.969927 27.4850104,153.631599 C28.0291898,151.572094 28.6450503,149.41546 29.3968931,146.905211 C29.7076186,145.867763 31.802966,139.032246 32.2997084,137.323063 C33.2101775,134.190337 33.6913635,132.146006 33.79478,130.819869 C34.3713596,123.426239 33.2219409,114.211429 28.4395065,98.7779174 C28.285556,98.1920784 28.1447059,97.6260065 28.0170322,97.0842481 C27.8023241,99.3708938 27.3540591,102.561265 26.5875766,107.505053 C26.5193446,107.945147 25.3513618,115.39861 24.9639739,117.921325 C24.2631476,122.485188 23.6534378,126.631788 23.0523374,130.960065 C17.0685941,152.675263 13.4619965,166.176734 12.2348955,171.454883 C11.2371043,175.746699 11.3369548,180.044249 12.1108755,184.186237 C12.2997227,185.196939 12.7110469,186.925874 12.7118062,186.931701 C12.7557918,187.269332 12.8235145,187.97472 12.8732514,188.802672 C12.953737,190.142487 12.9715303,191.521031 12.9012931,192.867553 C12.7008374,196.710506 11.8434086,199.576436 10.0606563,200.932795 C9.81916389,201.249718 9.43664818,201.322266 9.15911161,200.993989 C9.02071064,200.830285 8.92664307,200.575768 8.83802888,200.198412 C8.71220756,199.662612 8.61345006,198.962164 8.47029037,197.716492 C8.47455508,197.753601 8.38027325,196.926262 8.35442437,196.706189 C7.90140639,198.207428 8.35586094,200.216724 9.50793361,202.877562 C9.66579452,203.242159 10.1895,204.405724 10.2005445,204.430654 C10.4559463,205.007159 10.6191174,205.410149 10.7375064,205.775105 C11.0615482,206.774023 11.01938,207.473138 10.4397609,207.926388 C7.02273733,209.101276 1.11524984,198.996498 0.617912297,193.220076 C0.505389396,191.913158 0.749709676,190.075531 1.34523171,187.328121 C1.69696711,185.705408 3.35418994,178.891164 3.35231474,178.899096 C4.75922454,172.947226 5.5841146,168.416753 5.93041843,163.944433 C6.08718899,161.677817 6.18093331,160.211144 6.37420213,157.119045 C7.37349662,141.130947 7.97976167,135.099696 9.37989622,131.226849 C10.70043,127.574181 11.8370055,122.715381 12.782567,116.700247 C13.1678915,107.260784 12.6294212,99.7180647 11.3443273,91.4219505 C11.1342952,90.0660568 10.4048935,85.6887184 10.2720911,84.8241428 C9.93673919,82.6409226 9.78001414,81.12737 9.78001414,79.8036177 C9.78001414,66.2950705 12.4504513,63.1143562 23.9945991,60.1262599 C25.1780083,59.8199453 26.4875581,59.5421756 28.5448723,59.1447009 C28.8245663,59.0906638 30.4758036,58.7745026 30.9547077,58.6815148 C36.5300362,57.5989655 39.4001513,56.7684054 40.9833412,55.5167487 C41.4984649,55.1224991 41.9897275,54.6798172 42.4525012,54.1978091 C44.9143744,51.6877109 46.418556,48.418061 46.964587,44.3752001 L47.7737581,44.4844872 C47.2049991,48.6956275 45.6257124,52.1285341 43.0384789,54.766415 C42.5506781,55.2745258 42.0285947,55.7449807 41.4846736,56.1612065 C39.758868,57.5256844 36.8379511,58.3709457 31.1103425,59.4830629 C30.6301503,59.5763007 28.9784022,59.8925597 28.69976,59.9463936 C26.6581477,60.3408347 25.3617064,60.615824 24.1992042,60.916727 C13.0031659,63.8147183 10.596532,66.6812208 10.596532,79.8036177 C10.596532,81.0765805 10.7495854,82.5546745 11.0791436,84.7001761 C11.2109212,85.5580801 11.9402092,89.9347363 12.1512219,91.29696 C13.4439154,99.6421348 13.9860778,107.236571 13.5938204,116.780119 C12.6362461,122.889211 11.4883873,127.796247 10.1477735,131.504456 C8.78793148,135.265852 8.18049316,141.308775 7.19963994,157.001825 C6.99576813,160.263565 6.90195831,161.731262 6.78422715,163.461486 C6.39427283,168.53045 5.56272503,173.097489 4.14693429,179.08693 C4.14657211,179.088462 2.49239607,185.890179 2.14321852,187.501091 C1.56431088,190.171851 1.32802084,191.949079 1.43142056,193.150035 C1.88495218,198.417665 7.41932819,207.920547 9.99561493,207.236624 C10.3726603,206.930809 10.2990384,206.75972 8.75863471,203.201989 C7.54929309,200.408882 7.06391527,198.262864 7.45318836,195.96135 C7.56737648,195.286232 7.6714313,194.838848 7.77662362,194.580021 C7.96781438,194.109594 8.45321337,193.905778 8.74596589,194.419145 C8.91157898,194.709562 9.01196178,195.304869 9.16536757,196.610939 C9.19141035,196.832663 9.28588241,197.661671 9.28146885,197.623267 C9.4207497,198.835188 9.51708546,199.518459 9.63292378,200.011748 C11.1362806,198.983446 11.9018472,196.353199 12.0858838,192.82502 C12.1543862,191.511756 12.1369769,190.162956 12.0582028,188.851634 C12.0096168,188.042841 11.9437026,187.356289 11.9021303,187.037184 C11.9079791,187.082079 11.5041361,185.38459 11.3082481,184.336207 C10.5152726,180.092238 10.4128992,175.686098 11.4395881,171.269984 C12.6702349,165.976583 16.2779747,152.470837 22.2543246,130.795778 C22.8452079,126.515657 23.4555031,122.365076 24.1569161,117.797393 C24.5445347,115.273175 25.7126457,107.818894 25.7806987,107.379955 C26.9054231,100.125519 27.3413274,96.6647298 27.3575389,94.3321432 C27.180093,92.7898976 27.0930278,91.9565153 27.097858,91.4376084 C27.4305255,90.7305633 27.7107703,90.7748877 27.8608395,90.9483259 C28.1198374,92.0753419 28.165946,92.846457 28.1737601,93.7909919 C28.3901387,95.0739016 28.7411391,96.7137782 29.224322,98.5533061 C34.0314675,114.065249 35.1937277,123.38301 34.6088264,130.883351 C34.4996278,132.283633 34.0097511,134.364886 33.0837834,137.55094 C32.5850457,139.266988 30.4882799,146.107132 30.179081,147.139484 C29.4295916,149.641875 28.8160567,151.790365 28.2744358,153.840187 C26.6164895,160.114861 25.7433121,165.095061 25.7613277,169.017502 C25.7872966,174.671553 26.0202402,177.75325 26.603231,180.986697 C26.6397552,181.189272 28.2089839,188.70364 28.854329,192.495348 C30.4913271,202.113486 34.1694421,234.864673 34.0581307,236.724131 C34.0392707,237.039187 33.4026349,244.784364 33.2423564,246.77936 C33.2057877,247.234998 33.2057877,247.234998 33.1693066,247.691556 C32.7010895,253.558233 32.4328028,257.322434 32.4263668,258.37591 C32.4109722,260.895736 32.5405066,263.579757 32.9995618,267.419349 C33.6830207,273.135879 34.9594662,279.763721 36.9765333,287.374425 C40.9884664,302.512065 45.8736665,326.093415 45.6095547,328.015075 C45.3369232,329.998722 44.9510097,331.559031 44.4079882,332.41269 C44.2791127,332.615289 44.3479638,332.889292 44.7243751,333.721352 C44.8509278,334.001097 44.9217277,334.167608 44.9880195,334.352098 C45.2112099,334.973237 45.2445212,335.489489 45.0085942,335.975657 C44.7284713,336.552899 44.4930148,337.024927 44.1769946,337.627671 C43.7116413,338.515237 43.2305039,339.373163 42.738698,340.17444 C41.3834341,342.382511 40.1416327,343.863526 39.0251899,344.347409 C37.10527,345.179533 36.0686275,346.77078 36.4772467,347.640698 C36.6330521,347.972395 36.9174918,348.223366 37.4672118,348.560995 C37.5308391,348.600074 37.7883438,348.755094 37.8521939,348.794325 C38.1825477,348.997301 38.4114023,349.162781 38.5822367,349.34634 C38.9850673,349.258191 39.3410363,349.224551 39.6838273,349.258291 C40.1394883,349.303139 40.5299461,349.464955 40.8137044,349.770411 L45.7923811,350.010969 L47.0237196,347.295233 L47.1769591,348.800352 C47.2646091,349.661252 47.6240965,350.023878 48.3474662,350.023878 C48.5359257,350.023878 48.6843402,350.028485 49.041932,350.042974 C50.7800929,350.105511 51.2853715,349.905283 51.3373256,349.022837 C51.3526113,348.763208 51.7723382,343.287986 51.9392996,340.928454 C52.0174628,339.823837 52.0891162,338.768373 52.1541283,337.757857 C52.4775247,332.731134 52.6168313,329.136926 52.5131375,327.452413 C52.2667601,323.449997 51.3366199,296.454917 51.3366199,293.720802 C51.3366199,293.154427 51.5873686,286.143119 51.5887269,286.102061 C51.6895756,283.053612 51.7615825,280.333273 51.8029822,277.750859 C51.9140931,270.820022 51.7856294,265.823821 51.3430323,263.356151 C49.8724507,255.157021 49.7086951,248.856395 51.3466188,241.592396 C52.5858335,236.096625 52.7529446,215.556977 51.8400511,179.856431 L52.7855073,179.587386 L56.0869259,179.415324 C55.1627529,215.556977 55.329864,236.096625 56.5690787,241.592396 C58.2070024,248.856395 58.0432468,255.157021 56.5726652,263.356151 C56.1300681,265.823821 56.0016044,270.820022 56.1127153,277.750859 C56.154115,280.333273 56.2261219,283.053612 56.3269706,286.102061 C56.3283289,286.143119 56.5790777,293.154427 56.5790777,293.720802 C56.5790777,296.454917 55.6489374,323.449997 55.40256,327.452413 C55.2988662,329.136926 55.4381728,332.731134 55.7615693,337.757857 C55.8265813,338.768373 55.8982347,339.823837 55.9763979,340.928454 C56.1433594,343.287986 56.5630862,348.763208 56.5783719,349.022837 C56.6303261,349.905283 57.1356046,350.105511 58.63507,350.052236 C59.2313573,350.028485 59.3797718,350.023878 59.5682313,350.023878 C60.291601,350.023878 60.6510885,349.661252 60.7387384,348.800352 L60.8919779,347.295233 L62.1233164,350.010969 L67.1019931,349.770411 C67.3857514,349.464955 67.7762092,349.303139 68.2318702,349.258291 C68.5746612,349.224551 68.9306303,349.258191 69.2783723,349.333974 C69.5042952,349.162781 69.7331498,348.997301 70.0635036,348.794325 C70.1273537,348.755094 70.3848584,348.600074 70.4484857,348.560995 C70.9982057,348.223366 71.2826454,347.972395 71.4384508,347.640698 C71.84707,346.77078 70.8104275,345.179533 68.8905076,344.347409 C67.7740648,343.863526 66.5322634,342.382511 65.1769995,340.17444 C64.6851936,339.373163 64.2040562,338.515237 63.7387029,337.627671 C63.4226827,337.024927 63.1872263,336.552899 62.9071034,335.975657 C62.6711763,335.489489 62.7044876,334.973237 62.927678,334.352098 C62.9939698,334.167608 63.0647697,334.001097 63.1913224,333.721352 C63.5677337,332.889292 63.6365848,332.615289 63.5077093,332.41269 C62.9646878,331.559031 62.5787743,329.998722 62.3061429,328.015075 C62.042031,326.093415 66.9272311,302.512065 70.9391642,287.374425 C72.9562313,279.763721 74.2326768,273.135879 74.9161357,267.419349 C75.375191,263.579757 75.5047253,260.895736 75.4893308,258.37591 C75.4828947,257.322434 75.214608,253.558233 74.7463909,247.691556 C74.7099098,247.234998 74.7099098,247.234998 74.6733411,246.77936 C74.5130626,244.784364 73.8764268,237.039187 73.8575668,236.724131 C73.7462554,234.864673 77.4243704,202.113486 79.0613685,192.495348 C79.7067136,188.70364 81.2759423,181.189272 81.3124666,180.986697 C81.8954573,177.75325 82.128401,174.671553 82.1543698,169.017502 C82.1723489,165.103003 81.18503,160.131773 79.3098077,153.85272 C78.7058594,151.83044 78.0230065,149.711322 77.1876886,147.237018 C76.9029425,146.393569 74.4775437,139.365251 73.9010416,137.597277 C72.8568266,134.394955 72.3080881,132.296209 72.1979088,130.883351 C71.5358912,122.394127 72.8742228,112.979955 78.6864852,98.5703934 C79.1726977,96.7201738 79.5250613,95.0750615 79.7419468,93.7898531 C79.7497886,92.8458372 79.7958883,92.0751374 79.8658719,91.5667315 C80.2049272,90.7748877 80.4851721,90.7305633 80.6763984,90.9302266 C80.8226565,91.9551019 80.7360782,92.7853599 80.5580156,93.8529795 C80.5743702,96.6647298 81.0102744,100.125519 82.1349988,107.379955 C82.2030518,107.818894 83.3711628,115.273175 83.7587815,117.797393 C84.4601944,122.365076 85.0704896,126.515657 85.6505392,130.743154 C91.6377228,152.470837 95.2454626,165.976583 96.4761095,171.269984 C97.5027984,175.686098 97.4004249,180.092238 96.6074494,184.336207 C96.4115614,185.38459 96.0077184,187.082079 96.0135672,187.037184 C95.9719949,187.356289 95.9060807,188.042841 95.8574947,188.851634 C95.7787207,190.162956 95.7613113,191.511756 95.8298137,192.82502 C96.0138503,196.353199 96.7794169,198.983446 98.2361156,200.192812 C98.3986121,199.518459 98.4949478,198.835188 98.6342287,197.623267 C98.6298151,197.661671 98.7242872,196.832663 98.7503299,196.610939 C98.9037357,195.304869 99.0041185,194.709562 99.1697316,194.419145 C99.4624842,193.905778 99.9478831,194.109594 100.139074,194.580021 C100.244266,194.838848 100.348321,195.286232 100.462509,195.96135 C100.851782,198.262864 100.366404,200.408882 99.1570628,203.201989 C97.6166591,206.75972 97.5430372,206.930809 97.9200826,207.236624 Z M98.4974619,200.427671 C98.4957498,200.424948 98.493134,200.422146 98.4897087,200.419331 L98.4974619,200.427671 Z M79.9976544,91.3451859 C79.9971883,91.3395313 79.9967702,91.3358774 79.9964665,91.334453 C79.9965568,91.3348767 79.9969528,91.3384543 79.9976544,91.3451859 Z M27.9192311,91.334453 C27.9190612,91.3352498 27.9188555,91.3367443 27.9186256,91.3388965 C27.918294,91.33878 27.9187687,91.3366213 27.9192311,91.334453 Z M9.76952994,200.446271 C9.77444111,200.455435 9.77884247,200.462322 9.78265145,200.466827 C9.7813484,200.465286 9.7800318,200.463769 9.77870207,200.462277 L9.76952994,200.446271 Z M99.8681732,194.840835 C99.8721283,194.835123 99.8757479,194.829372 99.8790247,194.823626 C99.8778873,194.825621 99.8767454,194.827708 99.875599,194.829888 L99.8681732,194.840835 Z" id="Combined-Shape" fill="#242424" fill-rule="nonzero"></path>
                        <path d="M55.6301549,157.075373 C40.2383779,156.843587 33.3465571,155.733233 28.8060858,152.234537 L27.2535705,158.718303 C31.7114482,159.446817 36.649236,163.015559 41.6931167,168.526574 C45.3098207,172.478235 48.8819172,177.437324 50.2394421,179.9722 C51.5096125,182.34396 52.6590235,183.458733 53.9414391,183.458733 C55.3588018,183.458733 56.9048197,182.206763 58.0497913,180.068784 C59.4119457,177.525263 62.8636833,172.723235 66.3935069,168.882396 C71.310994,163.531625 76.1681541,160.06232 80.6184406,159.336087 L78.7347974,152.227846 C74.346563,155.688114 68.9948632,156.739705 55.6301549,157.075373 Z M81.6455884,160.024584 L81.1797148,160.080867 C76.8479668,160.604198 71.9626955,164.029178 66.9946999,169.434907 C63.5102434,173.226381 60.0985943,177.972639 58.7695879,180.454263 C57.4969145,182.830697 55.713081,184.275251 53.9414391,184.275251 C52.263692,184.275251 50.9194677,182.971535 49.5196455,180.357679 C48.1952911,177.884742 44.6629358,172.980825 41.0907882,169.077847 C35.9969293,163.512225 31.0318889,159.987536 26.7031635,159.46457 L26.2484349,159.409632 L28.3165086,150.772741 L28.8225418,151.199237 C33.1598737,154.854832 39.8567317,156.021229 55.6260419,156.259031 C69.3060157,155.915119 74.4006544,154.826349 78.7041908,151.199237 L79.196883,150.783985 L81.6455884,160.024584 Z" id="Combined-Shape" fill="#3C3C3C" fill-rule="nonzero"></path>
                        <path d="M55.6301549,157.075373 C40.2383779,156.843587 33.3465571,155.733233 28.8060858,152.234537 L27.2535705,158.718303 C31.7114482,159.446817 36.649236,163.015559 41.6931167,168.526574 C45.3098207,172.478235 48.8819172,177.437324 50.2394421,179.9722 C51.5096125,182.34396 52.6590235,183.458733 53.9414391,183.458733 C55.3588018,183.458733 56.9048197,182.206763 58.0497913,180.068784 C59.4119457,177.525263 62.8636833,172.723235 66.3935069,168.882396 C71.310994,163.531625 76.1681541,160.06232 80.6184406,159.336087 L78.7347974,152.227846 C74.346563,155.688114 68.9948632,156.739705 55.6301549,157.075373 Z" id="Path" fill="#F9E5CB"></path>
                        <path d="M32.9275283,78.1924765 C33.4025285,78.1924765 33.828219,78.386112 34.2015944,78.698822 C34.3480353,78.8214694 34.4661424,78.9438679 34.554665,79.0502092 C40.8511483,80.4657375 45.5352279,83.6252522 48.828779,88.0002255 C50.434665,90.1333968 51.6033094,92.4172015 52.4049485,94.701259 C52.6857549,95.5013421 52.9007684,96.2449495 53.0586319,96.9134134 C53.1141323,97.1484264 53.1585638,97.3576099 53.1930001,97.5386308 C53.2139814,97.6489234 53.2271068,97.7263623 53.2334466,97.768614 L53.252975,97.8987607 L53.1863611,98.0141254 C51.6694883,100.641108 47.1217541,103.162875 42.3883721,103.950174 C36.8230771,104.875845 31.9597293,103.373847 29.2246027,99.1906859 C25.2658549,93.1360915 26.0815336,86.3606385 31.6247302,78.9334677 C31.9278281,78.4527193 32.3753772,78.1924765 32.9275283,78.1924765 Z M52.2413448,97.0861081 C52.089434,96.4428507 51.8818176,95.7248258 51.6101719,94.9508434 C50.8333763,92.7375709 49.7006945,90.5240455 48.1466283,88.4597089 C44.9407974,84.2012583 40.378982,81.1410622 34.2129835,79.7879929 L34.0492662,79.7520667 L33.9572406,79.619042 C33.9056363,79.5444471 33.7969118,79.4179048 33.6464544,79.2918935 C33.4126605,79.0960861 33.167593,78.9846112 32.9275283,78.9846112 C32.6792853,78.9846112 32.4965043,79.0922961 32.3380486,79.348687 C26.9467853,86.5682735 26.1685473,93.0107386 29.9368228,98.7740205 C32.4706066,102.649244 36.9874294,104.04422 42.2433432,103.170009 C46.6748048,102.432928 50.9331882,100.099298 52.3825444,97.7497384 C52.3549358,97.596604 52.3090416,97.3727659 52.2413448,97.0861081 Z" id="Path-7" fill="#242424" fill-rule="nonzero"></path>
                        <path d="M52.2413448,97.0861081 C52.089434,96.4428507 51.8818176,95.7248258 51.6101719,94.9508434 C50.8333763,92.7375709 49.7006945,90.5240455 48.1466283,88.4597089 C44.9407974,84.2012583 40.378982,81.1410622 34.2129835,79.7879929 L34.0492662,79.7520667 L33.9572406,79.619042 C33.9056363,79.5444471 33.7969118,79.4179048 33.6464544,79.2918935 C33.4126605,79.0960861 33.167593,78.9846112 32.9275283,78.9846112 C32.6792853,78.9846112 32.4965043,79.0922961 32.3380486,79.348687 C26.9467853,86.5682735 26.1685473,93.0107386 29.9368228,98.7740205 C32.4706066,102.649244 36.9874294,104.04422 42.2433432,103.170009 C46.6748048,102.432928 50.9331882,100.099298 52.3825444,97.7497384 C52.3549358,97.596604 52.3090416,97.3727659 52.2413448,97.0861081 Z" id="Path" fill="#F9E5CB"></path>
                        <path d="M75.9884916,78.1924765 C76.5406427,78.1924765 76.9881918,78.4527193 77.2912897,78.9334677 C82.8344863,86.3606385 83.650165,93.1360915 79.6914171,99.1906859 C76.9562906,103.373847 72.0929428,104.875845 66.5276478,103.950174 C61.7942658,103.162875 57.2465316,100.641108 55.7296588,98.0141254 L55.6630449,97.8987607 L55.6825733,97.768614 C55.6889131,97.7263623 55.7020385,97.6489234 55.7230198,97.5386308 C55.7574561,97.3576099 55.8018876,97.1484264 55.8573879,96.9134134 C56.0152515,96.2449495 56.230265,95.5013421 56.5110714,94.701259 C57.3127105,92.4172015 58.4813548,90.1333968 60.0872409,88.0002255 C63.380792,83.6252522 68.0648716,80.4657375 74.3613549,79.0502092 C74.4498775,78.9438679 74.5679846,78.8214694 74.7144255,78.698822 C75.0878009,78.386112 75.5134914,78.1924765 75.9884916,78.1924765 Z M56.6746751,97.0861081 C56.8265859,96.4428507 57.0342022,95.7248258 57.305848,94.9508434 C58.0826436,92.7375709 59.2153254,90.5240455 60.7693916,88.4597089 C63.9752225,84.2012583 68.5370379,81.1410622 74.7030364,79.7879929 L74.8667537,79.7520667 L74.9587793,79.619042 C75.0103836,79.5444471 75.1191081,79.4179048 75.2695655,79.2918935 C75.5033594,79.0960861 75.7484269,78.9846112 75.9884916,78.9846112 C76.2367346,78.9846112 76.4195156,79.0922961 76.5779713,79.348687 C81.9692346,86.5682735 82.7474726,93.0107386 78.9791971,98.7740205 C76.4454133,102.649244 71.9285905,104.04422 66.6726767,103.170009 C62.2412151,102.432928 57.9828317,100.099298 56.5334754,97.7497384 C56.5610841,97.596604 56.6069783,97.3727659 56.6746751,97.0861081 Z" id="Path-7-Copy-3" fill="#242424" fill-rule="nonzero"></path>
                        <path d="M56.6439086,97.0861081 C56.7958195,96.4428507 57.0034358,95.7248258 57.2750816,94.9508434 C58.0518772,92.7375709 59.1845589,90.5240455 60.7386252,88.4597089 C63.944456,84.2012583 68.5062715,81.1410622 74.67227,79.7879929 L74.8359873,79.7520667 L74.9280129,79.619042 C74.9796171,79.5444471 75.0883416,79.4179048 75.2387991,79.2918935 C75.4725929,79.0960861 75.7176604,78.9846112 75.9577251,78.9846112 C76.2059681,78.9846112 76.3887491,79.0922961 76.5472048,79.348687 C81.9384681,86.5682735 82.7167061,93.0107386 78.9484306,98.7740205 C76.4146469,102.649244 71.897824,104.04422 66.6419102,103.170009 C62.2104486,102.432928 57.9520652,100.099298 56.502709,97.7497384 C56.5303176,97.596604 56.5762119,97.3727659 56.6439086,97.0861081 Z" id="Path-Copy-2" fill="#F9E5CB"></path>
                        <path d="M52.348855,98.5449647 L52.6241577,97.7750282 C54.0682506,98.2784934 54.5771483,98.2728602 56.2727595,97.7637618 L56.5133179,98.5449647 C54.6546252,99.1030275 53.9657082,99.1086607 52.348855,98.5449647 Z" id="Path-3" fill="#242424" fill-rule="nonzero"></path>
                        <path d="M47.1991999,45.0984502 C47.4209145,45.1394589 47.5674055,45.3524382 47.5263968,45.5741527 C47.4853881,45.7958673 47.2724088,45.9423583 47.0506943,45.9013496 C34.4909712,43.5782819 30.1811933,34.9276795 34.176754,20.1602832 C38.4744567,7.15031281 45.3618889,0.591741052 54.8199078,0.591741052 C61.0593163,0.591741052 66.1579531,4.25963378 70.1978101,10.3497904 C71.6078621,12.4754691 72.7883992,14.7546035 73.7501316,17.0388261 C74.3342061,18.4260686 74.7456072,19.595891 74.9144716,20.1739222 C77.625531,29.4596146 78.2886246,33.2447315 77.1655333,37.22273 C75.6815673,42.4789499 70.5878053,45.4954787 60.7458075,46.3153341 C60.5211106,46.3340517 60.3237841,46.1670725 60.3050664,45.9423756 C60.2863488,45.7176786 60.453328,45.5203521 60.6780249,45.5016345 C70.2162461,44.7070842 75.0046644,41.8713802 76.3797323,37.0008782 C77.4432553,33.233871 76.7927756,29.5207578 74.130695,20.4028233 C73.9703435,19.8539321 73.5692401,18.7133915 72.9975945,17.3556689 C72.0544103,15.1155003 70.8968285,12.8806832 69.5173839,10.8011457 C65.6137891,4.91640678 60.7372092,1.40825895 54.8199078,1.40825895 C45.7661878,1.40825895 39.1499543,7.70858116 34.9585024,20.3949523 C31.085258,34.712553 35.149172,42.8696565 47.1991999,45.0984502 Z" id="Combined-Shape" fill="#242424" fill-rule="nonzero"></path>
                        <path d="M41.8079701,22.8910537 C41.5582475,26.2303909 41.789229,29.7551104 42.3460089,33.4983408 C42.5166607,34.6456325 42.961749,37.1752421 42.9811921,37.3609521 C43.172905,39.192083 46.3534017,43.215667 49.399317,45.5174676 C51.3130804,46.9637002 52.84509,47.7697362 53.9703913,47.9425778 C57.6826672,47.0020144 60.5351045,45.3556522 62.5398603,43.0058953 C64.4386014,40.7803971 65.6650802,36.8038761 66.1918352,31.0829487 C64.9550945,29.6537247 63.1330446,28.4722176 58.0658974,25.548523 C54.4345104,23.453248 52.7379807,22.3877649 51.2295739,21.1386693 C50.5952421,20.6133859 50.0769045,20.1068854 49.6739772,19.610014 C47.652499,17.1172202 46.8221128,14.1808049 47.1835744,10.8248701 C43.9115211,13.2168725 42.2198401,17.3834514 41.8079701,22.8910537 Z M48.1144807,10.0491443 C47.5261683,13.5612624 48.2570742,16.5664006 50.3081756,19.0957243 C50.6738799,19.5466941 51.1547076,20.0165413 51.7503471,20.509784 C53.2101178,21.7186045 54.884945,22.7704577 58.4739654,24.8412875 C63.8057709,27.9176875 65.5959205,29.0896278 66.9275396,30.6879464 L67.0354951,30.8175235 L67.0205233,30.985513 C66.4888577,36.9509991 65.2117852,41.1321752 63.1610228,43.5358561 C61.0253216,46.0390932 57.9979602,47.7776941 54.091349,48.7541129 L53.9394983,48.762861 C52.6353677,48.5925874 50.9667673,47.7254381 48.9070328,46.168895 C45.6969247,43.7430138 42.3904498,39.5600573 42.1691129,37.4459739 C42.1532068,37.2940485 41.712728,34.7906363 41.5383764,33.6184706 C40.9734435,29.8204279 40.7387738,26.2394279 40.9937258,22.8301628 C41.4532749,16.6849874 43.4723183,12.0823948 47.4996808,9.63288837 L48.2618596,9.169319 L48.1144807,10.0491443 Z" id="Path-2" fill="#242424" fill-rule="nonzero"></path>
                        <path d="M41.1012223,26.0465006 L41.3268601,26.8312229 C40.1128772,27.1802897 39.2605266,28.295644 39.2605266,29.5781264 C39.2605266,31.1564527 40.5400129,32.435939 42.1183393,32.435939 L42.1183393,33.2524569 C40.0890625,33.2524569 38.4440087,31.6074031 38.4440087,29.5781264 C38.4440087,27.9292005 39.5396227,26.4955206 41.1012223,26.0465006 Z" id="Oval-6" fill="#242424" fill-rule="nonzero"></path>
                    </g>
                    <g id="辅助图" transform="translate(12.186712, 56.706699)">
                        <g id="身高" transform="translate(0.000000, 0.000000)" fill="#E85C40">
                            <path d="M56.0601996,7.16517896 L56.0601996,6.34866106 L83.8107641,6.34866106 L83.8107641,1.44955369 L84.627282,1.44955369 L84.627282,12.8808042 L83.8107641,12.8808042 L83.8107641,7.16517896 L56.0601996,7.16517896 Z M30.7481448,7.16517896 L0.816517896,7.16517896 L0.816517896,12.0642863 L-6.39213124e-15,12.0642863 L-6.40546514e-15,1.44955369 L0.816517896,1.44955369 L0.816517896,6.34866106 L30.7481448,6.34866106 L30.7481448,7.16517896 Z" id="Combined-Shape"></path>
                            <path d="M41.0656649,2.52338005 L35.4512879,2.52338005 L35.4512879,3.46400866 L41.0656649,3.46400866 L41.0656649,2.52338005 Z M35.4512879,4.30665513 L35.4512879,5.0807141 C35.4414896,6.99136598 35.0299646,8.62766784 34.226511,9.9994179 L33.5308378,9.37233216 C34.1775199,8.26513389 34.500861,6.83459454 34.5106592,5.0807141 L34.5106592,1.65133894 L37.8812451,1.65133894 C37.783263,1.42598 37.6852808,1.22021749 37.5775005,1.02425319 L38.5867166,0.867481755 C38.6846987,1.10263891 38.7728827,1.36719071 38.8610666,1.65133894 L41.9671007,1.65133894 L41.9671007,4.30665513 L35.4512879,4.30665513 Z M36.9798094,7.09914634 L36.9798094,7.71643387 L40.8207095,7.71643387 L40.8207095,7.09914634 L36.9798094,7.09914634 Z M40.8207095,6.3446838 L40.8207095,5.72739627 L36.9798094,5.72739627 L36.9798094,6.3446838 L40.8207095,6.3446838 Z M36.9798094,8.4708964 L36.9798094,9.95042683 L36.0881718,9.95042683 L36.0881718,4.91414445 L41.7123471,4.91414445 L41.7123471,8.99020179 C41.7123471,9.61728753 41.389006,9.94062862 40.7619203,9.94062862 L39.6841166,9.94062862 L39.4685559,9.11757858 L40.4875702,9.14697322 C40.703131,9.14697322 40.8207095,9.02939464 40.8207095,8.8040357 L40.8207095,8.4708964 L36.9798094,8.4708964 Z M44.6518115,3.53259617 L43.8385597,3.53259617 L43.8385597,1.64154072 L47.3561188,1.64154072 C47.2189438,1.43577821 47.0817688,1.23981392 46.9249973,1.06344605 L47.9636081,0.887078185 C48.1007831,1.11243712 48.2379581,1.36719071 48.3653349,1.64154072 L51.9318851,1.64154072 L51.9318851,3.58158724 L51.1872208,3.58158724 L51.1872208,4.17927834 L49.7468832,4.17927834 L49.7468832,4.84555694 L48.8748421,4.84555694 L48.8748421,4.17927834 L46.9347955,4.17927834 L46.9347955,4.84555694 L46.0627544,4.84555694 L46.0627544,4.17927834 L44.6518115,4.17927834 L44.6518115,3.53259617 Z M51.0304493,3.33663187 L51.0304493,2.52338005 L44.7399954,2.52338005 L44.7399954,3.33663187 L46.0627544,3.33663187 L46.0627544,2.78793185 L46.9347955,2.78793185 L46.9347955,3.33663187 L48.8748421,3.33663187 L48.8748421,2.77813363 L49.7468832,2.77813363 L49.7468832,3.33663187 L51.0304493,3.33663187 Z M50.8540814,5.12970517 L50.8540814,8.28473032 L49.9330493,8.28473032 L49.9330493,5.99194807 L45.8569919,5.99194807 L45.8569919,8.28473032 L44.9359597,8.28473032 L44.9359597,5.12970517 L50.8540814,5.12970517 Z M47.3169259,6.36428023 L48.2085635,6.36428023 L48.2085635,7.05995348 L48.1791688,7.35389992 L48.9924206,7.35389992 L48.9924206,8.81383392 C48.9924206,8.97060536 49.0904028,9.05878929 49.2863671,9.05878929 L50.8736779,9.05878929 C51.0304493,9.05878929 51.1480279,9.00979821 51.2264136,8.9314125 C51.3243958,8.83343035 51.383185,8.52968569 51.4125797,8.02997674 L52.2552262,8.30432675 C52.1768404,9.07838572 52.0494636,9.53890181 51.8534994,9.69567325 C51.6771315,9.83284825 51.4125797,9.90143576 51.0402475,9.90143576 L49.0120171,9.90143576 C48.3947295,9.90143576 48.0909849,9.5976911 48.0909849,9 L48.0909849,7.69683744 C47.914617,8.21614282 47.5912759,8.64726427 47.1209616,8.98040357 C46.454683,9.42132323 45.3866776,9.76426075 43.9071472,10.0092161 L43.39764,9.22535894 C44.8869687,9.00979821 45.905983,8.74524642 46.4448848,8.41210711 C46.9739884,8.05937138 47.2581366,7.60865351 47.3169259,7.05995348 L47.3169259,6.36428023 Z" id="肩宽"></path>
                        </g>
                        <g id="内腿长" transform="translate(37.200637, 203.193310) rotate(-270.000000) translate(-37.200637, -203.193310) translate(-38.799363, 196.693310)" fill="#E85C40">
                            <path d="M92.2665223,6.4203494 L92.2665223,5.6038315 L150.585356,5.6038315 L150.585356,0.704724128 L151.401874,0.704724128 L151.401874,12.1359747 L150.585356,12.1359747 L150.585356,6.4203494 L92.2665223,6.4203494 Z M51.4406275,6.4203494 L0.816517896,6.4203494 L0.816517896,11.3194568 L-8.46439019e-14,11.3194568 L-8.45651661e-14,0.704724128 L0.816517896,0.704724128 L0.816517896,5.6038315 L51.4406275,5.6038315 L51.4406275,6.4203494 Z" id="Combined-Shape"></path>
                            <path d="M71.8427305,-8.1535732 C71.4312055,-7.13455886 70.7061376,-6.28211418 69.6577286,-5.57664272 L69.0306428,-6.33110526 C70.08885,-7.05617315 70.7845233,-7.94781069 71.1176626,-9.00601788 C71.2058465,-9.31956075 71.2842322,-9.66249827 71.3430215,-10.0348304 L68.8248803,-10.0348304 L68.8248803,-3.40143904 L67.8842517,-3.40143904 L67.8842517,-10.9362662 L71.4508019,-10.9362662 C71.4899947,-11.4163787 71.5193894,-11.9258859 71.5193894,-12.4647877 L72.4698162,-12.4647877 C72.4698162,-11.9258859 72.4502198,-11.4163787 72.4110269,-10.9362662 L75.8012092,-10.9362662 L75.8012092,-4.61641767 C75.8012092,-3.88155157 75.4582717,-3.50921941 74.7821949,-3.50921941 L73.2438752,-3.50921941 L72.9891216,-4.44004981 L74.468652,-4.39105873 C74.7234056,-4.39105873 74.8605806,-4.53803196 74.8605806,-4.82218018 L74.8605806,-10.0348304 L72.3130448,-10.0348304 C72.2542555,-9.69189292 72.1954662,-9.36855183 72.1268787,-9.07460539 C73.1067002,-8.17316963 73.9297502,-7.28153209 74.605827,-6.38989454 L73.8905574,-5.67462487 C73.3810502,-6.44868383 72.6951752,-7.27173387 71.8427305,-8.1535732 Z M73.5770145,3.11214279 L73.5770145,3.86660533 L75.1251324,3.86660533 L75.1251324,3.11214279 L73.5770145,3.11214279 Z M75.1251324,2.39687311 L75.1251324,1.66200701 L73.5770145,1.66200701 L73.5770145,2.39687311 L75.1251324,2.39687311 Z M74.4490556,4.90521609 C74.6254235,5.13057503 74.7919931,5.34613575 74.9487646,5.56169648 C75.2035181,5.38532861 75.4386753,5.15017146 75.6738324,4.85622502 L76.1931378,5.36573218 C75.9481825,5.67927505 75.6738324,5.93402864 75.3700878,6.12999293 C75.7620164,6.68849117 76.0951557,7.19799834 76.3597075,7.64871622 L75.6738324,8.11903053 C75.2231146,7.27638406 74.6156252,6.32595723 73.8513645,5.28734646 L74.4490556,4.90521609 Z M71.0980662,0.770369464 C71.636968,1.24068377 72.0876858,1.71099808 72.460018,2.18131239 L71.8525287,2.79859992 C71.5291876,2.34788204 71.0784697,1.8579713 70.4905768,1.33866592 L71.0980662,0.770369464 Z M74.694011,8.59914305 C75.2917021,8.59914305 75.8599985,8.58934484 76.3891021,8.57954662 L76.153945,9.45158773 L74.6254235,9.45158773 C74.3510735,9.45158773 74.0865217,9.44178952 73.8121716,9.43199131 C73.4104448,9.42219309 73.0479109,9.3634038 72.7245698,9.24582522 C72.4208251,9.12824665 72.1660716,8.94208057 71.9603091,8.66773055 C71.8427305,8.53055555 71.7349501,8.46196804 71.6467662,8.46196804 C71.4899947,8.46196804 71.1862501,8.84409842 70.725734,9.60835917 L70.1966304,8.91268592 C70.1182447,9.32421094 69.8340965,9.52997345 69.3637821,9.52997345 L68.7954857,9.52997345 L68.579925,8.73631806 C68.766091,8.75591449 68.9424589,8.7657127 69.1090286,8.7657127 C69.3049929,8.7657127 69.402975,8.65793234 69.402975,8.44237162 L69.402975,6.24757151 L68.5505303,6.24757151 C68.491741,7.59972515 68.2957767,8.70692341 67.9528392,9.57896453 L67.2865606,8.97147521 C67.5805071,8.08963588 67.7372785,6.9726394 67.7470767,5.62048577 L67.7470767,0.770369464 L70.2162268,0.770369464 L70.2162268,8.72651984 C70.2162268,8.78530913 70.2064286,8.83430021 70.2064286,8.87349306 C70.6179536,8.28560018 70.9608911,7.89367159 71.2548376,7.69770729 L71.2548376,4.62106786 L70.451384,4.62106786 L70.451384,3.77842139 L72.1268787,3.77842139 L72.1268787,7.86427694 C72.3032466,8.07983767 72.5090091,8.25620553 72.7637627,8.38358233 C73.0185162,8.49136269 73.3320591,8.55995019 73.6847948,8.57954662 C74.0179341,8.58934484 74.3510735,8.59914305 74.694011,8.59914305 Z M68.5701267,3.90579818 L68.5701267,5.4441179 L69.402975,5.4441179 L69.402975,3.90579818 L68.5701267,3.90579818 Z M69.402975,3.10234458 L69.402975,1.55422664 L68.5701267,1.55422664 L68.5701267,3.10234458 L69.402975,3.10234458 Z M73.5770145,4.64066429 L73.5770145,7.1686037 C73.919952,7.08041976 74.2628895,6.9726394 74.5960288,6.84526261 L74.7919931,7.5703305 C74.2530913,7.78589123 73.5770145,7.99165374 72.7539644,8.18761803 L72.5482019,7.41355907 C72.6853769,7.35476978 72.7637627,7.24698942 72.7637627,7.10981441 L72.7637627,0.897746256 L75.9383842,0.897746256 L75.9383842,4.64066429 L73.5770145,4.64066429 Z M67.2261383,17.2879286 L69.1367902,17.2879286 L69.1367902,13.613598 L70.0774188,13.613598 L70.0774188,17.2879286 L75.9171548,17.2879286 L75.9171548,18.1893643 L72.8013225,18.1893643 C73.2030493,19.6199037 74.2808529,20.7466984 76.0445316,21.5697484 L75.4958315,22.4515877 C73.5067939,21.4031788 72.3114117,19.9824376 71.8998867,18.1893643 L70.0774188,18.1893643 L70.0774188,21.4325734 C70.7534956,21.2562055 71.4295724,21.050443 72.1056492,20.8152859 L72.3408064,21.6971252 C71.3609849,22.0302645 70.3027777,22.3144127 69.175983,22.5691663 L68.8918348,21.7069234 C69.0486062,21.6187395 69.1367902,21.4815645 69.1367902,21.2856002 L69.1367902,18.1893643 L67.2261383,18.1893643 L67.2261383,17.2879286 Z M74.3102476,13.6625891 L74.9373333,14.2994731 C74.1534761,15.1813124 72.9874886,15.9651696 71.4197742,16.670641 L70.861276,15.9259767 C72.4093939,15.2596981 73.555785,14.5052356 74.3102476,13.6625891 Z" transform="translate(71.807620, 5.052189) rotate(-90.000000) translate(-71.807620, -5.052189) "></path>
                        </g>
                        <g id="腰围" transform="translate(16.683858, 73.119646)" fill="#E85C40">
                            <path d="M0.591741052,5.88674809 L1.40825895,5.88674809 C1.40825895,7.39536575 6.54201121,9.04343638 14.4473932,9.87355388 L14.3621223,10.685607 C5.8994072,9.79696588 0.591741052,8.09306428 0.591741052,5.88674809 Z M39.0553969,10.5986706 L38.9627297,9.78742821 C46.4369866,8.9336527 51.2158506,7.33623018 51.2158506,5.88674809 L52.0323685,5.88674809 C52.0323685,8.025338 47.0742184,9.68269014 39.0553969,10.5986706 Z" id="Oval-7" fill-rule="nonzero"></path>
                            <path d="M52.0323685,5.89910738 L51.2158506,5.89910738 C51.2158506,5.39515342 50.5089822,4.78684566 49.0911,4.20091471 L49.402943,3.44629204 C51.1018873,4.1483701 52.0323685,4.94911173 52.0323685,5.89910738 Z M47.7942334,2.87976235 L47.5568793,3.66102064 C46.6513488,3.38591137 45.6006835,3.12837073 44.4232249,2.89287593 L44.5833593,2.09221467 C45.7855187,2.33264971 46.8616236,2.59642615 47.7942334,2.87976235 Z M42.9868257,1.79914667 L42.8512321,2.60432729 C41.8448482,2.43485073 40.7699851,2.28093155 39.6371272,2.14421557 L39.7349567,1.33357948 C40.8801277,1.47178144 41.9675492,1.62749897 42.9868257,1.79914667 Z M38.0838881,1.15056846 L38.0015102,1.9629202 C36.956848,1.85698446 35.874129,1.76533193 34.760579,1.68875301 L34.8165987,0.874159083 C35.9388372,0.951335507 37.030338,1.04373142 38.0838881,1.15056846 Z M33.1496524,0.771980619 L33.1056367,1.58731128 C32.0411029,1.52984227 30.9552204,1.4859285 29.8533473,1.45597596 L29.8755347,0.639759568 C30.984651,0.669909005 32.0778094,0.714117025 33.1496524,0.771980619 Z M28.2063795,0.605212096 L28.1947248,1.42164681 C27.5740588,1.41278674 26.9498058,1.40830986 26.322813,1.40825938 C25.850839,1.40825895 25.3897195,1.41065404 24.9291203,1.415469 L24.9205852,0.598995713 C25.3840384,0.594150915 25.848003,0.591741053 26.3228463,0.591741486 C26.953733,0.591792276 27.5818492,0.596296861 28.2063795,0.605212096 Z M23.2807274,0.626402033 L23.2995234,1.44270356 C22.1988116,1.46804839 21.1128652,1.50726838 20.0468856,1.55998554 L20.0065547,0.744464304 C21.0797411,0.691390733 22.1728658,0.65191149 23.2807274,0.626402033 Z M18.3691787,0.836968756 L18.4210681,1.65183621 C17.3091134,1.72264361 16.2258861,1.80835994 15.1783501,1.90825373 L15.100838,1.09542327 C16.1570054,0.994706396 17.2487703,0.908314484 18.3691787,0.836968756 Z M13.4633424,1.2663047 L13.5555872,2.07759526 C12.4258394,2.20604908 11.3497435,2.35136751 10.337274,2.51205198 L10.2092899,1.70562681 C11.2339373,1.54300965 12.3219227,1.39608562 13.4633424,1.2663047 Z M8.58901324,1.98582608 L8.74008278,2.78824708 C7.57058958,3.00842426 6.51506187,3.24981471 5.59037112,3.5085478 L5.37035565,2.72223064 C6.31911744,2.45676236 7.39740815,2.2101662 8.58901324,1.98582608 Z M3.77962802,3.22929914 L4.06034396,3.99604554 C2.67243022,4.50417902 1.80055202,5.04900392 1.5099577,5.55555903 L0.801705797,5.14925777 C1.21425961,4.43010659 2.22515331,3.79841279 3.77962802,3.22929914 Z" id="Oval-7-Copy" fill-rule="nonzero" opacity="0.5"></path>
                            <path d="M18.1697383,9.69030529 L18.1697383,11.1404411 L19.0613759,11.1404411 L19.0613759,9.69030529 L18.1697383,9.69030529 Z M19.0613759,8.87705347 L19.0613759,7.39752304 L18.1697383,7.39752304 L18.1697383,8.87705347 L19.0613759,8.87705347 Z M18.1599401,11.9634911 C18.1011508,13.3058465 17.8855901,14.4130448 17.5132579,15.2752877 L16.7979883,14.6384037 C17.1115311,13.7859591 17.2683026,12.6983572 17.2781008,11.3755982 L17.2781008,6.53528014 L19.9236188,6.53528014 L19.9236188,14.2268787 C19.9236188,14.8833591 19.659067,15.2164984 19.1299634,15.2164984 L18.4538865,15.2164984 L18.2187294,14.3640537 C18.4440883,14.3836502 18.6498508,14.4032466 18.8458151,14.4032466 C18.9829901,14.4032466 19.0613759,14.2366769 19.0613759,13.9035376 L19.0613759,11.9634911 L18.1599401,11.9634911 Z M20.2175652,6.55487657 L25.773153,6.55487657 L25.773153,7.35833018 L24.08786,7.35833018 L24.08786,8.17158201 L25.4890047,8.17158201 L25.4890047,10.7779071 L23.2746082,10.7779071 C23.1766261,10.9934679 23.0884421,11.2090286 22.99046,11.4245893 L25.8907315,11.4245893 L25.8907315,12.2476393 L24.7149458,12.2476393 C24.5679726,12.8355322 24.313219,13.325443 23.9604832,13.736968 C24.5777708,13.9819234 25.1754619,14.2464752 25.7535565,14.5306234 L25.2440494,15.2752877 C24.7149458,14.9813413 24.0584654,14.6677984 23.2746082,14.3346591 C22.6475225,14.7265877 21.7166921,15.0499288 20.5017134,15.2948841 L20.1587759,14.4914305 C21.0210188,14.3444573 21.7166921,14.1582912 22.2457957,13.9231341 C21.8146742,13.7467662 21.3737545,13.5801966 20.9034402,13.4136269 C21.1777902,13.0119001 21.4227456,12.6199715 21.6383063,12.2476393 L20.207767,12.2476393 L20.207767,11.4245893 L22.0694278,11.4245893 L22.3633742,10.7779071 L20.5213099,10.7779071 L20.5213099,8.17158201 L21.8930599,8.17158201 L21.8930599,7.35833018 L20.2175652,7.35833018 L20.2175652,6.55487657 Z M23.3040028,8.17158201 L23.3040028,7.35833018 L22.6867153,7.35833018 L22.6867153,8.17158201 L23.3040028,8.17158201 Z M23.0982403,13.4038287 C23.4509761,13.0902858 23.7057297,12.6983572 23.8429047,12.2476393 L22.5593385,12.2476393 C22.3927689,12.5219894 22.216401,12.7865412 22.0400331,13.0412947 C22.3927689,13.1588733 22.7455046,13.2764519 23.0982403,13.4038287 Z M24.6463583,10.0234446 L24.6463583,8.92604454 L23.9800797,8.92604454 L23.9800797,10.0234446 L24.6463583,10.0234446 Z M23.3333975,10.0234446 L23.3333975,8.92604454 L22.6671189,8.92604454 L22.6671189,10.0234446 L23.3333975,10.0234446 Z M22.0302349,10.0234446 L22.0302349,8.92604454 L21.3443599,8.92604454 L21.3443599,10.0234446 L22.0302349,10.0234446 Z M28.555846,8.2989588 L30.7114532,8.2989588 L30.7114532,7.67187306 L31.612889,7.67187306 L31.612889,8.2989588 L33.8370837,8.2989588 L33.8370837,9.08281598 L31.612889,9.08281598 L31.612889,9.67070887 L33.4157605,9.67070887 L33.4157605,10.4349696 L31.612889,10.4349696 L31.612889,11.0228625 L33.9448641,11.0228625 C33.9154694,12.0810697 33.8272855,12.7473483 33.6901105,13.0216983 C33.533339,13.3058465 33.1708051,13.4528198 32.6123069,13.462618 C32.4947283,13.462618 32.3575533,13.4430215 32.2007818,13.4234251 L31.9460283,12.6689626 C32.161589,12.688559 32.3575533,12.7081554 32.5143247,12.7081554 C32.7690783,12.7081554 32.9258497,12.6493662 32.984639,12.5415858 C33.0434283,12.4436036 33.072823,12.1986483 33.0826212,11.8067197 L31.612889,11.8067197 L31.612889,13.8153537 L30.7114532,13.8153537 L30.7114532,11.8067197 L28.4186709,11.8067197 L28.4186709,11.0228625 L30.7114532,11.0228625 L30.7114532,10.4349696 L28.9771692,10.4349696 L28.9771692,9.67070887 L30.7114532,9.67070887 L30.7114532,9.08281598 L28.555846,9.08281598 L28.555846,8.2989588 Z M35.3166141,6.56467479 L35.3166141,15.2850859 L34.4249766,15.2850859 L34.4249766,14.9127538 L27.9973477,14.9127538 L27.9973477,15.2850859 L27.1057102,15.2850859 L27.1057102,6.56467479 L35.3166141,6.56467479 Z M27.9973477,14.0897037 L34.4249766,14.0897037 L34.4249766,7.38772483 L27.9973477,7.38772483 L27.9973477,14.0897037 Z"></path>
                            <polygon id="Path-8" fill-rule="nonzero" points="41.9141892 11.0877331 41.6156012 11.847698 37.8843521 10.381701 40.4742512 7.27092585 41.101757 7.79336048 39.2352943 10.035203"></polygon>
                        </g>
                        <g id="臀围" transform="translate(8.518679, 101.697773)" fill="#E85C40">
                            <path d="M0.591741052,7.60296996 L1.40825895,7.60296996 C1.40825895,9.73837396 8.22384421,11.9499525 18.7719633,13.0695194 L18.685783,13.8814765 C7.58577369,12.7033326 0.591741052,10.4338499 0.591741052,7.60296996 Z M51.3168782,13.7653841 L51.2232247,12.9542549 C61.1990155,11.8024437 67.5462085,9.65789886 67.5462085,7.60296996 L68.3627264,7.60296996 C68.3627264,10.3447307 61.8319331,12.5513091 51.3168782,13.7653841 Z" id="Oval-7" fill-rule="nonzero"></path>
                            <path d="M68.3627264,7.53214317 L67.5462085,7.53214317 C67.5462085,6.92780146 66.9093876,6.25329964 65.6126605,5.58438654 L65.9869892,4.85872855 C67.5276756,5.65348738 68.3627264,6.53794846 68.3627264,7.53214317 Z M64.4204492,4.17040708 L64.1304566,4.93369324 C63.2523653,4.60008313 62.2221469,4.28108014 61.0536922,3.98083943 L61.2568996,3.19001187 C62.4531863,3.49740415 63.5119769,3.82525443 64.4204492,4.17040708 Z M59.6735072,2.8128322 L59.4972504,3.61009943 C58.5075998,3.39131128 57.4428358,3.18552345 56.3108392,2.99429492 L56.4468468,2.18918412 C57.5919355,2.38262428 58.670073,2.59099683 59.6735072,2.8128322 Z M54.8068119,1.92917166 L54.6867488,2.73681411 C53.6551123,2.58345234 52.578324,2.441875 51.4619166,2.3128965 L51.5556256,1.50177376 C52.680688,1.63175218 53.7662522,1.77448338 54.8068119,1.92917166 Z M49.8954152,1.3221491 L49.8133016,2.13452761 C48.7596878,2.02803054 47.6770536,1.9325535 46.5696064,1.8485692 L46.6313505,1.03438916 C47.7455279,1.11888385 48.8349499,1.2149595 49.8954152,1.3221491 Z M44.9680523,0.918057161 L44.9157767,1.73289993 C43.8492516,1.66447783 42.7639471,1.60657541 41.6631958,1.55947772 L41.6981001,0.743706206 C42.8046147,0.791050485 43.8957092,0.849261819 44.9680523,0.918057161 Z M40.1378543,0.684506608 L40.1108038,1.5005763 C39.0358688,1.46494515 37.9492051,1.43952787 36.8535384,1.42449926 L36.864737,0.608058166 C37.965678,0.623159114 39.0576259,0.648699993 40.1378543,0.684506608 Z M35.2269049,0.593342812 L35.2234126,1.40985324 C34.9755335,1.40879303 34.7273076,1.40826113 34.478767,1.40825895 C33.6349395,1.40825895 32.7962207,1.41434268 31.9622162,1.4264581 L31.950356,0.610026342 C32.7883162,0.597853458 33.6309886,0.591741052 34.4787705,0.591741059 C34.7284765,0.591743242 34.977864,0.592277634 35.2269049,0.593342812 Z M30.3165689,0.641577305 L30.3362656,1.4578576 C29.2391829,1.48432994 28.153237,1.52131338 27.0813515,1.56859876 L27.0453665,0.752874199 C28.1226964,0.705348642 29.2140719,0.668180294 30.3165689,0.641577305 Z M25.4065988,0.833741866 L25.4511541,1.64904322 C24.3479547,1.70933181 23.2632938,1.78064918 22.2007961,1.86265138 L22.1379652,1.04855449 C23.2065924,0.966079221 24.2973445,0.894361353 25.4065988,0.833741866 Z M20.5032177,1.18465528 L20.5759783,1.99792484 C19.4658874,2.09724112 18.3852017,2.20839001 17.3385454,2.33079804 L17.2436988,1.51980753 C18.2977995,1.39652888 19.3858436,1.28462317 20.5032177,1.18465528 Z M15.6161687,1.72277116 L15.723614,2.53218884 C14.6026543,2.68098945 13.5291635,2.84296415 12.5093539,3.01710004 L12.3719199,2.2122315 C13.4019176,2.03635595 14.4853894,1.87287526 15.6161687,1.72277116 Z M10.7505225,2.50794628 L10.9065998,3.3094083 C9.76522863,3.53167971 8.70825297,3.76963815 7.74498445,4.02119573 L7.53867002,3.23117305 C8.51925165,2.97509415 9.59288916,2.73338461 10.7505225,2.50794628 Z M5.95431321,3.68269617 L6.19742373,4.46218238 C4.99836791,4.83615061 4.00364979,5.23181358 3.23327718,5.64120498 L2.85010796,4.92017598 C3.66993068,4.4845058 4.71028214,4.07069153 5.95431321,3.68269617 Z M1.38861592,5.92958569 L1.95407857,6.51861325 C1.58289861,6.8749436 1.40825895,7.21272151 1.40825895,7.53214317 L0.591741052,7.53214317 C0.591741052,6.96517204 0.869513544,6.4279206 1.38861592,5.92958569 Z" id="Oval-7-Copy" fill-rule="nonzero" opacity="0.5"></path>
                            <path d="M26.5896709,10.1181607 L27.1285727,10.1181607 L27.1285727,9.68703922 L26.4328994,9.68703922 L26.4328994,9.7360303 C26.4231012,10.8726232 26.1585494,11.8426465 25.6490422,12.6558983 L24.9925619,12.0680054 C25.3746922,11.4605161 25.5706565,10.6864571 25.5804547,9.7360303 L25.5804547,8.12912308 L29.7153014,8.12912308 L29.7153014,9.68703922 L29.0980138,9.68703922 L29.0980138,10.1181607 L29.6957049,10.1181607 L29.6957049,10.6570625 L29.0980138,10.6570625 L29.0980138,11.1567714 L29.8524764,11.1567714 L29.8524764,11.7152697 L28.9608388,11.7152697 C29.2547853,11.9014358 29.4997406,12.0876018 29.7153014,12.2737679 L29.1861978,12.8028715 C28.970637,12.5677144 28.6864888,12.3129608 28.3141567,12.0386108 L28.647296,11.7152697 L27.3539316,11.7152697 L27.7262638,12.048409 C27.4127209,12.3325572 27.0599852,12.5873108 26.6582584,12.8126697 L32.7821426,12.8126697 L32.7821426,16.016686 C32.7821426,16.5849824 32.4294069,16.8691306 31.7435318,16.8691306 L30.6265353,16.8691306 L30.430571,16.1244663 L31.4985765,16.1636592 C31.7337336,16.1636592 31.8611104,16.0460806 31.8611104,15.8207217 L31.8611104,15.7031431 L27.4029227,15.7031431 L27.4029227,16.9279199 L26.4818905,16.9279199 L26.4818905,12.9008537 C26.4035048,12.9400465 26.3251191,12.9792394 26.2565316,13.0184322 L25.8254101,12.4697322 C26.3251191,12.2541715 26.7464423,11.9994179 27.099178,11.7152697 L26.4035048,11.7152697 L26.4035048,11.1567714 L27.1285727,11.1567714 L27.1285727,10.6570625 L26.5896709,10.6570625 L26.5896709,10.1181607 Z M28.4415335,9.68703922 L27.7850531,9.68703922 L27.7850531,10.1181607 L28.4415335,10.1181607 L28.4415335,9.68703922 Z M27.7850531,11.1567714 L28.4415335,11.1567714 L28.4415335,10.6570625 L27.7850531,10.6570625 L27.7850531,11.1567714 Z M28.8628567,8.68762132 L26.4328994,8.68762132 L26.4328994,9.15793563 L28.8628567,9.15793563 L28.8628567,8.68762132 Z M30.293396,10.7452464 L30.019046,10.7452464 L30.019046,10.088766 L33.5855962,10.088766 L33.5855962,10.6570625 C33.3112462,11.0685875 32.9781069,11.411525 32.6057747,11.7054715 C32.9977033,11.8524447 33.438623,11.9798215 33.9481301,12.0778036 L33.6345873,12.8028715 C32.9291158,12.6363019 32.3314247,12.4305394 31.8513122,12.1757858 C31.3809979,12.4109429 30.8518943,12.597109 30.2640014,12.7146876 L29.9210639,12.0288125 C30.3521853,11.960225 30.7539121,11.8524447 31.1262443,11.7152697 C30.7539121,11.4213232 30.4795621,11.0979821 30.293396,10.7452464 Z M31.8513122,11.3625339 C32.1452586,11.1861661 32.4098104,10.9804036 32.6449676,10.7452464 L31.0478586,10.7452464 C31.2634193,10.9804036 31.5279711,11.1861661 31.8513122,11.3625339 Z M27.4029227,14.605743 L27.4029227,15.0760573 L31.8611104,15.0760573 L31.8611104,14.605743 L27.4029227,14.605743 Z M31.8611104,13.9884555 L31.8611104,13.5181412 L27.4029227,13.5181412 L27.4029227,13.9884555 L31.8611104,13.9884555 Z M30.430571,8.13892129 L33.0172997,8.13892129 L33.0172997,8.93257669 C33.0172997,9.05995348 33.1054837,9.12854098 33.2916498,9.12854098 L33.8305516,9.12854098 L33.8305516,9.79481959 L33.0662908,9.79481959 C32.5175908,9.79481959 32.253039,9.55966243 32.253039,9.08934812 L32.253039,8.79540168 L31.2340247,8.79540168 C31.2144282,9.01096241 31.1458407,9.21672492 31.0478586,9.42248742 C30.93028,9.62824993 30.7245175,9.84381066 30.4207728,10.0789678 L29.7936871,9.51067136 C29.9896514,9.37349635 30.1366246,9.21672492 30.2542032,9.05015526 C30.3717818,8.89338383 30.430571,8.58963917 30.430571,8.13892129 Z M36.7210249,9.93199459 L38.8766322,9.93199459 L38.8766322,9.30490885 L39.7780679,9.30490885 L39.7780679,9.93199459 L42.0022627,9.93199459 L42.0022627,10.7158518 L39.7780679,10.7158518 L39.7780679,11.3037447 L41.5809394,11.3037447 L41.5809394,12.0680054 L39.7780679,12.0680054 L39.7780679,12.6558983 L42.110043,12.6558983 C42.0806484,13.7141055 41.9924645,14.3803841 41.8552894,14.6547341 C41.698518,14.9388823 41.3359841,15.0858556 40.7774858,15.0956538 C40.6599072,15.0956538 40.5227322,15.0760573 40.3659608,15.0564609 L40.1112072,14.3019984 C40.3267679,14.3215948 40.5227322,14.3411912 40.6795037,14.3411912 C40.9342573,14.3411912 41.0910287,14.2824019 41.149818,14.1746216 C41.2086073,14.0766394 41.2380019,13.8316841 41.2478001,13.4397555 L39.7780679,13.4397555 L39.7780679,15.4483895 L38.8766322,15.4483895 L38.8766322,13.4397555 L36.5838499,13.4397555 L36.5838499,12.6558983 L38.8766322,12.6558983 L38.8766322,12.0680054 L37.1423482,12.0680054 L37.1423482,11.3037447 L38.8766322,11.3037447 L38.8766322,10.7158518 L36.7210249,10.7158518 L36.7210249,9.93199459 Z M43.4817931,8.19771058 L43.4817931,16.9181217 L42.5901556,16.9181217 L42.5901556,16.5457895 L36.1625267,16.5457895 L36.1625267,16.9181217 L35.2708891,16.9181217 L35.2708891,8.19771058 L43.4817931,8.19771058 Z M36.1625267,15.7227395 L42.5901556,15.7227395 L42.5901556,9.02076062 L36.1625267,9.02076062 L36.1625267,15.7227395 Z"></path>
                            <polygon id="Path-8" fill-rule="nonzero" points="54.1619576 14.3538047 53.8633696 15.1137696 50.1321206 13.6477726 52.7220196 10.5369974 53.3495254 11.0594321 51.4830627 13.3012746"></polygon>
                        </g>
                        <g id="上胸围" transform="translate(12.113288, 25.025651)">
                            <path d="M0.754703084,6.17301758 C0.754703084,8.09309278 7.01984603,9.7615656 16.2268879,10.6070326 M46.7869184,10.2814022 C54.287363,9.37211033 59.1866117,7.87093861 59.1866117,6.17301758" id="Oval-7" stroke="#E85C40" stroke-width="0.741285"></path>
                            <path d="M59.5572542,6.17301758 L58.8159692,6.17301758 C58.8159692,5.69749802 58.1909497,5.13257639 56.9240273,4.57693955 L57.2217591,3.89807341 C58.7350794,4.56177351 59.5572542,5.30489323 59.5572542,6.17301758 Z M55.7719104,3.3537614 L55.5423074,4.0585918 C54.7290759,3.79367642 53.7814526,3.54130413 52.7124205,3.3048167 L52.872534,2.58103004 C53.9637718,2.82242974 54.9342609,3.08089168 55.7719104,3.3537614 Z M51.4297186,2.28518053 L51.2911945,3.01340751 C50.3852454,2.84107697 49.4131056,2.67975948 48.3821592,2.53072249 L48.4882192,1.79706405 C49.5297213,1.947627 50.5126486,2.11073456 51.4297186,2.28518053 Z M46.9936712,1.59473172 L46.9005477,2.33014416 C45.9594307,2.21097274 44.978837,2.10177951 43.9639413,2.00322194 L44.0355912,1.26540778 C45.0575409,1.36465036 46.0452857,1.4746399 46.9936712,1.59473172 Z M42.5294138,1.12902939 L42.467242,1.86770261 C41.5078638,1.78695483 40.5234637,1.71554523 39.5179631,1.65385043 L39.5633609,0.913956866 C40.5744064,0.975991881 41.5643963,1.04780697 42.5294138,1.12902939 Z M38.0512679,0.829287525 L38.0137155,1.56962074 C37.0432662,1.52039598 36.0570053,1.4801061 35.0580308,1.44897431 L35.0811208,0.708049004 C36.0848962,0.739330418 37.0759778,0.779817225 38.0512679,0.829287525 Z M33.5725766,0.668194221 L33.5564802,1.40930444 C32.5788999,1.38807213 31.5920064,1.37553167 30.5983174,1.37181521 L30.6010898,0.630535399 C31.5992153,0.634268452 32.5905502,0.646865342 33.5725766,0.668194221 Z M29.198732,0.631124163 L29.2021288,1.37240138 C28.2078059,1.37695765 27.2204472,1.39035429 26.2425896,1.41245672 L26.2258387,0.671361003 C27.2081528,0.649157846 28.1999631,0.635700806 29.198732,0.631124163 Z M24.7435829,0.711726273 L24.7672219,1.45263426 C23.7679379,1.48451687 22.7815522,1.52557177 21.8111822,1.57557261 L21.7730362,0.835269744 C22.7482624,0.785018675 23.7394836,0.743762516 24.7435829,0.711726273 Z M20.2876562,0.919526762 L20.3335354,1.65939063 C19.32793,1.72174866 18.34363,1.79383482 17.3845763,1.8752685 L17.3218591,1.13664139 C18.2865742,1.054727 19.2764853,0.982229902 20.2876562,0.919526762 Z M15.8378899,1.27201587 L15.9099859,2.00978657 C14.8947976,2.1089923 13.9141801,2.21885423 12.9733343,2.33870871 L12.8796589,1.60336636 C13.82781,1.48258125 14.8156137,1.37191423 15.8378899,1.27201587 Z M11.4063702,1.80383293 L11.512865,2.53742841 C10.4817364,2.68711548 9.5097807,2.84910574 8.60441392,3.0221219 L8.4652718,2.29401276 C9.38182425,2.11885901 10.3646278,1.95506078 11.4063702,1.80383293 Z M6.99458656,2.59751083 L7.15596366,3.32101679 C6.08560797,3.55975829 5.13864576,3.81448895 4.32824736,4.08178589 L4.09605075,3.37780564 C4.93135111,3.10229519 5.90160778,2.84129837 6.99458656,2.59751083 Z M2.67667377,3.91698468 L2.97718492,4.59462507 C1.74323541,5.14184096 1.13138193,5.6973308 1.12539178,6.16579092 L0.384167376,6.15631296 C0.395078576,5.30300219 1.20083752,4.57146935 2.67667377,3.91698468 Z" id="Oval-7-Copy" fill="#E85C40" fill-rule="nonzero" opacity="0.5"></path>
                            <path d="M19.9160114,6.00815191 L20.7877626,6.00815191 L20.7877626,8.68567333 L24.079068,8.68567333 L24.079068,9.50405197 L20.7877626,9.50405197 L20.7877626,13.0800108 L24.7640153,13.0800108 L24.7640153,13.8983895 L16.793719,13.8983895 L16.793719,13.0800108 L19.9160114,13.0800108 L19.9160114,6.00815191 Z M26.747694,9.20160769 L26.747694,10.5270253 L27.6639222,10.5270253 L27.6639222,9.20160769 L26.747694,9.20160769 Z M27.6639222,8.44549699 L27.6639222,7.07560231 L26.747694,7.07560231 L26.747694,8.44549699 L27.6639222,8.44549699 Z M26.7299031,11.283136 C26.6676352,12.4662268 26.4541451,13.444723 26.0983283,14.2186246 L25.5023352,13.676004 C25.795884,12.893207 25.9471062,11.89692 25.9560016,10.6782474 L25.9560016,6.31059619 L28.46451,6.31059619 L28.46451,8.54334661 C29.0693986,7.83171301 29.4785879,6.97775269 29.692078,5.98146565 L30.4926658,6.07041985 C30.4215024,6.38175955 30.3325482,6.68420383 30.2346986,6.96885727 L33.4904223,6.96885727 C33.4904223,10.2423718 33.4459452,12.2527368 33.356991,13.0088475 C33.2591414,13.7738536 32.8410567,14.1563566 32.0938414,14.1563566 C31.915933,14.1563566 31.6045933,14.1385658 31.1598223,14.1118795 L30.9730185,13.3824551 C31.3555215,13.4091414 31.6846521,13.4269322 31.9604101,13.4269322 C32.3073315,13.4269322 32.5119261,13.1867559 32.5741941,12.7152986 C32.6275666,12.2260505 32.6631483,10.5715024 32.6809391,7.75165423 L29.8966727,7.75165423 C29.6120192,8.30317027 29.2562024,8.79241837 28.8470131,9.21939853 L28.46451,8.72125501 L28.46451,13.3290826 C28.46451,13.8805986 28.2065429,14.1563566 27.6906085,14.1563566 L27.0501383,14.1563566 L26.8455436,13.3824551 C27.0590337,13.4091414 27.2636283,13.4269322 27.4415367,13.4269322 C27.5838635,13.4269322 27.6639222,13.2935009 27.6639222,13.0444291 L27.6639222,11.283136 L26.7299031,11.283136 Z M31.4622666,12.1370963 L31.4622666,11.5677894 L31.0619727,11.7723841 C30.9107505,11.4432535 30.7595284,11.1319138 30.6083063,10.838365 C30.3948162,11.2119726 30.1546398,11.5322077 29.9055681,11.8168612 L29.585333,11.5233123 L29.585333,12.1370963 L31.4622666,12.1370963 Z M29.585333,11.2475543 C29.8344047,10.9095283 30.0656856,10.562607 30.2613849,10.1889993 C29.9856269,9.70864663 29.7009734,9.27277105 29.41632,8.86358173 L29.9500452,8.62340539 C30.1635353,8.92584967 30.3681299,9.22829395 30.5638292,9.54852907 C30.7150513,9.16602601 30.8484826,8.77462753 30.9552276,8.36543821 L31.5245345,8.50776493 C31.3555215,9.13044433 31.1598223,9.69085579 30.9374368,10.1889993 C31.1242406,10.5181299 31.302149,10.8561558 31.4622666,11.2030772 L31.4622666,9.40620235 L32.1650048,9.40620235 L32.1650048,12.8042528 L28.8825948,12.8042528 L28.8825948,9.40620235 L29.585333,9.40620235 L29.585333,11.2475543 Z M36.1501529,7.88508553 L38.1071453,7.88508553 L38.1071453,7.31577865 L38.925524,7.31577865 L38.925524,7.88508553 L40.9447843,7.88508553 L40.9447843,8.59671913 L38.925524,8.59671913 L38.925524,9.13044433 L40.5622812,9.13044433 L40.5622812,9.82428709 L38.925524,9.82428709 L38.925524,10.3580123 L41.0426339,10.3580123 C41.0159477,11.3187177 40.9358889,11.9236062 40.811353,12.172678 C40.6690263,12.4306452 40.3398957,12.5640765 39.8328568,12.5729719 C39.7261118,12.5729719 39.6015759,12.555181 39.4592492,12.5373902 L39.2279682,11.8524429 C39.4236675,11.8702337 39.6015759,11.8880245 39.7439026,11.8880245 C39.9751835,11.8880245 40.1175102,11.834652 40.1708828,11.7368024 C40.2242553,11.6478482 40.2509415,11.4254627 40.259837,11.0696459 L38.925524,11.0696459 L38.925524,12.893207 L38.1071453,12.893207 L38.1071453,11.0696459 L36.025617,11.0696459 L36.025617,10.3580123 L38.1071453,10.3580123 L38.1071453,9.82428709 L36.532656,9.82428709 L36.532656,9.13044433 L38.1071453,9.13044433 L38.1071453,8.59671913 L36.1501529,8.59671913 L36.1501529,7.88508553 Z M42.2879927,6.31059619 L42.2879927,14.22752 L41.4785095,14.22752 L41.4785095,13.889494 L35.643114,13.889494 L35.643114,14.22752 L34.8336308,14.22752 L34.8336308,6.31059619 L42.2879927,6.31059619 Z M35.643114,13.1422788 L41.4785095,13.1422788 L41.4785095,7.05781147 L35.643114,7.05781147 L35.643114,13.1422788 Z" fill="#E85C40"></path>
                            <polygon id="Path-8" fill="#E85C40" fill-rule="nonzero" points="48.4188812 11.1051083 48.0331452 11.7381258 45.859762 10.4137518 47.2596235 8.25470657 47.8816119 8.65798555 46.8964636 10.1774071"></polygon>
                        </g>
                    </g>
                    <polygon id="Path-14-Copy-4" fill="#242424" fill-rule="nonzero" points="27.2334505 59.8579943 28.0325922 59.6920158 32.5674221 78.7112671 31.7682803 78.8772457"></polygon>
                    <polygon id="Path-14-Copy-5" fill="#242424" fill-rule="nonzero" transform="translate(80.406329, 69.754802) rotate(-330.000000) translate(-80.406329, -69.754802) " points="78.6389312 60.1126742 79.4459752 59.9907876 82.1737268 79.3969289 81.3666828 79.5188155"></polygon>
                </g>
            </g>
        </g>
    </g>
</svg>