<?xml version="1.0" encoding="UTF-8"?>
<svg width="105px" height="351px" viewBox="0 0 105 351" version="1.1" xmlns="http://www.w3.org/2000/svg" xmlns:xlink="http://www.w3.org/1999/xlink">
    <!-- Generator: Sketch 49.2 (51160) - http://www.bohemiancoding.com/sketch -->
    <title>梨形</title>
    <desc>Created with Sketch.</desc>
    <defs></defs>
    <g id="Page-1" stroke="none" stroke-width="1" fill="none" fill-rule="evenodd">
        <g id="体型" transform="translate(-504.000000, -39.000000)">
            <g id="梨形" transform="translate(496.000000, 39.000000)">
                <g transform="translate(7.800000, 0.100000)">
                    <g id="人体线性图" transform="translate(0.000000, -0.000000)">
                        <path d="M104.266352,193.150035 C104.369752,191.949079 104.133462,190.171851 103.554554,187.501091 C103.205377,185.890179 101.551201,179.088462 101.550839,179.08693 C100.135048,173.097489 99.3035,168.53045 98.9532734,164.00747 C98.7958145,161.731262 98.7020047,160.263565 98.5086431,157.169982 C97.5172796,141.308775 96.9098413,135.265852 95.5499993,131.504456 C94.2093855,127.796247 93.0615267,122.889211 92.0993674,116.73355 C91.2733068,96.4971829 90.6419588,83.286864 90.2056464,77.1073491 C90.1321401,76.0662758 90.1021739,75.4220221 90.0262046,73.4940412 C89.8362284,68.6727424 89.5234482,66.8548273 88.2661017,65.1033298 C86.7071748,62.9317276 83.6645734,61.6045433 78.2235078,60.92662 C72.7898738,60.2496226 68.4873404,58.6637785 65.3271369,56.1651547 C64.7781404,55.7449807 64.2560571,55.2745258 63.771296,54.7695475 C61.3519099,52.3027687 59.8142129,49.1446797 59.1585631,45.3067827 L59.9634206,45.1692843 C60.5919243,48.8482793 62.0554094,51.8539535 64.3572736,54.2009417 C64.8170076,54.6798172 65.3082702,55.1224991 65.8284693,55.5206968 C68.8657533,57.922072 73.0290323,59.4565891 78.3244603,60.1163669 C83.9693196,60.8196816 87.2113067,62.2338381 88.9294035,64.6271657 C90.3161048,66.5588559 90.6455295,68.4735107 90.8420894,73.4618925 C90.9177079,75.3809731 90.9474458,76.0203182 91.0201366,77.049841 C91.4572219,83.2403021 92.0888039,96.4555188 92.9106208,116.653677 C93.8607673,122.715381 94.9973427,127.574181 96.3178766,131.226849 C97.7180111,135.099696 98.3242762,141.130947 99.3130605,156.95089 C99.5168395,160.211144 99.6105838,161.677817 99.7281799,163.406055 C100.113658,168.416753 100.938548,172.947226 102.345458,178.899096 C102.343583,178.891164 104.000806,185.705408 104.352541,187.328121 C104.948063,190.075531 105.192383,191.913158 105.079861,193.220076 C104.582523,198.996498 98.6750355,209.101276 95.3792382,207.991704 C94.6783928,207.473138 94.6362246,206.774023 94.9602664,205.775105 C95.0786554,205.410149 95.2418264,205.007159 95.4972283,204.430654 C95.5082728,204.405724 96.0319783,203.242159 96.1898392,202.877562 C97.3419119,200.216724 97.7963664,198.207428 97.4395011,196.09752 C97.3174995,196.926262 97.2232177,197.753601 97.2274824,197.716492 C97.0843227,198.962164 96.9855652,199.662612 96.8597439,200.198412 C96.7711297,200.575768 96.6770622,200.830285 96.5386612,200.993989 C96.2611246,201.322266 95.8786089,201.249718 95.6371165,200.932795 C93.8543642,199.576436 92.9969354,196.710506 92.7964797,192.867553 C92.7262425,191.521031 92.7440358,190.142487 92.8245214,188.802672 C92.8742583,187.97472 92.941981,187.269332 92.9859666,186.931701 C92.9867259,186.925874 93.3980501,185.196939 93.5868973,184.186237 C94.360818,180.044249 94.4606685,175.746699 93.4628773,171.454883 C92.2357763,166.176734 88.6291787,152.675263 82.6346017,130.907441 C80.4075953,114.775905 79.1100679,103.571379 78.7415475,97.2786066 C78.6232226,97.7731571 78.4940579,98.2876771 78.3540607,98.8190416 C73.6977663,111.08548 73.8125345,118.561072 76.8417688,126.340286 C76.9820626,126.700567 77.125489,127.05819 77.3157294,127.524837 C77.6392141,128.316399 77.706243,128.481137 77.7709299,128.641461 C78.1234593,129.515191 78.3538603,130.133793 78.5395498,130.730256 C79.0085764,132.236842 83.5498422,143.605678 84.5115663,146.153926 C85.4670547,148.685651 86.3112234,151.038638 87.0599432,153.280241 C89.2046551,159.701325 90.4828585,164.960767 90.732838,168.994123 C91.1613402,175.907895 91.2220716,177.952044 91.0017396,180.498192 C90.7895461,182.950293 90.7759428,183.019797 88.7349235,192.648506 C87.8338906,196.899218 85.7174849,203.525995 82.568907,212.288601 C82.1816247,213.366421 81.7796078,214.474019 81.3614819,215.615872 C80.3393259,218.407259 73.5460947,236.381856 73.5636633,236.67534 C73.5818901,236.979819 74.2164671,244.699949 74.3782742,246.713971 C74.4148593,247.169813 74.4148593,247.169813 74.4513584,247.626597 C74.9225944,253.5311 75.1902452,257.28638 75.196871,258.370922 C75.2124621,260.922905 75.0813129,263.640385 74.6179173,267.51628 C73.9298902,273.27102 72.6462249,279.93635 70.6194706,287.583605 C66.6508456,302.557837 61.7643877,326.145259 62.0060941,327.903898 C62.2627253,329.771129 62.629536,331.254202 63.0876907,331.974446 C63.4381818,332.525437 63.336505,332.930073 62.8262949,334.057896 C62.4310837,335.062492 62.4113086,335.368964 62.5327313,335.619176 C62.8094757,336.189456 63.0415243,336.654652 63.3528913,337.248521 C63.8102683,338.120875 64.2826566,338.9632 64.7639302,339.747317 C66.0311313,341.811911 67.1993475,343.205165 68.1062507,343.598231 C70.3963027,344.590776 71.7140709,346.613552 71.0685357,347.987845 C70.8266443,348.502812 70.4423707,348.841869 69.7668522,349.256762 C69.6990813,349.298386 69.4416574,349.453357 69.3819906,349.490017 C69.0134568,349.716453 68.8248402,349.868586 68.7279258,350.02603 L68.2486102,350.198474 C67.7243034,350.072655 67.4491036,350.046648 67.2028876,350.070882 C66.8892818,350.101749 66.6645647,350.209148 66.5296183,350.402809 L60.4997486,350.853304 L60.1074729,349.988134 C59.775476,350.543773 59.2175689,350.840396 58.459269,350.840396 C58.2857869,350.840396 58.1440324,350.844796 57.7978606,350.858822 C55.6604941,350.935553 54.742676,350.571847 54.6543031,349.070827 C54.6395208,348.819747 54.2203694,343.352032 54.0529541,340.986088 C53.9746738,339.879815 53.9029039,338.822634 53.8377736,337.810279 C53.5118781,332.744715 53.3719661,329.134885 53.4786224,327.402246 C53.7240251,323.415663 54.6535974,296.437066 54.6535974,293.720802 C54.6535974,293.17147 54.4044106,286.203836 54.4019368,286.129058 C54.3009469,283.076344 54.2288238,280.351614 54.18734,277.763947 C54.0753094,270.775747 54.2044884,265.751731 54.6600098,263.212002 C56.1129675,255.111133 56.274031,248.914087 54.6635964,241.772 C53.4070233,236.199246 53.2361747,215.812604 54.1391887,180.276665 L51.6453583,180.406638 C52.4612141,215.858236 52.2893427,236.205486 51.0341764,241.772 C49.4237418,248.914087 49.5848053,255.111133 51.037763,263.212002 C51.4932844,265.751731 51.6224633,270.775747 51.5104328,277.763947 C51.468949,280.351614 51.3968259,283.076344 51.295836,286.129058 C51.2933622,286.203836 51.0441754,293.17147 51.0441754,293.720802 C51.0441754,296.437066 51.9737477,323.415663 52.2191504,327.402246 C52.3258067,329.134885 52.1858947,332.744715 51.8599992,337.810279 C51.7948689,338.822634 51.723099,339.879815 51.6448187,340.986088 C51.4774034,343.352032 51.058252,348.819747 51.0434697,349.070827 C50.9550968,350.571847 50.0372787,350.935553 48.1426733,350.868239 C47.5537404,350.844796 47.4119859,350.840396 47.2385038,350.840396 C46.4802039,350.840396 45.9222968,350.543773 45.5902999,349.988134 L45.1980242,350.853304 L39.2829137,350.567499 C39.0332081,350.209148 38.808491,350.101749 38.4948852,350.070882 C38.2486692,350.046648 37.9734694,350.072655 37.7022247,350.131767 C37.6222945,350.149186 37.4351125,350.20645 37.1406788,350.303558 C36.8729326,349.868586 36.684316,349.716453 36.3157822,349.490017 C36.2561154,349.453357 35.9986915,349.298386 35.9309206,349.256762 C35.2554021,348.841869 34.8711285,348.502812 34.6292371,347.987845 C33.9837019,346.613552 35.3014701,344.590776 37.5915221,343.598231 C38.4984253,343.205165 39.6666415,341.811911 40.9338426,339.747317 C41.4151162,338.9632 41.8875045,338.120875 42.3448815,337.248521 C42.6562485,336.654652 42.8882971,336.189456 43.1650414,335.619176 C43.2864642,335.368964 43.2666891,335.062492 43.1106405,334.628209 C42.3612678,332.930073 42.259591,332.525437 42.6100821,331.974446 C43.0682368,331.254202 43.4350475,329.771129 43.6916787,327.903898 C43.9333851,326.145259 39.0469272,302.557837 35.0783022,287.583605 C33.0515479,279.93635 31.7678826,273.27102 31.0798555,267.51628 C30.6164599,263.640385 30.4853107,260.922905 30.5009017,258.370922 C30.5075276,257.28638 30.7751784,253.5311 31.2464144,247.626597 C31.2829135,247.169813 31.2829135,247.169813 31.3194986,246.713971 C31.4813057,244.699949 32.1158827,236.979819 32.1341095,236.67534 C32.1451197,236.491415 31.3552362,234.243069 29.7313454,229.855472 C29.3403085,228.798927 27.6414933,224.226539 27.2138407,223.072409 C26.1133429,220.102434 25.1999429,217.617913 24.3228079,215.200957 C24.0122696,214.345266 23.7112545,213.511591 23.4187746,212.696955 C20.1120437,203.486807 17.9103669,196.751509 16.964446,192.655717 C15.0897403,184.538333 14.8873022,183.57215 14.6463881,181.087131 C14.3781218,178.319973 14.4574054,175.868991 14.9652608,168.989321 C15.2648599,164.930797 16.546488,159.714708 18.666088,153.362881 C19.4141597,151.121127 20.2565278,148.767557 21.2142774,146.220018 C21.9912008,144.153462 26.6192327,132.448588 27.158484,130.729421 C27.3538225,130.10667 27.5908697,129.4641 27.9232484,128.63519 C28.0431834,128.336087 28.6461253,126.866786 28.8160691,126.440904 C31.9557972,118.572701 32.0887633,111.491777 27.3305441,98.7779174 C27.1955384,98.2641706 27.0706074,97.7656253 26.9558021,97.2853474 C26.5865482,103.580397 25.2877379,114.789598 23.0523374,130.960065 C17.0685941,152.675263 13.4619965,166.176734 12.2348955,171.454883 C11.2371043,175.746699 11.3369548,180.044249 12.1108755,184.186237 C12.2997227,185.196939 12.7110469,186.925874 12.7118062,186.931701 C12.7557918,187.269332 12.8235145,187.97472 12.8732514,188.802672 C12.953737,190.142487 12.9715303,191.521031 12.9012931,192.867553 C12.7008374,196.710506 11.8434086,199.576436 10.0606563,200.932795 C9.81916389,201.249718 9.43664818,201.322266 9.15911161,200.993989 C9.02071064,200.830285 8.92664307,200.575768 8.83802888,200.198412 C8.71220756,199.662612 8.61345006,198.962164 8.47029037,197.716492 C8.47455508,197.753601 8.38027325,196.926262 8.35442437,196.706189 C7.90140639,198.207428 8.35586094,200.216724 9.50793361,202.877562 C9.66579452,203.242159 10.1895,204.405724 10.2005445,204.430654 C10.4559463,205.007159 10.6191174,205.410149 10.7375064,205.775105 C11.0615482,206.774023 11.01938,207.473138 10.4397609,207.926388 C7.02273733,209.101276 1.11524984,198.996498 0.617912297,193.220076 C0.505389396,191.913158 0.749709676,190.075531 1.34523171,187.328121 C1.69696711,185.705408 3.35418994,178.891164 3.35231474,178.899096 C4.75922454,172.947226 5.5841146,168.416753 5.93041843,163.944433 C6.08718899,161.677817 6.18093331,160.211144 6.37420213,157.119045 C7.37349662,141.130947 7.97976167,135.099696 9.37989622,131.226849 C10.70043,127.574181 11.8370055,122.715381 12.782567,116.700247 C13.6089689,96.4555188 14.2405509,83.2403021 14.6776362,77.049841 C14.750327,76.0203182 14.7800649,75.3809731 14.8556834,73.4618925 C15.0522433,68.4735107 15.381668,66.5588559 16.7683693,64.6271657 C18.4864661,62.2338381 21.7284532,60.8196816 27.3733125,60.1163669 C32.6687405,59.4565891 36.8320195,57.922072 39.8743788,55.5167487 C40.3895026,55.1224991 40.8807652,54.6798172 41.3435388,54.1978091 C43.8054121,51.6877109 45.3095936,48.418061 45.8556247,44.3752001 L46.6647957,44.4844872 C46.0960367,48.6956275 44.51675,52.1285341 41.9295165,54.766415 C41.4417157,55.2745258 40.9196324,55.7449807 40.3757112,56.1612065 C37.2104324,58.6637785 32.907899,60.2496226 27.474265,60.92662 C22.0331994,61.6045433 18.990598,62.9317276 17.4316711,65.1033298 C16.1743246,66.8548273 15.8615444,68.6727424 15.6715682,73.4940412 C15.5955989,75.4220221 15.5656327,76.0662758 15.4921264,77.1073491 C15.055814,83.286864 14.424466,96.4971829 13.5938204,116.780119 C12.6362461,122.889211 11.4883873,127.796247 10.1477735,131.504456 C8.78793148,135.265852 8.18049316,141.308775 7.19963994,157.001825 C6.99576813,160.263565 6.90195831,161.731262 6.78422715,163.461486 C6.39427283,168.53045 5.56272503,173.097489 4.14693429,179.08693 C4.14657211,179.088462 2.49239607,185.890179 2.14321852,187.501091 C1.56431088,190.171851 1.32802084,191.949079 1.43142056,193.150035 C1.88495218,198.417665 7.41932819,207.920547 9.99561493,207.236624 C10.3726603,206.930809 10.2990384,206.75972 8.75863471,203.201989 C7.54929309,200.408882 7.06391527,198.262864 7.45318836,195.96135 C7.56737648,195.286232 7.6714313,194.838848 7.77662362,194.580021 C7.96781438,194.109594 8.45321337,193.905778 8.74596589,194.419145 C8.91157898,194.709562 9.01196178,195.304869 9.16536757,196.610939 C9.19141035,196.832663 9.28588241,197.661671 9.28146885,197.623267 C9.4207497,198.835188 9.51708546,199.518459 9.63292378,200.011748 C11.1362806,198.983446 11.9018472,196.353199 12.0858838,192.82502 C12.1543862,191.511756 12.1369769,190.162956 12.0582028,188.851634 C12.0096168,188.042841 11.9437026,187.356289 11.9021303,187.037184 C11.9079791,187.082079 11.5041361,185.38459 11.3082481,184.336207 C10.5152726,180.092238 10.4128992,175.686098 11.4395881,171.269984 C12.6702349,165.976583 16.2779747,152.470837 22.2543246,130.795778 C24.8802044,111.774963 26.2118812,99.6120303 26.2485765,94.3321432 C26.0711306,92.7898976 25.9840655,91.9565153 25.9888957,91.4376084 C26.3215631,90.7305633 26.601808,90.7748877 26.7518771,90.9483259 C27.0109294,92.0757369 27.0570553,92.8476552 27.0648159,93.7931934 C27.2804017,95.0729866 27.6292729,96.7057532 28.1077334,98.5309971 C32.9255161,111.397967 32.788609,118.688765 29.5744377,126.743524 C29.4026088,127.174129 28.7993193,128.644278 28.6811091,128.939079 C28.355901,129.750107 28.1255381,130.374557 27.937574,130.973798 C27.3878914,132.726221 22.7452048,144.468159 21.9785677,146.507353 C21.0241874,149.04593 20.1851792,151.390113 19.4406199,153.621342 C17.3406762,159.914264 16.0730858,165.073221 15.779563,169.049433 C15.2751709,175.882187 15.1968529,178.303317 15.4590958,181.008342 C15.6949291,183.440954 15.8965472,184.403223 17.7600224,192.471979 C18.696259,196.525838 20.8914858,203.241405 24.187263,212.421043 C24.4794187,213.234776 24.7801175,214.067575 25.0903452,214.922411 C24.3472929,212.874922 32.9804853,236.200981 32.9491683,236.724131 C32.9303084,237.039187 32.2936725,244.784364 32.1333941,246.77936 C32.0968253,247.234998 32.0968253,247.234998 32.0603442,247.691556 C31.5921271,253.558233 31.3238405,257.322434 31.3174044,258.37591 C31.3020098,260.895736 31.4315442,263.579757 31.8905994,267.419349 C32.5740584,273.135879 33.8505038,279.763721 35.8675709,287.374425 C39.8795041,302.512065 44.7647041,326.093415 44.5005923,328.015075 C44.2279609,329.998722 43.8420474,331.559031 43.2990259,332.41269 C43.1701503,332.615289 43.2390015,332.889292 43.6154127,333.721352 C43.7419654,334.001097 43.8127654,334.167608 43.8790572,334.352098 C44.1022476,334.973237 44.1355588,335.489489 43.8996318,335.975657 C43.6195089,336.552899 43.3840524,337.024927 43.0680323,337.627671 C42.6026789,338.515237 42.1215415,339.373163 41.6297356,340.17444 C40.2744717,342.382511 39.0326703,343.863526 37.9162276,344.347409 C35.9963076,345.179533 34.9596651,346.77078 35.3682843,347.640698 C35.5240897,347.972395 35.8085295,348.223366 36.3582495,348.560995 C36.4218767,348.600074 36.6793814,348.755094 36.7432316,348.794325 C37.0735854,348.997301 37.3024399,349.162781 37.4732744,349.34634 C37.8761049,349.258191 38.232074,349.224551 38.5748649,349.258291 C39.030526,349.303139 39.4209837,349.464955 39.7047421,349.770411 L44.6834187,350.010969 L45.9147573,347.295233 L46.0679967,348.800352 C46.1556467,349.661252 46.5151342,350.023878 47.2385038,350.023878 C47.4269634,350.023878 47.5753779,350.028485 47.9329697,350.042974 C49.6711305,350.105511 50.1764091,349.905283 50.2283632,349.022837 C50.2436489,348.763208 50.6633758,343.287986 50.8303373,340.928454 C50.9085005,339.823837 50.9801538,338.768373 51.0451659,337.757857 C51.3685624,332.731134 51.507869,329.136926 51.4041751,327.452413 C51.1577977,323.449997 50.2276575,296.454917 50.2276575,293.720802 C50.2276575,293.154427 50.4784063,286.143119 50.4797646,286.102061 C50.5806133,283.053612 50.6526202,280.333273 50.6940198,277.750859 C50.8051307,270.820022 50.676667,265.823821 50.2340699,263.356151 C48.7634883,255.157021 48.5997328,248.856395 50.2376565,241.592396 C51.4768712,236.096625 51.6439823,215.556977 50.7310887,179.856431 L51.6765449,179.587386 L54.9779636,179.415324 C54.0537905,215.556977 54.2209016,236.096625 55.4601163,241.592396 C57.09804,248.856395 56.9342845,255.157021 55.4637029,263.356151 C55.0211058,265.823821 54.8926421,270.820022 55.003753,277.750859 C55.0451526,280.333273 55.1171595,283.053612 55.2180082,286.102061 C55.2193665,286.143119 55.4701153,293.154427 55.4701153,293.720802 C55.4701153,296.454917 54.5399751,323.449997 54.2935977,327.452413 C54.1899038,329.136926 54.3292104,332.731134 54.6526069,337.757857 C54.717619,338.768373 54.7892723,339.823837 54.8674355,340.928454 C55.034397,343.287986 55.4541238,348.763208 55.4694096,349.022837 C55.5213637,349.905283 56.0266423,350.105511 57.5261076,350.052236 C58.1223949,350.028485 58.2708094,350.023878 58.459269,350.023878 C59.1826386,350.023878 59.5421261,349.661252 59.6297761,348.800352 L59.7830155,347.295233 L61.0143541,350.010969 L65.9930307,349.770411 C66.276789,349.464955 66.6672468,349.303139 67.1229079,349.258291 C67.4656988,349.224551 67.8216679,349.258191 68.1694099,349.333974 C68.3953329,349.162781 68.6241874,348.997301 68.9545412,348.794325 C69.0183913,348.755094 69.2758961,348.600074 69.3395233,348.560995 C69.8892433,348.223366 70.1736831,347.972395 70.3294885,347.640698 C70.7381077,346.77078 69.7014652,345.179533 67.7815452,344.347409 C66.6651025,343.863526 65.4233011,342.382511 64.0680372,340.17444 C63.5762313,339.373163 63.0950939,338.515237 62.6297405,337.627671 C62.3137204,337.024927 62.0782639,336.552899 61.798141,335.975657 C61.562214,335.489489 61.5955252,334.973237 61.8187156,334.352098 C61.8850074,334.167608 61.9558074,334.001097 62.0823601,333.721352 C62.4587713,332.889292 62.5276225,332.615289 62.3987469,332.41269 C61.8557254,331.559031 61.4698119,329.998722 61.1971805,328.015075 C60.9330687,326.093415 65.8182687,302.512065 69.8302019,287.374425 C71.847269,279.763721 73.1237144,273.135879 73.8071734,267.419349 C74.2662286,263.579757 74.395763,260.895736 74.3803684,258.37591 C74.3739323,257.322434 74.1056457,253.558233 73.6374286,247.691556 C73.6009474,247.234998 73.6009474,247.234998 73.5643787,246.77936 C73.4041003,244.784364 72.7674644,237.039187 72.7486045,236.724131 C72.7188684,236.227389 79.9703199,217.040361 80.5947526,215.335109 C81.0123276,214.194761 81.4137836,213.088708 81.8004892,212.012493 C84.9368452,203.283901 87.0452117,196.682296 87.9361537,192.479189 C89.965297,182.906506 89.9804779,182.828941 90.1882618,180.427797 C90.4037717,177.937373 90.3436792,175.914731 89.9178839,169.044632 C89.6732874,165.09813 88.4095319,159.898137 86.2854839,153.538918 C85.5403621,151.308088 84.6996553,148.96475 83.7476428,146.442235 C82.7968123,143.922852 78.2401398,132.515446 77.7599378,130.972963 C77.5822676,130.402259 77.358619,129.801787 77.0137231,128.946976 C76.6766514,128.119668 76.6146836,127.968125 76.5596292,127.833081 C76.367907,127.362799 76.2230171,127.001526 76.080902,126.636568 C72.9794742,118.671958 72.861503,110.987736 77.5775229,98.5703934 C78.0637354,96.7201738 78.416099,95.0750615 78.6329845,93.7898531 C78.6408262,92.8458372 78.6869259,92.0751374 78.7569096,91.5667315 C79.0959648,90.7748877 79.3762097,90.7305633 79.567436,90.9302266 C79.7136966,91.955366 79.6270274,92.7862075 79.449047,93.8539335 C79.4858915,99.6120303 80.8175684,111.774963 83.4326145,130.743154 C89.4197981,152.470837 93.0275379,165.976583 94.2581847,171.269984 C95.2848736,175.686098 95.1825001,180.092238 94.3895247,184.336207 C94.1936367,185.38459 93.7897937,187.082079 93.7956425,187.037184 C93.7540702,187.356289 93.688156,188.042841 93.63957,188.851634 C93.5607959,190.162956 93.5433866,191.511756 93.611889,192.82502 C93.7959256,196.353199 94.5614922,198.983446 96.0181909,200.192812 C96.1806873,199.518459 96.2770231,198.835188 96.4163039,197.623267 C96.4118904,197.661671 96.5063625,196.832663 96.5324052,196.610939 C96.685811,195.304869 96.7861938,194.709562 96.9518069,194.419145 C97.2445594,193.905778 97.7299584,194.109594 97.9211492,194.580021 C98.0263415,194.838848 98.1303963,195.286232 98.2445844,195.96135 C98.6338575,198.262864 98.1484797,200.408882 96.9391381,203.201989 C95.3987344,206.75972 95.3251125,206.930809 95.7021579,207.236624 C98.2784446,207.920547 103.812821,198.417665 104.266352,193.150035 Z M96.2795372,200.427671 C96.2778251,200.424948 96.2752093,200.422146 96.271784,200.419331 L96.2795372,200.427671 Z M78.888692,91.3451859 C78.888226,91.3395313 78.8878078,91.3358774 78.8875041,91.334453 C78.8875945,91.3348767 78.8879904,91.3384543 78.888692,91.3451859 Z M26.8102687,91.334453 C26.8100988,91.3352498 26.8098931,91.3367443 26.8096632,91.3388965 C26.8093316,91.33878 26.8098064,91.3366213 26.8102687,91.334453 Z M9.4182356,200.427671 L9.42598884,200.419331 C9.42256352,200.422146 9.41994771,200.424948 9.4182356,200.427671 Z M9.76952994,200.446271 C9.77444111,200.455435 9.77884247,200.462322 9.78265145,200.466827 C9.7813484,200.465286 9.7800318,200.463769 9.77870207,200.462277 L9.76952994,200.446271 Z M97.6502485,194.840835 C97.6542036,194.835123 97.6578232,194.829372 97.6611,194.823626 C97.6599626,194.825621 97.6588207,194.827708 97.6576743,194.829888 L97.6502485,194.840835 Z" id="Combined-Shape" fill="#242424" fill-rule="nonzero"></path>
                        <path d="M85.0588151,150.443771 C80.149328,154.08169 67.7480813,156.743171 54.5211925,157.075373 C39.7319784,156.852661 25.5969459,154.185212 20.4763489,150.43734 L18.1517693,157.479851 C22.7134638,158.257079 29.2337119,162.351378 36.474056,168.485425 C42.2744572,173.399546 47.9694944,179.252873 49.0162415,181.20744 C50.2864118,183.5792 51.4358228,184.693974 52.7182385,184.693974 C54.1356012,184.693974 55.681619,183.442004 56.8265906,181.304024 C57.8839031,179.329728 63.4917192,173.441754 69.1624085,168.536447 C76.2993713,162.362773 82.7350282,158.254747 87.2903534,157.478995 L85.0588151,150.443771 Z M88.3628658,158.159657 L87.8737101,158.218753 C83.5120083,158.745704 76.9708845,162.861513 69.696593,169.153982 C64.0992068,173.995879 58.5416361,179.831097 57.5463873,181.689503 C56.2737138,184.065938 54.4898803,185.510492 52.7182385,185.510492 C51.0404914,185.510492 49.696267,184.206776 48.2964448,181.592919 C47.314154,179.75871 41.6695627,173.957231 35.9462515,169.108421 C28.5610752,162.851671 21.9289743,158.746248 17.5627669,158.218753 L17.0677644,158.158951 L20.0722552,149.056592 L20.5338336,149.44562 C25.0160769,153.22335 39.4475925,156.031768 54.5170795,156.259031 C68.0034751,155.919986 80.6474404,153.119465 85.0064257,149.44562 L85.4738544,149.051661 L88.3628658,158.159657 Z" id="Combined-Shape" fill="#242424" fill-rule="nonzero"></path>
                        <path d="M85.0588151,150.443771 C80.149328,154.08169 67.7480813,156.743171 54.5211925,157.075373 C39.7319784,156.852661 25.5969459,154.185212 20.4763489,150.43734 L18.1517693,157.479851 C22.7134638,158.257079 29.2337119,162.351378 36.474056,168.485425 C42.2744572,173.399546 47.9694944,179.252873 49.0162415,181.20744 C50.2864118,183.5792 51.4358228,184.693974 52.7182385,184.693974 C54.1356012,184.693974 55.681619,183.442004 56.8265906,181.304024 C57.8839031,179.329728 63.4917192,173.441754 69.1624085,168.536447 C76.2993713,162.362773 82.7350282,158.254747 87.2903534,157.478995 L85.0588151,150.443771 Z" id="Path" fill="#F9E5CB"></path>
                        <path d="M30.6187126,77.9266235 C31.0761936,77.9266235 31.4867051,78.1144248 31.8470343,78.417938 C31.9890636,78.5375725 32.1035365,78.6569918 32.189198,78.7606244 C39.1177603,80.3264307 43.9952497,84.0645023 47.1616726,89.173338 C48.2764613,90.9719834 49.0954298,92.8155606 49.6646685,94.6047307 C49.8642019,95.2318829 50.0183602,95.8080172 50.132826,96.3207682 C50.202087,96.6310236 50.2429486,96.8530222 50.2610571,96.9743978 L50.2799883,97.1012876 L50.2155133,97.213588 C48.7483104,99.7691139 44.3495594,102.222249 39.7713528,102.988102 C34.3891011,103.888458 29.6863343,102.42773 27.0408362,98.358458 C23.2105059,92.4666911 23.999784,85.873052 29.3631024,78.6457332 C29.6557553,78.1788549 30.0870395,77.9266235 30.6187126,77.9266235 Z M49.3502578,96.4812576 C49.240425,95.9892602 49.0918991,95.4341756 48.8991874,94.8284648 C48.3477256,93.0951691 47.5536465,91.3076204 46.473638,89.5650907 C43.3913127,84.5919415 38.6441961,80.9719621 31.8642452,79.4756393 L31.7081361,79.4411863 L31.6199613,79.3129975 C31.5699226,79.2402511 31.4645869,79.1169502 31.3187454,78.9941048 C31.0915973,78.8027729 30.8531052,78.6936672 30.6187126,78.6936672 C30.3759119,78.6936672 30.1972924,78.7995036 30.0433788,79.0499725 C24.8269092,86.0755171 24.0739519,92.3444279 27.7200484,97.9528085 C30.1725771,101.725258 34.5457595,103.083614 39.6337587,102.232481 C43.9230193,101.514963 48.0446578,99.2433681 49.4476115,96.956228 C49.4270337,96.842171 49.3951821,96.6824963 49.3502578,96.4812576 Z" id="Path-7" fill="#242424" fill-rule="nonzero"></path>
                        <path d="M49.3502578,96.4812576 C49.240425,95.9892602 49.0918991,95.4341756 48.8991874,94.8284648 C48.3477256,93.0951691 47.5536465,91.3076204 46.473638,89.5650907 C43.3913127,84.5919415 38.6441961,80.9719621 31.8642452,79.4756393 L31.7081361,79.4411863 L31.6199613,79.3129975 C31.5699226,79.2402511 31.4645869,79.1169502 31.3187454,78.9941048 C31.0915973,78.8027729 30.8531052,78.6936672 30.6187126,78.6936672 C30.3759119,78.6936672 30.1972924,78.7995036 30.0433788,79.0499725 C24.8269092,86.0755171 24.0739519,92.3444279 27.7200484,97.9528085 C30.1725771,101.725258 34.5457595,103.083614 39.6337587,102.232481 C43.9230193,101.514963 48.0446578,99.2433681 49.4476115,96.956228 C49.4270337,96.842171 49.3951821,96.6824963 49.3502578,96.4812576 Z" id="Path" fill="#F9E5CB"></path>
                        <path d="M73.7203769,77.9266235 C74.25205,77.9266235 74.6833341,78.1788549 74.975987,78.6457332 C80.3393054,85.873052 81.1285836,92.4666911 77.2982532,98.358458 C74.6527551,102.42773 69.9499883,103.888458 64.5677366,102.988102 C59.98953,102.222249 55.590779,99.7691139 54.1235761,97.213588 L54.0591011,97.1012876 L54.0780323,96.9743978 C54.0961408,96.8530222 54.1370024,96.6310236 54.2062634,96.3207682 C54.3207292,95.8080172 54.4748875,95.2318829 54.674421,94.6047307 C55.2436596,92.8155606 56.0626282,90.9719834 57.1774168,89.173338 C60.3438398,84.0645023 65.2213291,80.3264307 72.1498915,78.7606244 C72.2355529,78.6569918 72.3500258,78.5375725 72.4920551,78.417938 C72.8523844,78.1144248 73.2628959,77.9266235 73.7203769,77.9266235 Z M54.9888316,96.4812576 C55.0986644,95.9892602 55.2471904,95.4341756 55.4399021,94.8284648 C55.9913638,93.0951691 56.7854429,91.3076204 57.8654514,89.5650907 C60.9477768,84.5919415 65.6948933,80.9719621 72.4748443,79.4756393 L72.6309533,79.4411863 L72.7191281,79.3129975 C72.7691668,79.2402511 72.8745026,79.1169502 73.020344,78.9941048 C73.2474921,78.8027729 73.4859843,78.6936672 73.7203769,78.6936672 C73.9631776,78.6936672 74.1417971,78.7995036 74.2957107,79.0499725 C79.5121803,86.0755171 80.2651376,92.3444279 76.6190411,97.9528085 C74.1665123,101.725258 69.7933299,103.083614 64.7053307,102.232481 C60.4160702,101.514963 56.2944317,99.2433681 54.8914779,96.956228 C54.9120557,96.842171 54.9439073,96.6824963 54.9888316,96.4812576 Z" id="Path-7-Copy-5" fill="#242424" fill-rule="nonzero"></path>
                        <path d="M54.9589049,96.4812576 C55.0687377,95.9892602 55.2172636,95.4341756 55.4099754,94.8284648 C55.9614371,93.0951691 56.7555162,91.3076204 57.8355247,89.5650907 C60.9178501,84.5919415 65.6649666,80.9719621 72.4449176,79.4756393 L72.6010266,79.4411863 L72.6892014,79.3129975 C72.7392401,79.2402511 72.8445759,79.1169502 72.9904173,78.9941048 C73.2175654,78.8027729 73.4560575,78.6936672 73.6904502,78.6936672 C73.9332509,78.6936672 74.1118704,78.7995036 74.265784,79.0499725 C79.4822536,86.0755171 80.2352108,92.3444279 76.5891143,97.9528085 C74.1365856,101.725258 69.7634032,103.083614 64.675404,102.232481 C60.3861435,101.514963 56.264505,99.2433681 54.8615512,96.956228 C54.882129,96.842171 54.9139806,96.6824963 54.9589049,96.4812576 Z" id="Path-Copy-4" fill="#F9E5CB"></path>
                        <path d="M49.7673842,96.973656 L50.0392282,96.2037194 C51.4651791,96.7071847 52.8570783,96.7015515 54.5313877,96.192453 L54.768924,96.973656 C52.9335819,97.5317188 51.363925,97.5373519 49.7673842,96.973656 Z" id="Path-3" fill="#242424" fill-rule="nonzero"></path>
                        <path d="M46.0902375,45.0984502 C46.3119521,45.1394589 46.4584432,45.3524382 46.4174345,45.5741527 C46.3764257,45.7958673 46.1634465,45.9423583 45.9417319,45.9013496 C33.3820088,43.5782819 29.0722309,34.9276795 33.0677917,20.1602832 C37.3654944,7.15031281 44.2529266,0.591741052 53.7109455,0.591741052 C59.9503539,0.591741052 65.0489907,4.25963378 69.0888477,10.3497904 C70.4988998,12.4754691 71.6794369,14.7546035 72.6411693,17.0388261 C73.2252437,18.4260686 73.6366449,19.595891 73.8055092,20.1739222 C76.5165686,29.4596146 77.1796622,33.2447315 76.056571,37.22273 C74.572605,42.4789499 69.4788429,45.4954787 59.6368452,46.3153341 C59.4121482,46.3340517 59.2148217,46.1670725 59.1961041,45.9423756 C59.1773864,45.7176786 59.3443657,45.5203521 59.5690626,45.5016345 C69.1072838,44.7070842 73.895702,41.8713802 75.27077,37.0008782 C76.3342929,33.233871 75.6838133,29.5207578 73.0217326,20.4028233 C72.8613812,19.8539321 72.4602777,18.7133915 71.8886321,17.3556689 C70.9454479,15.1155003 69.7878661,12.8806832 68.4084215,10.8011457 C64.5048267,4.91640678 59.6282469,1.40825895 53.7109455,1.40825895 C44.6572254,1.40825895 38.0409919,7.70858116 33.84954,20.3949523 C29.9762956,34.712553 34.0402096,42.8696565 46.0902375,45.0984502 Z" id="Combined-Shape" fill="#242424" fill-rule="nonzero"></path>
                        <path d="M40.6990078,22.8910537 C40.4492851,26.2303909 40.6802666,29.7551104 41.2370465,33.4983408 C41.4076983,34.6456325 41.8527866,37.1752421 41.8722298,37.3609521 C42.0639426,39.192083 45.2444394,43.215667 48.2903546,45.5174676 C50.2041181,46.9637002 51.7361276,47.7697362 52.861429,47.9425778 C56.5737048,47.0020144 59.4261422,45.3556522 61.4308979,43.0058953 C63.329639,40.7803971 64.5561178,36.8038761 65.0828728,31.0829487 C63.8461322,29.6537247 62.0240822,28.4722176 56.9569351,25.548523 C53.3255481,23.453248 51.6290184,22.3877649 50.1206115,21.1386693 C49.4862797,20.6133859 48.9679421,20.1068854 48.5650148,19.610014 C46.5435366,17.1172202 45.7131505,14.1808049 46.0746121,10.8248701 C42.8025587,13.2168725 41.1108778,17.3834514 40.6990078,22.8910537 Z M47.0055183,10.0491443 C46.4172059,13.5612624 47.1481118,16.5664006 49.1992132,19.0957243 C49.5649175,19.5466941 50.0457453,20.0165413 50.6413847,20.509784 C52.1011554,21.7186045 53.7759826,22.7704577 57.365003,24.8412875 C62.6968086,27.9176875 64.4869582,29.0896278 65.8185772,30.6879464 L65.9265328,30.8175235 L65.9115609,30.985513 C65.3798954,36.9509991 64.1028228,41.1321752 62.0520605,43.5358561 C59.9163592,46.0390932 56.8889978,47.7776941 52.9823866,48.7541129 L52.830536,48.762861 C51.5264053,48.5925874 49.857805,47.7254381 47.7980704,46.168895 C44.5879623,43.7430138 41.2814874,39.5600573 41.0601505,37.4459739 C41.0442445,37.2940485 40.6037656,34.7906363 40.429414,33.6184706 C39.8644811,29.8204279 39.6298115,26.2394279 39.8847635,22.8301628 C40.3443125,16.6849874 42.363356,12.0823948 46.3907184,9.63288837 L47.1528972,9.169319 L47.0055183,10.0491443 Z" id="Path-2" fill="#242424" fill-rule="nonzero"></path>
                        <path d="M39.9922599,26.0465006 L40.2178977,26.8312229 C39.0039148,27.1802897 38.1515643,28.295644 38.1515643,29.5781264 C38.1515643,31.1564527 39.4310506,32.435939 41.0093769,32.435939 L41.0093769,33.2524569 C38.9801002,33.2524569 37.3350464,31.6074031 37.3350464,29.5781264 C37.3350464,27.9292005 38.4306604,26.4955206 39.9922599,26.0465006 Z" id="Oval-6" fill="#242424" fill-rule="nonzero"></path>
                    </g>
                    <g id="辅助图" transform="translate(14.000000, 55.000000)">
                        <g id="身高" transform="translate(2.718045, 0.000000)" fill="#E85C40">
                            <path d="M50.6241096,8.16517896 L50.6241096,7.34866106 L70.2205391,7.34866106 L70.2205391,2.44955369 L71.037057,2.44955369 L71.037057,13.8808042 L70.2205391,13.8808042 L70.2205391,8.16517896 L50.6241096,8.16517896 Z M25.3120548,8.16517896 L0.816517896,8.16517896 L0.816517896,13.0642863 L7.89480256e-15,13.0642863 L7.80538958e-15,2.44955369 L0.816517896,2.44955369 L0.816517896,7.34866106 L25.3120548,7.34866106 L25.3120548,8.16517896 Z" id="Combined-Shape"></path>
                            <path d="M35.6295749,3.52338005 L30.0151979,3.52338005 L30.0151979,4.46400866 L35.6295749,4.46400866 L35.6295749,3.52338005 Z M30.0151979,5.30665513 L30.0151979,6.0807141 C30.0053996,7.99136598 29.5938746,9.62766784 28.790421,10.9994179 L28.0947478,10.3723322 C28.7414299,9.26513389 29.064771,7.83459454 29.0745692,6.0807141 L29.0745692,2.65133894 L32.4451551,2.65133894 C32.347173,2.42598 32.2491908,2.22021749 32.1414105,2.02425319 L33.1506266,1.86748176 C33.2486087,2.10263891 33.3367927,2.36719071 33.4249766,2.65133894 L36.5310107,2.65133894 L36.5310107,5.30665513 L30.0151979,5.30665513 Z M31.5437194,8.09914634 L31.5437194,8.71643387 L35.3846195,8.71643387 L35.3846195,8.09914634 L31.5437194,8.09914634 Z M35.3846195,7.3446838 L35.3846195,6.72739627 L31.5437194,6.72739627 L31.5437194,7.3446838 L35.3846195,7.3446838 Z M31.5437194,9.4708964 L31.5437194,10.9504268 L30.6520818,10.9504268 L30.6520818,5.91414445 L36.2762571,5.91414445 L36.2762571,9.99020179 C36.2762571,10.6172875 35.952916,10.9406286 35.3258303,10.9406286 L34.2480266,10.9406286 L34.0324659,10.1175786 L35.0514802,10.1469732 C35.267041,10.1469732 35.3846195,10.0293946 35.3846195,9.8040357 L35.3846195,9.4708964 L31.5437194,9.4708964 Z M39.2157215,4.53259617 L38.4024697,4.53259617 L38.4024697,2.64154072 L41.9200288,2.64154072 C41.7828538,2.43577821 41.6456788,2.23981392 41.4889073,2.06344605 L42.5275181,1.88707818 C42.6646931,2.11243712 42.8018681,2.36719071 42.9292449,2.64154072 L46.4957951,2.64154072 L46.4957951,4.58158724 L45.7511308,4.58158724 L45.7511308,5.17927834 L44.3107932,5.17927834 L44.3107932,5.84555694 L43.4387521,5.84555694 L43.4387521,5.17927834 L41.4987055,5.17927834 L41.4987055,5.84555694 L40.6266644,5.84555694 L40.6266644,5.17927834 L39.2157215,5.17927834 L39.2157215,4.53259617 Z M45.5943593,4.33663187 L45.5943593,3.52338005 L39.3039054,3.52338005 L39.3039054,4.33663187 L40.6266644,4.33663187 L40.6266644,3.78793185 L41.4987055,3.78793185 L41.4987055,4.33663187 L43.4387521,4.33663187 L43.4387521,3.77813363 L44.3107932,3.77813363 L44.3107932,4.33663187 L45.5943593,4.33663187 Z M45.4179914,6.12970517 L45.4179914,9.28473032 L44.4969593,9.28473032 L44.4969593,6.99194807 L40.4209019,6.99194807 L40.4209019,9.28473032 L39.4998697,9.28473032 L39.4998697,6.12970517 L45.4179914,6.12970517 Z M41.8808359,7.36428023 L42.7724735,7.36428023 L42.7724735,8.05995348 L42.7430788,8.35389992 L43.5563306,8.35389992 L43.5563306,9.81383392 C43.5563306,9.97060536 43.6543128,10.0587893 43.8502771,10.0587893 L45.4375879,10.0587893 C45.5943593,10.0587893 45.7119379,10.0097982 45.7903236,9.9314125 C45.8883058,9.83343035 45.947095,9.52968569 45.9764897,9.02997674 L46.8191362,9.30432675 C46.7407504,10.0783857 46.6133736,10.5389018 46.4174094,10.6956732 C46.2410415,10.8328483 45.9764897,10.9014358 45.6041575,10.9014358 L43.5759271,10.9014358 C42.9586395,10.9014358 42.6548949,10.5976911 42.6548949,10 L42.6548949,8.69683744 C42.478527,9.21614282 42.1551859,9.64726427 41.6848716,9.98040357 C41.018593,10.4213232 39.9505876,10.7642608 38.4710572,11.0092161 L37.96155,10.2253589 C39.4508787,10.0097982 40.469893,9.74524642 41.0087948,9.41210711 C41.5378984,9.05937138 41.8220466,8.60865351 41.8808359,8.05995348 L41.8808359,7.36428023 Z" id="肩宽"></path>
                        </g>
                        <g id="内腿长" transform="translate(35.482592, 204.193310) rotate(-270.000000) translate(-35.482592, -204.193310) translate(-40.517408, 196.693310)" fill="#E85C40">
                            <path d="M92.2665223,8.4203494 L92.2665223,7.6038315 L150.585356,7.6038315 L150.585356,2.70472413 L151.401874,2.70472413 L151.401874,14.1359747 L150.585356,14.1359747 L150.585356,8.4203494 L92.2665223,8.4203494 Z M51.4406275,8.4203494 L0.816517896,8.4203494 L0.816517896,13.3194568 L-2.40963304e-13,13.3194568 L-2.40884568e-13,2.70472413 L0.816517896,2.70472413 L0.816517896,7.6038315 L51.4406275,7.6038315 L51.4406275,8.4203494 Z" id="Combined-Shape"></path>
                            <path d="M71.8427305,-6.1535732 C71.4312055,-5.13455886 70.7061376,-4.28211418 69.6577286,-3.57664272 L69.0306428,-4.33110526 C70.08885,-5.05617315 70.7845233,-5.94781069 71.1176626,-7.00601788 C71.2058465,-7.31956075 71.2842322,-7.66249827 71.3430215,-8.03483043 L68.8248803,-8.03483043 L68.8248803,-1.40143904 L67.8842517,-1.40143904 L67.8842517,-8.93626619 L71.4508019,-8.93626619 C71.4899947,-9.41637871 71.5193894,-9.92588588 71.5193894,-10.4647877 L72.4698162,-10.4647877 C72.4698162,-9.92588588 72.4502198,-9.41637871 72.4110269,-8.93626619 L75.8012092,-8.93626619 L75.8012092,-2.61641767 C75.8012092,-1.88155157 75.4582717,-1.50921941 74.7821949,-1.50921941 L73.2438752,-1.50921941 L72.9891216,-2.44004981 L74.468652,-2.39105873 C74.7234056,-2.39105873 74.8605806,-2.53803196 74.8605806,-2.82218018 L74.8605806,-8.03483043 L72.3130448,-8.03483043 C72.2542555,-7.69189292 72.1954662,-7.36855183 72.1268787,-7.07460539 C73.1067002,-6.17316963 73.9297502,-5.28153209 74.605827,-4.38989454 L73.8905574,-3.67462487 C73.3810502,-4.44868383 72.6951752,-5.27173387 71.8427305,-6.1535732 Z M73.5770145,5.11214279 L73.5770145,5.86660533 L75.1251324,5.86660533 L75.1251324,5.11214279 L73.5770145,5.11214279 Z M75.1251324,4.39687311 L75.1251324,3.66200701 L73.5770145,3.66200701 L73.5770145,4.39687311 L75.1251324,4.39687311 Z M74.4490556,6.90521609 C74.6254235,7.13057503 74.7919931,7.34613575 74.9487646,7.56169648 C75.2035181,7.38532861 75.4386753,7.15017146 75.6738324,6.85622502 L76.1931378,7.36573218 C75.9481825,7.67927505 75.6738324,7.93402864 75.3700878,8.12999293 C75.7620164,8.68849117 76.0951557,9.19799834 76.3597075,9.64871622 L75.6738324,10.1190305 C75.2231146,9.27638406 74.6156252,8.32595723 73.8513645,7.28734646 L74.4490556,6.90521609 Z M71.0980662,2.77036946 C71.636968,3.24068377 72.0876858,3.71099808 72.460018,4.18131239 L71.8525287,4.79859992 C71.5291876,4.34788204 71.0784697,3.8579713 70.4905768,3.33866592 L71.0980662,2.77036946 Z M74.694011,10.5991431 C75.2917021,10.5991431 75.8599985,10.5893448 76.3891021,10.5795466 L76.153945,11.4515877 L74.6254235,11.4515877 C74.3510735,11.4515877 74.0865217,11.4417895 73.8121716,11.4319913 C73.4104448,11.4221931 73.0479109,11.3634038 72.7245698,11.2458252 C72.4208251,11.1282466 72.1660716,10.9420806 71.9603091,10.6677306 C71.8427305,10.5305555 71.7349501,10.461968 71.6467662,10.461968 C71.4899947,10.461968 71.1862501,10.8440984 70.725734,11.6083592 L70.1966304,10.9126859 C70.1182447,11.3242109 69.8340965,11.5299735 69.3637821,11.5299735 L68.7954857,11.5299735 L68.579925,10.7363181 C68.766091,10.7559145 68.9424589,10.7657127 69.1090286,10.7657127 C69.3049929,10.7657127 69.402975,10.6579323 69.402975,10.4423716 L69.402975,8.24757151 L68.5505303,8.24757151 C68.491741,9.59972515 68.2957767,10.7069234 67.9528392,11.5789645 L67.2865606,10.9714752 C67.5805071,10.0896359 67.7372785,8.9726394 67.7470767,7.62048577 L67.7470767,2.77036946 L70.2162268,2.77036946 L70.2162268,10.7265198 C70.2162268,10.7853091 70.2064286,10.8343002 70.2064286,10.8734931 C70.6179536,10.2856002 70.9608911,9.89367159 71.2548376,9.69770729 L71.2548376,6.62106786 L70.451384,6.62106786 L70.451384,5.77842139 L72.1268787,5.77842139 L72.1268787,9.86427694 C72.3032466,10.0798377 72.5090091,10.2562055 72.7637627,10.3835823 C73.0185162,10.4913627 73.3320591,10.5599502 73.6847948,10.5795466 C74.0179341,10.5893448 74.3510735,10.5991431 74.694011,10.5991431 Z M68.5701267,5.90579818 L68.5701267,7.4441179 L69.402975,7.4441179 L69.402975,5.90579818 L68.5701267,5.90579818 Z M69.402975,5.10234458 L69.402975,3.55422664 L68.5701267,3.55422664 L68.5701267,5.10234458 L69.402975,5.10234458 Z M73.5770145,6.64066429 L73.5770145,9.1686037 C73.919952,9.08041976 74.2628895,8.9726394 74.5960288,8.84526261 L74.7919931,9.5703305 C74.2530913,9.78589123 73.5770145,9.99165374 72.7539644,10.187618 L72.5482019,9.41355907 C72.6853769,9.35476978 72.7637627,9.24698942 72.7637627,9.10981441 L72.7637627,2.89774626 L75.9383842,2.89774626 L75.9383842,6.64066429 L73.5770145,6.64066429 Z M67.2261383,19.2879286 L69.1367902,19.2879286 L69.1367902,15.613598 L70.0774188,15.613598 L70.0774188,19.2879286 L75.9171548,19.2879286 L75.9171548,20.1893643 L72.8013225,20.1893643 C73.2030493,21.6199037 74.2808529,22.7466984 76.0445316,23.5697484 L75.4958315,24.4515877 C73.5067939,23.4031788 72.3114117,21.9824376 71.8998867,20.1893643 L70.0774188,20.1893643 L70.0774188,23.4325734 C70.7534956,23.2562055 71.4295724,23.050443 72.1056492,22.8152859 L72.3408064,23.6971252 C71.3609849,24.0302645 70.3027777,24.3144127 69.175983,24.5691663 L68.8918348,23.7069234 C69.0486062,23.6187395 69.1367902,23.4815645 69.1367902,23.2856002 L69.1367902,20.1893643 L67.2261383,20.1893643 L67.2261383,19.2879286 Z M74.3102476,15.6625891 L74.9373333,16.2994731 C74.1534761,17.1813124 72.9874886,17.9651696 71.4197742,18.670641 L70.861276,17.9259767 C72.4093939,17.2596981 73.555785,16.5052356 74.3102476,15.6625891 Z" transform="translate(71.807620, 7.052189) rotate(-90.000000) translate(-71.807620, -7.052189) "></path>
                        </g>
                        <g id="腰围" transform="translate(11.247768, 74.119646)" fill="#E85C40">
                            <path d="M0.705790865,5.88674809 L1.52230876,5.88674809 C1.52230876,7.38878352 7.02099165,9.04303619 15.4580057,9.87328398 L15.3780421,10.6858769 C6.34895635,9.79736608 0.705790865,8.09964651 0.705790865,5.88674809 Z M41.7162874,10.5989891 L41.6293775,9.78710972 C49.6063647,8.93319043 54.7258608,7.32948502 54.7258608,5.88674809 L55.5423787,5.88674809 C55.5423787,8.03208317 50.2716835,9.6831524 41.7162874,10.5989891 Z" id="Oval-7" fill-rule="nonzero"></path>
                            <path d="M55.5423787,5.89910738 L54.7258608,5.89910738 C54.7258608,5.4181002 54.0069874,4.8234424 52.5648179,4.24933602 L52.8668124,3.49071834 C54.5975341,4.1796931 55.5423787,4.96127602 55.5423787,5.89910738 Z M51.254798,2.94211029 L51.0241085,3.72536238 C50.1165543,3.45806247 49.0642221,3.20662799 47.8841793,2.97508225 L48.0413969,2.17384315 C49.2449112,2.40999442 50.3214357,2.66720919 51.254798,2.94211029 Z M46.4464597,1.88561787 L46.312418,2.6910583 C45.3065648,2.52366383 44.2314203,2.37022516 43.0967404,2.23224369 L43.1953061,1.42169679 C44.3415411,1.56108342 45.4284803,1.71620535 46.4464597,1.88561787 Z M41.5431433,1.23597925 L41.4590005,2.04815008 C40.4157875,1.94007078 39.3331873,1.84474462 38.2179584,1.76291065 L38.2777127,0.948582154 C39.4009722,1.03100539 40.4916969,1.12704694 41.5431433,1.23597925 Z M36.6136944,0.83790065 L36.5649445,1.65296195 C35.502101,1.58939197 34.4162126,1.53787578 33.3123259,1.49880679 L33.3412061,0.682799804 C34.4516787,0.722101877 35.5441897,0.773932256 36.6136944,0.83790065 Z M31.6754611,0.633594856 L31.6560699,1.44988246 C30.5816142,1.42435828 29.4946846,1.41049673 28.3992116,1.40850852 L28.4006935,0.591991966 C29.5021286,0.593991001 30.5950283,0.607928681 31.6754611,0.633594856 Z M26.8427068,0.597142304 L26.8496047,1.41363106 C25.7525376,1.42289939 24.6656724,1.44412963 23.5931334,1.47708205 L23.5680588,0.660949261 C24.6466689,0.627810313 25.7395932,0.606461714 26.8427068,0.597142304 Z M21.9316562,0.720730876 L21.9662622,1.5365151 C20.8602254,1.58343378 19.7745494,1.64296594 18.7145626,1.71466672 L18.6594568,0.900010467 C19.7263237,0.827844286 20.8188321,0.767937475 21.9316562,0.720730876 Z M17.023204,1.02194355 L17.0895944,1.83575789 C15.9712616,1.9269907 14.8894176,2.03200521 13.8512652,2.14996164 L13.7590843,1.33866382 C14.8059593,1.21971631 15.8963931,1.113868 17.023204,1.02194355 Z M12.1310496,1.53887861 L12.2385368,2.34829074 C11.098597,2.49967083 10.0260689,2.66705946 9.03155549,2.84870785 L8.88484522,2.04547838 C9.89281242,1.86137266 10.9783704,1.69195045 12.1310496,1.53887861 Z M7.26356393,2.36889283 L7.43749233,3.16667124 C6.23940769,3.42787277 5.19742086,3.71057112 4.33176171,4.00938034 L4.06534061,3.23755052 C4.96378915,2.92742302 6.03606311,2.63650755 7.26356393,2.36889283 Z M2.50301475,3.88324853 L2.87201688,4.61162955 C1.95857296,5.07438563 1.52230876,5.52692802 1.52230876,5.89910738 L0.705790865,5.89910738 C0.705790865,5.13164039 1.34250334,4.47117047 2.50301475,3.88324853 Z" id="Oval-7-Copy" fill-rule="nonzero" opacity="0.5"></path>
                            <path d="M19.9817683,9.69030529 L19.9817683,11.1404411 L20.8734059,11.1404411 L20.8734059,9.69030529 L19.9817683,9.69030529 Z M20.8734059,8.87705347 L20.8734059,7.39752304 L19.9817683,7.39752304 L19.9817683,8.87705347 L20.8734059,8.87705347 Z M19.9719701,11.9634911 C19.9131808,13.3058465 19.6976201,14.4130448 19.3252879,15.2752877 L18.6100183,14.6384037 C18.9235611,13.7859591 19.0803326,12.6983572 19.0901308,11.3755982 L19.0901308,6.53528014 L21.7356488,6.53528014 L21.7356488,14.2268787 C21.7356488,14.8833591 21.471097,15.2164984 20.9419934,15.2164984 L20.2659165,15.2164984 L20.0307594,14.3640537 C20.2561183,14.3836502 20.4618808,14.4032466 20.6578451,14.4032466 C20.7950201,14.4032466 20.8734059,14.2366769 20.8734059,13.9035376 L20.8734059,11.9634911 L19.9719701,11.9634911 Z M22.0295952,6.55487657 L27.585183,6.55487657 L27.585183,7.35833018 L25.89989,7.35833018 L25.89989,8.17158201 L27.3010347,8.17158201 L27.3010347,10.7779071 L25.0866382,10.7779071 C24.9886561,10.9934679 24.9004721,11.2090286 24.80249,11.4245893 L27.7027615,11.4245893 L27.7027615,12.2476393 L26.5269758,12.2476393 C26.3800026,12.8355322 26.125249,13.325443 25.7725132,13.736968 C26.3898008,13.9819234 26.9874919,14.2464752 27.5655865,14.5306234 L27.0560794,15.2752877 C26.5269758,14.9813413 25.8704954,14.6677984 25.0866382,14.3346591 C24.4595525,14.7265877 23.5287221,15.0499288 22.3137434,15.2948841 L21.9708059,14.4914305 C22.8330488,14.3444573 23.5287221,14.1582912 24.0578257,13.9231341 C23.6267042,13.7467662 23.1857845,13.5801966 22.7154702,13.4136269 C22.9898202,13.0119001 23.2347756,12.6199715 23.4503363,12.2476393 L22.019797,12.2476393 L22.019797,11.4245893 L23.8814578,11.4245893 L24.1754042,10.7779071 L22.3333399,10.7779071 L22.3333399,8.17158201 L23.7050899,8.17158201 L23.7050899,7.35833018 L22.0295952,7.35833018 L22.0295952,6.55487657 Z M25.1160328,8.17158201 L25.1160328,7.35833018 L24.4987453,7.35833018 L24.4987453,8.17158201 L25.1160328,8.17158201 Z M24.9102703,13.4038287 C25.2630061,13.0902858 25.5177597,12.6983572 25.6549347,12.2476393 L24.3713685,12.2476393 C24.2047989,12.5219894 24.028431,12.7865412 23.8520631,13.0412947 C24.2047989,13.1588733 24.5575346,13.2764519 24.9102703,13.4038287 Z M26.4583883,10.0234446 L26.4583883,8.92604454 L25.7921097,8.92604454 L25.7921097,10.0234446 L26.4583883,10.0234446 Z M25.1454275,10.0234446 L25.1454275,8.92604454 L24.4791489,8.92604454 L24.4791489,10.0234446 L25.1454275,10.0234446 Z M23.8422649,10.0234446 L23.8422649,8.92604454 L23.1563899,8.92604454 L23.1563899,10.0234446 L23.8422649,10.0234446 Z M30.367876,8.2989588 L32.5234832,8.2989588 L32.5234832,7.67187306 L33.424919,7.67187306 L33.424919,8.2989588 L35.6491137,8.2989588 L35.6491137,9.08281598 L33.424919,9.08281598 L33.424919,9.67070887 L35.2277905,9.67070887 L35.2277905,10.4349696 L33.424919,10.4349696 L33.424919,11.0228625 L35.7568941,11.0228625 C35.7274994,12.0810697 35.6393155,12.7473483 35.5021405,13.0216983 C35.345369,13.3058465 34.9828351,13.4528198 34.4243369,13.462618 C34.3067583,13.462618 34.1695833,13.4430215 34.0128118,13.4234251 L33.7580583,12.6689626 C33.973619,12.688559 34.1695833,12.7081554 34.3263547,12.7081554 C34.5811083,12.7081554 34.7378797,12.6493662 34.796669,12.5415858 C34.8554583,12.4436036 34.884853,12.1986483 34.8946512,11.8067197 L33.424919,11.8067197 L33.424919,13.8153537 L32.5234832,13.8153537 L32.5234832,11.8067197 L30.2307009,11.8067197 L30.2307009,11.0228625 L32.5234832,11.0228625 L32.5234832,10.4349696 L30.7891992,10.4349696 L30.7891992,9.67070887 L32.5234832,9.67070887 L32.5234832,9.08281598 L30.367876,9.08281598 L30.367876,8.2989588 Z M37.1286441,6.56467479 L37.1286441,15.2850859 L36.2370066,15.2850859 L36.2370066,14.9127538 L29.8093777,14.9127538 L29.8093777,15.2850859 L28.9177402,15.2850859 L28.9177402,6.56467479 L37.1286441,6.56467479 Z M29.8093777,14.0897037 L36.2370066,14.0897037 L36.2370066,7.38772483 L29.8093777,7.38772483 L29.8093777,14.0897037 Z"></path>
                            <polygon id="Path-8" fill-rule="nonzero" points="44.219026 11.8037099 43.9204379 12.5636749 40.1891889 11.0976778 42.779088 7.98690269 43.4065938 8.50933731 41.5401311 10.7511798"></polygon>
                        </g>
                        <g id="臀围" transform="translate(0.458529, 102.697773)" fill="#E85C40">
                            <path d="M0.30262472,7.60296996 L1.11914262,7.60296996 C1.11914262,9.72516795 8.94050846,11.9491961 20.9799408,13.0689936 L20.9043222,13.8820024 C8.24006095,12.704089 0.30262472,10.4470559 0.30262472,7.60296996 Z M58.1174925,13.7660046 L58.0352973,12.9536344 C69.4216579,11.8015684 76.7075049,9.6443608 76.7075049,7.60296996 L77.5240228,7.60296996 C77.5240228,10.3582687 70.1141961,12.5521844 58.1174925,13.7660046 Z" id="Oval-7" fill-rule="nonzero"></path>
                            <path d="M77.5240228,7.53214317 L76.7075049,7.53214317 C76.7075049,6.97422286 76.0439061,6.32922455 74.6893224,5.68640876 L75.0393832,4.94873751 C76.6520402,5.71402157 77.5240228,6.56156279 77.5240228,7.53214317 Z M73.4586598,4.30606567 L73.1865672,5.07591443 C72.3011675,4.76298196 71.2651155,4.46200737 70.0904884,4.17632428 L70.2834501,3.38293455 C71.4833782,3.67477113 72.5454566,3.98330643 73.4586598,4.30606567 Z M68.6976744,3.02388825 L68.5290451,3.82280352 C67.5382353,3.61367046 66.4717406,3.4150402 65.3363482,3.22817703 L65.4689471,2.42249781 C66.6160401,2.61128668 67.6945021,2.81214579 68.6976744,3.02388825 Z M63.8280373,2.16754658 L63.7095794,2.97542602 C62.6789468,2.82430619 61.6016963,2.68262921 60.482611,2.55107401 L60.5779411,1.7401402 C61.70461,1.8725869 62.7895602,2.01527652 63.8280373,2.16754658 Z M58.9235255,1.55618104 L58.8382325,2.36823189 C57.7870543,2.25782241 56.7048605,2.15617994 55.5953159,2.06371333 L55.6631273,1.25001617 C56.7784387,1.34296335 57.866457,1.44515287 58.9235255,1.55618104 Z M54.0022037,1.11992779 L53.9424207,1.93425417 C52.8785154,1.8561485 51.7934292,1.78636453 50.6900957,1.72516107 L50.7353195,0.909896531 C51.8434753,0.971367486 52.9334139,1.04146351 54.0022037,1.11992779 Z M49.1765915,0.829702075 L49.1378688,1.64530126 C48.0659086,1.59440717 46.979509,1.55153624 45.8810904,1.51685682 L45.9068568,0.700745568 C47.009579,0.735560872 48.1002973,0.778602216 49.1765915,0.829702075 Z M44.2676145,0.655275286 L44.2480754,1.47155937 C43.1701871,1.44575845 42.0829909,1.42778562 40.988518,1.41774957 L40.996005,0.601265997 C42.09449,0.611338845 43.1857037,0.629378085 44.2676145,0.655275286 Z M39.3520099,0.592162107 L39.3504418,1.4086785 C39.13299,1.40833017 39.13299,1.40833017 38.915157,1.40825896 C37.9669279,1.40825895 37.0244625,1.41415376 36.0871667,1.42589455 L36.0769396,0.609440707 C37.0176465,0.597657186 37.963521,0.591741052 38.9151603,0.591741059 C39.1337773,0.591812527 39.1337773,0.591812527 39.3520099,0.592162107 Z M34.4416947,0.635933259 L34.4579384,1.45228956 C33.3617048,1.47410215 32.2749,1.50395947 31.1997307,1.54172694 L31.1710666,0.725712332 C32.2503855,0.687799099 33.3413305,0.657828035 34.4416947,0.635933259 Z M29.5363048,0.789588108 L29.5714333,1.60535 C28.4707931,1.65274592 27.3849986,1.70850458 26.3167037,1.77241806 L26.2679406,0.957357554 C27.3408026,0.893170829 28.4311416,0.837178802 29.5363048,0.789588108 Z M24.6321745,1.06249998 L24.6882207,1.87709209 C23.5816664,1.95322604 22.4974592,2.0382118 21.4388671,2.13172516 L21.3670178,1.31837459 C22.4309221,1.22439196 23.5203957,1.1389934 24.6321745,1.06249998 Z M19.7373456,1.47103181 L19.8179078,2.28356563 C18.7043232,2.39397683 17.6242849,2.51397072 16.5819413,2.64302708 L16.4816114,1.83269667 C17.5306347,1.70281327 18.6172573,1.58208785 19.7373456,1.47103181 Z M14.8554752,2.04553783 L14.9672959,2.85436266 C13.841401,3.01001852 12.7681503,3.17647569 11.7531363,3.3528335 L11.6133611,2.54836822 C12.6379019,2.37035516 13.7204516,2.20245574 14.8554752,2.04553783 Z M9.99837659,2.84680561 L10.1558847,3.64798766 C9.00633889,3.87398223 7.94988192,4.11308058 6.99508687,4.36340446 L6.78801428,3.57358017 C7.75997393,3.31875615 8.8328463,3.07594265 9.99837659,2.84680561 Z M5.19651521,4.0299376 L5.44174031,4.80876115 C4.21347377,5.1955006 3.22639895,5.60115912 2.50182084,6.0166272 L2.09566595,5.30829135 C2.87758686,4.85994331 3.91660218,4.43293877 5.19651521,4.0299376 Z M0.69671268,6.44785804 L1.34987882,6.937833 C1.19693587,7.14171517 1.1233253,7.33291774 1.1193179,7.51611459 L0.302995288,7.49825769 C0.310971903,7.13360926 0.446634508,6.78122731 0.69671268,6.44785804 Z" id="Oval-7-Copy" fill-rule="nonzero" opacity="0.5"></path>
                            <path d="M31.9317759,10.1181607 L32.4706777,10.1181607 L32.4706777,9.68703922 L31.7750044,9.68703922 L31.7750044,9.7360303 C31.7652062,10.8726232 31.5006544,11.8426465 30.9911472,12.6558983 L30.3346669,12.0680054 C30.7167972,11.4605161 30.9127615,10.6864571 30.9225597,9.7360303 L30.9225597,8.12912308 L35.0574064,8.12912308 L35.0574064,9.68703922 L34.4401188,9.68703922 L34.4401188,10.1181607 L35.0378099,10.1181607 L35.0378099,10.6570625 L34.4401188,10.6570625 L34.4401188,11.1567714 L35.1945814,11.1567714 L35.1945814,11.7152697 L34.3029438,11.7152697 C34.5968903,11.9014358 34.8418456,12.0876018 35.0574064,12.2737679 L34.5283028,12.8028715 C34.312742,12.5677144 34.0285938,12.3129608 33.6562617,12.0386108 L33.989401,11.7152697 L32.6960366,11.7152697 L33.0683688,12.048409 C32.7548259,12.3325572 32.4020902,12.5873108 32.0003634,12.8126697 L38.1242476,12.8126697 L38.1242476,16.016686 C38.1242476,16.5849824 37.7715119,16.8691306 37.0856368,16.8691306 L35.9686403,16.8691306 L35.772676,16.1244663 L36.8406815,16.1636592 C37.0758386,16.1636592 37.2032154,16.0460806 37.2032154,15.8207217 L37.2032154,15.7031431 L32.7450277,15.7031431 L32.7450277,16.9279199 L31.8239955,16.9279199 L31.8239955,12.9008537 C31.7456098,12.9400465 31.6672241,12.9792394 31.5986366,13.0184322 L31.1675151,12.4697322 C31.6672241,12.2541715 32.0885473,11.9994179 32.441283,11.7152697 L31.7456098,11.7152697 L31.7456098,11.1567714 L32.4706777,11.1567714 L32.4706777,10.6570625 L31.9317759,10.6570625 L31.9317759,10.1181607 Z M33.7836385,9.68703922 L33.1271581,9.68703922 L33.1271581,10.1181607 L33.7836385,10.1181607 L33.7836385,9.68703922 Z M33.1271581,11.1567714 L33.7836385,11.1567714 L33.7836385,10.6570625 L33.1271581,10.6570625 L33.1271581,11.1567714 Z M34.2049617,8.68762132 L31.7750044,8.68762132 L31.7750044,9.15793563 L34.2049617,9.15793563 L34.2049617,8.68762132 Z M35.635501,10.7452464 L35.361151,10.7452464 L35.361151,10.088766 L38.9277012,10.088766 L38.9277012,10.6570625 C38.6533512,11.0685875 38.3202119,11.411525 37.9478797,11.7054715 C38.3398083,11.8524447 38.780728,11.9798215 39.2902351,12.0778036 L38.9766923,12.8028715 C38.2712208,12.6363019 37.6735297,12.4305394 37.1934172,12.1757858 C36.7231029,12.4109429 36.1939993,12.597109 35.6061064,12.7146876 L35.2631689,12.0288125 C35.6942903,11.960225 36.0960171,11.8524447 36.4683493,11.7152697 C36.0960171,11.4213232 35.8216671,11.0979821 35.635501,10.7452464 Z M37.1934172,11.3625339 C37.4873636,11.1861661 37.7519154,10.9804036 37.9870726,10.7452464 L36.3899636,10.7452464 C36.6055243,10.9804036 36.8700761,11.1861661 37.1934172,11.3625339 Z M32.7450277,14.605743 L32.7450277,15.0760573 L37.2032154,15.0760573 L37.2032154,14.605743 L32.7450277,14.605743 Z M37.2032154,13.9884555 L37.2032154,13.5181412 L32.7450277,13.5181412 L32.7450277,13.9884555 L37.2032154,13.9884555 Z M35.772676,8.13892129 L38.3594047,8.13892129 L38.3594047,8.93257669 C38.3594047,9.05995348 38.4475887,9.12854098 38.6337548,9.12854098 L39.1726566,9.12854098 L39.1726566,9.79481959 L38.4083958,9.79481959 C37.8596958,9.79481959 37.595144,9.55966243 37.595144,9.08934812 L37.595144,8.79540168 L36.5761297,8.79540168 C36.5565332,9.01096241 36.4879457,9.21672492 36.3899636,9.42248742 C36.272385,9.62824993 36.0666225,9.84381066 35.7628778,10.0789678 L35.1357921,9.51067136 C35.3317564,9.37349635 35.4787296,9.21672492 35.5963082,9.05015526 C35.7138868,8.89338383 35.772676,8.58963917 35.772676,8.13892129 Z M42.0631299,9.93199459 L44.2187372,9.93199459 L44.2187372,9.30490885 L45.1201729,9.30490885 L45.1201729,9.93199459 L47.3443677,9.93199459 L47.3443677,10.7158518 L45.1201729,10.7158518 L45.1201729,11.3037447 L46.9230444,11.3037447 L46.9230444,12.0680054 L45.1201729,12.0680054 L45.1201729,12.6558983 L47.452148,12.6558983 C47.4227534,13.7141055 47.3345695,14.3803841 47.1973944,14.6547341 C47.040623,14.9388823 46.6780891,15.0858556 46.1195908,15.0956538 C46.0020122,15.0956538 45.8648372,15.0760573 45.7080658,15.0564609 L45.4533122,14.3019984 C45.6688729,14.3215948 45.8648372,14.3411912 46.0216087,14.3411912 C46.2763623,14.3411912 46.4331337,14.2824019 46.491923,14.1746216 C46.5507123,14.0766394 46.5801069,13.8316841 46.5899051,13.4397555 L45.1201729,13.4397555 L45.1201729,15.4483895 L44.2187372,15.4483895 L44.2187372,13.4397555 L41.9259549,13.4397555 L41.9259549,12.6558983 L44.2187372,12.6558983 L44.2187372,12.0680054 L42.4844532,12.0680054 L42.4844532,11.3037447 L44.2187372,11.3037447 L44.2187372,10.7158518 L42.0631299,10.7158518 L42.0631299,9.93199459 Z M48.8238981,8.19771058 L48.8238981,16.9181217 L47.9322606,16.9181217 L47.9322606,16.5457895 L41.5046317,16.5457895 L41.5046317,16.9181217 L40.6129941,16.9181217 L40.6129941,8.19771058 L48.8238981,8.19771058 Z M41.5046317,15.7227395 L47.9322606,15.7227395 L47.9322606,9.02076062 L41.5046317,9.02076062 L41.5046317,15.7227395 Z"></path>
                            <polygon id="Path-8" fill-rule="nonzero" points="61.029837 14.8168073 60.731249 15.5767722 57 14.1107752 59.589899 11 60.2174048 11.5224346 58.3509421 13.7642772"></polygon>
                        </g>
                        <g id="上胸围" transform="translate(8.200000, 27.732350)">
                            <path d="M0.754703084,6.17301758 C0.754703084,8.09309278 7.01984603,9.7615656 16.2268879,10.6070326 M46.7869184,10.2814022 C54.287363,9.37211033 59.1866117,7.87093861 59.1866117,6.17301758" id="Oval-7" stroke="#E85C40" stroke-width="0.741285"></path>
                            <path d="M59.5572542,6.17301758 L58.8159692,6.17301758 C58.8159692,5.69749802 58.1909497,5.13257639 56.9240273,4.57693955 L57.2217591,3.89807341 C58.7350794,4.56177351 59.5572542,5.30489323 59.5572542,6.17301758 Z M55.7719104,3.3537614 L55.5423074,4.0585918 C54.7290759,3.79367642 53.7814526,3.54130413 52.7124205,3.3048167 L52.872534,2.58103004 C53.9637718,2.82242974 54.9342609,3.08089168 55.7719104,3.3537614 Z M51.4297186,2.28518053 L51.2911945,3.01340751 C50.3852454,2.84107697 49.4131056,2.67975948 48.3821592,2.53072249 L48.4882192,1.79706405 C49.5297213,1.947627 50.5126486,2.11073456 51.4297186,2.28518053 Z M46.9936712,1.59473172 L46.9005477,2.33014416 C45.9594307,2.21097274 44.978837,2.10177951 43.9639413,2.00322194 L44.0355912,1.26540778 C45.0575409,1.36465036 46.0452857,1.4746399 46.9936712,1.59473172 Z M42.5294138,1.12902939 L42.467242,1.86770261 C41.5078638,1.78695483 40.5234637,1.71554523 39.5179631,1.65385043 L39.5633609,0.913956866 C40.5744064,0.975991881 41.5643963,1.04780697 42.5294138,1.12902939 Z M38.0512679,0.829287525 L38.0137155,1.56962074 C37.0432662,1.52039598 36.0570053,1.4801061 35.0580308,1.44897431 L35.0811208,0.708049004 C36.0848962,0.739330418 37.0759778,0.779817225 38.0512679,0.829287525 Z M33.5725766,0.668194221 L33.5564802,1.40930444 C32.5788999,1.38807213 31.5920064,1.37553167 30.5983174,1.37181521 L30.6010898,0.630535399 C31.5992153,0.634268452 32.5905502,0.646865342 33.5725766,0.668194221 Z M29.198732,0.631124163 L29.2021288,1.37240138 C28.2078059,1.37695765 27.2204472,1.39035429 26.2425896,1.41245672 L26.2258387,0.671361003 C27.2081528,0.649157846 28.1999631,0.635700806 29.198732,0.631124163 Z M24.7435829,0.711726273 L24.7672219,1.45263426 C23.7679379,1.48451687 22.7815522,1.52557177 21.8111822,1.57557261 L21.7730362,0.835269744 C22.7482624,0.785018675 23.7394836,0.743762516 24.7435829,0.711726273 Z M20.2876562,0.919526762 L20.3335354,1.65939063 C19.32793,1.72174866 18.34363,1.79383482 17.3845763,1.8752685 L17.3218591,1.13664139 C18.2865742,1.054727 19.2764853,0.982229902 20.2876562,0.919526762 Z M15.8378899,1.27201587 L15.9099859,2.00978657 C14.8947976,2.1089923 13.9141801,2.21885423 12.9733343,2.33870871 L12.8796589,1.60336636 C13.82781,1.48258125 14.8156137,1.37191423 15.8378899,1.27201587 Z M11.4063702,1.80383293 L11.512865,2.53742841 C10.4817364,2.68711548 9.5097807,2.84910574 8.60441392,3.0221219 L8.4652718,2.29401276 C9.38182425,2.11885901 10.3646278,1.95506078 11.4063702,1.80383293 Z M6.99458656,2.59751083 L7.15596366,3.32101679 C6.08560797,3.55975829 5.13864576,3.81448895 4.32824736,4.08178589 L4.09605075,3.37780564 C4.93135111,3.10229519 5.90160778,2.84129837 6.99458656,2.59751083 Z M2.67667377,3.91698468 L2.97718492,4.59462507 C1.74323541,5.14184096 1.13138193,5.6973308 1.12539178,6.16579092 L0.384167376,6.15631296 C0.395078576,5.30300219 1.20083752,4.57146935 2.67667377,3.91698468 Z" id="Oval-7-Copy" fill="#E85C40" fill-rule="nonzero" opacity="0.5"></path>
                            <path d="M19.9160114,6.00815191 L20.7877626,6.00815191 L20.7877626,8.68567333 L24.079068,8.68567333 L24.079068,9.50405197 L20.7877626,9.50405197 L20.7877626,13.0800108 L24.7640153,13.0800108 L24.7640153,13.8983895 L16.793719,13.8983895 L16.793719,13.0800108 L19.9160114,13.0800108 L19.9160114,6.00815191 Z M26.747694,9.20160769 L26.747694,10.5270253 L27.6639222,10.5270253 L27.6639222,9.20160769 L26.747694,9.20160769 Z M27.6639222,8.44549699 L27.6639222,7.07560231 L26.747694,7.07560231 L26.747694,8.44549699 L27.6639222,8.44549699 Z M26.7299031,11.283136 C26.6676352,12.4662268 26.4541451,13.444723 26.0983283,14.2186246 L25.5023352,13.676004 C25.795884,12.893207 25.9471062,11.89692 25.9560016,10.6782474 L25.9560016,6.31059619 L28.46451,6.31059619 L28.46451,8.54334661 C29.0693986,7.83171301 29.4785879,6.97775269 29.692078,5.98146565 L30.4926658,6.07041985 C30.4215024,6.38175955 30.3325482,6.68420383 30.2346986,6.96885727 L33.4904223,6.96885727 C33.4904223,10.2423718 33.4459452,12.2527368 33.356991,13.0088475 C33.2591414,13.7738536 32.8410567,14.1563566 32.0938414,14.1563566 C31.915933,14.1563566 31.6045933,14.1385658 31.1598223,14.1118795 L30.9730185,13.3824551 C31.3555215,13.4091414 31.6846521,13.4269322 31.9604101,13.4269322 C32.3073315,13.4269322 32.5119261,13.1867559 32.5741941,12.7152986 C32.6275666,12.2260505 32.6631483,10.5715024 32.6809391,7.75165423 L29.8966727,7.75165423 C29.6120192,8.30317027 29.2562024,8.79241837 28.8470131,9.21939853 L28.46451,8.72125501 L28.46451,13.3290826 C28.46451,13.8805986 28.2065429,14.1563566 27.6906085,14.1563566 L27.0501383,14.1563566 L26.8455436,13.3824551 C27.0590337,13.4091414 27.2636283,13.4269322 27.4415367,13.4269322 C27.5838635,13.4269322 27.6639222,13.2935009 27.6639222,13.0444291 L27.6639222,11.283136 L26.7299031,11.283136 Z M31.4622666,12.1370963 L31.4622666,11.5677894 L31.0619727,11.7723841 C30.9107505,11.4432535 30.7595284,11.1319138 30.6083063,10.838365 C30.3948162,11.2119726 30.1546398,11.5322077 29.9055681,11.8168612 L29.585333,11.5233123 L29.585333,12.1370963 L31.4622666,12.1370963 Z M29.585333,11.2475543 C29.8344047,10.9095283 30.0656856,10.562607 30.2613849,10.1889993 C29.9856269,9.70864663 29.7009734,9.27277105 29.41632,8.86358173 L29.9500452,8.62340539 C30.1635353,8.92584967 30.3681299,9.22829395 30.5638292,9.54852907 C30.7150513,9.16602601 30.8484826,8.77462753 30.9552276,8.36543821 L31.5245345,8.50776493 C31.3555215,9.13044433 31.1598223,9.69085579 30.9374368,10.1889993 C31.1242406,10.5181299 31.302149,10.8561558 31.4622666,11.2030772 L31.4622666,9.40620235 L32.1650048,9.40620235 L32.1650048,12.8042528 L28.8825948,12.8042528 L28.8825948,9.40620235 L29.585333,9.40620235 L29.585333,11.2475543 Z M36.1501529,7.88508553 L38.1071453,7.88508553 L38.1071453,7.31577865 L38.925524,7.31577865 L38.925524,7.88508553 L40.9447843,7.88508553 L40.9447843,8.59671913 L38.925524,8.59671913 L38.925524,9.13044433 L40.5622812,9.13044433 L40.5622812,9.82428709 L38.925524,9.82428709 L38.925524,10.3580123 L41.0426339,10.3580123 C41.0159477,11.3187177 40.9358889,11.9236062 40.811353,12.172678 C40.6690263,12.4306452 40.3398957,12.5640765 39.8328568,12.5729719 C39.7261118,12.5729719 39.6015759,12.555181 39.4592492,12.5373902 L39.2279682,11.8524429 C39.4236675,11.8702337 39.6015759,11.8880245 39.7439026,11.8880245 C39.9751835,11.8880245 40.1175102,11.834652 40.1708828,11.7368024 C40.2242553,11.6478482 40.2509415,11.4254627 40.259837,11.0696459 L38.925524,11.0696459 L38.925524,12.893207 L38.1071453,12.893207 L38.1071453,11.0696459 L36.025617,11.0696459 L36.025617,10.3580123 L38.1071453,10.3580123 L38.1071453,9.82428709 L36.532656,9.82428709 L36.532656,9.13044433 L38.1071453,9.13044433 L38.1071453,8.59671913 L36.1501529,8.59671913 L36.1501529,7.88508553 Z M42.2879927,6.31059619 L42.2879927,14.22752 L41.4785095,14.22752 L41.4785095,13.889494 L35.643114,13.889494 L35.643114,14.22752 L34.8336308,14.22752 L34.8336308,6.31059619 L42.2879927,6.31059619 Z M35.643114,13.1422788 L41.4785095,13.1422788 L41.4785095,7.05781147 L35.643114,7.05781147 L35.643114,13.1422788 Z" fill="#E85C40"></path>
                            <polygon id="Path-8" fill="#E85C40" fill-rule="nonzero" points="48.4188812 11.1051083 48.0331452 11.7381258 45.859762 10.4137518 47.2596235 8.25470657 47.8816119 8.65798555 46.8964636 10.1774071"></polygon>
                        </g>
                    </g>
                    <polygon id="Path-14" fill="#242424" fill-rule="nonzero" points="27.3225314 60.9569038 28.1255866 60.8110311 31.263534 78.3691808 30.4604789 78.5150536"></polygon>
                    <polygon id="Path-14-Copy" fill="#242424" fill-rule="nonzero" transform="translate(76.243120, 69.776012) scale(-1, 1) translate(-76.243120, -69.776012) " points="73.9860506 60.9552654 74.789694 60.8126694 78.5001898 78.5967595 77.6965463 78.7393555"></polygon>
                </g>
            </g>
        </g>
    </g>
</svg>