<?xml version="1.0" encoding="UTF-8"?>
<svg width="105px" height="351px" viewBox="0 0 105 351" version="1.1" xmlns="http://www.w3.org/2000/svg" xmlns:xlink="http://www.w3.org/1999/xlink">
    <!-- Generator: Sketch 49.2 (51160) - http://www.bohemiancoding.com/sketch -->
    <title>矩形</title>
    <desc>Created with Sketch.</desc>
    <defs></defs>
    <g id="Page-1" stroke="none" stroke-width="1" fill="none" fill-rule="evenodd">
        <g id="体型" transform="translate(-362.000000, -39.000000)">
            <g id="矩形" transform="translate(354.000000, 39.000000)">
                <g transform="translate(7.800000, 0.100000)">
                    <g id="人体线性图" transform="translate(0.000000, -0.000000)">
                        <path d="M104.266352,193.150035 C104.369752,191.949079 104.133462,190.171851 103.554554,187.501091 C103.205377,185.890179 101.551201,179.088462 101.550839,179.08693 C100.135048,173.097489 99.3035,168.53045 98.9532734,164.00747 C98.7958145,161.731262 98.7020047,160.263565 98.5086431,157.169982 C97.5172796,141.308775 96.9098413,135.265852 95.5499993,131.504456 C94.2093855,127.796247 93.0615267,122.889211 92.0993674,116.73355 C91.2733068,96.4971829 90.6419588,83.286864 90.2056464,77.1073491 C90.1321401,76.0662758 90.1021739,75.4220221 90.0262046,73.4940412 C89.8362284,68.6727424 89.5234482,66.8548273 88.2661017,65.1033298 C86.7071748,62.9317276 83.6645734,61.6045433 78.2235078,60.92662 C72.7898738,60.2496226 68.4873404,58.6637785 65.3271369,56.1651547 C64.7781404,55.7449807 64.2560571,55.2745258 63.771296,54.7695475 C61.3519099,52.3027687 59.8142129,49.1446797 59.1585631,45.3067827 L59.9634206,45.1692843 C60.5919243,48.8482793 62.0554094,51.8539535 64.3572736,54.2009417 C64.8170076,54.6798172 65.3082702,55.1224991 65.8284693,55.5206968 C68.8657533,57.922072 73.0290323,59.4565891 78.3244603,60.1163669 C83.9693196,60.8196816 87.2113067,62.2338381 88.9294035,64.6271657 C90.3161048,66.5588559 90.6455295,68.4735107 90.8420894,73.4618925 C90.9177079,75.3809731 90.9474458,76.0203182 91.0201366,77.049841 C91.4572219,83.2403021 92.0888039,96.4555188 92.9106208,116.653677 C93.8607673,122.715381 94.9973427,127.574181 96.3178766,131.226849 C97.7180111,135.099696 98.3242762,141.130947 99.3130605,156.95089 C99.5168395,160.211144 99.6105838,161.677817 99.7281799,163.406055 C100.113658,168.416753 100.938548,172.947226 102.345458,178.899096 C102.343583,178.891164 104.000806,185.705408 104.352541,187.328121 C104.948063,190.075531 105.192383,191.913158 105.079861,193.220076 C104.582523,198.996498 98.6750355,209.101276 95.3792382,207.991704 C94.6783928,207.473138 94.6362246,206.774023 94.9602664,205.775105 C95.0786554,205.410149 95.2418264,205.007159 95.4972283,204.430654 C95.5082728,204.405724 96.0319783,203.242159 96.1898392,202.877562 C97.3419119,200.216724 97.7963664,198.207428 97.4395011,196.09752 C97.3174995,196.926262 97.2232177,197.753601 97.2274824,197.716492 C97.0843227,198.962164 96.9855652,199.662612 96.8597439,200.198412 C96.7711297,200.575768 96.6770622,200.830285 96.5386612,200.993989 C96.2611246,201.322266 95.8786089,201.249718 95.6371165,200.932795 C93.8543642,199.576436 92.9969354,196.710506 92.7964797,192.867553 C92.7262425,191.521031 92.7440358,190.142487 92.8245214,188.802672 C92.8742583,187.97472 92.941981,187.269332 92.9859666,186.931701 C92.9867259,186.925874 93.3980501,185.196939 93.5868973,184.186237 C94.360818,180.044249 94.4606685,175.746699 93.4628773,171.454883 C92.2357763,166.176734 88.6291787,152.675263 82.6346017,130.907441 C80.0034437,111.848393 78.6697353,99.666906 78.6326981,94.3378178 C78.1561682,95.2515838 77.5027221,97.8434123 77.2716736,98.7267724 C77.2725372,117.232917 77.7292579,125.128827 78.6766324,130.784158 C78.9700698,132.535826 79.2631418,134.33928 79.6129062,136.597427 C80.1302403,139.937437 80.6247966,143.347035 81.0727511,146.733815 C82.2911306,155.94543 82.9954578,163.669862 82.9708791,169.021252 C82.9693734,169.349082 82.9642013,170.504644 82.9630642,170.752649 C82.9354351,176.778862 82.8912462,178.714066 82.6880151,181.093877 C82.4698922,183.648069 82.1737241,185.590883 80.9752733,192.632348 C80.2885678,196.667068 79.0688194,202.999737 77.162392,212.561874 C77.0759776,212.995213 77.0759776,212.995213 76.989527,213.428384 C76.8637899,214.058284 74.4019433,226.341236 73.8448682,229.159577 C72.9190224,233.843596 72.4400713,236.430952 72.4547009,236.67534 C72.4686179,236.907823 72.6069639,237.965122 72.8983852,240.087502 C72.8784722,239.942479 73.5962866,245.142592 73.8218146,246.798318 C74.7486601,253.636285 75.1902167,257.281716 75.196871,258.370922 C75.2124621,260.922905 75.0813129,263.640385 74.6179173,267.51628 C73.9298902,273.27102 72.6462249,279.93635 70.6194706,287.583605 C66.6508456,302.557837 61.7643877,326.145259 62.0060941,327.903898 C62.2627253,329.771129 62.629536,331.254202 63.0876907,331.974446 C63.4381818,332.525437 63.336505,332.930073 62.8262949,334.057896 C62.4310837,335.062492 62.4113086,335.368964 62.5327313,335.619176 C62.8094757,336.189456 63.0415243,336.654652 63.3528913,337.248521 C63.8102683,338.120875 64.2826566,338.9632 64.7639302,339.747317 C66.0311313,341.811911 67.1993475,343.205165 68.1062507,343.598231 C70.3963027,344.590776 71.7140709,346.613552 71.0685357,347.987845 C70.8266443,348.502812 70.4423707,348.841869 69.7668522,349.256762 C69.6990813,349.298386 69.4416574,349.453357 69.3819906,349.490017 C69.0134568,349.716453 68.8248402,349.868586 68.7279258,350.02603 L68.2486102,350.198474 C67.7243034,350.072655 67.4491036,350.046648 67.2028876,350.070882 C66.8892818,350.101749 66.6645647,350.209148 66.5296183,350.402809 L60.4997486,350.853304 L60.1074729,349.988134 C59.775476,350.543773 59.2175689,350.840396 58.459269,350.840396 C58.2857869,350.840396 58.1440324,350.844796 57.7978606,350.858822 C55.6604941,350.935553 54.742676,350.571847 54.6543031,349.070827 C54.6395208,348.819747 54.2203694,343.352032 54.0529541,340.986088 C53.9746738,339.879815 53.9029039,338.822634 53.8377736,337.810279 C53.5118781,332.744715 53.3719661,329.134885 53.4786224,327.402246 C53.7240251,323.415663 54.6535974,296.437066 54.6535974,293.720802 C54.6535974,293.17147 54.4044106,286.203836 54.4019368,286.129058 C54.3009469,283.076344 54.2288238,280.351614 54.18734,277.763947 C54.0753094,270.775747 54.2044884,265.751731 54.6600098,263.212002 C56.1129675,255.111133 56.274031,248.914087 54.6635964,241.772 C53.4070233,236.199246 53.2361747,215.812604 54.1391887,180.276665 L51.6453583,180.406638 C52.4612141,215.858236 52.2893427,236.205486 51.0341764,241.772 C49.4237418,248.914087 49.5848053,255.111133 51.037763,263.212002 C51.4932844,265.751731 51.6224633,270.775747 51.5104328,277.763947 C51.468949,280.351614 51.3968259,283.076344 51.295836,286.129058 C51.2933622,286.203836 51.0441754,293.17147 51.0441754,293.720802 C51.0441754,296.437066 51.9737477,323.415663 52.2191504,327.402246 C52.3258067,329.134885 52.1858947,332.744715 51.8599992,337.810279 C51.7948689,338.822634 51.723099,339.879815 51.6448187,340.986088 C51.4774034,343.352032 51.058252,348.819747 51.0434697,349.070827 C50.9550968,350.571847 50.0372787,350.935553 48.1426733,350.868239 C47.5537404,350.844796 47.4119859,350.840396 47.2385038,350.840396 C46.4802039,350.840396 45.9222968,350.543773 45.5902999,349.988134 L45.1980242,350.853304 L39.2829137,350.567499 C39.0332081,350.209148 38.808491,350.101749 38.4948852,350.070882 C38.2486692,350.046648 37.9734694,350.072655 37.7022247,350.131767 C37.6222945,350.149186 37.4351125,350.20645 37.1406788,350.303558 C36.8729326,349.868586 36.684316,349.716453 36.3157822,349.490017 C36.2561154,349.453357 35.9986915,349.298386 35.9309206,349.256762 C35.2554021,348.841869 34.8711285,348.502812 34.6292371,347.987845 C33.9837019,346.613552 35.3014701,344.590776 37.5915221,343.598231 C38.4984253,343.205165 39.6666415,341.811911 40.9338426,339.747317 C41.4151162,338.9632 41.8875045,338.120875 42.3448815,337.248521 C42.6562485,336.654652 42.8882971,336.189456 43.1650414,335.619176 C43.2864642,335.368964 43.2666891,335.062492 43.1106405,334.628209 C42.3612678,332.930073 42.259591,332.525437 42.6100821,331.974446 C43.0682368,331.254202 43.4350475,329.771129 43.6916787,327.903898 C43.9333851,326.145259 39.0469272,302.557837 35.0783022,287.583605 C33.0515479,279.93635 31.7678826,273.27102 31.0798555,267.51628 C30.6164599,263.640385 30.4853107,260.922905 30.5009017,258.370922 C30.5075561,257.281716 30.9491127,253.636285 31.7664584,247.604258 C32.1014862,245.142592 32.8193006,239.942479 32.7993876,240.087502 C33.0908089,237.965122 33.2291549,236.907823 33.2430719,236.67534 C33.2577015,236.430952 32.7787504,233.843596 31.8529046,229.159577 C31.2958295,226.341236 28.8339829,214.058284 28.7082458,213.428384 C28.6217952,212.995213 28.6217952,212.995213 28.5353808,212.561874 C26.6289534,202.999737 25.409205,196.667068 24.7224995,192.632348 C23.5240487,185.590883 23.2278806,183.648069 23.0097576,181.093877 C22.8065266,178.714066 22.7623376,176.778862 22.7347086,170.752649 C22.7335715,170.504644 22.7283994,169.349082 22.7268937,169.021252 C22.7021845,163.641438 23.3701999,156.206652 24.538077,147.452935 C25.3167522,141.616446 26.1656217,136.251327 27.0214866,131.296166 C27.9975035,125.645367 28.4252789,116.972221 28.4260993,98.7267726 C28.1950508,97.8434126 27.5416046,95.251584 27.0719902,93.44005 C27.0280375,99.666906 25.6943291,111.848393 23.0523374,130.960065 C17.0685941,152.675263 13.4619965,166.176734 12.2348955,171.454883 C11.2371043,175.746699 11.3369548,180.044249 12.1108755,184.186237 C12.2997227,185.196939 12.7110469,186.925874 12.7118062,186.931701 C12.7557918,187.269332 12.8235145,187.97472 12.8732514,188.802672 C12.953737,190.142487 12.9715303,191.521031 12.9012931,192.867553 C12.7008374,196.710506 11.8434086,199.576436 10.0606563,200.932795 C9.81916389,201.249718 9.43664818,201.322266 9.15911161,200.993989 C9.02071064,200.830285 8.92664307,200.575768 8.83802888,200.198412 C8.71220756,199.662612 8.61345006,198.962164 8.47029037,197.716492 C8.47455508,197.753601 8.38027325,196.926262 8.35442437,196.706189 C7.90140639,198.207428 8.35586094,200.216724 9.50793361,202.877562 C9.66579452,203.242159 10.1895,204.405724 10.2005445,204.430654 C10.4559463,205.007159 10.6191174,205.410149 10.7375064,205.775105 C11.0615482,206.774023 11.01938,207.473138 10.4397609,207.926388 C7.02273733,209.101276 1.11524984,198.996498 0.617912297,193.220076 C0.505389396,191.913158 0.749709676,190.075531 1.34523171,187.328121 C1.69696711,185.705408 3.35418994,178.891164 3.35231474,178.899096 C4.75922454,172.947226 5.5841146,168.416753 5.93041843,163.944433 C6.08718899,161.677817 6.18093331,160.211144 6.37420213,157.119045 C7.37349662,141.130947 7.97976167,135.099696 9.37989622,131.226849 C10.70043,127.574181 11.8370055,122.715381 12.782567,116.700247 C13.6089689,96.4555188 14.2405509,83.2403021 14.6776362,77.049841 C14.750327,76.0203182 14.7800649,75.3809731 14.8556834,73.4618925 C15.0522433,68.4735107 15.381668,66.5588559 16.7683693,64.6271657 C18.4864661,62.2338381 21.7284532,60.8196816 27.3733125,60.1163669 C32.6687405,59.4565891 36.8320195,57.922072 39.8743788,55.5167487 C40.3895026,55.1224991 40.8807652,54.6798172 41.3435388,54.1978091 C43.8054121,51.6877109 45.3095936,48.418061 45.8556247,44.3752001 L46.6647957,44.4844872 C46.0960367,48.6956275 44.51675,52.1285341 41.9295165,54.766415 C41.4417157,55.2745258 40.9196324,55.7449807 40.3757112,56.1612065 C37.2104324,58.6637785 32.907899,60.2496226 27.474265,60.92662 C22.0331994,61.6045433 18.990598,62.9317276 17.4316711,65.1033298 C16.1743246,66.8548273 15.8615444,68.6727424 15.6715682,73.4940412 C15.5955989,75.4220221 15.5656327,76.0662758 15.4921264,77.1073491 C15.055814,83.286864 14.424466,96.4971829 13.5938204,116.780119 C12.6362461,122.889211 11.4883873,127.796247 10.1477735,131.504456 C8.78793148,135.265852 8.18049316,141.308775 7.19963994,157.001825 C6.99576813,160.263565 6.90195831,161.731262 6.78422715,163.461486 C6.39427283,168.53045 5.56272503,173.097489 4.14693429,179.08693 C4.14657211,179.088462 2.49239607,185.890179 2.14321852,187.501091 C1.56431088,190.171851 1.32802084,191.949079 1.43142056,193.150035 C1.88495218,198.417665 7.41932819,207.920547 9.99561493,207.236624 C10.3726603,206.930809 10.2990384,206.75972 8.75863471,203.201989 C7.54929309,200.408882 7.06391527,198.262864 7.45318836,195.96135 C7.56737648,195.286232 7.6714313,194.838848 7.77662362,194.580021 C7.96781438,194.109594 8.45321337,193.905778 8.74596589,194.419145 C8.91157898,194.709562 9.01196178,195.304869 9.16536757,196.610939 C9.19141035,196.832663 9.28588241,197.661671 9.28146885,197.623267 C9.4207497,198.835188 9.51708546,199.518459 9.63292378,200.011748 C11.1362806,198.983446 11.9018472,196.353199 12.0858838,192.82502 C12.1543862,191.511756 12.1369769,190.162956 12.0582028,188.851634 C12.0096168,188.042841 11.9437026,187.356289 11.9021303,187.037184 C11.9079791,187.082079 11.5041361,185.38459 11.3082481,184.336207 C10.5152726,180.092238 10.4128992,175.686098 11.4395881,171.269984 C12.6702349,165.976583 16.2779747,152.470837 22.2543246,130.795778 C24.8802044,111.774963 26.2118812,99.6120303 26.2485765,94.3321432 C26.2611254,92.5265399 26.2694239,92.0173083 26.3026685,91.5906871 C26.3343903,91.1836063 26.3655764,91.0311643 26.5437511,90.8929117 C26.8071478,90.688532 27.0563459,90.8128509 27.197653,91.0168559 C27.5087898,91.7656664 28.9175042,97.3842283 29.2292123,98.5703934 C29.2426183,116.999501 28.8131649,125.720323 27.8260909,131.435139 C26.9718543,136.380872 26.1244951,141.736446 25.3474236,147.560914 C24.1841121,156.28041 23.5189061,163.683928 23.543403,169.017502 C23.544909,169.345394 23.5500811,170.500961 23.5512179,170.748906 C23.5787406,176.751929 23.6226424,178.674557 23.8233144,181.0244 C24.0387318,183.546911 24.3332545,185.478932 25.5274419,192.495348 C26.212391,196.519748 27.4312799,202.847954 29.336139,212.402225 C29.422534,212.835467 29.422534,212.835467 29.5089669,213.268548 C29.6345103,213.897479 32.0966007,226.181647 32.6539246,229.001247 C33.6448477,234.014503 34.0797083,236.363677 34.0581307,236.724131 C34.0422092,236.990099 33.9073571,238.020696 33.6083155,240.198575 C33.6281405,240.054192 32.9104153,245.253659 32.6850052,246.908519 C31.7675915,253.676882 31.3237247,257.341385 31.3174044,258.37591 C31.3020098,260.895736 31.4315442,263.579757 31.8905994,267.419349 C32.5740584,273.135879 33.8505038,279.763721 35.8675709,287.374425 C39.8795041,302.512065 44.7647041,326.093415 44.5005923,328.015075 C44.2279609,329.998722 43.8420474,331.559031 43.2990259,332.41269 C43.1701503,332.615289 43.2390015,332.889292 43.6154127,333.721352 C43.7419654,334.001097 43.8127654,334.167608 43.8790572,334.352098 C44.1022476,334.973237 44.1355588,335.489489 43.8996318,335.975657 C43.6195089,336.552899 43.3840524,337.024927 43.0680323,337.627671 C42.6026789,338.515237 42.1215415,339.373163 41.6297356,340.17444 C40.2744717,342.382511 39.0326703,343.863526 37.9162276,344.347409 C35.9963076,345.179533 34.9596651,346.77078 35.3682843,347.640698 C35.5240897,347.972395 35.8085295,348.223366 36.3582495,348.560995 C36.4218767,348.600074 36.6793814,348.755094 36.7432316,348.794325 C37.0735854,348.997301 37.3024399,349.162781 37.4732744,349.34634 C37.8761049,349.258191 38.232074,349.224551 38.5748649,349.258291 C39.030526,349.303139 39.4209837,349.464955 39.7047421,349.770411 L44.6834187,350.010969 L45.9147573,347.295233 L46.0679967,348.800352 C46.1556467,349.661252 46.5151342,350.023878 47.2385038,350.023878 C47.4269634,350.023878 47.5753779,350.028485 47.9329697,350.042974 C49.6711305,350.105511 50.1764091,349.905283 50.2283632,349.022837 C50.2436489,348.763208 50.6633758,343.287986 50.8303373,340.928454 C50.9085005,339.823837 50.9801538,338.768373 51.0451659,337.757857 C51.3685624,332.731134 51.507869,329.136926 51.4041751,327.452413 C51.1577977,323.449997 50.2276575,296.454917 50.2276575,293.720802 C50.2276575,293.154427 50.4784063,286.143119 50.4797646,286.102061 C50.5806133,283.053612 50.6526202,280.333273 50.6940198,277.750859 C50.8051307,270.820022 50.676667,265.823821 50.2340699,263.356151 C48.7634883,255.157021 48.5997328,248.856395 50.2376565,241.592396 C51.4768712,236.096625 51.6439823,215.556977 50.7310887,179.856431 L51.6765449,179.587386 L54.9779636,179.415324 C54.0537905,215.556977 54.2209016,236.096625 55.4601163,241.592396 C57.09804,248.856395 56.9342845,255.157021 55.4637029,263.356151 C55.0211058,265.823821 54.8926421,270.820022 55.003753,277.750859 C55.0451526,280.333273 55.1171595,283.053612 55.2180082,286.102061 C55.2193665,286.143119 55.4701153,293.154427 55.4701153,293.720802 C55.4701153,296.454917 54.5399751,323.449997 54.2935977,327.452413 C54.1899038,329.136926 54.3292104,332.731134 54.6526069,337.757857 C54.717619,338.768373 54.7892723,339.823837 54.8674355,340.928454 C55.034397,343.287986 55.4541238,348.763208 55.4694096,349.022837 C55.5213637,349.905283 56.0266423,350.105511 57.5261076,350.052236 C58.1223949,350.028485 58.2708094,350.023878 58.459269,350.023878 C59.1826386,350.023878 59.5421261,349.661252 59.6297761,348.800352 L59.7830155,347.295233 L61.0143541,350.010969 L65.9930307,349.770411 C66.276789,349.464955 66.6672468,349.303139 67.1229079,349.258291 C67.4656988,349.224551 67.8216679,349.258191 68.1694099,349.333974 C68.3953329,349.162781 68.6241874,348.997301 68.9545412,348.794325 C69.0183913,348.755094 69.2758961,348.600074 69.3395233,348.560995 C69.8892433,348.223366 70.1736831,347.972395 70.3294885,347.640698 C70.7381077,346.77078 69.7014652,345.179533 67.7815452,344.347409 C66.6651025,343.863526 65.4233011,342.382511 64.0680372,340.17444 C63.5762313,339.373163 63.0950939,338.515237 62.6297405,337.627671 C62.3137204,337.024927 62.0782639,336.552899 61.798141,335.975657 C61.562214,335.489489 61.5955252,334.973237 61.8187156,334.352098 C61.8850074,334.167608 61.9558074,334.001097 62.0823601,333.721352 C62.4587713,332.889292 62.5276225,332.615289 62.3987469,332.41269 C61.8557254,331.559031 61.4698119,329.998722 61.1971805,328.015075 C60.9330687,326.093415 65.8182687,302.512065 69.8302019,287.374425 C71.847269,279.763721 73.1237144,273.135879 73.8071734,267.419349 C74.2662286,263.579757 74.395763,260.895736 74.3803684,258.37591 C74.3740481,257.341385 73.9301813,253.676882 73.1221907,247.713895 C72.7873575,245.253659 72.0696323,240.054192 72.0894573,240.198575 C71.7904157,238.020696 71.6555636,236.990099 71.6396421,236.724131 C71.6180645,236.363677 72.0529251,234.014503 73.0438482,229.001247 C73.6011721,226.181647 76.0632625,213.897479 76.1888059,213.268548 C76.2752388,212.835467 76.2752388,212.835467 76.3616338,212.402225 C78.2664929,202.847954 79.4853818,196.519748 80.1703309,192.495348 C81.3645183,185.478932 81.659041,183.546911 81.8744584,181.0244 C82.0751304,178.674557 82.1190322,176.751929 82.1465549,170.748906 C82.1476917,170.500961 82.1528638,169.345394 82.1543698,169.017502 C82.178734,163.712818 81.4771227,156.018171 80.263283,146.84088 C79.8161776,143.46052 79.3224722,140.056788 78.80601,136.722407 C78.4568206,134.467972 78.1642619,132.667677 77.8713357,130.919061 C76.9141888,125.205394 76.4551545,117.259266 76.4551545,98.6741554 C76.7802686,97.3842283 78.188983,91.7656664 78.3637702,91.2983789 C78.6414269,90.8128509 78.890625,90.688532 79.1540217,90.8929117 C79.3321964,91.0311643 79.3633825,91.1836063 79.3951043,91.5906871 C79.4283489,92.0173083 79.4366474,92.5265399 79.4491963,94.3321432 C79.4858915,99.6120303 80.8175684,111.774963 83.4326145,130.743154 C89.4197981,152.470837 93.0275379,165.976583 94.2581847,171.269984 C95.2848736,175.686098 95.1825001,180.092238 94.3895247,184.336207 C94.1936367,185.38459 93.7897937,187.082079 93.7956425,187.037184 C93.7540702,187.356289 93.688156,188.042841 93.63957,188.851634 C93.5607959,190.162956 93.5433866,191.511756 93.611889,192.82502 C93.7959256,196.353199 94.5614922,198.983446 96.0181909,200.192812 C96.1806873,199.518459 96.2770231,198.835188 96.4163039,197.623267 C96.4118904,197.661671 96.5063625,196.832663 96.5324052,196.610939 C96.685811,195.304869 96.7861938,194.709562 96.9518069,194.419145 C97.2445594,193.905778 97.7299584,194.109594 97.9211492,194.580021 C98.0263415,194.838848 98.1303963,195.286232 98.2445844,195.96135 C98.6338575,198.262864 98.1484797,200.408882 96.9391381,203.201989 C95.3987344,206.75972 95.3251125,206.930809 95.7021579,207.236624 C98.2784446,207.920547 103.812821,198.417665 104.266352,193.150035 Z M96.2795372,200.427671 C96.2778251,200.424948 96.2752093,200.422146 96.271784,200.419331 L96.2795372,200.427671 Z M9.4182356,200.427671 L9.42598884,200.419331 C9.42256352,200.422146 9.41994771,200.424948 9.4182356,200.427671 Z M9.76952994,200.446271 C9.77444111,200.455435 9.77884247,200.462322 9.78265145,200.466827 C9.7813484,200.465286 9.7800318,200.463769 9.77870207,200.462277 L9.76952994,200.446271 Z M27.140747,91.4352171 C27.1423306,91.4305569 27.1433906,91.4261065 27.1443032,91.4216456 C27.1438266,91.4239753 27.1433504,91.4263792 27.1428746,91.4288572 L27.140747,91.4352171 Z M78.557393,91.4425586 C78.5560897,91.435029 78.554781,91.428056 78.5534696,91.4216456 C78.5539115,91.4238058 78.554388,91.4259635 78.5549418,91.4281437 L78.557393,91.4425586 Z M97.6502485,194.840835 C97.6542036,194.835123 97.6578232,194.829372 97.6611,194.823626 C97.6599626,194.825621 97.6588207,194.827708 97.6576743,194.829888 L97.6502485,194.840835 Z" id="Combined-Shape" fill="#242424" fill-rule="nonzero"></path>
                        <path d="M54.5211925,157.075373 C40.0164182,156.856945 29.8725208,154.934116 24.9159954,151.264188 L24.0630506,159.02154 C28.561718,159.728275 33.9557562,163.265809 39.5934299,168.657791 C43.8475154,172.726483 48.0617659,177.805721 49.2162767,179.961513 C50.486447,182.333273 51.635858,183.448047 52.9182737,183.448047 C54.3356364,183.448047 55.8816542,182.196077 57.0266258,180.058097 C58.2091824,177.849936 62.3143826,172.763785 66.4424203,168.709838 C71.9729938,163.278529 77.2832553,159.727155 81.777223,159.021023 L80.9998697,151.272528 C76.2436795,154.843032 67.4527765,156.750592 54.5211925,157.075373 Z M82.6688172,159.728512 L82.2716277,159.776498 C77.923372,160.301824 72.5896095,163.817395 67.014534,169.292408 C62.9405158,173.293305 58.8844228,178.318614 57.7464225,180.443576 C56.4737491,182.820011 54.6899155,184.264565 52.9182737,184.264565 C51.2405266,184.264565 49.8963022,182.960849 48.49648,180.346992 C47.3894302,178.279823 43.2262663,173.262157 39.0290657,169.247871 C33.3414247,163.808099 27.9184083,160.302456 23.5649196,159.776498 L23.1639286,159.728053 L24.2685069,149.682147 L24.8537702,150.175419 C29.3762464,153.987058 39.6086494,156.034194 54.5170795,156.259031 C67.8203981,155.924588 76.6511621,153.898299 81.0683257,150.175419 L81.6603616,149.676439 L82.6688172,159.728512 Z" id="Combined-Shape" fill="#3C3C3C" fill-rule="nonzero"></path>
                        <path d="M54.5211925,157.075373 C40.0164182,156.856945 29.8725208,154.934116 24.9159954,151.264188 L24.0630506,159.02154 C28.561718,159.728275 33.9557562,163.265809 39.5934299,168.657791 C43.8475154,172.726483 48.0617659,177.805721 49.2162767,179.961513 C50.486447,182.333273 51.635858,183.448047 52.9182737,183.448047 C54.3356364,183.448047 55.8816542,182.196077 57.0266258,180.058097 C58.2091824,177.849936 62.3143826,172.763785 66.4424203,168.709838 C71.9729938,163.278529 77.2832553,159.727155 81.777223,159.021023 L80.9998697,151.272528 C76.2436795,154.843032 67.4527765,156.750592 54.5211925,157.075373 Z" id="Path" fill="#F9E5CB"></path>
                        <path d="M31.9873999,77.3444233 C32.4541625,77.3444233 32.8730027,77.5443378 33.2406424,77.8674275 C33.3855533,77.9947783 33.5023486,78.1219002 33.589748,78.2322171 C40.6588802,79.8990175 45.6353263,83.8781939 48.8659911,89.3165482 C50.0033971,91.2312058 50.8389812,93.1936933 51.4197689,95.0982645 C51.6233506,95.7658679 51.7806365,96.3791627 51.8974246,96.924986 C51.9680908,97.2552528 52.0097814,97.4915702 52.0282573,97.6207745 L52.0475726,97.7558487 L51.9817896,97.8753925 C50.4848193,100.595749 45.9968245,103.207111 41.3257331,104.022362 C35.8342838,104.98079 31.0361052,103.425846 28.336934,99.0941063 C24.4288921,92.8223218 25.2341835,85.8033946 30.7063154,78.1099154 C31.0049058,77.6129235 31.44494,77.3444233 31.9873999,77.3444233 Z M51.0989794,97.0958269 C50.9869182,96.5720957 50.8353789,95.9812084 50.6387574,95.3364293 C50.0761073,93.4913364 49.2659176,91.5884913 48.1639974,89.7335689 C45.0191364,84.4396527 40.1757081,80.5861855 33.2582024,78.9933503 L33.0989262,78.9566751 L33.0089624,78.8202181 C32.9579086,78.7427795 32.8504357,78.6115258 32.7016353,78.4807568 C32.4698788,78.2770842 32.226548,78.1609412 31.9873999,78.1609412 C31.7396732,78.1609412 31.5574297,78.2736039 31.4003935,78.540228 C26.0780897,86.0189186 25.3098561,92.6921726 29.0299263,98.6622925 C31.5322131,102.678064 35.9941206,104.124033 41.1853474,103.218003 C45.5616305,102.454205 49.7668907,100.036093 51.1983082,97.6014328 C51.1773129,97.4800192 51.1448151,97.3100454 51.0989794,97.0958269 Z" id="Path-7" fill="#242424" fill-rule="nonzero"></path>
                        <path d="M51.0989794,97.0958269 C50.9869182,96.5720957 50.8353789,95.9812084 50.6387574,95.3364293 C50.0761073,93.4913364 49.2659176,91.5884913 48.1639974,89.7335689 C45.0191364,84.4396527 40.1757081,80.5861855 33.2582024,78.9933503 L33.0989262,78.9566751 L33.0089624,78.8202181 C32.9579086,78.7427795 32.8504357,78.6115258 32.7016353,78.4807568 C32.4698788,78.2770842 32.226548,78.1609412 31.9873999,78.1609412 C31.7396732,78.1609412 31.5574297,78.2736039 31.4003935,78.540228 C26.0780897,86.0189186 25.3098561,92.6921726 29.0299263,98.6622925 C31.5322131,102.678064 35.9941206,104.124033 41.1853474,103.218003 C45.5616305,102.454205 49.7668907,100.036093 51.1983082,97.6014328 C51.1773129,97.4800192 51.1448151,97.3100454 51.0989794,97.0958269 Z" id="Path" fill="#F9E5CB"></path>
                        <path d="M60.9873999,77.3444233 C61.4541625,77.3444233 61.8730027,77.5443378 62.2406424,77.8674275 C62.3855533,77.9947783 62.5023486,78.1219002 62.589748,78.2322171 C69.6588802,79.8990175 74.6353263,83.8781939 77.8659911,89.3165482 C79.0033971,91.2312058 79.8389812,93.1936933 80.4197689,95.0982645 C80.6233506,95.7658679 80.7806365,96.3791627 80.8974246,96.924986 C80.9680908,97.2552528 81.0097814,97.4915702 81.0282573,97.6207745 L81.0475726,97.7558487 L80.9817896,97.8753925 C79.4848193,100.595749 74.9968245,103.207111 70.3257331,104.022362 C64.8342838,104.98079 60.0361052,103.425846 57.336934,99.0941063 C53.4288921,92.8223218 54.2341835,85.8033946 59.7063154,78.1099154 C60.0049058,77.6129235 60.44494,77.3444233 60.9873999,77.3444233 Z M80.0989794,97.0958269 C79.9869182,96.5720957 79.8353789,95.9812084 79.6387574,95.3364293 C79.0761073,93.4913364 78.2659176,91.5884913 77.1639974,89.7335689 C74.0191364,84.4396527 69.1757081,80.5861855 62.2582024,78.9933503 L62.0989262,78.9566751 L62.0089624,78.8202181 C61.9579086,78.7427795 61.8504357,78.6115258 61.7016353,78.4807568 C61.4698788,78.2770842 61.226548,78.1609412 60.9873999,78.1609412 C60.7396732,78.1609412 60.5574297,78.2736039 60.4003935,78.540228 C55.0780897,86.0189186 54.3098561,92.6921726 58.0299263,98.6622925 C60.5322131,102.678064 64.9941206,104.124033 70.1853474,103.218003 C74.5616305,102.454205 78.7668907,100.036093 80.1983082,97.6014328 C80.1773129,97.4800192 80.1448151,97.3100454 80.0989794,97.0958269 Z" id="Path-7-Copy-4" fill="#242424" fill-rule="nonzero" transform="translate(67.975465, 90.819548) scale(-1, 1) translate(-67.975465, -90.819548) "></path>
                        <path d="M80.0989794,97.0958269 C79.9869182,96.5720957 79.8353789,95.9812084 79.6387574,95.3364293 C79.0761073,93.4913364 78.2659176,91.5884913 77.1639974,89.7335689 C74.0191364,84.4396527 69.1757081,80.5861855 62.2582024,78.9933503 L62.0989262,78.9566751 L62.0089624,78.8202181 C61.9579086,78.7427795 61.8504357,78.6115258 61.7016353,78.4807568 C61.4698788,78.2770842 61.226548,78.1609412 60.9873999,78.1609412 C60.7396732,78.1609412 60.5574297,78.2736039 60.4003935,78.540228 C55.0780897,86.0189186 54.3098561,92.6921726 58.0299263,98.6622925 C60.5322131,102.678064 64.9941206,104.124033 70.1853474,103.218003 C74.5616305,102.454205 78.7668907,100.036093 80.1983082,97.6014328 C80.1773129,97.4800192 80.1448151,97.3100454 80.0989794,97.0958269 Z" id="Path-Copy-3" fill="#F9E5CB" transform="translate(67.960198, 90.819586) scale(-1, 1) translate(-67.960198, -90.819586) "></path>
                        <path d="M51.0386601,98.2216944 L51.3105042,97.4517578 C52.7364551,97.9552231 53.8898264,97.9608563 55.5641357,97.4517578 L55.801672,98.2329607 C53.9663299,98.7910235 52.6352009,98.7853903 51.0386601,98.2216944 Z" id="Path-3" fill="#242424" fill-rule="nonzero"></path>
                        <path d="M46.0902375,45.0984502 C46.3119521,45.1394589 46.4584432,45.3524382 46.4174345,45.5741527 C46.3764257,45.7958673 46.1634465,45.9423583 45.9417319,45.9013496 C33.3820088,43.5782819 29.0722309,34.9276795 33.0677917,20.1602832 C37.3654944,7.15031281 44.2529266,0.591741052 53.7109455,0.591741052 C59.9503539,0.591741052 65.0489907,4.25963378 69.0888477,10.3497904 C70.4988998,12.4754691 71.6794369,14.7546035 72.6411693,17.0388261 C73.2252437,18.4260686 73.6366449,19.595891 73.8055092,20.1739222 C76.5165686,29.4596146 77.1796622,33.2447315 76.056571,37.22273 C74.572605,42.4789499 69.4788429,45.4954787 59.6368452,46.3153341 C59.4121482,46.3340517 59.2148217,46.1670725 59.1961041,45.9423756 C59.1773864,45.7176786 59.3443657,45.5203521 59.5690626,45.5016345 C69.1072838,44.7070842 73.895702,41.8713802 75.27077,37.0008782 C76.3342929,33.233871 75.6838133,29.5207578 73.0217326,20.4028233 C72.8613812,19.8539321 72.4602777,18.7133915 71.8886321,17.3556689 C70.9454479,15.1155003 69.7878661,12.8806832 68.4084215,10.8011457 C64.5048267,4.91640678 59.6282469,1.40825895 53.7109455,1.40825895 C44.6572254,1.40825895 38.0409919,7.70858116 33.84954,20.3949523 C29.9762956,34.712553 34.0402096,42.8696565 46.0902375,45.0984502 Z" id="Combined-Shape" fill="#242424" fill-rule="nonzero"></path>
                        <path d="M40.6990078,22.8910537 C40.4492851,26.2303909 40.6802666,29.7551104 41.2370465,33.4983408 C41.4076983,34.6456325 41.8527866,37.1752421 41.8722298,37.3609521 C42.0639426,39.192083 45.2444394,43.215667 48.2903546,45.5174676 C50.2041181,46.9637002 51.7361276,47.7697362 52.861429,47.9425778 C56.5737048,47.0020144 59.4261422,45.3556522 61.4308979,43.0058953 C63.329639,40.7803971 64.5561178,36.8038761 65.0828728,31.0829487 C63.8461322,29.6537247 62.0240822,28.4722176 56.9569351,25.548523 C53.3255481,23.453248 51.6290184,22.3877649 50.1206115,21.1386693 C49.4862797,20.6133859 48.9679421,20.1068854 48.5650148,19.610014 C46.5435366,17.1172202 45.7131505,14.1808049 46.0746121,10.8248701 C42.8025587,13.2168725 41.1108778,17.3834514 40.6990078,22.8910537 Z M47.0055183,10.0491443 C46.4172059,13.5612624 47.1481118,16.5664006 49.1992132,19.0957243 C49.5649175,19.5466941 50.0457453,20.0165413 50.6413847,20.509784 C52.1011554,21.7186045 53.7759826,22.7704577 57.365003,24.8412875 C62.6968086,27.9176875 64.4869582,29.0896278 65.8185772,30.6879464 L65.9265328,30.8175235 L65.9115609,30.985513 C65.3798954,36.9509991 64.1028228,41.1321752 62.0520605,43.5358561 C59.9163592,46.0390932 56.8889978,47.7776941 52.9823866,48.7541129 L52.830536,48.762861 C51.5264053,48.5925874 49.857805,47.7254381 47.7980704,46.168895 C44.5879623,43.7430138 41.2814874,39.5600573 41.0601505,37.4459739 C41.0442445,37.2940485 40.6037656,34.7906363 40.429414,33.6184706 C39.8644811,29.8204279 39.6298115,26.2394279 39.8847635,22.8301628 C40.3443125,16.6849874 42.363356,12.0823948 46.3907184,9.63288837 L47.1528972,9.169319 L47.0055183,10.0491443 Z" id="Path-2" fill="#242424" fill-rule="nonzero"></path>
                        <path d="M39.9922599,26.0465006 L40.2178977,26.8312229 C39.0039148,27.1802897 38.1515643,28.295644 38.1515643,29.5781264 C38.1515643,31.1564527 39.4310506,32.435939 41.0093769,32.435939 L41.0093769,33.2524569 C38.9801002,33.2524569 37.3350464,31.6074031 37.3350464,29.5781264 C37.3350464,27.9292005 38.4306604,26.4955206 39.9922599,26.0465006 Z" id="Oval-6" fill="#242424" fill-rule="nonzero"></path>
                    </g>
                    <g id="辅助图" transform="translate(17.000000, 55.000000)">
                        <g id="身高" transform="translate(0.000000, 0.000000)" fill="#E85C40">
                            <path d="M50.6241096,8.16517896 L50.6241096,7.34866106 L70.2205391,7.34866106 L70.2205391,2.44955369 L71.037057,2.44955369 L71.037057,13.8808042 L70.2205391,13.8808042 L70.2205391,8.16517896 L50.6241096,8.16517896 Z M25.3120548,8.16517896 L0.816517896,8.16517896 L0.816517896,13.0642863 L7.89480256e-15,13.0642863 L7.80538958e-15,2.44955369 L0.816517896,2.44955369 L0.816517896,7.34866106 L25.3120548,7.34866106 L25.3120548,8.16517896 Z" id="Combined-Shape"></path>
                            <path d="M35.6295749,3.52338005 L30.0151979,3.52338005 L30.0151979,4.46400866 L35.6295749,4.46400866 L35.6295749,3.52338005 Z M30.0151979,5.30665513 L30.0151979,6.0807141 C30.0053996,7.99136598 29.5938746,9.62766784 28.790421,10.9994179 L28.0947478,10.3723322 C28.7414299,9.26513389 29.064771,7.83459454 29.0745692,6.0807141 L29.0745692,2.65133894 L32.4451551,2.65133894 C32.347173,2.42598 32.2491908,2.22021749 32.1414105,2.02425319 L33.1506266,1.86748176 C33.2486087,2.10263891 33.3367927,2.36719071 33.4249766,2.65133894 L36.5310107,2.65133894 L36.5310107,5.30665513 L30.0151979,5.30665513 Z M31.5437194,8.09914634 L31.5437194,8.71643387 L35.3846195,8.71643387 L35.3846195,8.09914634 L31.5437194,8.09914634 Z M35.3846195,7.3446838 L35.3846195,6.72739627 L31.5437194,6.72739627 L31.5437194,7.3446838 L35.3846195,7.3446838 Z M31.5437194,9.4708964 L31.5437194,10.9504268 L30.6520818,10.9504268 L30.6520818,5.91414445 L36.2762571,5.91414445 L36.2762571,9.99020179 C36.2762571,10.6172875 35.952916,10.9406286 35.3258303,10.9406286 L34.2480266,10.9406286 L34.0324659,10.1175786 L35.0514802,10.1469732 C35.267041,10.1469732 35.3846195,10.0293946 35.3846195,9.8040357 L35.3846195,9.4708964 L31.5437194,9.4708964 Z M39.2157215,4.53259617 L38.4024697,4.53259617 L38.4024697,2.64154072 L41.9200288,2.64154072 C41.7828538,2.43577821 41.6456788,2.23981392 41.4889073,2.06344605 L42.5275181,1.88707818 C42.6646931,2.11243712 42.8018681,2.36719071 42.9292449,2.64154072 L46.4957951,2.64154072 L46.4957951,4.58158724 L45.7511308,4.58158724 L45.7511308,5.17927834 L44.3107932,5.17927834 L44.3107932,5.84555694 L43.4387521,5.84555694 L43.4387521,5.17927834 L41.4987055,5.17927834 L41.4987055,5.84555694 L40.6266644,5.84555694 L40.6266644,5.17927834 L39.2157215,5.17927834 L39.2157215,4.53259617 Z M45.5943593,4.33663187 L45.5943593,3.52338005 L39.3039054,3.52338005 L39.3039054,4.33663187 L40.6266644,4.33663187 L40.6266644,3.78793185 L41.4987055,3.78793185 L41.4987055,4.33663187 L43.4387521,4.33663187 L43.4387521,3.77813363 L44.3107932,3.77813363 L44.3107932,4.33663187 L45.5943593,4.33663187 Z M45.4179914,6.12970517 L45.4179914,9.28473032 L44.4969593,9.28473032 L44.4969593,6.99194807 L40.4209019,6.99194807 L40.4209019,9.28473032 L39.4998697,9.28473032 L39.4998697,6.12970517 L45.4179914,6.12970517 Z M41.8808359,7.36428023 L42.7724735,7.36428023 L42.7724735,8.05995348 L42.7430788,8.35389992 L43.5563306,8.35389992 L43.5563306,9.81383392 C43.5563306,9.97060536 43.6543128,10.0587893 43.8502771,10.0587893 L45.4375879,10.0587893 C45.5943593,10.0587893 45.7119379,10.0097982 45.7903236,9.9314125 C45.8883058,9.83343035 45.947095,9.52968569 45.9764897,9.02997674 L46.8191362,9.30432675 C46.7407504,10.0783857 46.6133736,10.5389018 46.4174094,10.6956732 C46.2410415,10.8328483 45.9764897,10.9014358 45.6041575,10.9014358 L43.5759271,10.9014358 C42.9586395,10.9014358 42.6548949,10.5976911 42.6548949,10 L42.6548949,8.69683744 C42.478527,9.21614282 42.1551859,9.64726427 41.6848716,9.98040357 C41.018593,10.4213232 39.9505876,10.7642608 38.4710572,11.0092161 L37.96155,10.2253589 C39.4508787,10.0097982 40.469893,9.74524642 41.0087948,9.41210711 C41.5378984,9.05937138 41.8220466,8.60865351 41.8808359,8.05995348 L41.8808359,7.36428023 Z" id="肩宽"></path>
                        </g>
                        <g id="内腿长" transform="translate(32.764547, 204.193310) rotate(-270.000000) translate(-32.764547, -204.193310) translate(-43.235453, 196.693310)" fill="#E85C40">
                            <path d="M92.2665223,8.4203494 L92.2665223,7.6038315 L150.585356,7.6038315 L150.585356,2.70472413 L151.401874,2.70472413 L151.401874,14.1359747 L150.585356,14.1359747 L150.585356,8.4203494 L92.2665223,8.4203494 Z M51.4406275,8.4203494 L0.816517896,8.4203494 L0.816517896,13.3194568 L-8.46439019e-14,13.3194568 L-8.45651661e-14,2.70472413 L0.816517896,2.70472413 L0.816517896,7.6038315 L51.4406275,7.6038315 L51.4406275,8.4203494 Z" id="Combined-Shape"></path>
                            <path d="M71.8427305,-6.1535732 C71.4312055,-5.13455886 70.7061376,-4.28211418 69.6577286,-3.57664272 L69.0306428,-4.33110526 C70.08885,-5.05617315 70.7845233,-5.94781069 71.1176626,-7.00601788 C71.2058465,-7.31956075 71.2842322,-7.66249827 71.3430215,-8.03483043 L68.8248803,-8.03483043 L68.8248803,-1.40143904 L67.8842517,-1.40143904 L67.8842517,-8.93626619 L71.4508019,-8.93626619 C71.4899947,-9.41637871 71.5193894,-9.92588588 71.5193894,-10.4647877 L72.4698162,-10.4647877 C72.4698162,-9.92588588 72.4502198,-9.41637871 72.4110269,-8.93626619 L75.8012092,-8.93626619 L75.8012092,-2.61641767 C75.8012092,-1.88155157 75.4582717,-1.50921941 74.7821949,-1.50921941 L73.2438752,-1.50921941 L72.9891216,-2.44004981 L74.468652,-2.39105873 C74.7234056,-2.39105873 74.8605806,-2.53803196 74.8605806,-2.82218018 L74.8605806,-8.03483043 L72.3130448,-8.03483043 C72.2542555,-7.69189292 72.1954662,-7.36855183 72.1268787,-7.07460539 C73.1067002,-6.17316963 73.9297502,-5.28153209 74.605827,-4.38989454 L73.8905574,-3.67462487 C73.3810502,-4.44868383 72.6951752,-5.27173387 71.8427305,-6.1535732 Z M73.5770145,5.11214279 L73.5770145,5.86660533 L75.1251324,5.86660533 L75.1251324,5.11214279 L73.5770145,5.11214279 Z M75.1251324,4.39687311 L75.1251324,3.66200701 L73.5770145,3.66200701 L73.5770145,4.39687311 L75.1251324,4.39687311 Z M74.4490556,6.90521609 C74.6254235,7.13057503 74.7919931,7.34613575 74.9487646,7.56169648 C75.2035181,7.38532861 75.4386753,7.15017146 75.6738324,6.85622502 L76.1931378,7.36573218 C75.9481825,7.67927505 75.6738324,7.93402864 75.3700878,8.12999293 C75.7620164,8.68849117 76.0951557,9.19799834 76.3597075,9.64871622 L75.6738324,10.1190305 C75.2231146,9.27638406 74.6156252,8.32595723 73.8513645,7.28734646 L74.4490556,6.90521609 Z M71.0980662,2.77036946 C71.636968,3.24068377 72.0876858,3.71099808 72.460018,4.18131239 L71.8525287,4.79859992 C71.5291876,4.34788204 71.0784697,3.8579713 70.4905768,3.33866592 L71.0980662,2.77036946 Z M74.694011,10.5991431 C75.2917021,10.5991431 75.8599985,10.5893448 76.3891021,10.5795466 L76.153945,11.4515877 L74.6254235,11.4515877 C74.3510735,11.4515877 74.0865217,11.4417895 73.8121716,11.4319913 C73.4104448,11.4221931 73.0479109,11.3634038 72.7245698,11.2458252 C72.4208251,11.1282466 72.1660716,10.9420806 71.9603091,10.6677306 C71.8427305,10.5305555 71.7349501,10.461968 71.6467662,10.461968 C71.4899947,10.461968 71.1862501,10.8440984 70.725734,11.6083592 L70.1966304,10.9126859 C70.1182447,11.3242109 69.8340965,11.5299735 69.3637821,11.5299735 L68.7954857,11.5299735 L68.579925,10.7363181 C68.766091,10.7559145 68.9424589,10.7657127 69.1090286,10.7657127 C69.3049929,10.7657127 69.402975,10.6579323 69.402975,10.4423716 L69.402975,8.24757151 L68.5505303,8.24757151 C68.491741,9.59972515 68.2957767,10.7069234 67.9528392,11.5789645 L67.2865606,10.9714752 C67.5805071,10.0896359 67.7372785,8.9726394 67.7470767,7.62048577 L67.7470767,2.77036946 L70.2162268,2.77036946 L70.2162268,10.7265198 C70.2162268,10.7853091 70.2064286,10.8343002 70.2064286,10.8734931 C70.6179536,10.2856002 70.9608911,9.89367159 71.2548376,9.69770729 L71.2548376,6.62106786 L70.451384,6.62106786 L70.451384,5.77842139 L72.1268787,5.77842139 L72.1268787,9.86427694 C72.3032466,10.0798377 72.5090091,10.2562055 72.7637627,10.3835823 C73.0185162,10.4913627 73.3320591,10.5599502 73.6847948,10.5795466 C74.0179341,10.5893448 74.3510735,10.5991431 74.694011,10.5991431 Z M68.5701267,5.90579818 L68.5701267,7.4441179 L69.402975,7.4441179 L69.402975,5.90579818 L68.5701267,5.90579818 Z M69.402975,5.10234458 L69.402975,3.55422664 L68.5701267,3.55422664 L68.5701267,5.10234458 L69.402975,5.10234458 Z M73.5770145,6.64066429 L73.5770145,9.1686037 C73.919952,9.08041976 74.2628895,8.9726394 74.5960288,8.84526261 L74.7919931,9.5703305 C74.2530913,9.78589123 73.5770145,9.99165374 72.7539644,10.187618 L72.5482019,9.41355907 C72.6853769,9.35476978 72.7637627,9.24698942 72.7637627,9.10981441 L72.7637627,2.89774626 L75.9383842,2.89774626 L75.9383842,6.64066429 L73.5770145,6.64066429 Z M67.2261383,19.2879286 L69.1367902,19.2879286 L69.1367902,15.613598 L70.0774188,15.613598 L70.0774188,19.2879286 L75.9171548,19.2879286 L75.9171548,20.1893643 L72.8013225,20.1893643 C73.2030493,21.6199037 74.2808529,22.7466984 76.0445316,23.5697484 L75.4958315,24.4515877 C73.5067939,23.4031788 72.3114117,21.9824376 71.8998867,20.1893643 L70.0774188,20.1893643 L70.0774188,23.4325734 C70.7534956,23.2562055 71.4295724,23.050443 72.1056492,22.8152859 L72.3408064,23.6971252 C71.3609849,24.0302645 70.3027777,24.3144127 69.175983,24.5691663 L68.8918348,23.7069234 C69.0486062,23.6187395 69.1367902,23.4815645 69.1367902,23.2856002 L69.1367902,20.1893643 L67.2261383,20.1893643 L67.2261383,19.2879286 Z M74.3102476,15.6625891 L74.9373333,16.2994731 C74.1534761,17.1813124 72.9874886,17.9651696 71.4197742,18.670641 L70.861276,17.9259767 C72.4093939,17.2596981 73.555785,16.5052356 74.3102476,15.6625891 Z" transform="translate(71.807620, 7.052189) rotate(-90.000000) translate(-71.807620, -7.052189) "></path>
                        </g>
                        <g id="腰围" transform="translate(10.341753, 74.119646)" fill="#E85C40">
                            <path d="M0.591741052,5.88674809 L1.40825895,5.88674809 C1.40825895,7.39536575 6.54201121,9.04343638 14.4473932,9.87355388 L14.3621223,10.685607 C5.8994072,9.79696588 0.591741052,8.09306428 0.591741052,5.88674809 Z M39.0553969,10.5986706 L38.9627297,9.78742821 C46.4369866,8.9336527 51.2158506,7.33623018 51.2158506,5.88674809 L52.0323685,5.88674809 C52.0323685,8.025338 47.0742184,9.68269014 39.0553969,10.5986706 Z" id="Oval-7" fill-rule="nonzero"></path>
                            <path d="M52.0323685,5.89910738 L51.2158506,5.89910738 C51.2158506,5.39515342 50.5089822,4.78684566 49.0911,4.20091471 L49.402943,3.44629204 C51.1018873,4.1483701 52.0323685,4.94911173 52.0323685,5.89910738 Z M47.7942334,2.87976235 L47.5568793,3.66102064 C46.6513488,3.38591137 45.6006835,3.12837073 44.4232249,2.89287593 L44.5833593,2.09221467 C45.7855187,2.33264971 46.8616236,2.59642615 47.7942334,2.87976235 Z M42.9868257,1.79914667 L42.8512321,2.60432729 C41.8448482,2.43485073 40.7699851,2.28093155 39.6371272,2.14421557 L39.7349567,1.33357948 C40.8801277,1.47178144 41.9675492,1.62749897 42.9868257,1.79914667 Z M38.0838881,1.15056846 L38.0015102,1.9629202 C36.956848,1.85698446 35.874129,1.76533193 34.760579,1.68875301 L34.8165987,0.874159083 C35.9388372,0.951335507 37.030338,1.04373142 38.0838881,1.15056846 Z M33.1496524,0.771980619 L33.1056367,1.58731128 C32.0411029,1.52984227 30.9552204,1.4859285 29.8533473,1.45597596 L29.8755347,0.639759568 C30.984651,0.669909005 32.0778094,0.714117025 33.1496524,0.771980619 Z M28.2063795,0.605212096 L28.1947248,1.42164681 C27.5740588,1.41278674 26.9498058,1.40830986 26.322813,1.40825938 C25.850839,1.40825895 25.3897195,1.41065404 24.9291203,1.415469 L24.9205852,0.598995713 C25.3840384,0.594150915 25.848003,0.591741053 26.3228463,0.591741486 C26.953733,0.591792276 27.5818492,0.596296861 28.2063795,0.605212096 Z M23.2807274,0.626402033 L23.2995234,1.44270356 C22.1988116,1.46804839 21.1128652,1.50726838 20.0468856,1.55998554 L20.0065547,0.744464304 C21.0797411,0.691390733 22.1728658,0.65191149 23.2807274,0.626402033 Z M18.3691787,0.836968756 L18.4210681,1.65183621 C17.3091134,1.72264361 16.2258861,1.80835994 15.1783501,1.90825373 L15.100838,1.09542327 C16.1570054,0.994706396 17.2487703,0.908314484 18.3691787,0.836968756 Z M13.4633424,1.2663047 L13.5555872,2.07759526 C12.4258394,2.20604908 11.3497435,2.35136751 10.337274,2.51205198 L10.2092899,1.70562681 C11.2339373,1.54300965 12.3219227,1.39608562 13.4633424,1.2663047 Z M8.58901324,1.98582608 L8.74008278,2.78824708 C7.57058958,3.00842426 6.51506187,3.24981471 5.59037112,3.5085478 L5.37035565,2.72223064 C6.31911744,2.45676236 7.39740815,2.2101662 8.58901324,1.98582608 Z M3.77962802,3.22929914 L4.06034396,3.99604554 C2.67243022,4.50417902 1.80055202,5.04900392 1.5099577,5.55555903 L0.801705797,5.14925777 C1.21425961,4.43010659 2.22515331,3.79841279 3.77962802,3.22929914 Z" id="Oval-7-Copy" fill-rule="nonzero" opacity="0.5"></path>
                            <path d="M18.1697383,9.69030529 L18.1697383,11.1404411 L19.0613759,11.1404411 L19.0613759,9.69030529 L18.1697383,9.69030529 Z M19.0613759,8.87705347 L19.0613759,7.39752304 L18.1697383,7.39752304 L18.1697383,8.87705347 L19.0613759,8.87705347 Z M18.1599401,11.9634911 C18.1011508,13.3058465 17.8855901,14.4130448 17.5132579,15.2752877 L16.7979883,14.6384037 C17.1115311,13.7859591 17.2683026,12.6983572 17.2781008,11.3755982 L17.2781008,6.53528014 L19.9236188,6.53528014 L19.9236188,14.2268787 C19.9236188,14.8833591 19.659067,15.2164984 19.1299634,15.2164984 L18.4538865,15.2164984 L18.2187294,14.3640537 C18.4440883,14.3836502 18.6498508,14.4032466 18.8458151,14.4032466 C18.9829901,14.4032466 19.0613759,14.2366769 19.0613759,13.9035376 L19.0613759,11.9634911 L18.1599401,11.9634911 Z M20.2175652,6.55487657 L25.773153,6.55487657 L25.773153,7.35833018 L24.08786,7.35833018 L24.08786,8.17158201 L25.4890047,8.17158201 L25.4890047,10.7779071 L23.2746082,10.7779071 C23.1766261,10.9934679 23.0884421,11.2090286 22.99046,11.4245893 L25.8907315,11.4245893 L25.8907315,12.2476393 L24.7149458,12.2476393 C24.5679726,12.8355322 24.313219,13.325443 23.9604832,13.736968 C24.5777708,13.9819234 25.1754619,14.2464752 25.7535565,14.5306234 L25.2440494,15.2752877 C24.7149458,14.9813413 24.0584654,14.6677984 23.2746082,14.3346591 C22.6475225,14.7265877 21.7166921,15.0499288 20.5017134,15.2948841 L20.1587759,14.4914305 C21.0210188,14.3444573 21.7166921,14.1582912 22.2457957,13.9231341 C21.8146742,13.7467662 21.3737545,13.5801966 20.9034402,13.4136269 C21.1777902,13.0119001 21.4227456,12.6199715 21.6383063,12.2476393 L20.207767,12.2476393 L20.207767,11.4245893 L22.0694278,11.4245893 L22.3633742,10.7779071 L20.5213099,10.7779071 L20.5213099,8.17158201 L21.8930599,8.17158201 L21.8930599,7.35833018 L20.2175652,7.35833018 L20.2175652,6.55487657 Z M23.3040028,8.17158201 L23.3040028,7.35833018 L22.6867153,7.35833018 L22.6867153,8.17158201 L23.3040028,8.17158201 Z M23.0982403,13.4038287 C23.4509761,13.0902858 23.7057297,12.6983572 23.8429047,12.2476393 L22.5593385,12.2476393 C22.3927689,12.5219894 22.216401,12.7865412 22.0400331,13.0412947 C22.3927689,13.1588733 22.7455046,13.2764519 23.0982403,13.4038287 Z M24.6463583,10.0234446 L24.6463583,8.92604454 L23.9800797,8.92604454 L23.9800797,10.0234446 L24.6463583,10.0234446 Z M23.3333975,10.0234446 L23.3333975,8.92604454 L22.6671189,8.92604454 L22.6671189,10.0234446 L23.3333975,10.0234446 Z M22.0302349,10.0234446 L22.0302349,8.92604454 L21.3443599,8.92604454 L21.3443599,10.0234446 L22.0302349,10.0234446 Z M28.555846,8.2989588 L30.7114532,8.2989588 L30.7114532,7.67187306 L31.612889,7.67187306 L31.612889,8.2989588 L33.8370837,8.2989588 L33.8370837,9.08281598 L31.612889,9.08281598 L31.612889,9.67070887 L33.4157605,9.67070887 L33.4157605,10.4349696 L31.612889,10.4349696 L31.612889,11.0228625 L33.9448641,11.0228625 C33.9154694,12.0810697 33.8272855,12.7473483 33.6901105,13.0216983 C33.533339,13.3058465 33.1708051,13.4528198 32.6123069,13.462618 C32.4947283,13.462618 32.3575533,13.4430215 32.2007818,13.4234251 L31.9460283,12.6689626 C32.161589,12.688559 32.3575533,12.7081554 32.5143247,12.7081554 C32.7690783,12.7081554 32.9258497,12.6493662 32.984639,12.5415858 C33.0434283,12.4436036 33.072823,12.1986483 33.0826212,11.8067197 L31.612889,11.8067197 L31.612889,13.8153537 L30.7114532,13.8153537 L30.7114532,11.8067197 L28.4186709,11.8067197 L28.4186709,11.0228625 L30.7114532,11.0228625 L30.7114532,10.4349696 L28.9771692,10.4349696 L28.9771692,9.67070887 L30.7114532,9.67070887 L30.7114532,9.08281598 L28.555846,9.08281598 L28.555846,8.2989588 Z M35.3166141,6.56467479 L35.3166141,15.2850859 L34.4249766,15.2850859 L34.4249766,14.9127538 L27.9973477,14.9127538 L27.9973477,15.2850859 L27.1057102,15.2850859 L27.1057102,6.56467479 L35.3166141,6.56467479 Z M27.9973477,14.0897037 L34.4249766,14.0897037 L34.4249766,7.38772483 L27.9973477,7.38772483 L27.9973477,14.0897037 Z"></path>
                            <polygon id="Path-8" fill-rule="nonzero" points="41.9141892 11.0877331 41.6156012 11.847698 37.8843521 10.381701 40.4742512 7.27092585 41.101757 7.79336048 39.2352943 10.035203"></polygon>
                        </g>
                        <g id="臀围" transform="translate(3.082589, 102.697773)" fill="#E85C40">
                            <path d="M0.591741052,7.60296996 L1.40825895,7.60296996 C1.40825895,9.73837396 8.22384421,11.9499525 18.7719633,13.0695194 L18.685783,13.8814765 C7.58577369,12.7033326 0.591741052,10.4338499 0.591741052,7.60296996 Z M51.3168782,13.7653841 L51.2232247,12.9542549 C61.1990155,11.8024437 67.5462085,9.65789886 67.5462085,7.60296996 L68.3627264,7.60296996 C68.3627264,10.3447307 61.8319331,12.5513091 51.3168782,13.7653841 Z" id="Oval-7" fill-rule="nonzero"></path>
                            <path d="M68.3627264,7.53214317 L67.5462085,7.53214317 C67.5462085,6.92780146 66.9093876,6.25329964 65.6126605,5.58438654 L65.9869892,4.85872855 C67.5276756,5.65348738 68.3627264,6.53794846 68.3627264,7.53214317 Z M64.4204492,4.17040708 L64.1304566,4.93369324 C63.2523653,4.60008313 62.2221469,4.28108014 61.0536922,3.98083943 L61.2568996,3.19001187 C62.4531863,3.49740415 63.5119769,3.82525443 64.4204492,4.17040708 Z M59.6735072,2.8128322 L59.4972504,3.61009943 C58.5075998,3.39131128 57.4428358,3.18552345 56.3108392,2.99429492 L56.4468468,2.18918412 C57.5919355,2.38262428 58.670073,2.59099683 59.6735072,2.8128322 Z M54.8068119,1.92917166 L54.6867488,2.73681411 C53.6551123,2.58345234 52.578324,2.441875 51.4619166,2.3128965 L51.5556256,1.50177376 C52.680688,1.63175218 53.7662522,1.77448338 54.8068119,1.92917166 Z M49.8954152,1.3221491 L49.8133016,2.13452761 C48.7596878,2.02803054 47.6770536,1.9325535 46.5696064,1.8485692 L46.6313505,1.03438916 C47.7455279,1.11888385 48.8349499,1.2149595 49.8954152,1.3221491 Z M44.9680523,0.918057161 L44.9157767,1.73289993 C43.8492516,1.66447783 42.7639471,1.60657541 41.6631958,1.55947772 L41.6981001,0.743706206 C42.8046147,0.791050485 43.8957092,0.849261819 44.9680523,0.918057161 Z M40.1378543,0.684506608 L40.1108038,1.5005763 C39.0358688,1.46494515 37.9492051,1.43952787 36.8535384,1.42449926 L36.864737,0.608058166 C37.965678,0.623159114 39.0576259,0.648699993 40.1378543,0.684506608 Z M35.2269049,0.593342812 L35.2234126,1.40985324 C34.9755335,1.40879303 34.7273076,1.40826113 34.478767,1.40825895 C33.6349395,1.40825895 32.7962207,1.41434268 31.9622162,1.4264581 L31.950356,0.610026342 C32.7883162,0.597853458 33.6309886,0.591741052 34.4787705,0.591741059 C34.7284765,0.591743242 34.977864,0.592277634 35.2269049,0.593342812 Z M30.3165689,0.641577305 L30.3362656,1.4578576 C29.2391829,1.48432994 28.153237,1.52131338 27.0813515,1.56859876 L27.0453665,0.752874199 C28.1226964,0.705348642 29.2140719,0.668180294 30.3165689,0.641577305 Z M25.4065988,0.833741866 L25.4511541,1.64904322 C24.3479547,1.70933181 23.2632938,1.78064918 22.2007961,1.86265138 L22.1379652,1.04855449 C23.2065924,0.966079221 24.2973445,0.894361353 25.4065988,0.833741866 Z M20.5032177,1.18465528 L20.5759783,1.99792484 C19.4658874,2.09724112 18.3852017,2.20839001 17.3385454,2.33079804 L17.2436988,1.51980753 C18.2977995,1.39652888 19.3858436,1.28462317 20.5032177,1.18465528 Z M15.6161687,1.72277116 L15.723614,2.53218884 C14.6026543,2.68098945 13.5291635,2.84296415 12.5093539,3.01710004 L12.3719199,2.2122315 C13.4019176,2.03635595 14.4853894,1.87287526 15.6161687,1.72277116 Z M10.7505225,2.50794628 L10.9065998,3.3094083 C9.76522863,3.53167971 8.70825297,3.76963815 7.74498445,4.02119573 L7.53867002,3.23117305 C8.51925165,2.97509415 9.59288916,2.73338461 10.7505225,2.50794628 Z M5.95431321,3.68269617 L6.19742373,4.46218238 C4.99836791,4.83615061 4.00364979,5.23181358 3.23327718,5.64120498 L2.85010796,4.92017598 C3.66993068,4.4845058 4.71028214,4.07069153 5.95431321,3.68269617 Z M1.38861592,5.92958569 L1.95407857,6.51861325 C1.58289861,6.8749436 1.40825895,7.21272151 1.40825895,7.53214317 L0.591741052,7.53214317 C0.591741052,6.96517204 0.869513544,6.4279206 1.38861592,5.92958569 Z" id="Oval-7-Copy" fill-rule="nonzero" opacity="0.5"></path>
                            <path d="M26.5896709,10.1181607 L27.1285727,10.1181607 L27.1285727,9.68703922 L26.4328994,9.68703922 L26.4328994,9.7360303 C26.4231012,10.8726232 26.1585494,11.8426465 25.6490422,12.6558983 L24.9925619,12.0680054 C25.3746922,11.4605161 25.5706565,10.6864571 25.5804547,9.7360303 L25.5804547,8.12912308 L29.7153014,8.12912308 L29.7153014,9.68703922 L29.0980138,9.68703922 L29.0980138,10.1181607 L29.6957049,10.1181607 L29.6957049,10.6570625 L29.0980138,10.6570625 L29.0980138,11.1567714 L29.8524764,11.1567714 L29.8524764,11.7152697 L28.9608388,11.7152697 C29.2547853,11.9014358 29.4997406,12.0876018 29.7153014,12.2737679 L29.1861978,12.8028715 C28.970637,12.5677144 28.6864888,12.3129608 28.3141567,12.0386108 L28.647296,11.7152697 L27.3539316,11.7152697 L27.7262638,12.048409 C27.4127209,12.3325572 27.0599852,12.5873108 26.6582584,12.8126697 L32.7821426,12.8126697 L32.7821426,16.016686 C32.7821426,16.5849824 32.4294069,16.8691306 31.7435318,16.8691306 L30.6265353,16.8691306 L30.430571,16.1244663 L31.4985765,16.1636592 C31.7337336,16.1636592 31.8611104,16.0460806 31.8611104,15.8207217 L31.8611104,15.7031431 L27.4029227,15.7031431 L27.4029227,16.9279199 L26.4818905,16.9279199 L26.4818905,12.9008537 C26.4035048,12.9400465 26.3251191,12.9792394 26.2565316,13.0184322 L25.8254101,12.4697322 C26.3251191,12.2541715 26.7464423,11.9994179 27.099178,11.7152697 L26.4035048,11.7152697 L26.4035048,11.1567714 L27.1285727,11.1567714 L27.1285727,10.6570625 L26.5896709,10.6570625 L26.5896709,10.1181607 Z M28.4415335,9.68703922 L27.7850531,9.68703922 L27.7850531,10.1181607 L28.4415335,10.1181607 L28.4415335,9.68703922 Z M27.7850531,11.1567714 L28.4415335,11.1567714 L28.4415335,10.6570625 L27.7850531,10.6570625 L27.7850531,11.1567714 Z M28.8628567,8.68762132 L26.4328994,8.68762132 L26.4328994,9.15793563 L28.8628567,9.15793563 L28.8628567,8.68762132 Z M30.293396,10.7452464 L30.019046,10.7452464 L30.019046,10.088766 L33.5855962,10.088766 L33.5855962,10.6570625 C33.3112462,11.0685875 32.9781069,11.411525 32.6057747,11.7054715 C32.9977033,11.8524447 33.438623,11.9798215 33.9481301,12.0778036 L33.6345873,12.8028715 C32.9291158,12.6363019 32.3314247,12.4305394 31.8513122,12.1757858 C31.3809979,12.4109429 30.8518943,12.597109 30.2640014,12.7146876 L29.9210639,12.0288125 C30.3521853,11.960225 30.7539121,11.8524447 31.1262443,11.7152697 C30.7539121,11.4213232 30.4795621,11.0979821 30.293396,10.7452464 Z M31.8513122,11.3625339 C32.1452586,11.1861661 32.4098104,10.9804036 32.6449676,10.7452464 L31.0478586,10.7452464 C31.2634193,10.9804036 31.5279711,11.1861661 31.8513122,11.3625339 Z M27.4029227,14.605743 L27.4029227,15.0760573 L31.8611104,15.0760573 L31.8611104,14.605743 L27.4029227,14.605743 Z M31.8611104,13.9884555 L31.8611104,13.5181412 L27.4029227,13.5181412 L27.4029227,13.9884555 L31.8611104,13.9884555 Z M30.430571,8.13892129 L33.0172997,8.13892129 L33.0172997,8.93257669 C33.0172997,9.05995348 33.1054837,9.12854098 33.2916498,9.12854098 L33.8305516,9.12854098 L33.8305516,9.79481959 L33.0662908,9.79481959 C32.5175908,9.79481959 32.253039,9.55966243 32.253039,9.08934812 L32.253039,8.79540168 L31.2340247,8.79540168 C31.2144282,9.01096241 31.1458407,9.21672492 31.0478586,9.42248742 C30.93028,9.62824993 30.7245175,9.84381066 30.4207728,10.0789678 L29.7936871,9.51067136 C29.9896514,9.37349635 30.1366246,9.21672492 30.2542032,9.05015526 C30.3717818,8.89338383 30.430571,8.58963917 30.430571,8.13892129 Z M36.7210249,9.93199459 L38.8766322,9.93199459 L38.8766322,9.30490885 L39.7780679,9.30490885 L39.7780679,9.93199459 L42.0022627,9.93199459 L42.0022627,10.7158518 L39.7780679,10.7158518 L39.7780679,11.3037447 L41.5809394,11.3037447 L41.5809394,12.0680054 L39.7780679,12.0680054 L39.7780679,12.6558983 L42.110043,12.6558983 C42.0806484,13.7141055 41.9924645,14.3803841 41.8552894,14.6547341 C41.698518,14.9388823 41.3359841,15.0858556 40.7774858,15.0956538 C40.6599072,15.0956538 40.5227322,15.0760573 40.3659608,15.0564609 L40.1112072,14.3019984 C40.3267679,14.3215948 40.5227322,14.3411912 40.6795037,14.3411912 C40.9342573,14.3411912 41.0910287,14.2824019 41.149818,14.1746216 C41.2086073,14.0766394 41.2380019,13.8316841 41.2478001,13.4397555 L39.7780679,13.4397555 L39.7780679,15.4483895 L38.8766322,15.4483895 L38.8766322,13.4397555 L36.5838499,13.4397555 L36.5838499,12.6558983 L38.8766322,12.6558983 L38.8766322,12.0680054 L37.1423482,12.0680054 L37.1423482,11.3037447 L38.8766322,11.3037447 L38.8766322,10.7158518 L36.7210249,10.7158518 L36.7210249,9.93199459 Z M43.4817931,8.19771058 L43.4817931,16.9181217 L42.5901556,16.9181217 L42.5901556,16.5457895 L36.1625267,16.5457895 L36.1625267,16.9181217 L35.2708891,16.9181217 L35.2708891,8.19771058 L43.4817931,8.19771058 Z M36.1625267,15.7227395 L42.5901556,15.7227395 L42.5901556,9.02076062 L36.1625267,9.02076062 L36.1625267,15.7227395 Z"></path>
                            <polygon id="Path-8" fill-rule="nonzero" points="54.1619576 14.3538047 53.8633696 15.1137696 50.1321206 13.6477726 52.7220196 10.5369974 53.3495254 11.0594321 51.4830627 13.3012746"></polygon>
                        </g>
                        <g id="上胸围" transform="translate(6.200000, 27.732350)">
                            <path d="M0.754703084,6.17301758 C0.754703084,8.09309278 7.01984603,9.7615656 16.2268879,10.6070326 M46.7869184,10.2814022 C54.287363,9.37211033 59.1866117,7.87093861 59.1866117,6.17301758" id="Oval-7" stroke="#E85C40" stroke-width="0.741285"></path>
                            <path d="M59.5572542,6.17301758 L58.8159692,6.17301758 C58.8159692,5.69749802 58.1909497,5.13257639 56.9240273,4.57693955 L57.2217591,3.89807341 C58.7350794,4.56177351 59.5572542,5.30489323 59.5572542,6.17301758 Z M55.7719104,3.3537614 L55.5423074,4.0585918 C54.7290759,3.79367642 53.7814526,3.54130413 52.7124205,3.3048167 L52.872534,2.58103004 C53.9637718,2.82242974 54.9342609,3.08089168 55.7719104,3.3537614 Z M51.4297186,2.28518053 L51.2911945,3.01340751 C50.3852454,2.84107697 49.4131056,2.67975948 48.3821592,2.53072249 L48.4882192,1.79706405 C49.5297213,1.947627 50.5126486,2.11073456 51.4297186,2.28518053 Z M46.9936712,1.59473172 L46.9005477,2.33014416 C45.9594307,2.21097274 44.978837,2.10177951 43.9639413,2.00322194 L44.0355912,1.26540778 C45.0575409,1.36465036 46.0452857,1.4746399 46.9936712,1.59473172 Z M42.5294138,1.12902939 L42.467242,1.86770261 C41.5078638,1.78695483 40.5234637,1.71554523 39.5179631,1.65385043 L39.5633609,0.913956866 C40.5744064,0.975991881 41.5643963,1.04780697 42.5294138,1.12902939 Z M38.0512679,0.829287525 L38.0137155,1.56962074 C37.0432662,1.52039598 36.0570053,1.4801061 35.0580308,1.44897431 L35.0811208,0.708049004 C36.0848962,0.739330418 37.0759778,0.779817225 38.0512679,0.829287525 Z M33.5725766,0.668194221 L33.5564802,1.40930444 C32.5788999,1.38807213 31.5920064,1.37553167 30.5983174,1.37181521 L30.6010898,0.630535399 C31.5992153,0.634268452 32.5905502,0.646865342 33.5725766,0.668194221 Z M29.198732,0.631124163 L29.2021288,1.37240138 C28.2078059,1.37695765 27.2204472,1.39035429 26.2425896,1.41245672 L26.2258387,0.671361003 C27.2081528,0.649157846 28.1999631,0.635700806 29.198732,0.631124163 Z M24.7435829,0.711726273 L24.7672219,1.45263426 C23.7679379,1.48451687 22.7815522,1.52557177 21.8111822,1.57557261 L21.7730362,0.835269744 C22.7482624,0.785018675 23.7394836,0.743762516 24.7435829,0.711726273 Z M20.2876562,0.919526762 L20.3335354,1.65939063 C19.32793,1.72174866 18.34363,1.79383482 17.3845763,1.8752685 L17.3218591,1.13664139 C18.2865742,1.054727 19.2764853,0.982229902 20.2876562,0.919526762 Z M15.8378899,1.27201587 L15.9099859,2.00978657 C14.8947976,2.1089923 13.9141801,2.21885423 12.9733343,2.33870871 L12.8796589,1.60336636 C13.82781,1.48258125 14.8156137,1.37191423 15.8378899,1.27201587 Z M11.4063702,1.80383293 L11.512865,2.53742841 C10.4817364,2.68711548 9.5097807,2.84910574 8.60441392,3.0221219 L8.4652718,2.29401276 C9.38182425,2.11885901 10.3646278,1.95506078 11.4063702,1.80383293 Z M6.99458656,2.59751083 L7.15596366,3.32101679 C6.08560797,3.55975829 5.13864576,3.81448895 4.32824736,4.08178589 L4.09605075,3.37780564 C4.93135111,3.10229519 5.90160778,2.84129837 6.99458656,2.59751083 Z M2.67667377,3.91698468 L2.97718492,4.59462507 C1.74323541,5.14184096 1.13138193,5.6973308 1.12539178,6.16579092 L0.384167376,6.15631296 C0.395078576,5.30300219 1.20083752,4.57146935 2.67667377,3.91698468 Z" id="Oval-7-Copy" fill="#E85C40" fill-rule="nonzero" opacity="0.5"></path>
                            <path d="M19.9160114,6.00815191 L20.7877626,6.00815191 L20.7877626,8.68567333 L24.079068,8.68567333 L24.079068,9.50405197 L20.7877626,9.50405197 L20.7877626,13.0800108 L24.7640153,13.0800108 L24.7640153,13.8983895 L16.793719,13.8983895 L16.793719,13.0800108 L19.9160114,13.0800108 L19.9160114,6.00815191 Z M26.747694,9.20160769 L26.747694,10.5270253 L27.6639222,10.5270253 L27.6639222,9.20160769 L26.747694,9.20160769 Z M27.6639222,8.44549699 L27.6639222,7.07560231 L26.747694,7.07560231 L26.747694,8.44549699 L27.6639222,8.44549699 Z M26.7299031,11.283136 C26.6676352,12.4662268 26.4541451,13.444723 26.0983283,14.2186246 L25.5023352,13.676004 C25.795884,12.893207 25.9471062,11.89692 25.9560016,10.6782474 L25.9560016,6.31059619 L28.46451,6.31059619 L28.46451,8.54334661 C29.0693986,7.83171301 29.4785879,6.97775269 29.692078,5.98146565 L30.4926658,6.07041985 C30.4215024,6.38175955 30.3325482,6.68420383 30.2346986,6.96885727 L33.4904223,6.96885727 C33.4904223,10.2423718 33.4459452,12.2527368 33.356991,13.0088475 C33.2591414,13.7738536 32.8410567,14.1563566 32.0938414,14.1563566 C31.915933,14.1563566 31.6045933,14.1385658 31.1598223,14.1118795 L30.9730185,13.3824551 C31.3555215,13.4091414 31.6846521,13.4269322 31.9604101,13.4269322 C32.3073315,13.4269322 32.5119261,13.1867559 32.5741941,12.7152986 C32.6275666,12.2260505 32.6631483,10.5715024 32.6809391,7.75165423 L29.8966727,7.75165423 C29.6120192,8.30317027 29.2562024,8.79241837 28.8470131,9.21939853 L28.46451,8.72125501 L28.46451,13.3290826 C28.46451,13.8805986 28.2065429,14.1563566 27.6906085,14.1563566 L27.0501383,14.1563566 L26.8455436,13.3824551 C27.0590337,13.4091414 27.2636283,13.4269322 27.4415367,13.4269322 C27.5838635,13.4269322 27.6639222,13.2935009 27.6639222,13.0444291 L27.6639222,11.283136 L26.7299031,11.283136 Z M31.4622666,12.1370963 L31.4622666,11.5677894 L31.0619727,11.7723841 C30.9107505,11.4432535 30.7595284,11.1319138 30.6083063,10.838365 C30.3948162,11.2119726 30.1546398,11.5322077 29.9055681,11.8168612 L29.585333,11.5233123 L29.585333,12.1370963 L31.4622666,12.1370963 Z M29.585333,11.2475543 C29.8344047,10.9095283 30.0656856,10.562607 30.2613849,10.1889993 C29.9856269,9.70864663 29.7009734,9.27277105 29.41632,8.86358173 L29.9500452,8.62340539 C30.1635353,8.92584967 30.3681299,9.22829395 30.5638292,9.54852907 C30.7150513,9.16602601 30.8484826,8.77462753 30.9552276,8.36543821 L31.5245345,8.50776493 C31.3555215,9.13044433 31.1598223,9.69085579 30.9374368,10.1889993 C31.1242406,10.5181299 31.302149,10.8561558 31.4622666,11.2030772 L31.4622666,9.40620235 L32.1650048,9.40620235 L32.1650048,12.8042528 L28.8825948,12.8042528 L28.8825948,9.40620235 L29.585333,9.40620235 L29.585333,11.2475543 Z M36.1501529,7.88508553 L38.1071453,7.88508553 L38.1071453,7.31577865 L38.925524,7.31577865 L38.925524,7.88508553 L40.9447843,7.88508553 L40.9447843,8.59671913 L38.925524,8.59671913 L38.925524,9.13044433 L40.5622812,9.13044433 L40.5622812,9.82428709 L38.925524,9.82428709 L38.925524,10.3580123 L41.0426339,10.3580123 C41.0159477,11.3187177 40.9358889,11.9236062 40.811353,12.172678 C40.6690263,12.4306452 40.3398957,12.5640765 39.8328568,12.5729719 C39.7261118,12.5729719 39.6015759,12.555181 39.4592492,12.5373902 L39.2279682,11.8524429 C39.4236675,11.8702337 39.6015759,11.8880245 39.7439026,11.8880245 C39.9751835,11.8880245 40.1175102,11.834652 40.1708828,11.7368024 C40.2242553,11.6478482 40.2509415,11.4254627 40.259837,11.0696459 L38.925524,11.0696459 L38.925524,12.893207 L38.1071453,12.893207 L38.1071453,11.0696459 L36.025617,11.0696459 L36.025617,10.3580123 L38.1071453,10.3580123 L38.1071453,9.82428709 L36.532656,9.82428709 L36.532656,9.13044433 L38.1071453,9.13044433 L38.1071453,8.59671913 L36.1501529,8.59671913 L36.1501529,7.88508553 Z M42.2879927,6.31059619 L42.2879927,14.22752 L41.4785095,14.22752 L41.4785095,13.889494 L35.643114,13.889494 L35.643114,14.22752 L34.8336308,14.22752 L34.8336308,6.31059619 L42.2879927,6.31059619 Z M35.643114,13.1422788 L41.4785095,13.1422788 L41.4785095,7.05781147 L35.643114,7.05781147 L35.643114,13.1422788 Z" fill="#E85C40"></path>
                            <polygon id="Path-8" fill="#E85C40" fill-rule="nonzero" points="48.4188812 11.1051083 48.0331452 11.7381258 45.859762 10.4137518 47.2596235 8.25470657 47.8816119 8.65798555 46.8964636 10.1774071"></polygon>
                        </g>
                    </g>
                    <polygon id="Path-14-Copy-2" fill="#242424" fill-rule="nonzero" points="28 60.1461977 28.802996 60 32.0200659 77.6255004 31.2170699 77.7716981"></polygon>
                    <polygon id="Path-14-Copy-3" fill="#242424" fill-rule="nonzero" transform="translate(76.010033, 68.885849) scale(-1, 1) translate(-76.010033, -68.885849) " points="74 60.1461977 74.802996 60 78.0200659 77.6255004 77.2170699 77.7716981"></polygon>
                </g>
            </g>
        </g>
    </g>
</svg>