<?xml version="1.0" encoding="UTF-8"?>
<svg width="106px" height="159px" viewBox="0 0 106 159" version="1.1" xmlns="http://www.w3.org/2000/svg" xmlns:xlink="http://www.w3.org/1999/xlink">
    <!-- Generator: Sketch 49.2 (51160) - http://www.bohemiancoding.com/sketch -->
    <title>配饰位@1x</title>
    <desc>Created with Sketch.</desc>
    <defs>
        <path d="M0,0 L106,0 L106,159 L0,159 L0,0 Z" id="path-1"></path>
        <mask id="mask-2" maskContentUnits="userSpaceOnUse" maskUnits="objectBoundingBox" x="0" y="0" width="106" height="159" fill="white">
            <use xlink:href="#path-1"></use>
        </mask>
    </defs>
    <g id="Page-1" stroke="none" stroke-width="1" fill="none" fill-rule="evenodd">
        <g id="3.2.1新衣箱-默认状态" transform="translate(-16.000000, -594.000000)">
            <g id="配饰" transform="translate(16.000000, 556.000000)">
                <g id="配饰位" transform="translate(0.000000, 38.000000)">
                    <g stroke-dasharray="3,2" fill="#FFFFFF" id="Rectangle" stroke="#DADADA">
                        <use mask="url(#mask-2)" stroke-dasharray="2,2" xlink:href="#path-1"></use>
                    </g>
                    <g id="Group-2" transform="translate(49.000000, 70.000000)"></g>
                    <g id="Group" transform="translate(29.000000, 57.000000)">
                        <path d="M4.16,31.676 L10.868,31.676 L10.868,32.48 L7.604,32.48 C7.484,33.02 7.352,33.524 7.184,33.992 L11.396,33.992 L11.396,34.82 L8.876,34.82 C9.5,35.792 10.46,36.56 11.756,37.112 L11.384,37.868 C9.788,37.088 8.66,36.068 8,34.82 L6.848,34.82 C6.728,35.06 6.608,35.276 6.488,35.492 C5.876,36.416 4.964,37.244 3.764,37.976 L3.224,37.292 C4.364,36.668 5.216,35.912 5.792,35.048 C5.84,34.964 5.888,34.892 5.936,34.82 L3.608,34.82 L3.608,33.992 L6.32,33.992 C6.512,33.512 6.644,33.008 6.74,32.48 L4.16,32.48 L4.16,31.676 Z M4.892,38.012 L5.612,38.36 C5.168,39.584 4.652,40.652 4.064,41.552 L3.356,41.048 C3.944,40.196 4.46,39.188 4.892,38.012 Z M1.604,31.376 C2.348,31.892 2.984,32.408 3.488,32.936 L2.9,33.524 C2.444,33.032 1.808,32.504 1.004,31.952 L1.604,31.376 Z M1.316,34.244 C2.084,34.832 2.72,35.42 3.236,36.008 L2.648,36.596 C2.18,36.044 1.544,35.444 0.727999996,34.82 L1.316,34.244 Z M2.408,37.556 L3.164,37.856 C2.684,39.368 2.144,40.796 1.568,42.14 L0.763999996,41.78 C1.388,40.412 1.94,38.996 2.408,37.556 Z M6.464,42.212 L5.348,42.212 L5.168,41.396 C5.516,41.432 5.852,41.456 6.164,41.456 C6.404,41.456 6.536,41.288 6.536,40.976 L6.536,36.584 L7.364,36.584 L7.364,41.18 C7.364,41.864 7.064,42.212 6.464,42.212 Z M10.172,37.724 C10.736,38.792 11.228,39.932 11.636,41.144 L10.868,41.48 C10.424,40.16 9.944,38.984 9.416,37.976 L10.172,37.724 Z M8.588,38.156 C9.092,39.212 9.524,40.34 9.896,41.54 L9.128,41.888 C8.744,40.568 8.324,39.416 7.856,38.408 L8.588,38.156 Z M23.332,32.984 L23.332,42.02 L22.492,42.02 L22.492,41.216 L20.236,41.216 L20.236,42.02 L19.408,42.02 L19.408,32.984 L23.332,32.984 Z M20.236,40.388 L22.492,40.388 L22.492,33.812 L20.236,33.812 L20.236,40.388 Z M14.992,31.232 L15.856,31.232 L15.856,33.656 L18.304,33.656 C18.304,37.4 18.244,39.716 18.124,40.604 C18.004,41.588 17.416,42.092 16.36,42.092 C16.18,42.092 15.88,42.068 15.448,42.044 L15.232,41.252 C15.616,41.276 15.952,41.3 16.24,41.3 C16.852,41.3 17.212,40.952 17.308,40.268 C17.38,39.644 17.428,37.712 17.452,34.496 L15.856,34.496 C15.808,38.036 15.016,40.616 13.48,42.248 L12.844,41.684 C14.236,40.184 14.956,37.784 14.992,34.496 L13.072,34.496 L13.072,33.656 L14.992,33.656 L14.992,31.232 Z M36.048,38.984 C35.964,40.232 35.832,41.036 35.64,41.408 C35.448,41.768 35.076,41.96 34.5,41.96 L32.124,41.96 C31.548,41.96 31.26,41.576 31.26,40.82 L31.26,35.732 L34.536,35.732 L34.536,32.528 L31.056,32.528 L31.056,31.712 L35.376,31.712 L35.376,36.572 L32.1,36.572 L32.1,40.508 C32.1,40.916 32.22,41.132 32.472,41.144 L34.356,41.144 C34.692,41.144 34.908,40.976 35.004,40.64 C35.1,40.316 35.16,39.668 35.196,38.708 L36.048,38.984 Z M25.2,31.7 L30.66,31.7 L30.66,32.516 L29.1,32.516 L29.1,33.908 L30.468,33.908 L30.468,42.152 L29.7,42.152 L29.7,41.504 L26.28,41.504 L26.28,42.152 L25.512,42.152 L25.512,33.908 L26.82,33.908 L26.82,32.516 L25.2,32.516 L25.2,31.7 Z M26.28,40.688 L29.7,40.688 L29.7,39.524 L26.28,39.524 L26.28,40.688 Z M26.988,34.7 L26.28,34.7 L26.28,38.732 L29.7,38.732 L29.7,37.688 L29.088,37.688 C28.584,37.688 28.332,37.412 28.332,36.86 L28.332,34.7 L27.576,34.7 L27.576,35.48 C27.552,36.764 27.288,37.7 26.784,38.3 L26.328,37.88 C26.76,37.376 26.976,36.584 26.988,35.48 L26.988,34.7 Z M27.564,33.908 L28.356,33.908 L28.356,32.516 L27.564,32.516 L27.564,33.908 Z M29.7,37.016 L29.7,34.7 L28.932,34.7 L28.932,36.704 C28.932,36.908 29.028,37.016 29.232,37.016 L29.7,37.016 Z M44.744,33.488 L43.424,33.488 C43.004,34.52 42.464,35.444 41.792,36.26 L41.276,35.576 C42.248,34.376 42.908,32.888 43.244,31.136 L44.084,31.244 C43.988,31.748 43.868,32.216 43.724,32.648 L48.152,32.648 L48.152,33.488 L45.584,33.488 L45.584,35.42 L47.816,35.42 L47.816,40.004 C47.816,40.652 47.492,40.976 46.844,40.976 L46.196,40.976 L45.98,40.196 L46.58,40.232 C46.844,40.232 46.988,40.088 46.988,39.812 L46.988,36.212 L45.584,36.212 L45.584,42.164 L44.744,42.164 L44.744,36.212 L43.316,36.212 L43.316,41.06 L42.488,41.06 L42.488,35.42 L44.744,35.42 L44.744,33.488 Z M38.984,34.028 C38.66,35.012 38.252,35.852 37.748,36.524 L37.196,35.84 C37.952,34.7 38.468,33.176 38.744,31.256 L39.584,31.4 C39.488,32.06 39.356,32.672 39.212,33.236 L41.552,33.236 L41.552,33.908 C41.228,34.64 40.868,35.264 40.46,35.768 L39.848,35.276 C40.136,34.916 40.388,34.508 40.628,34.028 L38.984,34.028 Z M38.912,35.6 L39.764,35.6 L39.764,40.82 C40.292,40.544 40.832,40.172 41.384,39.704 L41.54,40.508 C40.808,41.084 39.956,41.552 38.996,41.936 L38.648,41.204 C38.816,41.096 38.912,40.94 38.912,40.724 L38.912,35.6 Z" id="添加配饰" fill="#DFDFDF"></path>
                        <g id="Group-Copy" transform="translate(12.000000, 0.000000)">
                            <rect id="Rectangle-22" x="0" y="0" width="24" height="24"></rect>
                            <path d="M20.9023339,14.3305139 C20.9666702,13.8963427 21,13.4520637 21,13 C21,8.02943725 16.9705627,4 12,4 C7.02943725,4 3,8.02943725 3,13 C3,17.9705627 7.02943725,22 12,22 C12.8657387,22 13.7029271,21.8777618 14.4952473,21.6496034" id="Oval" stroke="#DFDFDF" stroke-linecap="round" stroke-linejoin="round"></path>
                            <path d="M12,2.65356508 L12.1676025,2.48596258 C12.8155526,1.83801247 13.8660873,1.83801247 14.5140374,2.48596258 C15.1619875,3.1339127 15.1619875,4.18444739 14.5140374,4.83239751 L12.7071068,6.63932814 C12.3165825,7.02985243 11.6834175,7.02985243 11.2928932,6.63932814 L9.48596258,4.83239751 C8.83801247,4.18444739 8.83801247,3.1339127 9.48596258,2.48596258 C10.1339127,1.83801247 11.1844474,1.83801247 11.8323975,2.48596258 L12,2.65356508 Z" id="Path-2-Copy" stroke="#DFDFDF" fill="#FFFFFF" fill-rule="nonzero" stroke-linecap="round" stroke-linejoin="round"></path>
                            <path d="M18,16 L18,21" id="Path-7" stroke="#DFDFDF" stroke-linecap="round" stroke-linejoin="round"></path>
                            <path d="M20.5,18.5 L15.5,18.5" id="Path-7-Copy" stroke="#DFDFDF" stroke-linecap="round" stroke-linejoin="round"></path>
                        </g>
                    </g>
                </g>
            </g>
        </g>
    </g>
</svg>