<?xml version="1.0" encoding="UTF-8"?>
<svg width="106px" height="159px" viewBox="0 0 106 159" version="1.1" xmlns="http://www.w3.org/2000/svg" xmlns:xlink="http://www.w3.org/1999/xlink">
    <!-- Generator: Sketch 49.2 (51160) - http://www.bohemiancoding.com/sketch -->
    <title>衣位@1x</title>
    <desc>Created with Sketch.</desc>
    <defs>
        <path d="M0,0 L106,0 L106,159 L0,159 L0,0 Z" id="path-1"></path>
        <mask id="mask-2" maskContentUnits="userSpaceOnUse" maskUnits="objectBoundingBox" x="0" y="0" width="106" height="159" fill="white">
            <use xlink:href="#path-1"></use>
        </mask>
    </defs>
    <g id="Page-1" stroke="none" stroke-width="1" fill="none" fill-rule="evenodd">
        <g id="3.2.1新衣箱-默认状态" transform="translate(-16.000000, -194.000000)">
            <g id="衣服" transform="translate(16.000000, 156.000000)">
                <g id="衣位" transform="translate(0.000000, 38.000000)">
                    <use id="Rectangle" stroke="#DADADA" mask="url(#mask-2)" fill="#FFFFFF" stroke-dasharray="2,2" xlink:href="#path-1"></use>
                    <g id="Group-2" transform="translate(29.000000, 57.000000)">
                        <g id="Group" transform="translate(12.000000, 0.000000)">
                            <rect id="Rectangle-22" x="0" y="0" width="24" height="24"></rect>
                            <path d="M13.5597242,20.2440094 C12.4402399,20.9603044 11.0064355,20.9603044 9.88695129,20.2440094 C8.70221501,19.4859633 7.28471314,19.1784164 5.8923521,19.3773252 L5.09026798,19.4919086 C5.00508971,19.5040769 4.91919198,19.5105258 4.83315167,19.511212 C3.76907685,19.5196983 2.89959429,18.6639747 2.89110802,17.5998999 C2.87994322,16.1999718 3.47567538,14.8638294 4.52447254,13.9364958 L7.6191069,11.2002578 C8.72652355,10.2210935 8.99591245,8.59970463 8.26462336,7.3150449 L7.52576663,6.01709105 C7.18372449,5.41622365 6.93735437,4.76574909 6.7955142,4.08905431 C6.67598769,3.51881411 7.028494,2.95605881 7.59373041,2.8147497 L9.519674,2.33326381 L10.463587,3.90645218 C10.5876529,4.11322871 10.7607108,4.28628654 10.9674873,4.41035246 C11.6632284,4.82779712 12.5656438,4.60219328 12.9830884,3.90645218 L13.9270015,2.33326381 L15.8417537,2.81195186 C16.412677,2.9546827 16.7679213,3.52402843 16.6451704,4.09957844 C16.4993405,4.78334082 16.2490915,5.44057061 15.9032203,6.04816459 L15.1760613,7.32556902 C14.4478255,8.60486506 14.7138651,10.2192339 15.8140876,11.1972094 C16.7075804,11.9914253 17.3777001,12.5870872 17.8244465,12.9841951 C17.9683347,13.1120958 18.1559017,13.2788219 18.3871473,13.4843736" id="Rectangle-2-Copy" stroke="#DFDFDF" stroke-linecap="round" stroke-linejoin="round"></path>
                            <path d="M18,16 L18,21" id="Path-7" stroke="#DFDFDF" stroke-linecap="round" stroke-linejoin="round"></path>
                            <path d="M20.5,18.5 L15.5,18.5" id="Path-7-Copy" stroke="#DFDFDF" stroke-linecap="round" stroke-linejoin="round"></path>
                        </g>
                        <path d="M4.16,31.676 L10.868,31.676 L10.868,32.48 L7.604,32.48 C7.484,33.02 7.352,33.524 7.184,33.992 L11.396,33.992 L11.396,34.82 L8.876,34.82 C9.5,35.792 10.46,36.56 11.756,37.112 L11.384,37.868 C9.788,37.088 8.66,36.068 8,34.82 L6.848,34.82 C6.728,35.06 6.608,35.276 6.488,35.492 C5.876,36.416 4.964,37.244 3.764,37.976 L3.224,37.292 C4.364,36.668 5.216,35.912 5.792,35.048 C5.84,34.964 5.888,34.892 5.936,34.82 L3.608,34.82 L3.608,33.992 L6.32,33.992 C6.512,33.512 6.644,33.008 6.74,32.48 L4.16,32.48 L4.16,31.676 Z M4.892,38.012 L5.612,38.36 C5.168,39.584 4.652,40.652 4.064,41.552 L3.356,41.048 C3.944,40.196 4.46,39.188 4.892,38.012 Z M1.604,31.376 C2.348,31.892 2.984,32.408 3.488,32.936 L2.9,33.524 C2.444,33.032 1.808,32.504 1.004,31.952 L1.604,31.376 Z M1.316,34.244 C2.084,34.832 2.72,35.42 3.236,36.008 L2.648,36.596 C2.18,36.044 1.544,35.444 0.727999996,34.82 L1.316,34.244 Z M2.408,37.556 L3.164,37.856 C2.684,39.368 2.144,40.796 1.568,42.14 L0.763999996,41.78 C1.388,40.412 1.94,38.996 2.408,37.556 Z M6.464,42.212 L5.348,42.212 L5.168,41.396 C5.516,41.432 5.852,41.456 6.164,41.456 C6.404,41.456 6.536,41.288 6.536,40.976 L6.536,36.584 L7.364,36.584 L7.364,41.18 C7.364,41.864 7.064,42.212 6.464,42.212 Z M10.172,37.724 C10.736,38.792 11.228,39.932 11.636,41.144 L10.868,41.48 C10.424,40.16 9.944,38.984 9.416,37.976 L10.172,37.724 Z M8.588,38.156 C9.092,39.212 9.524,40.34 9.896,41.54 L9.128,41.888 C8.744,40.568 8.324,39.416 7.856,38.408 L8.588,38.156 Z M23.332,32.984 L23.332,42.02 L22.492,42.02 L22.492,41.216 L20.236,41.216 L20.236,42.02 L19.408,42.02 L19.408,32.984 L23.332,32.984 Z M20.236,40.388 L22.492,40.388 L22.492,33.812 L20.236,33.812 L20.236,40.388 Z M14.992,31.232 L15.856,31.232 L15.856,33.656 L18.304,33.656 C18.304,37.4 18.244,39.716 18.124,40.604 C18.004,41.588 17.416,42.092 16.36,42.092 C16.18,42.092 15.88,42.068 15.448,42.044 L15.232,41.252 C15.616,41.276 15.952,41.3 16.24,41.3 C16.852,41.3 17.212,40.952 17.308,40.268 C17.38,39.644 17.428,37.712 17.452,34.496 L15.856,34.496 C15.808,38.036 15.016,40.616 13.48,42.248 L12.844,41.684 C14.236,40.184 14.956,37.784 14.992,34.496 L13.072,34.496 L13.072,33.656 L14.992,33.656 L14.992,31.232 Z M30.612,33.872 L30.516,33.872 C30.036,34.94 29.388,35.912 28.584,36.788 L28.584,40.976 C29.676,40.676 30.696,40.316 31.632,39.908 L31.788,40.76 C30.612,41.228 29.196,41.672 27.552,42.104 L27.348,41.276 C27.588,41.18 27.72,41.036 27.72,40.82 L27.72,37.628 C27.096,38.18 26.4,38.684 25.644,39.14 L25.188,38.396 C27.24,37.22 28.716,35.72 29.616,33.872 L25.464,33.872 L25.464,33.044 L30.252,33.044 C30.012,32.42 29.76,31.856 29.472,31.34 L30.396,31.196 C30.66,31.736 30.9,32.348 31.14,33.044 L35.736,33.044 L35.736,33.872 L31.452,33.872 C31.644,35.048 31.968,36.128 32.448,37.088 C33.252,36.644 34.008,35.972 34.728,35.06 L35.34,35.684 C34.596,36.596 33.768,37.304 32.832,37.784 C33.6,39.092 34.656,40.196 35.976,41.096 L35.436,41.984 C32.748,40.04 31.14,37.328 30.612,33.872 Z M38.984,35.3 L38.984,37.304 L40.916,37.304 L40.916,35.3 L38.984,35.3 Z M40.916,34.52 L40.916,32.492 L38.984,32.492 L38.984,34.52 L40.916,34.52 Z M38.972,38.084 C38.9,39.764 38.612,41.144 38.12,42.224 L37.472,41.624 C37.952,40.544 38.192,39.152 38.204,37.472 L38.204,31.712 L41.708,31.712 L41.708,41.072 C41.708,41.792 41.372,42.164 40.7,42.164 L39.74,42.164 L39.536,41.396 C39.872,41.42 40.172,41.444 40.46,41.444 C40.76,41.444 40.916,41.228 40.916,40.796 L40.916,38.084 L38.972,38.084 Z M43.532,36.896 L43.532,42.212 L42.716,42.212 L42.716,31.7 L47.576,31.7 C47.576,33.188 47.504,34.172 47.36,34.652 C47.216,35.144 46.772,35.396 46.016,35.396 L45.044,35.396 L44.816,34.652 C45.02,34.652 45.284,34.664 45.62,34.664 C45.908,34.664 46.112,34.64 46.256,34.604 C46.4,34.556 46.508,34.436 46.58,34.256 C46.664,33.992 46.712,33.404 46.736,32.492 L43.532,32.492 L43.532,36.128 L47.612,36.128 L47.612,36.86 C47.384,38.096 46.988,39.152 46.436,40.016 C46.976,40.544 47.612,41.012 48.344,41.432 L47.912,42.164 C47.144,41.72 46.496,41.228 45.944,40.688 C45.416,41.3 44.804,41.792 44.084,42.176 L43.628,41.48 C44.312,41.108 44.888,40.64 45.368,40.064 C44.6,39.128 44.084,38.072 43.82,36.896 L43.532,36.896 Z M44.564,36.896 C44.816,37.82 45.248,38.648 45.86,39.392 C46.304,38.672 46.628,37.844 46.844,36.896 L44.564,36.896 Z" id="添加衣服" fill="#DFDFDF"></path>
                    </g>
                </g>
            </g>
        </g>
    </g>
</svg>