<?xml version="1.0" encoding="UTF-8"?>
<svg width="48px" height="16px" viewBox="0 0 48 16" version="1.1" xmlns="http://www.w3.org/2000/svg" xmlns:xlink="http://www.w3.org/1999/xlink">
    <!-- Generator: Sketch 49.2 (51160) - http://www.bohemiancoding.com/sketch -->
    <title>已购买 copy</title>
    <desc>Created with Sketch.</desc>
    <defs></defs>
    <g id="Page-1" stroke="none" stroke-width="1" fill="none" fill-rule="evenodd">
        <g id="A06.待付款" transform="translate(-226.000000, -292.000000)">
            <g id="待付款衣服" transform="translate(15.000000, 183.000000)">
                <g id="1-copy" transform="translate(192.000000, 52.000000)">
                    <g id="Group-4">
                        <g id="已购买-copy" transform="translate(19.000000, 57.000000)">
                            <polygon id="Rectangle-14" fill="#000000" opacity="0.347429801" points="0 0 44.0655738 0 48 15.84 3.93442623 15.84"></polygon>
                            <polygon id="Rectangle-14-Copy" fill="#000000" opacity="0.347429801" points="44.0655738 15.84 0 15.84 3.93442623 -3.55271368e-15 48 1.56319402e-15"></polygon>
                            <path d="M17.8214516,7.724 L12.1694516,7.724 L12.1694516,10.379 C12.1694516,10.775 12.3764516,10.982 12.7904516,10.982 L17.3084516,10.982 C17.5244516,10.982 17.7044516,10.928 17.8394516,10.82 C18.0194516,10.658 18.1364516,10.082 18.1904516,9.092 L18.8204516,9.29 C18.7304516,10.406 18.5774516,11.072 18.3614516,11.306 C18.1634516,11.495 17.8664516,11.594 17.4884516,11.612 L12.6104516,11.612 C11.8814516,11.612 11.5214516,11.234 11.5214516,10.496 L11.5214516,5.771 L12.1694516,5.771 L12.1694516,7.103 L17.1644516,7.103 L17.1644516,4.754 L11.1614516,4.754 L11.1614516,4.124 L17.8214516,4.124 L17.8214516,7.724 Z M23.0594516,4.007 L23.0594516,9.659 L22.4834516,9.659 L22.4834516,4.61 L20.6204516,4.61 L20.6204516,9.659 L20.0354516,9.659 L20.0354516,4.007 L23.0594516,4.007 Z M24.3374516,3.62 L24.9674516,3.701 C24.8774516,4.133 24.7694516,4.547 24.6434516,4.934 L27.6224516,4.934 C27.6224516,8.066 27.5684516,9.983 27.4784516,10.703 C27.3884516,11.441 26.9744516,11.81 26.2544516,11.81 C26.0114516,11.81 25.5884516,11.801 24.9944516,11.783 L24.8414516,11.198 C25.3454516,11.216 25.7774516,11.234 26.1554516,11.234 C26.5514516,11.234 26.7854516,11 26.8574516,10.532 C26.9294516,10.001 26.9744516,8.345 26.9924516,5.564 L24.3914516,5.564 C24.1484516,6.104 23.8514516,6.599 23.4914516,7.04 L23.0954516,6.527 C23.7074516,5.735 24.1214516,4.772 24.3374516,3.62 Z M25.7234516,7.607 C26.0294516,8.327 26.3084516,9.11 26.5784516,9.956 L26.0474516,10.226 C25.9754516,9.992 25.9124516,9.776 25.8494516,9.578 C25.1474516,9.74 24.3824516,9.857 23.5454516,9.947 L23.4374516,9.389 C23.7794516,9.119 24.2114516,8.111 24.7244516,6.365 L25.3094516,6.554 C24.9224516,7.724 24.5444516,8.651 24.1754516,9.335 C24.7064516,9.263 25.2104516,9.173 25.6784516,9.056 C25.5344516,8.624 25.3814516,8.219 25.2284516,7.85 L25.7234516,7.607 Z M21.2774516,5.267 L21.8174516,5.267 L21.8174516,8.219 C21.7994516,9.218 21.6554516,10.01 21.3764516,10.604 C21.1064516,11.162 20.6654516,11.594 20.0534516,11.909 L19.7114516,11.369 C20.2874516,11.072 20.6924516,10.685 20.9264516,10.199 C21.1424516,9.695 21.2594516,9.029 21.2774516,8.219 L21.2774516,5.267 Z M22.1864516,9.929 C22.6904516,10.415 23.1134516,10.901 23.4554516,11.387 L22.9874516,11.846 C22.6994516,11.378 22.2944516,10.874 21.7724516,10.334 L22.1864516,9.929 Z M29.6924516,6.509 C30.3764516,6.788 31.0064516,7.121 31.5734516,7.508 L31.2404516,8.03 C30.6374516,7.58 30.0164516,7.22 29.3774516,6.968 L29.6924516,6.509 Z M30.5204516,5.249 C31.2044516,5.528 31.8164516,5.861 32.3744516,6.257 L32.0414516,6.77 C31.4474516,6.32 30.8444516,5.96 30.2144516,5.708 L30.5204516,5.249 Z M33.0044516,5.249 L33.6434516,5.249 L33.6434516,7.139 C33.6254516,7.634 33.5624516,8.084 33.4634516,8.498 L36.8114516,8.498 L36.8114516,9.128 L33.2474516,9.128 C33.1844516,9.272 33.1214516,9.416 33.0494516,9.542 C34.3544516,10.127 35.5424516,10.757 36.6134516,11.432 L36.1724516,11.918 C35.0564516,11.207 33.9134516,10.577 32.7254516,10.028 C32.6714516,10.091 32.6264516,10.154 32.5814516,10.208 C31.9244516,10.919 30.8534516,11.477 29.3684516,11.873 L28.9994516,11.297 C30.4934516,10.91 31.5284516,10.397 32.1224516,9.758 C32.2844516,9.56 32.4194516,9.353 32.5274516,9.128 L28.9544516,9.128 L28.9544516,8.498 L32.7884516,8.498 C32.9144516,8.084 32.9864516,7.625 33.0044516,7.139 L33.0044516,5.249 Z M29.2964516,4.178 L36.1544516,4.178 L36.1544516,4.583 C36.0194516,5.123 35.8394516,5.654 35.6234516,6.185 L35.0114516,6.014 C35.2004516,5.645 35.3534516,5.231 35.4794516,4.781 L29.2964516,4.781 L29.2964516,4.178 Z" id="已购买" fill="#FFFFFF"></path>
                        </g>
                    </g>
                </g>
            </g>
        </g>
    </g>
</svg>