<?xml version="1.0" encoding="utf-8"?>
<!-- Generator: Adobe Illustrator 21.0.0, SVG Export Plug-In . SVG Version: 6.00 Build 0)  -->
<svg version="1.1" id="图层_1" xmlns="http://www.w3.org/2000/svg" xmlns:xlink="http://www.w3.org/1999/xlink" x="0px" y="0px"
	 viewBox="0 0 355.5 137.8" style="enable-background:new 0 0 355.5 137.8;" xml:space="preserve">
<style type="text/css">
	.st0{fill:#CB0F19;}
	.st1{fill:#CEA754;}
	.st2{fill:#FFFFFF;}
</style>
<g>
	<path class="st0" d="M103.1,70.5h22.8l0,15.6c0,2.1-1.6,3.8-3.7,3.8h-1.5v3.5h6.1c3.4,0,6.2-2.8,6.2-6.2V70.5h22.8V54.7l-52.6,0.1
		L103.1,70.5L103.1,70.5z M110.1,60h38.6v5.3h-38.6L110.1,60L110.1,60z M132.9,47.7l0.1-3.5h-7.1l-0.1,3.5H99.8v5.4l59.4-0.1v-5.4
		L132.9,47.7z"/>
	<path class="st0" d="M108.4,74h8.7c0,0-5.3,18.1-14.1,19.3h-1.6C101.4,93.3,109.2,83.7,108.4,74z M141.6,74h8.5
		c0,0,1.3,9.6,7.5,19.3C157.5,93.3,151.1,96.2,141.6,74z M170.8,74h8.7c0,0-5.3,18.1-14.1,19.3h-1.6C163.8,93.3,171.6,83.7,170.8,74
		L170.8,74z M204,74h8.5c0,0,1.3,9.6,7.5,19.3C219.9,93.3,213.5,96.2,204,74L204,74z"/>
	<path class="st0" d="M162.8,47.6h14v-3.4h7.2v3.4h36.8v5.3H182l-6,12.3h13.2v-8.7h6.9v8.7h22.8v5.4h-22.5v14.3
		c0,4.6-3.7,8.4-8.4,8.4h-4.1V88h1.6c2.1,0,3.8-1.7,3.8-3.8V70.5h-24.7l8.7-17.6h-10.4L162.8,47.6L162.8,47.6z M226,51.1h24.6v-6.6
		h8.5v6.6h23.3v5.6h-23v6.7h17.4v5.3L261.4,84c0,0,11.9,6.3,22.2,6v2.9c0,0-15.7,0.2-29.8-6.6c0,0-12.1,6.4-27.9,6.6v-2.9
		c0,0,15.6-2.4,21.3-6.1c0,0-10.3-6.8-14.5-13.4h10.5c0,0,7.6,9.4,11.5,9.2c0,0,8.9-4.1,11.1-11h-36v-5.4h20.4v-7H226V51.1z
		 M299.3,44.1c0,0,1.8,7.7-11.9,18v2h7.2v29.2h7.5V56.4c0,0,4.4-6.4,5.1-12.3H299.3L299.3,44.1z M306.8,53.1l23.9,0.1v-9h7.7v9h6.8
		v5.1h-6.6v24.4c0,4.9-4,10.7-8.9,10.7h-3.5v-1.4l0.4,0c2.2-0.1,3.9-1.9,3.9-4.1V58.4l-23.6-0.1L306.8,53.1L306.8,53.1z"/>
	<path class="st0" d="M310.2,63.6h7l5.3,13.8h-6.7L310.2,63.6z M79.8,114.4H12c-0.3,0-0.5-0.2-0.5-0.5v-85c0-0.3,0.2-0.5,0.5-0.5
		h67.7c0.3,0,0.5,0.2,0.5,0.5v85C80.3,114.2,80.1,114.4,79.8,114.4z"/>
	<path class="st1" d="M17.2,44.2h57.6v12.1H17.2V44.2z"/>
	<path class="st2" d="M75,44.2h-58v-6.7c0-1.1,0.9-2.1,2.1-2.1h53.8c1.1,0,2.1,0.9,2.1,2.1V44.2z"/>
	<path class="st2" d="M21.2,89.6h4.5c0,0-2.8,9.4-7.3,10h-0.8C17.6,99.6,21.6,94.6,21.2,89.6z M38.5,89.6h4.4c0,0,0.7,5,3.9,10
		C46.7,99.6,43.4,101.1,38.5,89.6z"/>
	<path class="st2" d="M17.1,75.9h7.3v-1.8h3.8v1.8h19.1v2.7H27.1L23.9,85h6.8v-4.5h3.6V85h11.9v2.8H34.5v7.4c0,2.4-1.9,4.4-4.4,4.4
		H28v-2.7h0.8c1.1,0,2-0.9,2-2v-7.1H18l4.5-9.1h-5.4V75.9z M53.4,74.1c0,0,0.9,4-6.1,9.3v1H51v15.1h3.9V80.4c0,0,2.3-3.3,2.6-6.4
		L53.4,74.1L53.4,74.1z M57.3,78.7l12.4,0v-4.7h4v4.7h3.5v2.6h-3.4V94c0,2.6-2.1,5.5-4.6,5.5h-1.8v-0.7l0.2,0c1.1-0.1,2-1,2-2.1
		V81.5l-12.3,0L57.3,78.7L57.3,78.7z"/>
	<path class="st2" d="M59.1,84.2h3.6l2.7,7.2h-3.5L59.1,84.2z"/>
</g>
</svg>
