<?xml version="1.0" encoding="UTF-8"?>
<svg width="95px" height="60px" viewBox="0 0 95 60" version="1.1" xmlns="http://www.w3.org/2000/svg" xmlns:xlink="http://www.w3.org/1999/xlink">
    <!-- Generator: Sketch 49.2 (51160) - http://www.bohemiancoding.com/sketch -->
    <title>优惠券icon</title>
    <desc>Created with Sketch.</desc>
    <defs>
        <path d="M8.8817842e-16,21 L8.8817842e-16,6 C4.82366169e-16,2.6862915 2.6862915,6.08718376e-16 6,0 L88.1538462,0 C91.4675547,-9.43821151e-15 94.1538462,2.6862915 94.1538462,6 L94.1538462,21.0012884 C94.102667,21.0004306 94.0513838,21 94,21 C89.0294373,21 85,25.0294373 85,30 C85,34.9705627 89.0294373,39 94,39 C94.0513838,39 94.102667,38.9995694 94.1538462,38.9987116 L94.1538462,54 C94.1538462,57.3137085 91.4675547,60 88.1538462,60 L6,60 C2.6862915,60 1.29399067e-15,57.3137085 8.8817842e-16,54 L8.8817842e-16,39 C4.97056275,39 9,34.9705627 9,30 C9,25.0294373 4.97056275,21 4.4408921e-16,21 Z" id="path-1"></path>
    </defs>
    <g id="买衣" stroke="none" stroke-width="1" fill="none" fill-rule="evenodd">
        <g id="优惠券为空" transform="translate(-140.000000, -281.000000)">
            <g id="优惠券icon" transform="translate(140.000000, 281.000000)">
                <g id="Group-5">
                    <g id="Combined-Shape">
                        <use fill="#F0BC7C" fill-rule="evenodd" xlink:href="#path-1"></use>
                        <path stroke="#FFFFFF" stroke-width="4" d="M2,19.1813762 C7.12023608,20.1218889 11,24.6078607 11,30 C11,35.3921393 7.12023608,39.8781111 2,40.8186238 L2,54 C2,56.209139 3.790861,58 6,58 L88.1538462,58 C90.3629852,58 92.1538462,56.209139 92.1538462,54 L92.1538462,40.8457508 C86.9576809,39.9676643 83,35.4460151 83,30 C83,24.5539849 86.9576809,20.0323357 92.1538462,19.1542492 L92.1538462,6 C92.1538462,3.790861 90.3629852,2 88.1538462,2 L6,2 C3.790861,2 2,3.790861 2,6 L2,19.1813762 Z"></path>
                        <path stroke="#353E5D" stroke-width="2" d="M1,20.0493752 C6.05332269,20.5510997 10,24.8146519 10,30 C10,35.1853481 6.05332269,39.4489003 1,39.9506248 L1,54 C1,56.7614237 3.23857625,59 6,59 L88.1538462,59 C90.9152699,59 93.1538462,56.7614237 93.1538462,54 L93.1538462,39.9647059 C88.0270095,39.5351506 84,35.2378545 84,30 C84,24.7621455 88.0270095,20.4648494 93.1538462,20.0352941 L93.1538462,6 C93.1538462,3.23857625 90.9152699,1 88.1538462,1 L6,1 C3.23857625,1 1,3.23857625 1,6 L1,20.0493752 Z"></path>
                    </g>
                    <g id="Group-4" transform="translate(48.000000, 18.000000)" fill="#353E5D">
                        <polygon id="Rectangle" points="0 2.2223356 2.2223356 0 11.7058854 9.48354977 9.48354977 11.7058854"></polygon>
                        <polygon id="Rectangle-Copy" points="18.4835498 0 20.7058854 2.2223356 11.2223356 11.7058854 9 9.48354977"></polygon>
                        <polygon id="Rectangle-9" transform="translate(10.600000, 10.807524) rotate(-270.000000) translate(-10.600000, -10.807524) " points="12.407524 1.207524 12.407524 20.407524 8.792476 20.407524 8.792476 1.207524"></polygon>
                        <polygon id="Rectangle-9-Copy" transform="translate(10.600000, 17.807524) rotate(-270.000000) translate(-10.600000, -17.807524) " points="12.407524 8.207524 12.407524 27.407524 8.792476 27.407524 8.792476 8.207524"></polygon>
                        <polygon id="Rectangle-9-Copy-2" points="12.2 10 12.2 24.7415585 9 24.7415585 9 10"></polygon>
                    </g>
                    <path d="M28,5 L28,56.6431248" id="Path-3" stroke="#353E5D" stroke-dasharray="2,2"></path>
                </g>
            </g>
        </g>
    </g>
</svg>