<?xml version="1.0" encoding="UTF-8"?>
<svg width="17px" height="22px" viewBox="0 0 17 22" version="1.1" xmlns="http://www.w3.org/2000/svg" xmlns:xlink="http://www.w3.org/1999/xlink">
    <!-- Generator: Sketch 49.2 (51160) - http://www.bohemiancoding.com/sketch -->
    <title>我的-默认</title>
    <desc>Created with Sketch.</desc>
    <defs></defs>
    <g id="Page-1" stroke="none" stroke-width="1" fill="none" fill-rule="evenodd">
        <g id="wechat-底部导航栏" transform="translate(-334.000000, -28.000000)">
            <g id="750_navBar_默认" transform="translate(30.000000, 22.000000)">
                <g id="我的-默认" transform="translate(300.000000, 4.000000)">
                    <g>
                        <path d="M17.795008,18.852128 C18.261448,18.795272 18.783088,18.72848 19.387528,18.647888 C17.985448,18.24824 18.843808,8.436992 18.289048,6.458624 C17.542744,3.79412 15.34744,2.312 12.38596,2.312 C9.425032,2.312 7.229728,3.79412 6.482872,6.458624 C5.928664,8.436992 6.787024,18.24824 5.384944,18.647888 C5.988832,18.721856 6.50716,18.78368 6.966976,18.837224 C5.048776,19.967168 4.048,21.473024 4.048,23.288 L5.152,23.288 C5.152,20.902256 7.493584,19.559792 9.717592,18.821216 C10.090192,18.979088 11.159968,19.376528 12.505744,19.376528 C13.736152,19.376528 14.733616,19.040912 15.177424,18.862064 C17.309248,19.598432 19.504,20.9282 19.504,23.288 L20.608,23.288 C20.608,21.474128 19.644208,19.973792 17.795008,18.852128 L17.795008,18.852128 Z M10.500328,15.398816 L10.500328,15.36128 C10.512472,15.374528 10.525168,15.38612 10.537312,15.398816 L10.500328,15.398816 L10.500328,15.398816 Z M9.173872,10.205048 L14.050792,8.347568 L15.623992,9.803192 C15.3778,12.771848 12.98764,15.363488 12.390376,15.431936 C11.799736,15.382256 9.526048,13.021904 9.173872,10.205048 L9.173872,10.205048 Z M7.045912,17.735432 C7.314736,16.404008 7.358896,14.330144 7.36552,11.24888 C7.368832,9.432248 7.373248,7.373288 7.546024,6.756152 C8.149912,4.602248 9.86884,3.416 12.38596,3.416 C14.903632,3.416 16.62256,4.602248 17.226448,6.756152 C17.399224,7.373288 17.403088,9.432248 17.406952,11.24888 C17.413576,14.34008 17.458288,16.417256 17.728768,17.748128 C16.990744,17.838656 16.403968,17.901032 15.882328,17.944088 C15.586456,17.83424 15.282304,17.727704 14.959936,17.63 C14.81476,17.102288 14.61052,16.169408 14.550352,14.981504 C15.695752,13.590464 16.752832,11.45036 16.752832,9.31412 L16.721368,9.31412 L14.831872,7.565936 L15.659872,5.571008 L14.639776,5.147624 L13.755472,7.278344 L8.039512,9.455432 L8.05,9.483032 L8.01964,9.483032 C8.01964,11.57732 9.012136,13.590464 10.115032,14.927408 C10.051,15.760928 9.927904,17.010656 9.804256,17.633864 C9.494032,17.727704 9.199816,17.829272 8.91388,17.9336 C8.407144,17.888888 7.817608,17.82596 7.045912,17.735432 L7.045912,17.735432 Z M10.84312,18.039032 C10.96456,17.530088 11.066128,16.659032 11.134024,15.950264 C11.605432,16.323968 12.04648,16.535936 12.38596,16.535936 C12.700048,16.535936 13.100248,16.338872 13.528048,16.003808 C13.63624,16.921232 13.809568,17.637728 13.94536,18.09644 C13.547368,18.192488 13.05664,18.272528 12.505744,18.272528 C11.855488,18.272528 11.278096,18.158816 10.84312,18.039032 L10.84312,18.039032 Z" id="icn_nav_myAccount_inactive" fill="#B2B2AF"></path>
                        <rect id="Rectangle-18" fill="#FFFFFF" opacity="0" x="0" y="0" width="25" height="25"></rect>
                    </g>
                </g>
            </g>
        </g>
    </g>
</svg>