<?xml version="1.0" encoding="UTF-8"?>
<svg width="609px" height="32px" viewBox="0 0 609 32" version="1.1" xmlns="http://www.w3.org/2000/svg" xmlns:xlink="http://www.w3.org/1999/xlink">
    <!-- Generator: Sketch 49.2 (51160) - http://www.bohemiancoding.com/sketch -->
    <title>腰围</title>
    <desc>Created with Sketch.</desc>
    <defs></defs>
    <g id="Page-1" stroke="none" stroke-width="1" fill="none" fill-rule="evenodd">
        <g id="尺码" transform="translate(-398.000000, -285.000000)">
            <g id="腰围" transform="translate(398.000000, 285.000000)">
                <g id="Group">
                    <polygon id="Line-Copy-7" fill="#CCCCCC" fill-rule="nonzero" points="5 12 6 12 6 31.0249844 5 31.0249844"></polygon>
                    <polygon id="Line-Copy-8" fill="#CCCCCC" fill-rule="nonzero" points="91 12 92 12 92 31.0249844 91 31.0249844"></polygon>
                    <polygon id="Line-Copy-2" fill="#CCCCCC" fill-rule="nonzero" points="177 12 178 12 178 31.0249844 177 31.0249844"></polygon>
                    <polygon id="Line-Copy-3" fill="#CCCCCC" fill-rule="nonzero" points="263 12 264 12 264 31.0249844 263 31.0249844"></polygon>
                    <polygon id="Line-Copy-38" fill="#CCCCCC" fill-rule="nonzero" points="435 12 436 12 436 31.0249844 435 31.0249844"></polygon>
                    <polygon id="Line-Copy-4" fill="#CCCCCC" fill-rule="nonzero" points="349 12 350 12 350 31.0249844 349 31.0249844"></polygon>
                    <polygon id="Line-Copy-39" fill="#CCCCCC" fill-rule="nonzero" points="521 12 522 12 522 31.0249844 521 31.0249844"></polygon>
                    <polygon id="Line-Copy-48" fill="#CCCCCC" fill-rule="nonzero" points="608 12 609 12 609 31.0249844 608 31.0249844"></polygon>
                    <polygon id="Line-Copy-10" fill="#CCCCCC" fill-rule="nonzero" points="22 21 23 21 23 31.0249844 22 31.0249844"></polygon>
                    <polygon id="Line-Copy-12" fill="#CCCCCC" fill-rule="nonzero" points="108 21 109 21 109 31.0249844 108 31.0249844"></polygon>
                    <polygon id="Line-Copy-18" fill="#CCCCCC" fill-rule="nonzero" points="194 21 195 21 195 31.0249844 194 31.0249844"></polygon>
                    <polygon id="Line-Copy-40" fill="#CCCCCC" fill-rule="nonzero" points="366 21 367 21 367 31.0249844 366 31.0249844"></polygon>
                    <polygon id="Line-Copy-34" fill="#CCCCCC" fill-rule="nonzero" points="229 21 230 21 230 31.0249844 229 31.0249844"></polygon>
                    <polygon id="Line-Copy-41" fill="#CCCCCC" fill-rule="nonzero" points="401 21 402 21 402 31.0249844 401 31.0249844"></polygon>
                    <polygon id="Line-Copy-36" fill="#CCCCCC" fill-rule="nonzero" points="280 21 281 21 281 31.0249844 280 31.0249844"></polygon>
                    <polygon id="Line-Copy-42" fill="#CCCCCC" fill-rule="nonzero" points="452 21 453 21 453 31.0249844 452 31.0249844"></polygon>
                    <polygon id="Line-Copy-49" fill="#CCCCCC" fill-rule="nonzero" points="539 21 540 21 540 31.0249844 539 31.0249844"></polygon>
                    <polygon id="Line-Copy-22" fill="#CCCCCC" fill-rule="nonzero" points="315 21 316 21 316 31.0249844 315 31.0249844"></polygon>
                    <polygon id="Line-Copy-43" fill="#CCCCCC" fill-rule="nonzero" points="487 21 488 21 488 31.0249844 487 31.0249844"></polygon>
                    <polygon id="Line-Copy-50" fill="#CCCCCC" fill-rule="nonzero" points="574 21 575 21 575 31.0249844 574 31.0249844"></polygon>
                    <polygon id="Line-Copy-13" fill="#CCCCCC" fill-rule="nonzero" points="39 21 40 21 40 31.0249844 39 31.0249844"></polygon>
                    <polygon id="Line-Copy-15" fill="#CCCCCC" fill-rule="nonzero" points="125 21 126 21 126 31.0249844 125 31.0249844"></polygon>
                    <polygon id="Line-Copy-19" fill="#CCCCCC" fill-rule="nonzero" points="211 21 212 21 212 31.0249844 211 31.0249844"></polygon>
                    <polygon id="Line-Copy-44" fill="#CCCCCC" fill-rule="nonzero" points="383 21 384 21 384 31.0249844 383 31.0249844"></polygon>
                    <polygon id="Line-Copy-35" fill="#CCCCCC" fill-rule="nonzero" points="246 21 247 21 247 31.0249844 246 31.0249844"></polygon>
                    <polygon id="Line-Copy-45" fill="#CCCCCC" fill-rule="nonzero" points="418 21 419 21 419 31.0249844 418 31.0249844"></polygon>
                    <polygon id="Line-Copy-37" fill="#CCCCCC" fill-rule="nonzero" points="297 21 298 21 298 31.0249844 297 31.0249844"></polygon>
                    <polygon id="Line-Copy-46" fill="#CCCCCC" fill-rule="nonzero" points="469 21 470 21 470 31.0249844 469 31.0249844"></polygon>
                    <polygon id="Line-Copy-51" fill="#CCCCCC" fill-rule="nonzero" points="556 21 557 21 557 31.0249844 556 31.0249844"></polygon>
                    <polygon id="Line-Copy-23" fill="#CCCCCC" fill-rule="nonzero" points="332 21 333 21 333 31.0249844 332 31.0249844"></polygon>
                    <polygon id="Line-Copy-47" fill="#CCCCCC" fill-rule="nonzero" points="504 21 505 21 505 31.0249844 504 31.0249844"></polygon>
                    <polygon id="Line-Copy-52" fill="#CCCCCC" fill-rule="nonzero" points="591 21 592 21 592 31.0249844 591 31.0249844"></polygon>
                    <polygon id="Line-Copy-11" fill="#CCCCCC" fill-rule="nonzero" points="57 21 58 21 58 31.0249844 57 31.0249844"></polygon>
                    <polygon id="Line-Copy-16" fill="#CCCCCC" fill-rule="nonzero" points="143 21 144 21 144 31.0249844 143 31.0249844"></polygon>
                    <polygon id="Line-Copy-14" fill="#CCCCCC" fill-rule="nonzero" points="74 21 75 21 75 31.0249844 74 31.0249844"></polygon>
                    <polygon id="Line-Copy-17" fill="#CCCCCC" fill-rule="nonzero" points="160 21 161 21 161 31.0249844 160 31.0249844"></polygon>
                    <path d="M2.89,0.448 C4.078,0.448 4.762,1.015 4.942,2.167 L4.213,2.167 C4.069,1.429 3.628,1.069 2.881,1.069 C2.377,1.069 1.981,1.312 1.693,1.816 C1.405,2.284 1.27,2.887 1.27,3.616 C1.27,3.652 1.27,3.733 1.279,3.85 L1.315,3.85 C1.477,3.517 1.702,3.256 2.008,3.076 C2.296,2.887 2.629,2.797 3.007,2.797 C3.619,2.797 4.114,2.995 4.492,3.391 C4.861,3.787 5.05,4.291 5.05,4.921 C5.05,5.551 4.843,6.082 4.438,6.496 C4.024,6.91 3.511,7.126 2.881,7.126 C2.098,7.126 1.513,6.829 1.117,6.253 C0.739,5.704 0.559,4.939 0.559,3.958 C0.559,2.932 0.757,2.095 1.162,1.456 C1.585,0.781 2.161,0.448 2.89,0.448 Z M2.863,3.409 C2.44,3.409 2.089,3.553 1.81,3.841 C1.531,4.129 1.396,4.489 1.396,4.939 C1.396,5.389 1.522,5.758 1.792,6.046 C2.062,6.352 2.413,6.505 2.863,6.505 C3.295,6.505 3.646,6.352 3.916,6.064 C4.186,5.758 4.321,5.38 4.321,4.921 C4.321,4.462 4.186,4.102 3.925,3.832 C3.655,3.544 3.304,3.409 2.863,3.409 Z M8.2,0.448 C8.965,0.448 9.541,0.781 9.937,1.465 C10.279,2.041 10.45,2.815 10.45,3.787 C10.45,4.759 10.279,5.533 9.937,6.109 C9.541,6.784 8.965,7.126 8.2,7.126 C7.426,7.126 6.85,6.784 6.463,6.109 C6.121,5.533 5.95,4.759 5.95,3.787 C5.95,2.815 6.121,2.041 6.463,1.465 C6.85,0.781 7.426,0.448 8.2,0.448 Z M8.2,1.078 C7.624,1.078 7.21,1.384 6.958,2.005 C6.778,2.437 6.688,3.031 6.688,3.787 C6.688,4.534 6.778,5.128 6.958,5.569 C7.21,6.181 7.624,6.496 8.2,6.496 C8.776,6.496 9.19,6.181 9.442,5.569 C9.622,5.128 9.721,4.534 9.721,3.787 C9.721,3.031 9.622,2.437 9.442,2.005 C9.19,1.384 8.776,1.078 8.2,1.078 Z" id="60" fill="#999999"></path>
                    <path d="M86,0.126 L90.221,0.126 L90.221,0.729 L87.854,6.552 L87.071,6.552 L89.465,0.801 L86,0.801 L86,0.126 Z M93.317,0 C94.082,0 94.658,0.333 95.054,1.017 C95.396,1.593 95.567,2.367 95.567,3.339 C95.567,4.311 95.396,5.085 95.054,5.661 C94.658,6.336 94.082,6.678 93.317,6.678 C92.543,6.678 91.967,6.336 91.58,5.661 C91.238,5.085 91.067,4.311 91.067,3.339 C91.067,2.367 91.238,1.593 91.58,1.017 C91.967,0.333 92.543,0 93.317,0 Z M93.317,0.63 C92.741,0.63 92.327,0.936 92.075,1.557 C91.895,1.989 91.805,2.583 91.805,3.339 C91.805,4.086 91.895,4.68 92.075,5.121 C92.327,5.733 92.741,6.048 93.317,6.048 C93.893,6.048 94.307,5.733 94.559,5.121 C94.739,4.68 94.838,4.086 94.838,3.339 C94.838,2.583 94.739,1.989 94.559,1.557 C94.307,0.936 93.893,0.63 93.317,0.63 Z" id="70" fill="#999999"></path>
                    <path d="M174.8,0.448 C175.466,0.448 175.997,0.619 176.375,0.97 C176.717,1.285 176.897,1.681 176.897,2.149 C176.897,2.491 176.816,2.779 176.654,3.013 C176.474,3.265 176.222,3.454 175.889,3.571 L175.889,3.589 C176.222,3.67 176.51,3.859 176.744,4.147 C176.996,4.453 177.122,4.813 177.122,5.227 C177.122,5.794 176.924,6.253 176.528,6.595 C176.114,6.946 175.538,7.126 174.8,7.126 C174.053,7.126 173.477,6.946 173.072,6.595 C172.676,6.253 172.478,5.794 172.478,5.227 C172.478,4.813 172.604,4.453 172.856,4.147 C173.09,3.859 173.369,3.67 173.711,3.589 L173.711,3.571 C173.369,3.454 173.117,3.265 172.946,3.013 C172.784,2.779 172.703,2.491 172.703,2.149 C172.703,1.681 172.874,1.285 173.225,0.97 C173.603,0.619 174.125,0.448 174.8,0.448 Z M174.8,1.051 C174.341,1.051 173.981,1.168 173.729,1.402 C173.504,1.6 173.396,1.861 173.396,2.176 C173.396,2.5 173.495,2.77 173.693,2.968 C173.927,3.202 174.296,3.328 174.8,3.328 C175.295,3.328 175.664,3.202 175.907,2.968 C176.105,2.77 176.204,2.5 176.204,2.176 C176.204,1.861 176.087,1.6 175.871,1.402 C175.61,1.168 175.25,1.051 174.8,1.051 Z M174.8,3.904 C174.278,3.904 173.882,4.03 173.603,4.291 C173.333,4.525 173.207,4.84 173.207,5.227 C173.207,5.605 173.333,5.92 173.603,6.154 C173.873,6.397 174.278,6.523 174.8,6.523 C175.322,6.523 175.718,6.397 176.006,6.145 C176.258,5.911 176.393,5.605 176.393,5.227 C176.393,4.84 176.258,4.525 176.006,4.291 C175.718,4.03 175.313,3.904 174.8,3.904 Z M180.2,0.448 C180.965,0.448 181.541,0.781 181.937,1.465 C182.279,2.041 182.45,2.815 182.45,3.787 C182.45,4.759 182.279,5.533 181.937,6.109 C181.541,6.784 180.965,7.126 180.2,7.126 C179.426,7.126 178.85,6.784 178.463,6.109 C178.121,5.533 177.95,4.759 177.95,3.787 C177.95,2.815 178.121,2.041 178.463,1.465 C178.85,0.781 179.426,0.448 180.2,0.448 Z M180.2,1.078 C179.624,1.078 179.21,1.384 178.958,2.005 C178.778,2.437 178.688,3.031 178.688,3.787 C178.688,4.534 178.778,5.128 178.958,5.569 C179.21,6.181 179.624,6.496 180.2,6.496 C180.776,6.496 181.19,6.181 181.442,5.569 C181.622,5.128 181.721,4.534 181.721,3.787 C181.721,3.031 181.622,2.437 181.442,2.005 C181.19,1.384 180.776,1.078 180.2,1.078 Z" id="80" fill="#999999"></path>
                    <path d="M260.728,0.448 C261.502,0.448 262.087,0.736 262.483,1.312 C262.861,1.852 263.05,2.626 263.05,3.616 C263.05,4.642 262.843,5.47 262.447,6.118 C262.015,6.784 261.439,7.126 260.719,7.126 C259.522,7.126 258.838,6.55 258.667,5.407 L259.396,5.407 C259.531,6.136 259.972,6.505 260.728,6.505 C261.223,6.505 261.619,6.253 261.916,5.758 C262.195,5.281 262.339,4.678 262.339,3.958 C262.339,3.913 262.33,3.832 262.33,3.724 L262.294,3.724 C262.132,4.048 261.898,4.309 261.601,4.498 C261.313,4.678 260.98,4.777 260.602,4.777 C259.981,4.777 259.486,4.57 259.108,4.165 C258.739,3.778 258.559,3.274 258.559,2.653 C258.559,2.014 258.757,1.492 259.171,1.078 C259.576,0.655 260.098,0.448 260.728,0.448 Z M260.746,1.069 C260.305,1.069 259.954,1.213 259.684,1.51 C259.414,1.807 259.288,2.185 259.288,2.653 C259.288,3.103 259.414,3.472 259.684,3.742 C259.945,4.021 260.296,4.165 260.746,4.165 C261.16,4.165 261.511,4.021 261.799,3.733 C262.069,3.445 262.213,3.076 262.213,2.635 C262.213,2.185 262.078,1.816 261.817,1.528 C261.547,1.222 261.187,1.069 260.746,1.069 Z M266.2,0.448 C266.965,0.448 267.541,0.781 267.937,1.465 C268.279,2.041 268.45,2.815 268.45,3.787 C268.45,4.759 268.279,5.533 267.937,6.109 C267.541,6.784 266.965,7.126 266.2,7.126 C265.426,7.126 264.85,6.784 264.463,6.109 C264.121,5.533 263.95,4.759 263.95,3.787 C263.95,2.815 264.121,2.041 264.463,1.465 C264.85,0.781 265.426,0.448 266.2,0.448 Z M266.2,1.078 C265.624,1.078 265.21,1.384 264.958,2.005 C264.778,2.437 264.688,3.031 264.688,3.787 C264.688,4.534 264.778,5.128 264.958,5.569 C265.21,6.181 265.624,6.496 266.2,6.496 C266.776,6.496 267.19,6.181 267.442,5.569 C267.622,5.128 267.721,4.534 267.721,3.787 C267.721,3.031 267.622,2.437 267.442,2.005 C267.19,1.384 266.776,1.078 266.2,1.078 Z" id="90" fill="#999999"></path>
                    <path d="M344.674,0.126 L345.25,0.126 L345.25,6.552 L344.512,6.552 L344.512,1.026 C344.107,1.44 343.603,1.728 343,1.908 L343,1.17 C343.288,1.089 343.594,0.963 343.9,0.783 C344.206,0.585 344.458,0.369 344.674,0.126 Z M348.913,0 C349.678,0 350.254,0.333 350.65,1.017 C350.992,1.593 351.163,2.367 351.163,3.339 C351.163,4.311 350.992,5.085 350.65,5.661 C350.254,6.336 349.678,6.678 348.913,6.678 C348.139,6.678 347.563,6.336 347.176,5.661 C346.834,5.085 346.663,4.311 346.663,3.339 C346.663,2.367 346.834,1.593 347.176,1.017 C347.563,0.333 348.139,0 348.913,0 Z M348.913,0.63 C348.337,0.63 347.923,0.936 347.671,1.557 C347.491,1.989 347.401,2.583 347.401,3.339 C347.401,4.086 347.491,4.68 347.671,5.121 C347.923,5.733 348.337,6.048 348.913,6.048 C349.489,6.048 349.903,5.733 350.155,5.121 C350.335,4.68 350.434,4.086 350.434,3.339 C350.434,2.583 350.335,1.989 350.155,1.557 C349.903,0.936 349.489,0.63 348.913,0.63 Z M354.313,0 C355.078,0 355.654,0.333 356.05,1.017 C356.392,1.593 356.563,2.367 356.563,3.339 C356.563,4.311 356.392,5.085 356.05,5.661 C355.654,6.336 355.078,6.678 354.313,6.678 C353.539,6.678 352.963,6.336 352.576,5.661 C352.234,5.085 352.063,4.311 352.063,3.339 C352.063,2.367 352.234,1.593 352.576,1.017 C352.963,0.333 353.539,0 354.313,0 Z M354.313,0.63 C353.737,0.63 353.323,0.936 353.071,1.557 C352.891,1.989 352.801,2.583 352.801,3.339 C352.801,4.086 352.891,4.68 353.071,5.121 C353.323,5.733 353.737,6.048 354.313,6.048 C354.889,6.048 355.303,5.733 355.555,5.121 C355.735,4.68 355.834,4.086 355.834,3.339 C355.834,2.583 355.735,1.989 355.555,1.557 C355.303,0.936 354.889,0.63 354.313,0.63 Z" id="100" fill="#999999"></path>
                    <path d="M431.674,0.126 L432.25,0.126 L432.25,6.552 L431.512,6.552 L431.512,1.026 C431.107,1.44 430.603,1.728 430,1.908 L430,1.17 C430.288,1.089 430.594,0.963 430.9,0.783 C431.206,0.585 431.458,0.369 431.674,0.126 Z M435.283,0.126 L435.859,0.126 L435.859,6.552 L435.121,6.552 L435.121,1.026 C434.716,1.44 434.212,1.728 433.609,1.908 L433.609,1.17 C433.897,1.089 434.203,0.963 434.509,0.783 C434.815,0.585 435.067,0.369 435.283,0.126 Z M439.522,0 C440.287,0 440.863,0.333 441.259,1.017 C441.601,1.593 441.772,2.367 441.772,3.339 C441.772,4.311 441.601,5.085 441.259,5.661 C440.863,6.336 440.287,6.678 439.522,6.678 C438.748,6.678 438.172,6.336 437.785,5.661 C437.443,5.085 437.272,4.311 437.272,3.339 C437.272,2.367 437.443,1.593 437.785,1.017 C438.172,0.333 438.748,0 439.522,0 Z M439.522,0.63 C438.946,0.63 438.532,0.936 438.28,1.557 C438.1,1.989 438.01,2.583 438.01,3.339 C438.01,4.086 438.1,4.68 438.28,5.121 C438.532,5.733 438.946,6.048 439.522,6.048 C440.098,6.048 440.512,5.733 440.764,5.121 C440.944,4.68 441.043,4.086 441.043,3.339 C441.043,2.583 440.944,1.989 440.764,1.557 C440.512,0.936 440.098,0.63 439.522,0.63 Z" id="110" fill="#999999"></path>
                    <path d="M516.674,0.126 L517.25,0.126 L517.25,6.552 L516.512,6.552 L516.512,1.026 C516.107,1.44 515.603,1.728 515,1.908 L515,1.17 C515.288,1.089 515.594,0.963 515.9,0.783 C516.206,0.585 516.458,0.369 516.674,0.126 Z M521.003,0 C521.597,0 522.083,0.171 522.47,0.513 C522.848,0.855 523.046,1.314 523.046,1.872 C523.046,2.43 522.83,2.934 522.416,3.384 C522.191,3.618 521.75,3.969 521.084,4.419 C520.265,4.968 519.797,5.463 519.68,5.895 L523.055,5.895 L523.055,6.552 L518.771,6.552 C518.771,5.967 518.978,5.436 519.41,4.959 C519.662,4.671 520.121,4.284 520.805,3.816 C521.309,3.456 521.642,3.195 521.813,3.015 C522.137,2.664 522.308,2.277 522.308,1.863 C522.308,1.467 522.191,1.17 521.957,0.954 C521.723,0.738 521.39,0.63 520.976,0.63 C520.535,0.63 520.193,0.774 519.959,1.08 C519.707,1.368 519.572,1.8 519.563,2.367 L518.825,2.367 C518.825,1.647 519.032,1.071 519.428,0.648 C519.824,0.216 520.355,0 521.003,0 Z M526.313,0 C527.078,0 527.654,0.333 528.05,1.017 C528.392,1.593 528.563,2.367 528.563,3.339 C528.563,4.311 528.392,5.085 528.05,5.661 C527.654,6.336 527.078,6.678 526.313,6.678 C525.539,6.678 524.963,6.336 524.576,5.661 C524.234,5.085 524.063,4.311 524.063,3.339 C524.063,2.367 524.234,1.593 524.576,1.017 C524.963,0.333 525.539,0 526.313,0 Z M526.313,0.63 C525.737,0.63 525.323,0.936 525.071,1.557 C524.891,1.989 524.801,2.583 524.801,3.339 C524.801,4.086 524.891,4.68 525.071,5.121 C525.323,5.733 525.737,6.048 526.313,6.048 C526.889,6.048 527.303,5.733 527.555,5.121 C527.735,4.68 527.834,4.086 527.834,3.339 C527.834,2.583 527.735,1.989 527.555,1.557 C527.303,0.936 526.889,0.63 526.313,0.63 Z" id="120" fill="#999999"></path>
                </g>
            </g>
        </g>
    </g>
</svg>