<?xml version="1.0" encoding="UTF-8"?>
<svg width="439px" height="31px" viewBox="0 0 439 31" version="1.1" xmlns="http://www.w3.org/2000/svg" xmlns:xlink="http://www.w3.org/1999/xlink">
    <!-- Generator: Sketch 49.2 (51160) - http://www.bohemiancoding.com/sketch -->
    <title>臀围</title>
    <desc>Created with Sketch.</desc>
    <defs></defs>
    <g id="Page-1" stroke="none" stroke-width="1" fill="none" fill-rule="evenodd">
        <g id="尺码" transform="translate(-483.000000, -572.000000)">
            <g id="臀围" transform="translate(483.000000, 572.000000)">
                <g id="Group">
                    <polygon id="Line-Copy-7" fill="#CCCCCC" fill-rule="nonzero" points="4.5 11.5 5.5 11.5 5.5 30.5249844 4.5 30.5249844"></polygon>
                    <polygon id="Line-Copy-8" fill="#CCCCCC" fill-rule="nonzero" points="90.5 11.5 91.5 11.5 91.5 30.5249844 90.5 30.5249844"></polygon>
                    <polygon id="Line-Copy-2" fill="#CCCCCC" fill-rule="nonzero" points="176.5 11.5 177.5 11.5 177.5 30.5249844 176.5 30.5249844"></polygon>
                    <polygon id="Line-Copy-5" fill="#CCCCCC" fill-rule="nonzero" points="261.5 11.5 262.5 11.5 262.5 30.5249844 261.5 30.5249844"></polygon>
                    <polygon id="Line-Copy-6" fill="#CCCCCC" fill-rule="nonzero" points="346.5 11.5 347.5 11.5 347.5 30.5249844 346.5 30.5249844"></polygon>
                    <polygon id="Line-Copy-9" fill="#CCCCCC" fill-rule="nonzero" points="431.5 11.5 432.5 11.5 432.5 30.5249844 431.5 30.5249844"></polygon>
                    <polygon id="Line-Copy-10" fill="#CCCCCC" fill-rule="nonzero" points="21.5 20.5 22.5 20.5 22.5 30.5249844 21.5 30.5249844"></polygon>
                    <polygon id="Line-Copy-12" fill="#CCCCCC" fill-rule="nonzero" points="107.5 20.5 108.5 20.5 108.5 30.5249844 107.5 30.5249844"></polygon>
                    <polygon id="Line-Copy-18" fill="#CCCCCC" fill-rule="nonzero" points="193.5 20.5 194.5 20.5 194.5 30.5249844 193.5 30.5249844"></polygon>
                    <polygon id="Line-Copy-26" fill="#CCCCCC" fill-rule="nonzero" points="278.5 20.5 279.5 20.5 279.5 30.5249844 278.5 30.5249844"></polygon>
                    <polygon id="Line-Copy-30" fill="#CCCCCC" fill-rule="nonzero" points="363.5 20.5 364.5 20.5 364.5 30.5249844 363.5 30.5249844"></polygon>
                    <polygon id="Line-Copy-13" fill="#CCCCCC" fill-rule="nonzero" points="38.5 20.5 39.5 20.5 39.5 30.5249844 38.5 30.5249844"></polygon>
                    <polygon id="Line-Copy-15" fill="#CCCCCC" fill-rule="nonzero" points="124.5 20.5 125.5 20.5 125.5 30.5249844 124.5 30.5249844"></polygon>
                    <polygon id="Line-Copy-19" fill="#CCCCCC" fill-rule="nonzero" points="210.5 20.5 211.5 20.5 211.5 30.5249844 210.5 30.5249844"></polygon>
                    <polygon id="Line-Copy-27" fill="#CCCCCC" fill-rule="nonzero" points="295.5 20.5 296.5 20.5 296.5 30.5249844 295.5 30.5249844"></polygon>
                    <polygon id="Line-Copy-31" fill="#CCCCCC" fill-rule="nonzero" points="380.5 20.5 381.5 20.5 381.5 30.5249844 380.5 30.5249844"></polygon>
                    <polygon id="Line-Copy-11" fill="#CCCCCC" fill-rule="nonzero" points="56.5 20.5 57.5 20.5 57.5 30.5249844 56.5 30.5249844"></polygon>
                    <polygon id="Line-Copy-16" fill="#CCCCCC" fill-rule="nonzero" points="142.5 20.5 143.5 20.5 143.5 30.5249844 142.5 30.5249844"></polygon>
                    <polygon id="Line-Copy-24" fill="#CCCCCC" fill-rule="nonzero" points="227.5 20.5 228.5 20.5 228.5 30.5249844 227.5 30.5249844"></polygon>
                    <polygon id="Line-Copy-28" fill="#CCCCCC" fill-rule="nonzero" points="312.5 20.5 313.5 20.5 313.5 30.5249844 312.5 30.5249844"></polygon>
                    <polygon id="Line-Copy-32" fill="#CCCCCC" fill-rule="nonzero" points="397.5 20.5 398.5 20.5 398.5 30.5249844 397.5 30.5249844"></polygon>
                    <polygon id="Line-Copy-14" fill="#CCCCCC" fill-rule="nonzero" points="73.5 20.5 74.5 20.5 74.5 30.5249844 73.5 30.5249844"></polygon>
                    <polygon id="Line-Copy-17" fill="#CCCCCC" fill-rule="nonzero" points="159.5 20.5 160.5 20.5 160.5 30.5249844 159.5 30.5249844"></polygon>
                    <polygon id="Line-Copy-25" fill="#CCCCCC" fill-rule="nonzero" points="244.5 20.5 245.5 20.5 245.5 30.5249844 244.5 30.5249844"></polygon>
                    <polygon id="Line-Copy-29" fill="#CCCCCC" fill-rule="nonzero" points="329.5 20.5 330.5 20.5 330.5 30.5249844 329.5 30.5249844"></polygon>
                    <polygon id="Line-Copy-33" fill="#CCCCCC" fill-rule="nonzero" points="414.5 20.5 415.5 20.5 415.5 30.5249844 414.5 30.5249844"></polygon>
                    <path d="M86.6445,0.574 L90.8655,0.574 L90.8655,1.177 L88.4985,7 L87.7155,7 L90.1095,1.249 L86.6445,1.249 L86.6445,0.574 Z M93.9615,0.448 C94.7265,0.448 95.3025,0.781 95.6985,1.465 C96.0405,2.041 96.2115,2.815 96.2115,3.787 C96.2115,4.759 96.0405,5.533 95.6985,6.109 C95.3025,6.784 94.7265,7.126 93.9615,7.126 C93.1875,7.126 92.6115,6.784 92.2245,6.109 C91.8825,5.533 91.7115,4.759 91.7115,3.787 C91.7115,2.815 91.8825,2.041 92.2245,1.465 C92.6115,0.781 93.1875,0.448 93.9615,0.448 Z M93.9615,1.078 C93.3855,1.078 92.9715,1.384 92.7195,2.005 C92.5395,2.437 92.4495,3.031 92.4495,3.787 C92.4495,4.534 92.5395,5.128 92.7195,5.569 C92.9715,6.181 93.3855,6.496 93.9615,6.496 C94.5375,6.496 94.9515,6.181 95.2035,5.569 C95.3835,5.128 95.4825,4.534 95.4825,3.787 C95.4825,3.031 95.3835,2.437 95.2035,2.005 C94.9515,1.384 94.5375,1.078 93.9615,1.078 Z" id="70" fill="#999999"></path>
                    <path d="M2.89,0.448 C4.078,0.448 4.762,1.015 4.942,2.167 L4.213,2.167 C4.069,1.429 3.628,1.069 2.881,1.069 C2.377,1.069 1.981,1.312 1.693,1.816 C1.405,2.284 1.27,2.887 1.27,3.616 C1.27,3.652 1.27,3.733 1.279,3.85 L1.315,3.85 C1.477,3.517 1.702,3.256 2.008,3.076 C2.296,2.887 2.629,2.797 3.007,2.797 C3.619,2.797 4.114,2.995 4.492,3.391 C4.861,3.787 5.05,4.291 5.05,4.921 C5.05,5.551 4.843,6.082 4.438,6.496 C4.024,6.91 3.511,7.126 2.881,7.126 C2.098,7.126 1.513,6.829 1.117,6.253 C0.739,5.704 0.559,4.939 0.559,3.958 C0.559,2.932 0.757,2.095 1.162,1.456 C1.585,0.781 2.161,0.448 2.89,0.448 Z M2.863,3.409 C2.44,3.409 2.089,3.553 1.81,3.841 C1.531,4.129 1.396,4.489 1.396,4.939 C1.396,5.389 1.522,5.758 1.792,6.046 C2.062,6.352 2.413,6.505 2.863,6.505 C3.295,6.505 3.646,6.352 3.916,6.064 C4.186,5.758 4.321,5.38 4.321,4.921 C4.321,4.462 4.186,4.102 3.925,3.832 C3.655,3.544 3.304,3.409 2.863,3.409 Z M8.2,0.448 C8.965,0.448 9.541,0.781 9.937,1.465 C10.279,2.041 10.45,2.815 10.45,3.787 C10.45,4.759 10.279,5.533 9.937,6.109 C9.541,6.784 8.965,7.126 8.2,7.126 C7.426,7.126 6.85,6.784 6.463,6.109 C6.121,5.533 5.95,4.759 5.95,3.787 C5.95,2.815 6.121,2.041 6.463,1.465 C6.85,0.781 7.426,0.448 8.2,0.448 Z M8.2,1.078 C7.624,1.078 7.21,1.384 6.958,2.005 C6.778,2.437 6.688,3.031 6.688,3.787 C6.688,4.534 6.778,5.128 6.958,5.569 C7.21,6.181 7.624,6.496 8.2,6.496 C8.776,6.496 9.19,6.181 9.442,5.569 C9.622,5.128 9.721,4.534 9.721,3.787 C9.721,3.031 9.622,2.437 9.442,2.005 C9.19,1.384 8.776,1.078 8.2,1.078 Z" id="60" fill="#999999"></path>
                    <path d="M174.8,0.448 C175.466,0.448 175.997,0.619 176.375,0.97 C176.717,1.285 176.897,1.681 176.897,2.149 C176.897,2.491 176.816,2.779 176.654,3.013 C176.474,3.265 176.222,3.454 175.889,3.571 L175.889,3.589 C176.222,3.67 176.51,3.859 176.744,4.147 C176.996,4.453 177.122,4.813 177.122,5.227 C177.122,5.794 176.924,6.253 176.528,6.595 C176.114,6.946 175.538,7.126 174.8,7.126 C174.053,7.126 173.477,6.946 173.072,6.595 C172.676,6.253 172.478,5.794 172.478,5.227 C172.478,4.813 172.604,4.453 172.856,4.147 C173.09,3.859 173.369,3.67 173.711,3.589 L173.711,3.571 C173.369,3.454 173.117,3.265 172.946,3.013 C172.784,2.779 172.703,2.491 172.703,2.149 C172.703,1.681 172.874,1.285 173.225,0.97 C173.603,0.619 174.125,0.448 174.8,0.448 Z M174.8,1.051 C174.341,1.051 173.981,1.168 173.729,1.402 C173.504,1.6 173.396,1.861 173.396,2.176 C173.396,2.5 173.495,2.77 173.693,2.968 C173.927,3.202 174.296,3.328 174.8,3.328 C175.295,3.328 175.664,3.202 175.907,2.968 C176.105,2.77 176.204,2.5 176.204,2.176 C176.204,1.861 176.087,1.6 175.871,1.402 C175.61,1.168 175.25,1.051 174.8,1.051 Z M174.8,3.904 C174.278,3.904 173.882,4.03 173.603,4.291 C173.333,4.525 173.207,4.84 173.207,5.227 C173.207,5.605 173.333,5.92 173.603,6.154 C173.873,6.397 174.278,6.523 174.8,6.523 C175.322,6.523 175.718,6.397 176.006,6.145 C176.258,5.911 176.393,5.605 176.393,5.227 C176.393,4.84 176.258,4.525 176.006,4.291 C175.718,4.03 175.313,3.904 174.8,3.904 Z M180.2,0.448 C180.965,0.448 181.541,0.781 181.937,1.465 C182.279,2.041 182.45,2.815 182.45,3.787 C182.45,4.759 182.279,5.533 181.937,6.109 C181.541,6.784 180.965,7.126 180.2,7.126 C179.426,7.126 178.85,6.784 178.463,6.109 C178.121,5.533 177.95,4.759 177.95,3.787 C177.95,2.815 178.121,2.041 178.463,1.465 C178.85,0.781 179.426,0.448 180.2,0.448 Z M180.2,1.078 C179.624,1.078 179.21,1.384 178.958,2.005 C178.778,2.437 178.688,3.031 178.688,3.787 C178.688,4.534 178.778,5.128 178.958,5.569 C179.21,6.181 179.624,6.496 180.2,6.496 C180.776,6.496 181.19,6.181 181.442,5.569 C181.622,5.128 181.721,4.534 181.721,3.787 C181.721,3.031 181.622,2.437 181.442,2.005 C181.19,1.384 180.776,1.078 180.2,1.078 Z" id="80" fill="#999999"></path>
                    <path d="M259.728,0.448 C260.502,0.448 261.087,0.736 261.483,1.312 C261.861,1.852 262.05,2.626 262.05,3.616 C262.05,4.642 261.843,5.47 261.447,6.118 C261.015,6.784 260.439,7.126 259.719,7.126 C258.522,7.126 257.838,6.55 257.667,5.407 L258.396,5.407 C258.531,6.136 258.972,6.505 259.728,6.505 C260.223,6.505 260.619,6.253 260.916,5.758 C261.195,5.281 261.339,4.678 261.339,3.958 C261.339,3.913 261.33,3.832 261.33,3.724 L261.294,3.724 C261.132,4.048 260.898,4.309 260.601,4.498 C260.313,4.678 259.98,4.777 259.602,4.777 C258.981,4.777 258.486,4.57 258.108,4.165 C257.739,3.778 257.559,3.274 257.559,2.653 C257.559,2.014 257.757,1.492 258.171,1.078 C258.576,0.655 259.098,0.448 259.728,0.448 Z M259.746,1.069 C259.305,1.069 258.954,1.213 258.684,1.51 C258.414,1.807 258.288,2.185 258.288,2.653 C258.288,3.103 258.414,3.472 258.684,3.742 C258.945,4.021 259.296,4.165 259.746,4.165 C260.16,4.165 260.511,4.021 260.799,3.733 C261.069,3.445 261.213,3.076 261.213,2.635 C261.213,2.185 261.078,1.816 260.817,1.528 C260.547,1.222 260.187,1.069 259.746,1.069 Z M265.2,0.448 C265.965,0.448 266.541,0.781 266.937,1.465 C267.279,2.041 267.45,2.815 267.45,3.787 C267.45,4.759 267.279,5.533 266.937,6.109 C266.541,6.784 265.965,7.126 265.2,7.126 C264.426,7.126 263.85,6.784 263.463,6.109 C263.121,5.533 262.95,4.759 262.95,3.787 C262.95,2.815 263.121,2.041 263.463,1.465 C263.85,0.781 264.426,0.448 265.2,0.448 Z M265.2,1.078 C264.624,1.078 264.21,1.384 263.958,2.005 C263.778,2.437 263.688,3.031 263.688,3.787 C263.688,4.534 263.778,5.128 263.958,5.569 C264.21,6.181 264.624,6.496 265.2,6.496 C265.776,6.496 266.19,6.181 266.442,5.569 C266.622,5.128 266.721,4.534 266.721,3.787 C266.721,3.031 266.622,2.437 266.442,2.005 C266.19,1.384 265.776,1.078 265.2,1.078 Z" id="90" fill="#999999"></path>
                    <path d="M342.3655,0.574 L342.9415,0.574 L342.9415,7 L342.2035,7 L342.2035,1.474 C341.7985,1.888 341.2945,2.176 340.6915,2.356 L340.6915,1.618 C340.9795,1.537 341.2855,1.411 341.5915,1.231 C341.8975,1.033 342.1495,0.817 342.3655,0.574 Z M346.6045,0.448 C347.3695,0.448 347.9455,0.781 348.3415,1.465 C348.6835,2.041 348.8545,2.815 348.8545,3.787 C348.8545,4.759 348.6835,5.533 348.3415,6.109 C347.9455,6.784 347.3695,7.126 346.6045,7.126 C345.8305,7.126 345.2545,6.784 344.8675,6.109 C344.5255,5.533 344.3545,4.759 344.3545,3.787 C344.3545,2.815 344.5255,2.041 344.8675,1.465 C345.2545,0.781 345.8305,0.448 346.6045,0.448 Z M346.6045,1.078 C346.0285,1.078 345.6145,1.384 345.3625,2.005 C345.1825,2.437 345.0925,3.031 345.0925,3.787 C345.0925,4.534 345.1825,5.128 345.3625,5.569 C345.6145,6.181 346.0285,6.496 346.6045,6.496 C347.1805,6.496 347.5945,6.181 347.8465,5.569 C348.0265,5.128 348.1255,4.534 348.1255,3.787 C348.1255,3.031 348.0265,2.437 347.8465,2.005 C347.5945,1.384 347.1805,1.078 346.6045,1.078 Z M352.0045,0.448 C352.7695,0.448 353.3455,0.781 353.7415,1.465 C354.0835,2.041 354.2545,2.815 354.2545,3.787 C354.2545,4.759 354.0835,5.533 353.7415,6.109 C353.3455,6.784 352.7695,7.126 352.0045,7.126 C351.2305,7.126 350.6545,6.784 350.2675,6.109 C349.9255,5.533 349.7545,4.759 349.7545,3.787 C349.7545,2.815 349.9255,2.041 350.2675,1.465 C350.6545,0.781 351.2305,0.448 352.0045,0.448 Z M352.0045,1.078 C351.4285,1.078 351.0145,1.384 350.7625,2.005 C350.5825,2.437 350.4925,3.031 350.4925,3.787 C350.4925,4.534 350.5825,5.128 350.7625,5.569 C351.0145,6.181 351.4285,6.496 352.0045,6.496 C352.5805,6.496 352.9945,6.181 353.2465,5.569 C353.4265,5.128 353.5255,4.534 353.5255,3.787 C353.5255,3.031 353.4265,2.437 353.2465,2.005 C352.9945,1.384 352.5805,1.078 352.0045,1.078 Z" id="100" fill="#999999"></path>
                    <path d="M428.261,0.574 L428.837,0.574 L428.837,7 L428.099,7 L428.099,1.474 C427.694,1.888 427.19,2.176 426.587,2.356 L426.587,1.618 C426.875,1.537 427.181,1.411 427.487,1.231 C427.793,1.033 428.045,0.817 428.261,0.574 Z M431.87,0.574 L432.446,0.574 L432.446,7 L431.708,7 L431.708,1.474 C431.303,1.888 430.799,2.176 430.196,2.356 L430.196,1.618 C430.484,1.537 430.79,1.411 431.096,1.231 C431.402,1.033 431.654,0.817 431.87,0.574 Z M436.109,0.448 C436.874,0.448 437.45,0.781 437.846,1.465 C438.188,2.041 438.359,2.815 438.359,3.787 C438.359,4.759 438.188,5.533 437.846,6.109 C437.45,6.784 436.874,7.126 436.109,7.126 C435.335,7.126 434.759,6.784 434.372,6.109 C434.03,5.533 433.859,4.759 433.859,3.787 C433.859,2.815 434.03,2.041 434.372,1.465 C434.759,0.781 435.335,0.448 436.109,0.448 Z M436.109,1.078 C435.533,1.078 435.119,1.384 434.867,2.005 C434.687,2.437 434.597,3.031 434.597,3.787 C434.597,4.534 434.687,5.128 434.867,5.569 C435.119,6.181 435.533,6.496 436.109,6.496 C436.685,6.496 437.099,6.181 437.351,5.569 C437.531,5.128 437.63,4.534 437.63,3.787 C437.63,3.031 437.531,2.437 437.351,2.005 C437.099,1.384 436.685,1.078 436.109,1.078 Z" id="110" fill="#999999"></path>
                </g>
            </g>
        </g>
    </g>
</svg>