<?xml version="1.0" encoding="UTF-8"?>
<svg width="242px" height="31px" viewBox="0 0 242 31" version="1.1" xmlns="http://www.w3.org/2000/svg" xmlns:xlink="http://www.w3.org/1999/xlink">
    <!-- Generator: Sketch 49.2 (51160) - http://www.bohemiancoding.com/sketch -->
    <title>内腿长</title>
    <desc>Created with Sketch.</desc>
    <defs></defs>
    <g id="Page-1" stroke="none" stroke-width="1" fill="none" fill-rule="evenodd">
        <g id="尺码" transform="translate(-582.000000, -706.000000)">
            <g id="内腿长" transform="translate(582.000000, 706.000000)">
                <g id="Group">
                    <polygon id="Line-Copy-7" fill="#CCCCCC" fill-rule="nonzero" points="34.5 11.5 35.5 11.5 35.5 30.5249844 34.5 30.5249844"></polygon>
                    <polygon id="Line-Copy-8" fill="#CCCCCC" fill-rule="nonzero" points="120.5 11.5 121.5 11.5 121.5 30.5249844 120.5 30.5249844"></polygon>
                    <polygon id="Line-Copy-2" fill="#CCCCCC" fill-rule="nonzero" points="206.5 11.5 207.5 11.5 207.5 30.5249844 206.5 30.5249844"></polygon>
                    <polygon id="Line-Copy-10" fill="#CCCCCC" fill-rule="nonzero" points="51.5 20.5 52.5 20.5 52.5 30.5249844 51.5 30.5249844"></polygon>
                    <polygon id="Line-Copy-12" fill="#CCCCCC" fill-rule="nonzero" points="137.5 20.5 138.5 20.5 138.5 30.5249844 137.5 30.5249844"></polygon>
                    <polygon id="Line-Copy-18" fill="#CCCCCC" fill-rule="nonzero" points="223.5 20.5 224.5 20.5 224.5 30.5249844 223.5 30.5249844"></polygon>
                    <polygon id="Line-Copy-20" fill="#CCCCCC" fill-rule="nonzero" points="0.5 20.5 1.5 20.5 1.5 30.5249844 0.5 30.5249844"></polygon>
                    <polygon id="Line-Copy-13" fill="#CCCCCC" fill-rule="nonzero" points="68.5 20.5 69.5 20.5 69.5 30.5249844 68.5 30.5249844"></polygon>
                    <polygon id="Line-Copy-15" fill="#CCCCCC" fill-rule="nonzero" points="154.5 20.5 155.5 20.5 155.5 30.5249844 154.5 30.5249844"></polygon>
                    <polygon id="Line-Copy-19" fill="#CCCCCC" fill-rule="nonzero" points="240.5 20.5 241.5 20.5 241.5 30.5249844 240.5 30.5249844"></polygon>
                    <polygon id="Line-Copy-21" fill="#CCCCCC" fill-rule="nonzero" points="17.5 20.5 18.5 20.5 18.5 30.5249844 17.5 30.5249844"></polygon>
                    <polygon id="Line-Copy-11" fill="#CCCCCC" fill-rule="nonzero" points="86.5 20.5 87.5 20.5 87.5 30.5249844 86.5 30.5249844"></polygon>
                    <polygon id="Line-Copy-16" fill="#CCCCCC" fill-rule="nonzero" points="172.5 20.5 173.5 20.5 173.5 30.5249844 172.5 30.5249844"></polygon>
                    <polygon id="Line-Copy-14" fill="#CCCCCC" fill-rule="nonzero" points="103.5 20.5 104.5 20.5 104.5 30.5249844 103.5 30.5249844"></polygon>
                    <polygon id="Line-Copy-17" fill="#CCCCCC" fill-rule="nonzero" points="189.5 20.5 190.5 20.5 190.5 30.5249844 189.5 30.5249844"></polygon>
                    <path d="M116.6445,0.574 L120.8655,0.574 L120.8655,1.177 L118.4985,7 L117.7155,7 L120.1095,1.249 L116.6445,1.249 L116.6445,0.574 Z M123.9615,0.448 C124.7265,0.448 125.3025,0.781 125.6985,1.465 C126.0405,2.041 126.2115,2.815 126.2115,3.787 C126.2115,4.759 126.0405,5.533 125.6985,6.109 C125.3025,6.784 124.7265,7.126 123.9615,7.126 C123.1875,7.126 122.6115,6.784 122.2245,6.109 C121.8825,5.533 121.7115,4.759 121.7115,3.787 C121.7115,2.815 121.8825,2.041 122.2245,1.465 C122.6115,0.781 123.1875,0.448 123.9615,0.448 Z M123.9615,1.078 C123.3855,1.078 122.9715,1.384 122.7195,2.005 C122.5395,2.437 122.4495,3.031 122.4495,3.787 C122.4495,4.534 122.5395,5.128 122.7195,5.569 C122.9715,6.181 123.3855,6.496 123.9615,6.496 C124.5375,6.496 124.9515,6.181 125.2035,5.569 C125.3835,5.128 125.4825,4.534 125.4825,3.787 C125.4825,3.031 125.3835,2.437 125.2035,2.005 C124.9515,1.384 124.5375,1.078 123.9615,1.078 Z" id="70" fill="#999999"></path>
                    <path d="M32.89,0.448 C34.078,0.448 34.762,1.015 34.942,2.167 L34.213,2.167 C34.069,1.429 33.628,1.069 32.881,1.069 C32.377,1.069 31.981,1.312 31.693,1.816 C31.405,2.284 31.27,2.887 31.27,3.616 C31.27,3.652 31.27,3.733 31.279,3.85 L31.315,3.85 C31.477,3.517 31.702,3.256 32.008,3.076 C32.296,2.887 32.629,2.797 33.007,2.797 C33.619,2.797 34.114,2.995 34.492,3.391 C34.861,3.787 35.05,4.291 35.05,4.921 C35.05,5.551 34.843,6.082 34.438,6.496 C34.024,6.91 33.511,7.126 32.881,7.126 C32.098,7.126 31.513,6.829 31.117,6.253 C30.739,5.704 30.559,4.939 30.559,3.958 C30.559,2.932 30.757,2.095 31.162,1.456 C31.585,0.781 32.161,0.448 32.89,0.448 Z M32.863,3.409 C32.44,3.409 32.089,3.553 31.81,3.841 C31.531,4.129 31.396,4.489 31.396,4.939 C31.396,5.389 31.522,5.758 31.792,6.046 C32.062,6.352 32.413,6.505 32.863,6.505 C33.295,6.505 33.646,6.352 33.916,6.064 C34.186,5.758 34.321,5.38 34.321,4.921 C34.321,4.462 34.186,4.102 33.925,3.832 C33.655,3.544 33.304,3.409 32.863,3.409 Z M38.2,0.448 C38.965,0.448 39.541,0.781 39.937,1.465 C40.279,2.041 40.45,2.815 40.45,3.787 C40.45,4.759 40.279,5.533 39.937,6.109 C39.541,6.784 38.965,7.126 38.2,7.126 C37.426,7.126 36.85,6.784 36.463,6.109 C36.121,5.533 35.95,4.759 35.95,3.787 C35.95,2.815 36.121,2.041 36.463,1.465 C36.85,0.781 37.426,0.448 38.2,0.448 Z M38.2,1.078 C37.624,1.078 37.21,1.384 36.958,2.005 C36.778,2.437 36.688,3.031 36.688,3.787 C36.688,4.534 36.778,5.128 36.958,5.569 C37.21,6.181 37.624,6.496 38.2,6.496 C38.776,6.496 39.19,6.181 39.442,5.569 C39.622,5.128 39.721,4.534 39.721,3.787 C39.721,3.031 39.622,2.437 39.442,2.005 C39.19,1.384 38.776,1.078 38.2,1.078 Z" id="60" fill="#999999"></path>
                    <path d="M204.8,0.448 C205.466,0.448 205.997,0.619 206.375,0.97 C206.717,1.285 206.897,1.681 206.897,2.149 C206.897,2.491 206.816,2.779 206.654,3.013 C206.474,3.265 206.222,3.454 205.889,3.571 L205.889,3.589 C206.222,3.67 206.51,3.859 206.744,4.147 C206.996,4.453 207.122,4.813 207.122,5.227 C207.122,5.794 206.924,6.253 206.528,6.595 C206.114,6.946 205.538,7.126 204.8,7.126 C204.053,7.126 203.477,6.946 203.072,6.595 C202.676,6.253 202.478,5.794 202.478,5.227 C202.478,4.813 202.604,4.453 202.856,4.147 C203.09,3.859 203.369,3.67 203.711,3.589 L203.711,3.571 C203.369,3.454 203.117,3.265 202.946,3.013 C202.784,2.779 202.703,2.491 202.703,2.149 C202.703,1.681 202.874,1.285 203.225,0.97 C203.603,0.619 204.125,0.448 204.8,0.448 Z M204.8,1.051 C204.341,1.051 203.981,1.168 203.729,1.402 C203.504,1.6 203.396,1.861 203.396,2.176 C203.396,2.5 203.495,2.77 203.693,2.968 C203.927,3.202 204.296,3.328 204.8,3.328 C205.295,3.328 205.664,3.202 205.907,2.968 C206.105,2.77 206.204,2.5 206.204,2.176 C206.204,1.861 206.087,1.6 205.871,1.402 C205.61,1.168 205.25,1.051 204.8,1.051 Z M204.8,3.904 C204.278,3.904 203.882,4.03 203.603,4.291 C203.333,4.525 203.207,4.84 203.207,5.227 C203.207,5.605 203.333,5.92 203.603,6.154 C203.873,6.397 204.278,6.523 204.8,6.523 C205.322,6.523 205.718,6.397 206.006,6.145 C206.258,5.911 206.393,5.605 206.393,5.227 C206.393,4.84 206.258,4.525 206.006,4.291 C205.718,4.03 205.313,3.904 204.8,3.904 Z M210.2,0.448 C210.965,0.448 211.541,0.781 211.937,1.465 C212.279,2.041 212.45,2.815 212.45,3.787 C212.45,4.759 212.279,5.533 211.937,6.109 C211.541,6.784 210.965,7.126 210.2,7.126 C209.426,7.126 208.85,6.784 208.463,6.109 C208.121,5.533 207.95,4.759 207.95,3.787 C207.95,2.815 208.121,2.041 208.463,1.465 C208.85,0.781 209.426,0.448 210.2,0.448 Z M210.2,1.078 C209.624,1.078 209.21,1.384 208.958,2.005 C208.778,2.437 208.688,3.031 208.688,3.787 C208.688,4.534 208.778,5.128 208.958,5.569 C209.21,6.181 209.624,6.496 210.2,6.496 C210.776,6.496 211.19,6.181 211.442,5.569 C211.622,5.128 211.721,4.534 211.721,3.787 C211.721,3.031 211.622,2.437 211.442,2.005 C211.19,1.384 210.776,1.078 210.2,1.078 Z" id="80" fill="#999999"></path>
                </g>
            </g>
        </g>
    </g>
</svg>