<?xml version="1.0" encoding="UTF-8"?>
<svg width="183px" height="31px" viewBox="0 0 183 31" version="1.1" xmlns="http://www.w3.org/2000/svg" xmlns:xlink="http://www.w3.org/1999/xlink">
    <!-- Generator: Sketch 49.2 (51160) - http://www.bohemiancoding.com/sketch -->
    <title>刻度-肩宽</title>
    <desc>Created with Sketch.</desc>
    <defs></defs>
    <g id="Page-1" stroke="none" stroke-width="1" fill="none" fill-rule="evenodd">
        <g id="尺码" transform="translate(-611.000000, -168.000000)">
            <g id="刻度-肩宽" transform="translate(611.000000, 168.000000)">
                <polygon id="Line-Copy-7" fill="#CCCCCC" fill-rule="nonzero" points="4.5 11.5 5.5 11.5 5.5 30.5249844 4.5 30.5249844"></polygon>
                <polygon id="Line-Copy-8" fill="#CCCCCC" fill-rule="nonzero" points="90.5 11.5 91.5 11.5 91.5 30.5249844 90.5 30.5249844"></polygon>
                <polygon id="Line-Copy-2" fill="#CCCCCC" fill-rule="nonzero" points="176.5 11.5 177.5 11.5 177.5 30.5249844 176.5 30.5249844"></polygon>
                <polygon id="Line-Copy-10" fill="#CCCCCC" fill-rule="nonzero" points="21.5 20.5 22.5 20.5 22.5 30.5249844 21.5 30.5249844"></polygon>
                <polygon id="Line-Copy-12" fill="#CCCCCC" fill-rule="nonzero" points="107.5 20.5 108.5 20.5 108.5 30.5249844 107.5 30.5249844"></polygon>
                <polygon id="Line-Copy-13" fill="#CCCCCC" fill-rule="nonzero" points="38.5 20.5 39.5 20.5 39.5 30.5249844 38.5 30.5249844"></polygon>
                <polygon id="Line-Copy-15" fill="#CCCCCC" fill-rule="nonzero" points="124.5 20.5 125.5 20.5 125.5 30.5249844 124.5 30.5249844"></polygon>
                <polygon id="Line-Copy-11" fill="#CCCCCC" fill-rule="nonzero" points="56.5 20.5 57.5 20.5 57.5 30.5249844 56.5 30.5249844"></polygon>
                <polygon id="Line-Copy-16" fill="#CCCCCC" fill-rule="nonzero" points="142.5 20.5 143.5 20.5 143.5 30.5249844 142.5 30.5249844"></polygon>
                <polygon id="Line-Copy-14" fill="#CCCCCC" fill-rule="nonzero" points="73.5 20.5 74.5 20.5 74.5 30.5249844 73.5 30.5249844"></polygon>
                <polygon id="Line-Copy-17" fill="#CCCCCC" fill-rule="nonzero" points="159.5 20.5 160.5 20.5 160.5 30.5249844 159.5 30.5249844"></polygon>
                <path d="M89.556,0.574 L90.249,0.574 L90.249,4.939 L91.293,4.939 L91.293,5.542 L90.249,5.542 L90.249,7 L89.547,7 L89.547,5.542 L86.316,5.542 L86.316,4.84 L89.556,0.574 Z M89.52,1.537 L86.937,4.939 L89.547,4.939 L89.547,1.537 L89.52,1.537 Z M94.2,0.448 C94.965,0.448 95.541,0.781 95.937,1.465 C96.279,2.041 96.45,2.815 96.45,3.787 C96.45,4.759 96.279,5.533 95.937,6.109 C95.541,6.784 94.965,7.126 94.2,7.126 C93.426,7.126 92.85,6.784 92.463,6.109 C92.121,5.533 91.95,4.759 91.95,3.787 C91.95,2.815 92.121,2.041 92.463,1.465 C92.85,0.781 93.426,0.448 94.2,0.448 Z M94.2,1.078 C93.624,1.078 93.21,1.384 92.958,2.005 C92.778,2.437 92.688,3.031 92.688,3.787 C92.688,4.534 92.778,5.128 92.958,5.569 C93.21,6.181 93.624,6.496 94.2,6.496 C94.776,6.496 95.19,6.181 95.442,5.569 C95.622,5.128 95.721,4.534 95.721,3.787 C95.721,3.031 95.622,2.437 95.442,2.005 C95.19,1.384 94.776,1.078 94.2,1.078 Z" id="40" fill="#999999"></path>
                <path d="M2.863,0.448 C3.475,0.448 3.979,0.601 4.357,0.916 C4.726,1.231 4.915,1.654 4.915,2.194 C4.915,2.914 4.564,3.4 3.862,3.634 C4.24,3.751 4.528,3.931 4.726,4.183 C4.942,4.435 5.05,4.75 5.05,5.128 C5.05,5.713 4.843,6.19 4.438,6.559 C4.024,6.937 3.484,7.126 2.818,7.126 C2.206,7.126 1.711,6.964 1.324,6.658 C0.865,6.28 0.613,5.731 0.559,5.011 L1.306,5.011 C1.324,5.515 1.495,5.902 1.81,6.163 C2.08,6.379 2.413,6.496 2.818,6.496 C3.277,6.496 3.646,6.361 3.925,6.1 C4.177,5.848 4.312,5.533 4.312,5.155 C4.312,4.768 4.186,4.471 3.934,4.255 C3.682,4.039 3.34,3.94 2.89,3.94 L2.368,3.94 L2.368,3.364 L2.863,3.364 C3.295,3.364 3.619,3.265 3.844,3.076 C4.069,2.878 4.186,2.599 4.186,2.239 C4.186,1.879 4.069,1.6 3.853,1.402 C3.619,1.186 3.286,1.087 2.872,1.087 C2.44,1.087 2.107,1.195 1.864,1.429 C1.612,1.663 1.468,1.996 1.423,2.428 L0.694,2.428 C0.748,1.807 0.982,1.321 1.378,0.97 C1.756,0.619 2.251,0.448 2.863,0.448 Z M8.2,0.448 C8.965,0.448 9.541,0.781 9.937,1.465 C10.279,2.041 10.45,2.815 10.45,3.787 C10.45,4.759 10.279,5.533 9.937,6.109 C9.541,6.784 8.965,7.126 8.2,7.126 C7.426,7.126 6.85,6.784 6.463,6.109 C6.121,5.533 5.95,4.759 5.95,3.787 C5.95,2.815 6.121,2.041 6.463,1.465 C6.85,0.781 7.426,0.448 8.2,0.448 Z M8.2,1.078 C7.624,1.078 7.21,1.384 6.958,2.005 C6.778,2.437 6.688,3.031 6.688,3.787 C6.688,4.534 6.778,5.128 6.958,5.569 C7.21,6.181 7.624,6.496 8.2,6.496 C8.776,6.496 9.19,6.181 9.442,5.569 C9.622,5.128 9.721,4.534 9.721,3.787 C9.721,3.031 9.622,2.437 9.442,2.005 C9.19,1.384 8.776,1.078 8.2,1.078 Z" id="30" fill="#999999"></path>
                <path d="M173.045,0.574 L176.78,0.574 L176.78,1.231 L173.648,1.231 L173.432,3.382 L173.468,3.382 C173.648,3.166 173.882,3.004 174.161,2.896 C174.413,2.788 174.683,2.743 174.98,2.743 C175.592,2.743 176.087,2.932 176.465,3.319 C176.843,3.715 177.041,4.255 177.041,4.948 C177.041,5.596 176.807,6.127 176.348,6.541 C175.916,6.928 175.376,7.126 174.746,7.126 C174.179,7.126 173.693,6.973 173.297,6.667 C172.847,6.325 172.604,5.857 172.559,5.272 L173.288,5.272 C173.324,5.677 173.486,5.992 173.774,6.208 C174.026,6.397 174.359,6.496 174.755,6.496 C175.205,6.496 175.574,6.352 175.871,6.064 C176.159,5.776 176.312,5.407 176.312,4.957 C176.312,4.444 176.168,4.048 175.898,3.769 C175.637,3.481 175.268,3.346 174.8,3.346 C174.494,3.346 174.224,3.409 173.981,3.544 C173.729,3.67 173.531,3.868 173.405,4.12 L172.703,4.12 L173.045,0.574 Z M180.2,0.448 C180.965,0.448 181.541,0.781 181.937,1.465 C182.279,2.041 182.45,2.815 182.45,3.787 C182.45,4.759 182.279,5.533 181.937,6.109 C181.541,6.784 180.965,7.126 180.2,7.126 C179.426,7.126 178.85,6.784 178.463,6.109 C178.121,5.533 177.95,4.759 177.95,3.787 C177.95,2.815 178.121,2.041 178.463,1.465 C178.85,0.781 179.426,0.448 180.2,0.448 Z M180.2,1.078 C179.624,1.078 179.21,1.384 178.958,2.005 C178.778,2.437 178.688,3.031 178.688,3.787 C178.688,4.534 178.778,5.128 178.958,5.569 C179.21,6.181 179.624,6.496 180.2,6.496 C180.776,6.496 181.19,6.181 181.442,5.569 C181.622,5.128 181.721,4.534 181.721,3.787 C181.721,3.031 181.622,2.437 181.442,2.005 C181.19,1.384 180.776,1.078 180.2,1.078 Z" id="50" fill="#999999"></path>
            </g>
        </g>
    </g>
</svg>