<?xml version="1.0" encoding="UTF-8"?>
<svg width="386px" height="32px" viewBox="0 0 386 32" version="1.1" xmlns="http://www.w3.org/2000/svg" xmlns:xlink="http://www.w3.org/1999/xlink">
    <!-- Generator: Sketch 49.2 (51160) - http://www.bohemiancoding.com/sketch -->
    <title>腰围 copy</title>
    <desc>Created with Sketch.</desc>
    <defs></defs>
    <g id="Page-1" stroke="none" stroke-width="1" fill="none" fill-rule="evenodd">
        <g id="尺码" transform="translate(-510.000000, -447.000000)">
            <g id="腰围-copy" transform="translate(510.000000, 447.000000)">
                <g id="Group">
                    <polygon id="Line-Copy-7" fill="#CCCCCC" fill-rule="nonzero" points="34 12 35 12 35 31.0249844 34 31.0249844"></polygon>
                    <polygon id="Line-Copy-8" fill="#CCCCCC" fill-rule="nonzero" points="120 12 121 12 121 31.0249844 120 31.0249844"></polygon>
                    <polygon id="Line-Copy-2" fill="#CCCCCC" fill-rule="nonzero" points="206 12 207 12 207 31.0249844 206 31.0249844"></polygon>
                    <polygon id="Line-Copy-10" fill="#CCCCCC" fill-rule="nonzero" points="51 21 52 21 52 31.0249844 51 31.0249844"></polygon>
                    <polygon id="Line-Copy-12" fill="#CCCCCC" fill-rule="nonzero" points="137 21 138 21 138 31.0249844 137 31.0249844"></polygon>
                    <polygon id="Line-Copy-20" fill="#CCCCCC" fill-rule="nonzero" points="0 21 1 21 1 31.0249844 0 31.0249844"></polygon>
                    <polygon id="Line-Copy-13" fill="#CCCCCC" fill-rule="nonzero" points="68 21 69 21 69 31.0249844 68 31.0249844"></polygon>
                    <polygon id="Line-Copy-15" fill="#CCCCCC" fill-rule="nonzero" points="154 21 155 21 155 31.0249844 154 31.0249844"></polygon>
                    <polygon id="Line-Copy-21" fill="#CCCCCC" fill-rule="nonzero" points="17 21 18 21 18 31.0249844 17 31.0249844"></polygon>
                    <polygon id="Line-Copy-11" fill="#CCCCCC" fill-rule="nonzero" points="86 21 87 21 87 31.0249844 86 31.0249844"></polygon>
                    <polygon id="Line-Copy-16" fill="#CCCCCC" fill-rule="nonzero" points="172 21 173 21 173 31.0249844 172 31.0249844"></polygon>
                    <polygon id="Line-Copy-14" fill="#CCCCCC" fill-rule="nonzero" points="103 21 104 21 104 31.0249844 103 31.0249844"></polygon>
                    <polygon id="Line-Copy-17" fill="#CCCCCC" fill-rule="nonzero" points="189 21 190 21 190 31.0249844 189 31.0249844"></polygon>
                    <path d="M31.89,0.448 C33.078,0.448 33.762,1.015 33.942,2.167 L33.213,2.167 C33.069,1.429 32.628,1.069 31.881,1.069 C31.377,1.069 30.981,1.312 30.693,1.816 C30.405,2.284 30.27,2.887 30.27,3.616 C30.27,3.652 30.27,3.733 30.279,3.85 L30.315,3.85 C30.477,3.517 30.702,3.256 31.008,3.076 C31.296,2.887 31.629,2.797 32.007,2.797 C32.619,2.797 33.114,2.995 33.492,3.391 C33.861,3.787 34.05,4.291 34.05,4.921 C34.05,5.551 33.843,6.082 33.438,6.496 C33.024,6.91 32.511,7.126 31.881,7.126 C31.098,7.126 30.513,6.829 30.117,6.253 C29.739,5.704 29.559,4.939 29.559,3.958 C29.559,2.932 29.757,2.095 30.162,1.456 C30.585,0.781 31.161,0.448 31.89,0.448 Z M31.863,3.409 C31.44,3.409 31.089,3.553 30.81,3.841 C30.531,4.129 30.396,4.489 30.396,4.939 C30.396,5.389 30.522,5.758 30.792,6.046 C31.062,6.352 31.413,6.505 31.863,6.505 C32.295,6.505 32.646,6.352 32.916,6.064 C33.186,5.758 33.321,5.38 33.321,4.921 C33.321,4.462 33.186,4.102 32.925,3.832 C32.655,3.544 32.304,3.409 31.863,3.409 Z M37.2,0.448 C37.965,0.448 38.541,0.781 38.937,1.465 C39.279,2.041 39.45,2.815 39.45,3.787 C39.45,4.759 39.279,5.533 38.937,6.109 C38.541,6.784 37.965,7.126 37.2,7.126 C36.426,7.126 35.85,6.784 35.463,6.109 C35.121,5.533 34.95,4.759 34.95,3.787 C34.95,2.815 35.121,2.041 35.463,1.465 C35.85,0.781 36.426,0.448 37.2,0.448 Z M37.2,1.078 C36.624,1.078 36.21,1.384 35.958,2.005 C35.778,2.437 35.688,3.031 35.688,3.787 C35.688,4.534 35.778,5.128 35.958,5.569 C36.21,6.181 36.624,6.496 37.2,6.496 C37.776,6.496 38.19,6.181 38.442,5.569 C38.622,5.128 38.721,4.534 38.721,3.787 C38.721,3.031 38.622,2.437 38.442,2.005 C38.19,1.384 37.776,1.078 37.2,1.078 Z" id="60" fill="#999999"></path>
                    <path d="M115,0.126 L119.221,0.126 L119.221,0.729 L116.854,6.552 L116.071,6.552 L118.465,0.801 L115,0.801 L115,0.126 Z M122.317,0 C123.082,0 123.658,0.333 124.054,1.017 C124.396,1.593 124.567,2.367 124.567,3.339 C124.567,4.311 124.396,5.085 124.054,5.661 C123.658,6.336 123.082,6.678 122.317,6.678 C121.543,6.678 120.967,6.336 120.58,5.661 C120.238,5.085 120.067,4.311 120.067,3.339 C120.067,2.367 120.238,1.593 120.58,1.017 C120.967,0.333 121.543,0 122.317,0 Z M122.317,0.63 C121.741,0.63 121.327,0.936 121.075,1.557 C120.895,1.989 120.805,2.583 120.805,3.339 C120.805,4.086 120.895,4.68 121.075,5.121 C121.327,5.733 121.741,6.048 122.317,6.048 C122.893,6.048 123.307,5.733 123.559,5.121 C123.739,4.68 123.838,4.086 123.838,3.339 C123.838,2.583 123.739,1.989 123.559,1.557 C123.307,0.936 122.893,0.63 122.317,0.63 Z" id="70" fill="#999999"></path>
                    <path d="M203.322,0 C203.988,0 204.519,0.171 204.897,0.522 C205.239,0.837 205.419,1.233 205.419,1.701 C205.419,2.043 205.338,2.331 205.176,2.565 C204.996,2.817 204.744,3.006 204.411,3.123 L204.411,3.141 C204.744,3.222 205.032,3.411 205.266,3.699 C205.518,4.005 205.644,4.365 205.644,4.779 C205.644,5.346 205.446,5.805 205.05,6.147 C204.636,6.498 204.06,6.678 203.322,6.678 C202.575,6.678 201.999,6.498 201.594,6.147 C201.198,5.805 201,5.346 201,4.779 C201,4.365 201.126,4.005 201.378,3.699 C201.612,3.411 201.891,3.222 202.233,3.141 L202.233,3.123 C201.891,3.006 201.639,2.817 201.468,2.565 C201.306,2.331 201.225,2.043 201.225,1.701 C201.225,1.233 201.396,0.837 201.747,0.522 C202.125,0.171 202.647,0 203.322,0 Z M203.322,0.603 C202.863,0.603 202.503,0.72 202.251,0.954 C202.026,1.152 201.918,1.413 201.918,1.728 C201.918,2.052 202.017,2.322 202.215,2.52 C202.449,2.754 202.818,2.88 203.322,2.88 C203.817,2.88 204.186,2.754 204.429,2.52 C204.627,2.322 204.726,2.052 204.726,1.728 C204.726,1.413 204.609,1.152 204.393,0.954 C204.132,0.72 203.772,0.603 203.322,0.603 Z M203.322,3.456 C202.8,3.456 202.404,3.582 202.125,3.843 C201.855,4.077 201.729,4.392 201.729,4.779 C201.729,5.157 201.855,5.472 202.125,5.706 C202.395,5.949 202.8,6.075 203.322,6.075 C203.844,6.075 204.24,5.949 204.528,5.697 C204.78,5.463 204.915,5.157 204.915,4.779 C204.915,4.392 204.78,4.077 204.528,3.843 C204.24,3.582 203.835,3.456 203.322,3.456 Z M208.722,0 C209.487,0 210.063,0.333 210.459,1.017 C210.801,1.593 210.972,2.367 210.972,3.339 C210.972,4.311 210.801,5.085 210.459,5.661 C210.063,6.336 209.487,6.678 208.722,6.678 C207.948,6.678 207.372,6.336 206.985,5.661 C206.643,5.085 206.472,4.311 206.472,3.339 C206.472,2.367 206.643,1.593 206.985,1.017 C207.372,0.333 207.948,0 208.722,0 Z M208.722,0.63 C208.146,0.63 207.732,0.936 207.48,1.557 C207.3,1.989 207.21,2.583 207.21,3.339 C207.21,4.086 207.3,4.68 207.48,5.121 C207.732,5.733 208.146,6.048 208.722,6.048 C209.298,6.048 209.712,5.733 209.964,5.121 C210.144,4.68 210.243,4.086 210.243,3.339 C210.243,2.583 210.144,1.989 209.964,1.557 C209.712,0.936 209.298,0.63 208.722,0.63 Z" id="80" fill="#999999"></path>
                    <polygon id="Line-Copy-3" fill="#CCCCCC" fill-rule="nonzero" points="292 12 293 12 293 31.0249844 292 31.0249844"></polygon>
                    <polygon id="Line-Copy-4" fill="#CCCCCC" fill-rule="nonzero" points="378 12 379 12 379 31.0249844 378 31.0249844"></polygon>
                    <polygon id="Line-Copy-18" fill="#CCCCCC" fill-rule="nonzero" points="223 21 224 21 224 31.0249844 223 31.0249844"></polygon>
                    <polygon id="Line-Copy-34" fill="#CCCCCC" fill-rule="nonzero" points="258 21 259 21 259 31.0249844 258 31.0249844"></polygon>
                    <polygon id="Line-Copy-36" fill="#CCCCCC" fill-rule="nonzero" points="309 21 310 21 310 31.0249844 309 31.0249844"></polygon>
                    <polygon id="Line-Copy-22" fill="#CCCCCC" fill-rule="nonzero" points="344 21 345 21 345 31.0249844 344 31.0249844"></polygon>
                    <polygon id="Line-Copy-19" fill="#CCCCCC" fill-rule="nonzero" points="240 21 241 21 241 31.0249844 240 31.0249844"></polygon>
                    <polygon id="Line-Copy-35" fill="#CCCCCC" fill-rule="nonzero" points="275 21 276 21 276 31.0249844 275 31.0249844"></polygon>
                    <polygon id="Line-Copy-37" fill="#CCCCCC" fill-rule="nonzero" points="326 21 327 21 327 31.0249844 326 31.0249844"></polygon>
                    <polygon id="Line-Copy-23" fill="#CCCCCC" fill-rule="nonzero" points="361 21 362 21 362 31.0249844 361 31.0249844"></polygon>
                    <path d="M290.169,0 C290.943,0 291.528,0.288 291.924,0.864 C292.302,1.404 292.491,2.178 292.491,3.168 C292.491,4.194 292.284,5.022 291.888,5.67 C291.456,6.336 290.88,6.678 290.16,6.678 C288.963,6.678 288.279,6.102 288.108,4.959 L288.837,4.959 C288.972,5.688 289.413,6.057 290.169,6.057 C290.664,6.057 291.06,5.805 291.357,5.31 C291.636,4.833 291.78,4.23 291.78,3.51 C291.78,3.465 291.771,3.384 291.771,3.276 L291.735,3.276 C291.573,3.6 291.339,3.861 291.042,4.05 C290.754,4.23 290.421,4.329 290.043,4.329 C289.422,4.329 288.927,4.122 288.549,3.717 C288.18,3.33 288,2.826 288,2.205 C288,1.566 288.198,1.044 288.612,0.63 C289.017,0.207 289.539,0 290.169,0 Z M290.187,0.621 C289.746,0.621 289.395,0.765 289.125,1.062 C288.855,1.359 288.729,1.737 288.729,2.205 C288.729,2.655 288.855,3.024 289.125,3.294 C289.386,3.573 289.737,3.717 290.187,3.717 C290.601,3.717 290.952,3.573 291.24,3.285 C291.51,2.997 291.654,2.628 291.654,2.187 C291.654,1.737 291.519,1.368 291.258,1.08 C290.988,0.774 290.628,0.621 290.187,0.621 Z M295.641,0 C296.406,0 296.982,0.333 297.378,1.017 C297.72,1.593 297.891,2.367 297.891,3.339 C297.891,4.311 297.72,5.085 297.378,5.661 C296.982,6.336 296.406,6.678 295.641,6.678 C294.867,6.678 294.291,6.336 293.904,5.661 C293.562,5.085 293.391,4.311 293.391,3.339 C293.391,2.367 293.562,1.593 293.904,1.017 C294.291,0.333 294.867,0 295.641,0 Z M295.641,0.63 C295.065,0.63 294.651,0.936 294.399,1.557 C294.219,1.989 294.129,2.583 294.129,3.339 C294.129,4.086 294.219,4.68 294.399,5.121 C294.651,5.733 295.065,6.048 295.641,6.048 C296.217,6.048 296.631,5.733 296.883,5.121 C297.063,4.68 297.162,4.086 297.162,3.339 C297.162,2.583 297.063,1.989 296.883,1.557 C296.631,0.936 296.217,0.63 295.641,0.63 Z" id="90" fill="#999999"></path>
                    <path d="M373.674,0.126 L374.25,0.126 L374.25,6.552 L373.512,6.552 L373.512,1.026 C373.107,1.44 372.603,1.728 372,1.908 L372,1.17 C372.288,1.089 372.594,0.963 372.9,0.783 C373.206,0.585 373.458,0.369 373.674,0.126 Z M377.913,0 C378.678,0 379.254,0.333 379.65,1.017 C379.992,1.593 380.163,2.367 380.163,3.339 C380.163,4.311 379.992,5.085 379.65,5.661 C379.254,6.336 378.678,6.678 377.913,6.678 C377.139,6.678 376.563,6.336 376.176,5.661 C375.834,5.085 375.663,4.311 375.663,3.339 C375.663,2.367 375.834,1.593 376.176,1.017 C376.563,0.333 377.139,0 377.913,0 Z M377.913,0.63 C377.337,0.63 376.923,0.936 376.671,1.557 C376.491,1.989 376.401,2.583 376.401,3.339 C376.401,4.086 376.491,4.68 376.671,5.121 C376.923,5.733 377.337,6.048 377.913,6.048 C378.489,6.048 378.903,5.733 379.155,5.121 C379.335,4.68 379.434,4.086 379.434,3.339 C379.434,2.583 379.335,1.989 379.155,1.557 C378.903,0.936 378.489,0.63 377.913,0.63 Z M383.313,0 C384.078,0 384.654,0.333 385.05,1.017 C385.392,1.593 385.563,2.367 385.563,3.339 C385.563,4.311 385.392,5.085 385.05,5.661 C384.654,6.336 384.078,6.678 383.313,6.678 C382.539,6.678 381.963,6.336 381.576,5.661 C381.234,5.085 381.063,4.311 381.063,3.339 C381.063,2.367 381.234,1.593 381.576,1.017 C381.963,0.333 382.539,0 383.313,0 Z M383.313,0.63 C382.737,0.63 382.323,0.936 382.071,1.557 C381.891,1.989 381.801,2.583 381.801,3.339 C381.801,4.086 381.891,4.68 382.071,5.121 C382.323,5.733 382.737,6.048 383.313,6.048 C383.889,6.048 384.303,5.733 384.555,5.121 C384.735,4.68 384.834,4.086 384.834,3.339 C384.834,2.583 384.735,1.989 384.555,1.557 C384.303,0.936 383.889,0.63 383.313,0.63 Z" id="100" fill="#999999"></path>
                </g>
            </g>
        </g>
    </g>
</svg>