<?xml version="1.0" encoding="UTF-8"?>
<svg width="20px" height="22px" viewBox="0 0 20 22" version="1.1" xmlns="http://www.w3.org/2000/svg" xmlns:xlink="http://www.w3.org/1999/xlink">
    <!-- Generator: Sketch 49.2 (51160) - http://www.bohemiancoding.com/sketch -->
    <title>我的-解绑小白信用</title>
    <desc>Created with Sketch.</desc>
    <defs></defs>
    <g id="Page-1" stroke="none" stroke-width="1" fill="none" fill-rule="evenodd">
        <g id="个人中心-京东小白-非会员" transform="translate(-136.000000, -489.000000)">
            <g id="我的-解绑小白信用" transform="translate(134.000000, 488.000000)">
                <path d="M21,14.8 C21,18.7764502 16.9705627,22 12,22 C7.02943725,22 3,18.7764502 3,14.8 L3,2" id="Rectangle-16" stroke="#242424" stroke-width="1.5" stroke-linecap="round" stroke-linejoin="round"></path>
                <path d="M12,1.75 L13.5,1.75 C13.9142136,1.75 14.25,2.08578644 14.25,2.5 L14.25,2.5 C14.25,2.91421356 13.9142136,3.25 13.5,3.25 L12,3.25 C11.5857864,3.25 11.25,2.91421356 11.25,2.5 L11.25,2.5 C11.25,2.08578644 11.5857864,1.75 12,1.75 Z" id="Rectangle-15-Copy-4" fill="#E85C40" fill-rule="evenodd" transform="translate(12.750000, 2.500000) rotate(-270.000000) translate(-12.750000, -2.500000) "></path>
                <rect id="Rectangle-15" fill="#E85C40" fill-rule="evenodd" x="6" y="3" width="14" height="1.5" rx="0.75"></rect>
                <rect id="Rectangle-15-Copy" fill="#E85C40" fill-rule="evenodd" x="6" y="7" width="14" height="1.5" rx="0.75"></rect>
                <rect id="Rectangle-15-Copy-2" fill="#E85C40" fill-rule="evenodd" x="6" y="11" width="14" height="1.5" rx="0.75"></rect>
                <path d="M6.75,15 L16.25,15 C16.6642136,15 17,15.3357864 17,15.75 L17,15.75 C17,16.1642136 16.6642136,16.5 16.25,16.5 L6.75,16.5 C6.33578644,16.5 6,16.1642136 6,15.75 L6,15.75 C6,15.3357864 6.33578644,15 6.75,15 Z" id="Rectangle-15-Copy-3" fill="#E85C40" fill-rule="evenodd"></path>
            </g>
        </g>
    </g>
</svg>