<?xml version="1.0" encoding="UTF-8"?>
<svg width="22px" height="20px" viewBox="0 0 22 20" version="1.1" xmlns="http://www.w3.org/2000/svg" xmlns:xlink="http://www.w3.org/1999/xlink">
    <!-- Generator: Sketch 49.2 (51160) - http://www.bohemiancoding.com/sketch -->
    <title>我的-自在选@1x</title>
    <desc>Created with Sketch.</desc>
    <defs></defs>
    <g id="Page-1" stroke="none" stroke-width="1" fill="none" fill-rule="evenodd">
        <g id="5.1.1-我的-会员" transform="translate(-219.000000, -793.000000)">
            <g id="我的-自在选" transform="translate(218.000000, 791.000000)">
                <g stroke-width="1" fill-rule="evenodd" transform="translate(2.000000, 3.000000)" stroke="#242424" stroke-linecap="round" stroke-linejoin="round">
                    <path d="M1,0 L19,0 L19.8827256,15.88906 C19.943996,16.9919288 19.0996137,17.9356502 17.9967449,17.9969207 C17.9598005,17.9989732 17.9228062,18 17.8858048,18 L2.11419515,18 C1.00962565,18 0.114195153,17.1045695 0.114195153,16 C0.114195153,15.9629986 0.115221979,15.9260044 0.117274447,15.88906 L1,0 Z" id="Rectangle-7" stroke-width="1.5"></path>
                    <path d="M1,3 L18.9844765,3" id="Path-2" stroke-width="1.5"></path>
                </g>
                <circle id="Oval-6" fill="#E85C40" fill-rule="evenodd" cx="8" cy="10" r="1"></circle>
                <circle id="Oval-6-Copy" fill="#E85C40" fill-rule="evenodd" cx="16" cy="10" r="1"></circle>
                <path d="M16,10 L16,10.7142857 C16,13.0812204 14.209139,15 12,15 C9.790861,15 8,13.0812204 8,10.7142857 L8,10" id="Rectangle-12" stroke="#EA5C39" stroke-width="1.5"></path>
            </g>
        </g>
    </g>
</svg>