<?xml version="1.0" encoding="UTF-8"?>
<svg width="24px" height="24px" viewBox="0 0 24 24" version="1.1" xmlns="http://www.w3.org/2000/svg" xmlns:xlink="http://www.w3.org/1999/xlink">
    <!-- Generator: Sketch 49.2 (51160) - http://www.bohemiancoding.com/sketch -->
    <title>我的-不喜欢icon</title>
    <desc>Created with Sketch.</desc>
    <defs></defs>
    <g id="我的-不喜欢icon" stroke="none" stroke-width="1" fill="none" fill-rule="evenodd" stroke-linecap="round" stroke-linejoin="round">
        <path d="M15,9 L22,9 C22.5522847,9 23,9.44771525 23,10 L23,14 C23,14.5522847 22.5522847,15 22,15 L15,15 L15,22 C15,22.5522847 14.5522847,23 14,23 L10,23 C9.44771525,23 9,22.5522847 9,22 L9,15 L2,15 C1.44771525,15 1,14.5522847 1,14 L1,10 C1,9.44771525 1.44771525,9 2,9 L9,9 L9,2 C9,1.44771525 9.44771525,1 10,1 L14,1 C14.5522847,1 15,1.44771525 15,2 L15,9 Z" id="Combined-Shape-Copy" stroke="#E85C40" stroke-width="1.5" transform="translate(12.000000, 12.000000) rotate(-135.000000) translate(-12.000000, -12.000000) "></path>
        <path d="M16.2426407,12 L21.1923882,16.9497475 C21.5829124,17.3402718 21.5829124,17.9734367 21.1923882,18.363961 L18.363961,21.1923882 C17.9734367,21.5829124 17.3402718,21.5829124 16.9497475,21.1923882 L12,16.2426407 L7.05025253,21.1923882 C6.65972824,21.5829124 6.02656326,21.5829124 5.63603897,21.1923882 L2.80761184,18.363961 C2.41708755,17.9734367 2.41708755,17.3402718 2.80761184,16.9497475 L7.75735931,12 L2.80761184,7.05025253 C2.41708755,6.65972824 2.41708755,6.02656326 2.80761184,5.63603897 L5.63603897,2.80761184 C6.02656326,2.41708755 6.65972824,2.41708755 7.05025253,2.80761184 L12,7.75735931" id="Combined-Shape" stroke="#242424" stroke-width="1.5"></path>
    </g>
</svg>