<?xml version="1.0" encoding="UTF-8"?>
<svg width="24px" height="22px" viewBox="0 0 24 22" version="1.1" xmlns="http://www.w3.org/2000/svg" xmlns:xlink="http://www.w3.org/1999/xlink">
    <!-- Generator: Sketch 49.2 (51160) - http://www.bohemiancoding.com/sketch -->
    <title>我的-会员中心icon</title>
    <desc>Created with Sketch.</desc>
    <defs></defs>
    <g id="Page-1" stroke="none" stroke-width="1" fill="none" fill-rule="evenodd" stroke-linecap="round" stroke-linejoin="round">
        <g id="wechat-5.1.1-我的-会员" transform="translate(-50.000000, -669.000000)" stroke-width="1.5">
            <g id="我的-会员中心icon" transform="translate(51.000000, 670.000000)">
                <path d="M0.829344036,6.20501475 L4.34411278,0.902903519 C4.71433072,0.344421061 5.33961915,0.00843559536 6.00966672,0.00795346615 L15.9877845,0.000773763974 C16.6592344,0.000290625795 17.2861212,0.336771534 17.6568122,0.896622684 L21.1717958,6.20527038 C21.6625726,6.94648623 21.6052013,7.92267998 21.0309798,8.60130543 L12.5267726,18.6517321 C11.8132845,19.4949453 10.5513287,19.6001083 9.70811552,18.8866202 C9.62344157,18.814973 9.54487462,18.7364061 9.47322743,18.6517321 L0.969564494,8.60194866 C0.395084986,7.92301834 0.337946964,6.94629878 0.829344036,6.20501475 Z" id="Rectangle-17" stroke="#242424"></path>
                <path d="M15.25,9.58071115 L11.7633863,13.7012546 C11.4066422,14.1228612 10.7756644,14.1754427 10.3540578,13.8186987 C10.3117208,13.7828751 10.2724373,13.7435916 10.2366137,13.7012546 L6.75,9.58071115" id="Rectangle-17-Copy" stroke="#E85C40"></path>
            </g>
        </g>
    </g>
</svg>