<?xml version="1.0" encoding="UTF-8"?>
<svg width="24px" height="24px" viewBox="0 0 24 24" version="1.1" xmlns="http://www.w3.org/2000/svg" xmlns:xlink="http://www.w3.org/1999/xlink">
    <!-- Generator: Sketch 49.2 (51160) - http://www.bohemiancoding.com/sketch -->
    <title>我的-待付款icon</title>
    <desc>Created with Sketch.</desc>
    <defs></defs>
    <g id="我的-待付款icon" stroke="none" stroke-width="1" fill="none" fill-rule="evenodd">
        <g transform="translate(2.000000, 3.000000)">
            <path d="M18,14.5 L18,17 C18,17.5522847 17.5522847,18 17,18 L1,18 C0.44771525,18 6.76353751e-17,17.5522847 0,17 L0,1 C-6.76353751e-17,0.44771525 0.44771525,1.01453063e-16 1,0 L17,0 C17.5522847,-1.01453063e-16 18,0.44771525 18,1 L18,4.4" id="Combined-Shape" stroke="#242424" stroke-width="1.5" stroke-linecap="round"></path>
            <rect id="Rectangle-6" stroke="#EA5C39" stroke-width="1.5" x="12" y="7" width="8" height="5" rx="2"></rect>
            <path d="M17.5,10.5 C16.9477153,10.5 16.5,10.0522847 16.5,9.5 C16.5,8.94771525 16.9477153,8.5 17.5,8.5 C18.0522847,8.5 18.5,8.94771525 18.5,9.5 C18.5,10.0522847 18.0522847,10.5 17.5,10.5 Z" id="Oval-10" fill="#EA5C39" fill-rule="nonzero"></path>
        </g>
    </g>
</svg>