<?xml version="1.0" encoding="UTF-8"?>
<svg width="24px" height="24px" viewBox="0 0 24 24" version="1.1" xmlns="http://www.w3.org/2000/svg" xmlns:xlink="http://www.w3.org/1999/xlink">
    <!-- Generator: Sketch 49.2 (51160) - http://www.bohemiancoding.com/sketch -->
    <title>我的-场合icon</title>
    <desc>Created with Sketch.</desc>
    <defs></defs>
    <g id="我的-场合icon" stroke="none" stroke-width="1" fill="none" fill-rule="evenodd">
        <g>
            <rect id="Rectangle-16-Copy-6" opacity="0.361979167" x="0" y="0" width="24" height="24"></rect>
            <path d="M23,21 L1,21" id="Rectangle-5" stroke="#242424" stroke-width="1.5" stroke-linecap="round"></path>
            <path d="M4,3 L13,3 C13.5522847,3 14,3.44771525 14,4 L14,21 L3,21 L3,4 C3,3.44771525 3.44771525,3 4,3 Z" id="Rectangle-5-Copy-2" stroke="#242424" stroke-width="1.5"></path>
            <path d="M14,12 L20,12 C20.5522847,12 21,12.4477153 21,13 L21,21 L14,21 L14,12 Z" id="Rectangle-5-Copy" stroke="#242424" stroke-width="1.5"></path>
            <path d="M8.5,4.5 L8.5,9.5" id="Rectangle-21" stroke="#EA5C39" stroke-width="1.5" stroke-linecap="round" transform="translate(8.500000, 7.000000) rotate(-90.000000) translate(-8.500000, -7.000000) "></path>
            <path d="M8.5,8.5 L8.5,13.5" id="Rectangle-21-Copy-2" stroke="#EA5C39" stroke-width="1.5" stroke-linecap="round" transform="translate(8.500000, 11.000000) rotate(-90.000000) translate(-8.500000, -11.000000) "></path>
        </g>
    </g>
</svg>