<?xml version="1.0" encoding="UTF-8"?>
<svg width="24px" height="24px" viewBox="0 0 24 24" version="1.1" xmlns="http://www.w3.org/2000/svg" xmlns:xlink="http://www.w3.org/1999/xlink">
    <!-- Generator: Sketch 49.2 (51160) - http://www.bohemiancoding.com/sketch -->
    <title>我的-晒单icon</title>
    <desc>Created with Sketch.</desc>
    <defs></defs>
    <g id="我的-晒单icon" stroke="none" stroke-width="1" fill="none" fill-rule="evenodd">
        <g>
            <rect id="Rectangle-16-Copy-9" x="0" y="0" width="24" height="24"></rect>
            <path d="M7,5 L7.7236068,3.5527864 C7.89299881,3.21400238 8.23926193,3 8.61803399,3 L15.381966,3 C15.7607381,3 16.1070012,3.21400238 16.2763932,3.5527864 L17,5 L21,5 C21.5522847,5 22,5.44771525 22,6 L22,19 C22,19.5522847 21.5522847,20 21,20 L3,20 C2.44771525,20 2,19.5522847 2,19 L2,6 C2,5.44771525 2.44771525,5 3,5 L7,5 Z" id="Combined-Shape" stroke="#242424" stroke-width="1.5" stroke-linecap="round"></path>
            <circle id="Oval-13" stroke="#EA5C39" stroke-width="1.5" stroke-linecap="round" cx="12" cy="12" r="4"></circle>
            <path d="M18,8 L19,8" id="Path-12" stroke="#EA5C39" stroke-width="1.5" stroke-linecap="round"></path>
        </g>
    </g>
</svg>