<?xml version="1.0" encoding="UTF-8"?>
<svg width="16px" height="16px" viewBox="0 0 16 16" version="1.1" xmlns="http://www.w3.org/2000/svg" xmlns:xlink="http://www.w3.org/1999/xlink">
    <!-- Generator: Sketch 49.2 (51160) - http://www.bohemiancoding.com/sketch -->
    <title>疑问@2x</title>
    <desc>Created with Sketch.</desc>
    <defs></defs>
    <g id="Page-1" stroke="none" stroke-width="1" fill="none" fill-rule="evenodd">
        <g id="5.3.2已开通自在选" transform="translate(-151.000000, -453.000000)">
            <g id="使用帮助" transform="translate(151.000000, 452.000000)">
                <g id="疑问" transform="translate(0.000000, 1.000000)">
                    <path d="M8,16 C3.581722,16 0,12.418278 0,8 C0,3.581722 3.581722,0 8,0 C12.418278,0 16,3.581722 16,8 C16,12.418278 12.418278,16 8,16 Z" id="Oval-13" fill="#CCCCCC" fill-rule="nonzero"></path>
                    <path d="M7.951,3 C8.783,3 9.446,3.221 9.953,3.689 C10.434,4.131 10.681,4.742 10.681,5.522 C10.681,6.107 10.512,6.614 10.187,7.043 C10.057,7.199 9.706,7.537 9.134,8.044 C8.848,8.291 8.653,8.525 8.523,8.759 C8.354,9.045 8.276,9.357 8.276,9.708 L8.276,10.007 L7.236,10.007 L7.236,9.708 C7.236,9.279 7.314,8.902 7.47,8.577 C7.652,8.187 8.081,7.693 8.783,7.069 C8.991,6.861 9.147,6.705 9.225,6.601 C9.485,6.276 9.615,5.938 9.615,5.574 C9.615,5.054 9.459,4.651 9.173,4.365 C8.874,4.053 8.445,3.91 7.899,3.91 C7.249,3.91 6.768,4.118 6.456,4.547 C6.17,4.911 6.027,5.405 6.027,6.042 L5,6.042 C5,5.132 5.247,4.404 5.767,3.858 C6.287,3.286 7.015,3 7.951,3 Z M7.756,10.917 C7.977,10.917 8.172,10.982 8.328,11.138 C8.471,11.281 8.549,11.463 8.549,11.684 C8.549,11.918 8.471,12.1 8.315,12.243 C8.159,12.386 7.977,12.464 7.756,12.464 C7.535,12.464 7.353,12.386 7.197,12.243 C7.041,12.087 6.976,11.905 6.976,11.684 C6.976,11.463 7.041,11.281 7.197,11.138 C7.353,10.982 7.535,10.917 7.756,10.917 Z" id="？" fill="#FFFFFF"></path>
                </g>
            </g>
        </g>
    </g>
</svg>