<?xml version="1.0" encoding="UTF-8"?>
<svg width="16px" height="16px" viewBox="0 0 16 16" version="1.1" xmlns="http://www.w3.org/2000/svg" xmlns:xlink="http://www.w3.org/1999/xlink">
    <!-- Generator: Sketch 49.2 (51160) - http://www.bohemiancoding.com/sketch -->
    <title>删  除</title>
    <desc>Created with Sketch.</desc>
    <defs></defs>
    <g id="Page-1" stroke="none" stroke-width="1" fill="none" fill-rule="evenodd">
        <g id="3.评价单品-去确认" transform="translate(-338.000000, -506.000000)" fill-rule="nonzero">
            <g id="Group-9" transform="translate(15.000000, 500.000000)">
                <g id="删--除" transform="translate(323.000000, 6.000000)">
                    <path d="M8.0042446,0.0123742204 C3.57780537,0.0123742204 0.0127733888,3.58593499 0.0127733888,8.01237422 C0.0127733888,12.4388135 3.58633416,16.0123742 8.01277339,16.0123742 C12.4392126,16.0123742 16.0127734,12.4388135 16.0127734,8.01237422 C16.0127734,3.58593499 12.4306838,0.0123742204 8.0042446,0.0123742204" id="Shape" fill="#E5E5E5"></path>
                    <path d="M11.3299958,11.3551435 C11.117106,11.5680333 10.74242,11.5680333 10.5295301,11.3551435 L7.97485239,8.8004657 L5.42017464,11.3551435 C5.20728482,11.5680333 4.83259875,11.5680333 4.61970894,11.3551435 C4.40681913,11.1422536 4.40681913,10.7675676 4.61970894,10.5546778 L7.17438669,8 L4.61970894,5.44532225 C4.40681913,5.23243243 4.40681913,4.85774636 4.61970894,4.64485655 C4.83259875,4.43196674 5.20728482,4.43196674 5.42017464,4.64485655 L7.97485239,7.1995343 L10.5295301,4.64485655 C10.74242,4.43196674 11.117106,4.43196674 11.3299958,4.64485655 C11.5428857,4.85774636 11.5428857,5.23243243 11.3299958,5.44532225 L8.77531809,8 L11.3299958,10.5546778 C11.5939792,10.7675676 11.5939792,11.1422536 11.3299958,11.3551435 Z" id="Shape" fill="#FFFFFF"></path>
                </g>
            </g>
        </g>
    </g>
</svg>