<?xml version="1.0" encoding="UTF-8"?>
<svg width="70px" height="81px" viewBox="0 0 70 81" version="1.1" xmlns="http://www.w3.org/2000/svg" xmlns:xlink="http://www.w3.org/1999/xlink">
    <!-- Generator: Sketch 49.2 (51160) - http://www.bohemiancoding.com/sketch -->
    <title>常见问题</title>
    <desc>Created with Sketch.</desc>
    <defs>
        <filter x="-42.9%" y="-42.9%" width="185.7%" height="185.7%" filterUnits="objectBoundingBox" id="filter-1">
            <feGaussianBlur stdDeviation="6" in="SourceGraphic"></feGaussianBlur>
        </filter>
        <linearGradient x1="50%" y1="100%" x2="50%" y2="3.061617e-15%" id="linearGradient-2">
            <stop stop-color="#FFA300" offset="0%"></stop>
            <stop stop-color="#FFDB00" offset="100%"></stop>
        </linearGradient>
        <circle id="path-3" cx="27" cy="27" r="27"></circle>
        <filter x="-11.9%" y="-11.9%" width="123.7%" height="123.7%" filterUnits="objectBoundingBox" id="filter-5">
            <feGaussianBlur stdDeviation="1" in="SourceGraphic"></feGaussianBlur>
        </filter>
    </defs>
    <g id="Page-1" stroke="none" stroke-width="1" fill="none" fill-rule="evenodd">
        <g id="首页-非会员-切图" transform="translate(-272.000000, -569.000000)">
            <g id="玩转托特衣箱" transform="translate(17.000000, 374.000000)">
                <g transform="translate(27.000000, 198.000000)" id="常见问题">
                    <g transform="translate(234.000000, 0.000000)">
                        <path d="M7.019,72.048 L4.159,72.048 L4.159,69.188 L10.867,69.188 L10.867,72.048 L7.981,72.048 L7.981,73.088 L12.115,73.088 L12.115,75.454 C12.115,76.234 11.712,76.624 10.932,76.624 L9.892,76.624 L9.645,75.727 L10.633,75.766 C10.997,75.766 11.192,75.584 11.192,75.246 L11.192,73.946 L7.981,73.946 L7.981,77.326 L7.019,77.326 L7.019,73.946 L3.873,73.946 L3.873,76.702 L2.95,76.702 L2.95,73.088 L7.019,73.088 L7.019,72.048 Z M7.019,65.314 L7.981,65.314 L7.981,67.303 L9.632,67.303 C10.035,66.731 10.386,66.133 10.672,65.496 L11.543,65.821 C11.244,66.393 10.932,66.887 10.62,67.303 L12.908,67.303 L12.908,69.929 L11.946,69.929 L11.946,68.187 L3.054,68.187 L3.054,69.942 L2.092,69.942 L2.092,67.303 L4.211,67.303 C3.964,66.809 3.665,66.341 3.327,65.912 L4.211,65.587 C4.549,66.068 4.861,66.64 5.134,67.303 L7.019,67.303 L7.019,65.314 Z M9.97,71.255 L9.97,69.981 L5.069,69.981 L5.069,71.255 L9.97,71.255 Z M24.357,65.925 L24.357,73.075 L23.408,73.075 L23.408,66.835 L17.636,66.835 L17.636,73.088 L16.7,73.088 L16.7,65.925 L24.357,65.925 Z M19.976,67.706 L20.899,67.706 L20.899,70.15 C20.847,72.087 20.379,73.634 19.508,74.791 C18.663,75.87 17.272,76.715 15.335,77.326 L14.828,76.533 C16.752,75.935 18.091,75.142 18.845,74.154 C19.547,73.127 19.924,71.788 19.976,70.15 L19.976,67.706 Z M24.604,77.053 L22.056,77.053 C21.224,77.053 20.821,76.572 20.821,75.623 L20.821,72.139 L21.744,72.139 L21.744,75.454 C21.744,75.922 21.926,76.169 22.316,76.169 L24.357,76.169 C24.578,76.169 24.76,76.104 24.903,75.987 C25.085,75.818 25.215,75.22 25.267,74.206 L26.164,74.492 C26.047,75.714 25.865,76.468 25.618,76.728 C25.384,76.936 25.046,77.04 24.604,77.053 Z M37.483,77.222 L36.092,77.222 L35.858,76.351 L37.288,76.377 C37.782,76.377 38.029,76.091 38.029,75.519 L38.029,67.043 L32.985,67.043 L32.985,66.133 L38.978,66.133 L38.978,75.766 C38.978,76.728 38.471,77.222 37.483,77.222 Z M28.422,67.537 L29.371,67.537 L29.371,77.313 L28.422,77.313 L28.422,67.537 Z M31.334,69.409 L36.014,69.409 L36.014,74.297 L31.334,74.297 L31.334,69.409 Z M35.065,73.4 L35.065,70.306 L32.283,70.306 L32.283,73.4 L35.065,73.4 Z M30.359,65.275 C30.957,65.99 31.503,66.77 31.971,67.628 L31.139,68.057 C30.645,67.147 30.086,66.354 29.488,65.652 L30.359,65.275 Z M49.855,76.208 C51.155,76.208 52.13,76.182 52.78,76.156 L52.624,77.092 L50.063,77.092 C46.943,77.092 45.006,76.923 44.226,76.585 C43.537,76.299 42.926,75.766 42.393,75.012 C42.159,75.844 41.834,76.611 41.418,77.313 L40.742,76.715 C41.444,75.532 41.821,74.206 41.886,72.724 L42.718,72.828 C42.692,73.27 42.653,73.673 42.588,74.063 C42.926,74.596 43.303,75.012 43.706,75.311 L43.706,72.152 L41.132,72.152 L41.132,71.294 L46.644,71.294 L46.644,72.152 L44.538,72.152 L44.538,73.53 L46.319,73.53 L46.319,74.362 L44.538,74.362 L44.538,75.779 C44.616,75.805 44.681,75.831 44.733,75.857 C45.487,76.091 47.19,76.208 49.855,76.208 Z M41.717,65.886 L46.15,65.886 L46.15,70.423 L41.717,70.423 L41.717,65.886 Z M45.24,69.643 L45.24,68.538 L42.627,68.538 L42.627,69.643 L45.24,69.643 Z M42.627,67.81 L45.24,67.81 L45.24,66.666 L42.627,66.666 L42.627,67.81 Z M46.826,65.899 L52.442,65.899 L52.442,66.757 L50.102,66.757 C50.063,67.121 50.011,67.459 49.933,67.797 L52.078,67.797 L52.078,73.049 L51.207,73.049 L51.207,68.603 L48.061,68.603 L48.061,73.049 L47.229,73.049 L47.229,67.797 L49.088,67.797 C49.166,67.459 49.218,67.108 49.257,66.757 L46.826,66.757 L46.826,65.899 Z M50.57,73.088 C51.376,73.712 52.052,74.336 52.598,74.96 L51.935,75.61 C51.454,75.012 50.791,74.362 49.946,73.686 L50.57,73.088 Z M49.205,69.214 L50.063,69.214 L50.063,71.047 C50.037,72.282 49.79,73.27 49.348,74.011 C48.906,74.7 48.178,75.233 47.19,75.623 L46.683,74.817 C47.619,74.479 48.269,74.011 48.646,73.426 C48.984,72.815 49.179,72.022 49.205,71.047 L49.205,69.214 Z" fill="#5E5E5E"></path>
                        <circle id="Path-Copy" fill="#BA750C" opacity="0.5" filter="url(#filter-1)" cx="29" cy="32" r="21"></circle>
                        <mask id="mask-4" fill="white">
                            <use xlink:href="#path-3"></use>
                        </mask>
                        <use id="Mask" fill="url(#linearGradient-2)" xlink:href="#path-3"></use>
                        <path d="M-18,47.7692675 L-4.15274359,41.4292886 C1.51153187,38.835895 8.09741067,39.2465778 13.39562,42.523571 L13.39562,42.523571 C18.77022,45.8478125 25.342755,46.6159671 31.3390661,44.6206827 L34.7782011,43.4763037 C43.1041064,40.7058423 52.1459116,41.0013317 60.2731655,44.3094883 L68.7729152,47.7692675 L26.7779985,58 L-18,47.7692675 Z" id="Path-14" fill-opacity="0.2" fill="#FFFFFF" mask="url(#mask-4)"></path>
                        <path d="M-7,47.7692675 L6.84725641,41.4292886 C12.5115319,38.835895 19.0974107,39.2465778 24.39562,42.523571 L24.39562,42.523571 C29.77022,45.8478125 36.342755,46.6159671 42.3390661,44.6206827 L45.7782011,43.4763037 C54.1041064,40.7058423 63.1459116,41.0013317 71.2731655,44.3094883 L79.7729152,47.7692675 L37.7779985,58 L-7,47.7692675 Z" id="Path-14-Copy" fill-opacity="0.2" fill="#FFFFFF" mask="url(#mask-4)"></path>
                        <path d="M21.2814726,41.582025 L16.6009352,42.1579067 L17.4951445,37.923936 C16.7365905,36.7961291 16.1484939,35.5257532 15.7770416,34.1394741 C13.9707891,27.3984481 17.9712135,20.4695099 24.7122395,18.6632574 C31.4532655,16.8570049 38.3822037,20.8574293 40.1884562,27.5984553 C41.9947086,34.3394813 37.9942843,41.2684195 31.2532583,43.074672 C27.7274441,44.019411 24.150223,43.3756235 21.2814726,41.582025 Z" id="Combined-Shape" fill="#CE8C02" opacity="0.8" filter="url(#filter-5)" mask="url(#mask-4)"></path>
                        <path d="M20.4214198,36.9569567 L15.1401746,37.606748 L16.1491482,32.8293826 C15.2932401,31.5568311 14.6296663,30.1234131 14.2105411,28.5592166 C12.1724712,20.9530363 16.6863166,13.1348268 24.2924969,11.0967569 C31.8986772,9.05868704 39.7168868,13.5725324 41.7549567,21.1787127 C43.7930265,28.7848931 39.2791812,36.6031026 31.6730008,38.6411725 C27.6946779,39.7071609 23.6583503,38.9807486 20.4214198,36.9569567 Z" id="Combined-Shape-Copy-5" fill="#FFFFFF" opacity="0.200000003" mask="url(#mask-4)"></path>
                        <path d="M20.4214198,38.9569567 L15.1401746,39.606748 L16.1491482,34.8293826 C15.2932401,33.5568311 14.6296663,32.1234131 14.2105411,30.5592166 C12.1724712,22.9530363 16.6863166,15.1348268 24.2924969,13.0967569 C31.8986772,11.058687 39.7168868,15.5725324 41.7549567,23.1787127 C43.7930265,30.7848931 39.2791812,38.6031026 31.6730008,40.6411725 C27.6946779,41.7071609 23.6583503,40.9807486 20.4214198,38.9569567 Z" id="Combined-Shape-Copy-6" fill="#FFFFFF" opacity="0.979999959" mask="url(#mask-4)"></path>
                        <path d="M28,29.7396744 C28,28.4265348 28.4300325,27.4111911 29.87386,26.3663052 C30.6770901,25.7850143 31.1996547,24.8397728 31.1996547,23.7724798 C31.1996547,22.0053593 29.7671205,20.572825 28,20.572825 C26.2328795,20.572825 24.8003453,22.0053593 24.8003453,23.7724798" id="Oval-3" stroke="#FFAD00" stroke-width="2" stroke-linecap="round" stroke-linejoin="round" mask="url(#mask-4)"></path>
                        <circle id="Oval-5" stroke="#FFAD00" stroke-width="0.5" fill="#FFAD00" mask="url(#mask-4)" cx="28" cy="34" r="1"></circle>
                        <circle id="Oval-17" fill="#FFFFFF" opacity="0.800000012" mask="url(#mask-4)" cx="25" cy="7" r="1"></circle>
                        <circle id="Oval-17-Copy" fill="#FFFFFF" opacity="0.800000012" mask="url(#mask-4)" cx="46" cy="23" r="1"></circle>
                        <circle id="Oval-17-Copy-2" fill="#FFFFFF" mask="url(#mask-4)" cx="8.5" cy="30.5" r="1.5"></circle>
                        <circle id="Oval-17-Copy-4" fill="#FFFFFF" mask="url(#mask-4)" cx="42.5" cy="34.5" r="1"></circle>
                        <circle id="Oval-17-Copy-3" fill="#FFFFFF" mask="url(#mask-4)" cx="6.5" cy="22.5" r="1"></circle>
                    </g>
                </g>
            </g>
        </g>
    </g>
</svg>