<?xml version="1.0" encoding="UTF-8"?>
<svg width="288px" height="53px" viewBox="0 0 288 53" version="1.1" xmlns="http://www.w3.org/2000/svg" xmlns:xlink="http://www.w3.org/1999/xlink">
    <!-- Generator: Sketch 49.2 (51160) - http://www.bohemiancoding.com/sketch -->
    <title>流程</title>
    <desc>Created with Sketch.</desc>
    <defs></defs>
    <g id="Page-1" stroke="none" stroke-width="1" fill="none" fill-rule="evenodd">
        <g id="首页-非会员-切图" transform="translate(-44.000000, -489.000000)">
            <g id="玩转托特衣箱" transform="translate(17.000000, 374.000000)">
                <g id="流程" transform="translate(27.000000, 114.000000)">
                    <g id="1、选衣入箱文字" transform="translate(0.000000, 35.000000)" fill="#5E5E5E">
                        <path d="M1.344,7.916 L10.692,7.916 L10.692,8.756 L8.688,8.756 L8.688,11.936 L11.316,11.936 L11.316,12.764 L8.688,12.764 L8.688,18.08 L7.812,18.08 L7.812,12.764 L4.344,12.764 C4.236,14 4.008,15.02 3.648,15.836 C3.192,16.844 2.436,17.624 1.38,18.176 L0.912,17.432 C1.884,16.88 2.568,16.148 2.952,15.236 C3.204,14.54 3.372,13.724 3.468,12.764 L0.696,12.764 L0.696,11.936 L3.516,11.936 C3.516,11.78 3.528,11.636 3.528,11.516 L3.528,8.756 L1.344,8.756 L1.344,7.916 Z M4.416,8.756 L4.416,11.516 C4.416,11.66 4.404,11.804 4.404,11.936 L7.812,11.936 L7.812,8.756 L4.416,8.756 Z M13.512,7.388 C14.34,8.012 15.036,8.636 15.6,9.26 L14.988,9.86 C14.484,9.26 13.8,8.624 12.924,7.952 L13.512,7.388 Z M20.532,17.984 C19.872,17.984 19.152,17.972 18.384,17.96 C17.604,17.948 16.968,17.876 16.488,17.744 C16.008,17.6 15.576,17.3 15.204,16.868 C15.036,16.664 14.88,16.568 14.736,16.568 C14.448,16.568 13.968,17.12 13.308,18.224 L12.66,17.636 C13.296,16.628 13.86,16.016 14.352,15.8 L14.352,12.152 L12.648,12.152 L12.648,11.36 L15.156,11.36 L15.156,15.848 C15.252,15.92 15.348,16.004 15.456,16.124 C15.744,16.472 16.056,16.724 16.392,16.88 C16.776,17.048 17.316,17.144 18.036,17.168 C18.672,17.18 19.464,17.192 20.412,17.192 C20.964,17.192 21.54,17.18 22.128,17.168 C22.704,17.156 23.148,17.144 23.46,17.12 L23.256,17.984 L20.532,17.984 Z M18.384,8.54 C18.888,8.84 19.356,9.14 19.764,9.44 C20.388,9.116 20.964,8.756 21.492,8.348 L16.164,8.348 L16.164,7.616 L22.656,7.616 L22.656,8.24 C21.936,8.864 21.156,9.404 20.316,9.86 L20.508,10.016 L22.884,10.016 L22.884,15.38 C22.884,15.992 22.548,16.304 21.876,16.304 L20.88,16.304 L20.688,15.572 L21.636,15.608 C21.924,15.608 22.068,15.464 22.068,15.2 L22.068,14.3 L20.052,14.3 L20.052,16.364 L19.248,16.364 L19.248,14.3 L17.244,14.3 L17.244,16.4 L16.428,16.4 L16.428,10.016 L19.428,10.016 C18.972,9.692 18.444,9.368 17.856,9.056 L18.384,8.54 Z M17.244,12.536 L17.244,13.592 L19.248,13.592 L19.248,12.536 L17.244,12.536 Z M20.052,12.536 L20.052,13.592 L22.068,13.592 L22.068,12.536 L20.052,12.536 Z M22.068,11.816 L22.068,10.736 L20.052,10.736 L20.052,11.816 L22.068,11.816 Z M19.248,11.816 L19.248,10.736 L17.244,10.736 L17.244,11.816 L19.248,11.816 Z M29.688,7.196 L30.312,7.196 C31.836,8.9 33.588,10.244 35.568,11.228 L35.1,12.056 C33.108,11.012 31.416,9.644 30,7.964 C28.704,9.548 26.988,10.916 24.852,12.068 L24.396,11.24 C26.508,10.16 28.272,8.816 29.688,7.196 Z M27.072,10.88 L32.964,10.88 L32.964,11.696 L27.072,11.696 L27.072,10.88 Z M25.188,13.292 L34.836,13.292 L34.836,14.132 L29.184,14.132 C28.608,15.26 27.912,16.244 27.096,17.096 C29.052,16.976 30.912,16.808 32.688,16.568 C32.28,16.04 31.836,15.488 31.344,14.936 L32.016,14.504 C33.108,15.728 33.948,16.784 34.536,17.684 L33.816,18.188 C33.612,17.864 33.396,17.54 33.156,17.204 C31.284,17.504 28.92,17.744 26.052,17.912 L25.812,17.156 C26.028,17.096 26.172,17.024 26.268,16.928 C27.036,16.04 27.684,15.116 28.2,14.132 L25.188,14.132 L25.188,13.292 Z M46.044,11.552 L46.044,16.028 L45.192,16.028 L45.192,12.344 L38.82,12.344 L38.82,16.172 L37.968,16.172 L37.968,11.552 L46.044,11.552 Z M38.688,7.64 L45.324,7.64 L45.324,10.652 L38.688,10.652 L38.688,7.64 Z M44.484,9.896 L44.484,8.408 L39.528,8.408 L39.528,9.896 L44.484,9.896 Z M41.676,13.124 L42.552,13.196 C42.384,14.96 42.012,16.148 41.436,16.772 C40.812,17.516 39.384,17.996 37.152,18.2 L36.816,17.42 C38.76,17.3 40.056,16.916 40.692,16.256 C41.244,15.644 41.58,14.6 41.676,13.124 Z M42.864,15.908 C44.424,16.352 45.852,16.892 47.148,17.516 L46.68,18.236 C45.3,17.516 43.884,16.964 42.432,16.556 L42.864,15.908 Z" id="开通会员"></path>
                    </g>
                    <g id="1、选衣入箱icon" transform="translate(92.000000, 1.000000)" fill="#242424" fill-rule="nonzero">
                        <path d="M1,28 L18,28 L18,16.5 C18,11.8055796 14.1944204,8 9.5,8 C4.80557963,8 1,11.8055796 1,16.5 L1,28 Z M9.5,7 C14.7467051,7 19,11.2532949 19,16.5 L19,29 L0,29 L0,16.5 C-6.42536064e-16,11.2532949 4.25329488,7 9.5,7 Z" id="Rectangle-11"></path>
                        <path d="M17.6955661,8.39663582 C17.4765101,8.2285016 17.43523,7.91462198 17.6033642,7.69556606 C17.7714984,7.47651014 18.085378,7.43522995 18.3044339,7.60336418 C20.7550385,9.48430172 22.2209279,12.3916084 22.2209279,15.5406561 L22.2209279,28.4897461 C22.2209279,28.7658885 21.9970703,28.9897461 21.7209279,28.9897461 C21.4447855,28.9897461 21.2209279,28.7658885 21.2209279,28.4897461 L21.2209279,15.5406561 C21.2209279,12.7058095 19.9021564,10.0902826 17.6955661,8.39663582 Z" id="Rectangle-11-Copy"></path>
                        <path d="M20.6955661,8.39663582 C20.4765101,8.2285016 20.43523,7.91462198 20.6033642,7.69556606 C20.7714984,7.47651014 21.085378,7.43522995 21.3044339,7.60336418 C23.7550385,9.48430172 25.2209279,12.3916084 25.2209279,15.5406561 L25.2209279,28.4897461 C25.2209279,28.7658885 24.9970703,28.9897461 24.7209279,28.9897461 C24.4447855,28.9897461 24.2209279,28.7658885 24.2209279,28.4897461 L24.2209279,15.5406561 C24.2209279,12.7058095 22.9021564,10.0902826 20.6955661,8.39663582 Z" id="Rectangle-11-Copy-2"></path>
                        <path d="M10,28.5114746 C10,28.787617 9.77614237,29.0114746 9.5,29.0114746 C9.22385763,29.0114746 9,28.787617 9,28.5114746 L9,5.5 L9.5,5.5 C10.6045695,5.5 11.5,4.6045695 11.5,3.5 C11.5,2.3954305 10.6045695,1.5 9.5,1.5 C8.3954305,1.5 7.5,2.3954305 7.5,3.5 C7.5,3.77614237 7.27614237,4 7,4 C6.72385763,4 6.5,3.77614237 6.5,3.5 C6.5,1.84314575 7.84314575,0.5 9.5,0.5 C11.1568542,0.5 12.5,1.84314575 12.5,3.5 C12.5,4.98649814 11.4188567,6.22048173 10,6.45852078 L10,28.5114746 Z" id="Oval"></path>
                    </g>
                    <g id="Group-6" transform="translate(58.000000, 14.000000)" fill="#979797" fill-rule="nonzero">
                        <path d="M0.146446609,0.353553391 C-0.0488155365,0.158291245 -0.0488155365,-0.158291245 0.146446609,-0.353553391 C0.341708755,-0.548815536 0.658291245,-0.548815536 0.853553391,-0.353553391 L2.26776695,1.06066017 C2.4630291,1.25592232 2.4630291,1.57250481 2.26776695,1.76776695 C2.07250481,1.9630291 1.75592232,1.9630291 1.56066017,1.76776695 L0.146446609,0.353553391 Z M2.97487373,3.18198052 C2.77961159,2.98671837 2.77961159,2.67013588 2.97487373,2.47487373 C3.17013588,2.27961159 3.48671837,2.27961159 3.68198052,2.47487373 L5.09619408,3.8890873 C5.29145622,4.08434944 5.29145622,4.40093193 5.09619408,4.59619408 C4.90093193,4.79145622 4.58434944,4.79145622 4.3890873,4.59619408 L2.97487373,3.18198052 Z M4.3890873,5.30330086 C4.58434944,5.10803871 4.90093193,5.10803871 5.09619408,5.30330086 C5.29145622,5.498563 5.29145622,5.81514549 5.09619408,6.01040764 L3.68198052,7.4246212 C3.48671837,7.61988335 3.17013588,7.61988335 2.97487373,7.4246212 C2.77961159,7.22935906 2.77961159,6.91277657 2.97487373,6.71751442 L4.3890873,5.30330086 Z M1.56066017,8.13172798 C1.75592232,7.93646584 2.07250481,7.93646584 2.26776695,8.13172798 C2.4630291,8.32699013 2.4630291,8.64357262 2.26776695,8.83883476 L0.853553391,10.2530483 C0.658291245,10.4483105 0.341708755,10.4483105 0.146446609,10.2530483 C-0.0488155365,10.0577862 -0.0488155365,9.74120369 0.146446609,9.54594155 L1.56066017,8.13172798 Z" id="Rectangle-4-Copy-2"></path>
                        <path d="M5.14644661,0.353553391 C4.95118446,0.158291245 4.95118446,-0.158291245 5.14644661,-0.353553391 C5.34170876,-0.548815536 5.65829124,-0.548815536 5.85355339,-0.353553391 L7.26776695,1.06066017 C7.4630291,1.25592232 7.4630291,1.57250481 7.26776695,1.76776695 C7.07250481,1.9630291 6.75592232,1.9630291 6.56066017,1.76776695 L5.14644661,0.353553391 Z M7.97487373,3.18198052 C7.77961159,2.98671837 7.77961159,2.67013588 7.97487373,2.47487373 C8.17013588,2.27961159 8.48671837,2.27961159 8.68198052,2.47487373 L10.0961941,3.8890873 C10.2914562,4.08434944 10.2914562,4.40093193 10.0961941,4.59619408 C9.90093193,4.79145622 9.58434944,4.79145622 9.3890873,4.59619408 L7.97487373,3.18198052 Z M9.3890873,5.30330086 C9.58434944,5.10803871 9.90093193,5.10803871 10.0961941,5.30330086 C10.2914562,5.498563 10.2914562,5.81514549 10.0961941,6.01040764 L8.68198052,7.4246212 C8.48671837,7.61988335 8.17013588,7.61988335 7.97487373,7.4246212 C7.77961159,7.22935906 7.77961159,6.91277657 7.97487373,6.71751442 L9.3890873,5.30330086 Z M6.56066017,8.13172798 C6.75592232,7.93646584 7.07250481,7.93646584 7.26776695,8.13172798 C7.4630291,8.32699013 7.4630291,8.64357262 7.26776695,8.83883476 L5.85355339,10.2530483 C5.65829124,10.4483105 5.34170876,10.4483105 5.14644661,10.2530483 C4.95118446,10.0577862 4.95118446,9.74120369 5.14644661,9.54594155 L6.56066017,8.13172798 Z" id="Rectangle-4-Copy-3"></path>
                    </g>
                    <g id="Group-6-Copy" transform="translate(139.000000, 14.000000)" fill="#979797" fill-rule="nonzero">
                        <path d="M0.146446609,0.353553391 C-0.0488155365,0.158291245 -0.0488155365,-0.158291245 0.146446609,-0.353553391 C0.341708755,-0.548815536 0.658291245,-0.548815536 0.853553391,-0.353553391 L2.26776695,1.06066017 C2.4630291,1.25592232 2.4630291,1.57250481 2.26776695,1.76776695 C2.07250481,1.9630291 1.75592232,1.9630291 1.56066017,1.76776695 L0.146446609,0.353553391 Z M2.97487373,3.18198052 C2.77961159,2.98671837 2.77961159,2.67013588 2.97487373,2.47487373 C3.17013588,2.27961159 3.48671837,2.27961159 3.68198052,2.47487373 L5.09619408,3.8890873 C5.29145622,4.08434944 5.29145622,4.40093193 5.09619408,4.59619408 C4.90093193,4.79145622 4.58434944,4.79145622 4.3890873,4.59619408 L2.97487373,3.18198052 Z M4.3890873,5.30330086 C4.58434944,5.10803871 4.90093193,5.10803871 5.09619408,5.30330086 C5.29145622,5.498563 5.29145622,5.81514549 5.09619408,6.01040764 L3.68198052,7.4246212 C3.48671837,7.61988335 3.17013588,7.61988335 2.97487373,7.4246212 C2.77961159,7.22935906 2.77961159,6.91277657 2.97487373,6.71751442 L4.3890873,5.30330086 Z M1.56066017,8.13172798 C1.75592232,7.93646584 2.07250481,7.93646584 2.26776695,8.13172798 C2.4630291,8.32699013 2.4630291,8.64357262 2.26776695,8.83883476 L0.853553391,10.2530483 C0.658291245,10.4483105 0.341708755,10.4483105 0.146446609,10.2530483 C-0.0488155365,10.0577862 -0.0488155365,9.74120369 0.146446609,9.54594155 L1.56066017,8.13172798 Z" id="Rectangle-4-Copy-2"></path>
                        <path d="M5.14644661,0.353553391 C4.95118446,0.158291245 4.95118446,-0.158291245 5.14644661,-0.353553391 C5.34170876,-0.548815536 5.65829124,-0.548815536 5.85355339,-0.353553391 L7.26776695,1.06066017 C7.4630291,1.25592232 7.4630291,1.57250481 7.26776695,1.76776695 C7.07250481,1.9630291 6.75592232,1.9630291 6.56066017,1.76776695 L5.14644661,0.353553391 Z M7.97487373,3.18198052 C7.77961159,2.98671837 7.77961159,2.67013588 7.97487373,2.47487373 C8.17013588,2.27961159 8.48671837,2.27961159 8.68198052,2.47487373 L10.0961941,3.8890873 C10.2914562,4.08434944 10.2914562,4.40093193 10.0961941,4.59619408 C9.90093193,4.79145622 9.58434944,4.79145622 9.3890873,4.59619408 L7.97487373,3.18198052 Z M9.3890873,5.30330086 C9.58434944,5.10803871 9.90093193,5.10803871 10.0961941,5.30330086 C10.2914562,5.498563 10.2914562,5.81514549 10.0961941,6.01040764 L8.68198052,7.4246212 C8.48671837,7.61988335 8.17013588,7.61988335 7.97487373,7.4246212 C7.77961159,7.22935906 7.77961159,6.91277657 7.97487373,6.71751442 L9.3890873,5.30330086 Z M6.56066017,8.13172798 C6.75592232,7.93646584 7.07250481,7.93646584 7.26776695,8.13172798 C7.4630291,8.32699013 7.4630291,8.64357262 7.26776695,8.83883476 L5.85355339,10.2530483 C5.65829124,10.4483105 5.34170876,10.4483105 5.14644661,10.2530483 C4.95118446,10.0577862 4.95118446,9.74120369 5.14644661,9.54594155 L6.56066017,8.13172798 Z" id="Rectangle-4-Copy-3"></path>
                    </g>
                    <g id="Group-6-Copy-2" transform="translate(219.000000, 14.000000)" fill="#979797" fill-rule="nonzero">
                        <path d="M0.146446609,0.353553391 C-0.0488155365,0.158291245 -0.0488155365,-0.158291245 0.146446609,-0.353553391 C0.341708755,-0.548815536 0.658291245,-0.548815536 0.853553391,-0.353553391 L2.26776695,1.06066017 C2.4630291,1.25592232 2.4630291,1.57250481 2.26776695,1.76776695 C2.07250481,1.9630291 1.75592232,1.9630291 1.56066017,1.76776695 L0.146446609,0.353553391 Z M2.97487373,3.18198052 C2.77961159,2.98671837 2.77961159,2.67013588 2.97487373,2.47487373 C3.17013588,2.27961159 3.48671837,2.27961159 3.68198052,2.47487373 L5.09619408,3.8890873 C5.29145622,4.08434944 5.29145622,4.40093193 5.09619408,4.59619408 C4.90093193,4.79145622 4.58434944,4.79145622 4.3890873,4.59619408 L2.97487373,3.18198052 Z M4.3890873,5.30330086 C4.58434944,5.10803871 4.90093193,5.10803871 5.09619408,5.30330086 C5.29145622,5.498563 5.29145622,5.81514549 5.09619408,6.01040764 L3.68198052,7.4246212 C3.48671837,7.61988335 3.17013588,7.61988335 2.97487373,7.4246212 C2.77961159,7.22935906 2.77961159,6.91277657 2.97487373,6.71751442 L4.3890873,5.30330086 Z M1.56066017,8.13172798 C1.75592232,7.93646584 2.07250481,7.93646584 2.26776695,8.13172798 C2.4630291,8.32699013 2.4630291,8.64357262 2.26776695,8.83883476 L0.853553391,10.2530483 C0.658291245,10.4483105 0.341708755,10.4483105 0.146446609,10.2530483 C-0.0488155365,10.0577862 -0.0488155365,9.74120369 0.146446609,9.54594155 L1.56066017,8.13172798 Z" id="Rectangle-4-Copy-2"></path>
                        <path d="M5.14644661,0.353553391 C4.95118446,0.158291245 4.95118446,-0.158291245 5.14644661,-0.353553391 C5.34170876,-0.548815536 5.65829124,-0.548815536 5.85355339,-0.353553391 L7.26776695,1.06066017 C7.4630291,1.25592232 7.4630291,1.57250481 7.26776695,1.76776695 C7.07250481,1.9630291 6.75592232,1.9630291 6.56066017,1.76776695 L5.14644661,0.353553391 Z M7.97487373,3.18198052 C7.77961159,2.98671837 7.77961159,2.67013588 7.97487373,2.47487373 C8.17013588,2.27961159 8.48671837,2.27961159 8.68198052,2.47487373 L10.0961941,3.8890873 C10.2914562,4.08434944 10.2914562,4.40093193 10.0961941,4.59619408 C9.90093193,4.79145622 9.58434944,4.79145622 9.3890873,4.59619408 L7.97487373,3.18198052 Z M9.3890873,5.30330086 C9.58434944,5.10803871 9.90093193,5.10803871 10.0961941,5.30330086 C10.2914562,5.498563 10.2914562,5.81514549 10.0961941,6.01040764 L8.68198052,7.4246212 C8.48671837,7.61988335 8.17013588,7.61988335 7.97487373,7.4246212 C7.77961159,7.22935906 7.77961159,6.91277657 7.97487373,6.71751442 L9.3890873,5.30330086 Z M6.56066017,8.13172798 C6.75592232,7.93646584 7.07250481,7.93646584 7.26776695,8.13172798 C7.4630291,8.32699013 7.4630291,8.64357262 7.26776695,8.83883476 L5.85355339,10.2530483 C5.65829124,10.4483105 5.34170876,10.4483105 5.14644661,10.2530483 C4.95118446,10.0577862 4.95118446,9.74120369 5.14644661,9.54594155 L6.56066017,8.13172798 Z" id="Rectangle-4-Copy-3"></path>
                    </g>
                    <g id="2、收衣穿衣文字" transform="translate(80.000000, 35.000000)" fill="#5E5E5E">
                        <path d="M1.512,7.388 C2.316,8.012 2.988,8.636 3.54,9.26 L2.94,9.86 C2.448,9.26 1.776,8.624 0.924,7.952 L1.512,7.388 Z M8.484,17.984 C7.836,17.984 7.116,17.972 6.348,17.96 C5.58,17.948 4.944,17.876 4.464,17.744 C3.996,17.6 3.576,17.3 3.204,16.868 C3.036,16.664 2.88,16.568 2.736,16.568 C2.436,16.568 1.956,17.12 1.284,18.248 L0.636,17.66 C1.284,16.64 1.848,16.016 2.352,15.8 L2.352,12.152 L0.648,12.152 L0.648,11.36 L3.156,11.36 L3.156,15.848 C3.252,15.92 3.348,16.016 3.444,16.124 C3.732,16.472 4.044,16.724 4.38,16.88 C4.752,17.048 5.292,17.144 6.012,17.168 C6.636,17.18 7.428,17.192 8.364,17.192 C8.94,17.192 9.528,17.18 10.128,17.168 C10.704,17.156 11.16,17.144 11.484,17.12 L11.268,17.984 L8.484,17.984 Z M7.452,7.16 L8.292,7.16 L8.292,8.696 L10.692,8.696 L10.692,9.524 L8.292,9.524 L8.292,11.24 L11.112,11.24 L11.112,12.08 L9.096,12.08 L9.096,15.296 C9.096,15.512 9.216,15.632 9.48,15.632 L9.912,15.632 C10.08,15.632 10.2,15.596 10.296,15.524 C10.44,15.416 10.536,14.936 10.584,14.084 L11.34,14.336 C11.268,15.332 11.136,15.92 10.956,16.112 C10.788,16.28 10.5,16.376 10.092,16.388 L9.228,16.388 C8.916,16.388 8.688,16.304 8.532,16.136 C8.364,15.968 8.292,15.752 8.292,15.488 L8.292,12.08 L7.08,12.08 C7.044,12.908 6.924,13.628 6.72,14.228 C6.408,15.14 5.676,15.896 4.548,16.484 L3.984,15.8 C4.956,15.32 5.592,14.72 5.904,14 C6.108,13.472 6.228,12.824 6.264,12.08 L4.332,12.08 L4.332,11.24 L7.452,11.24 L7.452,9.524 L5.508,9.524 C5.292,9.98 5.052,10.388 4.788,10.772 L4.032,10.304 C4.68,9.404 5.148,8.408 5.436,7.328 L6.264,7.496 C6.144,7.916 6.012,8.312 5.868,8.696 L7.452,8.696 L7.452,7.16 Z M18.012,9.872 L17.916,9.872 C17.436,10.94 16.788,11.912 15.984,12.788 L15.984,16.976 C17.076,16.676 18.096,16.316 19.032,15.908 L19.188,16.76 C18.012,17.228 16.596,17.672 14.952,18.104 L14.748,17.276 C14.988,17.18 15.12,17.036 15.12,16.82 L15.12,13.628 C14.496,14.18 13.8,14.684 13.044,15.14 L12.588,14.396 C14.64,13.22 16.116,11.72 17.016,9.872 L12.864,9.872 L12.864,9.044 L17.652,9.044 C17.412,8.42 17.16,7.856 16.872,7.34 L17.796,7.196 C18.06,7.736 18.3,8.348 18.54,9.044 L23.136,9.044 L23.136,9.872 L18.852,9.872 C19.044,11.048 19.368,12.128 19.848,13.088 C20.652,12.644 21.408,11.972 22.128,11.06 L22.74,11.684 C21.996,12.596 21.168,13.304 20.232,13.784 C21,15.092 22.056,16.196 23.376,17.096 L22.836,17.984 C20.148,16.04 18.54,13.328 18.012,9.872 Z M29.472,9.98 C28.92,8.972 28.26,8.204 27.492,7.652 L28.212,7.196 C29.28,7.94 30.18,9.296 30.924,11.24 C32.052,14.108 33.552,16.136 35.448,17.324 L34.908,18.02 C32.964,16.844 31.38,14.66 30.144,11.492 C30.072,11.3 30.012,11.132 29.952,10.988 C29.16,14.048 27.504,16.4 24.984,18.032 L24.468,17.3 C27.036,15.62 28.704,13.172 29.472,9.98 Z M36.852,11.792 L38.784,11.792 L38.784,10.52 L39.66,10.52 L39.66,11.792 L41.292,11.792 L41.292,12.632 L39.66,12.632 L39.66,13.028 C40.248,13.592 40.848,14.216 41.448,14.9 L40.968,15.62 C40.464,14.876 40.02,14.276 39.66,13.82 L39.66,18.212 L38.784,18.212 L38.784,13.748 C38.292,14.852 37.62,15.848 36.78,16.736 L36.408,15.776 C37.452,14.852 38.208,13.808 38.676,12.632 L36.852,12.632 L36.852,11.792 Z M46.656,10.928 L46.656,18.212 L45.828,18.212 L45.828,17.672 L42.78,17.672 L42.78,18.212 L41.952,18.212 L41.952,10.928 L46.656,10.928 Z M42.78,16.904 L45.828,16.904 L45.828,15.572 L42.78,15.572 L42.78,16.904 Z M42.78,14.828 L45.828,14.828 L45.828,13.64 L42.78,13.64 L42.78,14.828 Z M42.78,12.896 L45.828,12.896 L45.828,11.696 L42.78,11.696 L42.78,12.896 Z M38.376,8.876 C38.088,9.368 37.764,9.824 37.392,10.232 L36.636,9.752 C37.38,8.96 37.932,8.084 38.268,7.112 L39.096,7.292 C39,7.58 38.892,7.844 38.772,8.108 L41.94,8.108 L41.94,8.876 L40.008,8.876 C40.344,9.32 40.608,9.728 40.812,10.112 L40.008,10.412 C39.744,9.884 39.444,9.38 39.084,8.876 L38.376,8.876 Z M43.512,8.876 C43.248,9.404 42.96,9.896 42.636,10.352 L41.892,9.884 C42.54,9.02 43.02,8.084 43.308,7.052 L44.136,7.232 C44.04,7.532 43.944,7.82 43.836,8.108 L47.412,8.108 L47.412,8.876 L45.144,8.876 C45.48,9.308 45.744,9.704 45.948,10.076 L45.192,10.352 C44.916,9.848 44.604,9.356 44.244,8.876 L43.512,8.876 Z" id="选衣入箱"></path>
                    </g>
                    <g id="3、归还衣箱文字" transform="translate(160.000000, 35.000000)" fill="#5E5E5E">
                        <path d="M1.08,15.824 L0.816,15.092 C0.984,15.02 1.08,14.924 1.08,14.804 L1.08,8.228 L1.92,8.228 L1.92,14.78 C2.52,14.612 3.12,14.408 3.72,14.18 L3.72,7.256 L4.572,7.256 L4.572,18.128 L3.72,18.128 L3.72,15.02 C2.88,15.32 1.992,15.584 1.08,15.824 Z M7.02,9.872 C6.876,10.256 6.732,10.616 6.576,10.952 C7.008,12.128 7.56,13.208 8.256,14.192 C8.976,12.968 9.36,11.528 9.432,9.872 L7.02,9.872 Z M6.072,11.888 C5.844,12.248 5.604,12.572 5.352,12.872 L4.812,12.212 C5.796,10.964 6.468,9.272 6.816,7.16 L7.68,7.304 C7.56,7.916 7.428,8.492 7.284,9.02 L11.292,9.02 L11.292,9.872 L10.26,9.872 C10.176,11.84 9.696,13.532 8.808,14.924 C9.6,15.908 10.512,16.784 11.568,17.552 L10.98,18.248 C9.936,17.468 9.036,16.604 8.28,15.668 C7.488,16.664 6.468,17.492 5.22,18.164 L4.728,17.384 C5.988,16.76 6.996,15.956 7.74,14.972 C7.068,14.012 6.504,12.992 6.072,11.888 Z M12.852,11.792 L14.784,11.792 L14.784,10.52 L15.66,10.52 L15.66,11.792 L17.292,11.792 L17.292,12.632 L15.66,12.632 L15.66,13.028 C16.248,13.592 16.848,14.216 17.448,14.9 L16.968,15.62 C16.464,14.876 16.02,14.276 15.66,13.82 L15.66,18.212 L14.784,18.212 L14.784,13.748 C14.292,14.852 13.62,15.848 12.78,16.736 L12.408,15.776 C13.452,14.852 14.208,13.808 14.676,12.632 L12.852,12.632 L12.852,11.792 Z M22.656,10.928 L22.656,18.212 L21.828,18.212 L21.828,17.672 L18.78,17.672 L18.78,18.212 L17.952,18.212 L17.952,10.928 L22.656,10.928 Z M18.78,16.904 L21.828,16.904 L21.828,15.572 L18.78,15.572 L18.78,16.904 Z M18.78,14.828 L21.828,14.828 L21.828,13.64 L18.78,13.64 L18.78,14.828 Z M18.78,12.896 L21.828,12.896 L21.828,11.696 L18.78,11.696 L18.78,12.896 Z M14.376,8.876 C14.088,9.368 13.764,9.824 13.392,10.232 L12.636,9.752 C13.38,8.96 13.932,8.084 14.268,7.112 L15.096,7.292 C15,7.58 14.892,7.844 14.772,8.108 L17.94,8.108 L17.94,8.876 L16.008,8.876 C16.344,9.32 16.608,9.728 16.812,10.112 L16.008,10.412 C15.744,9.884 15.444,9.38 15.084,8.876 L14.376,8.876 Z M19.512,8.876 C19.248,9.404 18.96,9.896 18.636,10.352 L17.892,9.884 C18.54,9.02 19.02,8.084 19.308,7.052 L20.136,7.232 C20.04,7.532 19.944,7.82 19.836,8.108 L23.412,8.108 L23.412,8.876 L21.144,8.876 C21.48,9.308 21.744,9.704 21.948,10.076 L21.192,10.352 C20.916,9.848 20.604,9.356 20.244,8.876 L19.512,8.876 Z M25.632,11.708 L34.404,11.708 L34.404,12.512 L32.532,12.512 L32.532,14.048 L35.148,14.048 L35.148,14.828 L32.532,14.828 L32.532,17.144 C32.532,17.84 32.184,18.188 31.5,18.188 L29.748,18.188 L29.556,17.372 C30.144,17.408 30.696,17.432 31.212,17.432 C31.5,17.432 31.656,17.264 31.656,16.94 L31.656,14.828 L31.26,14.828 C30.06,16.172 28.056,17.276 25.248,18.164 L24.792,17.408 C27.288,16.724 29.112,15.86 30.252,14.828 L25.536,14.828 C25.848,14.072 26.088,13.412 26.232,12.836 L27.096,12.908 C26.964,13.34 26.832,13.712 26.7,14.048 L31.656,14.048 L31.656,12.512 L25.632,12.512 L25.632,11.708 Z M30.156,7.088 C30.3,7.388 30.432,7.724 30.564,8.108 L35.052,8.108 L35.052,9.872 L34.212,9.872 L34.212,8.876 L25.776,8.876 L25.776,9.932 L24.936,9.932 L24.936,8.108 L29.688,8.108 C29.556,7.796 29.412,7.496 29.256,7.232 L30.156,7.088 Z M30.912,9.26 C32.208,9.644 33.384,10.124 34.464,10.676 L34.044,11.336 C32.892,10.724 31.704,10.244 30.492,9.896 L30.912,9.26 Z M28.932,9.248 L29.46,9.836 C28.5,10.448 27.288,10.952 25.836,11.36 L25.5,10.664 C26.892,10.304 28.032,9.836 28.932,9.248 Z M42.012,9.872 L41.916,9.872 C41.436,10.94 40.788,11.912 39.984,12.788 L39.984,16.976 C41.076,16.676 42.096,16.316 43.032,15.908 L43.188,16.76 C42.012,17.228 40.596,17.672 38.952,18.104 L38.748,17.276 C38.988,17.18 39.12,17.036 39.12,16.82 L39.12,13.628 C38.496,14.18 37.8,14.684 37.044,15.14 L36.588,14.396 C38.64,13.22 40.116,11.72 41.016,9.872 L36.864,9.872 L36.864,9.044 L41.652,9.044 C41.412,8.42 41.16,7.856 40.872,7.34 L41.796,7.196 C42.06,7.736 42.3,8.348 42.54,9.044 L47.136,9.044 L47.136,9.872 L42.852,9.872 C43.044,11.048 43.368,12.128 43.848,13.088 C44.652,12.644 45.408,11.972 46.128,11.06 L46.74,11.684 C45.996,12.596 45.168,13.304 44.232,13.784 C45,15.092 46.056,16.196 47.376,17.096 L46.836,17.984 C44.148,16.04 42.54,13.328 42.012,9.872 Z" id="收箱穿衣"></path>
                    </g>
                    <g id="2、收衣穿衣icon" transform="translate(168.000000, 0.000000)">
                        <rect id="Rectangle-27-Copy-2" x="0" y="0" width="32" height="32"></rect>
                        <path d="M4,13 L4,28 C4,28.5522847 4.44771525,29 5,29 L27,29 C27.5522847,29 28,28.5522847 28,28 L28,13 L4,13 Z M3,12 L29,12 L29,28 C29,29.1045695 28.1045695,30 27,30 L5,30 C3.8954305,30 3,29.1045695 3,28 L3,12 Z" id="Rectangle-21" fill="#242424" fill-rule="nonzero"></path>
                        <path d="M8.46837495,7 L8.76822128,6.6401844 L8,7 L8.46837495,7 Z M8.46837495,7 L23.5316251,7 L27.6982917,12 L29,12 L24,6 L8,6 L3,12 L4.30170828,12 L8.46837495,7 Z M24,7 L23.2317787,6.6401844 L23.5316251,7 L24,7 Z M24,7 L23.2317787,6.6401844 L23.5316251,7 L24,7 Z M27.6982917,12 L29,12 L24,6 L8,6 L3,12 L4.30170828,12 L8.46837495,7 L23.5316251,7 L27.6982917,12 Z M8.46837495,7 L8,7 L8.76822128,6.6401844 L8.46837495,7 Z" id="Rectangle-9" fill="#242424" fill-rule="nonzero"></path>
                        <polygon id="Path-8" fill="#242424" fill-rule="nonzero" points="15.5 6.1824646 16.5 6.1824646 16.5 12.4897461 15.5 12.4897461"></polygon>
                        <path d="M10,23.5 L10,17.5 C10,17.2238576 10.2238576,17 10.5,17 L10.5,17 C10.7761424,17 11,17.2238576 11,17.5 L11,23.5 C11,23.7761424 10.7761424,24 10.5,24 L10.5,24 C10.2238576,24 10,23.7761424 10,23.5 Z" id="Path-9-Copy" fill="#242424" fill-rule="nonzero"></path>
                        <path d="M19,23.6885986 L19,17.7822266 C19,17.5060842 19.2238576,17.2822266 19.5,17.2822266 L19.5,17.2822266 C19.7761424,17.2822266 20,17.5060842 20,17.7822266 L20,23.6885986 C20,23.964741 19.7761424,24.1885986 19.5,24.1885986 L19.5,24.1885986 C19.2238576,24.1885986 19,23.964741 19,23.6885986 Z" id="Path-9-Copy-3" fill="#242424" fill-rule="nonzero"></path>
                        <path d="M12,25.5 L12,21.5 C12,21.2238576 12.2238576,21 12.5,21 L12.5,21 C12.7761424,21 13,21.2238576 13,21.5 L13,25.5 C13,25.7761424 12.7761424,26 12.5,26 L12.5,26 C12.2238576,26 12,25.7761424 12,25.5 Z" id="Path-9-Copy-2" fill="#242424" fill-rule="nonzero" transform="translate(12.500000, 23.500000) rotate(-270.000000) translate(-12.500000, -23.500000) "></path>
                        <path d="M18.9793701,20.5360107 L18.9793701,15.0284424 C18.9793701,14.7523 19.2032277,14.5284424 19.4793701,14.5284424 L19.4793701,14.5284424 C19.7555125,14.5284424 19.9793701,14.7523 19.9793701,15.0284424 L19.9793701,20.5360107 C19.9793701,20.8121531 19.7555125,21.0360107 19.4793701,21.0360107 L19.4793701,21.0360107 C19.2032277,21.0360107 18.9793701,20.8121531 18.9793701,20.5360107 Z" id="Path-9-Copy-4" fill="#242424" fill-rule="nonzero" transform="translate(19.479370, 17.782227) rotate(-270.000000) translate(-19.479370, -17.782227) "></path>
                    </g>
                    <g id="4、预约归还文字" transform="translate(240.000000, 35.000000)" fill="#5E5E5E">
                        <path d="M5.496,7.688 L11.448,7.688 L11.448,8.504 L9.012,8.504 C8.952,8.972 8.868,9.416 8.772,9.848 L11.04,9.848 L11.04,15.5 L10.224,15.5 L10.224,10.616 L6.756,10.616 L6.756,15.5 L5.94,15.5 L5.94,9.848 L7.944,9.848 C8.04,9.416 8.112,8.96 8.16,8.504 L5.496,8.504 L5.496,7.688 Z M9.336,15.5 C10.224,16.196 10.968,16.892 11.568,17.588 L10.968,18.188 C10.44,17.516 9.708,16.796 8.784,16.04 L9.336,15.5 Z M8.04,11.3 L8.88,11.3 L8.88,13.46 C8.844,14.744 8.556,15.764 8.016,16.52 C7.488,17.228 6.636,17.78 5.448,18.188 L4.98,17.456 C6.12,17.084 6.924,16.592 7.38,15.968 C7.788,15.32 8.016,14.492 8.04,13.46 L8.04,11.3 Z M1.812,9.2 C2.136,9.512 2.436,9.812 2.7,10.1 C3.132,9.632 3.528,9.092 3.888,8.492 L0.864,8.492 L0.864,7.688 L4.812,7.688 L4.812,8.372 C4.32,9.26 3.78,10.016 3.204,10.652 C3.432,10.916 3.624,11.156 3.792,11.372 L5.16,11.372 L5.16,11.9 C4.968,12.836 4.728,13.568 4.464,14.096 L3.756,13.82 C3.972,13.364 4.176,12.824 4.344,12.176 L3.072,12.176 L3.072,17.192 C3.072,17.816 2.76,18.14 2.16,18.14 L1.008,18.14 L0.84,17.36 C1.2,17.396 1.548,17.42 1.884,17.42 C2.124,17.42 2.256,17.276 2.256,16.988 L2.256,12.176 L0.528,12.176 L0.528,11.372 L2.856,11.372 C2.388,10.82 1.824,10.22 1.176,9.596 L1.812,9.2 Z M18.756,12.08 C19.644,13.112 20.316,14.024 20.784,14.792 L20.052,15.308 C19.572,14.468 18.9,13.544 18.048,12.524 L18.756,12.08 Z M18.936,7.172 L19.8,7.28 C19.656,7.94 19.464,8.564 19.248,9.14 L23.004,9.14 C23.004,13.28 22.944,15.836 22.824,16.808 C22.692,17.708 22.092,18.164 21.012,18.164 C20.736,18.164 20.256,18.14 19.572,18.116 L19.356,17.312 C19.956,17.336 20.46,17.36 20.892,17.36 C21.54,17.36 21.912,17.06 22.008,16.46 C22.08,15.764 22.128,13.616 22.152,10.016 L18.876,10.016 C18.456,10.856 17.952,11.624 17.352,12.296 L16.812,11.588 C17.856,10.388 18.564,8.912 18.936,7.172 Z M17.04,15.812 L17.04,16.7 C15.792,17.12 14.364,17.456 12.768,17.72 L12.66,16.868 C14.34,16.604 15.792,16.244 17.04,15.812 Z M14.616,7.16 L15.456,7.496 C14.868,9.032 14.268,10.268 13.668,11.204 C14.22,11.132 14.784,11.036 15.336,10.928 C15.588,10.46 15.852,9.968 16.128,9.44 L16.956,9.752 C15.804,11.864 14.832,13.364 14.064,14.252 C15,14.084 15.948,13.844 16.896,13.544 L16.896,14.312 C15.552,14.744 14.256,15.032 13.02,15.2 L12.792,14.396 C12.948,14.324 13.08,14.24 13.188,14.144 C13.656,13.664 14.22,12.872 14.88,11.744 C14.208,11.864 13.536,11.972 12.852,12.08 L12.636,11.276 C12.768,11.216 12.888,11.108 13.008,10.94 C13.62,9.836 14.16,8.576 14.616,7.16 Z M27.54,7.208 L28.404,7.208 L28.404,12.416 C28.356,15.056 27.384,16.976 25.476,18.188 L24.828,17.624 C26.604,16.544 27.516,14.804 27.54,12.416 L27.54,7.208 Z M24.996,8.324 L25.86,8.324 L25.86,14.204 L24.996,14.204 L24.996,8.324 Z M29.088,8.132 L34.92,8.132 L34.92,17.936 L34.044,17.936 L34.044,17.204 L28.824,17.204 L28.824,16.352 L34.044,16.352 L34.044,12.992 L29.376,12.992 L29.376,12.164 L34.044,12.164 L34.044,8.972 L29.088,8.972 L29.088,8.132 Z M37.512,7.388 C38.34,8.012 39.036,8.624 39.6,9.248 L38.976,9.86 C38.484,9.272 37.8,8.636 36.924,7.952 L37.512,7.388 Z M44.484,17.984 C43.836,17.984 43.14,17.972 42.384,17.96 C41.628,17.948 41.004,17.876 40.524,17.744 C40.068,17.6 39.648,17.3 39.276,16.868 C39.12,16.664 38.964,16.568 38.82,16.568 C38.532,16.568 38.064,17.12 37.404,18.224 L36.756,17.636 C37.392,16.628 37.956,16.016 38.448,15.8 L38.448,12.152 L36.732,12.152 L36.732,11.36 L39.252,11.36 L39.252,15.86 C39.348,15.932 39.432,16.016 39.528,16.124 C39.816,16.472 40.116,16.724 40.452,16.88 C40.812,17.048 41.352,17.144 42.048,17.168 C42.672,17.18 43.44,17.192 44.364,17.192 C44.94,17.192 45.516,17.18 46.104,17.168 C46.692,17.156 47.148,17.144 47.46,17.12 L47.256,17.984 L44.484,17.984 Z M40.14,7.844 L47.064,7.844 L47.064,8.684 L44.34,8.684 C44.196,9.044 44.052,9.404 43.884,9.752 L43.884,16.52 L43.02,16.52 L43.02,11.216 C42.276,12.248 41.34,13.184 40.224,14 L39.684,13.292 C41.484,12.02 42.756,10.484 43.476,8.684 L40.14,8.684 L40.14,7.844 Z M44.892,10.088 C46.008,11.384 46.872,12.512 47.472,13.484 L46.74,13.988 C46.092,12.908 45.252,11.768 44.232,10.568 L44.892,10.088 Z" id="预约归还"></path>
                    </g>
                    <g id="4、预约归还icon" transform="translate(247.000000, 7.000000)">
                        <path d="M17,19 L17,1 L1,1 L1,19 L17,19 Z M1,0 L17,0 C17.5522847,-1.01453063e-16 18,0.44771525 18,1 L18,20 L1,20 C0.44771525,20 6.76353751e-17,19.5522847 0,19 L0,1 C-6.76353751e-17,0.44771525 0.44771525,1.01453063e-16 1,0 Z" id="Rectangle-2" fill="#242424" fill-rule="nonzero"></path>
                        <path d="M30,11 L30,8.41900932 L29.52323,8 L25,8 L25,11 L30,11 Z M25,7 L29.9002075,7 L31,7.96655273 L31,12 L25,12 C24.4477153,12 24,11.5522847 24,11 L24,8 C24,7.44771525 24.4477153,7 25,7 Z" id="Rectangle-4" fill="#242424" fill-rule="nonzero"></path>
                        <path d="M18,4 L18,19 L30,19 L30,8.35149243 L26.0420615,4 L18,4 Z M17,3 L26.4842783,3 L31,7.96473833 L31,19 C31,19.5522847 30.5522847,20 30,20 L17,20 L17,3 Z" id="Rectangle-2-Copy" fill="#242424" fill-rule="nonzero"></path>
                        <path d="M8,22.5 C6.06700338,22.5 4.5,20.9329966 4.5,19 C4.5,17.0670034 6.06700338,15.5 8,15.5 C9.93299662,15.5 11.5,17.0670034 11.5,19 C11.5,20.9329966 9.93299662,22.5 8,22.5 Z" id="Oval-9" fill="#242424" fill-rule="nonzero"></path>
                        <path d="M8,21.5 C9.38071187,21.5 10.5,20.3807119 10.5,19 C10.5,17.6192881 9.38071187,16.5 8,16.5 C6.61928813,16.5 5.5,17.6192881 5.5,19 C5.5,20.3807119 6.61928813,21.5 8,21.5 Z" id="Path" fill="#FFFFFF"></path>
                        <path d="M25,22.5 C23.0670034,22.5 21.5,20.9329966 21.5,19 C21.5,17.0670034 23.0670034,15.5 25,15.5 C26.9329966,15.5 28.5,17.0670034 28.5,19 C28.5,20.9329966 26.9329966,22.5 25,22.5 Z" id="Oval-9-Copy" fill="#242424" fill-rule="nonzero"></path>
                        <path d="M25,21.5 C26.3807119,21.5 27.5,20.3807119 27.5,19 C27.5,17.6192881 26.3807119,16.5 25,16.5 C23.6192881,16.5 22.5,17.6192881 22.5,19 C22.5,20.3807119 23.6192881,21.5 25,21.5 Z" id="Path" fill="#FFFFFF"></path>
                    </g>
                    <g id="Group-11" transform="translate(137.000000, 17.000000)">
                        <g id="Group-10"></g>
                    </g>
                    <g id="开通会员" transform="translate(9.000000, 2.000000)" fill="#242424">
                        <path d="M30,9.50934289 L30,5 C30,3.8954305 29.1045695,3 28,3 L4,3 C2.8954305,3 2,3.8954305 2,5 L2,21 C2,22.1045695 2.8954305,23 4,23 L4.15534192,23 L4.15534192,22 L4,22 C3.44771525,22 3,21.5522847 3,21 L3,5 C3,4.44771525 3.44771525,4 4,4 L28,4 C28.5522847,4 29,4.44771525 29,5 L29,9.50934289 L30,9.50934289 Z M30,5 C30,3.8954305 29.1045695,3 28,3 L4,3 C2.8954305,3 2,3.8954305 2,5 L2,21 C2,22.1045695 2.8954305,23 4,23 L4.15534192,23 L4.15534192,22 L4,22 C3.44771525,22 3,21.5522847 3,21 L3,5 C3,4.44771525 3.44771525,4 4,4 L28,4 C28.5522847,4 29,4.44771525 29,5 L29,9.50934289 L30,9.50934289 L30,5 Z" id="Rectangle-Copy-4" fill-rule="nonzero" transform="translate(16.000000, 13.000000) rotate(-9.000000) translate(-16.000000, -13.000000) "></path>
                        <path d="M7,8 C6.44771525,8 6,8.44771525 6,9 L6,25 C6,25.5522847 6.44771525,26 7,26 L31,26 C31.5522847,26 32,25.5522847 32,25 L32,9 C32,8.44771525 31.5522847,8 31,8 L7,8 Z M7,7 L31,7 C32.1045695,7 33,7.8954305 33,9 L33,25 C33,26.1045695 32.1045695,27 31,27 L7,27 C5.8954305,27 5,26.1045695 5,25 L5,9 C5,7.8954305 5.8954305,7 7,7 Z" id="Rectangle-Copy-5" fill-rule="nonzero"></path>
                        <polygon id="Path-9" fill-rule="nonzero" points="6 11.5 6 10.5 32 10.5 32 11.5"></polygon>
                        <path d="M22,20.5 C21.7238576,20.5 21.5,20.2761424 21.5,20 C21.5,19.7238576 21.7238576,19.5 22,19.5 L29,19.5 C29.2761424,19.5 29.5,19.7238576 29.5,20 C29.5,20.2761424 29.2761424,20.5 29,20.5 L22,20.5 Z" id="Path-9-Copy-5" fill-rule="nonzero"></path>
                        <path d="M10,23.5 C9.72385763,23.5 9.5,23.2761424 9.5,23 C9.5,22.7238576 9.72385763,22.5 10,22.5 L29,22.5 C29.2761424,22.5 29.5,22.7238576 29.5,23 C29.5,23.2761424 29.2761424,23.5 29,23.5 L10,23.5 Z" id="Path-9-Copy-6" fill-rule="nonzero"></path>
                        <path d="M8.35799998,14.288 L9.13673388,14.288 L10.4764202,18.1948683 L10.4962185,18.1948683 L11.8293053,14.288 L12.6080392,14.288 L10.9185826,19 L10.0474566,19 L8.35799998,14.288 Z M13.3636751,14.288 L14.0764146,14.288 L14.0764146,19 L13.3636751,19 L13.3636751,14.288 Z M15.261014,14.288 L17.2144482,14.288 C18.3363529,14.288 18.8973053,14.7631597 18.8973053,15.7200784 C18.8973053,16.6835966 18.3297535,17.1653557 17.2012493,17.1653557 L15.9803529,17.1653557 L15.9803529,19 L15.261014,19 L15.261014,14.288 Z M15.9803529,14.9017479 L15.9803529,16.5516078 L17.1550532,16.5516078 C17.511423,16.5516078 17.7688011,16.4856134 17.9337871,16.3536246 C18.0921737,16.2216359 18.1779664,16.0104538 18.1779664,15.7200784 C18.1779664,15.4297031 18.0921737,15.218521 17.9271877,15.0997311 C17.7622017,14.9677423 17.5048235,14.9017479 17.1550532,14.9017479 L15.9803529,14.9017479 Z" id="VIP"></path>
                    </g>
                </g>
            </g>
        </g>
    </g>
</svg>