<?xml version="1.0" encoding="UTF-8"?>
<svg width="70px" height="81px" viewBox="0 0 70 81" version="1.1" xmlns="http://www.w3.org/2000/svg" xmlns:xlink="http://www.w3.org/1999/xlink">
    <!-- Generator: Sketch 49.2 (51160) - http://www.bohemiancoding.com/sketch -->
    <title>玩法秒懂</title>
    <desc>Created with Sketch.</desc>
    <defs>
        <filter x="-42.9%" y="-42.9%" width="185.7%" height="185.7%" filterUnits="objectBoundingBox" id="filter-1">
            <feGaussianBlur stdDeviation="6" in="SourceGraphic"></feGaussianBlur>
        </filter>
        <linearGradient x1="50%" y1="100%" x2="50%" y2="2.74566474%" id="linearGradient-2">
            <stop stop-color="#E85C40" offset="0%"></stop>
            <stop stop-color="#FF905C" offset="100%"></stop>
        </linearGradient>
        <circle id="path-3" cx="27" cy="27" r="27"></circle>
        <filter x="-15.0%" y="-100.0%" width="130.0%" height="300.0%" filterUnits="objectBoundingBox" id="filter-5">
            <feGaussianBlur stdDeviation="1" in="SourceGraphic"></feGaussianBlur>
        </filter>
    </defs>
    <g id="Page-1" stroke="none" stroke-width="1" fill="none" fill-rule="evenodd">
        <g id="首页-非会员-切图" transform="translate(-36.000000, -569.000000)">
            <g id="玩转托特衣箱" transform="translate(17.000000, 374.000000)">
                <g transform="translate(27.000000, 198.000000)" id="玩法秒懂">
                    <g>
                        <circle id="Path" fill="#A43B1D" opacity="0.5" filter="url(#filter-1)" cx="27" cy="32" r="21"></circle>
                        <g id="Path-14-+-Path-14-Copy-Mask">
                            <mask id="mask-4" fill="white">
                                <use xlink:href="#path-3"></use>
                            </mask>
                            <use id="Mask" fill="url(#linearGradient-2)" xlink:href="#path-3"></use>
                            <path d="M-28,47.7692675 L-14.1527436,41.4292886 C-8.48846813,38.835895 -1.90258933,39.2465778 3.39562005,42.523571 L3.39562005,42.523571 C8.77022003,45.8478125 15.342755,46.6159671 21.3390661,44.6206827 L24.7782011,43.4763037 C33.1041064,40.7058423 42.1459116,41.0013317 50.2731655,44.3094883 L58.7729152,47.7692675 L16.7779985,58 L-28,47.7692675 Z" id="Path-14" fill-opacity="0.2" fill="#FFFFFF" mask="url(#mask-4)"></path>
                            <path d="M-17,47.7692675 L-3.15274359,41.4292886 C2.51153187,38.835895 9.09741067,39.2465778 14.39562,42.523571 L14.39562,42.523571 C19.77022,45.8478125 26.342755,46.6159671 32.3390661,44.6206827 L35.7782011,43.4763037 C44.1041064,40.7058423 53.1459116,41.0013317 61.2731655,44.3094883 L69.7729152,47.7692675 L27.7779985,58 L-17,47.7692675 Z" id="Path-14-Copy" fill-opacity="0.2" fill="#FFFFFF" mask="url(#mask-4)"></path>
                        </g>
                        <circle id="Oval-4" fill="#FFFFFF" cx="11" cy="12" r="1"></circle>
                        <circle id="Oval-4-Copy" fill="#FFFFFF" opacity="0.793478261" cx="28.5" cy="8.5" r="1"></circle>
                        <circle id="Oval-4-Copy-3" fill="#FFFFFF" opacity="0.600000024" cx="7" cy="28" r="1"></circle>
                        <circle id="Oval-4-Copy-4" fill="#FFFFFF" opacity="0.800000012" cx="46.5" cy="25.5" r="1"></circle>
                        <circle id="Oval-4-Copy-5" fill="#FFFFFF" opacity="0.800000012" cx="43" cy="37" r="1"></circle>
                        <circle id="Oval-4-Copy-2" fill="#FFFFFF" cx="41" cy="10" r="1"></circle>
                        <g id="Group-4" transform="translate(14.000000, 12.000000)">
                            <rect id="Combined-Shape" fill="#D3552F" filter="url(#filter-5)" x="3" y="27" width="20" height="3"></rect>
                            <path d="M1,0 L25,0 C25.5522847,-1.01453063e-16 26,0.44771525 26,1 L26,26 L1,26 C0.44771525,26 6.76353751e-17,25.5522847 0,25 L0,1 C-6.76353751e-17,0.44771525 0.44771525,1.01453063e-16 1,0 Z M1.55761719,4 C1.00533244,4 0.557617187,4.44771525 0.557617187,5 L0.557617188,22.9306641 C0.557617188,23.4829488 1.00533244,23.9306641 1.55761719,23.9306641 L22.6879883,23.9306641 C23.240273,23.9306641 23.6879883,23.4829488 23.6879883,22.9306641 L23.6879883,5 C23.6879883,4.44771525 23.240273,4 22.6879883,4 L1.55761719,4 Z" id="Combined-Shape" fill="#FFFFFF" opacity="0.300000012" transform="translate(13.000000, 13.000000) scale(-1, 1) translate(-13.000000, -13.000000) "></path>
                            <path d="M1,2 L25,2 C25.5522847,2 26,2.44771525 26,3 L26,27 C26,27.5522847 25.5522847,28 25,28 L1,28 C0.44771525,28 6.76353751e-17,27.5522847 0,27 L0,3 C-6.76353751e-17,2.44771525 0.44771525,2 1,2 Z M5,11 C4.44771525,11 4,11.4477153 4,12 C4,12.5522847 4.44771525,13 5,13 L12,13 C12.5522847,13 13,12.5522847 13,12 C13,11.4477153 12.5522847,11 12,11 L5,11 Z M5,7 C4.44771525,7 4,7.44771525 4,8 C4,8.55228475 4.44771525,9 5,9 L12,9 C12.5522847,9 13,8.55228475 13,8 C13,7.44771525 12.5522847,7 12,7 L5,7 Z M5,16 C4.44771525,16 4,16.4477153 4,17 C4,17.5522847 4.44771525,18 5,18 L21,18 C21.5522847,18 22,17.5522847 22,17 C22,16.4477153 21.5522847,16 21,16 L5,16 Z M5,21 C4.44771525,21 4,21.4477153 4,22 C4,22.5522847 4.44771525,23 5,23 L21,23 C21.5522847,23 22,22.5522847 22,22 C22,21.4477153 21.5522847,21 21,21 L5,21 Z M16,6 C15.4477153,6 15,6.44771525 15,7 L15,12 C15,12.5522847 15.4477153,13 16,13 L21,13 C21.5522847,13 22,12.5522847 22,12 L22,7 C22,6.44771525 21.5522847,6 21,6 L16,6 Z" id="Combined-Shape-Copy-2" fill="#FFFFFF" opacity="0.979999959" transform="translate(13.000000, 15.000000) scale(-1, 1) translate(-13.000000, -15.000000) "></path>
                            <rect id="Rectangle-7-Copy" fill="#FFFFFF" opacity="0.979999959" x="6" y="8" width="3" height="3"></rect>
                        </g>
                        <path d="M2.327,67.225 L0.689,67.225 L0.689,66.354 L4.914,66.354 L4.914,67.225 L3.276,67.225 L3.276,70.15 L4.641,70.15 L4.641,70.995 L3.276,70.995 L3.276,73.946 C3.861,73.725 4.42,73.491 4.94,73.257 L4.94,74.206 C3.77,74.752 2.418,75.272 0.858,75.74 L0.598,74.791 C1.196,74.622 1.768,74.453 2.327,74.271 L2.327,70.995 L0.871,70.995 L0.871,70.15 L2.327,70.15 L2.327,67.225 Z M6.799,70.722 L5.096,70.722 L5.096,69.799 L12.051,69.799 L12.051,70.722 L10.192,70.722 L10.192,75.688 C10.192,76.052 10.335,76.247 10.647,76.247 L11.011,76.247 C11.167,76.247 11.284,76.195 11.362,76.091 C11.492,75.961 11.583,75.337 11.622,74.219 L12.493,74.518 C12.402,75.779 12.272,76.533 12.103,76.767 C11.921,76.988 11.622,77.105 11.206,77.105 L10.348,77.105 C9.984,77.105 9.711,76.988 9.529,76.767 C9.334,76.533 9.243,76.234 9.243,75.896 L9.243,70.722 L7.696,70.722 L7.696,71.632 C7.657,74.18 6.526,76.052 4.316,77.235 L3.614,76.624 C5.694,75.584 6.76,73.92 6.799,71.632 L6.799,70.722 Z M5.551,66.146 L11.635,66.146 L11.635,67.043 L5.551,67.043 L5.551,66.146 Z M20.666,65.379 L21.628,65.379 L21.628,67.472 L24.969,67.472 L24.969,68.382 L21.628,68.382 L21.628,70.813 L25.32,70.813 L25.32,71.723 L21.056,71.723 C20.224,73.712 19.496,75.116 18.872,75.935 C20.471,75.766 22.07,75.519 23.682,75.207 C23.305,74.427 22.915,73.712 22.525,73.062 L23.422,72.763 C24.202,74.063 24.891,75.467 25.476,76.949 L24.592,77.339 C24.41,76.884 24.241,76.455 24.059,76.039 C22.096,76.403 19.964,76.702 17.663,76.923 L17.442,76.104 C17.52,76.078 17.585,76.039 17.637,76.013 C18.248,75.48 19.054,74.05 20.042,71.723 L16.961,71.723 L16.961,70.813 L20.666,70.813 L20.666,68.382 L17.585,68.382 L17.585,67.472 L20.666,67.472 L20.666,65.379 Z M14.764,65.587 C15.609,66.224 16.324,66.861 16.896,67.511 L16.233,68.187 C15.713,67.563 15.011,66.913 14.101,66.224 L14.764,65.587 Z M14.452,68.629 C15.232,69.266 15.882,69.916 16.415,70.566 L15.739,71.229 C15.271,70.618 14.621,69.968 13.789,69.266 L14.452,68.629 Z M15.947,72.23 L16.792,72.568 C16.233,74.206 15.609,75.753 14.92,77.196 L13.984,76.793 C14.738,75.311 15.401,73.79 15.947,72.23 Z M34.39,69.76 L35.326,69.76 L35.326,77.196 L34.39,77.196 L34.39,69.76 Z M30.009,69.799 L30.945,69.799 L30.945,72.152 C30.906,74.518 30.126,76.234 28.618,77.326 L27.929,76.715 C29.294,75.766 29.983,74.245 30.009,72.152 L30.009,69.799 Z M32.362,65.444 L33.038,65.444 C34.637,67.342 36.483,68.837 38.589,69.929 L38.134,70.761 C36.002,69.63 34.195,68.148 32.7,66.328 C31.335,68.07 29.528,69.591 27.292,70.878 L26.837,70.046 C29.047,68.811 30.893,67.277 32.362,65.444 Z M44.578,74.674 L44.578,75.571 C43.265,76.052 41.77,76.442 40.106,76.754 L39.989,75.818 C41.731,75.532 43.265,75.155 44.578,74.674 Z M42.212,65.301 L43.109,65.652 C42.433,67.355 41.744,68.707 41.055,69.721 C41.653,69.643 42.264,69.552 42.862,69.435 C43.122,68.941 43.395,68.434 43.668,67.901 L44.513,68.226 C43.291,70.514 42.29,72.139 41.497,73.101 C42.459,72.893 43.434,72.607 44.422,72.243 L44.422,73.101 C43.005,73.621 41.64,73.972 40.327,74.154 L40.08,73.296 C40.249,73.218 40.392,73.127 40.509,73.023 C41.029,72.49 41.653,71.593 42.381,70.319 C41.64,70.449 40.899,70.566 40.145,70.67 L39.911,69.799 C40.067,69.734 40.197,69.617 40.314,69.435 C41.042,68.239 41.679,66.861 42.212,65.301 Z M51.039,71.892 L51.039,77.313 L50.116,77.313 L50.116,76.689 L46.125,76.689 L46.125,77.313 L45.202,77.313 L45.202,71.892 L51.039,71.892 Z M46.125,75.805 L50.116,75.805 L50.116,72.776 L46.125,72.776 L46.125,75.805 Z M46.84,66.809 L44.617,66.809 L44.617,65.925 L51.221,65.925 C51.208,68.369 51.065,69.838 50.779,70.332 C50.493,70.8 49.999,71.047 49.31,71.047 C49.024,71.047 48.699,71.021 48.309,70.995 L48.088,70.163 C48.491,70.189 48.829,70.215 49.102,70.228 C49.622,70.202 49.947,70.007 50.077,69.643 C50.207,69.292 50.285,68.343 50.311,66.809 L47.763,66.809 C47.529,67.901 47.23,68.759 46.84,69.409 C46.359,70.137 45.657,70.787 44.721,71.359 L44.149,70.631 C44.968,70.137 45.592,69.591 46.008,69.006 C46.372,68.434 46.658,67.706 46.84,66.809 Z" id="玩法介绍" fill="#5E5E5E"></path>
                    </g>
                </g>
            </g>
        </g>
    </g>
</svg>