<?xml version="1.0" encoding="UTF-8"?>
<svg width="70px" height="81px" viewBox="0 0 70 81" version="1.1" xmlns="http://www.w3.org/2000/svg" xmlns:xlink="http://www.w3.org/1999/xlink">
    <!-- Generator: Sketch 49.2 (51160) - http://www.bohemiancoding.com/sketch -->
    <title>专业洗护</title>
    <desc>Created with Sketch.</desc>
    <defs>
        <filter x="-42.9%" y="-42.9%" width="185.7%" height="185.7%" filterUnits="objectBoundingBox" id="filter-1">
            <feGaussianBlur stdDeviation="6" in="SourceGraphic"></feGaussianBlur>
        </filter>
        <linearGradient x1="50%" y1="100%" x2="50%" y2="0%" id="linearGradient-2">
            <stop stop-color="#00ABFF" offset="0%"></stop>
            <stop stop-color="#50DBFD" offset="100%"></stop>
        </linearGradient>
        <circle id="path-3" cx="27" cy="27" r="27"></circle>
        <filter x="-13.6%" y="-150.0%" width="127.3%" height="400.0%" filterUnits="objectBoundingBox" id="filter-5">
            <feGaussianBlur stdDeviation="1" in="SourceGraphic"></feGaussianBlur>
        </filter>
    </defs>
    <g id="Page-1" stroke="none" stroke-width="1" fill="none" fill-rule="evenodd">
        <g id="首页-非会员-切图" transform="translate(-153.000000, -569.000000)">
            <g id="玩转托特衣箱" transform="translate(17.000000, 374.000000)">
                <g transform="translate(27.000000, 198.000000)" id="专业洗护">
                    <g transform="translate(117.000000, 0.000000)">
                        <g id="Group-3">
                            <circle id="Path" fill="#0C7EAE" opacity="0.5" filter="url(#filter-1)" cx="27" cy="32" r="21"></circle>
                            <mask id="mask-4" fill="white">
                                <use xlink:href="#path-3"></use>
                            </mask>
                            <use id="Oval-3-Copy" fill="url(#linearGradient-2)" xlink:href="#path-3"></use>
                            <path d="M-19,47.7692675 L-5.15274359,41.4292886 C0.511531871,38.835895 7.09741067,39.2465778 12.39562,42.523571 L12.39562,42.523571 C17.77022,45.8478125 24.342755,46.6159671 30.3390661,44.6206827 L33.7782011,43.4763037 C42.1041064,40.7058423 51.1459116,41.0013317 59.2731655,44.3094883 L67.7729152,47.7692675 L25.7779985,58 L-19,47.7692675 Z" id="Path-14" fill-opacity="0.2" fill="#FFFFFF" mask="url(#mask-4)"></path>
                            <path d="M-8,47.7692675 L5.84725641,41.4292886 C11.5115319,38.835895 18.0974107,39.2465778 23.39562,42.523571 L23.39562,42.523571 C28.77022,45.8478125 35.342755,46.6159671 41.3390661,44.6206827 L44.7782011,43.4763037 C53.1041064,40.7058423 62.1459116,41.0013317 70.2731655,44.3094883 L78.7729152,47.7692675 L36.7779985,58 L-8,47.7692675 Z" id="Path-14-Copy" fill-opacity="0.2" fill="#FFFFFF" mask="url(#mask-4)"></path>
                        </g>
                        <circle id="Oval-4" fill="#FFFFFF" cx="12" cy="12" r="1"></circle>
                        <circle id="Oval-4-Copy" fill="#FFFFFF" opacity="0.793478261" cx="29.5" cy="9.5" r="1"></circle>
                        <circle id="Oval-4-Copy-3" fill="#FFFFFF" opacity="0.600000024" cx="8" cy="28" r="1"></circle>
                        <circle id="Oval-4-Copy-4" fill="#FFFFFF" opacity="0.800000012" cx="47.5" cy="25.5" r="1"></circle>
                        <circle id="Oval-4-Copy-5" fill="#FFFFFF" opacity="0.800000012" cx="43" cy="37" r="1"></circle>
                        <circle id="Oval-4-Copy-2" fill="#FFFFFF" cx="42" cy="11" r="1"></circle>
                        <path d="M38,40 L38,41 C38,41.5522847 37.5522847,42 37,42 L17,42 C16.4477153,42 16,41.5522847 16,41 L16,40 L38,40 Z" id="Combined-Shape" fill="#1D9ECB" filter="url(#filter-5)"></path>
                        <path d="M15,11 L39,11 C39.5522847,11 40,11.4477153 40,12 L40,14.1196289 L14,14.1196289 L14,12 C14,11.4477153 14.4477153,11 15,11 Z" id="Combined-Shape-Copy-3" fill="#FFFFFF" opacity="0.3"></path>
                        <path d="M40,19 L14,19 L14,14 C14,13.4477153 14.4477153,13 15,13 L39,13 C39.5522847,13 40,13.4477153 40,14 L40,19 Z M40,20 L40,39 C40,39.5522847 39.5522847,40 39,40 L15,40 C14.4477153,40 14,39.5522847 14,39 L14,20 L40,20 Z M27,38 C31.418278,38 35,34.418278 35,30 C35,25.581722 31.418278,22 27,22 C22.581722,22 19,25.581722 19,30 C19,34.418278 22.581722,38 27,38 Z M27,36 C23.6862915,36 21,33.3137085 21,30 C21,26.6862915 23.6862915,24 27,24 C30.3137085,24 33,26.6862915 33,30 C33,33.3137085 30.3137085,36 27,36 Z M19,15 C18.4477153,15 18,15.4477153 18,16 C18,16.5522847 18.4477153,17 19,17 C19.5522847,17 20,16.5522847 20,16 C20,15.4477153 19.5522847,15 19,15 Z M23,15 C22.4477153,15 22,15.4477153 22,16 C22,16.5522847 22.4477153,17 23,17 C23.5522847,17 24,16.5522847 24,16 C24,15.4477153 23.5522847,15 23,15 Z M31,15 C30.4477153,15 30,15.4477153 30,16 C30,16.5522847 30.4477153,17 31,17 C31.5522847,17 32,16.5522847 32,16 C32,15.4477153 31.5522847,15 31,15 Z M27,15 C26.4477153,15 26,15.4477153 26,16 C26,16.5522847 26.4477153,17 27,17 C27.5522847,17 28,16.5522847 28,16 C28,15.4477153 27.5522847,15 27,15 Z M35,15 C34.4477153,15 34,15.4477153 34,16 C34,16.5522847 34.4477153,17 35,17 C35.5522847,17 36,16.5522847 36,16 C36,15.4477153 35.5522847,15 35,15 Z" id="Combined-Shape-Copy-4" fill="#FFFFFF" opacity="0.979999959"></path>
                        <path d="M0.663,69.344 L4.381,69.344 C4.524,68.811 4.654,68.278 4.784,67.732 L1.547,67.732 L1.547,66.861 L4.979,66.861 C5.096,66.328 5.2,65.808 5.304,65.288 L6.266,65.366 C6.162,65.886 6.071,66.393 5.967,66.861 L11.57,66.861 L11.57,67.732 L5.772,67.732 C5.642,68.304 5.512,68.837 5.382,69.344 L12.337,69.344 L12.337,70.254 L5.135,70.254 C4.953,70.865 4.758,71.437 4.576,71.97 L10.764,71.97 L10.764,72.776 C10.14,73.738 9.165,74.713 7.826,75.675 C8.606,75.961 9.36,76.286 10.075,76.624 L9.555,77.443 C7.605,76.481 5.59,75.727 3.523,75.168 L4.017,74.44 C4.992,74.7 5.928,74.999 6.825,75.311 C8.021,74.531 8.97,73.699 9.659,72.841 L3.237,72.841 C3.549,72.009 3.848,71.151 4.121,70.254 L0.663,70.254 L0.663,69.344 Z M17.715,65.509 L18.664,65.509 L18.664,75.844 L20.51,75.844 L20.51,65.509 L21.459,65.509 L21.459,75.844 L25.359,75.844 L25.359,76.754 L13.841,76.754 L13.841,75.844 L17.715,75.844 L17.715,65.509 Z M24.176,67.875 L25.008,68.109 C24.488,70.371 23.838,72.347 23.045,74.05 L22.2,73.751 C22.954,72.217 23.617,70.254 24.176,67.875 Z M14.959,67.849 C15.635,69.604 16.246,71.619 16.779,73.894 L15.921,74.115 C15.453,72.035 14.868,70.033 14.166,68.109 L14.959,67.849 Z M27.89,65.561 C28.696,66.107 29.372,66.666 29.918,67.238 L29.242,67.901 C28.748,67.368 28.085,66.796 27.227,66.198 L27.89,65.561 Z M27.604,68.668 C28.41,69.292 29.099,69.929 29.645,70.553 L28.982,71.216 C28.488,70.618 27.799,69.994 26.928,69.318 L27.604,68.668 Z M28.748,72.113 L29.58,72.451 C29.073,74.102 28.501,75.662 27.864,77.118 L26.928,76.715 C27.63,75.207 28.228,73.673 28.748,72.113 Z M31.855,68.265 C31.608,68.915 31.335,69.513 31.023,70.072 L30.178,69.539 C30.854,68.395 31.335,67.134 31.621,65.756 L32.531,65.951 C32.427,66.445 32.297,66.913 32.154,67.368 L33.922,67.368 L33.922,65.444 L34.884,65.444 L34.884,67.368 L37.744,67.368 L37.744,68.265 L34.884,68.265 L34.884,70.709 L38.342,70.709 L38.342,71.606 L36.041,71.606 L36.041,75.714 C36.041,76.039 36.171,76.208 36.457,76.208 L37.003,76.208 C37.172,76.208 37.315,76.143 37.419,76.039 C37.549,75.896 37.64,75.207 37.692,73.985 L38.55,74.271 C38.459,75.636 38.316,76.442 38.134,76.702 C37.952,76.936 37.653,77.066 37.211,77.066 L36.171,77.066 C35.833,77.066 35.573,76.962 35.391,76.754 C35.209,76.533 35.118,76.26 35.118,75.935 L35.118,71.606 L33.532,71.606 C33.506,72.698 33.35,73.647 33.077,74.44 C32.661,75.597 31.712,76.546 30.256,77.3 L29.632,76.546 C30.906,75.922 31.738,75.142 32.154,74.206 C32.44,73.504 32.596,72.633 32.622,71.606 L30.191,71.606 L30.191,70.709 L33.922,70.709 L33.922,68.265 L31.855,68.265 Z M41.471,77.183 L40.171,77.183 L39.976,76.273 C40.379,76.299 40.769,76.325 41.146,76.325 C41.484,76.325 41.653,76.143 41.653,75.792 L41.653,72.672 C41.12,72.854 40.587,73.036 40.041,73.192 L39.807,72.256 C40.444,72.113 41.055,71.944 41.653,71.749 L41.653,68.772 L40.015,68.772 L40.015,67.875 L41.653,67.875 L41.653,65.418 L42.602,65.418 L42.602,67.875 L44.019,67.875 L44.019,68.772 L42.602,68.772 L42.602,71.411 C43.109,71.203 43.603,70.982 44.097,70.748 L44.097,71.671 C43.603,71.905 43.096,72.113 42.602,72.321 L42.602,76.026 C42.602,76.793 42.225,77.183 41.471,77.183 Z M50.467,67.862 L45.722,67.862 L45.722,70.332 L50.467,70.332 L50.467,67.862 Z M45.722,71.229 C45.696,73.595 45.137,75.61 44.058,77.3 L43.356,76.676 C44.292,75.246 44.773,73.387 44.786,71.112 L44.786,66.965 L47.659,66.965 C47.477,66.419 47.269,65.925 47.061,65.483 L48.049,65.327 C48.231,65.808 48.413,66.354 48.595,66.965 L51.377,66.965 L51.377,71.229 L45.722,71.229 Z" fill="#5E5E5E"></path>
                    </g>
                </g>
            </g>
        </g>
    </g>
</svg>