<?xml version="1.0" encoding="UTF-8"?>
<svg width="30px" height="29px" viewBox="0 0 30 29" version="1.1" xmlns="http://www.w3.org/2000/svg" xmlns:xlink="http://www.w3.org/1999/xlink">
    <!-- Generator: Sketch 49.2 (51160) - http://www.bohemiancoding.com/sketch -->
    <title>星星-未选中</title>
    <desc>Created with Sketch.</desc>
    <defs></defs>
    <g id="Page-1" stroke="none" stroke-width="1" fill="none" fill-rule="evenodd">
        <g id="2.评价-未评" transform="translate(-81.000000, -208.000000)" fill="#E4E4E4" fill-rule="nonzero">
            <g id="Group-2-Copy" transform="translate(81.000000, 208.000000)">
                <g id="星星">
                    <path d="M29.6506122,12.8656369 C27.5327192,15.360624 23.7608209,19.498169 23.7608209,19.498169 C23.7608209,19.498169 24.3659254,24.0307643 24.728999,27.1287243 C24.8903621,28.7089252 23.7002995,29.3950219 22.3690477,28.7712539 C19.8275597,27.5445414 15.9548472,25.6317038 15.0875107,25.1950633 C14.2000004,25.6109086 10.3071142,27.5029511 7.74545229,28.7296355 C6.39402672,29.3325801 5.20396419,28.6672502 5.34515339,27.0871058 C5.68805322,23.9891458 6.3133315,19.4773457 6.31333147,19.4773457 C6.31333145,19.4773457 2.50111304,15.3605957 0.363073641,12.8656086 C-0.403393833,11.9507659 0.100896478,10.6616963 1.59348382,10.4329785 C4.65940858,9.87159581 9.39945752,8.97754816 9.39945752,8.97754816 C9.39945752,8.97754816 12.0014396,4.36177253 13.635271,1.53412046 C14.5429552,-0.191589561 15.1682334,0.0163331112 15.2691024,0.0579232985 C15.5514809,0.141103673 15.9952498,0.494535444 16.560034,1.53412046 C18.1736642,4.36180079 20.7353261,8.97757646 20.7353261,8.97757646 C20.7353261,8.97757646 25.4148811,9.8716524 28.4404582,10.4330068 C29.9128992,10.6617246 30.3969882,11.9715893 29.6506946,12.8656369 L29.6506122,12.8656369 Z" id="星星-未选中"></path>
                </g>
            </g>
        </g>
    </g>
</svg>