<?xml version="1.0" encoding="UTF-8"?>
<svg width="228px" height="228px" viewBox="0 0 228 228" version="1.1" xmlns="http://www.w3.org/2000/svg" xmlns:xlink="http://www.w3.org/1999/xlink">
    <!-- Generator: Sketch 49.2 (51160) - http://www.bohemiancoding.com/sketch -->
    <title>上胸围@1x</title>
    <desc>Created with Sketch.</desc>
    <defs></defs>
    <g id="Page-1" stroke="none" stroke-width="1" fill="none" fill-rule="evenodd">
        <g id="测量上胸围" transform="translate(-74.000000, -160.000000)">
            <g id="上胸围" transform="translate(74.000000, 160.000000)">
                <g transform="translate(9.000000, 33.000000)">
                    <path d="M162.535214,156.815681 C162.63701,156.558986 162.927625,156.433417 163.184319,156.535214 C163.441014,156.63701 163.566583,156.927625 163.464786,157.184319 C159.803166,166.417589 158.602831,173.723837 160.164612,179.876992 C160.232548,180.144647 160.070643,180.416697 159.802988,180.484633 C159.535333,180.552568 159.263283,180.390664 159.195347,180.123008 C157.571324,173.724632 158.803183,166.226499 162.535214,156.815681 Z" id="Stroke-1" fill="#242424" fill-rule="nonzero"></path>
                    <path d="M174.535691,124.814481 C174.638151,124.55805 174.929088,124.433232 175.185519,124.535691 C175.44195,124.638151 175.566768,124.929088 175.464309,125.185519 C175.402479,125.340263 175.281963,125.647653 175.106717,126.103588 C174.814151,126.864754 174.474771,127.766264 174.092533,128.804017 C172.999854,131.770573 171.783231,135.232896 170.474324,139.158166 C170.386971,139.420128 170.103796,139.561677 169.841834,139.474324 C169.579872,139.386971 169.438323,139.103796 169.525676,138.841834 C170.837914,134.906572 172.057965,131.434495 173.154163,128.458384 C173.538032,127.416203 173.879062,126.510313 174.173294,125.744812 C174.350127,125.284747 174.472245,124.97327 174.535691,124.814481 Z" id="Stroke-3" fill="#242424" fill-rule="nonzero"></path>
                    <path d="M69.1154387,70.0064174 C67.0782362,70.6712864 64.6559448,71.9370954 61.8444295,73.9513338 C53.9802746,79.5854074 44.5126393,89.9739667 33.413342,106.281333 C33.2579659,106.509616 32.9469492,106.568718 32.7186667,106.413342 C32.4903842,106.257966 32.431282,105.946949 32.586658,105.718667 C43.7470834,89.3214894 53.29141,78.8487789 61.2620407,73.1384235 C64.1534589,71.0669406 66.6662759,69.753826 68.8051802,69.0557652 C70.2247412,68.5924719 71.2777799,68.4579223 71.9653846,68.5082894 C72.3458477,68.5593257 72.534811,68.8133283 72.4946961,69.0865414 C72.4546024,69.3596097 72.2008478,69.5485176 71.9277999,69.5086665 C71.3363765,69.4648937 70.4133243,69.5828346 69.1154387,70.0064174 Z" id="Stroke-5" fill="#242424" fill-rule="nonzero"></path>
                    <path d="M61.5095569,74.0972913 C61.4558244,73.8264271 61.6318445,73.5632894 61.9027087,73.5095569 C62.1735729,73.4558244 62.4367106,73.6318445 62.4904431,73.9027087 C65.4268638,88.7051371 71.2564196,109.246613 78.4537187,124.789906 C78.5697502,125.040488 78.4606756,125.337687 78.2100938,125.453719 C77.9595119,125.56975 77.6623129,125.460676 77.5462813,125.210094 C70.3089331,109.58031 64.4600982,88.9709011 61.5095569,74.0972913 Z" id="Stroke-7" fill="#242424" fill-rule="nonzero"></path>
                    <path d="M81.5750507,143.285395 C81.4174312,143.058656 81.4734637,142.747072 81.700203,142.589452 C81.9269422,142.431833 82.2385266,142.487865 82.3961462,142.714605 C82.4709009,142.822141 82.5920148,143.021143 82.7436016,143.311563 C82.9907409,143.78505 83.2365105,144.349766 83.4649687,145.005568 C86.0479039,152.420038 84.3900325,162.866011 75.415551,176.27806 C75.2619827,176.507562 74.9514424,176.569119 74.72194,176.415551 C74.4924375,176.261983 74.4308807,175.951442 74.584449,175.72194 C83.3901572,162.562117 84.9964063,152.441407 82.5206297,145.334542 C82.3084376,144.725432 82.0820818,144.205324 81.8570958,143.774281 C81.7254074,143.521983 81.6261961,143.358969 81.5750507,143.285395 Z" id="Stroke-9" fill="#242424" fill-rule="nonzero"></path>
                    <path d="M149.43882,23.1297145 C148.425633,23.1122798 146.001988,23.3322014 144.150475,23.3643887 C148.824338,30.3543934 171.437628,64.1069793 175.508588,72.8999189 C179.83091,82.2360189 176.208028,91.4116296 162.758377,94.358107 L158.204729,94.358107 C158.204729,94.358107 163.297174,79.4864109 142.350398,70.5454992 C119.926873,60.9742532 114.887898,56.8636332 114.887898,56.8636332 C114.887898,56.8636332 95.9499992,29.3040335 86.6569163,14.2421737 C85.407851,13.9457824 79.6479428,12.69629 72.7751233,13.068679 C83.1556171,22.3730388 107.71298,47.1800453 102.375195,70.9901402 C97.1926895,94.1091026 76.0504117,100.105564 69,101.638483 C70.6188215,106.330673 74.359906,119.793673 76.9459221,125.857399 C78.6990058,126.864752 79.4992274,126.719032 80.8780717,126.8071 C81.447733,126.844205 82.6570058,127.048378 83.1820413,126.989368 C87.4028167,126.036266 88.1346976,125.129135 90.3382074,123.003434 C90.549569,123.725979 96.2979065,115.623832 96.3361219,115.588461 C97.1493033,114.835809 98.8121927,113.534099 99.609846,113.014037 C100.559281,112.338551 100.870088,112.315968 101.682459,112.227453 C102.17061,112.174255 101.708541,111.312758 102.015912,111.392332 C103.14294,111.479506 103.687854,112.273185 103.264364,113.266967 C102.931037,114.577705 102.556417,116.505127 101.053258,117.971437 C105.082781,116.995089 110.408203,119.465838 110.609018,120.914712 C114.893545,117.114825 118.136165,112.002549 118.455831,111.392332 C119.052814,110.253707 120.430232,106.657873 120.519028,109.687501 C120.661557,114.531687 118.94364,118.973263 117.368078,121.234866 C120.696794,121.662242 123.011413,122.106674 124.715843,121.678404 C132.077269,119.828976 135.343208,119.691355 137.852267,119.996687 C136.123703,115.069797 135.007366,111.002914 134.87153,107.176914 C134.520027,97.2763561 137.16837,97.7187081 138.0791,99.953936 C138.580456,101.184205 140.991971,109.315002 144.667512,118.903811 C148.566279,117.53173 152.298779,116.100244 155.131152,117.150077 C159.618316,118.813534 175.963953,138.61562 195.089271,106.875383 C195.089271,106.875383 196,104.178804 196,100.616745 C196,97.054686 193.723176,93.897203 193.723176,93.897203 C193.723176,93.897203 165.983586,43.8453599 149.43882,23.1297145 Z" id="Fill-11" fill="#F9E5CB"></path>
                    <path d="M101.542574,119.495613 C101.274405,119.561492 101.003605,119.397504 100.937726,119.129335 C100.871847,118.861166 101.035836,118.590367 101.304004,118.524488 C104.882111,117.64548 110.270952,119.776161 111.379344,121.709074 C111.51671,121.948626 111.433873,122.254178 111.194321,122.391545 C110.954769,122.528911 110.649216,122.446074 110.51185,122.206522 C109.631207,120.670778 104.698301,118.720369 101.542574,119.495613 Z M117.511049,122.407837 C117.236996,122.373927 117.042322,122.124275 117.076232,121.850223 C117.110141,121.57617 117.359793,121.381496 117.633846,121.415405 C120.854162,121.813866 123.52109,121.827381 125.037719,121.441008 C130.954452,119.933896 133.601968,119.772992 137.319066,120.234269 C137.45965,120.251737 137.45965,120.251737 137.599244,120.269015 C137.873308,120.302829 138.068069,120.552414 138.034254,120.826479 C138.00044,121.100543 137.750855,121.295304 137.476791,121.261489 C137.336312,121.244102 137.336312,121.244102 137.195915,121.226657 C133.601766,120.780638 131.079736,120.933915 125.284574,122.410061 C123.618843,122.834418 120.845027,122.820361 117.511049,122.407837 Z M194.754024,106.39846 C194.857156,106.020697 194.960572,105.58721 195.057247,105.105308 C195.333924,103.726137 195.5,102.23971 195.5,100.704848 C195.5,99.2150527 195.093396,97.6759092 194.413546,96.1808178 C194.174249,95.6545659 193.917841,95.1720289 193.66193,94.744551 C193.509889,94.4905793 193.393325,94.3134785 193.298865,94.1747518 C193.213754,94.0193532 193.047998,93.7178364 192.806315,93.2799444 C192.403359,92.5498528 191.933913,91.7028691 191.402693,90.7487369 C189.884771,88.0223706 188.176368,84.9843072 186.315241,81.7125012 C180.997885,72.3647478 175.522498,63.0171223 170.191346,54.2935764 C168.54334,51.5968872 166.931384,48.9970071 165.360925,46.5051661 C159.240331,36.793645 153.897159,28.9520715 149.556964,23.4422763 C149.386088,23.2253524 149.423417,22.9109784 149.640341,22.7401023 C149.857265,22.5692263 150.171639,22.6065554 150.342515,22.8234793 C154.708613,28.366157 160.069277,36.2334033 166.206925,45.9719828 C167.779922,48.4678518 169.394292,51.0716248 171.044624,53.7721196 C176.381833,62.5055765 181.862304,71.8618825 187.184453,81.2180607 C189.047152,84.4926308 190.757045,87.5333452 192.276405,90.2622922 C192.808234,91.2175196 193.278277,92.0655798 193.681818,92.7967328 C193.924033,93.2355876 194.09031,93.538052 194.144857,93.6447791 C194.222886,93.7544916 194.353795,93.9533868 194.519932,94.230905 C194.794318,94.6892435 195.068207,95.2046778 195.323853,95.7668825 C196.058129,97.3816672 196.5,99.0543076 196.5,100.704848 C196.5,102.310322 196.326686,103.861534 196.037712,105.302 C195.93641,105.806971 195.827708,106.262614 195.71872,106.661828 C195.652602,106.904015 195.600443,107.07537 195.569333,107.168762 C189.002798,118.240307 182.359207,123.963711 175.589815,125.381701 C170.433558,126.461785 165.72599,125.080615 160.65005,121.893521 C160.04811,121.515573 155.755799,118.536396 155.097296,118.288891 C153.517075,117.695041 151.351164,117.947612 148.290305,118.907181 C147.614676,119.118988 146.925028,119.353675 146.000387,119.681602 C145.775289,119.761434 145.574039,119.833246 145.152561,119.983871 C144.89251,120.076757 144.606397,119.941242 144.513511,119.681191 C144.420626,119.421139 144.55614,119.135027 144.816192,119.042141 C145.237709,118.891501 145.439968,118.819329 145.666132,118.739119 C146.601411,118.40742 147.301517,118.169174 147.991164,117.952972 C151.251381,116.930905 153.598184,116.65724 155.449102,117.352817 C156.243984,117.651583 160.695808,120.741474 161.181804,121.046622 C166.059321,124.10913 170.528174,125.420263 175.384794,124.402943 C181.832676,123.0523 188.25463,117.526097 194.636576,106.803321 C194.663572,106.717951 194.704007,106.58167 194.754024,106.39846 Z M175.18177,72.9864315 C173.460302,69.2165774 168.275185,60.6958919 160.541237,48.6986733 C160.197628,48.1656538 159.849677,47.6268567 159.497444,47.0823553 C156.58272,42.5766109 153.505038,37.8796199 150.125493,32.7640516 C148.467061,30.2537077 144.376202,24.0852603 143.995301,23.5076946 C143.843272,23.2771698 143.906905,22.9670484 144.137429,22.8150189 C144.367954,22.6629895 144.678076,22.7266225 144.830105,22.9571472 C145.210123,23.5333749 149.300684,29.701371 150.959857,32.2128379 C154.341032,37.3308743 157.420386,42.0304163 160.337078,46.5392035 C160.689595,47.0841435 161.037833,47.6233842 161.381731,48.1568528 C169.148221,60.2045512 174.341052,68.7379132 176.091419,72.5710541 C180.816738,82.9193278 176.024129,92.0107214 163.074445,94.8870573 L157.752857,94.8989528 L157.965252,94.2445893 C158.01695,94.0853158 158.098936,93.7667991 158.182304,93.3088379 C158.958505,89.0449838 158.037033,84.1329667 154.072832,79.4508158 C151.399364,76.2931606 147.490588,73.5099209 142.177778,71.2107184 C132.415239,66.9858254 125.17906,63.4992363 120.090656,60.7048684 C118.304702,59.7240864 116.914046,58.8991437 115.871309,58.2241555 C115.503677,57.9861788 115.20534,57.7835154 114.970372,57.615412 C114.825842,57.512011 114.732912,57.4417054 114.685655,57.4037226 C114.516681,57.1904739 114.39259,57.0011365 114.212442,56.72602 C113.912237,56.2675564 113.564011,55.7352461 113.171766,55.1350295 C112.051106,53.4201892 110.802389,51.5050162 109.457623,49.437033 C105.61539,43.5284398 101.773135,37.5789598 98.1868841,31.968686 C97.9652438,31.6219555 97.7451207,31.2773595 97.5265545,30.934957 C93.228865,24.2022617 89.6352047,18.4785626 86.9586135,14.0800218 C86.8150647,13.8441228 86.8899293,13.5365196 87.1258284,13.3929708 C87.3617274,13.249422 87.6693306,13.3242866 87.8128794,13.5601856 C90.4850547,17.9514696 94.0752953,23.6697219 98.369464,30.3969016 C98.587915,30.7391237 98.8079236,31.0835405 99.0294502,31.4300931 C102.614142,37.0379273 106.45504,42.9853075 110.29596,48.8918803 C111.640298,50.9592051 112.888605,52.8737492 114.008865,54.5879794 C114.400942,55.1879375 114.749002,55.7199942 115.049043,56.178208 C115.193317,56.3985391 115.301622,56.5638293 115.371846,56.6709416 C115.543377,56.801978 115.880207,57.0386857 116.414717,57.3846868 C117.436338,58.0460064 118.806398,58.8587315 120.572012,59.8283432 C125.630949,62.6065286 132.839467,66.0797899 142.574947,70.2929729 C148.023457,72.6509021 152.058419,75.523992 154.836027,78.8046475 C159.013997,83.739283 159.991873,88.951966 159.166135,93.4879366 C159.138878,93.6376696 159.111498,93.7748433 159.08477,93.8989528 L162.91096,93.8989528 C175.209854,91.1457499 179.631659,82.7315247 175.18177,72.9864315 Z M72.8702155,113.175998 C74.6233885,118.087737 76.8509161,123.987397 78.0365704,126.806136 C78.1436387,127.060677 78.0240886,127.353819 77.7695478,127.460887 C77.515007,127.567955 77.221865,127.448405 77.1147968,127.193864 C75.9204526,124.354467 73.6872758,118.439845 71.9284117,113.512161 C70.9050467,110.645073 68.6328125,102.705732 68.5266539,102.393757 L68.3466312,101.864712 L68.8923635,101.74441 C74.614952,100.482915 80.7422009,98.1298143 86.3949628,94.286035 C94.5183495,88.7622739 100.195236,81.0434416 102.471839,70.7465932 C104.82679,60.0960874 101.476058,48.6067689 93.7281588,36.7195666 C88.1841695,28.2137096 81.1303241,20.5017698 73.2826894,13.370028 C73.0783285,13.1843098 73.0632157,12.8680883 73.2489339,12.6637274 C73.4346521,12.4593666 73.7508737,12.4442537 73.9552345,12.629972 C81.8605305,19.8141149 88.9674375,27.5840666 94.5659185,36.1735275 C102.446769,48.2647107 105.870916,60.0057602 103.448257,70.9624834 C101.113352,81.5230226 95.2813952,89.4527036 86.9572629,95.1129682 C81.3586892,98.9199006 75.3174691,101.289519 69.6324391,102.602519 C70.1855915,104.481959 71.9979495,110.732233 72.8702155,113.175998 Z" id="Stroke-13" fill="#242424" fill-rule="nonzero"></path>
                    <path d="M133.506437,8.07997498 C133.462268,7.80738791 133.647438,7.5506064 133.920025,7.50643744 C134.192612,7.46226848 134.449394,7.64743794 134.493563,7.92002502 C134.511731,8.03215012 134.54977,8.24669189 134.608634,8.54894297 C134.707198,9.05504375 134.828507,9.61957188 134.973488,10.2277827 C135.38751,11.9646492 135.907443,13.7009829 136.539699,15.3178111 C138.172081,19.4921963 140.247343,22.1073526 142.720081,22.4589751 C144.19275,22.668388 145.365731,22.6565257 148.114612,22.4918817 C155.270509,22.0632796 158.770385,22.8878604 163.488534,27.5842924 C171.518664,35.5774604 178.823541,54.00653 178.488684,66.0139383 C178.480986,66.2899734 178.250975,66.5075036 177.97494,66.4998057 C177.698905,66.4921078 177.481375,66.2620967 177.489073,65.9860617 C177.816269,54.2533286 170.617144,36.0910521 162.78306,28.2930284 C158.308459,23.8390232 155.073547,23.0768687 148.1744,23.4900928 C145.358285,23.6587638 144.140903,23.6710751 142.579298,23.4490155 C139.635485,23.0304065 137.361247,20.1645081 135.608375,15.6820028 C134.957523,14.0176217 134.42474,12.238374 134.000743,10.4596591 C133.852417,9.83741649 133.728205,9.25938067 133.627075,8.74010354 C133.566122,8.42712787 133.526246,8.20222198 133.506437,8.07997498 Z" id="Stroke-15" fill="#242424" fill-rule="nonzero"></path>
                    <path d="M136.840273,116.526199 C137.101946,116.437984 137.385586,116.5786 137.473801,116.840273 C137.562016,117.101946 137.4214,117.385586 137.159727,117.473801 C135.030004,118.191768 132.689758,118.860834 130.118083,119.485856 C129.849752,119.551072 129.579359,119.386414 129.514144,119.118083 C129.448928,118.849752 129.613586,118.579359 129.881917,118.514144 C132.426481,117.895711 134.739075,117.23455 136.840273,116.526199 Z" id="Stroke-17" fill="#242424" fill-rule="nonzero"></path>
                    <path d="M154.203403,69.3518877 C154.009061,69.15571 154.010549,68.839131 154.206727,68.6447887 C154.402905,68.4504465 154.719484,68.4519345 154.913826,68.6481123 C154.970983,68.7058099 155.072081,68.813874 155.210822,68.9716034 C155.438371,69.2302961 155.690918,69.537211 155.962155,69.8916529 C156.733582,70.899722 157.503703,72.0892598 158.221836,73.4547096 C161.260282,79.2319749 162.445442,86.1800633 160.706999,94.158658 C160.594919,94.6730491 160.470714,95.1900913 160.334215,95.709749 C160.293448,95.8649651 160.028839,96.874278 159.952799,97.1633732 C159.808506,97.7119574 159.691396,98.1533909 159.5787,98.5722782 C156.687748,109.317831 153.568952,113.701486 144.186098,117.464077 C143.929796,117.566856 143.638702,117.442401 143.535923,117.186098 C143.433144,116.929796 143.557599,116.638702 143.813902,116.535923 C152.860991,112.907976 155.796281,108.782251 158.613037,98.3124791 C158.725176,97.8956633 158.841837,97.4559223 158.985693,96.9089976 C159.061608,96.6203764 159.326155,95.6113035 159.367022,95.4557074 C159.499943,94.94967 159.620851,94.4463503 159.729923,93.9457645 C161.415478,86.2099048 160.270739,79.4987883 157.336778,73.9201897 C156.645858,72.6064826 155.90628,71.4641216 155.168007,70.4993765 C154.910849,70.1633334 154.672744,69.8739692 154.459964,69.632067 C154.334507,69.4894395 154.246892,69.3957874 154.203403,69.3518877 Z" id="Stroke-19" fill="#242424" fill-rule="nonzero"></path>
                    <path d="M166.671013,92.8944938 C166.729282,92.6245692 166.995336,92.4529888 167.265261,92.5112583 C167.535185,92.5695278 167.706765,92.8355816 167.648496,93.1055062 C167.613399,93.2680883 167.551063,93.5806457 167.470543,94.0253583 C167.335874,94.7691415 167.201097,95.6095543 167.075256,96.5287415 C166.549832,100.366647 166.340002,104.29909 166.627008,107.960931 C167.365213,117.379521 171.145441,122.80687 178.979585,122.486733 C179.255497,122.475458 179.488308,122.689989 179.499583,122.965901 C179.510858,123.241813 179.296327,123.474624 179.020415,123.485899 C170.519874,123.833268 166.404928,117.925357 165.630065,108.039069 C165.336716,104.296293 165.55016,100.296115 166.084498,96.3931028 C166.212354,95.4591931 166.349394,94.6046679 166.486542,93.8471951 C166.569113,93.391154 166.633625,93.0676859 166.671013,92.8944938 Z" id="Stroke-21" fill="#242424" fill-rule="nonzero"></path>
                    <path d="M121,109.15514 C117.844841,107.283581 114.370586,105.980262 110.567132,105.545224 C87.1513732,102.866827 72,110.927134 72,110.927134 L74.7547951,119 C74.7547951,119 100.007084,107.812802 113.781059,113.169597 C114.88711,113.599701 115.938523,114.158523 116.938973,114.82005 C118.092314,113.325224 118.830599,112.209375 118.979358,111.927721 C119.334726,111.253188 120.272734,109.693331 121,109.15514" id="Fill-23" fill="#FFFFFF"></path>
                    <path d="M74.977345,119.457723 C74.7245518,119.568854 74.4295326,119.454014 74.3184013,119.201221 C74.2072699,118.948428 74.3221096,118.653409 74.5749029,118.542277 C74.7074213,118.48402 74.9599405,118.375986 75.3229859,118.225282 C75.9263535,117.974819 76.6212651,117.695921 77.3982541,117.395698 C79.6169194,116.538422 82.0499861,115.681314 84.6218902,114.881263 C89.494439,113.365541 94.2794126,112.236022 98.7677737,111.652361 C104.931681,110.850813 110.194867,111.124836 114.284549,112.703122 C115.287646,113.090194 116.265582,113.585103 117.220774,114.183663 C117.45477,114.330294 117.525594,114.638853 117.378963,114.872849 C117.232332,115.106844 116.923774,115.177668 116.689778,115.031037 C115.787511,114.465643 114.866582,113.999583 113.924528,113.636066 C110.016604,112.127924 104.909991,111.862054 98.8967268,112.644011 C94.4716396,113.219444 89.7406125,114.336229 84.9189241,115.83613 C82.3696282,116.629148 79.9574387,117.478902 77.7586769,118.328487 C76.9895665,118.625666 76.302293,118.901498 75.7063755,119.148869 C75.3498499,119.296866 75.1036693,119.402189 74.977345,119.457723 Z M121.253632,109.118238 C121.491609,109.258315 121.570972,109.564789 121.430895,109.802766 C121.290818,110.040742 120.984345,110.120106 120.746368,109.980029 C116.504215,107.483025 113.994238,106.403522 110.809345,106.042034 C99.3243718,104.738425 88.9520876,105.829593 80.0141435,108.443466 C77.8153993,109.086482 75.8812797,109.774934 74.2289561,110.462634 C73.652293,110.702643 73.1524951,110.925145 72.7317102,111.124364 C72.4816059,111.242774 72.3147936,111.326348 72.2334209,111.369305 C71.9892169,111.49822 71.6867444,111.404759 71.5578296,111.160555 C71.4289148,110.916351 71.5223751,110.613879 71.7665791,110.484964 C71.8606408,110.435309 72.0404234,110.345237 72.3038007,110.220542 C72.7388186,110.014585 73.2531624,109.785607 73.8447061,109.539405 C75.5301165,108.837934 77.4987054,108.137213 79.7334535,107.483668 C88.7934305,104.834107 99.2980523,103.729017 110.922124,105.048414 C114.282689,105.429841 116.899312,106.555211 121.253632,109.118238 Z" id="Stroke-25" fill="#242424" fill-rule="nonzero"></path>
                    <path d="M130,94.4117647 L130,101 L135.187547,100.962529 C135.834839,97.9539185 137.584769,98.6496959 138.311462,100.300049 C138.388076,100.474225 138.480107,100.477471 138.62608,100.941529 C139.316565,100.93735 139.834428,100.934216 140.179671,100.932127 C152.806411,100.855706 171.74652,100.741076 197,100.588235 L197,94 L130,94.4117647 Z" id="Fill-27" fill="#FFFFFF"></path>
                    <path d="M134.981343,100.5 C135.257485,100.5 135.481343,100.723858 135.481343,101 C135.481343,101.276142 135.257485,101.5 134.981343,101.5 L129.5,101.5 L129.5,93.9147832 L198.5,93.4969632 L198.5,101.085272 L138.562481,101.441521 C138.286344,101.443162 138.061159,101.220639 138.059518,100.944501 C138.057877,100.668364 138.2804,100.44318 138.556537,100.441538 L197.5,100.091198 L197.5,94.5030368 L130.5,94.9087462 L130.5,100.5 L134.981343,100.5 Z" id="Stroke-29" fill="#242424" fill-rule="nonzero"></path>
                    <path d="M135,96.625 L135,94 L136,94 L136,96.625 C136,96.832 135.776333,97 135.5,97 C135.223667,97 135,96.832 135,96.625 Z" id="Fill-31" fill="#242424"></path>
                    <path d="M80,111.604517 L80,108 L81,108 L81,111.604517 C81,111.822824 80.7763333,112 80.5,112 C80.2236667,112 80,111.822824 80,111.604517 Z" id="Fill-31-Copy-10" fill="#242424" transform="translate(80.500000, 110.000000) rotate(-15.000000) translate(-80.500000, -110.000000) "></path>
                    <path d="M86,109.604517 L86,106 L87,106 L87,109.604517 C87,109.822824 86.7763333,110 86.5,110 C86.2236667,110 86,109.822824 86,109.604517 Z" id="Fill-31-Copy-11" fill="#242424" transform="translate(86.500000, 108.000000) rotate(-15.000000) translate(-86.500000, -108.000000) "></path>
                    <path d="M93,108.604517 L93,105 L94,105 L94,108.604517 C94,108.822824 93.7763333,109 93.5,109 C93.2236667,109 93,108.822824 93,108.604517 Z" id="Fill-31-Copy-12" fill="#242424" transform="translate(93.500000, 107.000000) rotate(-10.000000) translate(-93.500000, -107.000000) "></path>
                    <path d="M99.0073608,108.571515 L99,105 L99.982847,105 L99.9902077,108.571515 C99.9902077,108.808039 99.7703776,109 99.4987842,109 C99.2271909,109 99.0073608,108.808039 99.0073608,108.571515 Z" id="Fill-31-Copy-13" fill="#242424" transform="translate(99.500000, 107.000000) rotate(-1.000000) translate(-99.500000, -107.000000) "></path>
                    <path d="M106,108.604517 L106,105 L107,105 L107,108.604517 C107,108.822824 106.776333,109 106.5,109 C106.223667,109 106,108.822824 106,108.604517 Z" id="Fill-31-Copy-14" fill="#242424" transform="translate(106.500000, 107.000000) rotate(3.000000) translate(-106.500000, -107.000000) "></path>
                    <path d="M114,110.604517 L114,107 L115,107 L115,110.604517 C115,110.822824 114.776333,111 114.5,111 C114.223667,111 114,110.822824 114,110.604517 Z" id="Fill-31-Copy-15" fill="#242424" transform="translate(114.500000, 109.000000) rotate(-345.000000) translate(-114.500000, -109.000000) "></path>
                    <path d="M142,96.625 L142,94 L143,94 L143,96.625 C143,96.832 142.776333,97 142.5,97 C142.223667,97 142,96.832 142,96.625 Z" id="Fill-31-Copy" fill="#242424"></path>
                    <path d="M148,96.625 L148,94 L149,94 L149,96.625 C149,96.832 148.776333,97 148.5,97 C148.223667,97 148,96.832 148,96.625 Z" id="Fill-31-Copy-2" fill="#242424"></path>
                    <path d="M155,96.625 L155,94 L156,94 L156,96.625 C156,96.832 155.776333,97 155.5,97 C155.223667,97 155,96.832 155,96.625 Z" id="Fill-31-Copy-3" fill="#242424"></path>
                    <path d="M160,96.625 L160,94 L161,94 L161,96.625 C161,96.832 160.776333,97 160.5,97 C160.223667,97 160,96.832 160,96.625 Z" id="Fill-31-Copy-4" fill="#242424"></path>
                    <path d="M167,96.625 L167,94 L168,94 L168,96.625 C168,96.832 167.776333,97 167.5,97 C167.223667,97 167,96.832 167,96.625 Z" id="Fill-31-Copy-5" fill="#242424"></path>
                    <path d="M174,96.625 L174,94 L175,94 L175,96.625 C175,96.832 174.776333,97 174.5,97 C174.223667,97 174,96.832 174,96.625 Z" id="Fill-31-Copy-7" fill="#242424"></path>
                    <path d="M180,96.625 L180,94 L181,94 L181,96.625 C181,96.832 180.776333,97 180.5,97 C180.223667,97 180,96.832 180,96.625 Z" id="Fill-31-Copy-6" fill="#242424"></path>
                    <path d="M187,96.625 L187,94 L188,94 L188,96.625 C188,96.832 187.776333,97 187.5,97 C187.223667,97 187,96.832 187,96.625 Z" id="Fill-31-Copy-9" fill="#242424"></path>
                    <path d="M193,96.625 L193,94 L194,94 L194,96.625 C194,96.832 193.776333,97 193.5,97 C193.223667,97 193,96.832 193,96.625 Z" id="Fill-31-Copy-8" fill="#242424"></path>
                    <path d="M195.331427,106.27972 C195.176942,106.050833 195.237256,105.740049 195.466142,105.585564 C195.695029,105.431079 196.005813,105.491394 196.160298,105.72028 C198.471699,109.144875 201.109108,113.532449 203.378582,118.12347 C206.768723,124.981542 208.668056,130.976066 208.488486,135.578567 C207.9788,148.642219 195.762857,157.551152 174.371352,158.4284 C154.269761,159.252751 141.24374,152.827391 136.621903,142.758192 C133.524588,136.010033 133.551958,126.034194 138.16682,123.02337 C138.398094,122.872482 138.707896,122.937648 138.858784,123.168922 C139.009671,123.400196 138.944505,123.709999 138.713232,123.860886 C134.641236,126.517534 134.61525,135.989025 137.530739,142.341039 C141.966345,152.004511 154.603817,158.238211 174.330378,157.42924 C195.254424,156.571162 207.002975,148.003092 207.489247,135.539581 C207.66065,131.14638 205.804005,125.286585 202.48213,118.566612 C200.235139,114.021072 197.619707,109.670058 195.331427,106.27972 Z" id="Stroke-45" fill="#242424" fill-rule="nonzero"></path>
                    <path d="M136.273215,141.994756 C134.516898,138.138334 133.369586,131.10375 135.056546,126.512199 C131.48395,120.371792 126.715716,114.071413 120.703069,110 C120.719178,110.129457 120.731259,110.273708 120.735734,110.44154 C120.811356,113.14441 120.003226,115.76637 119,117.977768 C127.891665,127.223286 131.574786,145 131.574786,145 L138,145 C137.302843,144.004108 136.729187,142.995733 136.273215,141.994756" id="Fill-46" fill="#FFFFFF"></path>
                    <path d="M119.716789,108.992446 L120.623929,109.580428 C126.318067,113.271204 131.26002,118.808679 135.418382,125.650093 C135.561811,125.886065 135.48679,126.19363 135.250818,126.337059 C135.014846,126.480488 134.707281,126.405467 134.563852,126.169495 C130.572295,119.602511 125.85738,114.27102 120.464018,110.67213 C120.432383,110.679367 120.399575,110.683615 120.365895,110.684553 C120.08986,110.692242 119.859856,110.474703 119.852168,110.198668 C119.850544,110.140358 119.85094,110.09508 119.854752,110.053733 L119.716789,108.992446 Z M138,143.5 C138.276142,143.5 138.5,143.723858 138.5,144 C138.5,144.276142 138.276142,144.5 138,144.5 L131.028609,144.5 L130.943279,144.105775 C130.93046,144.046547 130.904008,143.929183 130.863692,143.757568 C130.796113,143.469896 130.714207,143.135727 130.617743,142.758949 C130.341695,141.680737 130.004644,140.478598 129.604779,139.183656 C128.462476,135.48436 127.047068,131.785519 125.345268,128.336891 C123.371557,124.337248 121.137996,120.940004 118.639189,118.335307 C118.448019,118.136037 118.454586,117.819522 118.653857,117.628353 C118.853127,117.437183 119.169642,117.44375 119.360811,117.643021 C121.938551,120.329994 124.226445,123.809879 126.242024,127.894367 C127.969562,131.395151 129.403382,135.142108 130.560263,138.888612 C130.965113,140.199699 131.306541,141.417446 131.586497,142.510925 C131.681438,142.881754 131.762665,143.212614 131.830397,143.5 L138,143.5 Z" id="Stroke-47" fill="#242424" fill-rule="nonzero"></path>
                    <path d="M148.159876,126.344348 C147.89823,126.432645 147.614546,126.292118 147.526249,126.030473 C147.437952,125.768828 147.578479,125.485143 147.840124,125.396846 C147.968333,125.35358 148.193909,125.293554 148.506677,125.235065 C151.340126,124.705193 154.686178,125.352039 157.995042,128.075605 C159.393009,129.226289 160.776147,130.65177 162.383728,132.52738 C162.917427,133.150062 165.789234,136.643578 166.49755,137.43244 C167.754001,138.831769 168.617549,139.5 169.146522,139.5 C170.391898,139.5 173.733267,137.608138 176.287234,135.10968 C179.753734,131.718522 181.725486,127.586132 181.479497,123.026938 C181.46462,122.751197 181.676092,122.515604 181.951833,122.500726 C182.227575,122.485849 182.463168,122.697321 182.478045,122.973062 C182.741198,127.850386 180.64324,132.247278 176.98653,135.824512 C174.263532,138.488327 170.710557,140.5 169.146522,140.5 C168.214439,140.5 167.210159,139.722868 165.753477,138.100539 C165.027621,137.292142 162.14533,133.785873 161.624454,133.178152 C160.051289,131.342695 158.704893,129.95508 157.359527,128.847693 C154.298384,126.32803 151.251722,125.73906 148.690496,126.218025 C148.425531,126.267575 148.245098,126.315588 148.159876,126.344348 Z" id="Stroke-48" fill="#242424" fill-rule="nonzero"></path>
                    <path d="M145.582344,138.032449 C145.70117,138.281718 145.595425,138.580118 145.346156,138.698944 C145.096887,138.81777 144.798487,138.712024 144.679661,138.462755 C144.599861,138.295354 144.451031,137.978078 144.243026,137.526562 C143.896806,136.775023 143.511137,135.920543 143.09587,134.978747 C141.909535,132.28822 140.723228,129.436263 139.615717,126.547589 C138.735608,124.252039 137.941839,122.026394 137.255359,119.903601 C135.644855,114.923465 134.689963,110.722074 134.551526,107.534188 C134.338904,102.637959 134.781343,99.8255603 135.799674,98.8760892 C136.844047,97.9023377 138.093666,98.8375881 138.725458,100.418976 C138.793206,100.588552 140.179067,105.583104 141.005719,108.14686 C142.635708,113.202059 144.587513,118.007451 147.014439,122.526892 C151.333018,130.568984 156.68795,136.78925 163.249462,140.566677 C163.488779,140.704451 163.571097,141.010144 163.433323,141.249462 C163.295549,141.488779 162.989856,141.571097 162.750538,141.433323 C156.006367,137.550739 150.532993,131.192892 146.13343,122.999991 C143.674934,118.42176 141.701156,113.562271 140.053971,108.45374 C139.212516,105.844074 137.840388,100.899016 137.796827,100.78998 C137.384394,99.7576536 136.794267,99.315986 136.48162,99.6074923 C135.761555,100.278866 135.350788,102.889935 135.550585,107.490803 C135.684291,110.569751 136.621677,114.694119 138.206843,119.595905 C138.887496,121.700676 139.675375,123.909806 140.549443,126.189601 C141.650617,129.061747 142.830758,131.898878 144.010871,134.575296 C144.423861,135.51193 144.807288,136.361439 145.151281,137.108145 C145.357405,137.555576 145.504381,137.8689 145.582344,138.032449 Z" id="Stroke-49" fill="#242424" fill-rule="nonzero"></path>
                    <path d="M182.300139,126.399896 C182.079282,126.565658 181.765866,126.520995 181.600104,126.300139 C181.434342,126.079282 181.479005,125.765866 181.699861,125.600104 C184.167699,123.747888 187.008306,122.5 190,122.5 C190.276142,122.5 190.5,122.723858 190.5,123 C190.5,123.276142 190.276142,123.5 190,123.5 C187.264174,123.5 184.610838,124.665619 182.300139,126.399896 Z" id="Stroke-50" fill="#242424" fill-rule="nonzero"></path>
                    <path d="M87.9310827,13.4992087 C89.4152482,12.2752556 90.4576265,10.201008 91.1054983,7.50659843 C91.4530672,6.06110759 91.6690335,4.51117942 91.7774173,2.93666502 C91.8510018,1.86768627 91.8668261,0.929649751 91.8500576,0.201263749 C91.8328301,-0.254402103 92.0468617,-0.487672218 92.322749,-0.499538172 C92.5986364,-0.511404127 92.8319065,-0.297372526 92.8437724,-0.0214852114 C92.8672261,0.935515609 92.8508946,1.90362202 92.7750564,3.00533882 C92.6630979,4.63178482 92.4396375,6.23549566 92.0777862,7.74038541 C91.3542677,10.7493992 90.1520755,13.0758355 88.3494592,14.4430727 L87.9176473,14.5275958 C87.7705667,14.4881052 87.4827357,14.4174434 87.0674834,14.3259494 C86.3716398,14.1726316 85.5749245,14.0191179 84.6906897,13.8757318 C79.0062121,12.9539455 72.9761124,12.8960088 67.3423455,14.2648985 C61.5352153,15.6759118 56.7183374,18.5070085 53.2059394,23.0135723 C49.5431458,27.7132268 44.0733245,36.516293 35.3144797,51.4457545 C34.9808143,52.0144877 34.6386173,52.5984366 34.2844853,53.203371 C16.5470483,83.5027664 17.1878818,82.4278488 14.5670931,85.6885865 C9.83680932,91.5738381 5.78237591,97.5403099 3.1533397,103.309426 C-0.550241374,111.436507 -0.544592091,117.511455 4.1350001,120.843871 C10.1020204,125.092964 19.205485,128.637271 31.9517496,132.160274 C37.2743107,133.631404 54.7343944,137.911203 57.4957418,138.675861 C67.4258824,141.425405 84.0232583,143.224962 96.014402,142.201201 C111.884503,140.846267 119.264515,135.171809 115.30034,124.53489 C115.158813,124.296985 115.196568,124.170522 115.32096,123.930507 C115.56317,123.537784 115.640055,123.424133 115.758613,123.251301 C115.749482,123.264613 116.011877,122.882926 116.095707,122.760273 C116.807214,121.719259 117.365208,120.840615 117.926188,119.829755 C119.618787,116.779769 120.577007,113.798539 120.495287,110.935877 C120.483284,110.514203 120.433448,110.302532 120.437278,110.241958 C120.411018,110.285076 120.276197,110.386057 120.0998,110.576521 C119.602281,111.113715 118.956137,112.137941 118.540425,112.954051 C117.83471,114.340575 114.763315,118.449054 111.860547,121.409412 C107.288457,126.072213 102.896869,128.557315 99.0173201,127.806409 C97.2970693,127.473184 96.4310605,126.434185 96.4913688,124.95999 C96.5397978,123.776175 97.1943928,122.367784 98.2326049,121.045035 C98.5309872,120.664969 100.282931,118.607226 100.707738,118.0892 C101.006241,117.725195 101.277859,117.38519 101.528598,117.060338 C102.650915,115.60629 103.324783,114.48712 103.46124,113.778721 C103.572334,113.201987 103.284971,113.015969 101.974156,113.221222 C99.6668546,113.582712 97.849976,115.184173 95.0216684,118.850892 C94.8459529,119.078696 94.6673477,119.312167 94.4235006,119.632314 C94.1228705,120.027329 93.9639353,120.236101 93.8199254,120.424644 C89.4352931,126.165173 86.6315014,128.362366 82.1227663,128.065586 C76.573347,127.700514 69.734698,124.752229 52.9969357,116.326504 C34.9525827,107.242817 27.9980746,104.301146 22.9536253,104.527995 C22.6777617,104.5404 22.4440734,104.326825 22.4316678,104.050962 C22.4192622,103.775098 22.6328371,103.54141 22.9087007,103.529004 C28.2177484,103.290256 35.1484756,106.221869 53.2998718,115.359443 C70.008533,123.77052 76.8405095,126.715928 82.1884287,127.067744 C86.2440687,127.334699 88.8337262,125.305313 93.0252214,119.817647 C93.168666,119.629844 93.3270163,119.421841 93.6279802,119.026387 C93.8729528,118.704763 94.0526606,118.46985 94.2298544,118.24013 C97.2103192,114.376149 99.170635,112.648257 101.819414,112.233267 C103.724992,111.934883 104.711754,112.57364 104.443188,113.967871 C104.266915,114.882972 103.537844,116.093823 102.320216,117.671354 C102.063023,118.004567 101.785376,118.352119 101.480987,118.723303 C101.044835,119.255162 99.3027953,121.301273 99.0192017,121.662501 C98.0989305,122.834987 97.5289707,124.061281 97.4905331,125.000865 C97.4508913,125.969881 97.9623088,126.583457 99.2074203,126.824644 C102.65496,127.491933 106.790534,125.151704 111.146529,120.709285 C113.981846,117.817715 116.99286,113.790006 117.649295,112.500304 C118.103358,111.608903 118.792758,110.516112 119.366118,109.897028 C119.837572,109.387977 120.260291,109.130047 120.724376,109.261842 C121.260468,109.414086 121.468393,109.976825 121.494881,110.907383 C121.582579,113.979449 120.572474,117.122103 118.800569,120.314996 C118.222058,121.357444 117.64879,122.26014 116.921298,123.324543 C116.836557,123.448529 116.573432,123.831276 116.583241,123.816978 C116.468536,123.984191 116.39492,124.09301 116.335838,124.183303 C120.426244,135.721439 112.439025,141.802562 96.099469,143.197576 C83.9843568,144.231921 67.2688835,142.41956 57.2288817,139.639596 C54.4865714,138.880209 37.0268005,134.600487 31.6853433,133.124135 C18.8336324,129.571987 9.64303978,125.993758 3.55493792,121.658443 C-1.6291014,117.966802 -1.63520265,111.405831 2.24337239,102.894746 C4.91476965,97.0326734 9.00942304,91.0070143 13.7876508,85.0621124 C16.3573811,81.8649006 15.7887933,82.8186352 33.4214858,52.6981662 C33.7757733,52.0929663 34.1181297,51.5087452 34.4519605,50.9397301 C43.2369625,35.9656836 48.716023,27.1477481 52.4172022,22.3988418 C56.078412,17.7013457 61.092365,14.7544191 67.106236,13.293172 C72.8888093,11.8881255 79.0456601,11.94728 84.8507573,12.8886257 C85.7539874,13.0350921 86.5690176,13.1921348 87.2826559,13.3493733 C87.5487172,13.4079956 87.7658997,13.4587566 87.9310827,13.4992087 Z M120.437278,110.241958 C120.438219,110.227067 120.442403,110.221307 120.45119,110.223803 C120.459099,110.226049 120.457128,110.232726 120.446709,110.244555 L120.437278,110.241958 Z" id="Stroke-44" fill="#242424" fill-rule="nonzero"></path>
                </g>
            </g>
        </g>
    </g>
</svg>