<?xml version="1.0" encoding="UTF-8"?>
<svg width="228px" height="228px" viewBox="0 0 228 228" version="1.1" xmlns="http://www.w3.org/2000/svg" xmlns:xlink="http://www.w3.org/1999/xlink">
    <!-- Generator: Sketch 49.2 (51160) - http://www.bohemiancoding.com/sketch -->
    <title>臀围@1x</title>
    <desc>Created with Sketch.</desc>
    <defs></defs>
    <g id="Page-1" stroke="none" stroke-width="1" fill="none" fill-rule="evenodd">
        <g id="测量臀围" transform="translate(-74.000000, -160.000000)">
            <g id="臀围" transform="translate(74.000000, 160.000000)">
                <g transform="translate(14.000000, 16.000000)">
                    <rect id="Rectangle" fill="#FFFFFF" opacity="0" x="0" y="1" width="198" height="211"></rect>
                    <path d="M148.980642,91.5710695 C148.904617,94.34279 148.815978,97.2527996 148.717245,100.255129 C148.597303,103.902381 148.468796,107.497947 148.340288,110.885433 C148.295309,112.071071 148.253543,113.146026 148.21606,114.090744 C148.202939,114.421419 148.195175,114.615261 148.181249,114.96065 C147.88801,124.847314 146.134939,138.99636 143.238496,156.508597 C142.396716,161.598103 141.469911,166.897922 140.471993,172.356911 C138.780572,181.609619 136.968403,190.873892 135.156231,199.705531 C134.521963,202.796643 133.932987,205.612938 133.404399,208.098875 C133.219374,208.969043 133.055107,209.735789 132.913486,210.392172 C132.828483,210.786141 132.769899,211.055858 132.739621,211.194381 C132.686552,211.437177 132.446706,211.590981 132.20391,211.537912 C131.961114,211.484842 131.80731,211.244996 131.860379,211.0022 C131.890487,210.864455 131.948899,210.595525 132.03373,210.202355 C132.175165,209.546838 132.339244,208.780969 132.524079,207.911692 C133.052235,205.427788 133.640775,202.613579 134.274599,199.524628 C136.085549,190.698946 137.896503,181.440887 139.586664,172.19507 C140.583708,166.740864 141.509646,161.445997 142.350559,156.361737 C145.240863,138.886621 146.989882,124.770275 147.269683,115.226894 C147.295896,114.579235 147.303656,114.385513 147.316767,114.055063 C147.354231,113.110852 147.395977,112.036418 147.440935,110.851315 C147.569388,107.465257 147.697842,103.871177 147.817731,100.225548 C147.916413,97.2247738 148.005002,94.3163785 148.08098,91.5463928 C148.426446,78.9514559 148.477865,70.5504934 148.131789,68.467194 C148.238571,68.0471161 148.371458,67.7081723 148.544701,67.1870758 C148.836645,66.308941 149.129398,65.2409571 149.403188,63.9792391 C150.811564,57.48896 151.174461,48.8493058 149.839383,37.8748195 C149.851616,37.8013978 150.133957,32.9885368 150.295003,29.6510822 C150.46742,26.0779849 150.599481,22.6022369 150.676359,19.3411379 C150.917143,9.12740241 150.564159,2.32755191 149.557823,1.31763197 C149.3824,1.14158395 149.382906,0.856660161 149.558954,0.681236869 C149.735002,0.505813578 150.019926,0.506320017 150.19535,0.682368033 C151.486089,1.97770419 151.829835,8.59961009 151.576109,19.362349 C151.49904,22.6315553 151.366706,26.114475 151.193957,29.6944605 C151.03314,33.0271592 150.75591,37.7579871 150.736696,37.8292771 C152.079773,48.8418835 151.71251,57.5811258 150.282718,64.1700953 C150.002088,65.4633377 149.700818,66.5623893 149.39874,67.4710085 C149.292288,67.7912052 149.193068,68.0652168 149.103561,68.2935145 C149.079468,68.354968 149.058209,68.407773 149.039995,68.4519695 C149.378374,70.8155932 149.322514,79.107134 148.980642,91.5710695 Z M149.838972,37.8714816 C149.838943,37.8755532 149.839081,37.8766346 149.839383,37.8748195 C149.839248,37.8737069 149.839112,37.8725942 149.838972,37.8714816 Z" id="Stroke-1" fill="#242424" fill-rule="nonzero"></path>
                    <path d="M76.0983027,19.7330693 C76.2103215,19.511218 76.4809768,19.4221812 76.7028281,19.5342001 C76.9246794,19.646219 77.0137162,19.9168742 76.9016973,20.1387255 C76.8628419,20.2156781 76.7874687,20.3643917 76.6777099,20.5800841 C76.4949007,20.9393311 76.2819712,21.3559893 76.041053,21.8252766 C75.3528397,23.1658554 74.5782639,24.6595441 73.7343758,26.2680924 C71.3231403,30.8641861 68.8394097,35.4603958 66.4193943,39.7510049 C65.6616617,41.0944404 64.9205352,42.3891742 64.1985421,43.6295238 C61.7242912,47.8801689 59.5243154,51.4085145 57.6688074,54.0549509 C53.5952625,59.8645433 50.7051948,68.6824083 50.0796197,78.4171977 C49.3352967,89.999864 51.7470273,102.192836 57.7023451,114.028868 C59.1822241,116.970239 60.5897556,119.682305 62.1252492,122.571939 C62.9216289,124.070641 65.2602703,128.422707 65.5575874,128.980548 C67.9042294,133.383431 69.0474343,135.78786 69.9060108,138.293053 C71.6490137,143.378865 71.9594481,148.214975 71.5241153,160.965592 C71.4849,162.112969 71.4526094,163.2764 71.4270867,164.455153 C71.187793,175.506831 71.53961,187.354604 72.2728379,199.026248 C72.4738566,202.226098 72.689225,205.167759 72.9045738,207.784775 C72.9799274,208.700507 73.0498884,209.510174 73.1126603,210.205469 C73.1502905,210.622281 73.1771393,210.908119 73.1914105,211.054678 C73.215497,211.302036 73.0344995,211.522086 72.7871413,211.546172 C72.5397831,211.570259 72.3197337,211.389261 72.2956473,211.141903 C72.2811745,210.993274 72.2541285,210.705337 72.2163059,210.286393 C72.1533231,209.588762 72.0831574,208.776727 72.0076055,207.858585 C71.7917954,205.235962 71.5760048,202.288535 71.3746086,199.082676 C70.6399177,187.387744 70.2873858,175.515895 70.5272976,164.43567 C70.5529006,163.25321 70.5852953,162.086028 70.6246399,160.934866 C71.0563746,148.289636 70.751178,143.535123 69.0546233,138.58484 C68.2158625,136.137466 67.0887407,133.766863 64.7633528,129.403858 C64.4671015,128.848017 62.128102,124.495284 61.3304878,122.99426 C59.7920283,120.099044 58.381468,117.381142 56.8983725,114.433377 C50.8703111,102.452769 48.4269975,90.1001235 49.1814723,78.3594811 C49.8172563,68.4658274 52.7594566,59.4889011 56.9318988,53.5382636 C58.7703965,50.9160884 60.9581095,47.4074099 63.42072,43.1767626 C64.1405878,41.9400641 64.879697,40.6488545 65.6354881,39.3088613 C68.0505244,35.0270798 70.5300859,30.4385853 72.9373955,25.8499748 C73.7799982,24.2438765 74.5533561,22.7525364 75.2403961,21.4142431 C75.4808167,20.9459252 75.6932594,20.5302196 75.8755907,20.1719116 C75.9849161,19.9570709 76.0598646,19.8091952 76.0983027,19.7330693 Z" id="Stroke-3" fill="#242424" fill-rule="nonzero"></path>
                    <path d="M56.4450353,113.474802 C44.1939123,89.7972055 49.2876503,70.2184421 51.9268201,62.8481538 C52.0191209,62.590178 51.8336144,62.2198598 51.9268201,61.972221 C52.0254553,61.7110991 52.1191134,61.4697524 52.2136765,61.2306528 C52.3150264,60.9753736 52.9565031,61.0198499 53.0537809,60.786593 C53.174134,60.5003027 56.7228427,53.7548503 56.9178508,53.4856386 C60.9664178,47.9000576 66.254272,38.752408 69.9517339,32.1344743 C70.0318185,31.9897561 70.2304586,31.6581197 70.3928899,31.6581197 C74.5301381,32.4068787 79.9450937,33.5791504 82.328174,34.2249888 C86.4808057,35.3499252 109.035686,38.8919242 131.067528,38.8919242 C138.452498,38.8919242 146.512983,40.5224752 150.667877,42.8568418 C150.799089,42.9305492 150.885055,43.0644809 150.896366,43.2136934 C152.225227,60.3627934 148.770733,68.1528542 148.62278,68.4759982 C148.548578,68.6386937 148.385694,68.7398167 148.211046,68.7398167 C147.928262,68.6971203 147.77488,68.5285821 147.759949,68.3236396 C147.737778,68.0544279 147.093935,61.6998632 136.159003,61.6998632 C132.717178,61.6998632 128.689766,62.8338313 123.997808,64.1052835 C107.559667,68.5582878 94.682634,73.7815201 84.1558168,80.1293432 C68.7044798,89.4474838 59.8442329,100.447922 57.6887375,113.474802 C57.6575181,113.666261 57.1110491,113.68334 56.9178508,113.713452 C56.6803119,113.718845 56.5237625,113.626261 56.4450353,113.474802 Z" id="Fill-5" fill="#F9E5CB"></path>
                    <path d="M70.5132085,31.6581197 C70.1892371,31.6581197 69.884243,31.831989 69.7233869,32.1208728 C66.0363477,38.7270111 60.7949684,47.7700166 56.765884,53.3342864 C56.5842431,53.5854311 56.391758,53.8626337 56.1775844,54.1807203 L56.1247188,54.2588942 C56.0930898,54.3056188 56.0610089,54.3527926 56.028928,54.4008651 C55.9701885,54.4902708 55.9119007,54.5814736 55.853613,54.6731257 L55.8057176,54.7477053 L55.755563,54.8249806 C55.7261932,54.8703573 55.6968234,54.9152848 55.6679055,54.9615601 C55.5888329,55.0873571 55.5097604,55.216299 55.4311397,55.3447916 L55.4153252,55.3712989 L55.3751112,55.4364437 L55.3104976,55.5411248 C55.2626023,55.6210957 55.2147069,55.7037623 55.1663597,55.7859796 L55.1139459,55.874936 L55.0610803,55.9652403 C55.0267402,56.0227475 54.9919483,56.080704 54.9585119,56.139559 C54.915135,56.2141386 54.8731136,56.2900661 54.8306403,56.3664428 L54.7759673,56.4639355 L54.722198,56.5587325 C54.6855987,56.6234281 54.6489994,56.6881236 54.612852,56.7537178 C54.5541124,56.8606452 54.4962765,56.9684712 54.4388924,57.0771957 L54.3950636,57.1589637 L54.3485238,57.2447753 L54.273066,57.3862969 C54.1863121,57.5498329 54.1018175,57.7165139 54.016871,57.8840935 L53.9865975,57.9424992 L53.939154,58.0354991 C53.8501409,58.2125134 53.7624834,58.3926727 53.674374,58.5737305 L53.6504263,58.6236 L53.6120196,58.7017738 C53.5279768,58.8765417 53.4457414,59.0540053 53.363506,59.2314689 L53.3341362,59.2934689 L53.2912111,59.3860195 C53.1972277,59.5908889 53.1050517,59.7984539 53.0128758,60.007816 L53.0011278,60.0343232 L52.9785357,60.0841927 C52.8859079,60.2966997 52.7946356,60.5114532 52.704267,60.7280037 L52.6934227,60.7536123 L52.6735416,60.8003369 C52.5750399,61.0362063 52.4787973,61.274322 52.3830066,61.514684 C52.2804382,61.7725678 52.1864548,62.0165241 52.093827,62.2622775 C51.993066,62.5300453 51.8999863,62.7825378 51.8087141,63.037726 C49.1514251,70.4655881 44.3054085,90.3028727 56.6208424,114.127472 C56.777632,114.430283 57.0898555,114.615385 57.4242194,114.615385 C57.4707592,114.615385 57.5177509,114.61179 57.5651944,114.604602 C57.9501647,114.544399 58.2528995,114.245182 58.3161575,113.8624 C60.4461456,100.975848 69.2900694,89.754308 84.6025782,80.5109259 C95.0781073,74.1873815 108.130949,68.9546766 124.505741,64.5140434 C129.152495,63.2538272 133.231282,62.6149583 136.628238,62.6149583 C147.180128,62.6149583 147.758035,68.7583435 147.763006,68.8203434 C147.793279,69.2296329 148.099177,69.566589 148.505384,69.6389223 C148.559153,69.6483571 148.612019,69.6528498 148.664433,69.6528498 C149.013707,69.6528498 149.338582,69.4506761 149.486787,69.1254011 C149.636347,68.7983289 153.131805,60.9081629 151.796609,43.6515135 C151.773565,43.3531949 151.602316,43.0858764 151.340699,42.9380649 C147.129974,40.5703861 138.989569,38.9166052 131.543648,38.9166052 C109.58498,38.9166052 87.1225068,35.388 82.9894986,34.2670591 C80.598797,33.6187554 74.7374891,32.4160464 70.6767757,31.6729457 C70.6221027,31.6630617 70.5674297,31.6581197 70.5132085,31.6581197 M70.5136604,32.5566695 C74.3308304,33.255292 80.2992251,34.4692328 82.7518291,35.1341597 C87.4595818,36.410999 110.14391,39.815155 131.543648,39.815155 C139.149522,39.815155 146.96234,41.5084721 150.895182,43.7207018 C152.22857,60.9454527 148.663981,68.7538507 148.663981,68.7538507 C148.663981,68.7538507 148.14165,61.7164085 136.628238,61.7164085 C133.430996,61.7164085 129.38429,62.2595818 124.268071,63.6473921 C101.402554,69.8478351 62.3890707,83.6787633 57.4242194,113.716835 C47.3413419,94.2102166 48.2346356,75.7099742 52.658179,63.3441315 C52.6586308,63.3423344 52.6595345,63.3409866 52.6599863,63.3391895 C52.7499031,63.0884941 52.8411754,62.8404943 52.9333514,62.5951902 L52.9396772,62.5781178 C53.0314013,62.3368571 53.1235773,62.0973936 53.2171088,61.861075 L53.2234346,61.8444518 C53.3169661,61.6090318 53.4118532,61.3754088 53.5080957,61.1444815 C53.5184881,61.1202207 53.5284287,61.0968584 53.5388211,61.0730468 C53.6273823,60.860989 53.7168472,60.6502791 53.8072158,60.4422648 C53.8185119,60.4171054 53.829808,60.3928446 53.841104,60.3672359 C53.9310208,60.1623665 54.0218413,59.958845 54.1135654,59.7584684 C54.1370612,59.7077003 54.1610089,59.6578308 54.1840529,59.6070628 C54.2649328,59.4331934 54.3458127,59.2597732 54.4271445,59.0885995 C54.4474774,59.0463677 54.4682622,59.0059329 54.4885951,58.9637011 C54.5748971,58.7866868 54.6602955,58.6101217 54.7475012,58.4367016 C54.7728044,58.3868321 54.7985595,58.3383104 54.8234108,58.2888902 C54.9065499,58.1258034 54.9896891,57.9622673 55.07328,57.8027747 C55.1130422,57.7277458 55.1532562,57.6549633 55.1930184,57.5803836 C55.2635059,57.4482968 55.3339935,57.3153114 55.4053847,57.185471 C55.4582503,57.0897754 55.5115678,56.9967755 55.5644334,56.9024278 C55.6240767,56.7968482 55.6832681,56.6899207 55.7429114,56.585689 C55.793066,56.4985296 55.8441242,56.4140659 55.8942788,56.3278052 C55.9584405,56.2190806 56.0221504,56.1090083 56.0863121,56.0025301 C56.1202003,55.9463708 56.1545404,55.8924578 56.1879768,55.837197 C56.2697604,55.703313 56.3510921,55.5694291 56.4337794,55.4386901 C56.47806,55.3681539 56.5232443,55.3003134 56.5679768,55.2306758 C56.6398198,55.1179078 56.7121147,55.003792 56.7848615,54.8937196 C56.8327568,54.8213864 56.881104,54.7512995 56.9294512,54.6798648 C57.1178698,54.399068 57.3076439,54.1236624 57.4992253,53.8590395 C61.4433632,48.4124797 66.5085237,39.7329377 70.5136604,32.5566695" id="Fill-7" fill="#242424"></path>
                    <path d="M68.3988717,35.5149547 C68.2608019,35.5143316 68.1493794,35.4018987 68.1500025,35.2638289 C68.1506257,35.1257591 68.2630586,35.0143366 68.4011283,35.0149598 C68.485159,35.0153391 68.6437601,35.0241639 68.8759594,35.0491052 C69.2573053,35.0900668 69.7103374,35.16248 70.2340837,35.2740052 C70.3691272,35.3027611 70.4552904,35.4355467 70.4265346,35.5705902 C70.3977787,35.7056338 70.2649931,35.791797 70.1299496,35.7630411 C69.622949,35.6550816 69.1868505,35.5853751 68.8225599,35.5462455 C68.6073772,35.523132 68.4658461,35.515257 68.3988717,35.5149547 Z M71.8521894,36.2102647 C71.7200056,36.1703762 71.6451856,36.030884 71.6850741,35.8987002 C71.7249627,35.7665164 71.8644549,35.6916963 71.9966387,35.7315848 C72.544062,35.8967785 73.117577,36.0894853 73.7169492,36.311572 C73.8464185,36.3595445 73.9124846,36.5033895 73.8645121,36.6328588 C73.8165396,36.762328 73.6726946,36.8283942 73.5432253,36.7804217 C72.9534774,36.5619011 72.3897242,36.3724744 71.8521894,36.2102647 Z M75.2040216,37.4451814 C75.0771255,37.3907661 75.0183682,37.2437841 75.0727835,37.116888 C75.1271988,36.9899918 75.2741808,36.9312345 75.4010769,36.9856499 C75.9373443,37.2156109 76.4867794,37.4653059 77.049293,37.7354536 C77.1737552,37.7952267 77.226196,37.9445789 77.166423,38.0690411 C77.1066499,38.1935032 76.9572977,38.2459441 76.8328355,38.186171 C76.2767047,37.9190886 75.7337376,37.6723331 75.2040216,37.4451814 Z M78.4327715,38.9922439 C78.3106151,38.9278898 78.2637571,38.7766931 78.3281113,38.6545366 C78.3924654,38.5323802 78.5436622,38.4855222 78.6658186,38.5498764 C78.7711178,38.6053499 78.876774,38.6614742 78.982807,38.7182636 C79.28854,38.8820448 79.7238057,39.0411508 80.2855737,39.1943424 C80.4187809,39.2306674 80.4973194,39.3681004 80.4609944,39.5013075 C80.4246694,39.6345147 80.2872364,39.7130532 80.1540292,39.6767282 C79.5590155,39.5144706 79.0906839,39.3432778 78.7467214,39.159017 C78.6417123,39.102776 78.5370622,39.0471861 78.4327715,38.9922439 Z M81.9396344,40.0712638 C81.8038334,40.0463291 81.7139585,39.9160271 81.7388932,39.7802261 C81.7638279,39.6444251 81.89413,39.5545502 82.029931,39.5794849 C82.5607839,39.6769559 83.1496428,39.7718484 83.797572,39.8646459 C83.9342485,39.884221 84.029178,40.0108879 84.009603,40.1475644 C83.9900279,40.2842409 83.863361,40.3791704 83.7266845,40.3595954 C83.0725766,40.265913 82.4773227,40.1699899 81.9396344,40.0712638 Z M85.5166318,40.5932065 C85.3795381,40.5768065 85.2816965,40.4523753 85.2980965,40.3152815 C85.3144965,40.1781878 85.4389277,40.0803462 85.5760214,40.0967462 C86.1362021,40.1637584 86.7307069,40.2299336 87.3612428,40.2955963 C87.4985713,40.3098974 87.5983048,40.4328176 87.5840037,40.5701461 C87.5697025,40.7074747 87.4467824,40.8072081 87.3094539,40.792907 C86.6764674,40.7269891 86.0794423,40.6605333 85.5166318,40.5932065 Z M89.109126,40.9700028 C88.9716516,40.9571793 88.870602,40.8353388 88.8834255,40.6978644 C88.896249,40.56039 89.0180895,40.4593405 89.1555639,40.4721639 C89.7256062,40.5253369 90.3216958,40.578453 90.9463533,40.6318184 C91.0839234,40.6435712 91.1859184,40.7646213 91.1741656,40.9021913 C91.1624128,41.0397614 91.0413627,41.1417565 90.9037926,41.1300037 C90.2778801,41.076531 89.6805032,41.0233003 89.109126,40.9700028 Z M92.6912405,41.2772879 C92.5536052,41.2663249 92.450917,41.1458623 92.4618799,41.0082271 C92.4728428,40.8705918 92.5933054,40.7679035 92.7309407,40.7788664 C93.3038889,40.8245028 93.9000819,40.8706215 94.5237804,40.9176107 C94.6614614,40.9279835 94.764665,41.0480049 94.7542922,41.1856859 C94.7439194,41.3233669 94.623898,41.4265705 94.486217,41.4161977 C93.8618277,41.3691564 93.2649254,41.3229829 92.6912405,41.2772879 Z M96.2825916,41.5485357 C96.1448786,41.5385973 96.0412968,41.4189021 96.0512352,41.2811891 C96.0611737,41.1434761 96.1808688,41.0398943 96.3185819,41.0498327 C96.8897328,41.0910514 97.4854188,41.1333099 98.1152046,41.1773339 C98.2529397,41.186962 98.3567909,41.3064235 98.3471628,41.4441585 C98.3375347,41.5818936 98.2180733,41.6857448 98.0803382,41.6761167 C97.4501919,41.6320675 96.854134,41.5897826 96.2825916,41.5485357 Z M99.8792695,41.8004005 C99.7415201,41.7909803 99.6374886,41.6716757 99.6469088,41.5339263 C99.656329,41.3961768 99.7756335,41.2921454 99.913383,41.3015655 C100.466066,41.3393614 101.049126,41.3789368 101.707176,41.4233597 C101.844934,41.4326593 101.94907,41.5518727 101.93977,41.6896304 C101.930471,41.827388 101.811257,41.9315238 101.6735,41.9222243 C101.015313,41.8777922 100.432111,41.8382072 99.8792695,41.8004005 Z M103.469917,42.0431232 C103.332156,42.0338684 103.227982,41.9146888 103.237237,41.7769281 C103.246491,41.6391675 103.365671,41.5349929 103.503432,41.5442477 C104.396458,41.6042312 104.819764,41.63268 105.29788,41.6648816 C105.435639,41.6741599 105.539793,41.7933572 105.530515,41.9311163 C105.521237,42.0688754 105.402039,42.1730297 105.26428,42.1637514 C104.786207,42.1315526 104.36294,42.1031065 103.469917,42.0431232 Z M107.065893,42.2855951 C106.92814,42.2762301 106.824061,42.1569672 106.833426,42.019214 C106.842791,41.8814608 106.962054,41.7773816 107.099807,41.7867466 C107.731183,41.82967 108.323526,41.8702231 108.895874,41.909743 C109.033617,41.919254 109.137569,42.0386272 109.128058,42.1763704 C109.118547,42.3141136 108.999174,42.4180664 108.861431,42.4085553 C108.28927,42.3690482 107.697101,42.3285071 107.065893,42.2855951 Z M110.656346,42.5337624 C110.518617,42.5240479 110.41484,42.4045213 110.424555,42.2667923 C110.43427,42.1290633 110.553796,42.025287 110.691525,42.0350015 C111.307699,42.0784625 111.905113,42.1211367 112.489001,42.1634311 C112.626712,42.1734063 112.730261,42.2931291 112.720286,42.4308395 C112.710311,42.5685499 112.590588,42.6720997 112.452878,42.6621245 C111.869314,42.6198535 111.272213,42.5772017 110.656346,42.5337624 Z M114.237185,42.7933678 C114.099498,42.7830767 113.996223,42.6631166 114.006514,42.5254295 C114.016805,42.3877424 114.136765,42.2844675 114.274452,42.2947586 C114.885409,42.3404231 115.483167,42.3858905 116.070034,42.4313698 C116.207693,42.4420377 116.310639,42.5622799 116.299971,42.6999384 C116.289303,42.8375968 116.169061,42.940543 116.031402,42.9298752 C115.444999,42.8844319 114.847696,42.838999 114.237185,42.7933678 Z M117.826629,43.0718078 C117.689005,43.0607008 117.586443,42.9401307 117.59755,42.802507 C117.608657,42.6648833 117.729227,42.5623212 117.866851,42.5734283 C118.475608,42.6225586 119.073187,42.6718536 119.660835,42.7214507 C119.798418,42.7330625 119.900537,42.8540081 119.888925,42.9915901 C119.877313,43.1291721 119.756367,43.2312912 119.618785,43.2196793 C119.031757,43.1701345 118.434786,43.1208897 117.826629,43.0718078 Z M121.412928,43.3748147 C121.275396,43.3626254 121.173786,43.2412522 121.185975,43.1037201 C121.198164,42.966188 121.319538,42.8645777 121.45707,42.876767 C122.065136,42.9306593 122.662584,42.9850037 123.250161,43.0399057 C123.387634,43.0527508 123.488664,43.1746072 123.475819,43.3120796 C123.462974,43.449552 123.341118,43.5505823 123.203645,43.5377372 C122.616871,43.4829103 122.020214,43.4286378 121.412928,43.3748147 Z M124.994864,43.709899 C124.857463,43.696309 124.757095,43.5739068 124.770685,43.436506 C124.784275,43.2991053 124.906677,43.1987369 125.044078,43.2123269 C125.652654,43.2725199 126.250315,43.3334381 126.837534,43.3951715 C126.974849,43.4096071 127.074462,43.5326249 127.060026,43.6699394 C127.04559,43.8072539 126.922572,43.9068668 126.785258,43.8924312 C126.199074,43.8308066 125.602434,43.7699924 124.994864,43.709899 Z M128.572591,44.0865187 C128.435381,44.0711225 128.336631,43.9474106 128.352028,43.8102005 C128.367424,43.6729904 128.491136,43.5742408 128.628346,43.5896371 C129.236993,43.6579331 129.833789,43.7272462 130.419037,43.7976598 C130.556119,43.8141528 130.653876,43.9386504 130.637383,44.0757329 C130.62089,44.2128155 130.496393,44.3105727 130.35931,44.2940797 C129.775406,44.2238277 129.179932,44.1546682 128.572591,44.0865187 Z M132.143461,44.5168538 C132.006536,44.4991033 131.909926,44.3737137 131.927676,44.2367882 C131.945427,44.0998628 132.070816,44.0032525 132.207742,44.021003 C132.816689,44.0999447 133.41214,44.180252 133.994273,44.2620083 C134.131002,44.281211 134.226276,44.4076188 134.207074,44.5443482 C134.187871,44.6810775 134.061463,44.7763517 133.924734,44.7571491 C133.344381,44.6756426 132.750681,44.5955715 132.143461,44.5168538 Z M135.70677,45.0184149 C135.570289,44.9975156 135.476592,44.8699343 135.497492,44.733454 C135.518391,44.5969737 135.645972,44.5032767 135.782452,44.524176 C136.392375,44.6175736 136.986153,44.7127999 137.563865,44.8099451 C137.700024,44.8328411 137.791842,44.9617811 137.768946,45.0979406 C137.746051,45.2341002 137.617111,45.3259185 137.480951,45.3030225 C136.90569,45.2062893 136.314319,45.1114492 135.70677,45.0184149 Z M139.246917,45.6154228 C139.11118,45.5901419 139.021637,45.4596111 139.046918,45.3238741 C139.072199,45.1881371 139.20273,45.0985948 139.338467,45.1238757 C139.94926,45.2376354 140.539662,45.3539015 141.109643,45.4727816 C141.244806,45.5009722 141.331524,45.6333962 141.303333,45.7685589 C141.275142,45.9037215 141.142718,45.9904395 141.007556,45.9622488 C140.441154,45.8441153 139.854259,45.7285398 139.246917,45.6154228 Z M142.760308,46.3515691 C142.625955,46.3197409 142.542843,46.1850248 142.574671,46.0506722 C142.606499,45.9163196 142.741215,45.8332071 142.875568,45.8650353 C143.487834,46.0100813 144.072182,46.1587868 144.628443,46.3113014 C144.7616,46.3478101 144.839949,46.4853513 144.80344,46.6185082 C144.766931,46.7516651 144.62939,46.830014 144.496233,46.7935052 C143.945751,46.6425751 143.367039,46.4953039 142.760308,46.3515691 Z M146.217413,47.3074339 C146.086153,47.2646026 146.014468,47.123474 146.057299,46.9922142 C146.10013,46.8609543 146.241259,46.7892688 146.372519,46.8321 C146.985896,47.0322503 147.555506,47.2385116 148.080905,47.4511726 C148.208889,47.5029759 148.270647,47.6487228 148.218843,47.7767075 C148.16704,47.9046922 148.021293,47.9664494 147.893309,47.9146461 C147.379028,47.7064852 146.820204,47.5041297 146.217413,47.3074339 Z M149.513757,48.6689956 C149.392389,48.6031651 149.347368,48.4514113 149.413199,48.3300441 C149.479029,48.208677 149.630783,48.1636557 149.75215,48.2294863 C150.357868,48.5580327 150.871554,48.9010014 151.291565,49.2597988 C151.396546,49.3494795 151.40895,49.5072841 151.319269,49.6122652 C151.229588,49.7172462 151.071784,49.7296496 150.966803,49.6399689 C150.575306,49.3055301 150.09036,48.9817505 149.513757,48.6689956 Z" id="Stroke-9" fill="#242424" fill-rule="nonzero"></path>
                    <path d="M149.593252,63.697566 C149.680844,63.8042962 149.665329,63.9618252 149.558599,64.0494171 C149.451869,64.1370089 149.29434,64.1214943 149.206748,64.0147641 C149.159763,63.9575132 149.058509,63.8462172 148.900802,63.6909219 C148.634404,63.4285988 148.307157,63.1423244 147.91686,62.8421182 C147.807418,62.7579386 147.78694,62.6009777 147.871119,62.4915361 C147.955299,62.3820946 148.11226,62.3616158 148.221701,62.4457954 C148.628403,62.7586197 148.97096,63.0582871 149.25162,63.3346547 C149.422148,63.5025739 149.535271,63.6269165 149.593252,63.697566 Z M146.70394,61.422243 C146.822698,61.4926706 146.861878,61.6460363 146.791451,61.7647949 C146.721023,61.8835535 146.567657,61.9227335 146.448899,61.8523059 C145.960048,61.5624019 145.436591,61.2864911 144.877781,61.0278572 C144.752479,60.969864 144.697915,60.8212744 144.755908,60.695973 C144.813902,60.5706715 144.962491,60.5161074 145.087793,60.5741006 C145.662114,60.8399136 146.200592,61.1237417 146.70394,61.422243 Z M143.385485,59.8803539 C143.515556,59.9266712 143.583451,60.0696618 143.537134,60.1997324 C143.490817,60.329803 143.347826,60.3976985 143.217755,60.3513813 C142.673143,60.1574483 142.106639,59.9814101 141.517916,59.8246746 C141.384492,59.7891533 141.305127,59.6521963 141.340648,59.5187726 C141.376169,59.3853488 141.513126,59.3059833 141.64655,59.3415047 C142.248488,59.5017583 142.828034,59.6818493 143.385485,59.8803539 Z M139.879662,58.9416898 C140.015351,58.9672261 140.104647,59.0979252 140.079111,59.2336143 C140.053575,59.3693035 139.922876,59.4586 139.787187,59.4330637 C139.215824,59.3255349 138.628325,59.2355186 138.024503,59.1638111 C137.887396,59.1475287 137.789447,59.0231815 137.80573,58.8860737 C137.822012,58.7489659 137.946359,58.6510176 138.083467,58.6673 C138.698501,58.7403391 139.297178,58.832068 139.879662,58.9416898 Z M136.260591,58.5090537 C136.398447,58.5167744 136.503941,58.634787 136.496221,58.7726421 C136.4885,58.9104973 136.370487,59.0159921 136.232632,59.0082713 C135.650158,58.9756492 135.055083,58.9591923 134.447291,58.9594037 C134.30922,58.9594517 134.197252,58.8475619 134.197204,58.7094907 C134.197156,58.5714195 134.309046,58.4594518 134.447117,58.4594037 C135.064267,58.4591891 135.668724,58.4759055 136.260591,58.5090537 Z M132.619935,58.5080685 C132.757819,58.5008753 132.875427,58.6068208 132.88262,58.7447045 C132.889813,58.8825882 132.783868,59.0001963 132.645984,59.0073895 C132.061819,59.0378647 131.467475,59.0829651 130.862874,59.1430301 C130.725479,59.1566798 130.603033,59.0563646 130.589384,58.9189698 C130.575734,58.781575 130.676049,58.6591292 130.813444,58.6454795 C131.425796,58.5846443 132.027936,58.5389524 132.619935,58.5080685 Z M129.021791,58.8654639 C129.158389,58.8453501 129.28543,58.9397794 129.305543,59.0763776 C129.325657,59.2129759 129.231228,59.3400162 129.09463,59.36013 C128.548182,59.4405932 127.957204,59.5387929 127.327531,59.6539466 C127.191713,59.6787849 127.061474,59.5888176 127.036636,59.4529989 C127.011798,59.3171803 127.101765,59.186942 127.237584,59.1621037 C127.872771,59.0459414 128.469429,58.9467981 129.021791,58.8654639 Z M125.463242,59.510232 C125.598409,59.4820598 125.730821,59.5687958 125.758993,59.7039623 C125.787165,59.8391288 125.700429,59.971541 125.565263,59.9997132 C125.000256,60.1174752 124.414824,60.2456248 123.81166,60.3836858 C123.67707,60.4144928 123.542988,60.3303597 123.512181,60.1957693 C123.481374,60.0611789 123.565507,59.9270978 123.700098,59.8962907 C124.306396,59.7575123 124.895007,59.6286669 125.463242,59.510232 Z M121.945772,60.3135555 C122.079832,60.2805176 122.215292,60.3624124 122.24833,60.4964726 C122.281368,60.6305329 122.199473,60.7659927 122.065413,60.7990306 C121.495408,60.939503 120.914217,61.0873455 120.323378,61.2422516 C120.189821,61.2772676 120.053165,61.1973842 120.018149,61.0638269 C119.983133,60.9302697 120.063017,60.7936141 120.196574,60.7585981 C120.789784,60.6030704 121.373363,60.4546206 121.945772,60.3135555 Z M118.453344,61.2284485 C118.586414,61.1916247 118.72414,61.2696478 118.760964,61.4027179 C118.797788,61.535788 118.719765,61.6735143 118.586695,61.7103381 C118.016085,61.8682398 117.439065,62.0318844 116.856617,62.2010632 C116.724025,62.2395758 116.585318,62.1633101 116.546806,62.0307188 C116.508293,61.8981276 116.584559,61.7594206 116.71715,61.7209079 C117.30163,61.551139 117.880689,61.3869163 118.453344,61.2284485 Z M114.99011,62.2339824 C115.122225,62.1938668 115.261845,62.268447 115.301961,62.4005621 C115.342077,62.5326771 115.267497,62.6722977 115.135382,62.7124133 C114.567199,62.8849374 113.995494,63.0621895 113.420939,63.2440219 C113.289303,63.2856816 113.148819,63.2127411 113.107159,63.0811048 C113.065499,62.9494684 113.13844,62.8089842 113.270076,62.7673246 C113.846492,62.5849032 114.420061,62.4070731 114.99011,62.2339824 Z M111.555218,63.3208902 C111.686368,63.2777258 111.827679,63.3490528 111.870843,63.4802034 C111.914007,63.611354 111.842681,63.7526643 111.71153,63.7958287 C111.145554,63.9821032 110.577968,64.1724518 110.009265,64.3667645 C109.87861,64.4114064 109.736503,64.3416789 109.691862,64.2110238 C109.64722,64.0803687 109.716947,63.9382624 109.847602,63.8936205 C110.418088,63.6986985 110.987458,63.5077518 111.555218,63.3208902 Z M108.136256,64.4891535 C108.266399,64.4430409 108.409283,64.5111612 108.455395,64.6413045 C108.501508,64.7714478 108.433388,64.9143315 108.303244,64.9604441 C107.739286,65.1602669 107.17511,65.3637195 106.611095,65.5707171 C106.481478,65.6182877 106.337838,65.5517756 106.290268,65.4221581 C106.242697,65.2925407 106.309209,65.1489013 106.438827,65.1013307 C107.004602,64.8936868 107.570539,64.6895995 108.136256,64.4891535 Z M104.753555,65.7305994 C104.882629,65.6815743 105.027007,65.7464671 105.076033,65.8755414 C105.125058,66.0046158 105.060165,66.148994 104.93109,66.198019 C104.371655,66.4105039 103.81308,66.6262794 103.255669,66.8452789 C103.12716,66.8957682 102.982053,66.832521 102.931564,66.7040123 C102.881075,66.5755036 102.944322,66.4303971 103.072831,66.3799078 C103.632012,66.1602131 104.192354,65.9437549 104.753555,65.7305994 Z M101.398203,67.0489907 C101.526121,66.9970226 101.671947,67.0585921 101.723915,67.1865099 C101.775883,67.3144278 101.714314,67.4602541 101.586396,67.5122222 C101.030915,67.7378923 100.477185,67.9666156 99.9254568,68.1983383 C99.7981574,68.2518033 99.6516189,68.1919487 99.5981539,68.0646492 C99.5446889,67.9373498 99.6045435,67.7908113 99.7318429,67.7373463 C100.285381,67.5048636 100.840918,67.2753939 101.398203,67.0489907 Z M98.0760227,68.4444129 C98.2026737,68.3894296 98.3499175,68.4475278 98.4049007,68.5741789 C98.459884,68.70083 98.4017857,68.8480737 98.2751347,68.903057 C97.7243551,69.1421679 97.1760988,69.3841562 96.6305808,69.6289772 C96.5046135,69.6855096 96.3566684,69.6292215 96.300136,69.5032543 C96.2436036,69.3772871 96.2998917,69.2293419 96.4258589,69.1728095 C96.9732497,68.927148 97.5233758,68.6843345 98.0760227,68.4444129 Z M94.7819185,69.9230228 C94.9071626,69.8649059 95.0558061,69.9193232 95.113923,70.0445672 C95.1720399,70.1698113 95.1176226,70.3184548 94.9923786,70.3765717 C94.4474531,70.6294331 93.905752,70.8850384 93.3674632,71.1433501 C93.2429828,71.2030852 93.0936466,71.1505988 93.0339115,71.0261184 C92.9741764,70.901638 93.0266628,70.7523018 93.1511432,70.6925667 C93.6913882,70.4333163 94.2350426,70.1767893 94.7819185,69.9230228 Z M91.5256901,71.4859661 C91.6493579,71.4245664 91.7993848,71.4750447 91.8607845,71.5987125 C91.9221842,71.7223803 91.8717059,71.8724072 91.7480381,71.9338069 C91.209579,72.2011459 90.6750105,72.4711344 90.1445016,72.7437405 C90.0216952,72.8068456 89.8709843,72.758448 89.8078792,72.6356416 C89.7447742,72.5128353 89.7931718,72.3621243 89.9159781,72.2990193 C90.4485483,72.0253539 90.9851752,71.7543258 91.5256901,71.4859661 Z M88.3154816,73.1359444 C88.4373686,73.0710814 88.5887594,73.1173085 88.6536224,73.2391956 C88.7184853,73.3610826 88.6722582,73.5124734 88.5503712,73.5773364 C88.0188826,73.8601714 87.4919468,74.1455964 86.9697192,74.4335832 C86.8488136,74.5002577 86.6967499,74.4562946 86.6300755,74.335389 C86.563401,74.2144833 86.6073641,74.0624196 86.7282697,73.9957452 C87.2526864,73.7065511 87.7818087,73.4199418 88.3154816,73.1359444 Z M85.158567,74.8771883 C85.2784251,74.8086486 85.4311517,74.8502503 85.4996914,74.9701084 C85.5682311,75.0899665 85.5266293,75.2426931 85.4067713,75.3112328 C84.8839696,75.610192 84.3663814,75.9117012 83.8541523,76.2157355 C83.7354208,76.2862088 83.58204,76.2470878 83.5115667,76.1283563 C83.4410935,76.0096247 83.4802145,75.856244 83.598946,75.7857707 C84.1135108,75.48035 84.6334329,75.1774813 85.158567,74.8771883 Z M82.0506256,76.7225186 C82.1681427,76.6500384 82.322166,76.6865482 82.3946461,76.8040653 C82.4671262,76.9215825 82.4306165,77.0756057 82.3130993,77.1480859 C81.800539,77.4642136 81.2938765,77.7828718 80.7932502,78.1040385 C80.6770376,78.1785924 80.5223908,78.1448213 80.4478369,78.0286087 C80.373283,77.912396 80.4070541,77.7577492 80.5232668,77.6831954 C81.0263966,77.3604226 81.5355623,77.04019 82.0506256,76.7225186 Z M79.0059318,78.6766119 C79.1207286,78.5998958 79.2759804,78.6307663 79.3526965,78.7455631 C79.4294125,78.8603599 79.398542,79.0156117 79.2837452,79.0923277 C78.7825155,79.4272882 78.2879245,79.7647857 77.8001067,80.1048002 C77.6868356,80.1837515 77.5310085,80.1559297 77.4520573,80.0426586 C77.373106,79.9293874 77.4009278,79.7735604 77.5141989,79.6946091 C78.0047129,79.3527154 78.5020019,79.0133767 79.0059318,78.6766119 Z M76.0451476,80.7410185 C76.1567671,80.6597489 76.3131346,80.6843523 76.3944042,80.7959717 C76.4756738,80.9075912 76.4510705,81.0639587 76.339451,81.1452283 C75.8522784,81.4999366 75.3725219,81.8571998 74.9003135,82.2169993 C74.7904897,82.3006796 74.6336237,82.2794861 74.5499434,82.1696624 C74.4662631,82.0598386 74.4874565,81.9029726 74.5972803,81.8192923 C75.0723931,81.4572798 75.5550595,81.0978496 76.0451476,80.7410185 Z M73.1636516,82.9378922 C73.2715064,82.851689 73.4288215,82.869241 73.5150248,82.9770958 C73.601228,83.0849505 73.583676,83.2422656 73.4758212,83.3284689 C73.0050183,83.7047595 72.5424898,84.0836427 72.0883668,84.4651011 C71.9826444,84.5539067 71.8249484,84.540193 71.7361427,84.4344707 C71.6473371,84.3287483 71.6610508,84.1710523 71.7667732,84.0822466 C72.2240262,83.698159 72.6896963,83.3167025 73.1636516,82.9378922 Z M70.4066301,85.2545673 C70.5100374,85.1630764 70.6680336,85.1727366 70.7595245,85.2761439 C70.8510154,85.3795512 70.8413552,85.5375474 70.7379479,85.6290383 C70.2864733,86.0284861 69.8442096,86.4305799 69.4112893,86.8353034 C69.3104289,86.9295946 69.1522273,86.9242692 69.0579361,86.8234087 C68.9636449,86.7225483 68.9689703,86.5643467 69.0698307,86.4700555 C69.5061113,86.0621906 69.9517555,85.6570233 70.4066301,85.2545673 Z M67.7612544,87.7294296 C67.8593109,87.6322258 68.0176006,87.6329171 68.1148044,87.7309736 C68.2120082,87.8290301 68.2113169,87.9873199 68.1132604,88.0845237 C67.6850514,88.5090088 67.2670884,88.9362077 66.8595058,89.3661051 C66.7645099,89.466302 66.6062748,89.4705182 66.5060779,89.3755222 C66.405881,89.2805263 66.4016648,89.1222912 66.4966607,89.0220943 C66.907823,88.5884212 67.3293996,88.1575288 67.7612544,87.7294296 Z M65.2689501,90.360288 C65.3605751,90.2569995 65.5185837,90.2475444 65.6218722,90.3391694 C65.7251607,90.4307944 65.7346158,90.588803 65.6429908,90.6920915 C65.2431882,91.1427872 64.8547368,91.5962699 64.4777739,92.0525251 C64.3898311,92.1589662 64.2322517,92.173962 64.1258106,92.0860192 C64.0193695,91.9980764 64.0043736,91.8404971 64.0923164,91.734056 C64.473032,91.2732588 64.86529,90.8153323 65.2689501,90.360288 Z M62.9708236,93.1434806 C63.0547492,93.0338441 63.2116622,93.0130013 63.3212986,93.0969269 C63.4309351,93.1808525 63.4517779,93.3377655 63.3678523,93.4474019 C63.0019781,93.925363 62.6486275,94.4061893 62.3079412,94.8898673 C62.2284321,95.0027476 62.0724697,95.0298004 61.9595894,94.9502913 C61.8467091,94.8707823 61.8196564,94.7148199 61.8991654,94.6019396 C62.2436865,94.1128173 62.6009543,93.6266607 62.9708236,93.1434806 Z M60.8803671,96.1149094 C60.9550145,95.9987568 61.1096884,95.9651102 61.225841,96.0397576 C61.3419935,96.114405 61.3756401,96.269079 61.3009927,96.3852315 C60.9759498,96.8910036 60.6646411,97.3997165 60.3672103,97.9113583 C60.2978191,98.0307254 60.1448002,98.0712389 60.0254331,98.0018477 C59.906066,97.9324564 59.8655525,97.7794376 59.9349438,97.6600704 C60.2361359,97.1419582 60.5513271,96.626901 60.8803671,96.1149094 Z M59.0562447,99.2567645 C59.1199048,99.1342449 59.2708333,99.08653 59.3933528,99.1501902 C59.5158724,99.2138504 59.5635873,99.3647788 59.4999271,99.4872984 C59.2233674,100.019562 58.9616862,100.554822 58.7150289,101.09307 C58.6575086,101.218589 58.5091257,101.273713 58.3836066,101.216193 C58.2580874,101.158673 58.2029634,101.01029 58.2604838,100.884771 C58.5105967,100.338982 58.7759014,99.7963093 59.0562447,99.2567645 Z M57.5386906,102.57477 C57.5895479,102.446407 57.7348351,102.383575 57.8631986,102.434433 C57.9915621,102.48529 58.0543933,102.630577 58.003536,102.758941 C57.7831236,103.315261 57.5785941,103.874607 57.3900928,104.436974 C57.3462118,104.567887 57.2045136,104.63844 57.073601,104.594559 C56.9426884,104.550678 56.8721353,104.40898 56.9160162,104.278067 C57.1073799,103.707161 57.3149893,103.139391 57.5386906,102.57477 Z M56.3879733,106.010544 C56.4245381,105.877403 56.5621122,105.799112 56.6952538,105.835676 C56.8283953,105.872241 56.9066863,106.009815 56.8701215,106.142957 C56.7121416,106.718202 56.57075,107.296457 56.446089,107.877719 C56.4171358,108.01272 56.2842244,108.098689 56.1492231,108.069736 C56.0142217,108.040782 55.9282527,107.907871 55.9572059,107.77287 C56.0838564,107.182331 56.2274953,106.594885 56.3879733,106.010544 Z M55.627109,109.561909 C55.6482284,109.425462 55.7759607,109.331971 55.9124071,109.353091 C56.0488535,109.37421 56.1423445,109.501942 56.1212251,109.638389 C56.0956329,109.803733 56.071379,109.96931 56.0484667,110.135121 C56.029567,110.271893 55.9033706,110.367447 55.7665991,110.348547 C55.6298275,110.329648 55.5342734,110.203451 55.553173,110.06668 C55.5764563,109.898185 55.6011027,109.729928 55.627109,109.561909 Z" id="Stroke-13" fill="#242424" fill-rule="nonzero"></path>
                    <path d="M150.3,73.5970857 C150.3,73.5970857 97.2057931,72.7531408 51.2191563,60.5128205 L49.5,67.2661621 C49.5,67.2661621 94.4281011,80.3504274 150.3,80.3504274 L150.3,73.5970857 Z" id="Fill-15" fill="#FFFFFF"></path>
                    <path d="M151.207024,73.1471405 L151.723185,73.1551986 L150.548377,80.8004274 L150.162245,80.8004274 C125.722882,80.8004274 101.591787,78.3444721 78.8281535,74.2511914 C70.86053,72.8184799 63.6325095,71.2833321 57.276565,69.7479977 C55.0512639,69.2104565 53.0936947,68.7112161 51.4204198,68.2630558 C50.8343539,68.1060873 50.3255757,67.9666817 49.8961554,67.8464364 C49.6379182,67.7741254 49.4631817,67.7241698 49.3740165,67.6981669 L48.9567954,67.5764947 L50.8928361,59.9607608 L51.3327018,60.0780006 C57.1340801,61.6242738 63.2366415,63.0342206 69.6054615,64.3136509 C87.4538604,67.8992103 106.581009,70.3241194 125.708723,71.8040471 C132.403823,72.3220527 138.620548,72.6849102 144.199272,72.9196616 C146.151455,73.001809 147.884314,73.0620746 149.377898,73.1038402 C149.900417,73.1184515 150.355639,73.1297062 150.741071,73.138027 C150.971996,73.1430122 151.128145,73.1459091 151.207024,73.1471405 Z M149.352741,74.0034885 C147.854998,73.9616066 146.117918,73.9011942 144.161434,73.8188658 C138.572537,73.5836864 132.345342,73.2202177 125.639297,72.7013653 C106.478026,71.2188414 87.3161892,68.7895345 69.4282022,65.1960222 C63.2024196,63.9453267 57.2292689,62.5700032 51.5408758,61.0644939 L50.0438891,66.9531372 C50.5650052,67.0991075 51.070505,67.2376148 51.6532637,67.3936976 C53.3194876,67.8399694 55.2698898,68.337382 57.4878899,68.8731595 C63.827092,70.4044497 71.0378288,71.9359266 78.9874339,73.3653981 C101.58169,77.428222 125.526325,79.8745084 149.776144,79.9002226 L150.677141,74.0368503 C150.299443,74.0285909 149.857236,74.0175958 149.352741,74.0034885 Z" id="Stroke-17" fill="#242424" fill-rule="nonzero"></path>
                    <path d="M151.2,80.8552576 C151.2,80.8552576 113.046641,79.6298314 111.755324,84.3608212 C111.755324,84.3608212 110.761165,98.1083875 111.669903,105.826893 C113.528272,121.608967 107.126214,193.73613 112.124272,200.546576 L104.4,202.081197 L106.217476,121.717934 C106.217476,121.717934 103.578047,84.7907873 107.021254,77.4795465 L151.2,73.1367521 L151.2,80.8552576 Z" id="Fill-19" fill="#FFFFFF"></path>
                    <path d="M150.75,73.6331563 L107.326163,77.9017428 C106.082083,80.875829 105.593866,88.3903433 105.719531,98.9688523 C105.773899,103.545535 105.940224,108.443529 106.183517,113.394996 C106.289165,115.545131 106.402358,117.560801 106.515544,119.384335 C106.555151,120.022454 106.591926,120.59093 106.624922,121.082555 C106.644705,121.377312 106.658823,121.580813 106.667361,121.728108 L104.862569,201.5305 L111.414352,200.228824 C109.374474,196.071984 109.317841,181.724325 110.439913,151.908096 C110.49967,150.320214 110.561505,148.707175 110.646239,146.518101 C111.683646,119.717081 111.866537,111.344791 111.22299,105.87951 C110.964702,103.6857 110.843307,100.896545 110.83727,97.6479256 C110.831795,94.7016591 110.920494,91.5464015 111.071697,88.396797 C111.12302,87.3277365 111.178012,86.3362643 111.233013,85.4473189 C111.252272,85.1360427 111.270161,84.8597642 111.286222,84.6216023 C111.295876,84.4784561 111.302763,84.3799981 111.321205,84.242329 C111.968028,81.8725649 119.196848,80.7852784 131.446726,80.3993905 C136.924416,80.2268358 142.765996,80.2281886 148.248938,80.3339871 C149.058927,80.3496166 149.788264,80.3663643 150.425311,80.3831149 C150.54497,80.3862612 150.653319,80.3891896 150.75,80.3918658 L150.75,73.6331563 Z M151.185554,81.3050257 C151.047558,81.3005935 150.782375,81.2928147 150.401654,81.2828039 C149.766657,81.2661072 149.039413,81.2494076 148.231575,81.2338196 C142.762597,81.1282906 136.935247,81.126941 131.475064,81.2989443 C120.047525,81.6589273 112.655803,82.7707161 112.204152,84.3932783 C112.168232,84.9186888 112.15045,85.1933102 112.131295,85.5028977 C112.076541,86.3878486 112.021778,87.3752043 111.970662,88.4399537 C111.820121,91.5757549 111.731824,94.7167061 111.737268,97.6462531 C111.743247,100.863228 111.863261,103.620663 112.116815,105.774268 C112.768931,111.312313 112.586639,119.657173 111.545566,146.552912 C111.460843,148.741692 111.399019,150.354443 111.339276,151.941941 C110.180546,182.732264 110.310181,197.314079 112.487059,200.280333 C112.681889,200.545812 112.534947,200.92378 112.211962,200.987949 L104.48769,202.52257 C104.205311,202.578672 103.943606,202.358847 103.950115,202.071022 L105.768621,121.750016 C105.761022,121.643702 105.746814,121.438905 105.726942,121.142825 C105.693847,120.649722 105.656975,120.079744 105.617272,119.440091 C105.503857,117.612846 105.390448,115.593343 105.284602,113.439164 C105.0408,108.477346 104.874109,103.568591 104.819595,98.9795429 C104.688513,87.9450786 105.209796,80.269779 106.614142,77.2878183 C106.681646,77.1444815 106.819554,77.0472048 106.977231,77.0317051 L151.155977,72.6889107 C151.420629,72.6628952 151.65,72.8708244 151.65,73.1367521 L151.65,80.8552576 C151.65,81.1094471 151.439613,81.3131856 151.185554,81.3050257 Z" id="Stroke-21" fill="#242424" fill-rule="nonzero"></path>
                    <g id="Group-26" transform="translate(49.500000, 1.000000)">
                        <path d="M47.1757543,0.30982735 L64.4599629,18.3570902 C77.84958,32.5333145 95.39364,43.0440902 95.39364,43.0440902 C95.39364,66.9596778 81.8863629,79.1314021 81.8863629,79.1314021 C77.4161914,80.6259855 76.4594657,79.3446564 76.4594657,79.3446564 C71.7258086,81.0529449 70.4347286,79.3446564 70.4347286,79.3446564 C66.1321886,81.0529449 63.9802371,78.917697 63.9802371,78.917697 C60.1074514,80.6259855 57.9555,78.917697 57.9555,78.917697 C78.1807543,65.2513893 65.7015257,53.7207803 65.7015257,53.7207803 C60.9678686,48.595915 48.0584314,32.3674 46.7678057,28.9508231 C45.4767257,25.5342462 27.8336314,18.2741329 27.8336314,18.2741329 C27.8336314,18.2741329 12.4260771,8.87832094 0.265302857,0.372045299" id="Fill-23" fill="#FFFFFF"></path>
                        <path d="M94.6418507,43.1118633 C94.2198907,42.8510851 93.7307112,42.5436609 93.1799083,42.1913529 C91.6072774,41.1854568 89.855372,40.0212086 87.9689485,38.7126879 C82.579313,34.9741585 77.1896034,30.8279249 72.1575611,26.3859393 C69.2710952,23.83794 66.5835226,21.26076 64.1349685,18.6683435 L46.8507599,0.621080694 C46.6788594,0.441591246 46.6850115,0.156733431 46.8645009,-0.0151670437 C47.0439904,-0.187067519 47.3288482,-0.180915441 47.5007487,-0.00142599299 L64.7871077,18.0480979 C67.2181971,20.6220078 69.8862743,23.1804932 72.7531675,25.7112148 C77.7566208,30.1279638 83.1192279,34.2533479 88.4819091,37.9731804 C90.3587965,39.2750863 92.1013941,40.4331488 93.6648556,41.43318 C94.211685,41.7829465 94.6969342,42.0879007 95.1149989,42.3462715 C95.3652203,42.5009123 95.5370584,42.6054341 95.6249097,42.6580664 L95.84364,43.0440902 C95.84364,53.5872532 93.2899658,62.6706195 89.0326656,70.2758979 C87.5411872,72.940288 85.9423589,75.2302811 84.3421268,77.1445085 C83.7807207,77.8160729 83.2586918,78.3931342 82.7892521,78.875527 C82.5052624,79.1673527 82.3003134,79.364133 82.1876044,79.4656977 C79.3936063,80.4393309 77.6609308,80.4907142 76.6345438,80.0073663 C76.5304128,79.9583288 76.440748,79.9069644 76.3646296,79.8553814 C73.7570705,80.755972 71.9226285,80.7373207 70.737867,80.1238879 C70.5738644,80.0389725 70.4388972,79.9511298 70.3307737,79.8664148 C68.0109026,80.7238884 66.0920334,80.6040226 64.6035893,79.8654938 C64.310372,79.7200066 64.0765876,79.5721565 63.9018019,79.4404024 C61.7497154,80.3278353 59.9263473,80.3050675 58.4859175,79.7135884 C58.0979711,79.5542872 57.8268826,79.3901478 57.6757147,79.2701459 L57.194954,78.8885025 L57.7035566,78.5448371 C64.2731485,74.1057303 67.7735788,69.6416073 68.7668286,65.2648651 C69.5059321,62.0080155 68.8205124,59.0188105 67.2211503,56.3957906 C66.8180259,55.73465 66.3862362,55.1501716 65.955306,54.649142 C65.6992975,54.3514886 65.502986,54.1500184 65.370961,54.0261113 C59.6375241,47.8188403 47.5214044,32.2191813 46.3468585,29.1098936 C45.9934068,28.1745566 43.9782667,26.6752089 40.7404842,24.8751057 C39.6549732,24.2715965 38.4470507,23.6413982 37.1378833,22.9915631 C35.0657331,21.9630041 32.8442407,20.9357344 30.6225738,19.9586671 C29.844867,19.6166393 29.1227713,19.3053546 28.4748794,19.0308922 C28.0865283,18.8663775 27.8095046,18.750815 27.5993406,18.6583305 C27.5168662,18.6080361 27.3574026,18.5104916 27.1260809,18.3685259 C26.7407527,18.132044 26.293831,17.8568004 25.790447,17.545624 C24.3524165,16.6566781 22.7501257,15.6579578 21.0246163,14.5720895 C16.0943851,11.4694802 11.1640554,8.28995701 6.56171814,5.21434397 C5.41669935,4.44916 4.30432303,3.69851084 3.22771098,2.96411528 C2.11230146,2.20325457 1.03785418,1.4615952 0.00737234172,0.740788908 C-0.19627913,0.598337818 -0.245891842,0.317766256 -0.103440752,0.114114784 C0.0390103383,-0.0895366882 0.319581901,-0.1391494 0.523233373,0.0033016901 C1.55073951,0.722026519 2.62229699,1.46169115 3.73487529,2.22062058 C4.80906197,2.95336171 5.91907687,3.70241735 7.06177963,4.46605358 C11.6565159,7.53658708 16.5801937,10.7118206 21.50397,13.8103678 C23.2273632,14.8949043 24.8276247,15.8923598 26.2636798,16.7800845 C26.7662257,17.0907428 27.2123235,17.365479 27.5968396,17.6014625 C27.8274245,17.742976 27.9861632,17.8400771 28.0048742,17.8579888 C28.1547685,17.9196701 28.434639,18.0364201 28.8259397,18.2021844 C29.4774676,18.4781871 30.2032968,18.7910812 30.9848938,19.1348199 C33.2183804,20.1170854 35.4520416,21.1499822 37.5380346,22.1854124 C38.8590198,22.8411135 40.0791197,23.477665 41.1778107,24.0885019 C44.6334419,26.009722 46.7257369,27.5664761 47.1887715,28.7918016 C48.3067573,31.7513618 60.3821063,47.2985282 66.0069136,53.3902683 C66.1380449,53.5114315 66.3581974,53.7373691 66.6376426,54.0622716 C67.0991352,54.5988352 67.5597684,55.2223568 67.9895721,55.9272526 C69.7021516,58.7359537 70.4405622,61.9562587 69.6445116,65.4640449 C68.6271974,69.9468265 65.1714588,74.4506853 58.8133713,78.8750985 C60.1031509,79.4047455 61.7610563,79.4047455 63.7986252,78.5059725 L64.0793745,78.3821338 L64.297193,78.5982616 C64.4019437,78.7021992 64.6379778,78.8778607 65.0036127,79.0592796 C66.3230894,79.713971 68.0671828,79.8004991 70.2686699,78.9264166 L70.5871339,78.7999731 L70.7937311,79.0733316 C70.8263434,79.1164824 70.9387132,79.2143964 71.1516803,79.3246642 C72.1293172,79.8308543 73.7865532,79.8308543 76.3067118,78.9213761 L76.6204724,78.8081457 L76.8200418,79.0754263 C77.7944411,79.5587849 79.2710104,79.5198574 81.6527458,78.7348106 C81.7605165,78.6338199 81.9266527,78.4714563 82.1442552,78.2478495 C82.5981646,77.7814155 83.1050103,77.2211381 83.651623,76.5672698 C85.217159,74.6945466 86.7840988,72.4502271 88.2473373,69.8362851 C92.3980509,62.421414 94.9026766,53.5722822 94.9431421,43.2971355 C94.8598599,43.2462303 94.7592448,43.1844147 94.6418507,43.1118633 Z" id="Stroke-25" fill="#242424" fill-rule="nonzero"></path>
                    </g>
                    <g id="Group-30" transform="translate(113.400000, 58.709402)" fill="#242424" fill-rule="nonzero">
                        <path d="M0.283838605,21.6673697 C0.0909847192,21.8241295 -0.192433117,21.7948694 -0.34919285,21.6020155 C-0.505952583,21.4091616 -0.476692491,21.1257438 -0.283838605,20.968984 C-0.213890999,20.9121277 -0.0812906259,20.802787 0.104990391,20.6466812 C0.416260532,20.3858329 0.763307576,20.0896276 1.13714905,19.7637974 C2.20512269,18.8329803 3.2729852,17.8520867 4.26857568,16.8674125 C4.9404958,16.2028598 5.5562976,15.5589601 6.1035988,14.9438613 C7.66105132,13.1934775 8.5882479,11.7568067 8.70750407,10.8202055 C9.12546522,7.53766728 9.12546522,1.3155709 8.72780459,0.144715935 C8.64788019,-0.0906100617 8.77385807,-0.346171006 9.00918406,-0.42609541 C9.24451006,-0.506019814 9.50007101,-0.380041932 9.57999541,-0.144715935 C10.0346348,1.19390477 10.0346348,7.52271996 9.60029593,10.9338835 C9.45041198,12.1110259 8.45099115,13.6596065 6.77597035,15.5421225 C6.2150462,16.1725318 5.5862359,16.8300336 4.901454,17.5073071 C3.89110049,18.5065824 2.80973729,19.4998772 1.72848523,20.4422674 C1.3500977,20.7720598 0.998646392,21.0720242 0.683059035,21.3364903 C0.493225553,21.4955731 0.357172712,21.6077607 0.283838605,21.6673697 Z" id="Stroke-29"></path>
                    </g>
                    <g id="Group-34" transform="translate(119.700000, 48.790598)" fill="#242424" fill-rule="nonzero">
                        <path d="M0.246608367,31.9429436 C0.0317681885,32.0678833 -0.243677839,31.9950046 -0.368617555,31.7801644 C-0.493557271,31.5653242 -0.420678546,31.2898782 -0.205838367,31.1649385 C-0.143459091,31.128662 -0.0223390349,31.0552696 0.149088795,30.9466128 C0.43716893,30.7640178 0.758786949,30.5498168 1.10549827,30.3058882 C2.09675378,29.6084908 3.08809198,28.8142786 4.01181952,27.9389965 C6.28183404,25.7880343 7.76397429,23.5156102 8.1004206,21.2258907 C8.19575687,20.5774125 8.61722639,17.6059484 8.73406688,16.8042175 C9.01831414,14.8537824 9.2740636,13.2223126 9.54796522,11.6566894 C10.4935853,6.25151992 11.536999,2.37688196 12.8437598,0.0967851463 C12.9673385,-0.118840762 13.2423182,-0.193459741 13.4579441,-0.0698810094 C13.67357,0.0536977223 13.748189,0.328677414 13.6246102,0.544303322 C12.3865907,2.70445735 11.362498,6.5073481 10.4345006,11.8117864 C10.1622852,13.367771 9.90777587,14.9913297 9.62465903,16.9340082 C9.5081804,17.7332561 9.08660421,20.7054722 8.99085436,21.3567636 C8.61949142,23.8841117 7.03368042,26.3154843 4.63085373,28.5922933 C3.67291492,29.4999924 2.64818205,30.3209587 1.62336649,31.0419674 C1.26445294,31.2944809 0.930847859,31.5166653 0.630907265,31.7067779 C0.449522657,31.8217456 0.31863383,31.9010574 0.246608367,31.9429436 Z" id="Stroke-33"></path>
                    </g>
                    <g id="Group-38" transform="translate(126.000000, 52.397436)" fill="#242424" fill-rule="nonzero">
                        <path d="M0.324969681,28.050408 C0.153054956,28.2298838 -0.131803346,28.2360133 -0.311279145,28.0640986 C-0.490754944,27.8921838 -0.496884406,27.6073255 -0.324969681,27.4278497 C-0.269542121,27.3699844 -0.164601978,27.2592114 -0.0172376905,27.1017024 C0.228930318,26.8385879 0.503373923,26.5410528 0.798997356,26.2152795 C1.64353058,25.2846146 2.48798537,24.3148495 3.2753783,23.3558058 C3.65280007,22.8961065 4.00843165,22.449193 4.33859044,22.0183283 C5.89453235,19.9877885 6.79635,18.4185523 6.79635,17.6520923 C6.79635,14.7133079 11.6251019,0.0483010228 13.0733394,-0.427517036 C13.3094505,-0.505091291 13.5637428,-0.376571752 13.641317,-0.140460613 C13.7188913,0.0956505263 13.5903718,0.349942782 13.3542606,0.427517036 C12.4186567,0.734909451 7.69635,15.0766405 7.69635,17.6520923 C7.69635,18.7014017 6.74321629,20.359932 5.05297293,22.5657382 C4.7163849,23.0049933 4.35452888,23.4597289 3.9709717,23.9269011 C3.17322557,24.898555 2.31931707,25.8791766 1.46548702,26.8200865 C1.1666833,27.1493644 0.889158842,27.4502396 0.639970894,27.7165819 C0.490121607,27.876747 0.38276634,27.9900694 0.324969681,28.050408 Z" id="Stroke-37"></path>
                    </g>
                    <path d="M55.2374469,65.0112758 C55.0006694,64.9646728 54.8551637,64.7692289 54.9124841,64.57523 L55.8432799,61.4145299 L56.7,61.5843241 L55.7696452,64.7446629 C55.7123247,64.9386618 55.4742244,65.0578789 55.2374469,65.0112758" id="Fill-39" fill="#242424"></path>
                    <path d="M62.4374469,66.8146947 C62.2006694,66.7680916 62.0551637,66.5726477 62.1124841,66.3786488 L63.0432799,63.2179487 L63.9,63.3877429 L62.9696452,66.5480817 C62.9123247,66.7420806 62.6742244,66.8612977 62.4374469,66.8146947" id="Fill-41" fill="#242424"></path>
                    <path d="M68.4124841,67.2803582 L69.2184752,64.4902622 L70.0751953,64.6600564 L69.2696452,67.4497911 C69.2123247,67.64379 68.9742244,67.7630071 68.7374469,67.7164041 C68.5006694,67.669801 68.3551637,67.4743571 68.4124841,67.2803582 Z" id="Fill-43" fill="#242424"></path>
                    <path d="M73.2374469,69.5198229 C73.0006694,69.4732198 72.8551637,69.2777759 72.9124841,69.083777 L73.8432799,65.9230769 L74.7,66.0928711 L73.7696452,69.2532099 C73.7123247,69.4472088 73.4742244,69.5664259 73.2374469,69.5198229" id="Fill-45" fill="#242424"></path>
                    <path d="M81.3374469,70.4215323 C81.1006694,70.3749292 80.9551637,70.1794853 81.0124841,69.9854864 L81.9432799,66.8247863 L82.8,66.9945805 L81.8696452,70.1549193 C81.8123247,70.3489182 81.5742244,70.4681353 81.3374469,70.4215323" id="Fill-47" fill="#242424"></path>
                    <path d="M86.7374469,71.3232417 C86.5006694,71.2766386 86.3551637,71.0811947 86.4124841,70.8871958 L87.3432799,67.7264957 L88.2,67.8962899 L87.2696452,71.0566287 C87.2123247,71.2506276 86.9742244,71.3698447 86.7374469,71.3232417" id="Fill-49" fill="#242424"></path>
                    <path d="M93.9374469,72.2249511 C93.7006694,72.178348 93.5551637,71.9829041 93.6124841,71.7889052 L94.5432799,68.6282051 L95.4,68.7979993 L94.4696452,71.9583381 C94.4123247,72.152337 94.1742244,72.2715541 93.9374469,72.2249511" id="Fill-51" fill="#242424"></path>
                    <path d="M99.3374469,73.1266605 C99.1006694,73.0800574 98.9551637,72.8846135 99.0124841,72.6906146 L99.9432799,69.5299145 L100.8,69.6997087 L99.8696452,72.8600475 C99.8123247,73.0540464 99.5742244,73.1732635 99.3374469,73.1266605" id="Fill-53" fill="#242424"></path>
                    <path d="M106.537447,74.0283699 C106.300669,73.9817668 106.155164,73.7863229 106.212484,73.592324 L107.14328,70.4316239 L108,70.6014181 L107.069645,73.7617569 C107.012325,73.9557558 106.774224,74.0749729 106.537447,74.0283699" id="Fill-55" fill="#242424"></path>
                    <path d="M137.024594,77.3126406 L136.8,74.992934 L137.474797,74.9401709 L137.699053,77.2598776 C137.712921,77.4572902 137.572888,77.6295777 137.386515,77.6442939 C137.200143,77.6590101 137.038124,77.5104122 137.024594,77.3126406 Z" id="Fill-57" fill="#242424"></path>
                    <path d="M142.424594,76.4109312 L142.2,74.0912246 L142.874797,74.0384615 L143.099053,76.3581682 C143.112921,76.5555808 142.972888,76.7278683 142.786515,76.7425845 C142.600143,76.7573007 142.438124,76.6087028 142.424594,76.4109312 Z" id="Fill-59" fill="#242424"></path>
                    <path d="M105.300362,85.2657566 L105.304056,85.1848661 C105.312113,84.995866 105.453121,84.8501865 105.618638,84.8593873 L108,84.9950993 L107.966762,85.7606838 L105.585401,85.6253551 C105.419548,85.6157709 105.292305,85.45514 105.300362,85.2657566" id="Fill-61" fill="#242424" transform="translate(106.650000, 85.309829) rotate(-180.000000) translate(-106.650000, -85.309829) "></path>
                    <path d="M105.300362,91.4185972 L105.304056,91.3377067 C105.312113,91.1487066 105.453121,91.0030271 105.618638,91.0122279 L108,91.1479399 L107.966762,91.9135244 L105.585401,91.7781957 C105.419548,91.7686115 105.292305,91.6079807 105.300362,91.4185972" id="Fill-63" fill="#242424" transform="translate(106.650000, 91.462670) rotate(-180.000000) translate(-106.650000, -91.462670) "></path>
                    <path d="M105.300362,97.5714378 L105.304056,97.4905473 C105.312113,97.3015473 105.453121,97.1558677 105.618638,97.1650685 L108,97.3007805 L107.966762,98.066365 L105.585401,97.9310364 C105.419548,97.9214522 105.292305,97.7608213 105.300362,97.5714378" id="Fill-65" fill="#242424" transform="translate(106.650000, 97.615510) rotate(-180.000000) translate(-106.650000, -97.615510) "></path>
                    <path d="M105.300362,103.724278 L105.304056,103.643388 C105.312113,103.454388 105.453121,103.308708 105.618638,103.317909 L108,103.453621 L107.966762,104.219206 L105.585401,104.083877 C105.419548,104.074293 105.292305,103.913662 105.300362,103.724278" id="Fill-67" fill="#242424" transform="translate(106.650000, 103.768351) rotate(-180.000000) translate(-106.650000, -103.768351) "></path>
                    <path d="M105.300362,109.877119 L105.304056,109.796229 C105.312113,109.607229 105.453121,109.461549 105.618638,109.47075 L108,109.606462 L107.966762,110.372046 L105.585401,110.236718 C105.419548,110.227133 105.292305,110.066503 105.300362,109.877119" id="Fill-69" fill="#242424" transform="translate(106.650000, 109.921192) rotate(-180.000000) translate(-106.650000, -109.921192) "></path>
                    <path d="M105.804739,115.842986 C105.812797,115.653986 105.953805,115.508306 106.119322,115.517507 L108,115.653219 L107.966762,116.418803 L106.086084,116.283475 C105.920232,116.273891 105.792988,116.11326 105.801046,115.923876 L105.804739,115.842986 Z" id="Fill-71" fill="#242424" transform="translate(106.900342, 115.967949) rotate(-180.000000) translate(-106.900342, -115.967949) "></path>
                    <path d="M106.204056,122.10191 C106.212113,121.91291 106.353121,121.76723 106.518638,121.776431 L108,121.912143 L107.966762,122.677728 L106.485401,122.542399 C106.319548,122.532815 106.192305,122.372184 106.200362,122.1828 L106.204056,122.10191 Z" id="Fill-73" fill="#242424" transform="translate(107.100000, 122.226873) rotate(-180.000000) translate(-107.100000, -122.226873) "></path>
                    <path d="M106.200362,128.335641 L106.204056,128.25475 C106.212113,128.06575 106.353121,127.920071 106.518638,127.929272 L108.9,128.064984 L108.866762,128.830568 L106.485401,128.695239 C106.319548,128.685655 106.192305,128.525024 106.200362,128.335641" id="Fill-75" fill="#242424" transform="translate(107.550000, 128.379713) rotate(-180.000000) translate(-107.550000, -128.379713) "></path>
                    <path d="M106.200362,134.488482 L106.204056,134.407591 C106.212113,134.218591 106.353121,134.072911 106.518638,134.082112 L108.9,134.217824 L108.866762,134.983409 L106.485401,134.84808 C106.319548,134.838496 106.192305,134.677865 106.200362,134.488482" id="Fill-77" fill="#242424" transform="translate(107.550000, 134.532554) rotate(-180.000000) translate(-107.550000, -134.532554) "></path>
                    <path d="M105.300362,140.641322 L105.304056,140.560432 C105.312113,140.371432 105.453121,140.225752 105.618638,140.234953 L108,140.370665 L107.966762,141.136249 L105.585401,141.000921 C105.419548,140.991337 105.292305,140.830706 105.300362,140.641322" id="Fill-79" fill="#242424" transform="translate(106.650000, 140.685395) rotate(-180.000000) translate(-106.650000, -140.685395) "></path>
                    <path d="M105.300362,146.794163 L105.304056,146.713272 C105.312113,146.524272 105.453121,146.378593 105.618638,146.387794 L108,146.523506 L107.966762,147.28909 L105.585401,147.153761 C105.419548,147.144177 105.292305,146.983546 105.300362,146.794163" id="Fill-81" fill="#242424" transform="translate(106.650000, 146.838235) rotate(-180.000000) translate(-106.650000, -146.838235) "></path>
                    <path d="M105.300362,152.947003 L105.304056,152.866113 C105.312113,152.677113 105.453121,152.531433 105.618638,152.540634 L108,152.676346 L107.966762,153.441931 L105.585401,153.306602 C105.419548,153.297018 105.292305,153.136387 105.300362,152.947003" id="Fill-83" fill="#242424" transform="translate(106.650000, 152.991076) rotate(-180.000000) translate(-106.650000, -152.991076) "></path>
                    <path d="M105.300362,159.099844 L105.304056,159.018954 C105.312113,158.829954 105.453121,158.684274 105.618638,158.693475 L108,158.829187 L107.966762,159.594771 L105.585401,159.459443 C105.419548,159.449858 105.292305,159.289228 105.300362,159.099844" id="Fill-85" fill="#242424" transform="translate(106.650000, 159.143917) rotate(-180.000000) translate(-106.650000, -159.143917) "></path>
                    <path d="M105.300362,165.252685 L105.304056,165.171794 C105.312113,164.982794 105.453121,164.837115 105.618638,164.846315 L108,164.982027 L107.966762,165.747612 L105.585401,165.612283 C105.419548,165.602699 105.292305,165.442068 105.300362,165.252685" id="Fill-87" fill="#242424" transform="translate(106.650000, 165.296757) rotate(-180.000000) translate(-106.650000, -165.296757) "></path>
                    <path d="M105.300362,171.405525 L105.304056,171.324635 C105.312113,171.135635 105.453121,170.989955 105.618638,170.999156 L108,171.134868 L107.966762,171.900452 L105.585401,171.765124 C105.419548,171.75554 105.292305,171.594909 105.300362,171.405525" id="Fill-89" fill="#242424" transform="translate(106.650000, 171.449598) rotate(-180.000000) translate(-106.650000, -171.449598) "></path>
                    <path d="M105.300362,177.558366 L105.304056,177.477475 C105.312113,177.288475 105.453121,177.142796 105.618638,177.151997 L108,177.287709 L107.966762,178.053293 L105.585401,177.917964 C105.419548,177.90838 105.292305,177.747749 105.300362,177.558366" id="Fill-91" fill="#242424" transform="translate(106.650000, 177.602438) rotate(-180.000000) translate(-106.650000, -177.602438) "></path>
                    <path d="M104.400362,183.711207 L104.404056,183.630316 C104.412113,183.441316 104.553121,183.295636 104.718638,183.304837 L107.1,183.440549 L107.066762,184.206134 L104.685401,184.070805 C104.519548,184.061221 104.392305,183.90059 104.400362,183.711207" id="Fill-93" fill="#242424" transform="translate(105.750000, 183.755279) rotate(-180.000000) translate(-105.750000, -183.755279) "></path>
                    <path d="M104.400362,189.864047 L104.404056,189.783157 C104.412113,189.594157 104.553121,189.448477 104.718638,189.457678 L107.1,189.59339 L107.066762,190.358974 L104.685401,190.223646 C104.519548,190.214062 104.392305,190.053431 104.400362,189.864047" id="Fill-95" fill="#242424" transform="translate(105.750000, 189.908120) rotate(-180.000000) translate(-105.750000, -189.908120) "></path>
                </g>
            </g>
        </g>
    </g>
</svg>