<?xml version="1.0" encoding="UTF-8"?>
<svg width="228px" height="228px" viewBox="0 0 228 228" version="1.1" xmlns="http://www.w3.org/2000/svg" xmlns:xlink="http://www.w3.org/1999/xlink">
    <!-- Generator: Sketch 49.2 (51160) - http://www.bohemiancoding.com/sketch -->
    <title>内腿长@1x</title>
    <desc>Created with Sketch.</desc>
    <defs></defs>
    <g id="Page-1" stroke="none" stroke-width="1" fill="none" fill-rule="evenodd">
        <g id="测量内腿长" transform="translate(-74.000000, -160.000000)">
            <g id="内腿长" transform="translate(74.000000, 160.000000)">
                <g transform="translate(45.000000, 0.000000)" id="Group-2">
                    <g>
                        <g id="内腿长">
                            <g id="人体尺码教程图-copy">
                                <g id="人体线性图">
                                    <rect id="Rectangle" fill="#FFFFFF" opacity="0" x="0" y="0" width="158" height="228"></rect>
                                    <path d="M89.082601,225.497548 C89.1642859,225.454837 89.4975022,225.284129 89.5807757,225.240605 C90.3143645,224.857184 90.7022739,224.565919 90.9151572,224.18024 C91.4596944,223.193705 90.0872248,221.400885 87.5403881,220.461527 C86.1416389,219.945622 84.5451086,218.325269 82.8075438,215.916166 C82.1723499,215.035481 81.5507015,214.092179 80.9493756,213.116171 C80.5409027,212.453181 80.236546,211.933945 79.8743841,211.298852 C79.5767335,210.776887 79.6193417,210.214948 79.9039754,209.540847 C79.9890098,209.339459 80.0800432,209.157265 80.2430859,208.850561 C80.7403559,207.915135 80.8297313,207.612453 80.6464668,207.367281 C79.9522571,206.438563 79.4536629,204.723054 79.1021085,202.546315 C78.7612355,200.435712 85.083056,174.466799 90.2729892,157.802328 C92.883793,149.41924 94.5359937,142.118649 95.4206647,135.821743 C96.0149028,131.592079 96.182595,128.635162 96.1626654,125.859112 C96.1544732,124.718007 95.580148,120.682988 94.5341639,114.113857 C94.4880356,113.824156 94.4408814,113.528818 94.3925571,113.226907 C94.1008507,111.404442 93.1720452,105.678451 93.1977045,105.837478 C92.8110293,103.440999 92.6363828,102.305161 92.6158605,102.013421 C92.5882118,101.620371 93.152634,99.0256268 94.4323945,93.5158509 C95.1536096,90.4107908 98.3397656,76.8827752 98.5022401,76.1901168 C98.614093,75.7131774 98.614093,75.7131774 98.725897,75.2360614 C101.191035,64.7139879 102.768432,57.7447894 103.654904,53.3124487 C105.200478,45.5846121 105.581698,43.4565048 105.860582,40.677423 C106.120372,38.0886204 106.177195,35.9709045 106.212816,29.359239 C106.214287,29.0861856 106.220981,27.8136051 106.222929,27.4525127 C106.256443,21.2429581 103.947216,13.7340099 98.8638915,1.13444879 L99.5315968,0.865061412 C104.652479,13.5577151 106.977135,21.1168289 106.942919,27.4563986 C106.94097,27.8174261 106.934277,29.090002 106.932806,29.363118 C106.897055,35.9987743 106.839882,38.129537 106.576984,40.7493148 C106.294827,43.5610047 105.911639,45.7001014 104.360922,53.4536529 C103.472349,57.8965021 101.893928,64.8702253 99.4269151,75.4002977 C99.3150881,75.877512 99.3150881,75.877512 99.203214,76.3545419 C99.0405088,77.0481837 95.8546432,90.5749663 95.1337247,93.6787495 C93.9330123,98.8481981 93.3148792,101.68986 93.3340857,101.962898 C93.3521772,102.220083 93.5310739,103.383562 93.9085112,105.722788 C93.882746,105.563104 94.8116591,111.289759 95.1035075,113.113111 C95.1518621,113.415211 95.199047,113.710742 95.2452067,114.00064 C96.3025555,120.641145 96.8740485,124.656266 96.8826468,125.853943 C96.9028154,128.663276 96.7331595,131.654818 96.1336624,135.921915 C95.2435058,142.257865 93.5826908,149.59652 90.9604225,158.01642 C85.8227887,174.512962 79.4991963,200.489154 79.8128981,202.431519 C80.1462575,204.495599 80.6217569,206.131646 81.22316,206.936207 C81.6602394,207.520934 81.5289362,207.96561 80.8788377,209.188525 C80.7253169,209.477317 80.6416393,209.64479 80.5672703,209.820918 C80.3611342,210.309112 80.3350439,210.653205 80.4998364,210.942188 C80.8583112,211.570815 81.1589485,212.083706 81.5623717,212.738499 C82.1551425,213.700622 82.7674431,214.629739 83.3915023,215.494986 C85.0476454,217.7912 86.5698968,219.336165 87.789541,219.786011 C90.6907903,220.856087 92.365142,223.043248 91.5455076,224.528174 C91.2437351,225.074893 90.7662687,225.433403 89.9142877,225.878704 C89.8275201,225.924054 89.4943719,226.094727 89.4162148,226.135593 C88.9201861,226.394951 88.6600047,226.573536 88.5213399,226.765239 L88.1294159,226.900015 C88.0649849,226.881337 87.9423763,226.851412 87.7786564,226.821049 C87.4071277,226.752147 87.0291365,226.721748 86.6843275,226.750629 C86.2254606,226.789064 85.88229,226.928636 85.6798273,227.175895 L78.1532221,227.606152 L77.5330039,226.442079 C77.1609833,227.200664 76.4319624,227.597159 75.3909933,227.597159 C75.1624206,227.597159 74.9771681,227.602052 74.526087,227.617606 C74.3702532,227.622972 74.3011347,227.625277 74.2130365,227.627941 C71.8353911,227.699829 70.7457048,227.33236 70.6352913,225.736424 C70.6161416,225.459631 70.0736988,219.437999 69.8570663,216.832695 C69.7557691,215.614457 69.662897,214.450283 69.5786171,213.335479 C69.156976,207.758258 68.9759402,203.783402 69.1138485,201.876901 C69.4314599,197.486109 70.6344328,167.775104 70.6344328,164.783206 C70.6344328,164.177694 70.3119026,156.503089 70.308744,156.421838 C70.1780594,153.060145 70.08473,150.059651 70.0310493,147.210127 C69.8861104,139.516354 70.0532556,133.984399 70.6421718,131.1902 C72.5232181,122.265298 72.7317504,115.43741 70.6464415,107.567355 C69.0194578,101.427042 68.7998824,78.9297436 69.975896,39.9645677 L65.232986,39.7542109 C66.4047431,78.9449835 66.1846354,101.42914 64.5582077,107.567355 C62.4728987,115.43741 62.6814311,122.265298 64.5624774,131.1902 C65.1513935,133.984399 65.3185388,139.516354 65.1735998,147.210127 C65.1199191,150.059651 65.0265898,153.060145 64.8959052,156.421838 C64.8927466,156.503089 64.5702163,164.177694 64.5702163,164.783206 C64.5702163,167.775104 65.7731893,197.486109 66.0908007,201.876901 C66.228709,203.783402 66.0476732,207.758258 65.6260321,213.335479 C65.5417522,214.450283 65.4488801,215.614457 65.3475829,216.832695 C65.1309504,219.437999 64.5885076,225.459631 64.5693579,225.736424 C64.4589443,227.33236 63.369258,227.699829 60.9916127,227.627941 C60.9035145,227.625277 60.834396,227.622972 60.6785622,227.617606 C60.2274811,227.602052 60.0422286,227.597159 59.8136559,227.597159 C58.7726867,227.597159 58.0436659,227.200664 57.6716452,226.442079 L57.0514271,227.606152 L49.6271639,227.300881 C49.3223592,226.928636 48.9791885,226.789064 48.5203217,226.750629 C48.1755127,226.721748 47.7975214,226.752147 47.4259928,226.821049 C47.2622729,226.851412 47.1396642,226.881337 47.0752333,226.900015 L46.8318339,226.970574 C46.5446445,226.573536 46.2844631,226.394951 45.7884344,226.135593 C45.7102772,226.094727 45.3771291,225.924054 45.2903615,225.878704 C44.4383804,225.433403 43.9609141,225.074893 43.6591416,224.528174 C42.8395072,223.043248 44.5138588,220.856087 47.4151082,219.786011 C48.6347524,219.336165 50.1570038,217.7912 51.8131468,215.494986 C52.4372061,214.629739 53.0495066,213.700622 53.6422775,212.738499 C54.0457006,212.083706 54.3463379,211.570815 54.7048128,210.942188 C54.8696053,210.653205 54.8435149,210.309112 54.6373789,209.820918 C54.5630099,209.64479 54.4793322,209.477317 54.3258115,209.188525 C53.6757129,207.96561 53.5444097,207.520934 53.9814892,206.936207 C54.5828923,206.131646 55.0583916,204.495599 55.3917511,202.431519 C55.7054529,200.489154 49.3818604,174.512962 44.2442267,158.01642 C41.6219584,149.59652 39.9611433,142.257865 39.0709868,135.921915 C38.4714897,131.654818 38.3018338,128.663276 38.3220024,125.853943 C38.3306006,124.656266 38.9020936,120.641145 39.9594425,114.00064 C40.0056021,113.710742 40.0527871,113.415211 40.1011416,113.113111 C40.3929901,111.289759 41.3219032,105.563104 41.2961379,105.722788 C41.6735753,103.383562 41.852472,102.220083 41.8705634,101.962898 C41.88977,101.68986 41.2716369,98.8481981 40.0709245,93.6787495 C39.350006,90.5749663 36.1641404,77.0481837 36.0014352,76.3545419 C35.889561,75.877512 35.889561,75.877512 35.777734,75.4002977 C33.3107216,64.8702253 31.7323005,57.8965021 30.8437268,53.4536529 C29.2930098,45.7001014 28.9098217,43.5610047 28.6276653,40.7493148 C28.3647674,38.129537 28.3075937,35.9987743 28.2718434,29.363118 C28.2703719,29.090002 28.2636788,27.8174261 28.2617303,27.4563986 C28.2271402,21.0474814 30.5679914,13.4961086 35.8242973,0.490520411 L36.4918392,0.760312488 C31.2737275,13.6713975 28.9478363,21.1745108 28.9817198,27.4525127 C28.9836687,27.8136051 28.9903618,29.0861856 28.9918329,29.359239 C29.027454,35.9709045 29.0842776,38.0886204 29.3440671,40.677423 C29.6229513,43.4565048 30.0041707,45.5846121 31.5497448,53.3124487 C32.4362168,57.7447894 34.0136137,64.7139879 36.4787522,75.2360614 C36.5905561,75.7131774 36.5905561,75.7131774 36.702409,76.1901168 C36.8648836,76.8827752 40.0510396,90.4107908 40.7722547,93.5158509 C42.0520152,99.0256268 42.6164374,101.620371 42.5887886,102.013421 C42.5682664,102.305161 42.3936199,103.440999 42.0069447,105.837478 C42.032604,105.678451 41.1037985,111.404442 40.8120921,113.226907 C40.7637678,113.528818 40.7166135,113.824156 40.6704852,114.113857 C39.6245012,120.682988 39.0501759,124.718007 39.0419838,125.859112 C39.0220542,128.635162 39.1897464,131.592079 39.7839845,135.821743 C40.6686555,142.118649 42.3208562,149.41924 44.93166,157.802328 C50.1215932,174.466799 56.4434137,200.435712 56.1025407,202.546315 C55.7509863,204.723054 55.2523921,206.438563 54.5581824,207.367281 C54.3749178,207.612453 54.4642933,207.915135 54.9615633,208.850561 C55.1246059,209.157265 55.2156394,209.339459 55.3006738,209.540847 C55.5853074,210.214948 55.6279157,210.776887 55.3302651,211.298852 C54.9681032,211.933945 54.6637465,212.453181 54.2552736,213.116171 C53.6539476,214.092179 53.0322993,215.035481 52.3971054,215.916166 C50.6595406,218.325269 49.0630103,219.945622 47.6642611,220.461527 C45.1174244,221.400885 43.7449547,223.193705 44.289492,224.18024 C44.5023753,224.565919 44.8902846,224.857184 45.6238735,225.240605 C45.707147,225.284129 46.0403633,225.454837 46.1220482,225.497548 C46.5863567,225.74032 46.8874257,225.930542 47.1044584,226.15147 C47.7242,226.033468 48.1629985,225.998179 48.580418,226.033142 C49.1492856,226.08079 49.6264983,226.255658 49.967866,226.594281 L56.6288066,226.868166 L57.9945895,224.304762 L58.1307572,225.442913 C58.248492,226.426993 58.7729023,226.877159 59.8136559,226.877159 C60.0534685,226.877159 60.2437211,226.882184 60.703374,226.898034 C60.8586289,226.903379 60.9266034,226.905646 61.013372,226.908269 C63.0279625,226.969181 63.7798925,226.715611 63.8510748,225.68673 C63.8708359,225.4011 64.4139777,219.371709 64.6300591,216.773032 C64.731214,215.556505 64.8239446,214.394106 64.9080808,213.281201 C65.3266825,207.744186 65.5069809,203.785519 65.372677,201.928847 C65.0538803,197.521669 63.8502163,167.793597 63.8502163,164.783206 C63.8502163,164.160036 64.1746481,156.440185 64.1764486,156.393869 C64.3069615,153.036594 64.4001494,150.040647 64.4537276,147.196566 C64.5975539,139.561853 64.4312862,134.05894 63.8579553,131.338687 C61.9556763,122.313044 61.7438633,115.37774 63.862225,107.382942 C65.466935,101.326691 65.6831845,78.7079703 64.5016918,39.3881947 L70.7170578,39.2767315 C69.5215659,78.7051005 69.7375833,101.326197 71.3424242,107.382942 C73.4607859,115.37774 73.2489729,122.313044 71.3466939,131.338687 C70.773363,134.05894 70.6070953,139.561853 70.7509216,147.196566 C70.8044998,150.040647 70.8976877,153.036594 71.0282005,156.393869 C71.030001,156.440185 71.3544328,164.160036 71.3544328,164.783206 C71.3544328,167.793597 70.1507688,197.521669 69.8319722,201.928847 C69.6976683,203.785519 69.8779667,207.744186 70.2965683,213.281201 C70.3807045,214.394106 70.4734351,215.556505 70.5745901,216.773032 C70.7906715,219.371709 71.3338132,225.4011 71.3535743,225.68673 C71.4247567,226.715611 72.1766867,226.969181 74.1912772,226.908269 C74.2780457,226.905646 74.3460202,226.903379 74.5012751,226.898034 C74.9609281,226.882184 75.1511807,226.877159 75.3909933,226.877159 C76.4317468,226.877159 76.9561571,226.426993 77.0738919,225.442913 L77.2100597,224.304762 L78.5758425,226.868166 L85.2367831,226.594281 C85.5781508,226.255658 86.0553636,226.08079 86.6242312,226.033142 C87.0416507,225.998179 87.4804492,226.033468 87.9099455,226.11312 C88.3172235,225.930542 88.6182925,225.74032 89.082601,225.497548 Z" id="Combined-Shape" fill="#242424" fill-rule="nonzero"></path>
                                    <path d="M101.966726,7.06942834 C103.067926,9.98993345 103.972655,12.6059678 104.711102,15.0539291 L104.820915,15.4179604 L104.451428,15.5077232 C98.8802287,16.861186 92.1419146,20.97538 85.1947841,26.7874887 C80.0250669,31.1125777 75.0036581,36.2645836 73.6924549,38.3159487 C72.0781679,40.8414855 69.8334015,42.3645375 67.6463731,42.3645375 C65.5901693,42.3645375 63.8978288,40.9893464 62.1225531,38.2119443 C60.7849767,36.1193186 55.6324682,30.8483335 50.3663073,26.4717564 C43.2681805,20.5726776 36.4286703,16.4784478 30.8319811,15.2822693 L30.448616,15.2003328 L30.5628465,14.8253211 C31.3199665,12.3397434 32.2455496,9.68448653 33.3750474,6.70685861 L33.5233282,6.31595467 L33.8878846,6.52062941 C40.3766511,10.1636508 52.1794694,12.1037687 69.2617507,12.3195034 C84.4685239,11.9991991 95.2298408,10.1728163 101.461617,6.87818087 L101.822646,6.68731135 L101.966726,7.06942834 Z" id="Path" fill="#3C3C3C"></path>
                                    <path d="M69.2647899,13.0393949 C52.3717741,12.8262523 40.5912025,10.9364055 33.9018127,7.34947658 C32.8990407,10.0101023 32.062338,12.4108073 31.3655276,14.6639584 C37.0267817,15.9890118 43.8053679,20.0829309 50.8265017,25.9180227 C56.1448625,30.3379817 61.3433428,35.6559958 62.7292127,37.8241762 C64.385505,40.4154298 65.898072,41.6445375 67.6463731,41.6445375 C69.557965,41.6445375 71.5928403,40.2638946 73.0857953,37.9281806 C74.4449092,35.8018598 79.5115279,30.603468 84.732781,26.235263 C91.6064633,20.4846027 98.2852401,16.3733609 103.912165,14.9012564 C103.232106,12.6808329 102.413971,10.3147109 101.435422,7.70233798 C95.0342546,10.9429278 84.2989632,12.7229265 69.2647899,13.0393949 Z" id="Path" fill="#F9E5CB"></path>
                                </g>
                            </g>
                            <g id="Page-1" transform="translate(71.472727, 121.683544) scale(-1, 1) translate(-71.472727, -121.683544) translate(67.972727, 38.683544)">
                                <g id="Group-22" transform="translate(0.000000, 0.000000)">
                                    <path d="M1.00044687,165.14481 C0.801624359,165.14481 0.640446869,164.983633 0.640446869,164.78481 L0.640446869,1.20003711 C0.640446869,1.0012146 0.801624359,0.840037108 1.00044687,0.840037108 L6.38572525,0.840037108 C6.58454776,0.840037108 6.74572525,1.0012146 6.74572525,1.20003711 L6.74572525,164.78481 C6.74572525,164.983633 6.58454776,165.14481 6.38572525,165.14481 L1.00044687,165.14481 Z" id="Path" fill="#242424"></path>
                                    <polygon id="Path" fill="#FFFFFF" points="6.02572525 164.42481 6.02572525 1.56003711 1.36044687 1.56003711 1.36044687 164.42481"></polygon>
                                    <path d="M6.2820964,9.86813268 L4.45925519,9.86813268 C4.20498691,9.86813268 3.99853358,9.67718817 3.99853358,9.44202057 C3.99853358,9.20643968 4.20498691,9.01549517 4.45925519,9.01549517 L6.2820964,9.01549517 L6.2820964,9.86813268 Z" id="Fill-4" fill="#242424"></path>
                                    <path d="M6.2820964,16.6896047 L4.45925519,16.6896047 C4.20498691,16.6896047 3.99853358,16.4986602 3.99853358,16.2634926 C3.99853358,16.0274984 4.20498691,15.8369672 4.45925519,15.8369672 L6.2820964,15.8369672 L6.2820964,16.6896047 Z" id="Fill-5" fill="#242424"></path>
                                    <path d="M6.2820964,23.5110354 L4.45925519,23.5110354 C4.20498691,23.5110354 3.99853358,23.3200909 3.99853358,23.08451 C3.99853358,22.8489291 4.20498691,22.6583979 4.45925519,22.6583979 L6.2820964,22.6583979 L6.2820964,23.5110354 Z" id="Fill-6" fill="#242424"></path>
                                    <path d="M6.2820964,30.3321354 L4.45925519,30.3321354 C4.20498691,30.3321354 3.99853358,30.1411909 3.99853358,29.9060233 C3.99853358,29.6704424 4.20498691,29.4794979 4.45925519,29.4794979 L6.2820964,29.4794979 L6.2820964,30.3321354 Z" id="Fill-7" fill="#242424"></path>
                                    <path d="M6.2820964,37.1535661 L4.45925519,37.1535661 C4.20498691,37.1535661 3.99853358,36.9626216 3.99853358,36.727454 C3.99853358,36.4914598 4.20498691,36.3009286 4.45925519,36.3009286 L6.2820964,36.3009286 L6.2820964,37.1535661 Z" id="Fill-8" fill="#242424"></path>
                                    <path d="M6.2820964,43.9750382 L4.45925519,43.9750382 C4.20498691,43.9750382 3.99853358,43.7840936 3.99853358,43.5485128 C3.99853358,43.3129319 4.20498691,43.1224007 4.45925519,43.1224007 L6.2820964,43.1224007 L6.2820964,43.9750382 Z" id="Fill-9" fill="#242424"></path>
                                    <path d="M6.2820964,50.7960969 L4.45925519,50.7960969 C4.20498691,50.7960969 3.99853358,50.6051524 3.99853358,50.3699848 C3.99853358,50.1344039 4.20498691,49.9434594 4.45925519,49.9434594 L6.2820964,49.9434594 L6.2820964,50.7960969 Z" id="Fill-10" fill="#242424"></path>
                                    <path d="M6.2820964,57.6175689 L4.45925519,57.6175689 C4.20498691,57.6175689 3.99853358,57.4266244 3.99853358,57.1914568 C3.99853358,56.9554626 4.20498691,56.7649314 4.45925519,56.7649314 L6.2820964,56.7649314 L6.2820964,57.6175689 Z" id="Fill-11" fill="#242424"></path>
                                    <path d="M6.2820964,64.4390409 L4.45925519,64.4390409 C4.20498691,64.4390409 3.99853358,64.2480964 3.99853358,64.0125155 C3.99853358,63.7769346 4.20498691,63.5864034 4.45925519,63.5864034 L6.2820964,63.5864034 L6.2820964,64.4390409 Z" id="Fill-12" fill="#242424"></path>
                                    <path d="M6.2820964,71.2600996 L4.45925519,71.2600996 C4.20498691,71.2600996 3.99853358,71.0691551 3.99853358,70.8339875 C3.99853358,70.5984066 4.20498691,70.4074621 4.45925519,70.4074621 L6.2820964,70.4074621 L6.2820964,71.2600996 Z" id="Fill-13" fill="#242424"></path>
                                    <path d="M6.2820964,78.0815717 L4.45925519,78.0815717 C4.20498691,78.0815717 3.99853358,77.8906272 3.99853358,77.6554596 C3.99853358,77.4194654 4.20498691,77.2289342 4.45925519,77.2289342 L6.2820964,77.2289342 L6.2820964,78.0815717 Z" id="Fill-14" fill="#242424"></path>
                                    <path d="M6.2820964,84.9030437 L4.45925519,84.9030437 C4.20498691,84.9030437 3.99853358,84.7120992 3.99853358,84.4765183 C3.99853358,84.2409374 4.20498691,84.0504062 4.45925519,84.0504062 L6.2820964,84.0504062 L6.2820964,84.9030437 Z" id="Fill-15" fill="#242424"></path>
                                    <path d="M6.2820964,91.7241024 L4.45925519,91.7241024 C4.20498691,91.7241024 3.99853358,91.5331579 3.99853358,91.2979903 C3.99853358,91.0624094 4.20498691,90.8714649 4.45925519,90.8714649 L6.2820964,90.8714649 L6.2820964,91.7241024 Z" id="Fill-16" fill="#242424"></path>
                                    <path d="M6.2820964,98.5455744 L4.45925519,98.5455744 C4.20498691,98.5455744 3.99853358,98.3546299 3.99853358,98.1194623 C3.99853358,97.8834681 4.20498691,97.6929369 4.45925519,97.6929369 L6.2820964,97.6929369 L6.2820964,98.5455744 Z" id="Fill-17" fill="#242424"></path>
                                    <path d="M6.2820964,105.367005 L4.45925519,105.367005 C4.20498691,105.367005 3.99853358,105.176061 3.99853358,104.94048 C3.99853358,104.704899 4.20498691,104.514368 4.45925519,104.514368 L6.2820964,104.514368 L6.2820964,105.367005 Z" id="Fill-18" fill="#242424"></path>
                                    <path d="M6.2820964,112.188105 L4.45925519,112.188105 C4.20498691,112.188105 3.99853358,111.997161 3.99853358,111.761993 C3.99853358,111.526412 4.20498691,111.335468 4.45925519,111.335468 L6.2820964,111.335468 L6.2820964,112.188105 Z" id="Fill-19" fill="#242424"></path>
                                    <path d="M6.2820964,119.009536 L4.45925519,119.009536 C4.20498691,119.009536 3.99853358,118.818591 3.99853358,118.583424 C3.99853358,118.34743 4.20498691,118.156898 4.45925519,118.156898 L6.2820964,118.156898 L6.2820964,119.009536 Z" id="Fill-20" fill="#242424"></path>
                                    <path d="M6.2820964,125.831008 L4.45925519,125.831008 C4.20498691,125.831008 3.99853358,125.640063 3.99853358,125.404482 C3.99853358,125.168902 4.20498691,124.97837 4.45925519,124.97837 L6.2820964,124.97837 L6.2820964,125.831008 Z" id="Fill-21" fill="#242424"></path>
                                    <path d="M6.2820964,132.290536 L4.45925519,132.290536 C4.20498691,132.290536 3.99853358,132.099591 3.99853358,131.86401 C3.99853358,131.628429 4.20498691,131.437898 4.45925519,131.437898 L6.2820964,131.437898 L6.2820964,132.290536 Z" id="Fill-18-Copy" fill="#242424"></path>
                                    <path d="M6.2820964,139.111636 L4.45925519,139.111636 C4.20498691,139.111636 3.99853358,138.920691 3.99853358,138.685524 C3.99853358,138.449943 4.20498691,138.258998 4.45925519,138.258998 L6.2820964,138.258998 L6.2820964,139.111636 Z" id="Fill-19-Copy" fill="#242424"></path>
                                    <path d="M6.2820964,145.933066 L4.45925519,145.933066 C4.20498691,145.933066 3.99853358,145.742122 3.99853358,145.506954 C3.99853358,145.27096 4.20498691,145.080429 4.45925519,145.080429 L6.2820964,145.080429 L6.2820964,145.933066 Z" id="Fill-20-Copy" fill="#242424"></path>
                                    <path d="M6.2820964,152.754538 L4.45925519,152.754538 C4.20498691,152.754538 3.99853358,152.563594 3.99853358,152.328013 C3.99853358,152.092432 4.20498691,151.901901 4.45925519,151.901901 L6.2820964,151.901901 L6.2820964,152.754538 Z" id="Fill-21-Copy" fill="#242424"></path>
                                </g>
                            </g>
                            <g id="Page-1" transform="translate(66.790909, 29.582278)">
                                <g id="Group-20">
                                    <path d="M90.2634149,55.1326062 C85.0176569,51.3587979 48.7117993,29.7643036 46.9010762,28.3893818 C45.0899007,27.0140082 31.5130971,22.4348498 31.3221613,22.3016034 C31.1316779,22.1688087 27.3378466,21.1163882 23.9154804,20.9849486 C20.4931142,20.853509 12.0629811,17.1695855 12.0629811,17.1695855 C12.0629811,17.1695855 5.57252067,14.3172098 2.59265504,13.6681419 C-0.387663055,13.0190739 1.03304422,11.6423453 1.03304422,11.6423453 C-1.08353815,11.2660937 3.00484113,5.91229963 3.00484113,5.91229963 C2.96140549,5.60696218 3.82649858,2.74058429 4.81194458,1.44515854 C5.79648567,0.149732788 7.96012331,0.614062519 7.96012331,0.614062519 C9.2731464,-0.0666231862 12.4977899,0.36744381 12.4977899,0.36744381 C13.278274,-0.189480858 17.9892308,0.787508645 18.568825,0.751374035 C19.1479669,0.714787743 21.7396265,1.53323665 21.7396265,1.53323665 C25.4723765,3.36887481 30.9823679,8.75970685 30.9823679,8.75970685 C34.17172,11.3731425 34.1861986,10.501395 35.923624,10.3929912 C37.6619544,10.2850391 72.6851034,21.6231761 87.4238102,31.8619177" id="Fill-17" fill="#FFFFFF"></path>
                                    <path d="M15.5520214,-0.00575906059 C15.8376835,0.0295516937 16.1374213,0.0697910108 16.474069,0.117461412 C16.7337124,0.15422775 17.6587341,0.290040345 17.8460197,0.316215179 C18.2419828,0.371554554 18.4765107,0.396430386 18.5461279,0.392090248 C18.8284466,0.374255247 19.3813633,0.489051304 20.1905329,0.706015032 C20.2959303,0.734275376 20.4043495,0.763982081 20.5153418,0.794969538 C20.8248402,0.881376999 21.1406962,0.973848017 21.4462883,1.06631206 C21.6297374,1.12181891 21.7692424,1.16506448 21.8984918,1.21018584 C22.7746946,1.64107229 23.7808229,2.27821448 24.8942152,3.09000867 C25.5067788,3.53663972 26.1447251,4.03108781 26.8016833,4.56536066 C27.8607782,5.42667212 28.9180896,6.34878361 29.9243084,7.27083772 C30.2764659,7.59353917 30.5971622,7.89325679 30.880193,8.16236129 C31.0503625,8.32415773 31.1704125,8.44004289 31.2105409,8.48125199 C33.0186019,9.96282287 33.7607094,10.3237968 34.4785985,10.2478327 C34.6151225,10.2333863 34.4954715,10.2553259 35.0575643,10.1471901 C35.3748786,10.086145 35.6153204,10.0515273 35.9013106,10.0336834 C37.0400668,9.96296542 47.2880655,13.256333 56.9262102,16.9108296 C70.0246627,21.8773714 81.0675783,27.0080048 87.6292005,31.5662577 C87.792489,31.6796916 87.8329041,31.9040194 87.7194702,32.067308 C87.6060363,32.2305965 87.3817085,32.2710116 87.21842,32.1575777 C80.7178592,27.6417432 69.7179955,22.5311121 56.6709417,17.5840591 C47.2029296,13.9940718 36.9260766,10.6914313 35.9460421,10.7522925 C35.6956404,10.7679159 35.4833359,10.7984825 35.1935842,10.8542252 C34.5889207,10.9705507 34.7226735,10.9460254 34.5543629,10.9638353 C33.5909796,11.0657766 32.6993551,10.632075 30.7306072,9.01703256 C30.6692738,8.95702557 30.5516821,8.84351339 30.3840752,8.68415353 C30.1041455,8.41799756 29.7866615,8.12128209 29.4378764,7.80167097 C28.4414021,6.88854632 27.394461,5.97547904 26.3474035,5.12395698 C25.699789,4.59728294 25.0717269,4.11049573 24.4700298,3.67178761 C23.3874192,2.88243691 22.4142652,2.26617608 21.6312156,1.87652526 C21.5550369,1.85246796 21.4182567,1.81006703 21.2377713,1.75545696 C20.9368058,1.66439281 20.6257792,1.57333562 20.3217321,1.48845009 C20.2130472,1.45810684 20.106999,1.42904978 20.004065,1.40144995 C19.2903231,1.21007339 18.7601711,1.10000371 18.5912256,1.11067643 C18.4503547,1.11945898 18.2065193,1.09359593 17.7463618,1.02928482 C17.5559735,1.00267635 16.630083,0.866736192 16.3731218,0.830349657 C16.0403767,0.78323189 15.7446981,0.743537518 15.4636943,0.708802565 C13.9531933,0.522089169 12.9265196,0.503772254 12.7068955,0.660487978 C12.6324017,0.713643968 12.5404601,0.736434507 12.4497638,0.724225935 C12.3284525,0.707896307 12.1089978,0.682957695 11.8199493,0.657913573 C11.1937443,0.603657099 10.5575615,0.578175454 9.96739295,0.597254056 C9.15170105,0.623623235 8.50963741,0.734688026 8.12581042,0.933668183 C7.846888,0.95795826 7.77005038,0.944506163 7.66194162,0.930675202 C7.19445741,0.870867319 6.69166916,0.87491053 6.22993204,0.983943751 C5.74430356,1.0986186 5.35983402,1.31921693 5.09846466,1.66311781 C4.33816296,2.66257836 3.30825444,5.48903726 3.36125295,5.86159843 C3.37484181,5.95712341 3.34951616,6.05410514 3.29095683,6.13078945 C3.2128068,6.2331281 3.07423421,6.42064509 2.89548103,6.67294739 C2.59718514,7.093979 2.29890002,7.53932145 2.02099029,7.9882398 C1.81345871,8.32347361 1.62542208,8.64788777 1.4615355,8.95654825 C1.08418935,9.66723393 0.851290253,10.2643456 0.796902653,10.6935641 C0.747106639,11.0865465 0.830502893,11.2406971 1.0960514,11.287902 C1.38514774,11.3392928 1.49443456,11.6965364 1.28356977,11.9008737 C1.03579919,12.2587198 1.0128146,12.4420444 1.13353652,12.6138703 C1.31915122,12.8780594 1.80763977,13.128739 2.66927297,13.3163895 C3.64443156,13.5287965 5.02829359,13.977812 6.72172216,14.6101874 C7.06873774,14.7397731 7.42583297,14.8760149 7.79150293,15.0181477 C8.8168764,15.4167016 9.86423293,15.8435279 10.8777184,16.2703395 C11.2324285,16.4197193 11.5576155,16.5584475 11.846277,16.6829818 C12.0196851,16.7577936 12.1425359,16.8113169 12.207136,16.8397077 C12.2743759,16.8690912 12.4029385,16.9245751 12.5858878,17.0024264 C12.8913218,17.1323994 13.237291,17.2772833 13.6168533,17.4333439 C14.7013979,17.8792644 15.8372346,18.3251835 16.9686439,18.7411842 C17.6037701,18.9747097 18.2204139,19.1923663 18.8129345,19.3911463 C21.045431,20.1401089 22.8170985,20.5824987 23.9292964,20.6252138 C26.693452,20.7313742 31.008465,21.6440637 31.5281834,22.0063834 C31.5147932,21.9970389 36.8369665,23.8798172 39.3346388,24.801309 C39.702866,24.9371629 40.060731,25.0701412 40.4081775,25.2002731 C44.0659196,26.570237 46.3993504,27.5563458 47.118783,28.1026697 C47.5380646,28.4210395 49.923732,29.8977537 54.4868635,32.6731212 C56.8125227,34.0876234 66.9657688,40.240485 69.0487657,41.5053029 C69.2084148,41.6022464 69.2084148,41.6022464 69.3680543,41.6991959 C81.4530503,49.038674 88.3347158,53.301618 90.4736495,54.840371 C90.6350466,54.9564803 90.6717595,55.1814437 90.5556502,55.3428408 C90.4395408,55.5042378 90.2145774,55.5409508 90.0531804,55.4248414 C87.9378429,53.9030636 81.0484591,49.6353384 68.9943097,42.3145941 C68.8346955,42.21766 68.8346955,42.21766 68.675071,42.1207314 C66.5925437,40.8561987 56.4389823,34.703146 54.1127172,33.2882753 C49.4875225,30.47516 47.1345407,29.018678 46.6833586,28.6760855 C46.0481863,28.1937473 43.7130456,27.2069158 40.1556417,25.8745325 C39.8093314,25.7448261 39.4525697,25.6122577 39.0854222,25.4768023 C36.8952094,24.6687446 31.1960884,22.6526168 31.1162809,22.5969224 C30.7401614,22.3347122 26.5382444,21.4459441 23.9016644,21.3446834 C22.7007461,21.2985608 20.8784724,20.8435346 18.5839308,20.073757 C17.9845675,19.8726813 17.3614918,19.6527545 16.7201748,19.4169527 C15.5795253,18.9975546 14.4354567,18.5484037 13.3430582,18.099254 C12.9606905,17.94204 12.6120234,17.7960262 12.3039662,17.664937 C12.1188208,17.5861511 11.9881357,17.5297512 11.918141,17.499163 C11.8543017,17.4711075 11.732935,17.4182307 11.5610648,17.3440825 C11.2742624,17.2203501 10.9509885,17.0824382 10.5982724,16.933898 C9.59054045,16.5095094 8.54920151,16.0851355 7.53065673,15.6892358 C7.16787931,15.5482274 6.81376029,15.413121 6.46984252,15.2846921 C4.80627676,14.6634684 3.44929324,14.223174 2.51604821,14.0198966 C1.49475899,13.7974754 0.854240022,13.4687778 0.544405235,13.0277837 C0.260459039,12.6236374 0.279393295,12.1940603 0.481781734,11.8008103 C0.145556196,11.5584487 0.0153519638,11.1338775 0.0826141998,10.6030544 C0.150465977,10.0675787 0.410760705,9.40022953 0.825615971,8.61889998 C0.997465801,8.29524169 1.19335109,7.95728646 1.4088042,7.6092567 C1.69524493,7.1465579 2.001621,6.68913558 2.3079863,6.25671435 C2.44814429,6.05888748 2.56484837,5.8990162 2.64923486,5.78596317 C2.73091261,4.9206226 3.72557959,2.27864166 4.52532806,1.2273261 C4.89736871,0.737807641 5.42751897,0.433621615 6.06446412,0.283215296 C6.62289205,0.151349797 7.20736092,0.146649744 7.75331056,0.216496151 C8.40616404,0.0157277957 9.09703951,-0.0949858243 9.94412939,-0.122370018 C10.5664672,-0.142488566 11.2297346,-0.115922078 11.8820996,-0.0593990057 C12.1063249,-0.0399713815 12.2914095,-0.020485279 12.4258079,-0.00446576271 C12.9308525,-0.238943152 13.9369187,-0.205402302 15.5520214,-0.00575906059 Z" id="Stroke-19" fill="#242424" fill-rule="nonzero"></path>
                                </g>
                                <g id="Group-24" transform="translate(1.131136, 8.889114)">
                                    <path d="M0.196680375,2.84432201 C0.196680375,2.84432201 0.397537875,2.16263808 2.34834412,1.66345878 C4.298706,1.16469615 5.29188412,1.25678182 6.60012412,2.31847536 C6.60012412,2.31847536 11.223846,3.42058659 12.2236897,3.11099542 C12.2236897,3.11099542 11.3362729,2.37597682 11.4384791,1.93471565 C11.4384791,1.93471565 8.88954412,1.38095163 8.37717975,0.892189253 C8.37717975,0.892189253 5.63405287,0.617598968 5.21322975,0.290507354 C5.21322975,0.290507354 4.341366,1.44678663 2.30568412,1.3813683 C2.30568412,1.3813683 1.40804662,1.25011498 1.269846,1.00719216" id="Fill-21" fill="#FFFFFF"></path>
                                    <path d="M6.76203077,1.98678884 C6.8773748,2.01376764 7.04630916,2.05243045 7.25789541,2.09944817 C7.70196108,2.1981264 8.17011869,2.2968109 8.64046457,2.38885958 C8.96058785,2.45150906 9.27087706,2.50890759 9.56748635,2.55990274 C10.3200956,2.68929661 10.9547827,2.77100052 11.4153499,2.79762774 C11.3479598,2.71228187 11.288829,2.62758683 11.239252,2.54357802 C11.1759018,2.43623069 11.1281103,2.3308844 11.0996547,2.22673834 C11.0284925,2.2100006 10.9483473,2.19080788 10.8606691,2.16935381 C10.4859681,2.07766785 10.1110894,1.97770974 9.75998507,1.87253055 C9.18296695,1.69967512 8.7273733,1.53027906 8.42556646,1.36215298 C8.35320531,1.32184311 8.28873805,1.28113725 8.23199407,1.23904865 C8.1296978,1.22812798 7.9933972,1.21288051 7.83190344,1.1936864 C7.45075333,1.14838534 7.06946216,1.09734742 6.71264465,1.04155602 C6.07508513,0.941868268 5.60476645,0.845191469 5.29698676,0.731134855 C5.18633076,0.836138311 5.04526014,0.950547969 4.87243996,1.06559267 C5.5359573,1.17853128 6.11963119,1.47643033 6.76203077,1.98678884 Z M0.956939225,1.18520719 C0.85862424,1.01239355 0.919017332,0.792600374 1.09183097,0.694285389 C1.26464461,0.595970404 1.48443779,0.656363497 1.58275278,0.829177137 C1.57292162,0.811896376 1.7014862,0.873311804 1.87614738,0.922325816 C2.05588843,0.972765361 2.24002469,1.00793938 2.31724705,1.02155405 C3.15683185,1.0485348 3.83628942,0.859520861 4.37306454,0.530377512 C4.66604918,0.350723234 4.8482864,0.17654885 4.92578608,0.0737675703 C5.04673023,-0.0866304456 5.27554899,-0.11701114 5.43415777,0.00627011038 C5.53286256,0.0829900161 6.0819881,0.214199494 6.82387124,0.33019912 C7.17095702,0.384468881 7.54384795,0.434382379 7.91687993,0.478718566 C8.14075042,0.505326376 8.3145609,0.524121882 8.41303698,0.533979456 C8.49281877,0.541965709 8.56765112,0.576357695 8.62566782,0.631701865 C8.65294284,0.65772047 8.70418793,0.693184485 8.77595472,0.733163261 C9.02032572,0.869293833 9.43621588,1.02392759 9.96660137,1.18281344 C10.3046408,1.28407882 10.6681306,1.38100019 11.031798,1.46998631 C11.2500339,1.52338667 11.4193337,1.5621584 11.5149074,1.58292206 C11.7110798,1.62554113 11.834493,1.82037834 11.7891942,2.01594934 C11.7873452,2.02393229 11.8044716,2.08469215 11.8593274,2.1776457 C11.9140578,2.27038679 11.9948122,2.37543724 12.0942849,2.48569786 C12.2294677,2.63554139 12.3664156,2.76176104 12.4533262,2.83374628 C12.6736071,3.01619776 12.6034021,3.37028432 12.3301722,3.4548871 C11.860088,3.60044375 10.8768759,3.51558592 9.44548881,3.26949178 C9.14314155,3.21751011 8.82747962,3.15911772 8.50218078,3.09545536 C8.02537844,3.00214312 7.55137625,2.90222663 7.10171005,2.80230387 C6.83168584,2.74230033 6.62944918,2.69555082 6.51665293,2.66866468 L6.37327189,2.59800722 C5.19910144,1.64511694 4.347475,1.52380958 2.43758689,2.01222192 C2.0639172,2.10783786 1.74303632,2.21384431 1.47130457,2.32792928 C1.07089467,2.49603901 0.803004805,2.66921064 0.6412416,2.83254542 C0.564887528,2.9096413 0.540728241,2.95039455 0.542002242,2.94607076 C0.485807959,3.13678676 0.285647626,3.24583816 0.0949316253,3.18964387 C-0.0957843757,3.13344959 -0.204835775,2.93328926 -0.148641492,2.74257326 C-0.0534958345,2.41966141 0.34055029,2.02178702 1.19258516,1.66406522 C1.28363083,1.62584023 1.3790172,1.58860977 1.47884244,1.55242004 C1.22649997,1.46396334 1.05468288,1.35701658 0.956939225,1.18520719 Z" id="Stroke-23" fill="#242424" fill-rule="nonzero"></path>
                                </g>
                                <g id="Group-28" transform="translate(4.524545, 7.777975)">
                                    <path d="M0.261349057,0.197116101 C0.261349057,0.197116101 1.39078872,0.850095595 2.11075701,0.998988253" id="Fill-25" fill="#FFFFFF"></path>
                                    <path d="M0.0811634056,0.508777987 C-0.090962701,0.4092642 -0.149826616,0.189056557 -0.0503128291,0.0169304501 C0.0492009582,-0.155195657 0.269408601,-0.214059572 0.441534708,-0.114545785 C0.613287078,-0.0152480709 0.895483317,0.136234895 1.21690288,0.28718352 C1.35431424,0.351716172 1.48707363,0.410183471 1.61304321,0.461127569 C1.83518902,0.550966855 2.02921181,0.614506682 2.1836639,0.646448062 C2.37836647,0.686713424 2.50356256,0.877192568 2.4632972,1.07189514 C2.42303184,1.26659771 2.2325527,1.3917938 2.03785013,1.35152844 C1.83465193,1.30950615 1.60205381,1.23333343 1.34310291,1.12860958 C1.20417477,1.07242483 1.05954885,1.00873151 0.910839783,0.938893104 C0.710797729,0.844947132 0.513203729,0.744618458 0.326286194,0.644281109 C0.213780849,0.58388823 0.129239319,0.536572819 0.0811634056,0.508777987 Z" id="Stroke-27" fill="#242424" fill-rule="nonzero"></path>
                                </g>
                                <path d="M3.39340909,12.0614075 C2.30282026,11.915619 0.944827438,11.1113924 0.944827438,11.1113924 C0.440954426,11.1731334 0.327176649,11.1225456 0,11.2065931 C0.111680491,11.3344567 0.288901176,11.4244791 0.555256525,11.4603288 C0.555256525,11.4603288 -1.09111315,12.6744361 2.3620686,13.2472335 C2.51254888,13.2719299 2.6735156,13.3014062 2.83867689,13.3336709 C3.15536711,12.6115001 3.39340909,12.0614075 3.39340909,12.0614075" id="Fill-33" fill="#FFFFFF"></path>
                                <path d="M-0.271137907,11.4434142 C-0.44748095,11.241518 -0.349206378,10.9246111 -0.0895711214,10.8579141 C0.0378809941,10.8251733 0.14653388,10.807441 0.265604114,10.7981168 C0.313044732,10.7944018 0.348984138,10.7925975 0.428616169,10.7894341 C0.635720555,10.7813806 0.726792096,10.7754164 0.901043065,10.7540649 C0.979960507,10.7443949 1.05985917,10.7611223 1.12827022,10.8016365 C1.17505001,10.8293403 1.26448253,10.8798373 1.38795605,10.9454796 C1.59501535,11.0555585 1.81919922,11.1657249 2.0516419,11.2683086 C2.36085355,11.4047727 2.66035946,11.5169032 2.93920353,11.596249 C3.1192738,11.6474885 3.28743124,11.6840382 3.4411091,11.7045816 C3.67776257,11.7362171 3.81862273,11.9852561 3.72380171,12.2043785 C3.69392548,12.2734195 3.63933731,12.3992651 3.56491753,12.5703344 C3.44091296,12.8553846 3.30707181,13.1619563 3.16836927,13.4782494 C3.10069643,13.6325684 2.93503377,13.7192994 2.76965471,13.6869922 C2.60003194,13.653856 2.44440136,13.6255617 2.30315845,13.6023807 C1.14061747,13.409544 0.42085718,13.1284008 0.0660761881,12.7443269 C-0.268799697,12.3818016 -0.267364078,11.981436 -0.0608518609,11.623809 C-0.140234474,11.572984 -0.210437482,11.5129105 -0.271137907,11.4434142 Z M2.74214818,12.2887583 C2.42821455,12.1994277 2.0984822,12.0759809 1.76093677,11.9270123 C1.51133048,11.8168537 1.27166993,11.699082 1.04997589,11.5812228 C0.999100204,11.5541757 0.953260871,11.5293337 0.912913013,11.507112 C0.901734628,11.5979501 0.85558716,11.6861542 0.768921403,11.7500654 C0.741263598,11.7704615 0.688189531,11.8177813 0.635678311,11.8807867 C0.503943257,12.0388487 0.487406181,12.139342 0.594962192,12.2557785 C0.814484866,12.4934263 1.402664,12.723173 2.42037085,12.8919859 C2.48543927,12.9026647 2.55325899,12.9143486 2.62377943,12.9270084 C2.71427862,12.7201516 2.80198981,12.5191 2.88542091,12.3273922 C2.83819665,12.3153841 2.7904349,12.3024985 2.74214818,12.2887583 Z M0.91549381,11.4534121 L0.761384661,11.4211484 C0.787764886,11.4367712 0.823757962,11.4574782 0.86849222,11.4824743 C0.883690221,11.4808847 0.899251483,11.4791889 0.915327895,11.4773731 C0.915645963,11.4693834 0.915700023,11.4613915 0.91549381,11.4534121 Z" id="Stroke-35" fill="#242424" fill-rule="nonzero"></path>
                            </g>
                        </g>
                    </g>
                </g>
            </g>
        </g>
    </g>
</svg>