<?xml version="1.0" encoding="UTF-8"?>
<svg width="228px" height="228px" viewBox="0 0 228 228" version="1.1" xmlns="http://www.w3.org/2000/svg" xmlns:xlink="http://www.w3.org/1999/xlink">
    <!-- Generator: Sketch 49.2 (51160) - http://www.bohemiancoding.com/sketch -->
    <title>肩宽@1x</title>
    <desc>Created with Sketch.</desc>
    <defs></defs>
    <g id="Page-1" stroke="none" stroke-width="1" fill="none" fill-rule="evenodd">
        <g id="测量肩宽" transform="translate(-74.000000, -160.000000)">
            <g id="肩宽" transform="translate(74.000000, 160.000000)">
                <g transform="translate(4.000000, 28.000000)">
                    <polygon id="Rectangle" fill="#FFFFFF" opacity="0" points="0 0 220 0 220 200 0 200"></polygon>
                    <path d="M125.850238,39.6144243 C125.906185,39.3440087 126.170754,39.1701473 126.44117,39.2260939 C126.711585,39.2820405 126.885447,39.5466094 126.8295,39.817025 C125.716617,45.1960952 127.355696,51.3239185 131.133481,53.777505 C133.502406,55.3160682 137.825038,56.7572191 150.847009,60.6525614 C151.367165,60.808159 151.785405,60.9333852 152.187697,61.0540201 C161.281472,63.7809655 165.896786,65.3152564 168.944866,66.7813628 C169.074742,66.8304562 169.306459,66.9294486 169.625489,67.0836867 C170.150195,67.3373601 170.732982,67.6569348 171.359281,68.0477892 C173.142611,69.1607118 174.923842,70.6229708 176.585253,72.4774556 C180.70167,77.0722435 183.401806,83.2751582 184.023282,91.3066067 C184.568558,98.3576718 184.624501,104.355893 184.437376,114.497219 C184.231471,125.656266 184.358037,128.630389 185.357139,129.650069 C185.5504,129.847311 185.547174,130.163877 185.349931,130.357139 C185.152689,130.5504 184.836123,130.547174 184.642861,130.349931 C183.330177,129.010212 183.218038,126.375073 183.437546,114.47877 C183.624117,104.367452 183.568408,98.3943507 183.026261,91.3837326 C182.421923,83.5737674 179.811772,77.5775713 175.840438,73.1447267 C174.244762,71.363616 172.536256,69.961059 170.82985,68.8961419 C170.234741,68.5247524 169.683364,68.2224013 169.19023,67.9839915 C168.898556,67.8429796 168.694056,67.7556141 168.551594,67.6997707 C165.531127,66.2489951 160.934373,64.7208743 151.900464,62.0118808 C151.498419,61.8913199 151.08038,61.7661538 150.56042,61.6106152 C137.356255,57.6607719 133.083026,56.2360919 130.588801,54.6161487 C126.413014,51.904069 124.661995,45.3577486 125.850238,39.6144243 Z" id="Stroke-1" fill="#242424" fill-rule="nonzero"></path>
                    <path d="M44.2832319,75.8483925 C43.6255899,76.0189694 42.2072638,76.7617825 40.3120844,77.8974933 C40.1049206,78.0216389 39.8932459,78.1497598 39.6775246,78.2815165 C38.7735034,78.8336682 37.8370148,79.4256949 36.9223294,80.0177708 C36.6021434,80.2250272 36.3076047,80.4174526 36.0454661,80.5900846 C35.9649594,80.6431026 35.8965065,80.6883171 35.8410161,80.7250604 C35.2375403,82.0990699 34.4304546,83.4148406 33.4696286,84.6614583 C32.6998753,85.6601696 31.8758721,86.558206 31.0513597,87.342686 C30.7621801,87.617825 30.4931948,87.8594322 30.2511054,88.0658353 C30.1985779,88.1106198 30.1512078,88.1504689 30.1093007,88.1853053 C29.8345963,91.4566811 30.6894866,96.8078495 32.4200219,103.633288 C32.943709,105.698773 33.5383651,107.861028 34.1908402,110.091567 C35.0970855,113.189639 36.0682483,116.264002 37.0393942,119.174557 C37.3792654,120.193162 37.694821,121.118427 37.977948,121.932867 C38.6735613,120.590096 38.884056,117.742374 39.0185961,111.082691 C39.2058334,101.814519 39.3402633,98.0014168 39.8415066,91.4093955 C40.3419964,84.831364 42.438766,79.4792159 45.7146793,75.2332815 C45.1410615,75.6153752 44.6149176,75.7927473 44.2832319,75.8483925 Z M48.1970167,72.4384189 C50.0513216,70.6172501 52.0380639,69.1815325 54.0262119,68.0887236 C54.723656,67.7053653 55.3723166,67.3919791 55.9559564,67.1432906 C56.3099388,66.9924589 56.5662773,66.8959028 56.647455,66.8734602 C59.6736204,65.3952025 63.9057875,63.8894113 72.4007809,61.124396 C72.7005688,61.0268187 72.8979554,60.9626321 73.3954332,60.8009333 C85.4714205,56.8763148 89.5767312,55.3980697 91.9389982,53.8378383 C95.6906521,51.3597422 97.3353895,45.4028085 96.2501824,39.9751043 C96.1960424,39.7043212 96.3716664,39.440919 96.6424494,39.3867791 C96.9132325,39.3326391 97.1766347,39.508263 97.2307746,39.7790461 C98.3882626,45.5682657 96.6295395,51.9380346 92.4901353,54.672253 C90.0111265,56.3095901 85.9403307,57.7754071 73.7045138,61.7519692 C73.2071816,61.9136206 73.0099128,61.977769 72.7102863,62.0752937 C64.2672986,64.8233817 60.0529868,66.3228201 57.0250702,67.7970509 C56.9075691,67.836229 56.6764341,67.9232917 56.3479535,68.063257 C55.7941552,68.2992301 55.1753847,68.5981756 54.507903,68.9650647 C52.596263,70.01582 50.6832173,71.3982808 48.8977201,73.1518716 C44.373998,77.5947557 41.4370923,83.6194874 40.8386264,91.4852379 C40.3392183,98.0531248 40.2052673,101.852643 40.0183921,111.102889 C39.8459344,119.639476 39.5743698,122.055328 38.2225183,123.45851 C37.9652717,123.725525 37.5170818,123.629485 37.3918324,123.280508 C37.2214844,122.800077 37.1330152,122.547792 37.0333949,122.261226 C36.7489355,121.442953 36.4320376,120.513752 36.0908049,119.491067 C35.11594,116.569366 34.1410919,113.483337 33.2310604,110.372321 C32.5753505,108.130724 31.9775252,105.956944 31.4506927,103.879054 C29.6556373,96.7991403 28.7883574,91.2823335 29.1333974,87.8791896 C29.1471743,87.7433068 29.2159377,87.6189742 29.3237119,87.5350775 C29.3717827,87.4976568 29.4668983,87.4203232 29.6023131,87.3048698 C29.8309136,87.1099671 30.0864111,86.8804749 30.3620594,86.6182102 C31.1513405,85.867251 31.9411309,85.0065014 32.6775851,84.0509936 C33.6219361,82.8257514 34.4074592,81.5346694 34.9814961,80.1936445 C35.2238246,79.9343307 35.3366768,79.8594912 35.4954661,79.75492 C35.7597291,79.5808889 36.0564583,79.3870324 36.3789354,79.178293 C37.30043,78.5818095 38.2440463,77.9852768 39.1562847,77.4281063 C39.3743496,77.2949181 39.5884219,77.1653462 39.7980536,77.0397216 C41.7868087,75.8479343 43.2436681,75.0849403 44.0724784,74.8717237 C44.1258958,74.8624841 44.2366803,74.8355282 44.384732,74.7856175 C44.6357881,74.7009822 44.8868477,74.5833769 45.1183435,74.4293366 C45.8942544,73.9130354 46.2779941,73.1286005 46.0848704,71.9255014 C46.0481939,71.6970185 46.1730936,71.473221 46.38681,71.3844805 C46.4422257,71.3614705 46.5541767,71.306687 46.7033811,71.2189266 C46.9571853,71.0696416 47.2116221,70.8847779 47.4478813,70.6640839 C48.10994,70.0456433 48.4998367,69.2768051 48.4998367,68.328102 C48.4998367,67.9895156 48.8292986,67.7488287 49.1518562,67.8517722 C49.5498155,67.9340126 49.8297701,67.9372411 50.0756669,67.8662946 C50.608405,67.7125881 50.9287109,67.2308928 50.9287109,66.1513672 C50.9287109,63.6501852 49.0443559,61.9142679 43.9456474,59.5265381 C38.858454,57.1442007 30.356545,57.4998351 25.0476701,60.7141302 C22.5166585,62.2465486 21.8700781,67.6623234 22.2848223,78.0932697 C22.3221242,79.031425 22.36171,79.9110941 22.4308042,81.3745247 C22.796218,89.1140705 22.8251075,91.715565 22.3743121,94.0551263 C20.2285328,105.194727 19.5582271,133.020199 22.3703407,145.112639 C24.4801118,154.18419 28.7501426,164.811889 29.8613313,165.389095 C30.0936912,165.635088 30.1527876,165.734034 30.2412265,165.874871 C30.3904786,166.11255 30.5666783,166.378163 30.7685711,166.664662 C31.3461421,167.484274 32.0119218,168.304084 32.7550881,169.067672 C34.9602126,171.333394 37.3592312,172.627832 39.8506528,172.490145 C43.0975387,172.310708 46.3759955,169.699427 49.5969473,164.076424 C56.7550421,151.580933 61.0680871,130.792142 62.8394537,111.582994 C62.8648105,111.308018 63.1082782,111.105662 63.3832539,111.131019 C63.6582296,111.156375 63.8605857,111.399843 63.8352289,111.674819 C62.0510953,131.022416 57.7167359,151.913941 50.464664,164.573483 C44.304772,175.327164 37.8015257,175.686563 32.0384632,169.765131 C31.2557368,168.960896 30.5573163,168.100894 29.9511437,167.240694 C29.7387262,166.939259 29.5527662,166.658933 29.3943549,166.406668 C27.6349009,164.827748 23.5175349,154.459855 21.3963332,145.339155 C18.5485846,133.09348 19.2221573,105.132389 21.392369,93.8659501 C21.8207572,91.6426786 21.7919307,89.0468584 21.431917,81.421686 C21.3627133,79.9559374 21.323038,79.0742809 21.2856118,78.1329993 C20.8510687,67.2041032 21.509723,61.6871974 24.5297461,59.8587035 C30.1282574,56.4690461 38.9836837,56.0986241 44.3697478,58.6209229 C49.7929576,61.1606169 51.9287109,63.128129 51.9287109,66.1513672 C51.9287109,67.6547578 51.338189,68.5428201 50.3528808,68.8271028 C50.0566175,68.9125812 49.754934,68.935267 49.4603712,68.9137212 C49.3244966,69.9009602 48.8447894,70.7276284 48.1305058,71.3948532 C47.7752993,71.7266579 47.4203235,71.9716686 47.1179754,72.1387429 C47.1713092,72.7714145 47.0886954,73.3288816 46.8915045,73.8115922 C47.3110346,73.3386055 47.7464364,72.8809474 48.1970167,72.4384189 Z" id="Stroke-3" fill="#242424" fill-rule="nonzero"></path>
                    <path d="M161.549901,100.78226 C161.670155,100.533677 161.969157,100.429646 162.21774,100.549901 C162.466323,100.670155 162.570354,100.969157 162.450099,101.21774 C162.425599,101.268385 162.377292,101.36981 162.306765,101.520325 C162.188685,101.772329 162.051557,102.070053 161.896968,102.411811 C161.454674,103.389617 160.96157,104.523332 160.430352,105.799449 C158.911811,109.447364 157.392998,113.503098 155.975451,117.858453 C152.183852,129.507981 149.805626,141.113421 149.526965,151.936074 C149.418994,156.129465 149.633645,160.134366 150.194592,163.924766 C151.832072,174.990033 154.481192,186.09466 157.807489,196.852298 C157.889062,197.116117 157.741323,197.396113 157.477505,197.477686 C157.213686,197.55926 156.93369,197.411521 156.852116,197.147702 C153.511641,186.344209 150.850905,175.190891 149.205365,164.071159 C148.635617,160.221284 148.417898,156.159151 148.527296,151.910334 C148.808767,140.978553 151.205485,129.282873 155.024549,117.54896 C156.450752,113.167013 157.978814,109.086578 159.507148,105.415141 C160.042336,104.129485 160.539466,102.986513 160.985844,101.999679 C161.142291,101.653812 161.281286,101.352034 161.401243,101.096027 C161.473538,100.941737 161.52362,100.836587 161.549901,100.78226 Z" id="Stroke-5" fill="#242424" fill-rule="nonzero"></path>
                    <path d="M58.5495438,101.217 C58.4296977,100.96822 58.5342195,100.66939 58.7829996,100.549544 C59.0317797,100.429698 59.3306102,100.534219 59.4504562,100.783 C59.4767318,100.837543 59.526808,100.943124 59.5990981,101.098051 C59.7190488,101.355121 59.8580381,101.658155 60.0144793,102.005462 C60.460844,102.996414 60.9579614,104.144158 61.4931372,105.435184 C63.0214379,109.121965 64.5494689,113.219452 65.9756411,117.619704 C69.7944939,129.402232 72.1911161,141.146318 72.4726829,152.123229 C72.5821181,156.389573 72.3644677,160.468447 71.7948217,164.334189 C70.1173191,175.714717 67.3874042,187.121947 63.9625633,198.148313 C63.8806524,198.412027 63.6004679,198.559408 63.3367536,198.477497 C63.0730394,198.395586 62.9256586,198.115401 63.0075695,197.851687 C66.4180157,186.871666 69.1361492,175.513665 70.8055083,164.188385 C71.366422,160.381901 71.5810311,156.360022 71.4730117,152.148872 C71.1942328,141.280646 68.8159573,129.626464 65.0243589,117.928025 C63.6067811,113.554291 62.0879371,109.481438 60.5693628,105.818121 C60.0381324,104.536612 59.5450153,103.398104 59.1027082,102.416161 C58.9481142,102.072954 58.8109805,101.773967 58.6928941,101.520892 C58.6223619,101.369732 58.5740494,101.26787 58.5495438,101.217 Z" id="Stroke-7" fill="#242424" fill-rule="nonzero"></path>
                    <path d="M158,63.50004 L153.477295,62 L131.662572,123.499848 C131.662572,123.499848 119.905487,128.804136 111,128.804136 C101.10531,128.804136 90.3378712,123.499848 90.3378712,123.499848 L68.522705,62 L64,63.50004 L86.7016412,124.866979 C78.2181376,127.599898 67.4630973,127.500104 67.4630973,127.500104 C67.4630973,131.600153 71.1458208,146 72.0327385,146 C75.8651266,146 92.6948674,141.044767 111.495044,141.044767 C128.810531,141.044767 146.12452,146 149.95735,146 C150.844268,146 153.536903,131.600153 153.536903,127.500104 C153.536903,127.500104 143.781862,127.599898 135.297916,124.866979 L158,63.50004 Z" id="Fill-9" fill="#F9E5CB"></path>
                    <path d="M153.006062,61.8328482 C153.097035,61.5763791 153.376408,61.4397552 153.634698,61.5254219 L158.157403,63.0254618 C158.425843,63.114495 158.567067,63.4082686 158.46894,63.6735196 L135.949128,124.547753 C136.734453,124.789171 137.547215,125.012432 138.385001,125.218108 C141.58582,126.003908 145.018845,126.506434 148.469685,126.780575 C149.709266,126.879049 150.873888,126.941369 151.936912,126.974537 C152.621701,126.995903 153.151873,127.002162 153.500839,127.000342 C153.809915,126.997285 154.036903,127.221962 154.036903,127.500104 C154.036903,129.468471 153.422181,133.915817 152.570875,138.381207 C151.54065,143.785083 150.816523,146.5 149.95735,146.5 C149.052405,146.5 147.56726,146.269777 144.671845,145.71687 C143.944948,145.578063 141.088793,145.022293 140.574241,144.923092 C138.763737,144.574044 137.239407,144.289136 135.694722,144.014673 C126.728366,142.421509 118.956422,141.544767 111.495044,141.544767 C103.383054,141.544767 95.263529,142.425766 86.2376646,144.01481 C86.5957148,143.951774 73.3734936,146.5 72.0327385,146.5 C71.1952447,146.5 70.2353856,143.61202 68.9303478,138.409219 C67.7748298,133.802509 66.9630973,129.447765 66.9630973,127.500104 C66.9630973,127.222148 67.1897926,126.997546 67.4677365,127.000125 C67.8454896,127.001966 68.3608709,126.997005 69.0231576,126.979792 C70.0462523,126.953201 71.1657788,126.903036 72.3563908,126.82365 C75.6651672,126.603033 78.9558406,126.197968 82.0243673,125.564134 C83.4478292,125.270105 84.7938626,124.932002 86.0503196,124.547445 L63.5310588,63.6735167 C63.432934,63.4082662 63.5741583,63.1144947 63.8425973,63.0254618 L68.3653023,61.5254219 C68.6235909,61.4397556 68.9029628,61.5763779 68.9939366,61.8328452 L90.740256,123.138605 C90.8185068,123.175691 90.9152067,123.221003 91.0296664,123.273915 C91.4175131,123.453209 91.8666326,123.653245 92.3713128,123.868842 C93.8149218,124.485544 95.4125482,125.10249 97.1183309,125.678251 C101.130902,127.032634 105.101554,127.9472 108.801395,128.220511 C109.551307,128.275908 110.2846,128.304136 111,128.304136 C112.622037,128.304136 114.413507,128.124597 116.345598,127.784297 C118.930917,127.328943 121.68939,126.601515 124.515344,125.676787 C126.277395,125.100197 127.958258,124.482278 129.500449,123.864499 C130.039838,123.648427 130.52316,123.447899 130.943253,123.268099 C131.069985,123.213858 131.176978,123.167532 131.263313,123.129788 L153.006062,61.8328482 Z M153.784787,62.628769 L132.133804,123.667 C132.088272,123.795365 131.992343,123.8996 131.868192,123.955611 C131.773455,123.998353 131.593929,124.077353 131.336729,124.187434 C130.909631,124.370232 130.419123,124.573742 129.872309,124.792788 C128.311063,125.4182 126.610191,126.043474 124.826343,126.627197 C121.958546,127.565617 119.155729,128.304739 116.519059,128.769138 C114.533175,129.118912 112.684983,129.304136 111,129.304136 C110.25946,129.304136 109.501642,129.274964 108.727725,129.217794 C104.933542,128.937514 100.884487,128.004889 96.7985226,126.625733 C95.0666964,126.041182 93.444984,125.414935 91.9784632,124.788445 C91.464598,124.568924 91.0065765,124.364923 90.6100538,124.181618 C90.3709254,124.071074 90.2046582,123.991602 90.1169153,123.948377 C90.0000087,123.890787 89.9102075,123.789827 89.8666395,123.667003 L68.2152164,62.6287681 L64.6484311,63.8117593 L87.1705823,124.693502 C87.2692948,124.960341 87.1257619,125.255655 86.8549548,125.342894 C85.4220098,125.80451 83.8736274,126.203263 82.2266565,126.54346 C79.1085649,127.187532 75.7740518,127.597993 72.4229194,127.821434 C71.2182719,127.901756 70.0853006,127.952523 69.0491398,127.979454 C68.6344986,127.990231 68.2757908,127.996288 67.9789078,127.998959 C68.0963664,130.042742 68.857506,134.008612 69.9002997,138.165922 C70.4210345,140.241938 70.9601661,142.147613 71.4190432,143.528261 C71.6538203,144.234648 71.8630566,144.78992 72.0356572,145.163575 C72.1000331,145.302939 72.1576953,145.413272 72.205519,145.490894 C74.1603476,145.326861 86.2232565,143.001967 86.0642767,143.029956 C95.1426609,141.431666 103.316563,140.544767 111.495044,140.544767 C119.025017,140.544767 126.850522,141.427551 135.869664,143.030094 C137.419774,143.305521 138.94864,143.591277 140.763546,143.941174 C141.279667,144.040677 144.134592,144.596208 144.859415,144.734619 C147.46907,145.232957 148.917048,145.464416 149.763954,145.496177 C149.803559,145.421483 149.849984,145.318272 149.900693,145.189745 C150.047227,144.818339 150.218922,144.264927 150.407713,143.557105 C150.771122,142.194601 151.18672,140.301755 151.588567,138.193934 C152.361496,134.139659 152.938319,130.089223 153.025469,127.998582 C152.717165,127.995256 152.341763,127.987655 151.905726,127.974051 C150.827224,127.9404 149.646682,127.877228 148.390493,127.777434 C144.889777,127.499331 141.405189,126.989257 138.146581,126.18927 C137.108094,125.934322 136.106056,125.652605 135.14461,125.342896 C134.873797,125.25566 134.73026,124.960341 134.828976,124.693499 L157.351566,63.8117583 L153.784787,62.628769 Z M72.2281264,145.526257 C72.2331403,145.533784 72.2380231,145.540889 72.2427702,145.547566 C72.241181,145.545331 72.2389756,145.542719 72.2358554,145.539891 L72.2281264,145.526257 Z" id="Stroke-11" fill="#242424" fill-rule="nonzero"></path>
                    <path d="M37.5290003,122.832193 C37.6216776,122.572067 37.9076812,122.436323 38.1678072,122.529 C38.4279332,122.621678 38.5636771,122.907681 38.4709997,123.167807 C38.4491259,123.229203 38.4067013,123.353685 38.3466533,123.538621 C38.2457076,123.849514 38.1329866,124.215612 38.0114165,124.634279 C37.6631931,125.833501 37.3146366,127.211505 36.9891332,128.7472 C35.7888951,134.409812 35.2196733,140.588756 35.6299483,146.967909 C35.6476718,147.243482 35.4386434,147.481246 35.1630704,147.498969 C34.8874974,147.516693 34.6497336,147.307664 34.6320101,147.032091 C34.2154088,140.554574 34.7928612,134.286285 36.0108668,128.539848 C36.3416134,126.979416 36.6961819,125.577643 37.0510835,124.355423 C37.1756071,123.926585 37.2914017,123.550505 37.3955342,123.229797 C37.4585331,123.035772 37.5039991,122.902366 37.5290003,122.832193 Z" id="Stroke-13" fill="#242424" fill-rule="nonzero"></path>
                    <path d="M46.9139004,71.323257 C47.143168,71.4771757 47.2042502,71.7878097 47.0503314,72.0170772 C46.8964126,72.2463448 46.5857787,72.3074271 46.3565111,72.1535083 C44.9349598,71.1991497 43.1459687,70.5 41.1978418,70.5 C39.618189,70.5 38.7398433,70.8045298 37.7786341,71.4876548 C37.6788748,71.558553 37.3171919,71.8250078 37.2351236,71.883625 C36.8405556,72.1654451 36.531403,72.3426693 36.1664156,72.4714932 C35.9060171,72.563402 35.6204156,72.4268141 35.5285068,72.1664156 C35.436598,71.9060171 35.5731859,71.6204156 35.8335844,71.5285068 C36.094283,71.436492 36.3290154,71.3019299 36.6539048,71.0698777 C36.7276449,71.0172088 37.0905976,70.7498187 37.1993365,70.6725386 C38.3233003,69.8737451 39.4012815,69.5 41.1978418,69.5 C43.3767469,69.5 45.3422585,70.2681351 46.9139004,71.323257 Z" id="Stroke-15" fill="#242424" fill-rule="nonzero"></path>
                    <path d="M46.9593267,71.3315115 C47.1785634,71.4994099 47.2201813,71.8132449 47.0522829,72.0324816 C46.8843845,72.2517183 46.5705495,72.2933362 46.3513128,72.1254378 C44.4392187,70.6610957 42.2395816,69.4044186 40.3024136,69.0400366 C39.0727697,68.8087401 38.0251071,68.3657458 37.1510552,67.7717985 C36.3405973,67.2210655 35.8289583,66.6620676 35.5783136,66.2686645 C35.4299343,66.0357735 35.4984446,65.7266929 35.7313355,65.5783136 C35.9642265,65.4299343 36.2733071,65.4984446 36.4216864,65.7313355 C36.4607373,65.7926285 36.5556695,65.9181454 36.7100975,66.0868676 C36.9760662,66.3774553 37.3091354,66.6701844 37.7131011,66.9446925 C38.4757881,67.4629637 39.395728,67.8519516 40.4872721,68.0572714 C42.6217263,68.458763 44.9305992,69.7778478 46.9593267,71.3315115 Z" id="Stroke-17" fill="#242424" fill-rule="nonzero"></path>
                    <path d="M47.2876303,63.8567604 C47.090597,63.6632856 47.0877122,63.3467163 47.2811869,63.149683 C47.4746617,62.9526496 47.791231,62.9497649 47.9882644,63.1432396 C50.3520648,65.464348 50.9155843,67.0819445 50.2563119,68.0945781 C50.1546377,68.2507483 50.0437254,68.3559461 49.9484632,68.4183166 C49.8438165,68.4868312 49.7172904,68.5136352 49.5938509,68.4934395 C49.5200804,68.4813701 49.3848382,68.4577672 49.1968482,68.4226134 C48.8851995,68.3643357 48.5383485,68.2944826 48.1649883,68.2130208 C47.0973879,67.9800859 46.0293392,67.7004199 45.0294074,67.3731012 C44.6309623,67.2426738 44.250496,67.1068089 43.8904039,66.9653608 C42.7840829,66.5306303 41.8816004,65.7459743 41.0923454,64.6728656 C40.612558,64.0205239 39.7013642,62.4074629 39.6498426,62.3569171 C39.4527227,62.1635305 39.4496963,61.8469625 39.6430829,61.6498426 C39.8364695,61.4527227 40.1530375,61.4496963 40.3501574,61.6430829 C40.5224469,61.8121095 41.4919535,63.5283999 41.8979231,64.0803755 C42.5845119,65.0138944 43.3481771,65.6778568 44.2560756,66.0346169 C44.5973534,66.1686745 44.9597431,66.2980843 45.340505,66.4227232 C46.3047842,66.7383713 47.3412474,67.0097668 48.3781588,67.2360058 C48.7413777,67.3152549 49.078493,67.3831473 49.3806602,67.439652 C49.4112163,67.4453659 49.4402651,67.4507522 49.4677637,67.4558108 C49.7028163,66.9019097 49.2362653,65.7702015 47.2876303,63.8567604 Z" id="Stroke-19" fill="#242424" fill-rule="nonzero"></path>
                    <path d="M56.5808594,67.5001953 C63.3598527,65.0048483 66.559782,64.1830303 71.0593825,63.4118101 C99.1035156,57.4116211 129.473633,59.8963701 138.498525,60.9009742 C147.523417,61.9055783 153.159151,63.9143369 160.489245,65.9230955 C168.572075,68.1381688 179.548628,73.9585796 179.548628,73.9585796 C180.628963,73.9585796 180.037184,107.607197 180.037184,107.607197 L181.014297,131.210673 L179.548628,166.868049 L180.038496,194 L184.849704,193.101025 L185.132691,168.402599 C185.132691,168.402599 186.390166,111.122637 186.390166,106.100066 C186.390166,101.077945 189.321941,79.4827782 182.329069,71.5007831 C181.360704,70.3950444 180.125535,69.5491094 178.082521,68.4343809 L177.104971,69.4385355 C173.752872,72.1579335 173.775178,67.2926833 173.775178,67.2926833 L173.746748,66.2287469 C159.677901,60.0334638 142.711723,56.3792745 135.141614,55.5931212 C127.571504,54.806968 113.075387,53.9816561 94.5162093,55.3763261 C75.9570312,56.7709961 55.6650391,62.8337402 52.5790945,63.9090522" id="Stroke-23" fill="#FFFFFF"></path>
                    <path d="M48.3727174,71.0715573 C48.1161128,71.1735803 47.8253877,71.0482673 47.7233646,70.7916627 C47.6213415,70.5350582 47.7466546,70.244333 48.0032592,70.1423099 C48.4177234,69.9775236 48.9259032,69.7801014 49.5281209,69.549266 C49.584046,69.5278345 49.584046,69.5278345 49.6399923,69.5064144 C50.2724927,69.264303 52.0756139,68.5813191 52.2366624,68.5192471 C52.4943287,68.4199362 52.783716,68.5483087 52.8830269,68.805975 C52.9823378,69.0636414 52.8539653,69.3530287 52.5962989,69.4523396 C52.43193,69.5156914 50.6273277,70.1992362 49.9974814,70.4403317 C49.9417434,70.461672 49.9417434,70.461672 49.8860371,70.4830197 C49.2873474,70.7125028 48.7827093,70.9085491 48.3727174,71.0715573 Z M179.413258,74.4435151 C179.452043,74.4531073 179.496837,74.4585796 179.548628,74.4585796 C179.510032,74.4585796 179.471715,74.4541117 179.434417,74.4453606 L179.413258,74.4435151 Z M179.20266,74.2921283 C179.199535,74.2834149 179.196734,74.2765032 179.194329,74.2714939 C179.195196,74.2733001 179.196082,74.2751074 179.196988,74.276915 L179.20266,74.2921283 Z M178.58627,74.0217993 C177.998382,73.7195535 177.330797,73.3826426 176.596299,73.0197459 C174.497532,71.982799 172.284174,70.9458435 170.058814,69.9783863 C168.52691,69.3124032 167.041825,68.7027618 165.622054,68.1618966 C163.704388,67.431357 161.938444,66.8386793 160.357096,66.4053161 C158.803027,65.9794348 153.867718,64.563935 153.401235,64.4331193 C147.765286,62.8526335 143.670263,61.9797534 138.443209,61.3979049 C118.29652,59.1552803 93.3125538,59.1619438 71.1438495,63.9046238 C66.9387035,64.6253753 59.7128052,66.8041559 52.4561673,69.4753239 C52.197024,69.5707146 51.9096175,69.4379668 51.8142268,69.1788235 C51.7188362,68.9196802 51.851584,68.6322737 52.1107273,68.5368831 C59.4199284,65.8463666 66.6965046,63.6523053 70.9547725,62.9228758 C93.2286701,58.1572589 118.309687,58.1505695 138.553841,60.4040434 C143.841788,60.9926703 147.98724,61.8762994 153.671248,63.4702627 C154.142952,63.6025425 159.074222,65.0168837 160.621396,65.4408755 C162.236745,65.8835567 164.032331,66.4861825 165.97805,67.2274089 C167.41304,67.7740719 168.912179,68.3894824 170.457509,69.0613026 C172.699044,70.035792 174.926802,71.0794936 177.039257,72.1232038 C177.778687,72.4885371 178.451012,72.8278397 179.043503,73.1324522 C179.399549,73.3155037 179.65025,73.4465206 179.782864,73.5168404 C180.601351,73.9684487 180.716909,78.4757262 180.698031,90.7836552 C180.692605,94.3209695 180.663371,98.1083959 180.61802,101.917598 C180.600323,103.404076 180.581361,104.790942 180.562399,106.040644 C180.555762,106.478075 180.549598,106.86713 180.544066,107.203112 C180.540272,107.430285 180.863542,115.43965 181.513875,131.231208 L180.048546,166.859023 L180.527744,193.399931 L184.35444,192.684912 L184.632811,168.391625 C184.635267,168.279765 184.635267,168.279765 184.646933,167.74715 C184.662896,167.017528 184.662896,167.017528 184.686842,165.920635 C184.729822,163.95059 184.777713,161.746987 184.829288,159.363311 C184.976647,152.552812 185.124005,145.663839 185.261539,139.124283 C185.28316,138.09555 185.28316,138.09555 185.304752,137.065498 C185.672142,119.526037 185.890166,108.204797 185.890166,106.100066 C185.890166,105.564559 185.920956,104.847305 185.986339,103.75081 C186.015348,103.264326 186.158426,101.025359 186.196002,100.406498 C186.49528,95.4774793 186.591442,91.6744629 186.41423,87.8601878 C186.070167,80.4546386 184.682333,74.9456759 181.952923,71.830198 C181.120001,70.8791173 180.065603,70.1073812 178.174235,69.0556799 L177.419976,69.8268296 C176.344145,70.6995998 175.426765,70.966013 174.674971,70.6179477 C174.070812,70.3382345 173.70092,69.7281374 173.484192,68.9061406 C173.326526,68.3081538 173.274761,67.7186197 173.275166,67.2989254 L173.255402,66.5592879 C161.195694,61.2964808 144.842299,57.103223 135.089967,56.0904467 C124.303926,54.97032 110.1518,54.7027652 94.5536772,55.8749203 C86.3456487,56.4917305 76.8929762,58.115488 67.0846253,60.3934702 C60.3663582,61.9537828 53.6250059,63.8228709 51.1962634,64.6691777 C50.9354987,64.7600424 50.6504467,64.6223112 50.5595821,64.3615466 C50.4687174,64.1007819 50.6064485,63.8157299 50.8672132,63.7248653 C59.4925119,60.719339 79.9409398,55.9702068 94.4787413,54.8777319 C110.137866,53.7009927 124.349472,53.9696721 135.193261,55.0957958 C145.125001,56.1272036 161.764339,60.4059053 173.948253,65.7711492 C174.125232,65.8490826 174.241404,66.0220819 174.24657,66.2153909 L174.275173,67.2949757 C174.274973,67.3817051 174.280443,67.5338215 174.2973,67.7279181 C174.324876,68.0454496 174.37473,68.3613616 174.451147,68.6511925 C174.599323,69.2131893 174.825011,69.5854379 175.095106,69.7104865 C175.432591,69.8667347 175.979166,69.7080056 176.746704,69.08976 L177.724254,68.0856055 C177.880727,67.9248744 178.125094,67.8880242 178.322007,67.9954654 C180.518095,69.193716 181.731991,70.0600812 182.705156,71.1713007 C185.624479,74.5035544 187.059386,80.1993715 187.413153,87.8137778 C187.592374,91.6713076 187.495426,95.5054006 187.194164,100.467104 C187.156447,101.088288 187.013415,103.326526 186.984566,103.810334 C186.920309,104.887938 186.890166,105.590128 186.890166,106.100066 C186.890166,108.216042 186.672327,119.527694 186.304532,137.08644 C186.28294,138.116535 186.28294,138.116535 186.261318,139.14531 C186.123779,145.685089 185.976417,152.574257 185.829054,159.384943 C185.777478,161.768681 185.729585,163.972344 185.686604,165.942446 C185.662658,167.039377 185.662658,167.039377 185.646693,167.769034 C185.635027,168.301682 185.635027,168.301682 185.632658,168.408327 L185.349672,193.106754 C185.346938,193.345308 185.176051,193.548701 184.94154,193.592519 L180.130332,194.491494 C179.826316,194.548299 179.544161,194.318253 179.538578,194.009026 L179.04905,166.847514 L180.514725,131.231354 L179.537261,107.598405 C179.549727,106.85109 179.555883,106.462465 179.562514,106.025472 C179.58146,104.776819 179.600407,103.391034 179.618091,101.905693 C179.663404,98.0996944 179.692612,94.3155917 179.698032,90.7821214 C179.705282,86.0551881 179.669173,82.1166728 179.580965,79.2314552 C179.531032,77.5982181 179.464907,76.3260107 179.382026,75.4515998 C179.339444,75.002354 179.292786,74.6632555 179.244157,74.4453942 C179.080272,74.2771039 178.866603,74.1659249 178.58627,74.0217993 Z" id="Stroke-23-Copy" fill="#242424" fill-rule="nonzero"></path>
                    <path d="M177.729769,65.3088684 C175.781154,66.3675526 176.182692,67.9553421 173.803923,69.5426579 C171.676692,70.9627632 170.510385,63.7210789 176.182692,61.0750789" id="Fill-71" fill="#FFFFFF"></path>
                    <path d="M177.491073,64.8695235 C177.733716,64.737695 178.037286,64.8275284 178.169114,65.070172 C178.300943,65.3128155 178.211109,65.616385 177.968466,65.7482134 C177.299397,66.1117191 176.965688,66.484049 176.465276,67.3059438 C175.61797,68.6975882 175.210154,69.2038264 174.088229,69.9540368 C173.321732,70.4657406 172.531482,70.2288216 172.054506,69.4525603 C171.6636,68.8163749 171.488715,67.8478825 171.569963,66.7951817 C171.765739,64.2586131 173.282794,61.8760897 175.97132,60.6219544 C176.221574,60.5052168 176.519079,60.6134531 176.635817,60.8637069 C176.752554,61.1139606 176.644318,61.4114659 176.394064,61.5282035 C174.046833,62.6231326 172.736059,64.681693 172.566998,66.8721341 C172.500764,67.7302958 172.638446,68.4927608 172.906518,68.9290384 C173.10307,69.2489192 173.268916,69.2986403 173.526395,69.1267514 C174.502111,68.474312 174.833925,68.0624196 175.611137,66.7858994 C176.194994,65.8269522 176.637435,65.3333057 177.491073,64.8695235 Z" id="Stroke-73" fill="#242424" fill-rule="nonzero"></path>
                    <path d="M179.623029,170.415619 C179.892079,170.477802 180.059778,170.746319 179.997595,171.015369 C179.935413,171.284419 179.666895,171.452118 179.397845,171.389935 C177.872006,171.037285 176.311646,170.242272 174.720663,169.001516 C169.278289,164.759027 165.243719,154.458665 162.344629,139.902024 C160.999079,133.145874 159.990285,125.910648 159.269654,118.675922 C159.017469,116.144129 158.819291,113.79304 158.669114,111.682742 C158.616529,110.943807 158.573695,110.287633 158.539861,109.721735 C158.519528,109.38163 158.506697,109.146841 158.50062,109.024885 C158.486876,108.749085 158.699315,108.514363 158.975115,108.50062 C159.250915,108.486876 159.485637,108.699315 159.49938,108.975115 C159.505295,109.093818 159.517946,109.325307 159.538079,109.662055 C159.57169,110.224246 159.614279,110.876656 159.666592,111.611758 C159.816124,113.712994 160.013515,116.054757 160.264729,118.576805 C160.982382,125.781624 161.986867,132.985942 163.325368,139.706701 C166.178364,154.0319 170.149449,164.170185 175.335546,168.212899 C176.817922,169.368955 178.248847,170.098019 179.623029,170.415619 Z" id="Stroke-75" fill="#242424" fill-rule="nonzero"></path>
                    <path d="M171.929418,64.5231726 C172.112536,64.3164783 172.428541,64.2973655 172.635235,64.480483 C172.84193,64.6636006 172.861042,64.9796056 172.677925,65.1863 C172.641585,65.2273183 172.579249,65.2943477 172.495584,65.3789675 C172.357196,65.5189345 172.207298,65.6589022 172.049895,65.7906997 C171.82516,65.9788747 171.603128,66.1353628 171.384652,66.2503142 C169.914121,67.0240365 169.196575,65.8691427 169.653137,63.1029693 C170.265454,59.3946121 172.303109,57.3753156 175.519031,56.3911917 C176.08946,56.2166311 176.684671,56.0767332 177.366791,55.9482772 C177.628468,55.8989983 177.892114,55.8532088 178.223113,55.7985712 C178.272325,55.7904479 178.84698,55.6967924 179.004678,55.670261 C183.005449,54.9970619 188.933731,55.8642024 191.86167,58.8206391 C191.945923,58.9057019 192.328601,59.2838944 192.334589,59.2898424 C192.565196,59.5189403 192.759797,59.7165954 192.959611,59.9266548 C193.499534,60.4942606 193.991928,61.0649902 194.458753,61.6825558 C196.355571,64.1918726 197.47091,66.9950726 197.469584,70.1695761 C197.475511,70.2507901 197.475511,70.2507901 197.503624,70.6386497 C197.531365,71.0220571 197.563543,71.4689089 197.599788,71.9748 C197.703341,73.4201381 197.818726,75.0487705 197.942987,76.8254588 C198.298017,81.9017095 198.653047,87.1472706 198.984416,92.280278 C199.102376,94.1075046 199.21543,95.8915522 199.322938,97.6247977 C200.218915,112.06967 200.65613,121.701599 200.450009,124.407662 C198.744325,146.79257 193.887633,162.754768 185.529089,170.892554 C185.331231,171.085186 185.014677,171.08095 184.822045,170.883093 C184.629413,170.685235 184.63365,170.368681 184.831507,170.176049 C192.969154,162.253326 197.764195,146.493751 199.452898,124.331698 C199.65362,121.696528 199.215656,112.048124 198.324857,97.686706 C198.217402,95.9543258 198.104401,94.1711131 197.986494,92.3447005 C197.65525,87.2136394 197.300337,81.9698127 196.945424,76.8952278 C196.821204,75.1191236 196.705858,73.4910535 196.602344,72.046263 C196.566116,71.540609 196.533955,71.0939907 196.506232,70.7108135 C196.478141,70.3232779 196.478141,70.3232779 196.47091,70.2059703 C196.47091,67.2348105 195.435957,64.633646 193.661022,62.285569 C193.218756,61.7004919 192.75052,61.1577641 192.235057,60.6158719 C192.042568,60.4135143 191.854253,60.2222438 191.629808,59.9992675 C191.627481,59.9969556 191.239865,59.6138829 191.151169,59.5243358 C188.506958,56.8543875 182.882883,56.0317439 179.170601,56.6563998 C179.009876,56.6834404 178.432958,56.7774648 178.385978,56.7852197 C178.06177,56.8387362 177.805003,56.8833311 177.551856,56.9310033 C176.903378,57.0531239 176.342777,57.1848873 175.811652,57.3474201 C172.93606,58.2273977 171.185235,59.962449 170.639783,63.2658497 C170.292925,65.3673579 170.446226,65.6140969 170.919019,65.3653361 C171.066559,65.2877079 171.233284,65.1702004 171.407908,65.0239842 C171.633343,64.835222 171.822072,64.6443397 171.929418,64.5231726 Z" id="Stroke-77" fill="#242424" fill-rule="nonzero"></path>
                    <path d="M179.502773,70.87689 C176.17264,73.43604 175.331707,70.37424 175.331707,69.36849 C175.331707,68.36319 176.374707,64.34064 181.588773,63.33534" id="Fill-79" fill="#FFFFFF"></path>
                    <path d="M179.198104,70.4804347 C179.41706,70.3121707 179.730965,70.3532648 179.899229,70.572221 C180.067493,70.7911772 180.026399,71.1050812 179.807442,71.2733453 C178.145884,72.5502245 176.779002,72.6929287 175.831546,71.8289894 C175.182336,71.2370066 174.831707,70.1961622 174.831707,69.36849 C174.831707,66.8425659 177.122323,63.687287 181.494114,62.8443821 C181.765263,62.7921033 182.027452,62.9695322 182.079731,63.2406807 C182.13201,63.5118292 181.954581,63.774019 181.683433,63.8262979 C179.481168,64.2509063 177.919137,65.2550165 176.909585,66.6456541 C176.207814,67.61233 175.831707,68.7331804 175.831707,69.36849 C175.831707,69.9393767 176.092538,70.7136568 176.505334,71.0900656 C177.041656,71.5791115 177.882692,71.4913062 179.198104,70.4804347 Z" id="Stroke-81" fill="#242424" fill-rule="nonzero"></path>
                    <path d="M186.739041,62.2266667 C186.739041,62.2266667 183.726771,66.696 181.718741,68.1857778 C179.922791,69.5182222 175.6942,73.1515556 179.208366,73.648 C182.72298,74.1444444 186.237146,70.172 187.240936,69.1791111 C188.245626,68.1857778 191.759342,66.696 191.759342,66.696" id="Fill-83" fill="#FFFFFF"></path>
                    <path d="M186.324422,61.947219 C186.478757,61.7182312 186.789501,61.6577129 187.018489,61.8120476 C187.247477,61.9663823 187.307995,62.2771265 187.15366,62.5061143 C187.118585,62.5581552 187.05297,62.6542292 186.960185,62.7880707 C186.806116,63.0103154 186.631651,63.2577521 186.44015,63.5241281 C185.892812,64.285471 185.31799,65.0469726 184.742122,65.7590072 C184.391378,66.1926869 184.050443,66.5950829 183.722397,66.9601489 C183.090059,67.6638471 182.518928,68.2146919 182.016659,68.5873304 C180.789664,69.4976585 179.550077,70.6155558 178.874006,71.5280459 C178.490978,72.0450175 178.320909,72.4562718 178.359115,72.6927042 C178.391515,72.8932104 178.637309,73.0623625 179.278297,73.1529146 C180.929543,73.3861554 182.751773,72.5469436 184.670958,70.9407827 C185.435606,70.3008514 186.081043,69.6624462 186.889398,68.823554 C187.160189,68.5558236 187.573366,68.2639192 188.115276,67.9422808 C188.420546,67.7610942 188.763407,67.5726637 189.137407,67.3788601 C189.668965,67.1034113 190.236913,66.8305064 190.804656,66.5719617 C191.145314,66.4168296 191.410868,66.3006639 191.564166,66.2356672 C191.818401,66.1278744 192.111882,66.2465891 192.219675,66.5008239 C192.327467,66.7550586 192.208753,67.04854 191.954518,67.1563328 C191.80883,67.2181031 191.551158,67.3308209 191.219096,67.4820384 C190.665641,67.7340764 190.11239,67.9999194 189.597495,68.2667332 C189.239471,68.4522582 188.913035,68.631662 188.625673,68.8022193 C188.148055,69.0856989 187.792533,69.3368709 187.592554,69.5345896 C186.794502,70.3640996 186.11459,71.0366042 185.312754,71.7076582 C183.196625,73.4786408 181.139986,74.4258075 179.138425,74.1430842 C178.111192,73.9979675 177.48773,73.5689093 177.37192,72.8522263 C177.279451,72.2799825 177.541094,71.6472875 178.070513,70.9327318 C178.818314,69.9234287 180.12126,68.7483917 181.420824,67.7842239 C181.859915,67.4584574 182.387081,66.9500162 182.978583,66.2917626 C183.294271,65.9404487 183.624171,65.5510776 183.964589,65.1301661 C184.527331,64.4343608 185.091129,63.6874624 185.628198,62.9404052 C185.816239,62.6788412 185.98743,62.436048 186.138352,62.2183427 C186.228562,62.0882142 186.291721,61.9957381 186.324422,61.947219 Z" id="Stroke-85" fill="#242424" fill-rule="nonzero"></path>
                    <path d="M141.301494,1.73992687 C141.22227,1.4753929 141.372494,1.19672227 141.637028,1.11749859 C141.901562,1.03827491 142.180232,1.18849858 142.259456,1.45303255 C146.076223,14.1975114 146.769338,22.6262571 143.445452,29.1628644 C139.34314,37.2302908 129.066749,41.3850978 111.05807,41.3850978 C80.3624999,41.3850978 71.3031384,29.1704154 78.9918375,1.46278474 C79.0656752,1.19669715 79.3412391,1.04084781 79.6073267,1.1146855 C79.8734143,1.18852319 80.0292636,1.46408708 79.9554259,1.73017467 C72.4419632,28.8063089 81.0296965,40.3850978 111.05807,40.3850978 C128.730592,40.3850978 138.658042,36.3713701 142.554078,28.7095975 C145.724923,22.4739532 145.04887,14.2527068 141.301494,1.73992687 Z" id="Combined-Shape" fill="#242424" fill-rule="nonzero"></path>
                    <path d="M187,89 L184.499888,89 C184.223764,89 184,88.7761862 184,88.5 C184,88.2238138 184.223764,88 184.499888,88 L187,88 L187,89 Z" id="Fill-87" fill="#242424"></path>
                    <path d="M187,95 L184.499888,95 C184.223764,95 184,94.7758389 184,94.5002237 C184,94.2241611 184.223764,94 184.499888,94 L187,94 L187,95 Z" id="Fill-89" fill="#242424"></path>
                    <path d="M187,102 L184.499888,102 C184.223764,102 184,101.776186 184,101.5 C184,101.223814 184.223764,101 184.499888,101 L187,101 L187,102 Z" id="Fill-91" fill="#242424"></path>
                    <path d="M186,108 L183.581227,108 C183.259744,108 183,107.790157 183,107.531991 L183,107.468009 C183,107.208949 183.259744,107 183.581227,107 L186,107 L186,108 Z" id="Fill-93" fill="#242424"></path>
                    <path d="M186,113.980957 L183.611613,114 C183.273324,114 183,113.79051 183,113.532229 L183,113.467771 C183,113.209042 183.273324,113 183.611613,113 L185.962964,113 L186,113.980957 Z" id="Fill-95" fill="#242424"></path>
                    <path d="M186,120 L183.62509,119.977158 C183.279346,119.977158 183,119.772453 183,119.520072 L183,119.457086 C183,119.204267 183.279346,119 183.62509,119 L186,119.015686 L186,120 Z" id="Fill-97" fill="#242424"></path>
                    <path d="M186,126 L183.534459,126 C183.238844,126 183,125.79051 183,125.532229 L183,125.467771 C183,125.209042 183.238844,125 183.534459,125 L186,125 L186,126 Z" id="Fill-99" fill="#242424"></path>
                    <path d="M186,131 L183.433174,131 C183.193765,131 183,130.806177 183,130.567144 L183,130.432856 C183,130.193823 183.193765,130 183.433174,130 L186,130 L186,131 Z" id="Fill-101" fill="#242424"></path>
                    <path d="M186,138 L183.433239,138 C183.193346,138 183,137.80573 183,137.566697 L183,137.432408 C183,137.193375 183.193346,137 183.433239,137 L186,137 L186,138 Z" id="Fill-103" fill="#242424"></path>
                    <path d="M186,144 L183.433239,144 C183.193346,144 183,143.806177 183,143.566697 L183,143.432856 C183,143.193823 183.193346,143 183.433239,143 L186,143 L186,144 Z" id="Fill-105" fill="#242424"></path>
                    <path d="M186,149 L182.433239,149 C182.193346,149 182,148.80573 182,148.566697 L182,148.432408 C182,148.193375 182.193346,148 182.433239,148 L186,148 L186,149 Z" id="Fill-107" fill="#242424"></path>
                    <path d="M185,155 L182.501037,155 C182.224701,155 182,154.822739 182,154.604745 L182,154.394808 C182,154.176813 182.224701,154 182.501037,154 L185,154 L185,155 Z" id="Fill-109" fill="#242424"></path>
                    <path d="M185,161 L182.513055,161 C182.23009,161 182,160.822819 182,160.604474 L182,160.395078 C182,160.176734 182.23009,160 182.513055,160 L185,160 L185,161 Z" id="Fill-111" fill="#242424"></path>
                    <path d="M185,169 L182.540628,169 C182.242456,169 182,168.822739 182,168.604745 L182,168.394808 C182,168.176813 182.242456,168 182.540628,168 L184.958877,168 L185,169 Z" id="Fill-113" fill="#242424"></path>
                    <path d="M185,174 L182.474221,174 C182.212675,174 182,173.822819 182,173.604474 L182,173.395078 C182,173.176734 182.212675,173 182.474221,173 L185,173 L185,174 Z" id="Fill-115" fill="#242424"></path>
                    <path d="M185,180 L182.474221,180 C182.212675,180 182,179.822739 182,179.604745 L182,179.394808 C182,179.176813 182.212675,179 182.474221,179 L185,179 L185,180 Z" id="Fill-117" fill="#242424"></path>
                    <path d="M185,185 L182.474221,185 C182.212675,185 182,184.823187 182,184.604745 L182,184.395255 C182,184.176813 182.212675,184 182.474221,184 L185,184 L185,185 Z" id="Fill-119" fill="#242424"></path>
                    <path d="M185,190 L182.474221,190 C182.212675,190 182,189.822739 182,189.604297 L182,189.394808 C182,189.176813 182.212675,189 182.474221,189 L185,189 L185,190 Z" id="Fill-121" fill="#242424"></path>
                    <path d="M190.829613,76.712488 C182.611447,75.102088 179.14998,70.541928 178.39988,72.776688 C176.945613,77.108928 181.258147,81.743888 189.446847,82.920008" id="Fill-123" fill="#FFFFFF"></path>
                    <path d="M190.925763,76.2218198 C191.196751,76.2749217 191.373383,76.5376489 191.320282,76.8086374 C191.26718,77.079626 191.004452,77.2562581 190.733464,77.2031562 C188.467245,76.7590768 186.421248,76.0755696 184.411096,75.1649324 C183.18799,74.610842 180.28576,73.0655908 180.052253,72.9590104 C179.184733,72.5630464 178.993079,72.5806959 178.873886,72.9358046 C177.481024,77.0851222 181.892749,81.3299033 189.517931,82.4250868 C189.791268,82.4643454 189.981027,82.7177547 189.941768,82.9910922 C189.902509,83.2644296 189.6491,83.4541879 189.375763,83.4149292 C181.216823,82.2430836 176.286985,77.4997967 177.925869,72.6175856 C178.294654,71.5188709 179.135686,71.4414194 180.467478,72.0492916 C180.738472,72.1729822 183.639035,73.7173463 184.823746,74.2540428 C186.766891,75.1343244 188.740176,75.7935408 190.925763,76.2218198 Z" id="Stroke-125" fill="#242424" fill-rule="nonzero"></path>
                    <path d="M65.3909091,62.5853953 C65.3909091,62.8615377 65.1670515,63.0853953 64.8909091,63.0853953 C64.6147667,63.0853953 64.3909091,62.8615377 64.3909091,62.5853953 L64.3909091,61 C64.3909091,60.7238576 64.6147667,60.5 64.8909091,60.5 C65.1670515,60.5 65.3909091,60.7238576 65.3909091,61 L65.3909091,62.5853953 Z" id="Path-40-Copy" fill="#242424" fill-rule="nonzero"></path>
                    <path d="M70.3,61.5853953 C70.3,61.8615377 70.0761424,62.0853953 69.8,62.0853953 C69.5238576,62.0853953 69.3,61.8615377 69.3,61.5853953 L69.3,60 C69.3,59.7238576 69.5238576,59.5 69.8,59.5 C70.0761424,59.5 70.3,59.7238576 70.3,60 L70.3,61.5853953 Z" id="Path-40-Copy-2" fill="#242424" fill-rule="nonzero"></path>
                    <path d="M76.1909091,60.5853953 C76.1909091,60.8615377 75.9670515,61.0853953 75.6909091,61.0853953 C75.4147667,61.0853953 75.1909091,60.8615377 75.1909091,60.5853953 L75.1909091,58.0987854 C75.1909091,57.822643 75.4147667,57.5987854 75.6909091,57.5987854 C75.9670515,57.5987854 76.1909091,57.822643 76.1909091,58.0987854 L76.1909091,60.5853953 Z" id="Path-40-Copy-3" fill="#242424" fill-rule="nonzero"></path>
                    <path d="M82.0814338,59.5657934 C82.0922596,59.8417235 81.8773501,60.0741851 81.60142,60.0850109 C81.32549,60.0958367 81.0930284,59.8809273 81.0822026,59.6049972 L81.0003844,57.5196019 C80.9895586,57.2436718 81.204468,57.0112102 81.4803981,57.0003844 C81.7563282,56.9895586 81.9887898,57.204468 81.9996156,57.4803981 L82.0814338,59.5657934 Z" id="Path-40-Copy-4" fill="#242424" fill-rule="nonzero"></path>
                    <path d="M86.9909091,58.5853953 C86.9909091,58.8615377 86.7670515,59.0853953 86.4909091,59.0853953 C86.2147667,59.0853953 85.9909091,58.8615377 85.9909091,58.5853953 L85.9909091,56.5 C85.9909091,56.2238576 86.2147667,56 86.4909091,56 C86.7670515,56 86.9909091,56.2238576 86.9909091,56.5 L86.9909091,58.5853953 Z" id="Path-40-Copy-5" fill="#242424" fill-rule="nonzero"></path>
                    <path d="M91.9,57.5853953 C91.9,57.8615377 91.6761424,58.0853953 91.4,58.0853953 C91.1238576,58.0853953 90.9,57.8615377 90.9,57.5853953 L90.9,56 C90.9,55.7238576 91.1238576,55.5 91.4,55.5 C91.6761424,55.5 91.9,55.7238576 91.9,56 L91.9,57.5853953 Z" id="Path-40-Copy-6" fill="#242424" fill-rule="nonzero"></path>
                    <path d="M96.8090909,57.5853953 C96.8090909,57.8615377 96.5852333,58.0853953 96.3090909,58.0853953 C96.0329485,58.0853953 95.8090909,57.8615377 95.8090909,57.5853953 L95.8090909,56 C95.8090909,55.7238576 96.0329485,55.5 96.3090909,55.5 C96.5852333,55.5 96.8090909,55.7238576 96.8090909,56 L96.8090909,57.5853953 Z" id="Path-40-Copy-7" fill="#242424" fill-rule="nonzero"></path>
                    <path d="M101.718182,57.5853953 C101.718182,57.8615377 101.494324,58.0853953 101.218182,58.0853953 C100.942039,58.0853953 100.718182,57.8615377 100.718182,57.5853953 L100.718182,55 C100.718182,54.7238576 100.942039,54.5 101.218182,54.5 C101.494324,54.5 101.718182,54.7238576 101.718182,55 L101.718182,57.5853953 Z" id="Path-40-Copy-8" fill="#242424" fill-rule="nonzero"></path>
                    <path d="M106.627273,57.5853953 C106.627273,57.8615377 106.403415,58.0853953 106.127273,58.0853953 C105.85113,58.0853953 105.627273,57.8615377 105.627273,57.5853953 L105.627273,55.0069885 C105.627273,54.7308462 105.85113,54.5069885 106.127273,54.5069885 C106.403415,54.5069885 106.627273,54.7308462 106.627273,55.0069885 L106.627273,57.5853953 Z" id="Path-40-Copy-9" fill="#242424" fill-rule="nonzero"></path>
                    <path d="M111.536364,57.5853953 C111.536364,57.8615377 111.312506,58.0853953 111.036364,58.0853953 C110.760221,58.0853953 110.536364,57.8615377 110.536364,57.5853953 L110.536364,55.1031494 C110.536364,54.827007 110.760221,54.6031494 111.036364,54.6031494 C111.312506,54.6031494 111.536364,54.827007 111.536364,55.1031494 L111.536364,57.5853953 Z" id="Path-40-Copy-10" fill="#242424" fill-rule="nonzero"></path>
                    <path d="M115.463636,57.5853953 C115.463636,57.8615377 115.239779,58.0853953 114.963636,58.0853953 C114.687494,58.0853953 114.463636,57.8615377 114.463636,57.5853953 L114.463636,54.7892761 C114.463636,54.5131337 114.687494,54.2892761 114.963636,54.2892761 C115.239779,54.2892761 115.463636,54.5131337 115.463636,54.7892761 L115.463636,57.5853953 Z" id="Path-40-Copy-11" fill="#242424" fill-rule="nonzero"></path>
                    <path d="M120.372727,57.5853953 C120.372727,57.8615377 120.14887,58.0853953 119.872727,58.0853953 C119.596585,58.0853953 119.372727,57.8615377 119.372727,57.5853953 L119.372727,55.419043 C119.372727,55.1429006 119.596585,54.919043 119.872727,54.919043 C120.14887,54.919043 120.372727,55.1429006 120.372727,55.419043 L120.372727,57.5853953 Z" id="Path-40-Copy-12" fill="#242424" fill-rule="nonzero"></path>
                    <path d="M125.281818,57.5853953 C125.281818,57.8615377 125.057961,58.0853953 124.781818,58.0853953 C124.505676,58.0853953 124.281818,57.8615377 124.281818,57.5853953 L124.281818,55.4495117 C124.281818,55.1733693 124.505676,54.9495117 124.781818,54.9495117 C125.057961,54.9495117 125.281818,55.1733693 125.281818,55.4495117 L125.281818,57.5853953 Z" id="Path-40-Copy-13" fill="#242424" fill-rule="nonzero"></path>
                    <path d="M130.190909,58.353657 C130.190909,58.6297994 129.967051,58.853657 129.690909,58.853657 C129.414767,58.853657 129.190909,58.6297994 129.190909,58.353657 L129.190909,55.4384155 C129.190909,55.1622732 129.414767,54.9384155 129.690909,54.9384155 C129.967051,54.9384155 130.190909,55.1622732 130.190909,55.4384155 L130.190909,58.353657 Z" id="Path-40-Copy-14" fill="#242424" fill-rule="nonzero"></path>
                    <path d="M136.081774,58.5846253 C136.078094,58.8607431 135.851273,59.0815977 135.575155,59.0779178 C135.299037,59.0742379 135.078183,58.847417 135.081863,58.5712992 L135.11622,55.9933369 C135.1199,55.7172191 135.346721,55.4963645 135.622838,55.5000444 C135.898956,55.5037243 136.119811,55.7305452 136.116131,56.0066631 L136.081774,58.5846253 Z" id="Path-40-Copy-15" fill="#242424" fill-rule="nonzero"></path>
                    <path d="M140.990909,58.5853953 C140.990909,58.8615377 140.767051,59.0853953 140.490909,59.0853953 C140.214767,59.0853953 139.990909,58.8615377 139.990909,58.5853953 L139.990909,56.4974609 C139.990909,56.2213186 140.214767,55.9974609 140.490909,55.9974609 C140.767051,55.9974609 140.990909,56.2213186 140.990909,56.4974609 L140.990909,58.5853953 Z" id="Path-40-Copy-16" fill="#242424" fill-rule="nonzero"></path>
                    <path d="M145.9,59.5853953 C145.9,59.8615377 145.676142,60.0853953 145.4,60.0853953 C145.123858,60.0853953 144.9,59.8615377 144.9,59.5853953 L144.9,57.5615234 C144.9,57.2853811 145.123858,57.0615234 145.4,57.0615234 C145.676142,57.0615234 145.9,57.2853811 145.9,57.5615234 L145.9,59.5853953 Z" id="Path-40-Copy-17" fill="#242424" fill-rule="nonzero"></path>
                    <path d="M150.809091,60.5853953 C150.809091,60.8615377 150.585233,61.0853953 150.309091,61.0853953 C150.032949,61.0853953 149.809091,60.8615377 149.809091,60.5853953 L149.809091,59 C149.809091,58.7238576 150.032949,58.5 150.309091,58.5 C150.585233,58.5 150.809091,58.7238576 150.809091,59 L150.809091,60.5853953 Z" id="Path-40-Copy-18" fill="#242424" fill-rule="nonzero"></path>
                    <path d="M155.718182,61.5853953 C155.718182,61.8615377 155.494324,62.0853953 155.218182,62.0853953 C154.942039,62.0853953 154.718182,61.8615377 154.718182,61.5853953 L154.718182,60.1828613 C154.718182,59.906719 154.942039,59.6828613 155.218182,59.6828613 C155.494324,59.6828613 155.718182,59.906719 155.718182,60.1828613 L155.718182,61.5853953 Z" id="Path-40-Copy-19" fill="#242424" fill-rule="nonzero"></path>
                    <path d="M160.627256,63.5812848 C160.629526,63.8574178 160.407516,64.0831082 160.131383,64.0853784 C159.85525,64.0876486 159.62956,63.8656389 159.62729,63.5895058 L159.611997,61.7293547 C159.609726,61.4532216 159.831736,61.2275312 160.107869,61.225261 C160.384002,61.2229908 160.609693,61.4450006 160.611963,61.7211336 L160.627256,63.5812848 Z" id="Path-40-Copy-20" fill="#242424" fill-rule="nonzero"></path>
                    <path d="M166.518182,65.5853953 C166.518182,65.8615377 166.294324,66.0853953 166.018182,66.0853953 C165.742039,66.0853953 165.518182,65.8615377 165.518182,65.5853953 L165.518182,63.6037109 C165.518182,63.3275686 165.742039,63.1037109 166.018182,63.1037109 C166.294324,63.1037109 166.518182,63.3275686 166.518182,63.6037109 L166.518182,65.5853953 Z" id="Path-40-Copy-21" fill="#242424" fill-rule="nonzero"></path>
                    <path d="M60.4818182,63.5853953 C60.4818182,63.8615377 60.2579606,64.0853953 59.9818182,64.0853953 C59.7056758,64.0853953 59.4818182,63.8615377 59.4818182,63.5853953 L59.4818182,62 C59.4818182,61.7238576 59.7056758,61.5 59.9818182,61.5 C60.2579606,61.5 60.4818182,61.7238576 60.4818182,62 L60.4818182,63.5853953 Z" id="Path-40" fill="#242424" fill-rule="nonzero"></path>
                    <path d="M55.4818182,64.5853953 C55.4818182,64.8615377 55.2579606,65.0853953 54.9818182,65.0853953 C54.7056758,65.0853953 54.4818182,64.8615377 54.4818182,64.5853953 L54.4818182,63 C54.4818182,62.7238576 54.7056758,62.5 54.9818182,62.5 C55.2579606,62.5 55.4818182,62.7238576 55.4818182,63 L55.4818182,64.5853953 Z" id="Path-40-Copy-22" fill="#242424" fill-rule="nonzero"></path>
                </g>
            </g>
        </g>
    </g>
</svg>