<?xml version="1.0" encoding="UTF-8"?>
<svg width="228px" height="228px" viewBox="0 0 228 228" version="1.1" xmlns="http://www.w3.org/2000/svg" xmlns:xlink="http://www.w3.org/1999/xlink">
    <!-- Generator: Sketch 49.2 (51160) - http://www.bohemiancoding.com/sketch -->
    <title>腰围@1x</title>
    <desc>Created with Sketch.</desc>
    <defs></defs>
    <g id="Page-1" stroke="none" stroke-width="1" fill="none" fill-rule="evenodd">
        <g id="测量腰围" transform="translate(-74.000000, -160.000000)">
            <g id="腰围" transform="translate(74.000000, 160.000000)">
                <g transform="translate(3.000000, 18.000000)">
                    <polygon id="Rectangle" fill="#FFFFFF" opacity="0" points="0 0 220 0 220 210 0 210"></polygon>
                    <path d="M66.3189313,107.784748 C65.6150632,107.742609 64.795248,107.688647 63.8676312,107.621723 C61.2184331,107.430594 58.2358415,107.173976 54.9850035,106.842766 C45.6970304,105.896463 36.1187254,104.542511 26.7706746,102.707741 C18.7777971,101.138956 13.646407,98.42977 10.8783472,94.8660607 C8.68676709,92.044534 8.21261992,89.2014841 8.6284328,86.2571704 C8.64817648,86.1173681 8.74703998,85.5017765 8.74703998,85.4715728 C8.74703998,83.9892428 17.0294758,45.4282895 18.9682508,38.8155405 C19.811254,35.9402361 20.6580411,30.419055 21.4757322,23.0475707 C21.9144585,19.0924547 22.3172859,14.8538088 22.6752256,10.6150202 C22.8005138,9.13133317 22.9112371,7.7536584 23.0062794,6.51737477 C23.0395375,6.08476262 23.0684578,5.70075668 23.0929009,5.36977835 C23.1075556,5.17134133 23.1174691,5.03457348 23.1224591,4.96448857 C23.1420715,4.68904354 23.3812628,4.48165024 23.6567079,4.50126266 C23.9321529,4.52087508 24.1395462,4.7600664 24.1199338,5.03551143 C24.1148537,5.10685383 24.1049055,5.2441014 24.090185,5.44342869 C24.0656693,5.77539087 24.0366738,6.16039594 24.0033374,6.59402606 C23.9081097,7.83272037 23.7971869,9.21287816 23.6716791,10.6991646 C23.3130587,14.9460147 22.909438,19.1930074 22.4696361,23.1578208 C21.6453697,30.5885807 20.7930299,36.1459667 19.9278576,39.0968851 C18.0153857,45.61992 9.74703998,84.1152731 9.74703998,85.4715728 C9.74703998,85.5950515 9.62123749,86.3783837 9.61860718,86.3970085 C9.23721928,89.0975637 9.66737251,91.67682 11.6680982,94.2526331 C14.2713827,97.6042043 19.1891761,100.200619 26.9632728,101.726464 C36.2784413,103.554779 45.827038,104.904532 55.0863635,105.847916 C58.3270799,106.178095 61.2999101,106.433873 63.9395901,106.624315 C64.8630806,106.690942 65.6788328,106.744637 66.378691,106.786535 C66.7979696,106.811636 67.0850531,106.827209 67.2317866,106.83439 C67.3717497,106.841239 67.5024153,106.906508 67.5919569,107.014298 C67.6398616,107.071966 67.7711392,107.197674 68.0006189,107.37033 C68.4033364,107.673327 68.933814,107.980342 69.6073271,108.269907 C71.570675,109.114011 74.2858068,109.624714 77.8720449,109.624714 C78.0049276,109.624714 78.1323445,109.67761 78.2261578,109.771721 C78.2730537,109.818765 78.3642026,109.908704 78.4949962,110.035389 C78.7139873,110.247499 78.9634464,110.4841 79.2387489,110.739031 C80.0253523,111.46743 80.8602958,112.195772 81.7060843,112.874549 C82.4018599,113.432936 83.0751347,113.93324 83.7141929,114.360631 C84.6473333,114.984698 85.5545802,115.811596 86.6294261,116.955727 C86.9791087,117.32795 88.3691871,118.869842 88.6943157,119.209249 C89.3389401,119.882183 89.7864126,120.248758 90.0863542,120.349055 C90.1820512,120.381056 90.6462238,120.546599 90.7556186,120.584629 C91.0941464,120.702315 91.4074585,120.803723 91.7407145,120.900498 C95.2668704,121.924466 98.7315635,121.782073 102.055957,119.661447 C102.552577,119.344654 103.039031,118.985207 103.514696,118.581444 C103.60506,118.50474 103.719734,118.462632 103.838263,118.462632 C103.905379,118.462632 104.038044,118.459546 104.226762,118.450139 C104.544987,118.434276 104.900497,118.40565 105.28374,118.361075 C106.377267,118.233887 107.469815,118.005153 108.483915,117.651304 C110.180194,117.059422 111.474316,116.180073 112.223854,114.977007 C112.35349,114.768931 112.614866,114.685536 112.841057,114.780082 C113.956534,115.069525 114.853309,115.001712 115.694708,114.477366 C117.208317,113.534111 118.281022,111.270091 118.641825,107.288666 C118.667668,107.00349 118.927266,106.798228 119.210715,106.838849 C119.498267,106.859998 119.915421,106.71972 120.357569,106.225478 C120.686869,105.857379 120.978834,105.330175 121.215546,104.617784 C121.588335,103.49587 121.579906,102.582978 121.288896,101.276192 C121.242258,101.066764 121.231557,101.022327 121.098449,100.477561 C120.788765,99.2101294 120.66832,98.4975126 120.66832,97.5595693 C120.66832,96.6264044 120.09617,96.2947701 119.141183,96.587069 C118.036099,96.9253087 116.989165,97.9877745 116.606725,99.3305628 C116.572849,99.4495039 116.496096,99.5516704 116.391291,99.6173257 C116.297955,99.6757965 116.141781,99.7447978 115.917428,99.8071611 C114.96466,100.072002 113.54967,100.020139 111.603617,99.4623254 C111.149705,99.1179526 111.141662,98.8409916 111.283908,98.6425238 C111.373945,98.5169002 111.463138,98.467226 111.622024,98.4034532 C111.753679,98.3506101 111.908626,98.3021492 112.299783,98.1867951 C113.319173,97.8861724 113.813937,97.7266663 114.453793,97.4678835 C116.411205,96.6762298 117.344491,95.762104 117.036019,94.6790268 C116.743541,93.652106 116.091144,93.2616569 115.081559,93.3108897 C114.58578,93.3350665 114.039909,93.4686259 113.487131,93.6771888 C113.112693,93.8184643 112.820328,93.9590459 112.659798,94.0485122 C112.507954,94.1331378 112.323054,94.1328239 112.171498,94.0476832 C112.086307,93.9998253 111.914537,93.9073955 111.660054,93.7767508 C111.232722,93.5573704 110.730384,93.3124691 110.156913,93.048401 C108.515027,92.2923574 106.634841,91.535735 104.547387,90.8292996 C98.5825368,88.8106766 92.1583168,87.5996104 85.5228056,87.5996104 C81.131496,87.5996104 77.6284932,87.5291715 73.7927335,87.3925587 C65.6781039,87.1035513 66.8353661,87.133799 64.8855691,87.2365606 C63.7748437,87.2951 62.6872296,87.4086132 61.4875816,87.59376 C59.1825461,87.9495059 55.1747741,86.9078701 49.8741555,84.8166099 C48.6085854,84.3173028 47.290286,83.7654392 45.93241,83.1697657 C43.7058093,82.1929997 41.4804247,81.1468594 39.3612853,80.1007221 C38.6195415,79.7345518 37.9439475,79.3944798 37.3476698,79.0891882 C36.9894036,78.9057575 36.7368389,78.7744954 36.5782994,78.6900783 C36.3397119,78.5464716 36.0229722,78.243392 35.7214697,77.7408447 C34.8799306,76.3381589 34.6691361,74.1909934 35.4236204,71.1634813 C35.990022,68.8906866 38.4284538,62.2079739 42.1870134,52.4382977 C42.313217,52.1102548 42.4406187,51.7795004 42.5691791,51.4461296 C44.1550133,47.3338919 45.8540241,42.9860607 47.5530222,38.676852 C48.1476624,37.1686522 48.6998326,35.7729937 49.1953801,34.5241645 C49.3688315,34.0870498 49.5228191,33.6995025 49.6555738,33.365809 C49.790119,33.0277755 49.790119,33.0277755 49.8220932,32.9478292 C50.0118761,32.4696366 50.107065,32.2159632 50.209743,31.9291428 C50.5038608,31.1075554 50.7982491,30.1868957 51.07307,29.1897586 C51.9667331,25.9472649 52.4481505,22.682353 52.3017908,19.6495929 C52.2194136,17.9426316 51.9367421,16.3626489 51.4341667,14.9341674 C51.3425195,14.6736767 51.4793943,14.3882126 51.739885,14.2965654 C52.0003757,14.2049183 52.2858399,14.3417931 52.377487,14.6022838 C52.914205,16.1278095 53.2138125,17.8024558 53.3006283,19.6013895 C53.4527893,22.7543591 52.9566439,26.1191549 52.0371249,29.4554616 C51.755376,30.4777358 51.4534398,31.4220006 51.1512329,32.2661841 C51.0451973,32.5623835 50.9465807,32.8251914 50.8578686,33.0518372 C50.7191383,33.3978069 50.7191383,33.3978069 50.5847428,33.7354642 C50.4520954,34.0688881 50.2982165,34.4561615 50.1248758,34.8929974 C49.6295889,36.1411698 49.0776864,37.5361517 48.4833252,39.0436439 C46.7851766,43.3506982 45.0870407,47.6962905 43.5022047,51.8059396 C43.3737397,52.139063 43.2464341,52.4695681 43.1203272,52.7973594 C39.3845975,62.5076936 36.9453717,69.1925823 36.3939431,71.4052947 C35.6997627,74.1908265 35.8840586,76.0680759 36.5789821,77.2263814 C36.7919202,77.5813088 36.9896211,77.7704833 37.0691411,77.8192967 C37.1995092,77.8879571 37.4486672,78.0174486 37.803405,78.1990728 C38.3954672,78.5022061 39.066721,78.8400934 39.8039462,79.204033 C41.9104323,80.2439239 44.1225171,81.283812 46.3341359,82.2540057 C47.6810344,82.8448636 48.98788,83.3919325 50.2411567,83.8863894 C55.3710695,85.9103009 59.2712578,86.9239752 61.3350532,86.6054609 C62.5674513,86.4152596 63.6883869,86.2982687 64.8329384,86.2379466 C66.828749,86.1327599 65.6536114,86.1020449 73.8283265,86.3931923 C77.6528804,86.5294061 81.1442197,86.5996104 85.5228056,86.5996104 C92.2761257,86.5996104 98.8060345,87.8306006 104.867948,89.8820716 C106.989862,90.6001691 108.902453,91.369832 110.575173,92.1400736 C111.161813,92.4102054 111.67695,92.6613468 112.116759,92.8871329 C112.235649,92.9481677 112.337929,93.00158 112.423258,93.0468006 C112.655548,92.9350609 112.886452,92.8350147 113.134122,92.7415688 C113.776509,92.4991967 114.418927,92.3420148 115.032851,92.3120766 C116.476618,92.2416708 117.567558,92.8945808 117.997772,94.4051092 C118.170593,95.0119009 118.131612,95.5592304 117.909105,96.055441 C118.210344,95.873086 118.52614,95.7295263 118.848509,95.6308567 C120.398336,95.1564917 121.66832,95.892611 121.66832,97.5595693 C121.66832,98.3970069 121.777857,99.0450911 122.069871,100.240204 C122.205199,100.794057 122.216155,100.83955 122.264986,101.058825 C122.592091,102.527696 122.602141,103.616112 122.164529,104.933111 C121.886555,105.769681 121.528205,106.416758 121.102862,106.892215 C120.605782,107.447861 120.076497,107.724115 119.59529,107.809802 C119.168114,111.815788 117.981742,114.230411 116.223597,115.326057 C115.123947,116.01134 113.95895,116.099436 112.898358,115.840723 C111.953106,117.084059 110.559479,117.986206 108.813365,118.595477 C107.722925,118.975964 106.560609,119.219304 105.399271,119.354379 C104.993312,119.401596 104.615991,119.431979 104.276547,119.448899 C103.557801,119.845783 103.080767,120.193857 102.593753,120.504522 C98.9896333,122.803585 95.2391399,122.957723 91.4618427,121.860826 C91.1103306,121.75875 90.7810323,121.652167 90.4272549,121.52918 C90.3095643,121.488266 89.8536691,121.325675 89.7692239,121.297437 C89.262635,121.128039 88.7282054,120.690227 87.9721826,119.901003 C87.6340441,119.548015 86.2395385,118.001212 85.9005961,117.640421 C84.873192,116.546791 84.0159352,115.765455 83.1582761,115.191869 C82.4932274,114.747096 81.7971899,114.229877 81.080183,113.654452 C80.2143311,112.959572 79.3620863,112.216139 78.5593094,111.472763 C78.2783287,111.212573 78.0234652,110.970847 77.7992638,110.75369 C74.0498817,110.604714 71.2673989,110.072127 69.2123527,109.188599 C68.0916784,108.706786 67.371419,108.212363 66.9787273,107.822594 C66.8173502,107.813882 66.5966494,107.801374 66.3189313,107.784748 Z M114.828729,98.3949344 C114.382402,98.5754463 114.00658,98.709182 113.503804,98.8674178 C114.43915,99.0116191 115.146031,98.9836717 115.649612,98.843691 C115.674451,98.8367865 115.697011,98.8301194 115.717344,98.8237967 C115.85148,98.4259073 116.032435,98.0502685 116.250208,97.7045143 C115.835803,97.950917 115.359419,98.1803025 114.828729,98.3949344 Z" id="Stroke-1" fill="#242424" fill-rule="nonzero"></path>
                    <path d="M71.4817191,110.010906 C71.475696,109.734829 71.6946177,109.506142 71.9706944,109.500119 C72.246771,109.494096 72.4754581,109.713018 72.4814812,109.989094 C72.5777699,114.402603 72.3004784,118.3637 71.6094753,122.512635 C70.1670667,131.176646 68.4413429,139.058506 66.1204835,148.103365 C66.3439165,147.232602 61.0521841,167.082763 59.8644034,172.292801 C56.9328825,185.151519 55.9018199,195.963832 56.8164352,208.964912 C56.8358137,209.240374 56.6282173,209.479389 56.3527557,209.498767 C56.0772941,209.518146 55.838279,209.310549 55.8189005,209.035088 C54.8969116,195.929193 55.937216,185.019965 58.8894196,172.070525 C60.081962,166.8396 65.3795822,146.967353 65.1518626,147.854823 C67.4660688,138.835892 69.1858331,130.98125 70.6230573,122.34838 C71.3037298,118.261473 71.5766607,114.362667 71.4817191,110.010906 Z" id="Stroke-3" fill="#242424" fill-rule="nonzero"></path>
                    <path d="M148.500804,56.0283431 C148.485151,55.7526447 148.695959,55.5164574 148.971657,55.500804 C149.247355,55.4851505 149.483543,55.6959586 149.499196,55.9716569 C149.503583,56.0489149 149.512561,56.1994893 149.526284,56.4184884 C149.549192,56.7840444 149.577153,57.2082478 149.610321,57.6862061 C149.705124,59.0523574 149.8226,60.5748674 149.963972,62.2145784 C150.367833,66.8987952 150.881984,71.5827025 151.516002,75.9522921 C152.895388,85.4588795 154.652039,92.1417603 156.747874,94.6026381 C164.709484,103.950968 173.512071,122.686089 173.903677,135.692269 C173.95621,137.437017 174.00532,139.250401 174.058429,141.3689 C174.079286,142.200877 174.100099,143.052233 174.12634,144.14162 C174.131684,144.363498 174.178011,146.294023 174.191539,146.853384 C174.540929,161.299857 174.860656,166.957903 175.724873,169.85717 C177.358953,175.339161 176.404737,202.22919 173.863931,208.195894 C173.755742,208.44996 173.462076,208.568217 173.20801,208.460028 C172.953943,208.351839 172.835687,208.058172 172.943876,207.804106 C175.390293,202.059058 176.336026,175.408114 174.766542,170.14283 C173.863173,167.112219 173.545059,161.482703 173.191832,146.877562 C173.178301,146.318088 173.131972,144.387493 173.12663,144.1657 C173.100397,143.076612 173.079591,142.225558 173.058743,141.393962 C173.005673,139.277015 172.956607,137.465238 172.90413,135.722365 C172.520253,122.972875 163.812977,104.440611 155.986559,95.2510205 C153.716635,92.5857314 151.936215,85.8124244 150.526366,76.0958862 C149.889248,71.7049367 149.373069,67.0025523 148.967668,62.3004773 C148.825798,60.6549862 148.707896,59.1269514 148.61272,57.7554342 C148.579395,57.2752086 148.551287,56.8487793 148.528242,56.4810312 C148.514394,56.2600479 148.5053,56.1075233 148.500804,56.0283431 Z" id="Stroke-7" fill="#242424" fill-rule="nonzero"></path>
                    <path d="M184.974165,78.7284427 C184.192573,78.9056929 183.306662,79.1031705 182.333682,79.3158213 C179.553885,79.9233634 176.632977,80.5308999 173.708804,81.0980122 C171.893988,81.4499764 170.13264,81.7754851 168.443031,82.0691684 C160.461924,83.4564229 154.751768,84.0317226 152.16439,83.5031862 C151.968226,83.4631149 151.81488,83.3098889 151.774655,83.1137563 C151.324705,80.9198269 150.909345,78.5011322 150.527194,75.89446 C149.889927,71.5476313 149.373566,66.8925384 148.967966,62.2377577 C148.826027,60.6088215 148.708058,59.0961582 148.612821,57.738434 C148.579474,57.2630339 148.551346,56.8408875 148.528283,56.4768302 C148.514424,56.2580581 148.505322,56.1070538 148.500822,56.0286538 C148.47949,55.6570379 148.857177,55.3932423 149.198738,55.5411935 C149.256494,55.5662115 149.374053,55.6149883 149.548741,55.6841392 C149.842771,55.8005321 150.188605,55.9305407 150.583566,56.0707822 C151.715204,56.4726002 153.011403,56.8748413 154.450725,57.2504792 C160.119403,58.7299058 166.237748,59.3747037 172.428944,58.7138336 C171.880248,58.7724034 181.839531,57.6379408 183.622961,57.5201993 C186.420163,57.3355288 188.218202,57.5032137 190.007139,58.1640452 C190.948706,58.5118592 191.902555,59.0048497 193.008732,59.7061566 C197.054795,62.2713275 207.135636,70.5526197 209.209008,72.6182642 C210.529213,73.9335492 213.5,80.0379602 213.5,82.146789 C213.5,82.9716349 213.197122,83.5226544 212.534348,84.182959 C212.463091,84.25395 212.064306,84.6363498 211.951944,84.7501206 C210.945228,85.7694599 210.540525,86.8470897 210.735341,88.9820871 C210.907927,90.8734513 210.754179,92.0138425 210.290863,93.4645514 C210.310285,93.4037396 210.137231,93.9395261 210.095518,94.0753616 C209.715267,95.3136089 209.711307,96.2496434 210.255743,98.057668 C210.310258,98.2387065 210.257994,98.4350111 210.120677,98.564976 C210.081179,98.6023591 210.081179,98.6023591 209.902248,98.7722828 C209.728208,98.9377217 209.534249,99.122587 209.325359,99.3223012 C208.728609,99.8928372 208.131896,100.467927 207.575215,101.010857 C206.16188,102.391813 205.284356,103.29178 205.127815,103.525716 C204.877741,103.899542 204.512376,104.013753 203.616778,104.155026 C203.535971,104.167773 203.245635,104.212228 203.197566,104.219711 C203.027787,104.246142 202.891588,104.268564 202.758225,104.292505 C202.421369,104.352977 202.130542,104.418845 201.856597,104.500319 C200.810047,104.811571 200.079591,105.336273 199.633929,106.224275 C199.420634,106.649275 198.790423,106.56463 198.696831,106.098411 L197.775967,101.511255 C197.742973,101.346899 197.794538,101.176945 197.913294,101.058631 C198.112799,100.85987 198.460005,100.576851 198.930509,100.295601 C199.6338,99.8751992 200.392538,99.6024906 201.189115,99.5471323 C201.216309,99.5010543 201.246387,99.4513094 201.279295,99.3983476 C201.466578,99.096942 201.682645,98.795576 201.92634,98.512324 C202.213251,98.1788424 202.516938,97.894541 202.838771,97.6722434 C202.358433,97.5250322 201.846244,97.4200403 199.683504,96.9916776 C197.351259,96.5297419 196.268395,96.2519326 195.687396,95.8660435 C195.094792,95.4724469 194.630636,94.811838 194.260515,93.9608972 C194.060322,93.5006344 193.900008,93.0117054 193.77473,92.5233163 C193.718812,92.3053225 193.6783,92.122117 193.65176,91.9861118 L190.960251,88.4108086 C190.772907,88.1619475 190.856255,87.8042146 191.134301,87.6637851 C191.25853,87.601042 191.478729,87.4923074 191.769554,87.3528442 C190.199494,86.8629267 188.775703,85.4771185 188.559623,83.109656 C188.384125,81.1863811 187.863474,79.9266541 187.125495,79.1914257 C186.822502,78.8895621 186.504418,78.6994232 186.190654,78.5952249 C186.052668,78.5494011 185.944964,78.5283015 185.879571,78.5212273 C185.693502,78.5644214 185.387763,78.6346468 184.974165,78.7284427 Z M209.139577,93.7818036 C209.183786,93.6378419 209.359887,93.0926187 209.338266,93.1603182 C209.763087,91.8301416 209.899048,90.8216787 209.739479,89.0729588 C209.51736,86.6387585 210.030401,85.2726498 211.240446,84.0474329 C211.364744,83.921576 211.767487,83.5353806 211.828562,83.4745333 C212.320905,82.9840251 212.5,82.6582016 212.5,82.146789 C212.5,80.3278655 209.647681,74.4668826 208.503222,73.3266899 C206.478753,71.3097656 196.453558,63.0741864 192.473283,60.5507242 C191.422627,59.8846171 190.52978,59.423155 189.660626,59.1020903 C188.022883,58.4971098 186.357791,58.3418236 183.688838,58.5180271 C181.933147,58.6339373 172.016893,59.7634984 172.535085,59.7081847 C166.21194,60.3831396 159.97583,59.7259309 154.1982,58.2180697 C152.730259,57.8349626 151.406801,57.4242625 150.248957,57.0131393 C149.996099,56.9233552 149.762361,56.8374782 149.548381,56.7563256 C149.566536,57.0332902 149.587181,57.337886 149.610369,57.6684607 C149.705227,59.0207664 149.82276,60.5278507 149.964191,62.1509503 C150.36822,66.7877006 150.882512,71.4241387 151.516617,75.7494055 C151.876917,78.2070286 152.26664,80.4946849 152.686632,82.5800602 C155.257351,82.9666992 160.765751,82.3886187 168.271781,81.0839408 C169.954672,80.7914252 171.709697,80.467085 173.518412,80.116304 C176.43423,79.5508121 179.347596,78.9448442 182.120166,78.3388818 C183.090514,78.1268061 183.973884,77.9298948 184.753001,77.7532062 C185.220168,77.6472616 185.548559,77.5716508 185.720902,77.5314316 C186.367649,77.5183486 187.110705,77.7651108 187.83128,78.483 C188.748572,79.396873 189.359974,80.876171 189.555484,83.0187737 C189.809041,85.7968473 192.106128,86.8534663 193.99699,86.3639474 C194.600381,86.2077376 194.888379,87.0751631 194.31138,87.3108607 C194.090881,87.4010687 193.876309,87.4918994 193.655659,87.5880008 C193.169274,87.7998406 192.676053,88.0271742 192.201951,88.2545273 C192.183955,88.263157 192.957226,89.3380145 194.521764,91.4790997 C194.570064,91.5432598 194.602199,91.6181103 194.615449,91.6973179 C194.633954,91.8079358 194.675688,92.0109927 194.74337,92.2748488 C194.856366,92.7153589 195.000628,93.155329 195.177528,93.5620386 C195.477796,94.2523822 195.838733,94.7660853 196.240662,95.0330391 C196.656613,95.3093063 197.741059,95.5875214 199.877794,96.0107335 C202.42856,96.5159505 202.724449,96.5789119 203.362346,96.7898747 C203.659892,96.8882777 203.877713,96.9862479 204.033402,97.1055797 C204.343256,97.3430763 204.452353,97.7361884 204.172977,98.0661885 C204.113629,98.13629 204.036119,98.1886895 203.94895,98.2176375 C203.519823,98.3601468 203.089652,98.6934768 202.684394,99.1645155 C202.477055,99.40551 202.290412,99.6658365 202.128679,99.9261235 C202.032487,100.080931 201.967229,100.198922 201.936087,100.260973 C201.851259,100.429997 201.678325,100.536697 201.489209,100.536697 C200.784047,100.536697 200.091343,100.766738 199.443592,101.15394 C199.182918,101.309761 198.96933,101.464804 198.812516,101.593936 L199.448724,104.763117 C200.000543,104.187681 200.712137,103.797401 201.57153,103.541811 C201.885035,103.448572 202.21077,103.374798 202.581532,103.308239 C202.723628,103.282731 202.866959,103.259134 203.043742,103.231613 C203.093925,103.2238 203.382873,103.179558 203.460963,103.16724 C204.02241,103.078676 204.276976,102.999101 204.296684,102.969639 C204.51296,102.646434 205.370504,101.766959 206.756447,100.412656 C206.81671,100.353788 206.81671,100.353788 206.877006,100.294964 C207.43633,99.7494554 208.035336,99.1721554 208.634306,98.5994971 C208.843215,98.399765 209.037262,98.2148138 209.211521,98.0491637 C208.698059,96.2317022 208.723453,95.1368668 209.139577,93.7818036 Z" id="Stroke-9" fill="#242424" fill-rule="nonzero"></path>
                    <path d="M113.720857,11.4148242 C113.491756,11.2606576 113.431009,10.9499579 113.585176,10.7208568 C113.739342,10.4917558 114.050042,10.4310093 114.279143,10.5851758 C114.363848,10.6421752 114.516948,10.7504323 114.728703,10.908437 C115.078295,11.1692905 115.466958,11.4768162 115.884953,11.8295316 C117.077295,12.8356629 118.269078,14.0042697 119.382207,15.3240446 C123.831757,20.5996245 125.754799,26.6264321 123.679399,33.1515505 C123.5957,33.4147027 123.314521,33.5601783 123.051369,33.4764792 C122.788217,33.3927802 122.642741,33.1116017 122.72644,32.8484495 C124.68257,26.6983209 122.866222,21.0058929 118.617793,15.9687699 C117.543422,14.6949494 116.391455,13.565383 115.240047,12.5937939 C114.837729,12.2543071 114.464674,11.9591303 114.130672,11.7099096 C113.932271,11.5618698 113.792402,11.4629684 113.720857,11.4148242 Z" id="Stroke-11" fill="#242424" fill-rule="nonzero"></path>
                    <path d="M67.916313,138.920875 C76.8372771,146.313687 93.7926201,150.176108 124.048609,147.821585 C148.969392,145.882281 165.118274,138.719804 172.773299,129.120693 C172.945471,128.904796 172.910025,128.590204 172.694128,128.418033 C172.478231,128.245861 172.163639,128.281307 171.991468,128.497204 C164.527367,137.856902 148.635897,144.90521 123.971024,146.8246 C107.330211,148.119588 94.391062,147.460884 84.6084235,145.232402 C77.2064209,143.546229 72.1317692,141.11548 68.5543901,138.150902 C68.341768,137.974702 68.0265654,138.004228 67.8503653,138.21685 C67.6741652,138.429472 67.703691,138.744675 67.916313,138.920875 Z" id="Stroke-13" fill="#242424" fill-rule="nonzero"></path>
                    <path d="M135.928893,115.832495 C136.021403,115.57231 136.307319,115.436382 136.567505,115.528893 C136.82769,115.621403 136.963618,115.907319 136.871107,116.167505 C136.827891,116.289051 136.758815,116.5247 136.688633,116.848196 C136.449067,117.952446 136.412986,119.112863 136.705318,120.181702 C136.969197,121.146511 137.487192,121.964871 138.307822,122.605988 C138.525429,122.775993 138.564018,123.090215 138.394012,123.307822 C138.224007,123.525429 137.909785,123.564018 137.692178,123.394012 C136.695056,122.615011 136.059478,121.610885 135.740745,120.445517 C135.399713,119.19862 135.440578,117.884347 135.711367,116.636179 C135.791185,116.268269 135.872109,115.992199 135.928893,115.832495 Z" id="Stroke-15" fill="#242424" fill-rule="nonzero"></path>
                    <path d="M120.053468,106.5547 C120.328027,106.584229 120.526662,106.830741 120.497133,107.1053 C120.467604,107.379859 120.221091,107.578495 119.946532,107.548966 C117.069856,107.239573 112.010979,107.859224 111.462276,109.190529 C111.357049,109.445837 111.064779,109.567502 110.809471,109.462276 C110.554163,109.357049 110.432498,109.064779 110.537724,108.809471 C111.348206,106.843019 116.67158,106.190971 120.053468,106.5547 Z" id="Stroke-17" fill="#242424" fill-rule="nonzero"></path>
                    <path d="M113.104747,113.906157 C113.374762,113.964007 113.546755,114.229794 113.488905,114.499809 C113.431055,114.769824 113.165267,114.941817 112.895253,114.883967 C112.842664,114.872699 112.739117,114.852124 112.591192,114.825324 C112.34227,114.780225 112.062006,114.735029 111.757022,114.692807 C110.659819,114.540913 109.547681,114.467075 108.517397,114.513546 C107.105039,114.57725 105.994218,114.86461 105.305369,115.395916 C105.08671,115.564567 104.772734,115.524028 104.604084,115.305369 C104.435433,115.08671 104.475972,114.772734 104.694631,114.604084 C105.579841,113.921325 106.873452,113.586679 108.472338,113.514562 C109.571392,113.464989 110.741388,113.542668 111.894152,113.702254 C112.213419,113.746453 112.507327,113.793849 112.769467,113.841343 C112.928179,113.870098 113.04209,113.892733 113.104747,113.906157 Z" id="Stroke-19" fill="#242424" fill-rule="nonzero"></path>
                    <path d="M97.0906367,119.936161 C96.8190693,119.986218 96.5583409,119.806649 96.5082836,119.535081 C96.4582263,119.263514 96.6377958,119.002785 96.9093633,118.952728 C96.9879869,118.938236 97.1306544,118.913339 97.3260225,118.881507 C97.6504068,118.828655 98.0046547,118.775841 98.377502,118.726537 C99.022757,118.641212 99.6549668,118.575496 100.250015,118.537107 C101.531469,118.454434 102.525326,118.50213 103.169209,118.733695 C103.429058,118.827147 103.563949,119.113553 103.470498,119.373402 C103.377046,119.633251 103.09064,119.768143 102.830791,119.674691 C102.354679,119.503463 101.465308,119.460782 100.314396,119.535032 C99.7437937,119.571844 99.1331777,119.635316 98.5085956,119.717907 C98.1462186,119.765826 97.8017752,119.817179 97.4868341,119.868493 C97.298607,119.899161 97.1627113,119.922876 97.0906367,119.936161 Z" id="Stroke-21" fill="#242424" fill-rule="nonzero"></path>
                    <path d="M184.189946,64.8553375 C184.269841,64.5910055 184.548892,64.4414897 184.813224,64.5213845 C185.077556,64.6012794 185.227072,64.8803304 185.147177,65.1446625 C185.128354,65.2069369 185.093771,65.3305387 185.048644,65.5078062 C184.972608,65.8064914 184.896386,66.1436913 184.825174,66.5116862 C184.550111,67.9330885 184.427602,69.3805454 184.542006,70.719868 C184.681777,72.3561639 185.167021,73.6770548 186.050919,74.5868597 C188.163334,76.7611913 188.747936,78.5892314 188.427888,79.9303871 C188.398059,80.0553845 188.36511,80.1489007 188.336898,80.2098965 C188.220975,80.4605288 187.923824,80.5697326 187.673192,80.4538099 C187.422559,80.3378873 187.313356,80.0407358 187.429278,79.7901035 C187.430294,79.7879065 187.441187,79.7569903 187.4552,79.6982688 C187.536717,79.356676 187.522525,78.887019 187.331732,78.2904133 C187.046073,77.397162 186.409799,76.3913482 185.333673,75.2836807 C184.266863,74.1856015 183.703383,72.6517456 183.545634,70.8049771 C183.42231,69.3612195 183.552219,67.8263275 183.843388,66.3216959 C183.918423,65.9339467 183.998895,65.5779423 184.079553,65.2611042 C184.128442,65.0690577 184.166983,64.9313089 184.189946,64.8553375 Z" id="Stroke-23" fill="#242424" fill-rule="nonzero"></path>
                    <path d="M196.052629,69.1185503 C195.987156,68.8502821 196.151553,68.5797309 196.419822,68.5142574 C196.68809,68.4487839 196.958641,68.6131815 197.024114,68.8814497 C197.039932,68.9462619 197.066507,69.0637874 197.100226,69.2275308 C197.155866,69.4977266 197.21138,69.8010091 197.263143,70.1309295 C197.457634,71.3705514 197.547997,72.632137 197.47563,73.818195 C197.420139,74.7276508 197.269631,75.5498995 197.007898,76.2648429 C196.958369,76.4001328 196.91454,76.5373628 196.876223,76.6766381 C196.54742,77.8717741 196.61332,79.0090015 196.971147,80.8039635 C197.325456,82.5812861 197.353725,82.7665568 197.26207,83.3121008 C197.250306,83.3822583 197.238464,83.4607149 197.224437,83.5601775 C197.218931,83.5992206 197.174691,83.9228776 197.159822,84.0262524 C197.131402,84.2238325 197.104088,84.3936719 197.072677,84.5618469 C196.991536,84.9962785 196.888249,85.3865157 196.745897,85.7613248 C196.296773,86.943852 195.494332,87.8575286 194.210537,88.453513 C193.960069,88.5697895 193.662764,88.4610057 193.546487,88.2105374 C193.43021,87.9600691 193.538994,87.6627636 193.789463,87.546487 C194.826496,87.0650583 195.451193,86.353765 195.811051,85.4062705 C196.021137,84.8531215 196.06634,84.6111017 196.234235,83.420538 C196.249372,83.3131995 196.26242,83.2267515 196.275866,83.1465701 C196.336473,82.7858272 196.30358,82.570254 195.990444,80.9994669 C195.604329,79.0626031 195.530963,77.7965418 195.912047,76.4113761 C195.957607,76.2457729 196.009802,76.0823491 196.068846,75.9210658 C196.293986,75.3060802 196.427487,74.5767452 196.477486,73.7572933 C196.544869,72.6529182 196.459417,71.4598819 196.275229,70.285929 C196.226011,69.9722295 196.173331,69.6844325 196.120777,69.4292243 C196.089579,69.2777252 196.065663,69.171954 196.052629,69.1185503 Z" id="Stroke-25" fill="#242424" fill-rule="nonzero"></path>
                    <path d="M193.569217,87.4362472 C193.429035,87.1983324 193.508262,86.8918239 193.746177,86.7516412 C193.984092,86.6114585 194.2906,86.690686 194.430783,86.9286007 C195.074332,88.0208174 195.897138,88.7628382 196.89045,88.9465395 C201.342927,89.7699725 207.200744,89.7699725 207.48978,88.4336257 C207.577944,88.0260026 207.711702,87.56858 207.905952,86.988998 C207.981832,86.762594 208.064133,86.5253414 208.176629,86.2067928 C208.181668,86.1925241 208.399935,85.5766764 208.463595,85.3953173 C208.752785,84.5714554 208.945588,83.9779809 209.105968,83.3916714 C209.471558,82.0551621 209.591305,80.9804422 209.430576,80.0886911 C209.381593,79.8169278 209.562192,79.5569117 209.833955,79.507929 C210.105719,79.4589462 210.365735,79.6395456 210.414718,79.9113089 C210.606851,80.9772904 210.471946,82.1880476 210.070532,83.6555196 C209.902643,84.2692788 209.703487,84.8823098 209.407154,85.7265226 C208.575718,88.0951702 208.605012,88.0077657 208.46718,88.645026 C207.97855,90.9041848 201.976951,90.9041848 196.708596,89.929865 C195.376609,89.6835297 194.345402,88.7535699 193.569217,87.4362472 Z" id="Stroke-27" fill="#242424" fill-rule="nonzero"></path>
                    <path d="M193.578813,87.9378989 C193.61311,87.6638947 193.863038,87.469574 194.137043,87.5038715 C194.411047,87.538169 194.605367,87.7880969 194.57107,88.0621011 C194.562643,88.1294277 194.5494,88.2572621 194.535994,88.4313044 C194.49364,88.9811533 194.484498,89.5562797 194.5288,90.0871697 C194.608004,91.0363145 194.849711,91.6287846 195.169629,91.7352776 C195.697168,91.9108834 198.618602,93.8558388 199.233979,94.2124203 C201.09742,95.2921958 202.930729,96.0308595 204.937099,96.3951546 C207.293013,96.822916 207.930911,96.1667185 208.404871,93.8632173 C208.433273,93.7242363 208.433273,93.7242363 208.461602,93.5840613 C208.776298,92.0288384 209.015101,91.3871699 209.700263,90.8740016 C209.921286,90.7084615 210.234657,90.7534391 210.400197,90.9744619 C210.565737,91.1954847 210.52076,91.5088559 210.299737,91.674396 C209.892021,91.9797644 209.704582,92.4834177 209.441737,93.7823897 C209.413399,93.9226166 209.413399,93.9226166 209.384352,94.0647516 C208.814119,96.8361541 207.757072,97.9235247 204.758451,97.3790676 C202.626744,96.9920153 200.688911,96.2112372 198.732615,95.0776571 C198.004222,94.6555878 195.232052,92.8100051 194.853791,92.6840908 C194.015238,92.4049559 193.642495,91.4912945 193.532264,90.1703282 C193.482888,89.5786358 193.492829,88.9532226 193.538948,88.3545033 C193.553644,88.1637063 193.568505,88.02025 193.578813,87.9378989 Z" id="Stroke-29" fill="#242424" fill-rule="nonzero"></path>
                    <path d="M126.555556,204.402439 L126.759547,204.358934 L126.829973,204.280236 C126.73859,204.322415 126.647119,204.363154 126.555556,204.402439 Z M126.887875,204.44104 C126.769226,204.734361 126.620657,205.059672 126.439834,205.409027 C125.925048,206.40361 125.253472,207.397195 124.405783,208.325259 C124.069085,208.693882 123.710038,209.045426 123.327947,209.377427 C123.1195,209.558547 122.803693,209.536394 122.622573,209.327947 C122.441453,209.1195 122.463606,208.803693 122.672053,208.622573 C123.024655,208.316196 123.356247,207.991534 123.667427,207.650848 C124.452391,206.791456 125.075276,205.869909 125.551743,204.94936 C125.717859,204.628419 125.853547,204.331312 125.960845,204.066053 C126.023813,203.910386 126.062602,203.802421 126.0793,203.750186 C126.122629,203.614651 126.221653,203.503997 126.555556,203.402439 L126.351564,203.445944 C128.64282,202.422064 131.135752,200.128532 133.675177,196.951153 C134.933024,195.37731 136.120466,193.688958 137.20006,192.000446 C137.577936,191.409438 137.915196,190.860856 138.207253,190.368936 C138.381868,190.074826 138.502187,189.865734 138.563645,189.75588 C138.698469,189.514888 139.003128,189.428822 139.24412,189.563645 C139.485112,189.698469 139.571178,190.003128 139.436355,190.24412 C139.370829,190.361245 139.24625,190.577738 139.067124,190.879447 C138.769611,191.380558 138.426599,191.938496 138.04257,192.539126 C136.945294,194.255293 135.738178,195.97162 134.456343,197.575477 C131.964158,200.693747 129.50351,203.001022 126.977236,204.210984 C126.953473,204.275278 126.923778,204.352283 126.887875,204.44104 Z" id="Stroke-31" fill="#242424" fill-rule="nonzero"></path>
                    <path d="M151.396081,78.501976 C151.671132,78.4774502 151.913987,78.6805412 151.938513,78.9555923 C151.963039,79.2306434 151.759948,79.4734983 151.484897,79.498024 C145.736731,80.0105756 124.467285,86.6781624 116.013744,89.9398554 C115.245919,90.2361111 114.393447,90.4887504 113.470422,90.7016666 C112.054514,91.0282769 110.542224,91.2475211 109.03064,91.3803038 C108.502065,91.4267356 108.011045,91.4590791 107.569885,91.4798291 C107.303838,91.4923428 107.112496,91.4982193 107.008213,91.4999325 C106.732108,91.5044687 106.504604,91.2843186 106.500067,91.0082135 C106.495531,90.7321084 106.715681,90.5046036 106.991787,90.5000675 C107.086193,90.4985165 107.267392,90.4929514 107.522902,90.4809335 C107.951006,90.4607975 108.428592,90.4293389 108.943133,90.3841399 C110.411879,90.2551202 111.879918,90.0422913 113.245652,89.7272547 C114.125272,89.5243509 114.933237,89.2849016 115.653772,89.0068923 C124.197905,85.7102456 145.520984,79.0258457 151.396081,78.501976 Z M152.980241,86.2429031 C152.974641,86.2429031 152.969063,86.242811 152.963507,86.2426283 C152.969258,86.2434514 152.974048,86.2432123 152.980241,86.2429031 Z M152.767511,85.3081051 C152.771196,85.3067537 152.774283,85.3055718 152.776751,85.304568 C152.776589,85.3015195 152.776464,85.2991817 152.773837,85.2998132 L152.767511,85.3081051 Z M152.980241,85.2429031 C153.028528,85.2420651 153.028528,85.2420651 153.152691,85.2694563 C153.476917,85.4406069 153.476917,85.4406069 153.422535,86.0155834 C153.206026,86.2213645 153.206026,86.2213645 153.153468,86.2308963 C153.094146,86.2550214 153.008829,86.2828857 152.885592,86.3195851 C152.672724,86.3829765 152.3367,86.4752197 151.860491,86.6014339 C151.104928,86.8016884 150.458012,86.968605 147.958128,87.6104798 C142.645023,88.974682 139.417062,89.8179344 135.750135,90.8177417 C134.380784,91.1911026 133.079873,91.552305 131.847492,91.9019049 C126.796958,93.3346329 123.023033,94.5362157 120.78219,95.462107 C120.526975,95.5675589 120.234597,95.4461521 120.129145,95.1909374 C120.023693,94.9357228 120.1451,94.6433448 120.400315,94.537893 C122.68718,93.5929861 126.488596,92.3826503 131.574582,90.9398653 C132.810407,90.5892883 134.114576,90.2271813 135.487082,89.8529603 C139.160142,88.8514808 142.391771,88.0072702 147.709433,86.6418979 C150.205696,86.000953 150.852456,85.8340765 151.604297,85.6348086 C152.071302,85.5110337 152.399635,85.4209017 152.600183,85.3611793 C152.636707,85.3503028 152.668541,85.3405463 152.69499,85.3322004 C152.775891,85.2759063 152.874212,85.2429031 152.980241,85.2429031 Z" id="Stroke-35" fill="#242424" fill-rule="nonzero"></path>
                    <path d="M147.847,86.8803785 L119,94.316738 C120.311333,93.887362 121.1,94.5167831 121.1,95.8936697 C121.1,95.9297139 121.1014,95.9644064 121.101867,96 C126.549733,95.5733273 144.731067,93.8900653 161.933333,89.3606668 C182.466667,83.9540437 189,83.0529399 189,83.0529399 C189,81.8414057 188.5016,80.6519486 188.174467,80 C175.304267,82.5888714 147.847,86.8803785 147.847,86.8803785" id="Fill-37" fill="#FFFFFF"></path>
                    <path d="M121.624973,96.273198 C121.574902,96.1966222 121.545179,96.105267 121.543893,96.0065107 C121.662847,96.2000497 121.736579,96.3200111 121.781471,96.3911369 L121.624973,96.273198 Z M121.407536,96.3074525 C121.073952,96.1964111 120.682766,96.0708229 120.300608,95.953128 C119.212141,95.6179073 118.196757,95.3666977 118.156543,95.3799546 L118,94.9050923 L117.8714,94.4219131 L148.066627,86.3853624 C148.208,86.3603788 148.208,86.3603788 148.638643,86.2922995 C149.063681,86.2250236 149.556749,86.1467291 150.112177,86.0582299 C151.699199,85.8053614 153.46763,85.5214391 155.372106,85.2129744 C160.813357,84.3316643 166.25456,83.4303039 171.332691,82.5610082 C172.47739,82.3650539 173.592562,82.1725943 174.67561,81.9840024 C180.171148,81.0270608 184.720123,80.1908378 188.082207,79.5099486 C188.303872,79.465057 188.52807,79.5745516 188.628954,79.77697 C189.151565,80.82557 189.5,81.9496834 189.5,83.0476876 C189.5,83.297257 189.315968,83.5086093 189.068771,83.5429356 C189.021967,83.5494349 188.920857,83.5646855 188.761842,83.5904469 C188.49401,83.633837 188.161044,83.6912596 187.759337,83.764473 C186.60804,83.974304 185.138412,84.2684123 183.321596,84.6608578 C178.124016,85.7835725 171.19068,87.4684297 162.290486,89.8278693 C148.724458,93.4241226 133.949452,95.562775 122.083154,96.4984528 C121.993625,96.5055124 121.908036,96.4885978 121.832469,96.4532565 C121.664563,96.3938382 121.545358,96.3533302 121.407536,96.3074525 Z M120.129191,94.855808 C120.276736,94.899984 120.431894,94.9472105 120.594941,94.997425 C120.984494,95.1173975 121.382826,95.2452799 121.723371,95.3586386 C121.865695,95.4060146 121.989565,95.4481081 122.079472,95.479575 C133.909045,94.5567098 148.578972,92.4281494 162.03424,88.8612574 C170.948687,86.4980397 177.896886,84.8095708 183.110458,83.6834015 C184.937545,83.2887375 186.417743,82.9925139 187.580035,82.780679 C187.929194,82.7170426 188.228104,82.6649997 188.479035,82.6234504 C188.413804,81.9480755 188.200459,81.245047 187.896919,80.5674168 C184.565374,81.2360007 180.144884,82.0466818 174.84716,82.9691779 C173.763147,83.1579378 172.647037,83.3505592 171.501421,83.5466706 C166.420001,84.4165291 160.975972,85.3183579 155.53199,86.2001101 C153.626635,86.5087173 151.857365,86.7927744 150.269527,87.0457727 C149.713755,87.1343268 149.220349,87.212675 148.794978,87.2800035 C148.408183,87.3411512 148.368427,87.347436 148.298671,87.3584159 L120.129191,94.855808 Z M118.1286,95.3882715 C117.502878,95.5548093 117.228505,94.6329555 117.843457,94.4302301 C118.165586,94.3240367 118.870263,94.4788757 120.129191,94.855808 L118.1286,95.3882715 Z" id="Stroke-39" fill="#242424" fill-rule="nonzero"></path>
                    <path d="M201,98.0732793 C197.819767,97.143397 196.206874,96.3902808 195.496179,96 C194.156595,101.069463 192.94251,106.983217 192.94251,111.778693 C192.94251,122.477688 192.4777,127.129425 192.4777,127.129425 C192.4777,127.129425 191.548079,145.736374 192.94251,148.99259 C194.336942,152.248806 188.759216,170.390581 192.94251,182.950272 C192.94251,182.950272 187.829595,197.835831 191.083268,209 L195.731373,209 C195.731373,209 195.731373,188.067183 198.055426,184.345793 C198.055426,184.345793 194.336942,176.43784 198.985047,150.853285 C198.985047,150.853285 197.125805,128.524946 198.985047,116.895603 C198.985047,116.895603 197.666844,109.490503 201,98.0732793" id="Fill-41" fill="#FFFFFF"></path>
                    <path d="M190.858466,171.847451 C190.830733,168.081984 191.13419,164.357202 191.768509,159.273263 C192.86319,150.499604 192.89502,150.151826 192.482882,149.18942 C191.883623,147.790055 191.652431,143.955081 191.67565,138.30062 C191.685338,135.941397 191.740424,133.41613 191.82621,130.877328 C191.859465,129.893153 191.895097,128.975171 191.930734,128.148101 C191.943211,127.858525 191.954799,127.600959 191.965202,127.378494 C191.994243,126.938943 192.019271,126.647321 192.051626,126.199397 C192.105785,125.44961 192.160002,124.532617 192.210644,123.44297 C192.355532,120.325448 192.44251,116.451886 192.44251,111.778693 C192.44251,107.485295 193.498814,101.45553 195.13671,95.2571493 C195.207258,94.9901707 195.480877,94.8309321 195.747856,94.9014801 C196.014834,94.9720281 196.174073,95.2456474 196.103525,95.5126261 C194.485822,101.634589 193.44251,107.590193 193.44251,111.778693 C193.44251,116.46712 193.355185,120.356144 193.209566,123.489395 C193.15853,124.587517 193.103808,125.513048 193.049027,126.271442 C193.016018,126.728426 192.990207,127.029174 192.977077,127.154375 C192.967646,127.343137 192.951099,127.696984 192.929807,128.191148 C192.894298,129.015241 192.858786,129.930152 192.82564,130.911099 C192.740163,133.440743 192.685284,135.956505 192.675642,138.304726 C192.653202,143.769391 192.883157,147.583858 193.402138,148.79576 C193.930613,150.029832 193.933523,149.998046 192.760815,159.397072 C192.131483,164.441044 191.831099,168.128094 191.858439,171.840086 C191.889246,176.022873 192.377022,179.670229 193.416889,182.792269 C193.393556,183.176273 193.351586,183.302745 193.292358,183.488134 C193.193025,183.799055 193.08217,184.160957 192.962667,184.569859 C192.620676,185.740047 192.278483,187.050627 191.959049,188.469665 C190.92568,193.060239 190.365658,197.682756 190.526868,201.985065 C190.614877,204.33379 190.919498,206.51601 191.461646,208.5 L195.233162,208.5 C195.23415,208.321582 195.235538,208.125266 195.237394,207.912126 C195.244912,207.048368 195.258442,206.086052 195.279488,205.049768 C195.339631,202.088457 195.447895,199.126922 195.616396,196.361337 C195.986236,190.291234 196.579302,186.069582 197.498878,184.313187 C197.316518,183.843837 197.087005,183.056983 196.860815,181.912089 C195.611787,175.58995 195.821025,165.498107 198.48134,150.828696 C198.474344,150.742718 198.464122,150.614407 198.451041,150.44593 C198.422716,150.081135 198.391165,149.657906 198.357196,149.18102 C198.260179,147.819019 198.163175,146.299727 198.072643,144.661326 C197.805156,139.82049 197.648592,134.970222 197.659215,130.441681 C197.672028,124.978681 197.929443,120.371167 198.48021,116.886536 C198.458882,116.704024 198.430869,116.407533 198.403079,116.00368 C198.055113,110.946971 198.602001,104.379411 200.76027,96.9865876 C200.943811,96.3578944 201.885982,96.6148954 201.72487,97.2497068 L201.484635,98.1962771 C201.469651,98.2553187 201.444735,98.3092148 201.412124,98.3566335 C199.545809,105.182116 199.07747,111.237504 199.40072,115.935029 C199.431205,116.378045 199.461398,116.680246 199.480933,116.831598 C198.930165,120.406038 198.672,124.992056 198.659212,130.444027 C198.64864,134.951108 198.804611,139.783022 199.07112,144.606154 C199.161348,146.239044 199.258015,147.753073 199.354669,149.109969 C199.388484,149.584697 199.419877,150.005807 199.44804,150.368518 C199.464913,150.585827 199.476942,150.735179 199.483322,150.811794 C196.826507,165.531729 196.617397,175.520512 197.841853,181.718271 C197.992156,182.479055 198.152338,183.101785 198.311323,183.595433 C198.40386,183.882759 198.473065,184.058951 198.507899,184.13303 C198.580168,184.286723 198.56948,184.466592 198.479518,184.610643 C197.614316,185.996048 196.988706,190.281133 196.614545,196.422152 C196.446961,199.172679 196.339171,202.121264 196.279282,205.070073 C196.258318,206.102331 196.244841,207.060803 196.237356,207.92083 C196.234737,208.221705 196.233054,208.488734 196.232119,208.718838 C196.231373,209.276142 196.007515,209.5 195.731373,209.5 L191.083268,209.5 C190.861007,209.5 190.665427,209.353283 190.603239,209.139899 C189.972754,206.976548 189.623846,204.591902 189.527569,202.022509 C189.362699,197.622519 189.932633,192.918191 190.983461,188.250054 C191.307701,186.809672 191.655159,185.478924 192.002819,184.289341 C192.124694,183.872323 192.237976,183.502495 192.33979,183.183807 C192.36913,183.091973 192.394544,183.0136 192.415721,182.949118 C191.374909,179.752112 190.889472,176.057137 190.858466,171.847451 Z" id="Stroke-43" fill="#242424" fill-rule="nonzero"></path>
                    <path d="M199.485049,83.7882794 C200.429865,83.2635317 201.599428,82.9507749 203,82.9507749 C203.276142,82.9507749 203.5,83.1746326 203.5,83.4507749 C203.5,83.7269173 203.276142,83.9507749 203,83.9507749 C201.772098,83.9507749 200.769147,84.2189775 199.970586,84.6624955 C199.505263,84.9209345 199.216563,85.1710698 199.093164,85.3195638 C198.794058,85.6794955 198.208614,85.4679904 198.208614,85 C198.208614,84.6995557 197.602305,84.0582297 196.705342,83.4039517 C196.482246,83.2412168 196.433313,82.9284388 196.596048,82.7053425 C196.758783,82.4822461 197.071561,82.4333135 197.294658,82.5960483 C198.04222,83.1413487 198.608024,83.6491576 198.924049,84.1426652 C199.084639,84.0267438 199.271382,83.9069495 199.485049,83.7882794 Z" id="Stroke-45" fill="#242424" fill-rule="nonzero"></path>
                    <path d="M198.022863,79.989567 C199.086943,81.3303414 199.386886,82.7372877 199.266257,83.9148953 C199.258021,83.9952951 199.249211,84.0551368 199.242161,84.0925638 C199.191039,84.3639329 198.929609,84.5424788 198.65824,84.4913572 C198.38687,84.4402356 198.208325,84.1788053 198.259446,83.9074362 C198.261423,83.89694 198.266156,83.8647921 198.271462,83.8129927 C198.367617,82.8743097 198.122268,81.7234469 197.239566,80.6112154 C196.89755,80.1802637 196.470379,79.7772824 195.949462,79.407844 C195.551993,79.1259559 195.751428,78.5 196.238708,78.5 C197.049549,78.5 200.081849,76.409261 201.56346,73.7562117 C201.6981,73.5151173 202.002694,73.4288193 202.243788,73.5634599 C202.484883,73.6981005 202.571181,74.0026939 202.43654,74.2437883 C201.145,76.5564877 198.807471,78.4748909 197.278233,79.1947557 C197.55554,79.4477341 197.803414,79.7130548 198.022863,79.989567 Z" id="Stroke-47" fill="#242424" fill-rule="nonzero"></path>
                    <path d="M63.0991211,61.5444336 C63.3975016,61.5115457 63.5401375,63.4356689 63.9909668,63.4356689 C65.9334851,63.4356689 69.5429765,63.1799028 72.6676301,63.9902181 C73.862958,64.3002021 75.1187322,64.6583295 76.4529115,65.0650332 C77.8964155,65.5050627 79.0169655,65.8681259 81.0980834,66.5579379 C84.9836714,67.8465255 89.14206,68.5 93.4590954,68.5 C102.051042,68.5 110.685113,65.8867595 115.94339,62.4240556 C116.612941,61.983005 117.254998,61.4215664 118.078782,60.5885426 C118.310556,60.3541698 118.493015,60.1650208 118.92189,59.7168747 C121.912731,56.5890149 123.488165,55.4969229 126.152444,55.4969229 C127.652278,55.4969229 129.253557,55.9640617 131.044765,56.9142878 C133.148415,58.0303615 135.146651,58.7078456 137.302657,59.0818649 C139.287413,59.426176 140.875272,59.5011461 144.744881,59.5258156 C145.805962,59.5325802 146.297599,59.5366957 146.884085,59.5455152 C146.986432,59.5135182 147.097441,59.5182449 147.230224,59.5378205 C147.311137,59.5497489 147.365791,59.5622802 147.522677,59.601365 C148.759913,58.3531178 149.596485,57.137883 150.116253,55.9786402 C158.748781,45.9847326 160.624516,35.4734388 156.150884,24.41906 C153.335728,17.4639556 149.189033,12.4895236 142.446529,6.18155093 C141.268821,5.07978512 140.929904,4.75004015 140.766761,4.5006156 C140.625514,4.50422115 139.820907,4.52418763 137.806604,4.57417488 C135.654127,4.6276266 135.563299,4.62988211 134.901654,4.64631582 C135.757255,5.38831129 137.057847,6.69010649 138.26624,8.22420297 C140.359968,10.882262 141.486159,13.391416 141.154115,15.5828106 C140.868032,17.4704057 139.462114,18.9498457 137.042928,19.9798411 C130.564938,22.7367382 126.376749,28.5645895 124.054789,34.9288481 L123.606235,36.1582874 L123.120751,34.9429579 C120.568313,28.5533569 116.093413,24.0207946 109.885324,20.8151965 C105.366592,18.4819116 101.371688,17.2974806 93.5248395,15.5360294 C92.074735,15.2102864 91.4713553,15.0727126 90.7374521,14.8972624 C88.4121835,14.3413732 86.8890266,13.8784993 85.7474702,13.3354886 C82.8999401,11.9811267 80.3665009,10.3494762 78.1757231,8.5951295 C76.8626329,7.54362379 75.9267113,6.65900624 75.4447332,6.13649232 C75.1512519,6.14397491 71.6044179,6.23293911 71.1002297,6.24559146 C67.863438,6.32682358 67.8180919,6.32796161 66.7689191,6.35429622 C69.5166416,22.7663841 72.015625,50.1650391 60.2202148,52.3798828 C59.0675039,52.5963293 60.1297834,53.7518454 60.9379883,55.7404785 C61.3359673,56.7197279 62.0563449,58.6543796 63.0991211,61.5444336 Z" id="Fill-49-Copy" fill="#F9E5CB" fill-rule="nonzero"></path>
                    <path d="M60.1266212,52.8599038 L59.8733788,51.8925009 C68.1246099,49.7325309 70.3229367,33.6120096 65.7765534,6.48304185 C65.7300913,6.20829422 65.8039238,5.9265657 65.9800265,5.70936751 C66.1571435,5.49209638 66.4192544,5.36257754 66.6987846,5.35574176 C67.7923564,5.32829261 67.7923564,5.32829261 71.0735892,5.24594518 C72.715501,5.20474382 72.715501,5.20474382 74.0827278,5.17044531 C75.1747425,5.14303336 75.1747425,5.14303336 75.4640403,5.13599131 C75.7327559,5.13599131 75.9897376,5.24976693 76.1696556,5.44748599 C76.2774476,5.56488394 76.5121179,5.80346054 76.8455828,6.11926949 C77.3994809,6.64384047 78.0525272,7.2153591 78.8007927,7.81456049 C80.9342282,9.52298821 83.4033382,11.1132078 86.1770069,12.4324392 C87.2381119,12.9371811 88.7087162,13.3840847 90.9699647,13.924669 C91.6978385,14.0986778 92.298521,14.2356366 93.7439398,14.5603271 C101.671826,16.3399696 105.725649,17.5418694 110.344128,19.9266589 C116.377875,23.042234 120.849546,27.39553 123.562116,33.4236475 C126.043923,27.285003 130.263042,21.7784262 136.651265,19.0597323 C138.778575,18.1540062 139.937901,16.9340538 140.165403,15.4329805 C140.444643,13.5900777 139.417756,11.3021719 137.480677,8.84298396 C136.786349,7.9615111 136.023173,7.12029001 135.247219,6.34851734 C134.77712,5.88095175 134.380673,5.51644693 134.186196,5.34982954 C133.884318,5.09029792 133.772291,4.67131178 133.903181,4.29558636 C134.034827,3.91672617 134.386047,3.65864395 134.785975,3.64888064 C135.534467,3.6302898 135.534467,3.6302898 137.7804,3.5745173 C140.025193,3.51875887 140.781146,3.5 140.789993,3.5 C141.12054,3.5 141.427556,3.67063458 141.601864,3.9504934 C141.685431,4.08361642 142.087224,4.47603877 143.129706,5.45129819 C149.972089,11.8527126 154.192646,16.9157515 157.077842,24.0438949 C161.685815,35.4302305 159.754629,46.3196106 150.998053,56.4555216 C150.406387,57.7496663 149.470261,59.0832739 148.192006,60.4595665 C148.02148,60.6431715 147.841327,60.6663659 147.611511,60.6393368 C147.521672,60.6287706 147.440453,60.6113073 147.300664,60.5766131 C147.264428,60.5675907 147.165489,60.5578811 147.003847,60.5474844 C146.357385,60.537247 145.877035,60.5330537 144.738506,60.5257953 C140.813423,60.5007721 139.189288,60.4240892 137.131732,60.067149 C134.872667,59.6752512 132.773873,58.9636739 130.576114,57.7976713 C128.919453,56.9188218 127.47325,56.4969229 126.152444,56.4969229 C123.858918,56.4969229 122.451466,57.4725691 119.644505,60.4081252 C119.211645,60.8604358 119.026764,61.0520944 118.789821,61.291695 C117.92135,62.1699078 117.232102,62.7726117 116.493433,63.2591925 C111.072606,66.8289388 102.247498,69.5 93.4590954,69.5 C89.036484,69.5 84.7718206,68.8298248 80.7833818,67.5071285 C78.7096402,66.8197616 77.5948864,66.4585763 76.1613241,66.0215773 C74.839786,65.6187272 73.5972451,65.2643737 72.416604,64.9581985 C69.3672543,64.1674116 66.8667874,63.7337018 65.027976,63.7337018 C64.6107389,63.7337018 63.0855828,63.7887337 62.8314239,63.8167475 L62.721866,62.8227671 C63.0202466,62.7898792 64.5771467,62.7337018 65.027976,62.7337018 C66.9704943,62.7337018 69.5429765,63.1799028 72.6676301,63.9902181 C73.862958,64.3002021 75.1187322,64.6583295 76.4529115,65.0650332 C77.8964155,65.5050627 79.0169654,65.8681259 81.0980834,66.5579379 C84.9836714,67.8465255 89.14206,68.5 93.4590954,68.5 C102.051042,68.5 110.685113,65.8867595 115.94339,62.4240556 C116.612941,61.983005 117.254998,61.4215664 118.078782,60.5885426 C118.310556,60.3541698 118.493015,60.1650208 118.92189,59.7168747 C121.912731,56.5890149 123.488165,55.4969229 126.152444,55.4969229 C127.652278,55.4969229 129.253557,55.9640617 131.044765,56.9142878 C133.148415,58.0303615 135.146651,58.7078456 137.302657,59.0818649 C139.287413,59.426176 140.875272,59.5011461 144.744881,59.5258156 C145.805962,59.5325802 146.297599,59.5366957 146.884085,59.5455152 C146.986432,59.5135182 147.097441,59.5182449 147.230224,59.5378205 C147.311137,59.5497489 147.365791,59.5622802 147.522677,59.601365 C148.759913,58.3531178 149.596485,57.137883 150.116253,55.9786402 C158.748781,45.9847326 160.624516,35.4734388 156.150884,24.41906 C153.335728,17.4639556 149.189033,12.4895236 142.446529,6.18155093 C141.268821,5.07978512 140.929904,4.75004015 140.766761,4.5006156 C140.625514,4.50422115 139.820907,4.52418763 137.806604,4.57417488 C135.654127,4.6276266 135.563299,4.62988211 134.901654,4.64631582 C135.757255,5.38831129 137.057847,6.69010649 138.26624,8.22420297 C140.359968,10.882262 141.486159,13.391416 141.154115,15.5828106 C140.868032,17.4704057 139.462114,18.9498457 137.042928,19.9798411 C130.564938,22.7367382 126.376749,28.5645895 124.054789,34.9288481 L123.606235,36.1582874 L123.120751,34.9429579 C120.568313,28.5533569 116.093413,24.0207946 109.885324,20.8151965 C105.366592,18.4819116 101.371688,17.2974806 93.5248395,15.5360294 C92.074735,15.2102864 91.4713553,15.0727126 90.7374521,14.8972624 C88.4121835,14.3413732 86.8890266,13.8784993 85.7474702,13.3354886 C82.8999401,11.9811267 80.3665009,10.3494762 78.1757231,8.5951295 C76.8626329,7.54362379 75.9267113,6.65900624 75.4447332,6.13649232 C75.1512519,6.14397491 71.6044179,6.23293911 71.1002297,6.24559146 C67.863438,6.32682358 67.8180919,6.32796161 66.7689191,6.35429622 C71.393802,33.9786232 69.1367327,50.5012775 60.1266212,52.8599038 Z" id="Fill-49" fill="#242424" fill-rule="nonzero"></path>
                    <path d="M50.5598753,34.2372556 C50.4288426,33.9941814 50.5196702,33.6909079 50.7627444,33.5598753 C51.0058186,33.4288426 51.3090921,33.5196702 51.4401247,33.7627444 C51.4862709,33.8483486 51.5748608,34.0148577 51.7030655,34.2591727 C51.9162179,34.6653694 52.1633245,35.1431697 52.4415563,35.6894752 C53.2359168,37.2491941 54.1208119,39.0457193 55.0736104,41.0542715 C57.7952776,46.7916972 60.5167466,53.0795084 63.0569522,59.7196952 C66.577677,68.9229941 69.4617284,78.0595761 71.4873375,86.8881868 C71.5490902,87.1573359 71.3809623,87.4255847 71.1118132,87.4873375 C70.8426641,87.5490902 70.5744153,87.3809623 70.5126625,87.1118132 C68.4983507,78.3324417 65.6280433,69.2394 62.1229618,60.0769935 C59.5925612,53.4624371 56.8812379,47.198067 54.1701127,41.4828644 C53.2214339,39.4829966 52.3406715,37.6948617 51.5504675,36.1433042 C51.2741018,35.6006629 51.0288616,35.1264714 50.8175771,34.7238341 C50.6911196,34.4828487 50.6042756,34.3196212 50.5598753,34.2372556 Z" id="Stroke-5" fill="#242424" fill-rule="nonzero"></path>
                    <path d="M36.0220082,76.3595183 C36.241506,76.5270752 36.2836124,76.8408451 36.1160554,77.0603429 C35.9484984,77.2798407 35.6347286,77.321947 35.4152308,77.1543901 C34.6397974,76.5624513 33.3847843,76.0254961 31.5537008,75.7261851 C28.8648971,75.2866702 25.4141277,75.4600637 21.1104871,76.4351617 C20.841171,76.496182 20.5733805,76.327325 20.5123602,76.0580089 C20.4513398,75.7886929 20.6201969,75.5209024 20.8895129,75.459882 C28.7294895,73.6835381 33.5483844,74.4712401 36.0220082,76.3595183 Z" id="Stroke-54" fill="#242424" fill-rule="nonzero"></path>
                    <path d="M108.19252,97.5176962 C108.171008,97.5201846 108.148131,97.5226865 108.123931,97.5251685 C107.345009,97.6050579 106.476252,97.5483558 105.640591,97.2483751 C104.851005,96.964934 104.185113,96.4868574 103.69684,95.7857469 C103.256869,95.1539939 102.509296,94.5121827 101.54306,93.8918479 C100.946216,93.5086673 100.304024,93.1575518 99.6615725,92.8470967 C99.2766351,92.6610816 98.9789031,92.5307138 98.8127685,92.4636209 C98.5567177,92.3602158 98.432974,92.0688192 98.5363791,91.8127685 C98.6397842,91.5567177 98.9311808,91.432974 99.1872315,91.5363791 C99.2355277,91.5558833 99.322371,91.5923335 99.4423098,91.6448511 C99.6401504,91.7314795 99.8600794,91.8323846 100.096669,91.946713 C100.772899,92.2734905 101.449388,92.6433582 102.083314,93.050346 C103.150045,93.7352001 103.98901,94.4554736 104.517446,95.2142531 C104.880363,95.7353648 105.375185,96.0906216 105.978456,96.3071804 C106.651724,96.5488664 107.378949,96.596331 108.021902,96.5303871 C108.110483,96.5213018 108.17065,96.5126626 108.197382,96.5078644 C108.308592,96.4879038 108.423283,96.5061976 108.522764,96.5597645 L112.23705,98.5597645 C112.480185,98.6906835 112.571155,98.9939145 112.440236,99.2370499 C112.309316,99.4801853 112.006085,99.5711546 111.76295,99.4402355 L108.19252,97.5176962 Z" id="Stroke-56" fill="#242424" fill-rule="nonzero"></path>
                    <path d="M200.704223,82.2789517 C200.930666,81.5662773 201.230306,80.860599 201.630386,80.1923401 C202.426759,78.8621466 203.488863,77.9096653 204.863313,77.5190462 C205.128936,77.4435559 205.405464,77.5976893 205.480954,77.8633127 C205.556444,78.1289362 205.402311,78.4054635 205.136687,78.4809538 C204.037887,78.7932333 203.164747,79.576254 202.488374,80.706009 C202.132428,81.300552 201.862005,81.9374207 201.657271,82.5817709 C201.596653,82.7725503 201.563661,82.8892513 201.504749,83.1092054 C201.496357,83.1617245 201.463443,83.2754991 201.398927,83.3632626 C201.277585,83.5544689 201.277585,83.5544689 200.663092,83.4415429 C200.493801,83.1855408 200.493801,83.1855408 200.497527,83.1210421 C200.493644,83.0477135 200.493644,83.0477135 200.495588,83.0231117 C200.498828,82.9825618 200.498828,82.9825618 200.503186,82.9436484 C200.511034,82.874459 200.53265,82.8101772 200.564993,82.7532266 C200.612801,82.5769861 200.647588,82.4571947 200.704223,82.2789517 Z" id="Stroke-58" fill="#242424" fill-rule="nonzero"></path>
                    <path d="M130.413159,88.9650486 C130.18024,89.0779346 129.924968,88.9082971 129.843603,88.5869112 L129,85.4083636 L129.843603,85 L130.687207,88.1785476 C130.768572,88.5005504 130.646077,88.8521625 130.413159,88.9650486 L131,86.2634125" id="Fill-66" fill="#242424"></path>
                    <path d="M129.884631,94.5904893 L129,92.4048265 L130.083074,92 L130.967705,94.1856628 C131.072167,94.5048764 130.9149,94.8534431 130.615864,94.9653513 C130.316827,95.0772595 129.989093,94.9090914 129.884631,94.5904893 Z" id="Fill-66-Copy-6" fill="#242424" transform="translate(130.000000, 93.500000) rotate(4.000000) translate(-130.000000, -93.500000) "></path>
                    <path d="M133.884631,93.5904893 L133,91.4048265 L134.083074,91 L134.967705,93.1856628 C135.072167,93.5048764 134.9149,93.8534431 134.615864,93.9653513 C134.316827,94.0772595 133.989093,93.9090914 133.884631,93.5904893 Z" id="Fill-66-Copy-7" fill="#242424" transform="translate(134.000000, 92.500000) rotate(4.000000) translate(-134.000000, -92.500000) "></path>
                    <path d="M137.884631,92.5904893 L137,90.4048265 L138.083074,90 L138.967705,92.1856628 C139.072167,92.5048764 138.9149,92.8534431 138.615864,92.9653513 C138.316827,93.0772595 137.989093,92.9090914 137.884631,92.5904893 Z" id="Fill-66-Copy-8" fill="#242424" transform="translate(138.000000, 91.500000) rotate(4.000000) translate(-138.000000, -91.500000) "></path>
                    <path d="M141.884631,91.5904893 L141,89.4048265 L142.083074,89 L142.967705,91.1856628 C143.072167,91.5048764 142.9149,91.8534431 142.615864,91.9653513 C142.316827,92.0772595 141.989093,91.9090914 141.884631,91.5904893 Z" id="Fill-66-Copy-9" fill="#242424" transform="translate(142.000000, 90.500000) rotate(4.000000) translate(-142.000000, -90.500000) "></path>
                    <path d="M144.884631,90.5904893 L144,88.4048265 L145.083074,88 L145.967705,90.1856628 C146.072167,90.5048764 145.9149,90.8534431 145.615864,90.9653513 C145.316827,91.0772595 144.989093,90.9090914 144.884631,90.5904893 Z" id="Fill-66-Copy-10" fill="#242424" transform="translate(145.000000, 89.500000) rotate(4.000000) translate(-145.000000, -89.500000) "></path>
                    <path d="M148.884631,89.5904893 L148,87.4048265 L149.083074,87 L149.967705,89.1856628 C150.072167,89.5048764 149.9149,89.8534431 149.615864,89.9653513 C149.316827,90.0772595 148.989093,89.9090914 148.884631,89.5904893 Z" id="Fill-66-Copy-11" fill="#242424" transform="translate(149.000000, 88.500000) rotate(4.000000) translate(-149.000000, -88.500000) "></path>
                    <path d="M152.884631,88.5904893 L152,86.4048265 L153.083074,86 L153.967705,88.1856628 C154.072167,88.5048764 153.9149,88.8534431 153.615864,88.9653513 C153.316827,89.0772595 152.989093,88.9090914 152.884631,88.5904893 Z" id="Fill-66-Copy-12" fill="#242424" transform="translate(153.000000, 87.500000) rotate(4.000000) translate(-153.000000, -87.500000) "></path>
                    <path d="M156.884631,87.5904893 L156,85.4048265 L157.083074,85 L157.967705,87.1856628 C158.072167,87.5048764 157.9149,87.8534431 157.615864,87.9653513 C157.316827,88.0772595 156.989093,87.9090914 156.884631,87.5904893 Z" id="Fill-66-Copy-13" fill="#242424" transform="translate(157.000000, 86.500000) rotate(9.000000) translate(-157.000000, -86.500000) "></path>
                    <path d="M160.884631,87.5904893 L160,85.4048265 L161.083074,85 L161.967705,87.1856628 C162.072167,87.5048764 161.9149,87.8534431 161.615864,87.9653513 C161.316827,88.0772595 160.989093,87.9090914 160.884631,87.5904893 Z" id="Fill-66-Copy-14" fill="#242424" transform="translate(161.000000, 86.500000) rotate(9.000000) translate(-161.000000, -86.500000) "></path>
                    <path d="M165.884631,86.5904893 L165,84.4048265 L166.083074,84 L166.967705,86.1856628 C167.072167,86.5048764 166.9149,86.8534431 166.615864,86.9653513 C166.316827,87.0772595 165.989093,86.9090914 165.884631,86.5904893 Z" id="Fill-66-Copy-15" fill="#242424" transform="translate(166.000000, 85.500000) rotate(9.000000) translate(-166.000000, -85.500000) "></path>
                    <path d="M170.884631,85.5904893 L170,83.4048265 L171.083074,83 L171.967705,85.1856628 C172.072167,85.5048764 171.9149,85.8534431 171.615864,85.9653513 C171.316827,86.0772595 170.989093,85.9090914 170.884631,85.5904893 Z" id="Fill-66-Copy-16" fill="#242424" transform="translate(171.000000, 84.500000) rotate(9.000000) translate(-171.000000, -84.500000) "></path>
                    <path d="M175.884631,84.5904893 L175,82.4048265 L176.083074,82 L176.967705,84.1856628 C177.072167,84.5048764 176.9149,84.8534431 176.615864,84.9653513 C176.316827,85.0772595 175.989093,84.9090914 175.884631,84.5904893 Z" id="Fill-66-Copy-17" fill="#242424" transform="translate(176.000000, 83.500000) rotate(9.000000) translate(-176.000000, -83.500000) "></path>
                    <path d="M179.884631,83.5904893 L179,81.4048265 L180.083074,81 L180.967705,83.1856628 C181.072167,83.5048764 180.9149,83.8534431 180.615864,83.9653513 C180.316827,84.0772595 179.989093,83.9090914 179.884631,83.5904893 Z" id="Fill-66-Copy-18" fill="#242424" transform="translate(180.000000, 82.500000) rotate(9.000000) translate(-180.000000, -82.500000) "></path>
                    <path d="M141.659256,84.9675935 C141.393999,85.0722598 141.103286,84.9149745 141.010624,84.6169903 L140,81.3786286 L140.960729,81 L141.971353,84.2383616 C142.064015,84.5369178 141.924513,84.8629273 141.659256,84.9675935" id="Fill-66-Copy-3" fill="#242424"></path>
                    <path d="M146.659256,83.9675935 C146.393999,84.0722598 146.103286,83.9149745 146.010624,83.6169903 L145,80.3786286 L145.960729,80 L146.971353,83.2383616 C147.064015,83.5369178 146.924513,83.8629273 146.659256,83.9675935" id="Fill-66-Copy-5" fill="#242424" transform="translate(146.000000, 82.000000) rotate(7.000000) translate(-146.000000, -82.000000) "></path>
                    <path d="M120.659256,91.9675935 C120.393999,92.0722598 120.103286,91.9149745 120.010624,91.6169903 L119,88.3786286 L119.960729,88 L120.971353,91.2383616 C121.064015,91.5369178 120.924513,91.8629273 120.659256,91.9675935" id="Fill-66-Copy" fill="#242424"></path>
                    <path d="M125.659256,89.9675935 C125.393999,90.0722598 125.103286,89.9149745 125.010624,89.6169903 L124,86.3786286 L124.960729,86 L125.971353,89.2383616 C126.064015,89.5369178 125.924513,89.8629273 125.659256,89.9675935" id="Fill-66-Copy-2" fill="#242424"></path>
                    <path d="M136.659256,86.9675935 C136.393999,87.0722598 136.103286,86.9149745 136.010624,86.6169903 L135,83.3786286 L135.960729,83 L136.971353,86.2383616 C137.064015,86.5369178 136.924513,86.8629273 136.659256,86.9675935" id="Fill-66-Copy-4" fill="#242424"></path>
                    <path d="M194,102.837501 L194.077877,102 L197.526617,102.160024 C197.808921,102.177664 198.020009,102.37927 197.998491,102.610695 C197.976972,102.842121 197.731044,103.015166 197.448739,102.997525 L194,102.837501 Z" id="Fill-82" fill="#242424"></path>
                    <path d="M193,106.837501 L193.075236,106 L195.542672,106.160024 C195.815402,106.177664 196.019331,106.37927 195.998542,106.610695 C195.977753,106.842121 195.740166,107.015166 195.467437,106.997525 L193,106.837501 Z" id="Fill-84" fill="#242424"></path>
                    <path d="M193,110.837501 L193.075236,110 L195.542672,110.160024 C195.815402,110.177664 196.019331,110.37927 195.998542,110.610695 C195.977753,110.842121 195.740166,111.015166 195.467437,110.997525 L193,110.837501 Z" id="Fill-86" fill="#242424"></path>
                    <path d="M193,114.837501 L193.075236,114 L195.542672,114.160024 C195.815402,114.177664 196.019331,114.37927 195.998542,114.610695 C195.977753,114.842121 195.740166,115.015166 195.467437,114.997525 L193,114.837501 Z" id="Fill-82-Copy" fill="#242424"></path>
                    <path d="M193,118.837501 L193.075236,118 L195.542672,118.160024 C195.815402,118.177664 196.019331,118.37927 195.998542,118.610695 C195.977753,118.842121 195.740166,119.015166 195.467437,118.997525 L193,118.837501 Z" id="Fill-84-Copy" fill="#242424"></path>
                    <path d="M193,122.837501 L193.075236,122 L195.542672,122.160024 C195.815402,122.177664 196.019331,122.37927 195.998542,122.610695 C195.977753,122.842121 195.740166,123.015166 195.467437,122.997525 L193,122.837501 Z" id="Fill-86-Copy" fill="#242424"></path>
                    <path d="M192,126.837501 L192.075236,126 L194.542672,126.160024 C194.815402,126.177664 195.019331,126.37927 194.998542,126.610695 C194.977753,126.842121 194.740166,127.015166 194.467437,126.997525 L192,126.837501 Z" id="Fill-82-Copy-3" fill="#242424"></path>
                    <path d="M192,130.837501 L192.075236,130 L194.542672,130.160024 C194.815402,130.177664 195.019331,130.37927 194.998542,130.610695 C194.977753,130.842121 194.740166,131.015166 194.467437,130.997525 L192,130.837501 Z" id="Fill-84-Copy-3" fill="#242424"></path>
                    <path d="M195.383844,134.998763 L192.529111,134.838739 C192.213573,134.821098 191.977635,134.619493 192.001687,134.388067 C192.025739,134.156641 192.300618,133.983597 192.616156,134.001237 L195.470889,134.161261 C195.786427,134.178902 196.022365,134.380507 195.998313,134.611933 C195.974261,134.843359 195.699382,135.016403 195.383844,134.998763" id="Fill-86-Copy-3" fill="#242424"></path>
                    <path d="M192.529111,138.838739 C192.213573,138.821098 191.977635,138.619493 192.001687,138.388067 C192.025739,138.156641 192.300618,137.983597 192.616156,138.001237 L195.470889,138.161261 C195.786427,138.178902 196.022365,138.380507 195.998313,138.611933 C195.974261,138.843359 195.699382,139.016403 195.383844,138.998763 L192.529111,138.838739 Z" id="Fill-82-Copy-2" fill="#242424"></path>
                    <path d="M195.383844,143.998763 L192.529111,143.838739 C192.213573,143.821098 191.977635,143.619493 192.001687,143.388067 C192.025739,143.156641 192.300618,142.983597 192.616156,143.001237 L195.470889,143.161261 C195.786427,143.178902 196.022365,143.380507 195.998313,143.611933 C195.974261,143.843359 195.699382,144.016403 195.383844,143.998763" id="Fill-84-Copy-2" fill="#242424"></path>
                    <path d="M192.529111,147.838739 L192.616156,147.001237 L195.470889,147.161261 C195.786427,147.178902 196.022365,147.380507 195.998313,147.611933 C195.974261,147.843359 195.699382,148.016403 195.383844,147.998763 L192.529111,147.838739 Z" id="Fill-86-Copy-2" fill="#242424"></path>
                    <path d="M193.529111,151.838739 C193.213573,151.821098 192.977635,151.619493 193.001687,151.388067 C193.025739,151.156641 193.300618,150.983597 193.616156,151.001237 L195.700634,151.12251 C196.016172,151.14015 196.25211,151.341755 196.228058,151.573181 C196.204006,151.804607 195.929127,151.977651 195.613589,151.960011 L193.529111,151.838739 Z" id="Fill-86-Copy-4" fill="#242424"></path>
                    <path d="M192.529111,155.838739 C192.529111,155.838739 192.300618,154.983597 192.616156,155.001237 C192.826515,155.012998 193.778092,155.066339 195.470889,155.161261 C195.786427,155.178902 196.022365,155.380507 195.998313,155.611933 C195.974261,155.843359 195.699382,156.016403 195.383844,155.998763 C193.480689,155.89208 192.529111,155.838739 192.529111,155.838739 Z" id="Fill-82-Copy-4" fill="#242424"></path>
                    <path d="M195.383844,158.998763 L192.529111,158.838739 C192.213573,158.821098 191.977635,158.619493 192.001687,158.388067 C192.025739,158.156641 192.300618,157.983597 192.616156,158.001237 L195.470889,158.161261 C195.786427,158.178902 196.022365,158.380507 195.998313,158.611933 C195.974261,158.843359 195.699382,159.016403 195.383844,158.998763" id="Fill-84-Copy-4" fill="#242424"></path>
                    <path d="M192,162.837501 C192,162.837501 192.029015,162.558334 192.087045,162 L194.941778,162.160024 C195.257316,162.177664 195.493254,162.37927 195.469202,162.610695 C195.44515,162.842121 195.170271,163.015166 194.854733,162.997525 C192.951578,162.890843 192,162.837501 192,162.837501 Z" id="Fill-86-Copy-6" fill="#242424"></path>
                    <path d="M194.383844,167.998763 L191.529111,167.838739 C191.213573,167.821098 190.977635,167.619493 191.001687,167.388067 C191.025739,167.156641 191.300618,166.983597 191.616156,167.001237 L194.470889,167.161261 C194.786427,167.178902 195.022365,167.380507 194.998313,167.611933 C194.974261,167.843359 194.699382,168.016403 194.383844,167.998763" id="Fill-86-Copy-5" fill="#242424"></path>
                    <path d="M194.383844,171.998763 L191.529111,171.838739 C191.213573,171.821098 190.977635,171.619493 191.001687,171.388067 C191.025739,171.156641 191.300618,170.983597 191.616156,171.001237 L194.470889,171.161261 C194.786427,171.178902 195.022365,171.380507 194.998313,171.611933 C194.974261,171.843359 194.699382,172.016403 194.383844,171.998763" id="Fill-86-Copy-7" fill="#242424"></path>
                    <path d="M194.383844,175.998763 L191.529111,175.838739 C191.213573,175.821098 190.977635,175.619493 191.001687,175.388067 C191.025739,175.156641 191.300618,174.983597 191.616156,175.001237 L194.470889,175.161261 C194.786427,175.178902 195.022365,175.380507 194.998313,175.611933 C194.974261,175.843359 194.699382,176.016403 194.383844,175.998763" id="Fill-86-Copy-8" fill="#242424"></path>
                    <path d="M195.383844,180.998763 L192.529111,180.838739 C192.213573,180.821098 191.977635,180.619493 192.001687,180.388067 C192.025739,180.156641 192.300618,179.983597 192.616156,180.001237 L195.470889,180.161261 C195.786427,180.178902 196.022365,180.380507 195.998313,180.611933 C195.974261,180.843359 195.699382,181.016403 195.383844,180.998763" id="Fill-86-Copy-9" fill="#242424"></path>
                    <path d="M195.383844,184.998763 L192.529111,184.838739 C192.213573,184.821098 191.977635,184.619493 192.001687,184.388067 C192.025739,184.156641 192.300618,183.983597 192.616156,184.001237 L195.470889,184.161261 C195.786427,184.178902 196.022365,184.380507 195.998313,184.611933 C195.974261,184.843359 195.699382,185.016403 195.383844,184.998763" id="Fill-86-Copy-10" fill="#242424"></path>
                    <path d="M194.383844,188.998763 L191.529111,188.838739 C191.213573,188.821098 190.977635,188.619493 191.001687,188.388067 C191.025739,188.156641 191.300618,187.983597 191.616156,188.001237 L194.470889,188.161261 C194.786427,188.178902 195.022365,188.380507 194.998313,188.611933 C194.974261,188.843359 194.699382,189.016403 194.383844,188.998763" id="Fill-86-Copy-11" fill="#242424"></path>
                    <path d="M136.871082,155.079596 C136.908497,153.350062 136.987432,151.503653 137.095523,149.626427 C137.149758,148.684514 137.207867,147.795521 137.265986,146.986529 C137.286337,146.703251 137.30524,146.450151 137.322212,146.230619 C137.332416,146.098644 137.339694,146.007363 137.343648,145.95914 C137.366214,145.683921 137.607617,145.479106 137.882836,145.501672 C138.158054,145.524239 138.362869,145.765642 138.340303,146.04086 C138.324981,146.22773 138.298063,146.575896 138.263415,147.058186 C138.205622,147.862652 138.147819,148.746961 138.093869,149.683911 C137.986419,151.550021 137.907979,153.384857 137.870848,155.101224 C137.787463,158.955728 137.922283,161.796906 138.320705,163.118842 L138.341075,163.233144 C138.346131,163.317289 138.35488,163.478362 138.366088,163.711064 C138.384714,164.097783 138.403327,164.545522 138.420691,165.048987 C138.616599,170.729338 138.495211,177.066935 137.820481,183.059638 C136.929371,190.974158 135.191949,196.973329 132.383047,200.321365 C132.205562,200.532916 131.890186,200.560531 131.678635,200.383047 C131.467084,200.205562 131.439469,199.890186 131.616953,199.678635 C134.263726,196.523848 135.956177,190.679959 136.82676,182.947753 C137.495129,177.011544 137.615651,170.719115 137.421285,165.083455 C137.404081,164.584623 137.385657,164.141425 137.367246,163.759173 C137.3584,163.575526 137.351154,163.438028 137.346146,163.349428 C136.919294,161.87029 136.786382,158.994883 136.871082,155.079596 Z" id="Stroke-142" fill="#242424" fill-rule="nonzero"></path>
                    <path d="M72.7107544,141.389343 C72.7107544,141.251272 72.8226832,141.139343 72.9607544,141.139343 C73.0988256,141.139343 73.2107544,141.251272 73.2107544,141.389343 C73.2107544,141.475521 73.1823169,141.652583 72.8937201,143.405498 C72.8712903,143.541735 72.7426653,143.633994 72.6064282,143.611564 C72.470191,143.589134 72.377932,143.460509 72.4003618,143.324272 C72.6451453,141.837476 72.7107544,141.428972 72.7107544,141.389343 Z M72.0773301,145.297993 C72.0994453,145.161705 72.227857,145.069149 72.3641455,145.091264 C72.5004341,145.113379 72.5929898,145.241791 72.5708746,145.37808 C72.4624714,146.046131 72.3579177,146.697487 72.2543556,147.351267 C72.2327537,147.487638 72.1046915,147.580676 71.9683206,147.559075 C71.8319498,147.537473 71.7389111,147.409411 71.760513,147.27304 C71.8641783,146.618608 71.9688306,145.966638 72.0773301,145.297993 Z M71.4516795,149.250852 C71.472665,149.114384 71.6003055,149.020768 71.7367726,149.041754 C71.8732396,149.062739 71.9668559,149.19038 71.9458704,149.326847 C71.8434567,149.992835 71.7438895,150.651197 71.6471736,151.302803 C71.6269022,151.439378 71.4997531,151.533661 71.3631782,151.513389 C71.2266032,151.493118 71.1323205,151.365969 71.1525919,151.229394 C71.2494391,150.576903 71.3491364,149.917681 71.4516795,149.250852 Z M70.8643505,153.211795 C70.8837907,153.075099 71.0103639,152.980045 71.1470596,152.999485 C71.2837554,153.018925 71.3788099,153.145498 71.3593697,153.282194 C71.2636772,153.955068 71.1720994,154.615186 71.0848469,155.261962 C71.0663878,155.398794 70.9404998,155.494754 70.8036681,155.476295 C70.6668364,155.457836 70.5708764,155.331948 70.5893355,155.195116 C70.6767517,154.547126 70.7684934,153.885826 70.8643505,153.211795 Z M70.3300866,157.179431 C70.3473612,157.042445 70.4724143,156.9454 70.6094006,156.962674 C70.7463869,156.979949 70.8434324,157.105002 70.8261579,157.241988 C70.7401816,157.923775 70.6602015,158.585157 70.5865008,159.225088 C70.5707036,159.362252 70.4467037,159.46064 70.3095392,159.444843 C70.1723747,159.429046 70.073987,159.305046 70.0897842,159.167881 C70.1636962,158.526115 70.2438914,157.862955 70.3300866,157.179431 Z M69.8737574,161.160398 C69.8876326,161.023026 70.0102429,160.922912 70.1476152,160.936787 C70.2849874,160.950662 70.3851015,161.073272 70.3712263,161.210645 C70.3008507,161.907401 70.2398933,162.570212 70.1887545,163.197463 C70.177535,163.335077 70.0568811,163.437541 69.9192665,163.426321 C69.7816519,163.415102 69.6791885,163.294448 69.690408,163.156833 C69.7418186,162.526249 69.8030692,161.860249 69.8737574,161.160398 Z M69.5543282,165.159035 C69.5615125,165.021151 69.6791138,164.915198 69.816998,164.922382 C69.9548821,164.929567 70.0608352,165.047168 70.0536508,165.185052 C70.0153764,165.919625 69.9960498,166.582808 69.9964551,167.170998 C69.9965503,167.309069 69.8846986,167.421075 69.7466275,167.42117 C69.6085563,167.421265 69.4965504,167.309414 69.4964552,167.171343 C69.4960434,166.573719 69.5156217,165.901899 69.5543282,165.159035 Z M69.5533637,169.165904 C69.5562435,169.027863 69.6704826,168.918293 69.8085238,168.921173 C69.9465649,168.924053 70.0561348,169.038292 70.0532549,169.176333 C70.0411849,169.754884 69.9755928,170.425269 69.8582566,171.199361 C69.8375642,171.335873 69.710125,171.429763 69.5736132,171.409071 C69.4371013,171.388378 69.3432111,171.260939 69.3639035,171.124427 C69.4782329,170.370173 69.5417921,169.720565 69.5533637,169.165904 Z M69.003799,173.089007 C69.031952,172.953837 69.1643519,172.867082 69.2995224,172.895235 C69.4346929,172.923388 69.5214477,173.055788 69.4932946,173.190958 C69.3694751,173.78545 69.2246084,174.430965 69.0547355,175.148942 C69.0229456,175.283303 68.8882532,175.366454 68.7538915,175.334664 C68.6195299,175.302874 68.536379,175.168182 68.5681689,175.03382 C68.7370679,174.31996 68.8809702,173.678742 69.003799,173.089007 Z M68.0945867,176.970968 C68.1281436,176.837037 68.2639196,176.755668 68.3978509,176.789225 C68.5317821,176.822781 68.6131516,176.958557 68.5795947,177.092489 C68.4407306,177.646718 68.295248,178.219512 68.0873912,179.032403 C68.0531868,179.16617 67.9170188,179.246882 67.7832514,179.212678 C67.649484,179.178473 67.5687723,179.042305 67.6029767,178.908538 C67.8106503,178.096363 67.9559596,177.524252 68.0945867,176.970968 Z M67.1061842,180.851936 C67.1402593,180.718136 67.2763493,180.637292 67.4101497,180.671367 C67.5439501,180.705443 67.6247933,180.841533 67.5907182,180.975333 C67.407525,181.694665 67.2512102,182.314144 67.1019727,182.913804 C67.068628,183.047788 66.9329811,183.129373 66.7989968,183.096028 C66.6650125,183.062683 66.583428,182.927036 66.6167727,182.793052 C66.7662546,182.19241 66.9227831,181.572084 67.1061842,180.851936 Z M66.1437126,184.729469 C66.1758207,184.595183 66.3107098,184.512352 66.4449957,184.54446 C66.5792817,184.576568 66.6621133,184.711457 66.6300052,184.845743 C66.4699346,185.515207 66.3197407,186.16024 66.1776108,186.79012 C66.1472197,186.924805 66.0133991,187.009352 65.8787141,186.978961 C65.7440292,186.94857 65.6594823,186.814749 65.6898735,186.680064 C65.8324896,186.048029 65.9831636,185.400935 66.1437126,184.729469 Z M65.2630896,188.643076 C65.2912837,188.507914 65.42371,188.4212 65.5588719,188.449394 C65.6940338,188.477588 65.7807483,188.610014 65.7525541,188.745176 C65.6135146,189.411728 65.4840788,190.062972 65.3639904,190.701909 C65.3384865,190.837604 65.2078087,190.926932 65.0721134,190.901428 C64.9364182,190.875924 64.8470905,190.745246 64.8725945,190.609551 C64.9933098,189.967278 65.1233894,189.312794 65.2630896,188.643076 Z M64.5241299,192.589673 C64.5463885,192.453408 64.6748976,192.360988 64.8111627,192.383246 C64.9474279,192.405505 65.0398485,192.534014 65.0175898,192.670279 C64.9080842,193.34066 64.8099314,193.99738 64.7232966,194.641737 C64.7048982,194.778576 64.5790528,194.874592 64.4422129,194.856194 C64.305373,194.837796 64.2093572,194.71195 64.2277555,194.57511 C64.3150315,193.925985 64.4138796,193.264613 64.5241299,192.589673 Z M63.9923468,196.571282 C64.0061579,196.433903 64.1287214,196.333732 64.2661001,196.347543 C64.4034788,196.361354 64.5036502,196.483917 64.4898391,196.621296 C64.421926,197.296827 64.368147,197.957788 64.3288608,198.60477 C64.3204922,198.742588 64.2019851,198.847527 64.0641678,198.839158 C63.9263504,198.83079 63.8214115,198.712282 63.8297801,198.574465 C63.8694738,197.920772 63.9237866,197.25325 63.9923468,196.571282 Z M63.7535093,200.594826 C63.7553675,200.456767 63.8687926,200.346355 64.0068513,200.348213 C64.1449099,200.350071 64.2553222,200.463496 64.253464,200.601555 C64.2443238,201.280633 64.2532282,201.942555 64.2806749,202.587526 C64.2865451,202.725472 64.1794763,202.842059 64.04153,202.847929 C63.9035837,202.853799 63.7869973,202.74673 63.781127,202.608784 C63.7532756,201.954303 63.7442458,201.283062 63.7535093,200.594826 Z M63.9331241,204.627354 C63.9179931,204.490115 64.0169817,204.366594 64.1542213,204.351463 C64.2914609,204.336332 64.4149816,204.435321 64.4301126,204.57256 C64.5044213,205.246546 64.6020485,205.899241 64.7236245,206.530581 C64.749733,206.666161 64.6609886,206.797236 64.5254083,206.823344 C64.3898281,206.849452 64.2587535,206.760708 64.2326451,206.625128 C64.1084832,205.98036 64.0088748,205.31442 63.9331241,204.627354 Z M64.7065082,208.588292 C64.6675273,208.455838 64.7433024,208.316862 64.8757566,208.277881 C65.0082109,208.2389 65.1471867,208.314675 65.1861676,208.447129 C65.2330186,208.606325 65.2816788,208.763908 65.33216,208.919874 C65.3746776,209.051235 65.3026552,209.192192 65.1712935,209.23471 C65.0399317,209.277228 64.8989747,209.205205 64.856457,209.073843 C64.8045937,208.913607 64.7546152,208.751755 64.7065082,208.588292 Z" id="Stroke-144" fill="#242424" fill-rule="nonzero"></path>
                    <path d="M63.0138828,62.4822239 C62.8760247,62.4898911 62.758053,62.3843506 62.7503858,62.2464925 C62.7427185,62.1086343 62.848259,61.9906627 62.9861172,61.9829954 C63.0968908,61.9768345 63.3084492,61.9676753 63.6128633,61.9585429 C64.0216374,61.9462798 64.484999,61.9379074 64.9983332,61.9351878 C65.1364025,61.9344563 65.2489227,62.0457906 65.2496542,62.1838598 C65.2503857,62.3219291 65.1390514,62.4344493 65.0009821,62.4351808 C64.4918362,62.4378782 64.0325847,62.4461764 63.6278564,62.4583181 C63.3277869,62.4673201 63.12048,62.4762952 63.0138828,62.4822239 Z M66.9939683,62.4530799 C66.8559323,62.449966 66.7465562,62.3355413 66.7496701,62.1975053 C66.752784,62.0594692 66.8672086,61.9500932 67.0052447,61.953207 C67.6569777,61.9679092 68.3261547,61.9912922 69.0105227,62.0242187 C69.1484344,62.0308539 69.254855,62.1480323 69.2482197,62.285944 C69.2415845,62.4238556 69.1244061,62.5302762 68.9864944,62.523641 C68.3064412,62.4909221 67.6415113,62.4676875 66.9939683,62.4530799 Z M70.9778465,62.6445643 C70.8401456,62.6344593 70.7367087,62.5146389 70.7468138,62.376938 C70.7569188,62.2392371 70.8767392,62.1358002 71.0144401,62.1459052 C71.6779258,62.1945944 72.3447499,62.2519168 73.013745,62.3183208 C73.151141,62.3319586 73.2514669,62.4543957 73.237829,62.5917917 C73.2241912,62.7291877 73.1017541,62.8295135 72.9643581,62.8158757 C72.2996807,62.7499003 71.6371185,62.6929443 70.9778465,62.6445643 Z M74.9438411,63.0389041 C74.8068589,63.021597 74.7098431,62.8965208 74.7271502,62.7595387 C74.7444573,62.6225565 74.8695334,62.5255407 75.0065156,62.5428478 C75.6719182,62.6269184 76.334646,62.719952 76.9938638,62.822271 C77.1303013,62.8434479 77.2237385,62.9712196 77.2025616,63.1076571 C77.1813848,63.2440946 77.0536131,63.3375318 76.9171756,63.316355 C76.2626809,63.214769 75.6046219,63.1223908 74.9438411,63.0389041 Z M78.8831802,63.6517286 C78.7474474,63.6264252 78.6579267,63.4958795 78.6832302,63.3601467 C78.7085337,63.224414 78.8390793,63.1348933 78.9748121,63.1601968 C79.6377686,63.2837859 80.2940178,63.4169837 80.942864,63.5600608 C81.077696,63.5897926 81.1628965,63.723198 81.1331647,63.85803 C81.1034329,63.992862 80.9700275,64.0780626 80.8351955,64.0483307 C80.1917473,63.9064439 79.5408412,63.7743305 78.8831802,63.6517286 Z M82.7958159,64.4798182 C82.6603049,64.4533528 82.5719059,64.322045 82.5983713,64.186534 C82.6248367,64.051023 82.7561445,63.962624 82.8916555,63.9890894 C83.5229384,64.1123793 84.1766633,64.2207957 84.8506325,64.3142873 C84.9873941,64.3332585 85.0828821,64.459505 85.0639108,64.5962666 C85.0449395,64.7330283 84.9186931,64.8285162 84.7819314,64.8095449 C84.0990362,64.7148152 83.4362724,64.6048997 82.7958159,64.4798182 Z M86.7854474,65.0387876 C86.6479497,65.0262162 86.546677,64.9045611 86.5592484,64.7670634 C86.5718198,64.6295658 86.6934749,64.528293 86.8309725,64.5408644 C87.4794219,64.6001522 88.1415513,64.646808 88.8150953,64.6808696 C88.9529902,64.687843 89.0591231,64.8052821 89.0521496,64.9431771 C89.0451762,65.081072 88.9277371,65.1872049 88.7898422,65.1802315 C88.1096137,65.1458318 87.4407296,65.0987001 86.7854474,65.0387876 Z M90.8116186,65.244592 C90.6735603,65.2427042 90.5631723,65.1292555 90.5650601,64.9911972 C90.5669479,64.8531389 90.6803966,64.742751 90.8184549,64.7446388 C91.4763714,64.7536351 92.1410209,64.7512905 92.8099114,64.7377482 C92.9479543,64.7349534 93.0621258,64.8445936 93.0649206,64.9826365 C93.0677154,65.1206794 92.9580752,65.2348509 92.8200323,65.2376457 C92.1455299,65.2513017 91.4752283,65.2536662 90.8116186,65.244592 Z M94.8205093,65.1646865 C94.6826283,65.1719306 94.5649811,65.0660285 94.557737,64.9281475 C94.5504928,64.7902665 94.6563949,64.6726193 94.794276,64.6653752 C95.4577407,64.6305174 96.1212428,64.5850409 96.7819335,64.5292324 C96.9195148,64.517611 97.0404675,64.6197215 97.0520889,64.7573027 C97.0637104,64.894884 96.9615998,65.0158367 96.8240186,65.0274581 C96.1580587,65.0837117 95.4892722,65.1295503 94.8205093,65.1646865 Z M98.8312426,64.825312 C98.6941095,64.8413798 98.5699157,64.743237 98.5538479,64.6061039 C98.5377801,64.4689708 98.6359229,64.344777 98.773056,64.3287092 C99.4398811,64.2505778 100.098848,64.162152 100.746611,64.0639325 C100.883122,64.0432335 101.010565,64.1371175 101.031264,64.2736283 C101.051963,64.4101391 100.958079,64.5375829 100.821569,64.5582819 C100.168201,64.6573514 99.5036427,64.7465273 98.8312426,64.825312 Z M102.819967,64.2176426 C102.684326,64.2434332 102.55346,64.1543819 102.527669,64.0187408 C102.501879,63.8830998 102.59093,63.7522335 102.726571,63.7264429 C103.395897,63.599178 104.045949,63.4615421 104.672646,63.3143889 C104.807062,63.2828272 104.941613,63.3662066 104.973174,63.500622 C105.004736,63.6350375 104.921357,63.7695885 104.786941,63.8011503 C104.153208,63.9499556 103.496193,64.0890659 102.819967,64.2176426 Z M106.713287,63.2978995 C106.580689,63.3363894 106.441995,63.2600999 106.403505,63.1275021 C106.365015,62.9949043 106.441304,62.8562103 106.573902,62.8177204 C107.244464,62.6230725 107.874406,62.4174117 108.458325,62.2023279 C108.587886,62.1546046 108.731604,62.2209474 108.779327,62.3505087 C108.827051,62.4800701 108.760708,62.6237877 108.631146,62.671511 C108.035859,62.8907826 107.394797,63.1000733 106.713287,63.2978995 Z M110.512364,61.869205 C110.388818,61.9308482 110.238692,61.8806656 110.177049,61.757119 C110.115405,61.6335724 110.165588,61.4834464 110.289135,61.4218031 C110.514086,61.3095642 110.726635,61.1958239 110.926226,61.0808488 C111.26541,60.885186 111.61269,60.6628932 111.977407,60.409124 C112.090742,60.3302653 112.246547,60.3582143 112.325405,60.4715499 C112.404264,60.5848855 112.376315,60.7406898 112.262979,60.8195485 C111.887149,61.0810509 111.528074,61.3108936 111.175936,61.5140287 C110.967368,61.6341751 110.746044,61.7526111 110.512364,61.869205 Z M113.87179,59.5961381 C113.764728,59.6833241 113.607259,59.6672115 113.520073,59.5601496 C113.432887,59.4530877 113.448999,59.2956187 113.556061,59.2084327 C114.01515,58.834573 114.50235,58.4207598 115.075541,57.9205272 C115.179568,57.8297414 115.337495,57.8404754 115.428281,57.9445023 C115.519067,58.0485291 115.508333,58.206456 115.404306,58.2972418 C114.827165,58.8009209 114.33584,59.2182379 113.87179,59.5961381 Z M116.911267,56.966529 C116.807965,57.058138 116.649958,57.0486584 116.558349,56.9453557 C116.46674,56.842053 116.476219,56.6840459 116.579522,56.5924369 C117.234831,56.0113075 117.647807,55.6479247 118.084281,55.2705952 C118.188732,55.1802978 118.346607,55.1917716 118.436905,55.2962227 C118.527202,55.4006738 118.515728,55.5585486 118.411277,55.6488461 C117.976789,56.0244586 117.565115,56.3866963 116.911267,56.966529 Z M119.933856,54.3704616 C119.826549,54.4573461 119.669126,54.4407906 119.582242,54.3334838 C119.495357,54.2261771 119.511913,54.068754 119.61922,53.9818695 C120.174002,53.5326719 120.701625,53.1263498 121.215796,52.7546649 C121.327692,52.673777 121.483975,52.6989144 121.564863,52.8108108 C121.645751,52.9227072 121.620613,53.0789897 121.508717,53.1598776 C121.002376,53.5259025 120.481891,53.9267273 119.933856,54.3704616 Z M123.16867,52.056538 C123.05036,52.1277165 122.896749,52.0895087 122.82557,51.9711986 C122.754392,51.8528885 122.7926,51.6992777 122.91091,51.6280992 C123.522441,51.2601857 124.119945,50.9453607 124.708669,50.6838455 C124.834851,50.6277946 124.982581,50.6846471 125.038632,50.8108293 C125.094682,50.9370115 125.03783,51.0847406 124.911648,51.1407916 C124.342595,51.3935689 123.763212,51.6988459 123.16867,52.056538 Z M126.764301,50.4972001 C126.630205,50.5300933 126.494834,50.4480524 126.46194,50.3139566 C126.429047,50.1798607 126.511088,50.0444894 126.645184,50.0115961 C127.33459,49.8424872 128.014326,49.7541361 128.686968,49.7501417 C128.825036,49.7493218 128.937628,49.860584 128.938448,49.9986527 C128.939268,50.1367215 128.828006,50.249313 128.689937,50.2501329 C128.057499,50.2538886 127.416615,50.3371897 126.764301,50.4972001 Z M130.689534,50.5140983 C130.556412,50.4774625 130.478194,50.3398466 130.51483,50.2067246 C130.551466,50.0736026 130.689082,49.995385 130.822204,50.0320208 C130.902918,50.0542338 130.983522,50.0777752 131.064016,50.102651 C131.478189,50.2306457 131.895374,50.3601519 132.674347,50.6021267 C132.806215,50.6430494 132.87994,50.7831235 132.839017,50.9149907 C132.798094,51.046858 132.65802,51.1205831 132.526153,51.0796603 C131.74703,50.8376393 131.330205,50.7082449 130.916386,50.5803596 C130.840853,50.5570168 130.765236,50.5349319 130.689534,50.5140983 Z M134.439862,51.6673397 C134.307666,51.6274903 134.232805,51.4880203 134.272654,51.3558247 C134.312504,51.223629 134.451974,51.1487676 134.584169,51.188617 C135.301083,51.4047254 135.918033,51.5839223 136.499096,51.7436718 C136.632227,51.7802732 136.710481,51.9178688 136.673879,52.0510003 C136.637278,52.1841318 136.499682,52.2623849 136.366551,52.2257836 C135.781158,52.0648438 135.160413,51.8845446 134.439862,51.6673397 Z M138.318492,52.7201948 C138.183902,52.6893824 138.099775,52.5552978 138.130587,52.4207087 C138.1614,52.2861195 138.295484,52.2019919 138.430073,52.2328044 C139.082726,52.382221 139.724297,52.5114656 140.377537,52.6242538 C140.513595,52.6477455 140.604848,52.7770861 140.581357,52.9131442 C140.557865,53.0492022 140.428524,53.1404553 140.292466,53.1169635 C139.630212,53.002619 138.97981,52.8715953 138.318492,52.7201948 Z M142.287371,53.4070882 C142.150279,53.3906723 142.052452,53.2662297 142.068868,53.1291379 C142.085284,52.9920461 142.209726,52.8942189 142.346818,52.9106348 C142.974794,52.9858311 143.631162,53.050084 144.327081,53.1042675 C144.464735,53.1149852 144.567638,53.2352646 144.55692,53.3729192 C144.546203,53.5105738 144.425923,53.6134765 144.288269,53.6027589 C143.585595,53.5480494 142.922359,53.4831241 142.287371,53.4070882 Z M146.290772,53.7263254 C146.152855,53.7198086 146.046334,53.6027216 146.05285,53.4648043 C146.059367,53.326887 146.176454,53.2203658 146.314371,53.2268826 C146.941766,53.256528 147.60416,53.2801865 148.307606,53.2980634 C148.445632,53.3015711 148.554681,53.4163074 148.551174,53.554334 C148.547666,53.6923606 148.43293,53.8014097 148.294903,53.797902 C147.587919,53.7799352 146.921904,53.7561473 146.290772,53.7263254 Z M150.29904,53.8323367 C150.160976,53.8309826 150.05015,53.7179614 150.051504,53.5798969 C150.052858,53.4418324 150.165879,53.3310066 150.303944,53.3323607 C150.844624,53.3376636 151.408971,53.3403039 151.999407,53.3403056 C152.137478,53.340306 152.249406,53.4522352 152.249406,53.5903064 C152.249405,53.7283776 152.137476,53.840306 151.999405,53.8403056 C151.407372,53.8403039 150.841394,53.837656 150.29904,53.8323367 Z" id="Stroke-146" fill="#242424" fill-rule="nonzero"></path>
                </g>
            </g>
        </g>
    </g>
</svg>