<?xml version="1.0" encoding="UTF-8"?>
<svg width="15px" height="14px" viewBox="0 0 15 14" version="1.1" xmlns="http://www.w3.org/2000/svg" xmlns:xlink="http://www.w3.org/1999/xlink">
    <!-- Generator: Sketch 49.2 (51160) - http://www.bohemiancoding.com/sketch -->
    <title>提示</title>
    <desc>Created with Sketch.</desc>
    <defs></defs>
    <g id="Page-1" stroke="none" stroke-width="1" fill="none" fill-rule="evenodd">
        <g id="个人中心-会员-季卡-copy" transform="translate(-15.000000, -82.000000)" fill="#BD8846" fill-rule="nonzero">
            <g id="提示" transform="translate(15.000000, 82.000000)">
                <path d="M9,1.25070216 L4.30277564,4.38218507 L1,4.38218507 L1,9.38218507 L4.30277564,9.38218507 L9,12.513668 L9,1.25070216 Z M8.4452998,0.418651865 C8.90482849,0.112299406 9.52569784,0.236473275 9.83205029,0.696001963 C9.94156197,0.860269481 10,1.05327717 10,1.25070216 L10,12.513668 C10,13.0659527 9.55228475,13.513668 9,13.513668 C8.80257501,13.513668 8.60956732,13.4552299 8.4452998,13.3457183 L4,10.3821851 L1,10.3821851 C0.44771525,10.3821851 0,9.93446982 0,9.38218507 L0,4.38218507 C0,3.82990032 0.44771525,3.38218507 1,3.38218507 L4,3.38218507 L8.4452998,0.418651865 Z" id="Combined-Shape"></path>
                <path d="M12,7.5 C11.7238576,7.5 11.5,7.27614237 11.5,7 C11.5,6.72385763 11.7238576,6.5 12,6.5 L14,6.5 C14.2761424,6.5 14.5,6.72385763 14.5,7 C14.5,7.27614237 14.2761424,7.5 14,7.5 L12,7.5 Z" id="Path-102"></path>
                <path d="M12.2236068,4.4472136 C11.9766175,4.57070822 11.676281,4.47059605 11.5527864,4.2236068 C11.4292918,3.97661755 11.529404,3.67628103 11.7763932,3.5527864 L13.7763932,2.5527864 C14.0233825,2.42929178 14.323719,2.52940395 14.4472136,2.7763932 C14.5707082,3.02338245 14.470596,3.32371897 14.2236068,3.4472136 L12.2236068,4.4472136 Z" id="Path-102-Copy"></path>
                <path d="M11.7763932,10.4472136 C11.529404,10.323719 11.4292918,10.0233825 11.5527864,9.7763932 C11.676281,9.52940395 11.9766175,9.42929178 12.2236068,9.5527864 L14.2236068,10.5527864 C14.470596,10.676281 14.5707082,10.9766175 14.4472136,11.2236068 C14.323719,11.470596 14.0233825,11.5707082 13.7763932,11.4472136 L11.7763932,10.4472136 Z" id="Path-102-Copy-2"></path>
            </g>
        </g>
    </g>
</svg>