<?xml version="1.0" encoding="UTF-8"?>
<svg width="30px" height="14px" viewBox="0 0 30 14" version="1.1" xmlns="http://www.w3.org/2000/svg" xmlns:xlink="http://www.w3.org/1999/xlink">
    <!-- Generator: Sketch 49.2 (51160) - http://www.bohemiancoding.com/sketch -->
    <title>衣位个数</title>
    <desc>Created with Sketch.</desc>
    <defs></defs>
    <g id="Symbols" stroke="none" stroke-width="1" fill="none" fill-rule="evenodd">
        <g id="衣位个数">
            <g>
                <rect id="Rectangle-4" fill="#D67D6B" opacity="0.600000024" x="0" y="0" width="30" height="14" rx="7"></rect>
                <path d="M7.66445441,3.64442434 L8.39450675,3.64442434 L8.65145314,3.32731971 C8.91772416,2.99870731 9.42010853,2.90321914 9.81372655,3.10640648 C10.2247069,3.31855634 10.4295651,3.74665404 10.3168172,4.15772881 L9.57804507,6.15587523 L11.7634663,8.73379587 C11.9489852,8.95263379 12.0303068,9.22775895 11.9898285,9.49961834 C11.904798,10.0706969 11.3162323,10.4722361 10.6752302,10.3964811 L10.0427188,10.3217297 C8.88502524,11.2287751 7.17351497,11.2234012 6.03890823,10.3217297 L5.17082723,10.3217297 C4.89270295,10.3217297 4.62366173,10.2335213 4.41188405,10.072901 C3.91951745,9.69947141 3.86016589,9.04114521 4.27931863,8.60248828 L6.61714689,6.15587523 L5.85396098,4.18290999 C5.73292627,3.75973157 5.94815777,3.31715009 6.37747468,3.10640648 C6.78046475,2.90858622 7.28713848,3.03854918 7.51036514,3.39699545 L7.66445441,3.64442434 Z" id="Mask" fill="#FFFFFF"></path>
                <polygon id="Combined-Shape" fill="#FFFFFF" points="15.7930995 5.98666885 16.5862822 4.61283619 17.4270741 5.09826764 16.3536275 6.95753175 17.4270741 8.81679587 16.5862822 9.30222732 15.7930995 7.92839466 14.9999168 9.30222732 14.1591249 8.81679587 15.2325716 6.95753175 14.1591249 5.09826764 14.9999168 4.61283619 15.7930995 5.98666885"></polygon>
            </g>
        </g>
    </g>
</svg>