<?xml version="1.0" encoding="UTF-8"?>
<svg width="13px" height="13px" viewBox="0 0 13 13" version="1.1" xmlns="http://www.w3.org/2000/svg" xmlns:xlink="http://www.w3.org/1999/xlink">
    <!-- Generator: Sketch 49.2 (51160) - http://www.bohemiancoding.com/sketch -->
    <title>奖励金</title>
    <desc>Created with Sketch.</desc>
    <defs></defs>
    <g id="Page-1" stroke="none" stroke-width="1" fill="none" fill-rule="evenodd">
        <g id="2.评价-拿到奖励金" transform="translate(-132.000000, -437.000000)" fill="#E3B356" fill-rule="nonzero">
            <g id="Group-6" transform="translate(132.000000, 435.000000)">
                <g id="奖励金" transform="translate(0.000000, 2.000000)">
                    <path d="M7,9 L7,8 L9,8 L9,7 L7.70710678,7 L8.91421356,5.79289322 L8.20710678,5.08578644 L6.5,6.79289322 L4.79289322,5.08578644 L4.08578644,5.79289322 L5.29289322,7 L4,7 L4,8 L6,8 L6,9 L4,9 L4,10 L6,10 L6,11 L7,11 L7,10 L9,10 L9,9 L7,9 Z M9.02832048,3.70290455 C9.22248074,3.79942912 9.42145682,3.88757875 9.60959368,3.99344348 C11.2472471,4.91448653 12.2947232,6.2688113 12.783914,8.02314521 C12.9851888,8.74520571 13,9.59493414 13,10.2870436 C13,10.9790964 12.7398005,11.6156475 12.4974094,11.9565211 C12.0206,12.6271113 11.3633214,12.9953951 10.5096564,12.99663 C7.85217049,13.0006188 5.19458277,12.9941034 2.5370969,12.9999942 C1.40938149,13.0024641 0.529964251,12.2158315 0.196785528,11.2075047 C-0.0390002534,10.4940178 -0.0172636153,9.89817741 0.0311418699,9.23386131 C0.206067974,6.83136496 1.70020723,4.71923721 3.91206292,3.74709293 C3.93612745,3.73648942 3.9596973,3.72492067 3.98352903,3.71380615 C3.8879111,3.61729578 3.79344257,3.52673303 3.70454641,3.43140083 C3.27153047,2.96677702 3.02038064,2.42784348 2.93848269,1.80506133 C2.844116,1.08721668 3.37593617,0.561555275 4.01879651,0.433844763 C4.35808593,0.366462102 4.68854394,0.396413106 5.00475819,0.536260162 C5.05202883,0.557154891 5.07827575,0.548964498 5.11467807,0.516486822 C5.89387981,-0.17797901 7.13628726,-0.171406823 7.91022215,0.531930752 C7.95178947,0.569717279 7.97949132,0.557580734 8.02118958,0.540901858 C8.62246806,0.300215024 9.1916508,0.348761201 9.69333939,0.758749277 C10.0645354,1.06204932 10.1784127,1.42703992 10.079332,2.02728075 C10.0261689,2.21734896 10.0072112,2.30649224 9.9305219,2.51122367 C9.77240023,2.93363219 9.46983321,3.29162475 9.13275528,3.60112792 C9.09990298,3.63117829 9.06661421,3.66077442 9.02832048,3.70290455 Z" id="Combined-Shape"></path>
                </g>
            </g>
        </g>
    </g>
</svg>