<?xml version="1.0" encoding="UTF-8"?>
<svg width="70px" height="23px" viewBox="0 0 70 23" version="1.1" xmlns="http://www.w3.org/2000/svg" xmlns:xlink="http://www.w3.org/1999/xlink">
    <!-- Generator: Sketch 49.2 (51160) - http://www.bohemiancoding.com/sketch -->
    <title>有奖气泡</title>
    <desc>Created with Sketch.</desc>
    <defs></defs>
    <g id="Page-1" stroke="none" stroke-width="1" fill="none" fill-rule="evenodd">
        <g id="T01.状态5.已签收.未评价.评价有礼" transform="translate(-106.000000, -349.000000)">
            <g id="有奖气泡" transform="translate(106.000000, 349.000000)">
                <path d="M15.699787,20 L10.9457969,22.650256 L11.2235684,20 L10,20 C4.4771525,20 2.45271059e-15,15.5228475 1.77635684e-15,10 C-6.76353751e-16,4.4771525 4.4771525,1.01453063e-15 10,0 L59.6666667,0 C65.1895142,-1.01453063e-15 69.6666667,4.4771525 69.6666667,10 C69.6666667,15.5228475 65.1895142,20 59.6666667,20 L15.699787,20 Z" id="Combined-Shape" fill="#E85C40"></path>
                <path d="M9.155,6.146 L13.72,6.146 L13.72,6.949 L9.892,6.949 L9.628,9.578 L9.672,9.578 C9.892,9.314 10.178,9.116 10.519,8.984 C10.827,8.852 11.157,8.797 11.52,8.797 C12.268,8.797 12.873,9.028 13.335,9.501 C13.797,9.985 14.039,10.645 14.039,11.492 C14.039,12.284 13.753,12.933 13.192,13.439 C12.664,13.912 12.004,14.154 11.234,14.154 C10.541,14.154 9.947,13.967 9.463,13.593 C8.913,13.175 8.616,12.603 8.561,11.888 L9.452,11.888 C9.496,12.383 9.694,12.768 10.046,13.032 C10.354,13.263 10.761,13.384 11.245,13.384 C11.795,13.384 12.246,13.208 12.609,12.856 C12.961,12.504 13.148,12.053 13.148,11.503 C13.148,10.876 12.972,10.392 12.642,10.051 C12.323,9.699 11.872,9.534 11.3,9.534 C10.926,9.534 10.596,9.611 10.299,9.776 C9.991,9.93 9.749,10.172 9.595,10.48 L8.737,10.48 L9.155,6.146 Z M16.9100001,5.629 L24.5110001,5.629 L24.5110001,6.399 L16.9100001,6.399 L16.9100001,5.629 Z M16.0630001,8.863 L25.4680001,8.863 L25.4680001,9.633 L22.4320001,9.633 L22.4320001,13.736 C22.4320001,14.044 22.5860001,14.209 22.9160001,14.209 L24.1370001,14.209 C24.3790001,14.209 24.5440001,14.121 24.6320001,13.956 C24.7640001,13.758 24.8410001,13.164 24.8850001,12.174 L25.6110001,12.405 C25.5340001,13.604 25.3910001,14.33 25.1710001,14.583 C24.9840001,14.803 24.6870001,14.924 24.2910001,14.924 L22.6960001,14.924 C22.0030001,14.924 21.6620001,14.583 21.6620001,13.901 L21.6620001,9.633 L19.6820001,9.633 L19.6820001,9.798 C19.6490001,11.228 19.3520001,12.383 18.8020001,13.252 C18.2520001,14.055 17.3720001,14.682 16.1510001,15.133 L15.7220001,14.462 C16.9100001,14.022 17.7350001,13.45 18.2080001,12.724 C18.6480001,11.976 18.8900001,10.997 18.9120001,9.798 L18.9120001,9.633 L16.0630001,9.633 L16.0630001,8.863 Z M27.6790002,11.151 L32.0240002,11.151 C32.0570002,10.887 32.0790002,10.579 32.0900002,10.227 L32.8600002,10.227 C32.8600002,10.557 32.8380002,10.865 32.8050002,11.151 L37.1610002,11.151 L37.1610002,11.921 L32.9920002,11.921 C33.7180002,13.098 35.1810002,13.901 37.3920002,14.319 L37.0730002,15.056 C34.6420002,14.528 33.1130002,13.604 32.4750002,12.295 C31.8040002,13.582 30.2310002,14.517 27.7450002,15.089 L27.4150002,14.352 C29.7690002,13.857 31.2320002,13.043 31.7930002,11.921 L27.6790002,11.921 L27.6790002,11.151 Z M30.6160002,5.068 L31.4300002,5.068 L31.4300002,10.139 L30.6160002,10.139 L30.6160002,8.566 C29.8240002,8.984 28.9110002,9.369 27.8660002,9.71 L27.5470002,8.984 C28.7240002,8.632 29.7470002,8.225 30.6160002,7.763 L30.6160002,5.068 Z M28.2290002,5.53 C28.9000002,5.86 29.5160002,6.256 30.0660002,6.74 L29.6370002,7.4 C29.0430002,6.872 28.4270002,6.454 27.8000002,6.157 L28.2290002,5.53 Z M33.8720002,5.024 L34.6750002,5.123 C34.5650002,5.387 34.4440002,5.651 34.2900002,5.893 L36.9520002,5.893 L36.9520002,6.564 C36.4020002,8.236 34.8950002,9.402 32.4090002,10.084 L32.0240002,9.391 C32.8820002,9.171 33.6080002,8.896 34.2240002,8.566 C33.8720002,8.214 33.5420002,7.906 33.2120002,7.653 L33.7620002,7.246 C34.1250002,7.543 34.4660002,7.862 34.7960002,8.203 C35.4120002,7.752 35.8740002,7.224 36.1600002,6.619 L33.7400002,6.619 C33.3330002,7.059 32.8380002,7.455 32.2440002,7.818 L31.7600002,7.18 C32.7940002,6.586 33.4980002,5.871 33.8720002,5.024 Z M41.4730003,8.214 L40.3950003,8.214 L40.3950003,9.941 C40.3620003,12.086 40.0760003,13.802 39.5370003,15.1 L38.9760003,14.594 C39.4160003,13.483 39.6470003,11.932 39.6690003,9.941 L39.6690003,5.464 L44.5750003,5.464 L44.5750003,6.19 L40.3950003,6.19 L40.3950003,7.488 L44.2890003,7.488 L44.2890003,8.214 L42.1770003,8.214 L42.1770003,9.842 L44.2230003,9.842 C44.2010003,11.987 44.1130003,13.373 43.9810003,13.989 C43.8380003,14.616 43.4640003,14.935 42.8590003,14.957 C42.6610003,14.957 42.4410003,14.935 42.1990003,14.913 L41.9900003,14.253 C42.2980003,14.275 42.5620003,14.297 42.7710003,14.297 C43.1010003,14.275 43.2990003,14.033 43.3760003,13.56 C43.4420003,13.098 43.4750003,12.086 43.4860003,10.524 L42.1660003,10.524 C42.0780003,12.548 41.6380003,14.055 40.8680003,15.045 L40.3070003,14.561 C41.0660003,13.593 41.4510003,12.053 41.4730003,9.919 L41.4730003,8.214 Z M45.9390003,5.057 L46.7090003,5.057 L46.7090003,7.378 L48.6780003,7.378 C48.6780003,10.832 48.6120003,12.955 48.5020003,13.747 C48.3920003,14.55 47.8970003,14.957 47.0170003,14.957 C46.8520003,14.957 46.5660003,14.946 46.1700003,14.924 L46.0050003,14.253 C46.3460003,14.275 46.6430003,14.297 46.9070003,14.297 C47.4020003,14.297 47.6990003,14.033 47.7870003,13.516 C47.8750003,12.944 47.9300003,11.14 47.9410003,8.104 L46.6980003,8.104 C46.6320003,11.272 45.9940003,13.615 44.7840003,15.111 L44.2230003,14.616 C45.3120003,13.241 45.8840003,11.074 45.9390003,8.104 L44.6850003,8.104 L44.6850003,7.378 L45.9390003,7.378 L45.9390003,5.057 Z M52.8580003,8.159 C52.3300003,8.478 51.7800003,8.775 51.2080003,9.039 L50.7460003,8.379 C52.6600003,7.521 54.2220003,6.432 55.4320003,5.101 L56.0700003,5.101 C57.1260003,6.41 58.6770003,7.488 60.7230003,8.346 L60.2720003,9.006 C59.6890003,8.764 59.1500003,8.489 58.6440003,8.192 L58.6440003,8.797 L56.1470003,8.797 L56.1470003,10.381 L60.0630003,10.381 L60.0630003,11.118 L56.1470003,11.118 L56.1470003,14.055 L57.3680003,14.055 C57.7420003,13.34 58.0720003,12.57 58.3580003,11.745 L59.0840003,11.998 C58.8090003,12.768 58.5010003,13.461 58.1710003,14.055 L60.4480003,14.055 L60.4480003,14.814 L51.0430003,14.814 L51.0430003,14.055 L53.3200003,14.055 C53.0890003,13.351 52.7920003,12.702 52.4400003,12.086 L53.1550003,11.822 C53.4960003,12.438 53.8040003,13.186 54.0900003,14.055 L55.3550003,14.055 L55.3550003,11.118 L51.4280003,11.118 L51.4280003,10.381 L55.3550003,10.381 L55.3550003,8.797 L52.8580003,8.797 L52.8580003,8.159 Z M58.4570003,8.082 C57.3790003,7.444 56.4770003,6.696 55.7510003,5.849 C54.9260003,6.707 54.0020003,7.455 52.9790003,8.082 L58.4570003,8.082 Z" id="5元奖励金" fill="#FFFFFF"></path>
            </g>
        </g>
    </g>
</svg>