<?xml version="1.0" encoding="UTF-8"?>
<svg width="20px" height="25px" viewBox="0 0 20 25" version="1.1" xmlns="http://www.w3.org/2000/svg" xmlns:xlink="http://www.w3.org/1999/xlink">
    <!-- Generator: Sketch 49.2 (51160) - http://www.bohemiancoding.com/sketch -->
    <title>红包-打开</title>
    <desc>Created with Sketch.</desc>
    <defs></defs>
    <g id="Page-1" stroke="none" stroke-width="1" fill="none" fill-rule="evenodd">
        <g id="2.评价-拿到奖励金" transform="translate(-311.000000, -393.000000)">
            <g id="红包-打开" transform="translate(311.000000, 393.000000)">
                <g id="红包">
                    <path d="M10.5,0 L10.5,0 C12.1007231,-2.94048066e-16 13.6358848,0.635884782 14.767767,1.76776695 L20,7 L20,13.0141602 L0,13.0141602 L0,7 L6.11855826,1.64626152 C7.33145724,0.584974918 8.88833838,2.96057436e-16 10.5,0 Z" id="Rectangle-95" fill="#CC381A"></path>
                    <rect id="Rectangle-97" fill="#FFDA47" x="2" y="3" width="16" height="13" rx="1"></rect>
                    <path d="M10.0000162,13 C7.79597588,13 6,11.201442 6,8.99416063 C6,6.7869117 7.79597588,5 10.0000162,5 C12.2040565,5 14,6.79859044 14,9.00583937 C14,11.2130883 12.2040565,13 10.0000162,13" id="Fill-12" fill="#E94929"></path>
                    <polygon id="Fill-14" fill="#FFDA47" points="12 10.7415815 12 9.87655915 10.4216398 9.87655915 10.4216398 8.83833403 12 8.83833403 12 7.97319149 11.5676244 7.97319149 11.805494 7 10.9081299 7 10.6703504 7.97319149 9.42703774 7.97319149 9.15676544 7 8.25949144 7 8.52976374 7.97319149 8.01078086 7.97319149 8.01078086 8.83833403 9.55676844 8.83833403 9.55676844 9.87655915 8 9.87655915 8 10.7415815 9.54598758 10.7415815 9.54598758 12.0501543 10.4108589 12.0501543 10.4108589 10.7415815"></polygon>
                    <path d="M3.33332718e-06,10.7490448 C2.24922224,12.7032435 6.09948524,14 10.0119977,14 C13.9106357,14 17.7474649,12.7124242 20.0000033,10.7698098 L20.0000033,23.5360599 C20.0000033,24.3467741 19.3511925,25.0000034 18.5581755,25.0000034 L1.44169763,25.0000034 C0.648814158,25.0000034 3.33333508e-06,24.3467741 3.33333508e-06,23.5481923 L3.33333508e-06,10.7490448 Z" id="Combined-Shape" fill="#E94929"></path>
                </g>
            </g>
        </g>
    </g>
</svg>