<?xml version="1.0" encoding="UTF-8"?>
<svg width="20px" height="24px" viewBox="0 0 20 24" version="1.1" xmlns="http://www.w3.org/2000/svg" xmlns:xlink="http://www.w3.org/1999/xlink">
    <!-- Generator: Sketch 49.2 (51160) - http://www.bohemiancoding.com/sketch -->
    <title>红包</title>
    <desc>Created with Sketch.</desc>
    <defs>
        <polygon id="path-1" points="3.70370253e-06 0.395223425 19.9733704 0.395223425 19.9733704 17.3333333 3.70370253e-06 17.3333333"></polygon>
        <polygon id="path-3" points="0 -5.62051917 19.9733667 -5.62051917 19.9733667 7.67042565 0 7.67042565"></polygon>
        <polygon id="path-5" points="0 -5.96447692 19.9733667 -5.96447692 19.9733667 7.28954861 0 7.28954861"></polygon>
    </defs>
    <g id="Page-1" stroke="none" stroke-width="1" fill="none" fill-rule="evenodd">
        <g id="2.评价-未评" transform="translate(-309.000000, -397.000000)">
            <g id="红包" transform="translate(309.000000, 403.000000)">
                <mask id="mask-2" fill="white">
                    <use xlink:href="#path-1"></use>
                </mask>
                <g id="Clip-2"></g>
                <path d="M18.373263,17.3333371 L1.59996667,17.3333371 C0.720040741,17.3333371 3.70370253e-06,16.6075267 3.70370253e-06,15.7202136 L3.70370253e-06,0.664083557 L2.18663333,0.664083557 L17.7865963,0.395223425 L19.9733741,0.395223425 L19.9733741,15.7067333 C19.9733741,16.6075267 19.253337,17.3333371 18.373263,17.3333371" id="Fill-1" fill="#E94929" mask="url(#mask-2)"></path>
                <mask id="mask-4" fill="white">
                    <use xlink:href="#path-3"></use>
                </mask>
                <g id="Clip-5"></g>
                <path d="M13.4399593,5.05496829 C13.4399593,5.05496829 12.8133667,7.67042565 9.94662593,7.67042565 C7.0799963,7.67042565 5.86658889,4.97490214 5.86658889,4.97490214 C3.57332963,4.54791971 2.2934037,3.80063558 0.679959259,2.85307487 L-3.70370253e-06,2.45270702 L-3.70370253e-06,-4.01919605 C-3.70370253e-06,-4.8999979 0.720033333,-5.62051917 1.59995926,-5.62051917 L18.3732556,-5.62051917 C19.2533296,-5.62051917 19.9733667,-4.8999979 19.9733667,-4.01919605 L19.9733667,2.15920525 L19.466737,2.47950694 C19.3599593,2.54626581 19.2400333,2.62633196 19.1334037,2.69294256 C17.426663,3.78714295 16.0799963,4.65463751 13.4399593,5.05496829" id="Fill-4" fill="#DB3314" mask="url(#mask-4)"></path>
                <path d="M10.0000184,8.94791667 C7.49542714,8.94791667 5.45454545,6.89877832 5.45454545,4.38400903 C5.45454545,1.86920279 7.49542714,-0.166666667 10.0000184,-0.166666667 C12.5046097,-0.166666667 14.5454545,1.88247168 14.5454545,4.39727793 C14.5454545,6.91204721 12.5046097,8.94791667 10.0000184,8.94791667" id="Fill-7" fill="#DB3314" mask="url(#mask-4)"></path>
                <mask id="mask-6" fill="white">
                    <use xlink:href="#path-5"></use>
                </mask>
                <g id="Clip-10"></g>
                <path d="M13.4399593,4.68135641 C13.4399593,4.68135641 12.8133667,7.28954861 9.94662593,7.28954861 C7.0799963,7.28954861 5.86658889,4.58820537 5.86658889,4.58820537 C3.57332963,4.17567933 2.2934037,3.41720067 0.679959259,2.47227206 L-3.70370253e-06,2.07316421 L-3.70370253e-06,-4.36763889 C-3.70370253e-06,-5.24584621 0.720033333,-5.96447692 1.59995926,-5.96447692 L18.3732556,-5.96447692 C19.2533296,-5.96447692 19.9733667,-5.24584621 19.9733667,-4.36763889 L19.9733667,1.79363715 L19.466737,2.11304912 C19.3599593,2.17958558 19.2400333,2.25942933 19.1334037,2.32600275 C17.426663,3.41720067 16.0799963,4.26883037 13.4399593,4.68135641" id="Fill-9" fill="#FF5B43" mask="url(#mask-6)"></path>
                <path d="M10.0000184,8.40104167 C7.49542714,8.40104167 5.45454545,6.35190332 5.45454545,3.83709707 C5.45454545,1.32232779 7.49542714,-0.713541667 10.0000184,-0.713541667 C12.5046097,-0.713541667 14.5454545,1.33563364 14.5454545,3.85040293 C14.5454545,6.36517221 12.5046097,8.40104167 10.0000184,8.40104167" id="Fill-12" fill="#FFDA47" mask="url(#mask-6)"></path>
                <polygon id="Fill-14" fill="#F15328" mask="url(#mask-6)" points="12.3636364 5.70131598 12.3636364 4.6396976 10.4265579 4.6396976 10.4265579 3.36551222 12.3636364 3.36551222 12.3636364 2.30374637 11.8329936 2.30374637 12.1249245 1.109375 11.023614 1.109375 10.7317936 2.30374637 9.20590995 2.30374637 8.87421213 1.109375 7.77301222 1.109375 8.10471004 2.30374637 7.46777651 2.30374637 7.46777651 3.36551222 9.36512491 3.36551222 9.36512491 4.6396976 7.45454545 4.6396976 7.45454545 5.70131598 9.35189385 5.70131598 9.35189385 7.30729167 10.4133269 7.30729167 10.4133269 5.70131598"></polygon>
            </g>
        </g>
    </g>
</svg>