<?xml version="1.0" encoding="UTF-8"?>
<svg width="325px" height="210px" viewBox="0 0 325 210" version="1.1" xmlns="http://www.w3.org/2000/svg" xmlns:xlink="http://www.w3.org/1999/xlink">
    <!-- Generator: Sketch 49.2 (51160) - http://www.bohemiancoding.com/sketch -->
    <title>裙子线性@1x</title>
    <desc>Created with Sketch.</desc>
    <defs></defs>
    <g id="Page-1" stroke="none" stroke-width="1" fill="none" fill-rule="evenodd">
        <g id="H051-查看尺码-连衣裙" transform="translate(-25.000000, -574.000000)">
            <g id="尺码图示" transform="translate(0.000000, 511.000000)">
                <g id="连衣裙示意图" transform="translate(25.000000, 63.000000)">
                    <g id="裙子图示" transform="translate(228.000000, 17.000000)">
                        <path d="M35.792,29.936 L28.604,29.936 L28.604,31.352 L35.792,31.352 L35.792,29.936 Z M28.604,32.132 L28.604,33.032 C28.592,35.408 28.088,37.46 27.104,39.164 L26.468,38.588 C27.308,37.148 27.728,35.3 27.74,33.032 L27.74,29.12 L31.88,29.12 C31.76,28.808 31.616,28.508 31.472,28.244 L32.408,28.1 C32.54,28.4 32.672,28.736 32.792,29.12 L36.632,29.12 L36.632,32.132 L28.604,32.132 Z M30.476,35.576 L30.476,36.548 L35.492,36.548 L35.492,35.576 L30.476,35.576 Z M35.492,34.868 L35.492,33.896 L30.476,33.896 L30.476,34.868 L35.492,34.868 Z M30.476,37.256 L30.476,39.116 L29.636,39.116 L29.636,33.128 L36.332,33.128 L36.332,38.096 C36.332,38.768 35.984,39.104 35.3,39.104 L33.956,39.104 L33.74,38.324 L35.036,38.36 C35.336,38.36 35.492,38.204 35.492,37.916 L35.492,37.256 L30.476,37.256 Z M40.064,31.184 L41.888,31.184 L41.888,30.428 L42.692,30.428 L42.692,31.184 L45.332,31.184 L45.332,30.416 L46.136,30.416 L46.136,31.184 L47.972,31.184 L47.972,29.936 L40.004,29.936 L40.004,31.28 L39.164,31.28 L39.164,29.12 L43.58,29.12 C43.388,28.808 43.184,28.52 42.968,28.256 L43.928,28.088 C44.12,28.4 44.312,28.736 44.504,29.12 L48.812,29.12 L48.812,31.328 L47.996,31.328 L47.996,31.976 L46.136,31.976 L46.136,32.876 L45.332,32.876 L45.332,31.976 L42.692,31.976 L42.692,32.876 L41.888,32.876 L41.888,31.976 L40.064,31.976 L40.064,31.184 Z M47.492,33.392 L47.492,37.088 L46.628,37.088 L46.628,34.184 L41.372,34.184 L41.372,37.088 L40.508,37.088 L40.508,33.392 L47.492,33.392 Z M43.424,34.772 L44.252,34.772 L44.252,35.576 C44.204,36.56 43.772,37.34 42.956,37.916 C42.14,38.456 40.832,38.876 39.008,39.188 L38.54,38.456 C40.364,38.192 41.624,37.832 42.344,37.376 C43.016,36.92 43.376,36.32 43.424,35.576 L43.424,34.772 Z M47.78,39.056 L45.356,39.056 C44.684,39.056 44.36,38.732 44.36,38.084 L44.36,35.972 L45.188,35.972 L45.188,37.904 C45.188,38.144 45.32,38.264 45.608,38.264 L47.624,38.264 C47.876,38.264 48.056,38.204 48.176,38.096 C48.32,37.952 48.404,37.544 48.452,36.848 L49.244,37.088 C49.16,38.024 49.004,38.588 48.764,38.804 C48.548,38.972 48.224,39.056 47.78,39.056 Z" id="肩宽" fill="#5E5E5E"></path>
                        <path d="M27.908,58.36 L27.908,60.388 L29.456,60.388 L29.456,58.36 L27.908,58.36 Z M29.456,57.58 L29.456,55.468 L27.908,55.468 L27.908,57.58 L29.456,57.58 Z M27.884,61.168 C27.812,62.8 27.548,64.144 27.08,65.2 L26.468,64.636 C26.876,63.532 27.08,62.128 27.092,60.424 L27.092,54.676 L30.272,54.676 L30.272,64.144 C30.272,64.78 29.96,65.104 29.336,65.104 L28.46,65.104 L28.256,64.312 C28.556,64.336 28.832,64.348 29.084,64.348 C29.324,64.348 29.456,64.18 29.456,63.856 L29.456,61.168 L27.884,61.168 Z M34.604,62.56 L34.604,61.66 L34.04,61.936 C33.8,61.432 33.56,60.952 33.32,60.508 C33.008,61.072 32.66,61.564 32.276,61.984 L31.808,61.552 C32.24,61.024 32.612,60.46 32.948,59.836 C32.564,59.164 32.156,58.54 31.748,57.976 L32.324,57.724 C32.66,58.18 32.984,58.66 33.272,59.152 C33.512,58.588 33.728,57.988 33.896,57.352 L34.496,57.496 C34.256,58.36 33.98,59.14 33.668,59.824 C34.004,60.4 34.316,61 34.604,61.624 L34.604,58.744 L35.336,58.744 L35.336,63.256 L31.052,63.256 L31.052,58.744 L31.784,58.744 L31.784,62.56 L34.604,62.56 Z M32.168,54.136 L32.984,54.232 C32.876,54.7 32.744,55.144 32.588,55.564 L37.052,55.564 C37.052,59.908 36.992,62.584 36.872,63.592 C36.74,64.612 36.2,65.128 35.24,65.128 C35,65.128 34.58,65.104 33.98,65.08 L33.8,64.336 C34.304,64.36 34.736,64.384 35.108,64.384 C35.636,64.384 35.96,64.048 36.056,63.376 C36.152,62.632 36.212,60.292 36.224,56.368 L32.24,56.368 C31.856,57.136 31.388,57.82 30.824,58.42 L30.356,57.808 C31.244,56.8 31.856,55.576 32.168,54.136 Z M40.748,56.8 L43.52,56.8 L43.52,55.9 L44.36,55.9 L44.36,56.8 L47.204,56.8 L47.204,57.544 L44.36,57.544 L44.36,58.48 L46.652,58.48 L46.652,59.2 L44.36,59.2 L44.36,60.136 L47.276,60.136 C47.252,61.288 47.168,62.032 47.024,62.368 C46.844,62.752 46.412,62.956 45.728,62.98 C45.584,62.98 45.416,62.956 45.224,62.932 L44.984,62.224 C45.236,62.248 45.452,62.272 45.632,62.272 C46.028,62.26 46.268,62.14 46.352,61.924 C46.424,61.756 46.46,61.396 46.472,60.868 L44.36,60.868 L44.36,63.46 L43.52,63.46 L43.52,60.868 L40.592,60.868 L40.592,60.136 L43.52,60.136 L43.52,59.2 L41.288,59.2 L41.288,58.48 L43.52,58.48 L43.52,57.544 L40.748,57.544 L40.748,56.8 Z M48.92,54.676 L48.92,65.212 L48.08,65.212 L48.08,64.672 L39.92,64.672 L39.92,65.212 L39.08,65.212 L39.08,54.676 L48.92,54.676 Z M39.92,63.904 L48.08,63.904 L48.08,55.444 L39.92,55.444 L39.92,63.904 Z" id="胸围" fill="#5E5E5E"></path>
                        <path d="M28.256,108.968 L29.024,108.968 L29.024,108.332 L28.016,108.332 L28.016,108.416 C28.004,109.784 27.68,110.972 27.056,111.956 L26.444,111.404 C26.948,110.636 27.2,109.64 27.212,108.416 L27.212,106.544 L32.132,106.544 L32.132,108.332 L31.28,108.332 L31.28,108.968 L32.096,108.968 L32.096,109.496 L31.28,109.496 L31.28,110.252 L32.276,110.252 L32.276,110.792 L30.944,110.792 C31.4,111.08 31.796,111.368 32.108,111.656 L31.604,112.148 C31.328,111.86 30.956,111.536 30.476,111.2 L30.908,110.792 L29.204,110.792 L29.672,111.2 C29.18,111.656 28.58,112.064 27.872,112.412 L27.464,111.884 C28.148,111.572 28.724,111.2 29.18,110.792 L28.028,110.792 L28.028,110.252 L29.024,110.252 L29.024,109.496 L28.256,109.496 L28.256,108.968 Z M30.656,108.332 L29.648,108.332 L29.648,108.968 L30.656,108.968 L30.656,108.332 Z M29.648,110.252 L30.656,110.252 L30.656,109.496 L29.648,109.496 L29.648,110.252 Z M31.328,107.096 L28.016,107.096 L28.016,107.804 L31.328,107.804 L31.328,107.096 Z M32.9,109.604 L32.552,109.604 L32.552,108.98 L36.8,108.98 L36.8,109.52 C36.44,110.072 35.996,110.54 35.468,110.912 C35.996,111.14 36.62,111.332 37.316,111.476 L37.028,112.148 C36.14,111.932 35.384,111.668 34.772,111.344 C34.172,111.668 33.488,111.908 32.72,112.064 L32.396,111.416 C33.02,111.308 33.584,111.14 34.088,110.924 C33.56,110.54 33.164,110.096 32.9,109.604 Z M34.772,110.576 C35.216,110.312 35.6,109.988 35.936,109.604 L33.596,109.604 C33.884,109.964 34.28,110.288 34.772,110.576 Z M29.204,114.32 L29.204,115.076 L35.048,115.076 L35.048,114.32 L29.204,114.32 Z M35.048,113.72 L35.048,112.952 L29.204,112.952 L29.204,113.72 L35.048,113.72 Z M29.204,115.676 L29.204,117.224 L28.352,117.224 L28.352,112.28 L35.9,112.28 L35.9,116.228 C35.9,116.84 35.528,117.152 34.796,117.152 L33.368,117.152 L33.176,116.456 L34.568,116.492 C34.88,116.492 35.048,116.336 35.048,116.048 L35.048,115.676 L29.204,115.676 Z M33.128,106.556 L36.14,106.556 L36.14,107.588 C36.14,107.756 36.248,107.84 36.464,107.84 L37.172,107.84 L37.172,108.488 L36.272,108.488 C35.696,108.488 35.42,108.224 35.42,107.72 L35.42,107.192 L33.884,107.192 C33.86,107.48 33.776,107.756 33.644,107.996 C33.488,108.26 33.236,108.524 32.876,108.788 L32.3,108.26 C32.552,108.068 32.756,107.864 32.912,107.648 C33.056,107.432 33.128,107.072 33.128,106.556 Z M40.748,108.8 L43.52,108.8 L43.52,107.9 L44.36,107.9 L44.36,108.8 L47.204,108.8 L47.204,109.544 L44.36,109.544 L44.36,110.48 L46.652,110.48 L46.652,111.2 L44.36,111.2 L44.36,112.136 L47.276,112.136 C47.252,113.288 47.168,114.032 47.024,114.368 C46.844,114.752 46.412,114.956 45.728,114.98 C45.584,114.98 45.416,114.956 45.224,114.932 L44.984,114.224 C45.236,114.248 45.452,114.272 45.632,114.272 C46.028,114.26 46.268,114.14 46.352,113.924 C46.424,113.756 46.46,113.396 46.472,112.868 L44.36,112.868 L44.36,115.46 L43.52,115.46 L43.52,112.868 L40.592,112.868 L40.592,112.136 L43.52,112.136 L43.52,111.2 L41.288,111.2 L41.288,110.48 L43.52,110.48 L43.52,109.544 L40.748,109.544 L40.748,108.8 Z M48.92,106.676 L48.92,117.212 L48.08,117.212 L48.08,116.672 L39.92,116.672 L39.92,117.212 L39.08,117.212 L39.08,106.676 L48.92,106.676 Z M39.92,115.904 L48.08,115.904 L48.08,107.444 L39.92,107.444 L39.92,115.904 Z" id="臀围" fill="#5E5E5E"></path>
                        <path d="M27.872,84.276 L27.872,86.292 L29.3,86.292 L29.3,84.276 L27.872,84.276 Z M29.3,83.52 L29.3,81.456 L27.872,81.456 L27.872,83.52 L29.3,83.52 Z M27.86,87.06 C27.8,88.74 27.536,90.12 27.068,91.2 L26.408,90.6 C26.816,89.52 27.032,88.128 27.044,86.448 L27.044,80.652 L30.116,80.652 L30.116,90.084 C30.116,90.78 29.828,91.128 29.252,91.128 L28.388,91.128 L28.172,90.336 C28.46,90.36 28.736,90.372 28.988,90.372 C29.192,90.372 29.3,90.168 29.3,89.784 L29.3,87.06 L27.86,87.06 Z M30.572,80.664 L37.316,80.664 L37.316,81.432 L35.192,81.432 L35.192,82.596 L36.932,82.596 L36.932,85.632 L34.112,85.632 C33.968,85.992 33.824,86.328 33.68,86.64 L37.448,86.64 L37.448,87.408 L35.96,87.408 C35.78,88.224 35.432,88.896 34.928,89.424 C35.744,89.76 36.524,90.108 37.28,90.492 L36.812,91.188 C36.092,90.792 35.252,90.396 34.268,89.988 C33.488,90.492 32.336,90.9 30.8,91.212 L30.476,90.456 C31.7,90.24 32.66,89.964 33.356,89.616 C32.756,89.376 32.132,89.148 31.484,88.908 C31.832,88.38 32.144,87.888 32.408,87.408 L30.524,87.408 L30.524,86.64 L32.816,86.64 C32.984,86.292 33.14,85.956 33.272,85.632 L30.956,85.632 L30.956,82.596 L32.696,82.596 L32.696,81.432 L30.572,81.432 L30.572,80.664 Z M34.448,82.596 L34.448,81.432 L33.44,81.432 L33.44,82.596 L34.448,82.596 Z M34.112,89.112 C34.616,88.656 34.964,88.092 35.156,87.408 L33.284,87.408 C33.056,87.804 32.816,88.188 32.552,88.56 C33.08,88.728 33.596,88.92 34.112,89.112 Z M36.152,84.924 L36.152,83.304 L35.096,83.304 L35.096,84.924 L36.152,84.924 Z M34.484,84.924 L34.484,83.304 L33.428,83.304 L33.428,84.924 L34.484,84.924 Z M32.804,84.924 L32.804,83.304 L31.736,83.304 L31.736,84.924 L32.804,84.924 Z M40.748,82.8 L43.52,82.8 L43.52,81.9 L44.36,81.9 L44.36,82.8 L47.204,82.8 L47.204,83.544 L44.36,83.544 L44.36,84.48 L46.652,84.48 L46.652,85.2 L44.36,85.2 L44.36,86.136 L47.276,86.136 C47.252,87.288 47.168,88.032 47.024,88.368 C46.844,88.752 46.412,88.956 45.728,88.98 C45.584,88.98 45.416,88.956 45.224,88.932 L44.984,88.224 C45.236,88.248 45.452,88.272 45.632,88.272 C46.028,88.26 46.268,88.14 46.352,87.924 C46.424,87.756 46.46,87.396 46.472,86.868 L44.36,86.868 L44.36,89.46 L43.52,89.46 L43.52,86.868 L40.592,86.868 L40.592,86.136 L43.52,86.136 L43.52,85.2 L41.288,85.2 L41.288,84.48 L43.52,84.48 L43.52,83.544 L40.748,83.544 L40.748,82.8 Z M48.92,80.676 L48.92,91.212 L48.08,91.212 L48.08,90.672 L39.92,90.672 L39.92,91.212 L39.08,91.212 L39.08,80.676 L48.92,80.676 Z M39.92,89.904 L48.08,89.904 L48.08,81.444 L39.92,81.444 L39.92,89.904 Z" id="腰围" fill="#5E5E5E"></path>
                        <path d="M34.1,132.112 L34.94,132.4 C34.688,132.88 34.412,133.312 34.124,133.696 L37.364,133.696 L37.364,134.536 L26.624,134.536 L26.624,133.696 L29.912,133.696 C29.672,133.192 29.42,132.748 29.132,132.34 L30.044,132.184 C30.308,132.628 30.572,133.132 30.836,133.696 L33.176,133.696 C33.524,133.192 33.836,132.664 34.1,132.112 Z M30.788,143.128 L29.84,143.128 L29.612,142.276 L30.512,142.312 C30.824,142.312 30.98,142.108 30.98,141.712 L30.98,140.596 L28.304,140.596 L28.304,143.224 L27.464,143.224 L27.464,135.508 L31.82,135.508 L31.82,141.904 C31.82,142.72 31.472,143.128 30.788,143.128 Z M28.304,139.828 L30.98,139.828 L30.98,138.46 L28.304,138.46 L28.304,139.828 Z M28.304,137.692 L30.98,137.692 L30.98,136.312 L28.304,136.312 L28.304,137.692 Z M35.456,143.092 L33.86,143.092 L33.68,142.264 C34.184,142.3 34.676,142.324 35.156,142.324 C35.492,142.324 35.66,142.132 35.66,141.772 L35.66,135.172 L36.524,135.172 L36.524,141.988 C36.524,142.72 36.164,143.092 35.456,143.092 Z M33.164,136.072 L34.004,136.072 L34.004,141.244 L33.164,141.244 L33.164,136.072 Z M44.012,134.872 L43.916,134.872 C43.436,135.94 42.788,136.912 41.984,137.788 L41.984,141.976 C43.076,141.676 44.096,141.316 45.032,140.908 L45.188,141.76 C44.012,142.228 42.596,142.672 40.952,143.104 L40.748,142.276 C40.988,142.18 41.12,142.036 41.12,141.82 L41.12,138.628 C40.496,139.18 39.8,139.684 39.044,140.14 L38.588,139.396 C40.64,138.22 42.116,136.72 43.016,134.872 L38.864,134.872 L38.864,134.044 L43.652,134.044 C43.412,133.42 43.16,132.856 42.872,132.34 L43.796,132.196 C44.06,132.736 44.3,133.348 44.54,134.044 L49.136,134.044 L49.136,134.872 L44.852,134.872 C45.044,136.048 45.368,137.128 45.848,138.088 C46.652,137.644 47.408,136.972 48.128,136.06 L48.74,136.684 C47.996,137.596 47.168,138.304 46.232,138.784 C47,140.092 48.056,141.196 49.376,142.096 L48.836,142.984 C46.148,141.04 44.54,138.328 44.012,134.872 Z M50.732,136.852 L53.168,136.852 L53.168,132.256 L54.032,132.256 L54.032,136.852 L61.304,136.852 L61.304,137.692 L57.356,137.692 C57.86,139.612 59.228,141.112 61.448,142.192 L60.944,142.996 C58.52,141.712 57.056,139.948 56.528,137.692 L54.032,137.692 L54.032,142.036 C54.932,141.82 55.832,141.544 56.72,141.208 L56.948,142.036 C55.772,142.444 54.512,142.792 53.168,143.104 L52.892,142.312 C53.072,142.216 53.168,142.084 53.168,141.892 L53.168,137.692 L50.732,137.692 L50.732,136.852 Z M59.48,132.352 L60.068,132.94 C59.108,134.02 57.656,134.992 55.736,135.856 L55.22,135.172 C57.128,134.332 58.544,133.396 59.48,132.352 Z" id="前衣长" fill="#5E5E5E"></path>
                        <path d="M28.736,162.432 L28.736,162.744 C28.664,165.432 28.112,167.568 27.104,169.164 L26.468,168.504 C27.344,167.112 27.812,165.192 27.884,162.744 L27.884,159.144 C30.98,159.108 33.752,158.832 36.224,158.316 L36.656,159.096 C34.304,159.576 31.664,159.84 28.736,159.912 L28.736,161.592 L37.376,161.592 L37.376,162.432 L28.736,162.432 Z M36.428,164.112 L36.428,169.2 L35.564,169.2 L35.564,168.636 L30.704,168.636 L30.704,169.2 L29.84,169.2 L29.84,164.112 L36.428,164.112 Z M30.704,167.796 L35.564,167.796 L35.564,164.94 L30.704,164.94 L30.704,167.796 Z M44.012,160.872 L43.916,160.872 C43.436,161.94 42.788,162.912 41.984,163.788 L41.984,167.976 C43.076,167.676 44.096,167.316 45.032,166.908 L45.188,167.76 C44.012,168.228 42.596,168.672 40.952,169.104 L40.748,168.276 C40.988,168.18 41.12,168.036 41.12,167.82 L41.12,164.628 C40.496,165.18 39.8,165.684 39.044,166.14 L38.588,165.396 C40.64,164.22 42.116,162.72 43.016,160.872 L38.864,160.872 L38.864,160.044 L43.652,160.044 C43.412,159.42 43.16,158.856 42.872,158.34 L43.796,158.196 C44.06,158.736 44.3,159.348 44.54,160.044 L49.136,160.044 L49.136,160.872 L44.852,160.872 C45.044,162.048 45.368,163.128 45.848,164.088 C46.652,163.644 47.408,162.972 48.128,162.06 L48.74,162.684 C47.996,163.596 47.168,164.304 46.232,164.784 C47,166.092 48.056,167.196 49.376,168.096 L48.836,168.984 C46.148,167.04 44.54,164.328 44.012,160.872 Z M50.732,162.852 L53.168,162.852 L53.168,158.256 L54.032,158.256 L54.032,162.852 L61.304,162.852 L61.304,163.692 L57.356,163.692 C57.86,165.612 59.228,167.112 61.448,168.192 L60.944,168.996 C58.52,167.712 57.056,165.948 56.528,163.692 L54.032,163.692 L54.032,168.036 C54.932,167.82 55.832,167.544 56.72,167.208 L56.948,168.036 C55.772,168.444 54.512,168.792 53.168,169.104 L52.892,168.312 C53.072,168.216 53.168,168.084 53.168,167.892 L53.168,163.692 L50.732,163.692 L50.732,162.852 Z M59.48,158.352 L60.068,158.94 C59.108,160.02 57.656,160.992 55.736,161.856 L55.22,161.172 C57.128,160.332 58.544,159.396 59.48,158.352 Z" id="后衣长-copy" fill="#5E5E5E"></path>
                        <circle id="Oval-4" fill="#242424" cx="9" cy="33" r="9"></circle>
                        <circle id="Oval-4-Copy" fill="#242424" cx="9" cy="59" r="9"></circle>
                        <circle id="Oval-4-Copy-3" fill="#242424" cx="9" cy="111" r="9"></circle>
                        <circle id="Oval-4-Copy-2" fill="#242424" cx="9" cy="85" r="9"></circle>
                        <circle id="Oval-4-Copy-4" fill="#242424" cx="9" cy="137" r="9"></circle>
                        <circle id="Oval-4-Copy-5" fill="#242424" cx="9" cy="163" r="9"></circle>
                        <path d="M9.854,28.432 L10.622,28.432 L10.622,37 L9.638,37 L9.638,29.632 C9.098,30.184 8.426,30.568 7.622,30.808 L7.622,29.824 C8.006,29.716 8.414,29.548 8.822,29.308 C9.23,29.044 9.566,28.756 9.854,28.432 Z" id="1" fill="#FFFFFF"></path>
                        <path d="M9.12,54.264 C9.912,54.264 10.56,54.492 11.076,54.948 C11.58,55.404 11.844,56.016 11.844,56.76 C11.844,57.504 11.556,58.176 11.004,58.776 C10.704,59.088 10.116,59.556 9.228,60.156 C8.136,60.888 7.512,61.548 7.356,62.124 L11.856,62.124 L11.856,63 L6.144,63 C6.144,62.22 6.42,61.512 6.996,60.876 C7.332,60.492 7.944,59.976 8.856,59.352 C9.528,58.872 9.972,58.524 10.2,58.284 C10.632,57.816 10.86,57.3 10.86,56.748 C10.86,56.22 10.704,55.824 10.392,55.536 C10.08,55.248 9.636,55.104 9.084,55.104 C8.496,55.104 8.04,55.296 7.728,55.704 C7.392,56.088 7.212,56.664 7.2,57.42 L6.216,57.42 C6.216,56.46 6.492,55.692 7.02,55.128 C7.548,54.552 8.256,54.264 9.12,54.264 Z" id="2" fill="#FFFFFF"></path>
                        <path d="M10.008,106.432 L10.932,106.432 L10.932,112.252 L12.324,112.252 L12.324,113.056 L10.932,113.056 L10.932,115 L9.996,115 L9.996,113.056 L5.688,113.056 L5.688,112.12 L10.008,106.432 Z M9.96,107.716 L6.516,112.252 L9.996,112.252 L9.996,107.716 L9.96,107.716 Z" id="4" fill="#FFFFFF"></path>
                        <path d="M9.084,80.264 C9.9,80.264 10.572,80.468 11.076,80.888 C11.568,81.308 11.82,81.872 11.82,82.592 C11.82,83.552 11.352,84.2 10.416,84.512 C10.92,84.668 11.304,84.908 11.568,85.244 C11.856,85.58 12,86 12,86.504 C12,87.284 11.724,87.92 11.184,88.412 C10.632,88.916 9.912,89.168 9.024,89.168 C8.208,89.168 7.548,88.952 7.032,88.544 C6.42,88.04 6.084,87.308 6.012,86.348 L7.008,86.348 C7.032,87.02 7.26,87.536 7.68,87.884 C8.04,88.172 8.484,88.328 9.024,88.328 C9.636,88.328 10.128,88.148 10.5,87.8 C10.836,87.464 11.016,87.044 11.016,86.54 C11.016,86.024 10.848,85.628 10.512,85.34 C10.176,85.052 9.72,84.92 9.12,84.92 L8.424,84.92 L8.424,84.152 L9.084,84.152 C9.66,84.152 10.092,84.02 10.392,83.768 C10.692,83.504 10.848,83.132 10.848,82.652 C10.848,82.172 10.692,81.8 10.404,81.536 C10.092,81.248 9.648,81.116 9.096,81.116 C8.52,81.116 8.076,81.26 7.752,81.572 C7.416,81.884 7.224,82.328 7.164,82.904 L6.192,82.904 C6.264,82.076 6.576,81.428 7.104,80.96 C7.608,80.492 8.268,80.264 9.084,80.264 Z" id="3" fill="#FFFFFF"></path>
                        <path d="M6.66,132.432 L11.64,132.432 L11.64,133.308 L7.464,133.308 L7.176,136.176 L7.224,136.176 C7.464,135.888 7.776,135.672 8.148,135.528 C8.484,135.384 8.844,135.324 9.24,135.324 C10.056,135.324 10.716,135.576 11.22,136.092 C11.724,136.62 11.988,137.34 11.988,138.264 C11.988,139.128 11.676,139.836 11.064,140.388 C10.488,140.904 9.768,141.168 8.928,141.168 C8.172,141.168 7.524,140.964 6.996,140.556 C6.396,140.1 6.072,139.476 6.012,138.696 L6.984,138.696 C7.032,139.236 7.248,139.656 7.632,139.944 C7.968,140.196 8.412,140.328 8.94,140.328 C9.54,140.328 10.032,140.136 10.428,139.752 C10.812,139.368 11.016,138.876 11.016,138.276 C11.016,137.592 10.824,137.064 10.464,136.692 C10.116,136.308 9.624,136.128 9,136.128 C8.592,136.128 8.232,136.212 7.908,136.392 C7.572,136.56 7.308,136.824 7.14,137.16 L6.204,137.16 L6.66,132.432 Z" id="5" fill="#FFFFFF"></path>
                        <path d="M9.12,158.264 C10.704,158.264 11.616,159.02 11.856,160.556 L10.884,160.556 C10.692,159.572 10.104,159.092 9.108,159.092 C8.436,159.092 7.908,159.416 7.524,160.088 C7.14,160.712 6.96,161.516 6.96,162.488 C6.96,162.536 6.96,162.644 6.972,162.8 L7.02,162.8 C7.236,162.356 7.536,162.008 7.944,161.768 C8.328,161.516 8.772,161.396 9.276,161.396 C10.092,161.396 10.752,161.66 11.256,162.188 C11.748,162.716 12,163.388 12,164.228 C12,165.068 11.724,165.776 11.184,166.328 C10.632,166.88 9.948,167.168 9.108,167.168 C8.064,167.168 7.284,166.772 6.756,166.004 C6.252,165.272 6.012,164.252 6.012,162.944 C6.012,161.576 6.276,160.46 6.816,159.608 C7.38,158.708 8.148,158.264 9.12,158.264 Z M9.084,162.212 C8.52,162.212 8.052,162.404 7.68,162.788 C7.308,163.172 7.128,163.652 7.128,164.252 C7.128,164.852 7.296,165.344 7.656,165.728 C8.016,166.136 8.484,166.34 9.084,166.34 C9.66,166.34 10.128,166.136 10.488,165.752 C10.848,165.344 11.028,164.84 11.028,164.228 C11.028,163.616 10.848,163.136 10.5,162.776 C10.14,162.392 9.672,162.212 9.084,162.212 Z" id="6" fill="#FFFFFF"></path>
                        <path d="M1.792,0.786 C2.73,1.514 3.528,2.228 4.172,2.956 L3.444,3.67 C2.884,2.984 2.1,2.242 1.106,1.444 L1.792,0.786 Z M9.926,13.148 C9.17,13.148 8.344,13.134 7.462,13.12 C6.566,13.106 5.852,13.022 5.292,12.868 C4.746,12.7 4.256,12.35 3.822,11.846 C3.64,11.608 3.458,11.496 3.29,11.496 C2.954,11.496 2.408,12.14 1.638,13.428 L0.882,12.742 C1.624,11.566 2.282,10.852 2.856,10.6 L2.856,6.344 L0.854,6.344 L0.854,5.42 L3.794,5.42 L3.794,10.656 C3.906,10.74 4.018,10.852 4.13,10.978 C4.466,11.384 4.816,11.678 5.208,11.86 C5.628,12.056 6.258,12.168 7.07,12.196 C7.798,12.21 8.708,12.224 9.786,12.224 C10.444,12.224 11.116,12.21 11.802,12.196 C12.474,12.182 13.006,12.168 13.37,12.14 L13.132,13.148 L9.926,13.148 Z M4.76,2.004 L7.014,2.004 C7.21,1.514 7.406,0.996 7.574,0.464 L8.54,0.688 C8.386,1.15 8.232,1.584 8.064,2.004 L12.978,2.004 L12.978,2.942 L7.672,2.942 C7.252,3.88 6.776,4.72 6.272,5.448 L8.526,5.448 L8.526,3.782 L9.492,3.782 L9.492,5.448 L12.544,5.448 L12.544,6.372 L9.492,6.372 L9.492,8.038 L13.16,8.038 L13.16,8.99 L9.492,8.99 L9.492,11.594 L8.526,11.594 L8.526,8.99 L4.648,8.99 L4.648,8.038 L8.526,8.038 L8.526,6.372 L5.292,6.372 L5.068,5.448 C5.628,4.776 6.146,3.936 6.608,2.942 L4.76,2.942 L4.76,2.004 Z M21.014,3.684 L20.902,3.684 C20.342,4.93 19.586,6.064 18.648,7.086 L18.648,11.972 C19.922,11.622 21.112,11.202 22.204,10.726 L22.386,11.72 C21.014,12.266 19.362,12.784 17.444,13.288 L17.206,12.322 C17.486,12.21 17.64,12.042 17.64,11.79 L17.64,8.066 C16.912,8.71 16.1,9.298 15.218,9.83 L14.686,8.962 C17.08,7.59 18.802,5.84 19.852,3.684 L15.008,3.684 L15.008,2.718 L20.594,2.718 C20.314,1.99 20.02,1.332 19.684,0.73 L20.762,0.562 C21.07,1.192 21.35,1.906 21.63,2.718 L26.992,2.718 L26.992,3.684 L21.994,3.684 C22.218,5.056 22.596,6.316 23.156,7.436 C24.094,6.918 24.976,6.134 25.816,5.07 L26.53,5.798 C25.662,6.862 24.696,7.688 23.604,8.248 C24.5,9.774 25.732,11.062 27.272,12.112 L26.642,13.148 C23.506,10.88 21.63,7.716 21.014,3.684 Z M40.25,7.016 L36.274,7.016 C36.078,7.548 35.868,8.052 35.63,8.5 L40.502,8.5 L40.502,13.414 L39.55,13.414 L39.55,12.644 L35.882,12.644 L35.882,13.414 L34.944,13.414 L34.944,9.606 C34.44,10.306 33.852,10.922 33.208,11.44 L32.69,10.6 C33.852,9.718 34.72,8.528 35.28,7.016 L33.782,7.016 L33.782,6.12 L35.574,6.12 C35.714,5.616 35.84,5.084 35.924,4.524 L33.264,4.524 L33.264,3.628 L36.036,3.628 C36.092,3.096 36.12,2.564 36.134,2.018 L33.992,2.018 L33.992,1.122 L40.25,1.122 L40.25,3.628 L41.384,3.628 L41.384,4.524 L40.25,4.524 L40.25,7.016 Z M37.1,2.018 C37.086,2.578 37.058,3.11 37.002,3.628 L39.27,3.628 L39.27,2.018 L37.1,2.018 Z M36.89,4.524 C36.806,5.084 36.694,5.616 36.554,6.12 L39.27,6.12 L39.27,4.524 L36.89,4.524 Z M35.882,11.72 L39.55,11.72 L39.55,9.41 L35.882,9.41 L35.882,11.72 Z M30.366,7.842 C29.904,8.388 29.386,8.934 28.812,9.494 L28.518,8.472 C30.17,6.82 31.276,5.224 31.822,3.67 L28.798,3.67 L28.798,2.746 L30.478,2.746 C30.296,2.074 30.072,1.416 29.82,0.786 L30.8,0.52 C31.052,1.248 31.262,1.92 31.402,2.522 L30.842,2.746 L32.788,2.746 L32.788,3.572 C32.48,4.566 31.99,5.546 31.346,6.526 L31.346,6.722 C31.542,6.876 31.724,7.044 31.906,7.212 C32.228,6.946 32.536,6.596 32.816,6.148 L33.404,6.722 C33.124,7.142 32.802,7.492 32.452,7.744 C32.788,8.108 33.124,8.486 33.432,8.892 L32.886,9.732 C32.382,8.962 31.864,8.318 31.346,7.786 L31.346,13.4 L30.366,13.4 L30.366,7.842 Z" id="连衣裙" fill="#242424"></path>
                    </g>
                    <g id="裙子线性">
                        <polygon id="Rectangle-11" opacity="0" points="0 0 325 0 325 210 0 210"></polygon>
                        <g transform="translate(34.000000, 15.000000)" stroke="#3C3C3C">
                            <path d="M82.8328451,0 L97.3104633,7.09222115 C89.7844511,21.9190589 89.7844511,35.807036 97.3104633,48.7561526 C97.3104633,48.7561526 88.6758497,80.8666488 89.8543936,85.80665 C90.6400896,89.0999842 102.021958,115.919179 124,166.264235 C123.390095,168.904272 120.181836,170.027732 114.375224,169.634615 C114.375224,169.634615 116.454735,172.855623 113.870517,173.783825 C111.286299,174.712028 103.921861,176.444934 105.377738,172.327941 C105.377738,172.327941 98.4894946,169.919446 94.5039884,172.874416 C90.5184822,175.829386 93.8862033,175.337583 93.7348642,176.898906 C93.5835251,178.46023 91.6512102,180.55851 86.9728585,179.100184 C82.2945069,177.641859 84.53608,176.802498 77.4470259,177.161771 C73.0060776,177.386838 69.0353139,177.323045 65.5347346,176.970393 C65.4062977,177.110709 65.2930488,177.275188 65.1968135,177.47025 L67.4681508,181.397627 C64.5997355,181.834337 62.2779164,182.033592 60.5026935,181.995391 C58.7274707,182.033592 59.4002645,181.834337 56.5318492,181.397627 L58.8031865,177.47025 C58.7069512,177.275188 58.5937023,177.110709 58.4652654,176.970393 C54.9646861,177.323045 50.9939224,177.386838 46.5529741,177.161771 C39.46392,176.802498 41.7054931,177.641859 37.0271415,179.100184 C32.3487898,180.55851 30.4164749,178.46023 30.2651358,176.898906 C30.1137967,175.337583 33.4815178,175.829386 29.4960116,172.874416 C25.5105054,169.919446 18.6222619,172.327941 18.6222619,172.327941 C20.078139,176.444934 12.7137015,174.712028 10.129483,173.783825 C7.54526463,172.855623 9.62477573,169.634615 9.62477573,169.634615 C3.81816402,170.027732 0.609905439,168.904272 0,166.264235 C21.9780416,115.919179 33.3599104,89.0999842 34.1456064,85.80665 C35.3241503,80.8666488 26.6895367,48.7561526 26.6895367,48.7561526 C34.2155489,35.807036 34.2155489,21.9190589 26.6895367,7.09222115 L41.1671549,5.68272564e-14 C48.4168619,5.07844086 52.8071187,7.58080031 60.3271511,7.50707836 C68.1982684,7.58080031 75.5831381,5.07844086 82.8328451,0 Z" id="Combined-Shape" stroke-width="1.5" stroke-linecap="round" stroke-linejoin="round"></path>
                            <path d="M43,1.21639137 C49.3178033,9.14166985 56.0569757,13.0692316 63.2175171,12.9990767 C70.3780586,12.9289217 76.9722195,8.59589614 83,0" id="Path-50"></path>
                            <path d="M35,84 C52.873731,90.6666667 71.5403976,90.6666667 91,84" id="Path-51"></path>
                            <path d="M35,88 C52.873731,94.6666667 71.5403976,94.6666667 91,88" id="Path-51-Copy"></path>
                            <polyline id="Path-52-Copy" stroke-width="0.5" transform="translate(40.500000, 134.500000) rotate(-6.000000) translate(-40.500000, -134.500000) " points="29 169.563329 52 96 34.4147852 173"></polyline>
                            <polyline id="Path-52-Copy-3" stroke-width="0.5" transform="translate(101.000000, 134.500000) scale(-1, 1) rotate(-360.000000) translate(-101.000000, -134.500000) " points="90 165.536421 112 96 93.9786397 173"></polyline>
                            <polyline id="Path-52-Copy-2" stroke-width="0.5" transform="translate(61.500000, 134.500000) rotate(-15.000000) translate(-61.500000, -134.500000) " points="50 170.768012 73 96 55.7008354 173"></polyline>
                            <polyline id="Path-52-Copy-4" stroke-width="0.5" transform="translate(85.500000, 133.500000) scale(-1, 1) rotate(-8.000000) translate(-85.500000, -133.500000) " points="73 172 98 95 77.9536983 172"></polyline>
                            <polyline id="Path-52" stroke-width="0.5" points="14 168.774414 38.9404297 92 18.9418945 168.774414"></polyline>
                        </g>
                        <g id="线条1-copy" transform="translate(59.000000, 20.000000)">
                            <path d="M4.10846754,4.47298584 C13.6563721,8.17623434 25.2557284,10.3469004 37.7633765,10.3469004 C49.5247886,10.3469004 60.4830573,8.42752185 69.6876691,5.11931806" id="Oval-3-Copy" stroke="#979797"></path>
                            <circle id="Oval-5-Copy" fill="#3C3C3C" cx="44" cy="8" r="7"></circle>
                            <text id="1-copy" font-family="PingFangSC-Regular, PingFang SC" font-size="11" font-weight="normal" fill="#FFFFFF">
                                <tspan x="42" y="12">1</tspan>
                            </text>
                            <polygon id="Path-Copy-3" fill="#979797" transform="translate(3.550414, 4.111972) rotate(-17.000000) translate(-3.550414, -4.111972) " points="0.843828346 1.24570073 6.25699888 3.77595277 3.05470883 6.97824281"></polygon>
                            <polygon id="Path-Copy-2" fill="#979797" transform="translate(70.245723, 4.834000) scale(-1, 1) rotate(-9.000000) translate(-70.245723, -4.834000) " points="67.5391377 1.96772886 72.9523082 4.4979809 69.7500182 7.70027094"></polygon>
                        </g>
                        <g id="线条2-copy" transform="translate(64.000000, 57.000000)">
                            <path d="M2.12421933,4.92224561 C10.7138604,8.05901648 21.1490618,9.89764061 32.4013955,9.89764061 C42.9823881,9.89764061 52.8408439,8.27186511 61.1216463,5.46970985" id="Oval-3-Copy" stroke="#979797"></path>
                            <circle id="Oval-5-Copy" fill="#3C3C3C" cx="43" cy="8" r="7"></circle>
                            <text id="2" font-family="PingFangSC-Regular, PingFang SC" font-size="11" font-weight="normal" fill="#FFFFFF">
                                <tspan x="40" y="12">2</tspan>
                            </text>
                            <polygon id="Path-Copy-3" fill="#979797" transform="translate(3.426337, 5.532358) rotate(-17.000000) translate(-3.426337, -5.532358) " points="0.719751648 2.66608654 6.13292218 5.19633858 2.93063213 8.39862862"></polygon>
                            <polygon id="Path-Copy-2" fill="#979797" transform="translate(61.121646, 5.254386) scale(-1, 1) rotate(-9.000000) translate(-61.121646, -5.254386) " points="58.415061 2.38811467 63.8282316 4.91836671 60.6259415 8.12065675"></polygon>
                        </g>
                        <g id="线条3-copy" transform="translate(69.000000, 93.000000)">
                            <path d="M3.42633691,3.92224561 C10.5160568,7.05901648 19.1290656,8.89764061 28.4165193,8.89764061 C37.1498614,8.89764061 45.2868358,7.27186511 52.1216463,4.46970985" id="Oval-3-Copy" stroke="#979797"></path>
                            <circle id="Oval-5-Copy" fill="#3C3C3C" cx="38" cy="8" r="7"></circle>
                            <text id="3" font-family="PingFangSC-Regular, PingFang SC" font-size="11" font-weight="normal" fill="#FFFFFF">
                                <tspan x="35" y="12">3</tspan>
                            </text>
                            <polygon id="Path-Copy-3" fill="#979797" transform="translate(3.426337, 3.532358) rotate(-17.000000) translate(-3.426337, -3.532358) " points="0.719751648 0.666086535 6.13292218 3.19633858 2.93063213 6.39862862"></polygon>
                            <polygon id="Path-Copy-2" fill="#979797" transform="translate(52.121646, 4.254386) scale(-1, 1) rotate(-9.000000) translate(-52.121646, -4.254386) " points="49.415061 1.38811467 54.8282316 3.91836671 51.6259415 7.12065675"></polygon>
                        </g>
                        <g id="线条3-copy-2" transform="translate(55.000000, 130.000000)">
                            <path d="M3.42633691,3.92224561 C14.8838614,7.05901648 28.8031362,11.4521484 43.812365,11.4521484 C57.9261075,11.4521484 71.0760747,7.27186511 82.1216463,4.46970985" id="Oval-3-Copy" stroke="#979797"></path>
                            <circle id="Oval-5-Copy" fill="#3C3C3C" cx="38" cy="11" r="7"></circle>
                            <text id="4" font-family="PingFangSC-Regular, PingFang SC" font-size="11" font-weight="normal" fill="#FFFFFF">
                                <tspan x="35" y="15">4</tspan>
                            </text>
                            <polygon id="Path-Copy-3" fill="#979797" transform="translate(3.426337, 3.532358) rotate(-17.000000) translate(-3.426337, -3.532358) " points="0.719751648 0.666086535 6.13292218 3.19633858 2.93063213 6.39862862"></polygon>
                            <polygon id="Path-Copy-2" fill="#979797" transform="translate(82.121646, 3.254386) scale(-1, 1) rotate(-9.000000) translate(-82.121646, -3.254386) " points="79.415061 0.388114665 84.8282316 2.91836671 81.6259415 6.12065675"></polygon>
                        </g>
                        <g id="线条4-copy" transform="translate(67.000000, 19.000000)">
                            <path d="M-71.5779501,81.5477109 C-51.6625006,85.9468914 52.2439946,94.3323865 91.8855957,91.7773437" id="Oval-3-Copy" stroke="#979797" transform="translate(10.153823, 86.899873) rotate(87.000000) translate(-10.153823, -86.899873) "></path>
                            <circle id="Oval-5-Copy" fill="#3C3C3C" cx="7" cy="134" r="7"></circle>
                            <text id="5" font-family="PingFangSC-Regular, PingFang SC" font-size="11" font-weight="normal" fill="#FFFFFF">
                                <tspan x="4" y="138">5</tspan>
                            </text>
                            <polygon id="Path-Copy-3" fill="#979797" transform="translate(11.924993, 3.897471) rotate(52.000000) translate(-11.924993, -3.897471) " points="9.21840742 1.03119991 14.6315779 3.56145195 11.4292879 6.763742"></polygon>
                            <polygon id="Path-Copy-2" fill="#979797" transform="translate(9.801432, 168.735406) scale(-1, 1) rotate(-118.000000) translate(-9.801432, -168.735406) " points="7.09484667 165.869135 12.5080172 168.399387 9.30572715 171.601677"></polygon>
                        </g>
                        <g id="线条5-copy" transform="translate(104.000000, 17.000000)">
                            <path d="M-67.8929321,80.436345 C-48.4579302,84.8355254 -9.1963316,97.7778422 98.1195556,101.223018" id="Oval-3-Copy" stroke="#979797" stroke-dasharray="2,2" transform="translate(15.113312, 90.829681) scale(-1, 1) rotate(87.000000) translate(-15.113312, -90.829681) "></path>
                            <circle id="Oval-5-Copy" fill="#3C3C3C" cx="21" cy="146" r="7"></circle>
                            <text id="6" font-family="PingFangSC-Regular, PingFang SC" font-size="11" font-weight="normal" fill="#FFFFFF">
                                <tspan x="18" y="150">6</tspan>
                            </text>
                            <polygon id="Path-Copy-3" fill="#979797" transform="translate(8.924993, 3.897471) scale(-1, 1) rotate(52.000000) translate(-8.924993, -3.897471) " points="6.21840742 1.03119991 11.6315779 3.56145195 8.4292879 6.763742"></polygon>
                            <polygon id="Path-Copy-2" fill="#979797" transform="translate(20.930820, 175.907215) rotate(-129.000000) translate(-20.930820, -175.907215) " points="18.224235 173.040944 23.6374055 175.571196 20.4351155 178.773486"></polygon>
                        </g>
                    </g>
                </g>
            </g>
        </g>
    </g>
</svg>