<?xml version="1.0" encoding="UTF-8"?>
<svg width="325px" height="210px" viewBox="0 0 325 210" version="1.1" xmlns="http://www.w3.org/2000/svg" xmlns:xlink="http://www.w3.org/1999/xlink">
    <!-- Generator: Sketch 49.2 (51160) - http://www.bohemiancoding.com/sketch -->
    <title>裤子示意图@1x</title>
    <desc>Created with Sketch.</desc>
    <defs></defs>
    <g id="Page-1" stroke="none" stroke-width="1" fill="none" fill-rule="evenodd">
        <g id="H051-查看尺码-裤子" transform="translate(-25.000000, -574.000000)">
            <g id="尺码图示" transform="translate(0.000000, 511.000000)">
                <g id="裤子示意图" transform="translate(25.000000, 61.000000)">
                    <rect id="Rectangle-11" opacity="0.606317935" x="0" y="0" width="325" height="210"></rect>
                    <g id="裤子指示文字" transform="translate(228.000000, 16.000000)">
                        <path d="M9.772,3.464 C9.968,3.884 10.15,4.346 10.346,4.864 L13.216,4.864 L13.216,5.788 L7.07,5.788 L7.07,8.868 C7.014,11.99 6.426,14.496 5.306,16.372 L4.536,15.7 C5.53,14.062 6.048,11.78 6.104,8.868 L6.104,4.864 L9.324,4.864 C9.142,4.416 8.946,4.01 8.722,3.632 L9.772,3.464 Z M9.59,6.18 L10.556,6.404 C10.444,6.782 10.332,7.146 10.22,7.496 L12.992,7.496 L12.992,8.406 L9.898,8.406 C9.548,9.33 9.156,10.142 8.736,10.856 L10.318,10.856 L10.318,9.204 L11.284,9.204 L11.284,10.856 L12.824,10.856 L12.824,11.724 L11.284,11.724 L11.284,13.278 L13.37,13.278 L13.37,14.188 L11.284,14.188 L11.284,16.4 L10.318,16.4 L10.318,14.188 L7.378,14.188 L7.378,13.278 L10.318,13.278 L10.318,11.724 L7.854,11.724 L7.672,10.898 C8.12,10.226 8.54,9.386 8.904,8.406 L7.644,8.406 L7.644,7.496 L9.212,7.496 C9.352,7.076 9.478,6.628 9.59,6.18 Z M2.338,10.968 C1.876,11.5 1.372,12.032 0.826,12.564 L0.532,11.542 C2.212,9.876 3.332,8.252 3.892,6.67 L0.812,6.67 L0.812,5.746 L2.562,5.746 C2.352,5.074 2.114,4.416 1.834,3.786 L2.814,3.52 C3.108,4.262 3.332,4.934 3.5,5.55 L2.996,5.746 L4.844,5.746 L4.844,6.572 C4.536,7.622 4.032,8.658 3.332,9.68 C3.528,9.848 3.724,10.016 3.92,10.198 C4.298,9.904 4.662,9.47 5.012,8.91 L5.6,9.498 C5.264,10.03 4.886,10.45 4.48,10.758 C4.816,11.094 5.124,11.458 5.418,11.836 L4.886,12.676 C4.368,11.892 3.85,11.234 3.318,10.674 L3.318,16.414 L2.338,16.414 L2.338,10.968 Z M14.882,9.582 L20.776,9.582 L20.776,7.594 C21.98,6.908 23.128,6.082 24.22,5.13 L16.352,5.13 L16.352,4.178 L25.592,4.178 L25.592,5.13 C24.486,6.18 23.226,7.174 21.798,8.112 L21.798,9.582 L27.118,9.582 L27.118,10.562 L21.798,10.562 L21.798,15.042 C21.798,15.882 21.364,16.302 20.51,16.302 L18.116,16.302 L17.85,15.322 C18.55,15.35 19.292,15.364 20.104,15.364 C20.552,15.364 20.776,15.14 20.776,14.72 L20.776,10.562 L14.882,10.562 L14.882,9.582 Z" id="裤子" fill="#242424"></path>
                        <path d="M27.872,35.276 L27.872,37.292 L29.3,37.292 L29.3,35.276 L27.872,35.276 Z M29.3,34.52 L29.3,32.456 L27.872,32.456 L27.872,34.52 L29.3,34.52 Z M27.86,38.06 C27.8,39.74 27.536,41.12 27.068,42.2 L26.408,41.6 C26.816,40.52 27.032,39.128 27.044,37.448 L27.044,31.652 L30.116,31.652 L30.116,41.084 C30.116,41.78 29.828,42.128 29.252,42.128 L28.388,42.128 L28.172,41.336 C28.46,41.36 28.736,41.372 28.988,41.372 C29.192,41.372 29.3,41.168 29.3,40.784 L29.3,38.06 L27.86,38.06 Z M30.572,31.664 L37.316,31.664 L37.316,32.432 L35.192,32.432 L35.192,33.596 L36.932,33.596 L36.932,36.632 L34.112,36.632 C33.968,36.992 33.824,37.328 33.68,37.64 L37.448,37.64 L37.448,38.408 L35.96,38.408 C35.78,39.224 35.432,39.896 34.928,40.424 C35.744,40.76 36.524,41.108 37.28,41.492 L36.812,42.188 C36.092,41.792 35.252,41.396 34.268,40.988 C33.488,41.492 32.336,41.9 30.8,42.212 L30.476,41.456 C31.7,41.24 32.66,40.964 33.356,40.616 C32.756,40.376 32.132,40.148 31.484,39.908 C31.832,39.38 32.144,38.888 32.408,38.408 L30.524,38.408 L30.524,37.64 L32.816,37.64 C32.984,37.292 33.14,36.956 33.272,36.632 L30.956,36.632 L30.956,33.596 L32.696,33.596 L32.696,32.432 L30.572,32.432 L30.572,31.664 Z M34.448,33.596 L34.448,32.432 L33.44,32.432 L33.44,33.596 L34.448,33.596 Z M34.112,40.112 C34.616,39.656 34.964,39.092 35.156,38.408 L33.284,38.408 C33.056,38.804 32.816,39.188 32.552,39.56 C33.08,39.728 33.596,39.92 34.112,40.112 Z M36.152,35.924 L36.152,34.304 L35.096,34.304 L35.096,35.924 L36.152,35.924 Z M34.484,35.924 L34.484,34.304 L33.428,34.304 L33.428,35.924 L34.484,35.924 Z M32.804,35.924 L32.804,34.304 L31.736,34.304 L31.736,35.924 L32.804,35.924 Z M40.748,33.8 L43.52,33.8 L43.52,32.9 L44.36,32.9 L44.36,33.8 L47.204,33.8 L47.204,34.544 L44.36,34.544 L44.36,35.48 L46.652,35.48 L46.652,36.2 L44.36,36.2 L44.36,37.136 L47.276,37.136 C47.252,38.288 47.168,39.032 47.024,39.368 C46.844,39.752 46.412,39.956 45.728,39.98 C45.584,39.98 45.416,39.956 45.224,39.932 L44.984,39.224 C45.236,39.248 45.452,39.272 45.632,39.272 C46.028,39.26 46.268,39.14 46.352,38.924 C46.424,38.756 46.46,38.396 46.472,37.868 L44.36,37.868 L44.36,40.46 L43.52,40.46 L43.52,37.868 L40.592,37.868 L40.592,37.136 L43.52,37.136 L43.52,36.2 L41.288,36.2 L41.288,35.48 L43.52,35.48 L43.52,34.544 L40.748,34.544 L40.748,33.8 Z M48.92,31.676 L48.92,42.212 L48.08,42.212 L48.08,41.672 L39.92,41.672 L39.92,42.212 L39.08,42.212 L39.08,31.676 L48.92,31.676 Z M39.92,40.904 L48.08,40.904 L48.08,32.444 L39.92,32.444 L39.92,40.904 Z" id="腰围" fill="#5E5E5E"></path>
                        <path d="M28.256,59.968 L29.024,59.968 L29.024,59.332 L28.016,59.332 L28.016,59.416 C28.004,60.784 27.68,61.972 27.056,62.956 L26.444,62.404 C26.948,61.636 27.2,60.64 27.212,59.416 L27.212,57.544 L32.132,57.544 L32.132,59.332 L31.28,59.332 L31.28,59.968 L32.096,59.968 L32.096,60.496 L31.28,60.496 L31.28,61.252 L32.276,61.252 L32.276,61.792 L30.944,61.792 C31.4,62.08 31.796,62.368 32.108,62.656 L31.604,63.148 C31.328,62.86 30.956,62.536 30.476,62.2 L30.908,61.792 L29.204,61.792 L29.672,62.2 C29.18,62.656 28.58,63.064 27.872,63.412 L27.464,62.884 C28.148,62.572 28.724,62.2 29.18,61.792 L28.028,61.792 L28.028,61.252 L29.024,61.252 L29.024,60.496 L28.256,60.496 L28.256,59.968 Z M30.656,59.332 L29.648,59.332 L29.648,59.968 L30.656,59.968 L30.656,59.332 Z M29.648,61.252 L30.656,61.252 L30.656,60.496 L29.648,60.496 L29.648,61.252 Z M31.328,58.096 L28.016,58.096 L28.016,58.804 L31.328,58.804 L31.328,58.096 Z M32.9,60.604 L32.552,60.604 L32.552,59.98 L36.8,59.98 L36.8,60.52 C36.44,61.072 35.996,61.54 35.468,61.912 C35.996,62.14 36.62,62.332 37.316,62.476 L37.028,63.148 C36.14,62.932 35.384,62.668 34.772,62.344 C34.172,62.668 33.488,62.908 32.72,63.064 L32.396,62.416 C33.02,62.308 33.584,62.14 34.088,61.924 C33.56,61.54 33.164,61.096 32.9,60.604 Z M34.772,61.576 C35.216,61.312 35.6,60.988 35.936,60.604 L33.596,60.604 C33.884,60.964 34.28,61.288 34.772,61.576 Z M29.204,65.32 L29.204,66.076 L35.048,66.076 L35.048,65.32 L29.204,65.32 Z M35.048,64.72 L35.048,63.952 L29.204,63.952 L29.204,64.72 L35.048,64.72 Z M29.204,66.676 L29.204,68.224 L28.352,68.224 L28.352,63.28 L35.9,63.28 L35.9,67.228 C35.9,67.84 35.528,68.152 34.796,68.152 L33.368,68.152 L33.176,67.456 L34.568,67.492 C34.88,67.492 35.048,67.336 35.048,67.048 L35.048,66.676 L29.204,66.676 Z M33.128,57.556 L36.14,57.556 L36.14,58.588 C36.14,58.756 36.248,58.84 36.464,58.84 L37.172,58.84 L37.172,59.488 L36.272,59.488 C35.696,59.488 35.42,59.224 35.42,58.72 L35.42,58.192 L33.884,58.192 C33.86,58.48 33.776,58.756 33.644,58.996 C33.488,59.26 33.236,59.524 32.876,59.788 L32.3,59.26 C32.552,59.068 32.756,58.864 32.912,58.648 C33.056,58.432 33.128,58.072 33.128,57.556 Z M40.748,59.8 L43.52,59.8 L43.52,58.9 L44.36,58.9 L44.36,59.8 L47.204,59.8 L47.204,60.544 L44.36,60.544 L44.36,61.48 L46.652,61.48 L46.652,62.2 L44.36,62.2 L44.36,63.136 L47.276,63.136 C47.252,64.288 47.168,65.032 47.024,65.368 C46.844,65.752 46.412,65.956 45.728,65.98 C45.584,65.98 45.416,65.956 45.224,65.932 L44.984,65.224 C45.236,65.248 45.452,65.272 45.632,65.272 C46.028,65.26 46.268,65.14 46.352,64.924 C46.424,64.756 46.46,64.396 46.472,63.868 L44.36,63.868 L44.36,66.46 L43.52,66.46 L43.52,63.868 L40.592,63.868 L40.592,63.136 L43.52,63.136 L43.52,62.2 L41.288,62.2 L41.288,61.48 L43.52,61.48 L43.52,60.544 L40.748,60.544 L40.748,59.8 Z M48.92,57.676 L48.92,68.212 L48.08,68.212 L48.08,67.672 L39.92,67.672 L39.92,68.212 L39.08,68.212 L39.08,57.676 L48.92,57.676 Z M39.92,66.904 L48.08,66.904 L48.08,58.444 L39.92,58.444 L39.92,66.904 Z" id="臀围" fill="#5E5E5E"></path>
                        <path d="M34.1,109.112 L34.94,109.4 C34.688,109.88 34.412,110.312 34.124,110.696 L37.364,110.696 L37.364,111.536 L26.624,111.536 L26.624,110.696 L29.912,110.696 C29.672,110.192 29.42,109.748 29.132,109.34 L30.044,109.184 C30.308,109.628 30.572,110.132 30.836,110.696 L33.176,110.696 C33.524,110.192 33.836,109.664 34.1,109.112 Z M30.788,120.128 L29.84,120.128 L29.612,119.276 L30.512,119.312 C30.824,119.312 30.98,119.108 30.98,118.712 L30.98,117.596 L28.304,117.596 L28.304,120.224 L27.464,120.224 L27.464,112.508 L31.82,112.508 L31.82,118.904 C31.82,119.72 31.472,120.128 30.788,120.128 Z M28.304,116.828 L30.98,116.828 L30.98,115.46 L28.304,115.46 L28.304,116.828 Z M28.304,114.692 L30.98,114.692 L30.98,113.312 L28.304,113.312 L28.304,114.692 Z M35.456,120.092 L33.86,120.092 L33.68,119.264 C34.184,119.3 34.676,119.324 35.156,119.324 C35.492,119.324 35.66,119.132 35.66,118.772 L35.66,112.172 L36.524,112.172 L36.524,118.988 C36.524,119.72 36.164,120.092 35.456,120.092 Z M33.164,113.072 L34.004,113.072 L34.004,118.244 L33.164,118.244 L33.164,113.072 Z M44.012,111.872 L43.916,111.872 C43.436,112.94 42.788,113.912 41.984,114.788 L41.984,118.976 C43.076,118.676 44.096,118.316 45.032,117.908 L45.188,118.76 C44.012,119.228 42.596,119.672 40.952,120.104 L40.748,119.276 C40.988,119.18 41.12,119.036 41.12,118.82 L41.12,115.628 C40.496,116.18 39.8,116.684 39.044,117.14 L38.588,116.396 C40.64,115.22 42.116,113.72 43.016,111.872 L38.864,111.872 L38.864,111.044 L43.652,111.044 C43.412,110.42 43.16,109.856 42.872,109.34 L43.796,109.196 C44.06,109.736 44.3,110.348 44.54,111.044 L49.136,111.044 L49.136,111.872 L44.852,111.872 C45.044,113.048 45.368,114.128 45.848,115.088 C46.652,114.644 47.408,113.972 48.128,113.06 L48.74,113.684 C47.996,114.596 47.168,115.304 46.232,115.784 C47,117.092 48.056,118.196 49.376,119.096 L48.836,119.984 C46.148,118.04 44.54,115.328 44.012,111.872 Z M50.732,113.852 L53.168,113.852 L53.168,109.256 L54.032,109.256 L54.032,113.852 L61.304,113.852 L61.304,114.692 L57.356,114.692 C57.86,116.612 59.228,118.112 61.448,119.192 L60.944,119.996 C58.52,118.712 57.056,116.948 56.528,114.692 L54.032,114.692 L54.032,119.036 C54.932,118.82 55.832,118.544 56.72,118.208 L56.948,119.036 C55.772,119.444 54.512,119.792 53.168,120.104 L52.892,119.312 C53.072,119.216 53.168,119.084 53.168,118.892 L53.168,114.692 L50.732,114.692 L50.732,113.852 Z M59.48,109.352 L60.068,109.94 C59.108,111.02 57.656,111.992 55.736,112.856 L55.22,112.172 C57.128,111.332 58.544,110.396 59.48,109.352 Z" id="前衣长" fill="#5E5E5E"></path>
                        <path d="M31.964,88.116 C31.472,89.484 30.536,90.612 29.144,91.524 L28.568,90.816 C29.912,89.928 30.8,88.824 31.232,87.492 C31.364,87.024 31.472,86.52 31.556,85.968 L28.136,85.968 L28.136,94.188 L27.26,94.188 L27.26,85.128 L31.652,85.128 C31.712,84.516 31.748,83.856 31.748,83.16 L32.624,83.16 C32.624,83.868 32.588,84.528 32.54,85.128 L36.752,85.128 L36.752,92.856 C36.752,93.66 36.356,94.068 35.588,94.068 L33.704,94.068 L33.464,93.204 L35.3,93.252 C35.684,93.252 35.876,93.048 35.876,92.664 L35.876,85.968 L32.444,85.968 C32.384,86.424 32.312,86.856 32.216,87.252 C33.464,88.428 34.508,89.592 35.36,90.732 L34.712,91.392 C34.016,90.36 33.092,89.268 31.964,88.116 Z M45.968,86.196 L45.968,87.324 L48.164,87.324 L48.164,86.196 L45.968,86.196 Z M48.164,85.512 L48.164,84.396 L45.968,84.396 L45.968,85.512 L48.164,85.512 Z M47.072,88.512 C47.312,88.824 47.552,89.136 47.768,89.424 C48.128,89.196 48.476,88.872 48.8,88.452 L49.292,88.932 C48.956,89.376 48.572,89.724 48.164,89.964 C48.692,90.684 49.112,91.332 49.448,91.92 L48.812,92.364 C48.248,91.32 47.48,90.156 46.508,88.872 L47.072,88.512 Z M42.98,83.52 C43.652,84.084 44.228,84.648 44.696,85.224 L44.12,85.8 C43.712,85.248 43.136,84.672 42.416,84.048 L42.98,83.52 Z M47.492,93.204 C48.212,93.204 48.884,93.192 49.52,93.18 L49.292,93.996 L47.42,93.996 C47.084,93.996 46.76,93.984 46.424,93.972 C45.92,93.96 45.476,93.876 45.092,93.732 C44.72,93.576 44.408,93.312 44.156,92.952 C44.012,92.772 43.88,92.688 43.772,92.688 C43.556,92.688 43.136,93.18 42.536,94.176 L42.02,93.528 C42.572,92.688 43.028,92.172 43.412,91.968 L43.412,88.008 L42.284,88.008 L42.284,87.216 L44.216,87.216 L44.216,92.076 C44.24,92.1 44.264,92.136 44.288,92.16 C44.504,92.484 44.792,92.736 45.14,92.928 C45.452,93.06 45.824,93.144 46.256,93.18 C46.664,93.192 47.072,93.204 47.492,93.204 Z M39.884,87.144 L39.884,89.244 L41.156,89.244 L41.156,87.144 L39.884,87.144 Z M41.156,86.376 L41.156,84.252 L39.884,84.252 L39.884,86.376 L41.156,86.376 Z M39.872,90.012 C39.8,91.692 39.548,93.084 39.104,94.176 L38.48,93.612 C38.888,92.484 39.104,91.068 39.116,89.34 L39.116,83.52 L41.924,83.52 L41.924,93.18 C41.924,93.78 41.612,94.092 41.012,94.092 L40.28,94.092 L40.088,93.348 C40.328,93.36 40.556,93.372 40.772,93.372 C41.024,93.372 41.156,93.216 41.156,92.916 L41.156,90.012 L39.872,90.012 Z M45.968,88.056 L45.968,91.512 C46.46,91.392 46.952,91.236 47.432,91.044 L47.612,91.728 C46.964,91.992 46.136,92.232 45.152,92.472 L44.972,91.752 C45.116,91.692 45.2,91.596 45.2,91.452 L45.2,83.676 L48.932,83.676 L48.932,88.056 L45.968,88.056 Z M50.732,87.852 L53.168,87.852 L53.168,83.256 L54.032,83.256 L54.032,87.852 L61.304,87.852 L61.304,88.692 L57.356,88.692 C57.86,90.612 59.228,92.112 61.448,93.192 L60.944,93.996 C58.52,92.712 57.056,90.948 56.528,88.692 L54.032,88.692 L54.032,93.036 C54.932,92.82 55.832,92.544 56.72,92.208 L56.948,93.036 C55.772,93.444 54.512,93.792 53.168,94.104 L52.892,93.312 C53.072,93.216 53.168,93.084 53.168,92.892 L53.168,88.692 L50.732,88.692 L50.732,87.852 Z M59.48,83.352 L60.068,83.94 C59.108,85.02 57.656,85.992 55.736,86.856 L55.22,86.172 C57.128,85.332 58.544,84.396 59.48,83.352 Z" id="内腿长" fill="#5E5E5E"></path>
                        <path d="M28.736,139.432 L28.736,139.744 C28.664,142.432 28.112,144.568 27.104,146.164 L26.468,145.504 C27.344,144.112 27.812,142.192 27.884,139.744 L27.884,136.144 C30.98,136.108 33.752,135.832 36.224,135.316 L36.656,136.096 C34.304,136.576 31.664,136.84 28.736,136.912 L28.736,138.592 L37.376,138.592 L37.376,139.432 L28.736,139.432 Z M36.428,141.112 L36.428,146.2 L35.564,146.2 L35.564,145.636 L30.704,145.636 L30.704,146.2 L29.84,146.2 L29.84,141.112 L36.428,141.112 Z M30.704,144.796 L35.564,144.796 L35.564,141.94 L30.704,141.94 L30.704,144.796 Z M44.012,137.872 L43.916,137.872 C43.436,138.94 42.788,139.912 41.984,140.788 L41.984,144.976 C43.076,144.676 44.096,144.316 45.032,143.908 L45.188,144.76 C44.012,145.228 42.596,145.672 40.952,146.104 L40.748,145.276 C40.988,145.18 41.12,145.036 41.12,144.82 L41.12,141.628 C40.496,142.18 39.8,142.684 39.044,143.14 L38.588,142.396 C40.64,141.22 42.116,139.72 43.016,137.872 L38.864,137.872 L38.864,137.044 L43.652,137.044 C43.412,136.42 43.16,135.856 42.872,135.34 L43.796,135.196 C44.06,135.736 44.3,136.348 44.54,137.044 L49.136,137.044 L49.136,137.872 L44.852,137.872 C45.044,139.048 45.368,140.128 45.848,141.088 C46.652,140.644 47.408,139.972 48.128,139.06 L48.74,139.684 C47.996,140.596 47.168,141.304 46.232,141.784 C47,143.092 48.056,144.196 49.376,145.096 L48.836,145.984 C46.148,144.04 44.54,141.328 44.012,137.872 Z M50.732,139.852 L53.168,139.852 L53.168,135.256 L54.032,135.256 L54.032,139.852 L61.304,139.852 L61.304,140.692 L57.356,140.692 C57.86,142.612 59.228,144.112 61.448,145.192 L60.944,145.996 C58.52,144.712 57.056,142.948 56.528,140.692 L54.032,140.692 L54.032,145.036 C54.932,144.82 55.832,144.544 56.72,144.208 L56.948,145.036 C55.772,145.444 54.512,145.792 53.168,146.104 L52.892,145.312 C53.072,145.216 53.168,145.084 53.168,144.892 L53.168,140.692 L50.732,140.692 L50.732,139.852 Z M59.48,135.352 L60.068,135.94 C59.108,137.02 57.656,137.992 55.736,138.856 L55.22,138.172 C57.128,137.332 58.544,136.396 59.48,135.352 Z" id="后衣长" fill="#5E5E5E"></path>
                        <circle id="Oval-4" fill="#242424" cx="9" cy="36" r="9"></circle>
                        <circle id="Oval-4-Copy" fill="#242424" cx="9" cy="62" r="9"></circle>
                        <circle id="Oval-4-Copy-3" fill="#242424" cx="9" cy="114" r="9"></circle>
                        <circle id="Oval-4-Copy-2" fill="#242424" cx="9" cy="88" r="9"></circle>
                        <circle id="Oval-4-Copy-4" fill="#242424" cx="9" cy="140" r="9"></circle>
                        <path d="M9.854,31.432 L10.622,31.432 L10.622,40 L9.638,40 L9.638,32.632 C9.098,33.184 8.426,33.568 7.622,33.808 L7.622,32.824 C8.006,32.716 8.414,32.548 8.822,32.308 C9.23,32.044 9.566,31.756 9.854,31.432 Z" id="1" fill="#FFFFFF"></path>
                        <path d="M9.12,57.264 C9.912,57.264 10.56,57.492 11.076,57.948 C11.58,58.404 11.844,59.016 11.844,59.76 C11.844,60.504 11.556,61.176 11.004,61.776 C10.704,62.088 10.116,62.556 9.228,63.156 C8.136,63.888 7.512,64.548 7.356,65.124 L11.856,65.124 L11.856,66 L6.144,66 C6.144,65.22 6.42,64.512 6.996,63.876 C7.332,63.492 7.944,62.976 8.856,62.352 C9.528,61.872 9.972,61.524 10.2,61.284 C10.632,60.816 10.86,60.3 10.86,59.748 C10.86,59.22 10.704,58.824 10.392,58.536 C10.08,58.248 9.636,58.104 9.084,58.104 C8.496,58.104 8.04,58.296 7.728,58.704 C7.392,59.088 7.212,59.664 7.2,60.42 L6.216,60.42 C6.216,59.46 6.492,58.692 7.02,58.128 C7.548,57.552 8.256,57.264 9.12,57.264 Z" id="2" fill="#FFFFFF"></path>
                        <path d="M10.008,109.432 L10.932,109.432 L10.932,115.252 L12.324,115.252 L12.324,116.056 L10.932,116.056 L10.932,118 L9.996,118 L9.996,116.056 L5.688,116.056 L5.688,115.12 L10.008,109.432 Z M9.96,110.716 L6.516,115.252 L9.996,115.252 L9.996,110.716 L9.96,110.716 Z" id="4" fill="#FFFFFF"></path>
                        <path d="M9.084,83.264 C9.9,83.264 10.572,83.468 11.076,83.888 C11.568,84.308 11.82,84.872 11.82,85.592 C11.82,86.552 11.352,87.2 10.416,87.512 C10.92,87.668 11.304,87.908 11.568,88.244 C11.856,88.58 12,89 12,89.504 C12,90.284 11.724,90.92 11.184,91.412 C10.632,91.916 9.912,92.168 9.024,92.168 C8.208,92.168 7.548,91.952 7.032,91.544 C6.42,91.04 6.084,90.308 6.012,89.348 L7.008,89.348 C7.032,90.02 7.26,90.536 7.68,90.884 C8.04,91.172 8.484,91.328 9.024,91.328 C9.636,91.328 10.128,91.148 10.5,90.8 C10.836,90.464 11.016,90.044 11.016,89.54 C11.016,89.024 10.848,88.628 10.512,88.34 C10.176,88.052 9.72,87.92 9.12,87.92 L8.424,87.92 L8.424,87.152 L9.084,87.152 C9.66,87.152 10.092,87.02 10.392,86.768 C10.692,86.504 10.848,86.132 10.848,85.652 C10.848,85.172 10.692,84.8 10.404,84.536 C10.092,84.248 9.648,84.116 9.096,84.116 C8.52,84.116 8.076,84.26 7.752,84.572 C7.416,84.884 7.224,85.328 7.164,85.904 L6.192,85.904 C6.264,85.076 6.576,84.428 7.104,83.96 C7.608,83.492 8.268,83.264 9.084,83.264 Z" id="3" fill="#FFFFFF"></path>
                        <path d="M6.66,135.432 L11.64,135.432 L11.64,136.308 L7.464,136.308 L7.176,139.176 L7.224,139.176 C7.464,138.888 7.776,138.672 8.148,138.528 C8.484,138.384 8.844,138.324 9.24,138.324 C10.056,138.324 10.716,138.576 11.22,139.092 C11.724,139.62 11.988,140.34 11.988,141.264 C11.988,142.128 11.676,142.836 11.064,143.388 C10.488,143.904 9.768,144.168 8.928,144.168 C8.172,144.168 7.524,143.964 6.996,143.556 C6.396,143.1 6.072,142.476 6.012,141.696 L6.984,141.696 C7.032,142.236 7.248,142.656 7.632,142.944 C7.968,143.196 8.412,143.328 8.94,143.328 C9.54,143.328 10.032,143.136 10.428,142.752 C10.812,142.368 11.016,141.876 11.016,141.276 C11.016,140.592 10.824,140.064 10.464,139.692 C10.116,139.308 9.624,139.128 9,139.128 C8.592,139.128 8.232,139.212 7.908,139.392 C7.572,139.56 7.308,139.824 7.14,140.16 L6.204,140.16 L6.66,135.432 Z" id="5" fill="#FFFFFF"></path>
                    </g>
                    <g id="裤子线性" transform="translate(38.000000, 1.000000)">
                        <g id="size_trousers">
                            <g id="裤子线性图" transform="translate(0.000000, 21.000000)">
                                <path d="M58.0900841,46.0323085 C58.2193979,45.1827963 59.443688,45.1827963 59.5730019,46.0323085 L79.8794254,179.432959 C89.9582993,186.584758 101.727,186.602957 115.303199,179.437622 L94.2634324,2.15234375 L23.3996535,2.15234375 L2.35988734,179.437622 C15.9360857,186.602957 27.7047867,186.584758 37.7836636,179.43294 L58.0900841,46.0323085 Z M39.218998,179.971264 C39.1887518,180.169963 39.0800195,180.348208 38.9171852,180.466026 C28.1709129,188.241443 15.5567633,188.241443 1.19941053,180.518912 C0.928084617,180.372971 0.773606015,180.075949 0.809913983,179.770011 L21.9886249,1.31395592 C22.0334109,0.936580331 22.3533746,0.65234375 22.7333984,0.65234375 L94.9296875,0.65234375 C95.3097113,0.65234375 95.629675,0.936580331 95.674461,1.31395592 L116.853172,179.770011 C116.88948,180.075949 116.735001,180.372971 116.463675,180.518912 C102.106323,188.241443 89.492173,188.241443 78.7459007,180.466026 C78.5830665,180.348208 78.4743342,180.169963 78.444088,179.971264 L58.831543,51.1289669 L39.218998,179.971264 Z" id="Combined-Shape" fill="#3C3C3C" fill-rule="nonzero"></path>
                                <path d="M21.3785639,10.8918564 L21.7171392,9.95091707 C45.9855968,18.6833618 70.7219878,18.6833618 95.9457672,9.94891188 L96.2729828,10.8938616 C70.8353039,19.7023803 45.8640125,19.7023803 21.3785639,10.8918564 Z" id="Path-11-Copy" fill="#3C3C3C" fill-rule="nonzero"></path>
                                <path d="" id="Path-12" stroke="#979797"></path>
                                <path d="M58.5517578,9.06860352 L53.2900391,9.06860352 L53.2900391,38.955508 L58.5517578,45.0134187 L58.5517578,9.06860352 Z M59.5517578,47.6897063 L52.2900391,39.3291599 L52.2900391,8.06860352 L59.5517578,8.06860352 L59.5517578,47.6897063 Z" id="Path-13" fill="#3C3C3C" fill-rule="nonzero"></path>
                                <path d="M19.7073261,25.4840044 L20.2926739,24.6732221 C23.2768842,26.8276855 29.725002,27.5172924 35.6589956,26.2710262 C42.3472495,24.8663492 47.015695,21.4124814 47.9228568,16.4609636 L48.9064851,16.641173 C47.9122464,22.0679779 42.9077851,25.7704412 35.864533,27.2496755 C29.6804812,28.5484592 22.9558337,27.8292784 19.7073261,25.4840044 Z" id="Path-14" fill="#3C3C3C" fill-rule="nonzero"></path>
                                <path d="M67.4180973,24.4316908 L67.9914005,23.6601233 C70.9123943,25.7091121 77.5367418,26.3808264 83.6604834,25.2050508 C90.5760498,23.8772426 95.3937025,20.5938999 96.279508,15.8961357 L97.2428965,16.067629 C96.2691132,21.2319726 91.11668,24.7434761 83.8503553,26.1386309 C77.4855211,27.3606969 70.5980002,26.6622966 67.4180973,24.4316908 Z" id="Path-14-Copy" fill="#3C3C3C" fill-rule="nonzero" transform="translate(82.330497, 21.315576) rotate(-330.000000) translate(-82.330497, -21.315576) "></path>
                                <path d="M64.3161548,28.950951 L64.450935,28.4694592 C65.1018688,28.65167 65.7435601,28.8219388 66.3760067,28.9802669 L66.2545827,29.4652991 C65.617627,29.3058421 64.971485,29.1343923 64.3161548,28.950951 Z M68.2111176,29.9236795 L68.3174876,29.4351251 C68.9795658,29.5792754 69.6308555,29.7095063 70.2713541,29.8258204 L70.1820156,30.3177743 C69.5357628,30.2004153 68.8787977,30.0690495 68.2111176,29.9236795 Z M72.1705317,30.6394668 L72.2404572,30.1443805 C72.9115903,30.2391706 73.5699779,30.317548 74.215617,30.3795178 L74.1678455,30.8772305 C73.5147206,30.8145422 72.8489504,30.7352859 72.1705317,30.6394668 Z M76.1757166,31.0195528 L76.1980543,30.520052 C76.874929,30.5503218 77.5365355,30.5609771 78.1828718,30.5520279 L78.1897942,31.05198 C77.533586,31.0610659 76.8622274,31.0502535 76.1757166,31.0195528 Z M80.2169641,30.9566996 L80.1761696,30.4583666 C80.8500554,30.403201 81.5055354,30.3244451 82.142616,30.2221155 L82.221911,30.7157877 C81.5719114,30.8201924 80.9035937,30.9004908 80.2169641,30.9566996 Z M84.2367912,30.3000478 L84.1132541,29.8155495 C84.7641953,29.649573 85.393351,29.4556783 86.00075,29.2338813 L86.1722528,29.7035479 C85.5489735,29.9311438 84.90381,30.1299718 84.2367912,30.3000478 Z M88.01349,28.9161382 L87.7916783,28.4680316 C88.3863571,28.173667 88.9568729,27.848162 89.5032765,27.4915042 L89.7765757,27.9102016 C89.2135378,28.2777173 88.6258257,28.6130336 88.01349,28.9161382 Z M91.432153,26.6768702 L91.1091449,26.2952083 C91.6080073,25.8730111 92.082718,25.4193371 92.533307,24.9341414 L92.8996848,25.2743873 C92.4355242,25.7741969 91.9463369,26.2417061 91.432153,26.6768702 Z M94.2232083,23.6697155 L93.8199135,23.3741595 C94.2023764,22.8522778 94.5630728,22.3017889 94.901997,21.7226583 L95.3335299,21.975204 C94.9860135,22.5690164 94.6159081,23.1338651 94.2232083,23.6697155 Z M96.2988263,20.1273486 L95.8454609,19.9164938 C96.117566,19.3314321 96.3712344,18.7221014 96.6064514,18.0884897 L97.0751941,18.262502 C96.8353956,18.908455 96.5766113,19.5300746 96.2988263,20.1273486 Z" id="Path-16-Copy" fill="#3C3C3C" fill-rule="nonzero" transform="translate(80.695674, 24.571791) rotate(-330.000000) translate(-80.695674, -24.571791) "></path>
                                <polygon id="Path-18" fill="#3C3C3C" fill-rule="nonzero" points="71.8834229 21.1038818 71.7505709 20.1127459 91.4564239 17.4859469 93.1972671 27.0666177 92.2133774 27.2453941 90.6431855 18.6038968"></polygon>
                                <path d="" id="Path-19" stroke="#979797"></path>
                                <path d="M54.6468629,41.2987754 L54.1469429,41.3077164 L54.1111791,39.3080362 L54.6110991,39.2990952 L54.6468629,41.2987754 Z M54.5753353,37.299415 L54.0754152,37.308356 L54.0396514,35.3086757 L54.5395715,35.2997348 L54.5753353,37.299415 Z M54.5038077,33.3000546 L54.0038876,33.3089955 L53.9681238,31.3093153 L54.4680439,31.3003744 L54.5038077,33.3000546 Z M54.43228,29.3006942 L53.93236,29.3096351 L53.8965962,27.3099549 L54.3965162,27.3010139 L54.43228,29.3006942 Z M54.3607524,25.3013337 L53.8608324,25.3102747 L53.8250686,23.3105945 L54.3249886,23.3016535 L54.3607524,25.3013337 Z M54.3100721,21.306391 L53.8100722,21.3061351 L53.811096,19.3061354 L54.3110959,19.3063913 L54.3100721,21.306391 Z M54.3121197,17.3063916 L53.8121198,17.3061356 L53.8131436,15.3061359 L54.3131435,15.3063918 L54.3121197,17.3063916 Z M54.3141673,13.3063921 L53.8141674,13.3061361 L53.8151912,11.3061364 L54.3151911,11.3063923 L54.3141673,13.3063921 Z M54.3162149,9.30639261 L53.816215,9.30613666 L53.8167376,8.28515035 L54.3167251,8.28277855 L54.3265143,9.26174316 L54.3162377,9.26184592 L54.3162149,9.30639261 Z M53.8465374,11.2666427 L54.3465124,11.2616432 L54.3665106,13.2615432 L53.8665356,13.2665427 L53.8465374,11.2666427 Z M53.8865337,15.2664427 L54.3865087,15.2614432 L54.4065068,17.2613432 L53.9065318,17.2663428 L53.8865337,15.2664427 Z M53.92653,19.2662428 L54.426505,19.2612432 L54.4465031,21.2611433 L53.9465281,21.2661428 L53.92653,19.2662428 Z M53.9665262,23.2660428 L54.4665012,23.2610433 L54.4864994,25.2609433 L53.9865243,25.2659428 L53.9665262,23.2660428 Z M54.0065225,27.2658428 L54.5064975,27.2608433 L54.5264956,29.2607433 L54.0265206,29.2657429 L54.0065225,27.2658428 Z M54.0465187,31.2656429 L54.5464937,31.2606433 L54.5664919,33.2605434 L54.0665169,33.2655429 L54.0465187,31.2656429 Z M54.086515,35.2654429 L54.58649,35.2604434 L54.6064881,37.2603434 L54.1065131,37.2653429 L54.086515,35.2654429 Z M54.1265113,39.2652429 L54.6264863,39.2602434 L54.6464844,41.2601434 L54.1465094,41.265143 L54.1265113,39.2652429 Z" id="Path-20" fill="#3C3C3C" fill-rule="nonzero"></path>
                                <path d="" id="Path-9" stroke="#979797"></path>
                                <path d="M22.5478516,1.42138672 C45.5914714,10.7068685 69.7786458,10.7068685 95.109375,1.42138672" id="Path-11" stroke="#3C3C3C"></path>
                                <path d="" id="Path-15" stroke="#979797"></path>
                                <path d="M19.5486696,29.168429 L19.6905883,28.6889928 C20.3398217,28.8811735 20.9796951,29.0593631 21.6102059,29.2235636 L21.4841965,29.7074248 C20.8483068,29.5418235 20.203132,29.3621576 19.5486696,29.168429 Z M23.4375252,30.1783466 L23.5454879,29.6901416 C24.206926,29.8364134 24.8573778,29.9662934 25.4968402,30.0797856 L25.4094653,30.572092 C24.7630389,30.4573638 24.1057266,30.326114 23.4375252,30.1783466 Z M27.4038885,30.8780887 L27.4676096,30.3821657 C28.1391707,30.4684545 28.7976691,30.5352983 29.4431022,30.5827051 L29.406476,31.0813618 C28.7518847,31.0332824 28.0843563,30.965522 27.4038885,30.8780887 Z M31.4217033,31.1676653 L31.4271399,30.6676949 C32.1030321,30.6750444 32.7632797,30.6591606 33.4078857,30.6200576 L33.438161,31.1191401 C32.7815286,31.1589727 32.1093752,31.175143 31.4217033,31.1676653 Z M35.4692878,30.9133639 L35.3979698,30.4184763 C36.0639321,30.3225048 36.7113525,30.1990189 37.3402506,30.0480358 L37.4569718,30.5342211 C36.812933,30.6888391 36.1503651,30.8152142 35.4692878,30.9133639 Z M39.4491882,29.9449504 L39.281854,29.4737824 C39.9091077,29.2510148 40.5154763,28.9971263 41.1010037,28.7121168 L41.3198348,29.1616865 C40.7174666,29.4548934 40.0939031,29.7159814 39.4491882,29.9449504 Z M43.0562403,28.1902182 L42.7874057,27.7686403 C43.3408344,27.4157262 43.872835,27.0305588 44.3834462,26.613105 L44.6999202,27.0002021 C44.1741373,27.4300596 43.6262311,27.8267427 43.0562403,28.1902182 Z M46.2204576,25.6012429 L45.8613771,25.2533044 C46.3129731,24.7872471 46.7446999,24.2909871 47.1565629,23.7644872 L47.5503809,24.0725577 C47.1277278,24.6128508 46.6844183,25.1224249 46.2204576,25.6012429 Z M48.7472262,22.3739693 L48.325104,22.1059901 C48.6713485,21.560584 49.0004292,20.9889962 49.3123346,20.391209 L49.7556221,20.6225016 C49.4372503,21.232682 49.1011222,21.8165105 48.7472262,22.3739693 Z M50.6438068,18.7449125 L50.1841641,18.5481167 C50.4385905,17.9538699 50.6786196,17.3376862 50.9042404,16.6995613 L51.3756427,16.8662343 C51.1464677,17.5144115 50.9025261,18.140639 50.6438068,18.7449125 Z" id="Path-16" fill="#3C3C3C" fill-rule="nonzero"></path>
                                <polygon id="Path-17" fill="#3C3C3C" fill-rule="nonzero" points="25.5619729 27.1281282 24.6138084 26.8103484 27.7299139 17.512777 46.5308767 20.2444533 46.387092 21.2340623 28.4126643 18.6224769"></polygon>
                                <polygon id="Path-21" fill="#FFFFFF" points="40.6625977 6 39 16.7592773 41.8621216 16.7592773 44.7242432 6"></polygon>
                                <path d="M40.1684625,5.92364283 C40.2061309,5.67987651 40.4159381,5.5 40.6625977,5.5 L44.7242432,5.5 C45.0526326,5.5 45.2918594,5.81118414 45.207439,6.12853701 L42.3453174,16.8878143 C42.2870545,17.106836 42.0887602,17.2592773 41.8621216,17.2592773 L39,17.2592773 C38.6934231,17.2592773 38.4590461,16.9859011 38.5058648,16.6829202 L40.1684625,5.92364283 Z M41.0912686,6.5 L39.5831979,16.2592773 L41.4777402,16.2592773 L44.0738475,6.5 L41.0912686,6.5 Z" id="Path-21-Copy-3" fill="#3C3C3C" fill-rule="nonzero"></path>
                                <polygon id="Path-21-Copy" fill="#FFFFFF" transform="translate(72.862122, 11.515198) scale(-1, 1) translate(-72.862122, -11.515198) " points="71.6625977 6 70 16.7592773 72.7178955 17.0303955 75.7242432 6"></polygon>
                                <path d="M71.1684625,5.92364283 C71.2061309,5.67987651 71.4159381,5.5 71.6625977,5.5 L75.7242432,5.5 C76.0538959,5.5 76.2933319,5.81342842 76.2066466,6.13147965 L73.200299,17.1618752 C73.1361019,17.3974165 72.9111928,17.552159 72.6682653,17.5279263 L69.9503698,17.2568081 C69.665061,17.2283477 69.4620778,16.9662818 69.5058648,16.6829202 L71.1684625,5.92364283 Z M70.5747223,16.3141261 L72.346701,16.4908862 L75.0697292,6.5 L72.0912686,6.5 L70.5747223,16.3141261 Z" id="Path-21-Copy-2" fill="#3C3C3C" fill-rule="nonzero" transform="translate(72.862222, 11.515209) scale(-1, 1) translate(-72.862222, -11.515209) "></path>
                                <path d="M78.3331362,175.186796 L78.5545591,174.738497 C79.1542074,175.034674 79.7545789,175.316708 80.355674,175.584602 L80.1521353,176.041299 C79.5449997,175.770713 78.9386665,175.485878 78.3331362,175.186796 Z M82.0064692,176.822431 L82.1909147,176.357694 C82.811658,176.604056 83.4331722,176.835414 84.0554587,177.051771 L83.8912599,177.524041 C83.262148,177.305311 82.6338839,177.07144 82.0064692,176.822431 Z M85.8118997,178.143982 L85.9546694,177.664798 C86.5934647,177.855123 87.2330756,178.029723 87.8735044,178.188601 L87.7531139,178.67389 C87.1051602,178.513146 86.458088,178.336509 85.8118997,178.143982 Z M89.7407794,179.116591 L89.8376283,178.62606 C90.4898895,178.754841 91.1430035,178.8674 91.7969738,178.963741 L91.7241023,179.458402 C91.0620957,179.360878 90.400987,179.24694 89.7407794,179.116591 Z M93.7075484,179.701219 L93.7561149,179.203584 C94.4158698,179.267972 95.0765024,179.315941 95.7380165,179.347491 L95.7141967,179.846924 C95.0444181,179.814979 94.3755341,179.766411 93.7075484,179.701219 Z M97.748547,179.892835 L97.7473018,179.392836 C98.408733,179.391189 99.0710523,179.373216 99.7342631,179.338915 L99.7600878,179.838248 C99.0886987,179.872971 98.4181839,179.891167 97.748547,179.892835 Z M101.801585,179.682001 L101.751199,179.184547 C102.40782,179.11804 103.065321,179.035614 103.723703,178.937269 L103.797571,179.431782 C103.131402,179.531291 102.466072,179.614698 101.801585,179.682001 Z M105.731356,179.098159 L105.635367,178.60746 C106.282097,178.480949 106.92968,178.339155 107.578118,178.182074 L107.695836,178.668019 C107.040212,178.82684 106.385385,178.970221 105.731356,179.098159 Z M109.654084,178.148411 L109.515537,177.66799 C110.148033,177.485587 110.781343,177.288714 111.415467,177.077369 L111.573561,177.551718 C110.932987,177.765212 110.293161,177.964111 109.654084,178.148411 Z M113.482514,176.873118 L113.305876,176.405359 C113.921385,176.172926 114.537659,175.926926 115.154699,175.667357 L115.348577,176.128238 C114.725858,176.390196 114.103837,176.63849 113.482514,176.873118 Z" id="Path-10" fill="#3C3C3C" fill-rule="nonzero"></path>
                                <path d="M1.3331362,175.186796 L1.55455911,174.738497 C2.15420742,175.034674 2.75457887,175.316708 3.35567395,175.584602 L3.15213526,176.041299 C2.54499973,175.770713 1.93866654,175.485878 1.3331362,175.186796 Z M5.00646919,176.822431 L5.19091466,176.357694 C5.81165798,176.604056 6.4331722,176.835414 7.05545868,177.051771 L6.89125991,177.524041 C6.26214797,177.305311 5.63388394,177.07144 5.00646919,176.822431 Z M8.81189967,178.143982 L8.95466937,177.664798 C9.59346471,177.855123 10.2330756,178.029723 10.8735044,178.188601 L10.7531139,178.67389 C10.1051602,178.513146 9.45808804,178.336509 8.81189967,178.143982 Z M12.7407794,179.116591 L12.8376283,178.62606 C13.4898895,178.754841 14.1430035,178.8674 14.7969738,178.963741 L14.7241023,179.458402 C14.0620957,179.360878 13.400987,179.24694 12.7407794,179.116591 Z M16.7075484,179.701219 L16.7561149,179.203584 C17.4158698,179.267972 18.0765024,179.315941 18.7380165,179.347491 L18.7141967,179.846924 C18.0444181,179.814979 17.3755341,179.766411 16.7075484,179.701219 Z M20.748547,179.892835 L20.7473018,179.392836 C21.408733,179.391189 22.0710523,179.373216 22.7342631,179.338915 L22.7600878,179.838248 C22.0886987,179.872971 21.4181839,179.891167 20.748547,179.892835 Z M24.801585,179.682001 L24.7511994,179.184547 C25.4078205,179.11804 26.0653207,179.035614 26.7237028,178.937269 L26.7975705,179.431782 C26.1314019,179.531291 25.4660724,179.614698 24.801585,179.682001 Z M28.7313556,179.098159 L28.6353673,178.60746 C29.2820966,178.480949 29.9296796,178.339155 30.5781181,178.182074 L30.6958357,178.668019 C30.0402123,178.82684 29.3853849,178.970221 28.7313556,179.098159 Z M32.6540835,178.148411 L32.515537,177.66799 C33.148033,177.485587 33.7813427,177.288714 34.4154672,177.077369 L34.5735611,177.551718 C33.9329873,177.765212 33.2931611,177.964111 32.6540835,178.148411 Z M36.4825145,176.873118 L36.3058762,176.405359 C36.9213849,176.172926 37.5376589,175.926926 38.1546986,175.667357 L38.348577,176.128238 C37.7258579,176.390196 37.103837,176.63849 36.4825145,176.873118 Z" id="Path-10-Copy" fill="#3C3C3C" fill-rule="nonzero"></path>
                            </g>
                            <g id="线条指示" transform="translate(4.000000, 0.000000)">
                                <g id="1" transform="translate(18.000000, 0.000000)">
                                    <path d="M72.9134413,18.2385658 L72.3151247,19.0398256 C62.8922301,12.0035644 50.3536655,8 36.9979781,8 C23.6206103,8 11.0633552,12.016647 1.63611536,19.0732565 L1.03686675,18.2726935 C10.6404654,11.0840734 23.408516,7 36.9979781,7 C50.5653847,7 63.314374,11.070753 72.9134413,18.2385658 Z" id="Oval-8" fill="#979797" fill-rule="nonzero"></path>
                                    <polygon id="Rectangle-12" fill="#979797" transform="translate(3.469121, 17.356206) rotate(-75.000000) translate(-3.469121, -17.356206) " points="0.762535776 14.4899351 6.17570631 17.0201871 2.97341626 20.2224772"></polygon>
                                    <polygon id="Rectangle-12-Copy" fill="#979797" transform="translate(70.469121, 17.356206) scale(-1, 1) rotate(-75.000000) translate(-70.469121, -17.356206) " points="67.7625358 14.4899351 73.1757063 17.0201871 69.9734163 20.2224772"></polygon>
                                    <circle id="Oval-9" fill="#242424" cx="37" cy="8" r="7"></circle>
                                    <path d="M37.53,4.146 L38.234,4.146 L38.234,12 L37.332,12 L37.332,5.246 C36.837,5.752 36.221,6.104 35.484,6.324 L35.484,5.422 C35.836,5.323 36.21,5.169 36.584,4.949 C36.958,4.707 37.266,4.443 37.53,4.146 Z" fill="#FFFFFF"></path>
                                </g>
                                <g id="5" transform="translate(68.000000, 20.000000)">
                                    <path d="M120.26365,102.794969 C77.5656523,91.7761576 22.1885483,83.2752915 -45.8642098,77.294388 L-45.8642098,79.4351964 L-51.4810578,76.9450056 L-45.8642098,74.9064744 L-45.8642098,76.290534 C22.292771,82.2774788 77.7594829,90.7910819 120.539385,101.833365 L121.076964,99.9586057 L125.914329,103.466381 L119.828679,104.311893 L120.26365,102.794967 L120.26365,102.794969 Z" id="Combined-Shape" fill="#979797" fill-rule="nonzero" transform="translate(37.216636, 89.609184) rotate(-285.000000) translate(-37.216636, -89.609184) "></path>
                                    <circle id="Oval-9-Copy-3" fill="#242424" transform="translate(39.000000, 84.000000) rotate(-360.000000) translate(-39.000000, -84.000000) " cx="39" cy="84" r="7"></circle>
                                    <path d="M37.155,80.146 L41.72,80.146 L41.72,80.949 L37.892,80.949 L37.628,83.578 L37.672,83.578 C37.892,83.314 38.178,83.116 38.519,82.984 C38.827,82.852 39.157,82.797 39.52,82.797 C40.268,82.797 40.873,83.028 41.335,83.501 C41.797,83.985 42.039,84.645 42.039,85.492 C42.039,86.284 41.753,86.933 41.192,87.439 C40.664,87.912 40.004,88.154 39.234,88.154 C38.541,88.154 37.947,87.967 37.463,87.593 C36.913,87.175 36.616,86.603 36.561,85.888 L37.452,85.888 C37.496,86.383 37.694,86.768 38.046,87.032 C38.354,87.263 38.761,87.384 39.245,87.384 C39.795,87.384 40.246,87.208 40.609,86.856 C40.961,86.504 41.148,86.053 41.148,85.503 C41.148,84.876 40.972,84.392 40.642,84.051 C40.323,83.699 39.872,83.534 39.3,83.534 C38.926,83.534 38.596,83.611 38.299,83.776 C37.991,83.93 37.749,84.172 37.595,84.48 L36.737,84.48 L37.155,80.146 Z" fill="#FFFFFF"></path>
                                </g>
                                <g id="2" transform="translate(54.500000, 68.000000) rotate(-180.000000) translate(-54.500000, -68.000000) translate(15.000000, 60.000000)">
                                    <path d="M75.6717503,12.1955803 L75.2664918,13.1097824 C65.7088741,8.87296706 52.9820854,6.46056273 39.425668,6.46056273 C25.8472545,6.46056273 13.1015065,8.88084791 3.53953152,13.1298936 L3.13345059,12.2160565 C12.8305519,7.90696481 25.7138372,5.46056273 39.425668,5.46056273 C53.1152346,5.46056273 65.9792747,7.89898351 75.6717503,12.1955803 Z" id="Oval-8" fill="#979797" fill-rule="nonzero"></path>
                                    <polygon id="Rectangle-12" fill="#979797" transform="translate(3.469121, 12.356206) rotate(-75.000000) translate(-3.469121, -12.356206) " points="0.762535776 9.4899351 6.17570631 12.0201871 2.97341626 15.2224772"></polygon>
                                    <polygon id="Rectangle-12-Copy" fill="#979797" transform="translate(75.469121, 12.356206) scale(-1, 1) rotate(-75.000000) translate(-75.469121, -12.356206) " points="72.7625358 9.4899351 78.1757063 12.0201871 74.9734163 15.2224772"></polygon>
                                    <circle id="Oval-9-Copy" fill="#242424" cx="25" cy="7" r="7"></circle>
                                    <path d="M24.1014063,2.992 C24.8274063,2.992 25.4214063,3.201 25.8944063,3.619 C26.3564063,4.037 26.5984063,4.598 26.5984063,5.28 C26.5984063,5.962 26.3344063,6.578 25.8284063,7.128 C25.5534063,7.414 25.0144063,7.843 24.2004063,8.393 C23.1994063,9.064 22.6274063,9.669 22.4844063,10.197 L26.6094063,10.197 L26.6094063,11 L21.3734063,11 C21.3734063,10.285 21.6264063,9.636 22.1544063,9.053 C22.4624063,8.701 23.0234063,8.228 23.8594063,7.656 C24.4754063,7.216 24.8824063,6.897 25.0914063,6.677 C25.4874063,6.248 25.6964063,5.775 25.6964063,5.269 C25.6964063,4.785 25.5534063,4.422 25.2674063,4.158 C24.9814063,3.894 24.5744063,3.762 24.0684063,3.762 C23.5294063,3.762 23.1114063,3.938 22.8254063,4.312 C22.5174063,4.664 22.3524063,5.192 22.3414063,5.885 L21.4394063,5.885 C21.4394063,5.005 21.6924063,4.301 22.1764063,3.784 C22.6604063,3.256 23.3094063,2.992 24.1014063,2.992 Z" fill="#FFFFFF" transform="translate(23.991406, 6.996000) rotate(-180.000000) translate(-23.991406, -6.996000) "></path>
                                </g>
                                <g id="3" transform="translate(35.000000, 69.000000)">
                                    <polygon id="Rectangle-12" fill="#979797" transform="translate(20.466990, 4.738471) rotate(-308.000000) translate(-20.466990, -4.738471) " points="17.7604049 1.87219964 23.1735754 4.40245168 19.9712853 7.60474173"></polygon>
                                    <polygon id="Rectangle-12-Copy" fill="#979797" points="1.93177164 134.659485 0.972321452 128.455901 5.63689051 129.536687"></polygon>
                                    <polygon id="Path-22" fill="#979797" fill-rule="nonzero" points="20.045335 4.34977457 21.0357196 4.48811605 3.54499698 129.703936 2.55461239 129.565595"></polygon>
                                    <circle id="Oval-5" fill="#242424" transform="translate(14.026874, 53.941243) rotate(-150.000000) translate(-14.026874, -53.941243) " cx="14.0268739" cy="53.9412434" r="7"></circle>
                                    <path d="M14.6446726,49.6778859 C15.3926726,49.6778859 16.0086726,49.8648859 16.4706726,50.2498859 C16.9216726,50.6348859 17.1526726,51.1518859 17.1526726,51.8118859 C17.1526726,52.6918859 16.7236726,53.2858859 15.8656726,53.5718859 C16.3276726,53.7148859 16.6796726,53.9348859 16.9216726,54.2428859 C17.1856726,54.5508859 17.3176726,54.9358859 17.3176726,55.3978859 C17.3176726,56.1128859 17.0646726,56.6958859 16.5696726,57.1468859 C16.0636726,57.6088859 15.4036726,57.8398859 14.5896726,57.8398859 C13.8416726,57.8398859 13.2366726,57.6418859 12.7636726,57.2678859 C12.2026726,56.8058859 11.8946726,56.1348859 11.8286726,55.2548859 L12.7416726,55.2548859 C12.7636726,55.8708859 12.9726726,56.3438859 13.3576726,56.6628859 C13.6876726,56.9268859 14.0946726,57.0698859 14.5896726,57.0698859 C15.1506726,57.0698859 15.6016726,56.9048859 15.9426726,56.5858859 C16.2506726,56.2778859 16.4156726,55.8928859 16.4156726,55.4308859 C16.4156726,54.9578859 16.2616726,54.5948859 15.9536726,54.3308859 C15.6456726,54.0668859 15.2276726,53.9458859 14.6776726,53.9458859 L14.0396726,53.9458859 L14.0396726,53.2418859 L14.6446726,53.2418859 C15.1726726,53.2418859 15.5686726,53.1208859 15.8436726,52.8898859 C16.1186726,52.6478859 16.2616726,52.3068859 16.2616726,51.8668859 C16.2616726,51.4268859 16.1186726,51.0858859 15.8546726,50.8438859 C15.5686726,50.5798859 15.1616726,50.4588859 14.6556726,50.4588859 C14.1276726,50.4588859 13.7206726,50.5908859 13.4236726,50.8768859 C13.1156726,51.1628859 12.9396726,51.5698859 12.8846726,52.0978859 L11.9936726,52.0978859 C12.0596726,51.3388859 12.3456726,50.7448859 12.8296726,50.3158859 C13.2916726,49.8868859 13.8966726,49.6778859 14.6446726,49.6778859 Z" fill="#FFFFFF"></path>
                                </g>
                                <g id="4" transform="translate(17.381145, 114.490727) rotate(-267.000000) translate(-17.381145, -114.490727) translate(-72.618855, 102.490727)">
                                    <path d="M3.87816262,5.74483499 L4.13554204,4.77852457 C13.9425649,7.39065188 46.8558047,11.7475067 79.3325353,14.5084048 C119.968698,17.9629491 154.612806,18.6790097 174.93526,15.7388473 L175.078445,16.7285433 C154.658823,19.6827634 119.956196,18.9654932 79.2478293,15.5048108 C46.7145337,12.739104 13.7592058,8.37667783 3.87816262,5.74483499 Z" id="Oval-3" fill="#979797" fill-rule="nonzero"></path>
                                    <polygon id="Path" fill="#979797" transform="translate(3.688196, 4.565716) rotate(-23.000000) translate(-3.688196, -4.565716) " points="0.981610974 1.69944521 6.3947815 4.22969726 3.19249146 7.4319873"></polygon>
                                    <polygon id="Path-Copy" fill="#979797" transform="translate(175.893392, 15.583835) scale(-1, 1) rotate(-37.000000) translate(-175.893392, -15.583835) " points="173.186807 12.7175641 178.599978 15.2478161 175.397688 18.4501062"></polygon>
                                    <circle id="Oval-9-Copy-2" fill="#242424" cx="90" cy="17" r="7"></circle>
                                    <path d="M90.96,13 L91.807,13 L91.807,18.335 L93.083,18.335 L93.083,19.072 L91.807,19.072 L91.807,20.854 L90.949,20.854 L90.949,19.072 L87,19.072 L87,18.214 L90.96,13 Z M90.916,14.177 L87.759,18.335 L90.949,18.335 L90.949,14.177 L90.916,14.177 Z" fill="#FFFFFF" transform="translate(90.041500, 16.927000) rotate(-90.000000) translate(-90.041500, -16.927000) "></path>
                                </g>
                                <g id="Group-4" transform="translate(58.000000, 118.000000)"></g>
                            </g>
                        </g>
                    </g>
                </g>
            </g>
        </g>
    </g>
</svg>