<?xml version="1.0" encoding="UTF-8"?>
<svg width="60px" height="60px" viewBox="0 0 60 60" version="1.1" xmlns="http://www.w3.org/2000/svg" xmlns:xlink="http://www.w3.org/1999/xlink">
    <!-- Generator: Sketch 49.2 (51160) - http://www.bohemiancoding.com/sketch -->
    <title>Group 2 Copy 3</title>
    <desc>Created with Sketch.</desc>
    <defs>
        <circle id="path-1" cx="25" cy="25" r="25"></circle>
        <filter x="-18.0%" y="-12.0%" width="136.0%" height="136.0%" filterUnits="objectBoundingBox" id="filter-2">
            <feOffset dx="0" dy="3" in="SourceAlpha" result="shadowOffsetOuter1"></feOffset>
            <feGaussianBlur stdDeviation="2.5" in="shadowOffsetOuter1" result="shadowBlurOuter1"></feGaussianBlur>
            <feColorMatrix values="0 0 0 0 0.862745098   0 0 0 0 0.282352941   0 0 0 0 0.282352941  0 0 0 0.264719203 0" type="matrix" in="shadowBlurOuter1"></feColorMatrix>
        </filter>
        <linearGradient x1="50%" y1="0%" x2="50%" y2="100%" id="linearGradient-3">
            <stop stop-color="#DC4848" offset="0%"></stop>
            <stop stop-color="#F3C0C0" offset="0%"></stop>
            <stop stop-color="#FF8484" offset="100%"></stop>
        </linearGradient>
        <path d="M21.1359975,14 L20.0849546,10.1554263 C19.7429162,8.83061092 20.4644526,7.45849361 21.6965511,7.09071647 C22.1378463,6.9589914 22.6055609,6.97095173 23.0405335,7.1250846 L24.9603231,7.90488107 L26.8801127,7.1250846 C27.3150853,6.97095173 27.7828,6.9589914 28.2240952,7.09071647 C29.4561937,7.45849361 30.1777301,8.83061092 29.8356917,10.1554263 L28.8180854,14 L21.1359975,14 Z M28.5478473,15 C30.4813664,16.516719 30.592041,19.0280762 32.1512422,26.0335783 L30.971972,26.5335783 C30.2182658,26.853143 29.3671378,26.853143 28.6134316,26.5335783 C27.8597255,26.2140136 27.0085974,26.2140136 26.2548913,26.5335783 C25.5011851,26.853143 24.650057,26.853143 23.8963509,26.5335783 C23.1426448,26.2140136 22.2915167,26.2140136 21.5378105,26.5335783 C20.7841044,26.853143 19.9329763,26.853143 19.1792702,26.5335783 L18,26.0335783 C19.3156738,19.2722168 19.5786879,16.516719 21.512207,15 C23.9144703,15 28.5478473,15 28.5478473,15 Z" id="path-4"></path>
    </defs>
    <g id="Page-1" stroke="none" stroke-width="1" fill="none" fill-rule="evenodd">
        <g id="Group-2-Copy-3" transform="translate(5.000000, 2.000000)">
            <g id="Oval-17">
                <use fill="black" fill-opacity="1" filter="url(#filter-2)" xlink:href="#path-1"></use>
                <use fill="#EB624E" fill-rule="evenodd" xlink:href="#path-1"></use>
            </g>
            <g id="Combined-Shape">
                <use fill="url(#linearGradient-3)" xlink:href="#path-4"></use>
                <use fill="#FFFFFF" xlink:href="#path-4"></use>
            </g>
            <path d="M7.711,31.097 L9.439,31.097 L9.439,30.62 L10.366,30.62 L10.366,31.097 L11.788,31.097 L11.788,31.907 L10.366,31.907 L10.366,32.312 L11.572,32.312 L11.572,33.077 L10.339,33.077 C10.321,33.221 10.303,33.347 10.285,33.473 L11.788,33.473 L11.788,34.283 L10.042,34.283 C9.97,34.445 9.88,34.598 9.79,34.742 C9.448,35.201 8.89,35.552 8.125,35.804 L7.648,35.048 C8.278,34.832 8.719,34.58 8.971,34.283 L7.522,34.283 L7.522,33.473 L9.34,33.473 C9.367,33.347 9.394,33.212 9.412,33.077 L7.936,33.077 L7.936,32.312 L9.439,32.312 L9.439,31.907 L7.711,31.907 L7.711,31.097 Z M11.113,35.021 L12.049,35.021 L12.049,35.768 L14.821,35.768 L14.821,37.595 C14.821,38.153 14.515,38.441 13.921,38.441 L13.174,38.441 L12.931,37.568 L13.624,37.604 C13.804,37.604 13.894,37.532 13.894,37.388 L13.894,36.632 L12.049,36.632 L12.049,39.008 L11.113,39.008 L11.113,36.632 L9.304,36.632 L9.304,38.495 L8.368,38.495 L8.368,35.768 L11.113,35.768 L11.113,35.021 Z M12.175,30.881 L15.352,30.881 L15.352,31.529 C15.154,31.97 14.911,32.402 14.623,32.825 C15.154,33.221 15.424,33.59 15.424,33.932 C15.415,34.49 15.154,34.841 14.641,34.976 C14.389,35.048 14.056,35.093 13.642,35.093 L13.3,34.202 C13.579,34.238 13.822,34.256 14.038,34.256 C14.308,34.238 14.443,34.13 14.443,33.932 C14.443,33.707 14.146,33.338 13.552,32.825 C13.84,32.483 14.083,32.123 14.29,31.745 L13.111,31.745 L13.111,35.309 L12.175,35.309 L12.175,30.881 Z M20.599,34.697 L20.599,35.651 C20.122,35.813 19.627,35.957 19.105,36.092 L19.105,37.919 C19.105,38.513 18.79,38.819 18.16,38.819 L17.143,38.819 L16.936,37.928 C17.251,37.964 17.548,37.982 17.836,37.982 C18.043,37.982 18.151,37.874 18.151,37.676 L18.151,36.317 C17.629,36.425 17.098,36.524 16.54,36.614 L16.405,35.669 C17.017,35.579 17.602,35.471 18.151,35.354 L18.151,33.806 L16.396,33.806 L16.396,32.906 L18.151,32.906 L18.151,32.069 C17.719,32.159 17.278,32.231 16.81,32.294 L16.612,31.403 C17.854,31.268 18.97,31.007 19.942,30.611 L20.266,31.493 C19.897,31.628 19.51,31.745 19.105,31.853 L19.105,32.906 L20.95,32.906 C20.896,32.213 20.878,31.448 20.878,30.62 L21.823,30.62 C21.832,31.484 21.859,32.24 21.913,32.906 L24.604,32.906 L24.604,33.806 L21.985,33.806 C22.039,34.391 22.12,34.868 22.219,35.246 C22.255,35.39 22.291,35.516 22.327,35.642 C22.696,35.183 23.02,34.67 23.29,34.112 L24.1,34.544 C23.704,35.354 23.227,36.065 22.678,36.659 C22.768,36.875 22.867,37.064 22.966,37.208 C23.218,37.604 23.416,37.802 23.542,37.802 C23.641,37.802 23.74,37.343 23.848,36.443 L24.685,36.884 C24.451,38.171 24.118,38.819 23.677,38.819 C23.281,38.819 22.867,38.549 22.444,38.018 C22.282,37.811 22.129,37.577 21.994,37.307 C21.382,37.811 20.698,38.207 19.951,38.495 L19.429,37.694 C20.257,37.388 20.986,36.956 21.607,36.398 C21.508,36.11 21.418,35.813 21.337,35.507 C21.202,35.021 21.103,34.454 21.031,33.806 L19.105,33.806 L19.105,35.138 C19.627,35.003 20.131,34.859 20.599,34.697 Z M22.813,30.701 C23.443,31.097 23.983,31.493 24.433,31.889 L23.758,32.564 C23.389,32.168 22.867,31.754 22.183,31.304 L22.813,30.701 Z M29.788,34.787 L29.788,35.687 L31.102,35.687 L31.102,34.787 L29.788,34.787 Z M29.788,36.56 L29.788,37.586 L31.102,37.586 L31.102,36.56 L29.788,36.56 Z M29.788,38.486 L29.788,38.891 L28.861,38.891 L28.861,34.004 C28.681,34.238 28.501,34.472 28.321,34.697 L28.177,34.247 L28.177,35.183 C27.934,35.291 27.691,35.399 27.448,35.498 L27.448,37.883 C27.448,38.495 27.124,38.81 26.494,38.81 L25.684,38.81 L25.477,37.901 C25.72,37.937 25.954,37.964 26.17,37.964 C26.386,37.964 26.503,37.856 26.503,37.64 L26.503,35.849 C26.179,35.957 25.846,36.065 25.513,36.155 L25.279,35.201 C25.693,35.12 26.098,35.021 26.503,34.895 L26.503,33.077 L25.45,33.077 L25.45,32.168 L26.503,32.168 L26.503,30.611 L27.448,30.611 L27.448,32.168 L28.249,32.168 L28.249,33.077 L27.448,33.077 L27.448,34.553 C27.7,34.445 27.934,34.337 28.168,34.22 L28.006,33.716 C28.708,32.78 29.194,31.745 29.482,30.62 L30.4,30.8 C30.274,31.232 30.13,31.646 29.959,32.051 L31.219,32.051 C31.084,31.637 30.931,31.223 30.751,30.827 L31.66,30.584 C31.849,31.115 32.002,31.601 32.11,32.051 L33.451,32.051 L33.451,32.951 L32.029,32.951 L32.029,33.905 L33.271,33.905 L33.271,34.787 L32.029,34.787 L32.029,35.687 L33.271,35.687 L33.271,36.56 L32.029,36.56 L32.029,37.586 L33.55,37.586 L33.55,38.486 L29.788,38.486 Z M31.102,32.951 L29.788,32.951 L29.788,33.905 L31.102,33.905 L31.102,32.951 Z M34.549,31.151 L36.502,31.151 L36.502,30.611 L37.456,30.611 L37.456,31.151 L39.544,31.151 L39.544,30.611 L40.498,30.611 L40.498,31.151 L42.451,31.151 L42.451,32.006 L40.498,32.006 L40.498,32.564 L39.544,32.564 L39.544,32.006 L37.456,32.006 L37.456,32.456 L38.365,32.627 C38.311,32.771 38.257,32.915 38.203,33.05 L42.406,33.05 L42.406,33.905 L37.78,33.905 C37.51,34.355 37.204,34.787 36.844,35.183 L36.844,38.954 L35.935,38.954 L35.935,36.065 C35.62,36.326 35.287,36.578 34.945,36.812 L34.36,36.038 C35.332,35.408 36.106,34.697 36.682,33.905 L34.702,33.905 L34.702,33.05 L37.195,33.05 C37.276,32.879 37.348,32.717 37.42,32.555 L36.502,32.555 L36.502,32.006 L34.549,32.006 L34.549,31.151 Z M39.652,35.759 C39.85,35.624 40.138,35.444 40.516,35.219 L37.924,35.219 L37.924,34.373 L41.875,34.373 L41.875,35.039 C41.506,35.318 41.083,35.633 40.597,35.993 L40.597,36.137 L42.442,36.137 L42.442,37.019 L40.597,37.019 L40.597,38.099 C40.597,38.657 40.318,38.936 39.769,38.936 L38.662,38.936 L38.392,38.027 C38.815,38.063 39.148,38.09 39.4,38.09 C39.562,38.09 39.652,38 39.652,37.838 L39.652,37.019 L37.303,37.019 L37.303,36.137 L39.652,36.137 L39.652,35.759 Z" id="帮我推荐" fill="#FFFFFF"></path>
        </g>
    </g>
</svg>