<?xml version="1.0" encoding="UTF-8"?>
<svg width="24px" height="24px" viewBox="0 0 24 24" version="1.1" xmlns="http://www.w3.org/2000/svg" xmlns:xlink="http://www.w3.org/1999/xlink">
    <!-- Generator: Sketch 54.1 (76490) - https://sketchapp.com -->
    <title>close</title>
    <desc>Created with Sketch.</desc>
    <g id="服务评价" stroke="none" stroke-width="1" fill="none" fill-rule="evenodd">
        <g id="3.其他反馈复制" transform="translate(-333.000000, -302.000000)" fill="#C9C9C8">
            <g id="反馈弹窗" transform="translate(0.000000, 281.000000)">
                <g id="编组" transform="translate(333.000000, 21.000000)">
                    <g id="关闭">
                        <g transform="translate(5.000000, 5.000000)" id="Combined-Shape">
                            <path d="M6.75,5.93933983 L12.0533009,0.636038969 C12.3461941,0.343145751 12.8210678,0.343145751 13.113961,0.636038969 C13.4068542,0.928932188 13.4068542,1.40380592 13.113961,1.69669914 L7.81066017,7 L13.113961,12.3033009 C13.4068542,12.5961941 13.4068542,13.0710678 13.113961,13.363961 C12.8210678,13.6568542 12.3461941,13.6568542 12.0533009,13.363961 L6.75,8.06066017 L1.44669914,13.363961 C1.15380592,13.6568542 0.678932188,13.6568542 0.386038969,13.363961 C0.0931457505,13.0710678 0.0931457505,12.5961941 0.386038969,12.3033009 L5.68933983,7 L0.386038969,1.69669914 C0.0931457505,1.40380592 0.0931457505,0.928932188 0.386038969,0.636038969 C0.678932188,0.343145751 1.15380592,0.343145751 1.44669914,0.636038969 L6.75,5.93933983 Z" transform="translate(6.750000, 7.000000) scale(-1, 1) rotate(-180.000000) translate(-6.750000, -7.000000) "></path>
                        </g>
                    </g>
                </g>
            </g>
        </g>
    </g>
</svg>