<?xml version="1.0" encoding="UTF-8"?>
<svg width="24px" height="24px" viewBox="0 0 24 24" version="1.1" xmlns="http://www.w3.org/2000/svg" xmlns:xlink="http://www.w3.org/1999/xlink">
    <!-- Generator: Sketch 49.2 (51160) - http://www.bohemiancoding.com/sketch -->
    <title>支付宝支付</title>
    <desc>Created with Sketch.</desc>
    <defs></defs>
    <g id="买衣" stroke="none" stroke-width="1" fill="none" fill-rule="evenodd">
        <g id="选择支付方式-免密支付" transform="translate(-18.000000, -502.000000)" fill="#1296DB">
            <g id="Group" transform="translate(0.000000, 380.000000)">
                <g id="支付宝支付" transform="translate(18.000000, 122.000000)">
                    <path d="M8.780129,17 C6.28472043,17 5.88994378,15.3168806 6.02251971,14.6137375 C6.15362007,13.9140941 6.87617263,13 8.26380566,13 C9.85776796,13 11.2857665,13.4369699 13,14.3269393 C11.7959375,16.0027651 10.3167443,17 8.780129,17 M21,15.3222991 L21,6.46083976 C21,4.55082724 19.4491836,3 17.5377203,3 L6.46072419,3 C4.55079,3 3,4.55011535 3,6.46083976 L3,17.5390284 C3,19.4491464 4.54936629,21 6.46072419,21 L17.5384585,21 C19.2411637,21 20.6572548,19.7688353 20.9459254,18.1502999 C20.0279747,17.7528574 16.0503645,16.0350274 13.9776264,15.0457979 C12.4002604,16.9566014 10.7487297,18.1028146 8.25921347,18.1028146 C5.7695654,18.1028146 4.10793689,16.5692571 4.30744094,14.6930459 C4.43916054,13.461143 5.28365823,11.4466944 8.95385244,11.7922484 C10.8876733,11.9737526 11.7731686,12.3351262 13.3499018,12.8556456 C13.7580585,12.1083515 14.0971917,11.2839628 14.3541451,10.408424 L7.36064114,10.408424 L7.36064114,9.71510118 L10.8207326,9.71510118 L10.8207326,8.47104344 L6.60045875,8.47104344 L6.60045875,7.70790324 L10.8214444,7.70790324 L10.8214444,5.91084306 C10.8214444,5.91084306 10.8595419,5.6300178 11.1698581,5.6300178 L12.9005629,5.6300178 L12.9005629,7.70713862 L17.4002267,7.70713862 L17.4002267,8.47035792 L12.9005629,8.47035792 L12.9005629,9.7143893 L16.5716008,9.7143893 C16.2338913,11.0880891 15.722041,12.3502604 15.080633,13.4524949 C16.1468604,13.8384154 21,15.3222991 21,15.3222991" id="Fill-1"></path>
                </g>
            </g>
        </g>
    </g>
</svg>