<?xml version="1.0" encoding="UTF-8"?>
<svg width="24px" height="24px" viewBox="0 0 24 24" version="1.1" xmlns="http://www.w3.org/2000/svg" xmlns:xlink="http://www.w3.org/1999/xlink">
    <!-- Generator: Sketch 49.2 (51160) - http://www.bohemiancoding.com/sketch -->
    <title>微信支付</title>
    <desc>Created with Sketch.</desc>
    <defs></defs>
    <g id="买衣" stroke="none" stroke-width="1" fill="none" fill-rule="evenodd">
        <g id="选择支付方式-免密支付" transform="translate(-18.000000, -452.000000)" fill="#24C000" fill-rule="nonzero">
            <g id="Group" transform="translate(0.000000, 380.000000)">
                <g id="微信支付" transform="translate(18.000000, 72.000000)">
                    <path d="M9.62457248,14.9641483 C8.42751118,15.6508761 8.24996405,14.5786164 8.24996405,14.5786164 L6.74970457,10.976073 C6.17244506,9.2641886 7.24930753,10.2042083 7.24930753,10.2042083 C7.24930753,10.2042083 8.17330791,10.9235181 8.87456779,11.3618374 C9.57545253,11.8001567 10.3743521,11.4905117 10.3743521,11.4905117 L20.1823366,6.83201252 C18.3728015,4.51502315 15.3836121,3 11.9994873,3 C6.47664364,3 2,7.03181936 2,12.0055963 C2,14.8664799 3.48235221,17.4127575 5.79129021,19.0630953 L5.37489605,21.5261739 C5.37489605,21.5261739 5.17191359,22.2452511 5.87539938,21.9117316 C6.35476912,21.6843295 7.57684059,20.8694442 8.30431113,20.3735057 C9.44795073,20.7836097 10.6939069,21.0113218 12.0000375,21.0113218 C17.522431,21.0113218 22,16.9795025 22,12.0056222 C22,10.5649614 21.6226967,9.20442483 20.9543502,7.99677296 C17.8295057,9.93148608 10.561253,14.4276955 9.62457248,14.9641483 Z"></path>
                </g>
            </g>
        </g>
    </g>
</svg>